<?xml version="1.0" encoding="UTF-8"?>
<svg xmlns:xlink="http://www.w3.org/1999/xlink" xmlns="http://www.w3.org/2000/svg" contentScriptType="text/ecmascript" width="2035px" zoomAndPan="magnify" contentStyleType="text/css" viewBox="0 0 2035 3311" height="3311px" preserveAspectRatio="xMidYMid meet" version="1.0">
  <path fill="none" d="M 112.00 170.00 L 112.00 230.00 L 129.27 231.50 L 132.00 230.00 L 232.00 230.00 L 240.00 238.00 L 299.69 148.25 L 192.00 157.00 Z" stroke-width="1" id="270-01-01" stroke="black"/>
  <path fill="none" d="M 243.43 241.43 L 250.00 242.00 L 250.19 248.19 L 252.00 250.00 L 412.00 250.00 L 432.00 230.00 L 452.00 249.00 L 492.00 249.00 L 511.00 230.00 L 513.00 154.94 L 366.72 145.00 L 339.69 145.00 L 299.69 148.25 L 240.00 238.00 Z" stroke-width="1" id="270-01-02" stroke="black"/>
  <path fill="none" d="M 512.00 229.00 L 532.00 249.00 L 552.00 249.00 L 572.00 229.00 L 592.00 249.00 L 612.00 229.00 L 632.00 249.00 L 672.00 249.00 L 692.00 229.00 L 772.00 229.00 L 780.00 228.60 L 788.29 154.91 L 617.00 162.00 L 513.00 154.94 L 511.00 230.00 Z" stroke-width="1" id="270-01-03" stroke="black"/>
  <path fill="none" d="M 792.00 228.00 L 1002.00 228.00 L 1034.00 146.00 L 1003.29 146.00 L 788.29 154.91 L 780.00 228.60 Z" stroke-width="1" id="270-01-04" stroke="black"/>
  <path fill="none" d="M 1092.00 228.00 L 1112.00 227.00 L 1432.00 227.00 L 1452.00 226.00 L 1575.00 226.00 L 1573.50 147.00 L 1412.00 147.00 L 1392.00 146.00 L 1152.00 146.00 L 1132.64 141.16 L 1131.45 141.14 L 1112.00 146.00 L 1034.00 146.00 L 1002.00 228.00 Z" stroke-width="1" id="270-01-05" stroke="black"/>
  <path fill="none" d="M 1772.00 226.00 L 1792.00 225.00 L 1808.00 225.00 L 1818.00 153.16 L 1774.00 148.00 L 1584.50 147.00 L 1573.50 147.00 L 1575.00 226.00 Z" stroke-width="1" id="270-01-06" stroke="black"/>
  <path fill="none" d="M 1897.60 225.00 L 1941.00 218.00 L 1936.00 167.00 L 1818.00 153.16 L 1808.00 225.00 Z" stroke-width="1" id="270-01-07" stroke="black"/>
  <path fill="none" d="M 292.00 292.00 L 272.00 332.00 L 262.60 332.00 L 269.00 364.00 L 264.00 397.00 L 264.84 413.00 L 312.00 413.00 L 332.00 440.00 L 352.00 430.00 L 392.00 430.00 L 399.00 431.05 L 470.00 292.00 Z" stroke-width="1" id="270-03-01" stroke="black"/>
  <path fill="none" d="M 412.00 433.00 L 452.00 433.00 L 472.00 413.00 L 567.00 413.00 L 570.00 292.00 L 470.00 292.00 L 399.00 431.05 Z" stroke-width="1" id="270-03-02" stroke="black"/>
  <path fill="none" d="M 712.00 413.00 L 749.00 292.00 L 570.00 292.00 L 567.00 413.00 Z" stroke-width="1" id="270-03-03" stroke="black"/>
  <path fill="none" d="M 732.00 453.00 L 752.00 413.00 L 1030.00 413.00 L 1073.77 291.00 L 1072.00 291.00 L 1052.00 292.00 L 749.00 292.00 L 712.00 413.00 Z" stroke-width="1" id="270-03-04" stroke="black"/>
  <path fill="none" d="M 1190.00 413.00 L 1164.77 291.00 L 1073.77 291.00 L 1030.00 413.00 Z" stroke-width="1" id="270-03-05" stroke="black"/>
  <path fill="none" d="M 1312.00 413.00 L 1332.00 433.00 L 1372.00 433.00 L 1392.00 413.00 L 1412.00 414.00 L 1450.00 414.00 L 1503.77 291.00 L 1213.77 291.00 L 1215.00 413.00 Z" stroke-width="1" id="270-03-06" stroke="black"/>
  <path fill="none" d="M 1452.00 414.00 L 1472.00 434.00 L 1512.00 434.00 L 1532.00 414.00 L 1536.00 418.00 L 1630.77 291.00 L 1503.77 291.00 L 1450.00 414.00 Z" stroke-width="1" id="270-03-07" stroke="black"/>
  <path fill="none" d="M 1552.00 434.00 L 1572.00 414.00 L 1797.25 414.00 L 1804.00 405.00 L 1889.00 400.00 L 1893.00 359.00 L 1780.00 331.00 L 1830.77 291.00 L 1630.77 291.00 L 1536.00 418.00 Z" stroke-width="1" id="270-03-08" stroke="black"/>
  <path fill="none" d="M 264.84 413.00 L 267.00 454.00 L 251.00 475.00 L 269.00 487.00 L 269.21 493.00 L 386.21 493.00 L 398.00 430.90 L 392.00 430.00 L 352.00 430.00 L 332.00 440.00 L 312.00 413.00 Z" stroke-width="1" id="270-04-01" stroke="black"/>
  <path fill="none" d="M 552.00 493.00 L 572.00 492.00 L 592.00 492.00 L 605.00 505.00 L 650.00 413.00 L 472.00 413.00 L 452.00 433.00 L 412.00 433.00 L 398.00 430.90 L 386.21 493.00 Z" stroke-width="1" id="270-04-02" stroke="black"/>
  <path fill="none" d="M 612.00 512.00 L 652.00 512.00 L 672.00 492.00 L 835.00 492.00 L 900.00 413.00 L 752.00 413.00 L 732.00 453.00 L 712.00 413.00 L 650.00 413.00 L 605.00 505.00 Z" stroke-width="1" id="270-04-03" stroke="black"/>
  <path fill="none" d="M 992.00 492.00 L 1012.00 491.00 L 1061.00 491.00 L 1069.00 413.00 L 900.00 413.00 L 835.00 492.00 Z" stroke-width="1" id="270-04-04" stroke="black"/>
  <path fill="none" d="M 1072.00 491.00 L 1092.00 540.00 L 1112.00 536.00 L 1132.00 524.00 L 1152.00 518.00 L 1172.00 504.00 L 1192.00 491.00 L 1293.00 491.00 L 1326.00 427.00 L 1312.00 413.00 L 1069.00 413.00 L 1061.00 491.00 Z" stroke-width="1" id="270-04-05" stroke="black"/>
  <path fill="none" d="M 1441.00 491.00 L 1464.00 426.00 L 1452.00 414.00 L 1412.00 414.00 L 1392.00 413.00 L 1372.00 433.00 L 1332.00 433.00 L 1326.00 427.00 L 1293.00 491.00 Z" stroke-width="1" id="270-04-06" stroke="black"/>
  <path fill="none" d="M 1452.00 491.00 L 1472.00 490.00 L 1528.00 490.00 L 1552.00 434.00 L 1532.00 414.00 L 1512.00 434.00 L 1472.00 434.00 L 1464.00 426.00 L 1441.00 491.00 Z" stroke-width="1" id="270-04-07" stroke="black"/>
  <path fill="none" d="M 1821.61 490.00 L 1791.00 474.00 L 1786.00 429.00 L 1797.25 414.00 L 1572.00 414.00 L 1552.00 434.00 L 1528.00 490.00 Z" stroke-width="1" id="270-04-08" stroke="black"/>
  <path fill="none" d="M 269.21 493.00 L 271.00 543.00 L 258.00 561.00 L 272.00 571.00 L 272.00 575.00 L 392.00 575.00 L 412.00 574.00 L 471.00 574.00 L 497.00 493.00 Z" stroke-width="1" id="270-05-01" stroke="black"/>
  <path fill="none" d="M 532.00 574.00 L 552.00 573.00 L 573.00 573.00 L 578.00 492.00 L 572.00 492.00 L 552.00 493.00 L 497.00 493.00 L 471.00 574.00 Z" stroke-width="1" id="270-05-02" stroke="black"/>
  <path fill="none" d="M 672.00 573.00 L 692.00 572.00 L 832.00 572.00 L 852.00 571.00 L 909.00 492.00 L 672.00 492.00 L 652.00 512.00 L 612.00 512.00 L 592.00 492.00 L 578.00 492.00 L 573.00 573.00 Z" stroke-width="1" id="270-05-03" stroke="black"/>
  <path fill="none" d="M 872.00 591.00 L 912.00 591.00 L 932.00 571.00 L 955.00 571.00 L 982.00 492.00 L 909.00 492.00 L 852.00 571.00 Z" stroke-width="1" id="270-05-04" stroke="black"/>
  <path fill="none" d="M 972.00 571.00 L 992.00 570.00 L 1112.00 570.00 L 1132.00 569.00 L 1191.00 569.00 L 1251.00 491.00 L 1192.00 491.00 L 1172.00 504.00 L 1152.00 518.00 L 1132.00 524.00 L 1112.00 536.00 L 1092.00 540.00 L 1072.00 491.00 L 1012.00 491.00 L 992.00 492.00 L 982.00 492.00 L 955.00 571.00 Z" stroke-width="1" id="270-05-05" stroke="black"/>
  <path fill="none" d="M 1252.00 569.00 L 1272.00 568.00 L 1412.00 568.00 L 1464.00 490.40 L 1452.00 491.00 L 1251.00 491.00 L 1191.00 569.00 Z" stroke-width="1" id="270-05-06" stroke="black"/>
  <path fill="none" d="M 1432.00 567.00 L 1552.00 567.00 L 1563.00 566.45 L 1601.61 490.00 L 1472.00 490.00 L 1464.00 490.40 L 1412.00 568.00 Z" stroke-width="1" id="270-05-07" stroke="black"/>
  <path fill="none" d="M 1572.00 566.00 L 1692.00 566.00 L 1712.00 565.00 L 1732.00 565.00 L 1752.00 585.00 L 1772.00 585.00 L 1783.00 574.00 L 1784.61 490.00 L 1601.61 490.00 L 1563.00 566.45 Z" stroke-width="1" id="270-05-08" stroke="black"/>
  <path fill="none" d="M 1792.00 565.00 L 1832.00 565.00 L 1852.00 564.00 L 1869.89 564.00 L 1862.00 560.00 L 1879.00 520.00 L 1821.61 490.00 L 1784.61 490.00 L 1783.00 574.00 Z" stroke-width="1" id="270-05-09" stroke="black"/>
  <path fill="none" d="M 272.00 575.00 L 272.00 622.00 L 259.00 648.00 L 271.00 659.00 L 332.00 659.00 L 352.00 658.00 L 572.00 658.00 L 592.00 657.00 L 612.00 657.00 L 632.00 677.00 L 652.00 677.00 L 672.00 657.00 L 676.00 657.00 L 712.00 572.00 L 692.00 572.00 L 672.00 573.00 L 552.00 573.00 L 532.00 574.00 L 412.00 574.00 L 392.00 575.00 Z" stroke-width="1" id="270-06-01" stroke="black"/>
  <path fill="none" d="M 812.00 657.00 L 832.00 656.00 L 914.00 656.00 L 920.00 583.00 L 912.00 591.00 L 872.00 591.00 L 852.00 571.00 L 832.00 572.00 L 712.00 572.00 L 676.00 657.00 Z" stroke-width="1" id="270-06-02" stroke="black"/>
  <path fill="none" d="M 1032.00 656.00 L 1052.00 655.00 L 1177.00 655.00 L 1212.00 569.00 L 1132.00 569.00 L 1112.00 570.00 L 992.00 570.00 L 972.00 571.00 L 932.00 571.00 L 920.00 583.00 L 914.00 656.00 Z" stroke-width="1" id="270-06-03" stroke="black"/>
  <path fill="none" d="M 1272.00 655.00 L 1292.00 654.00 L 1328.00 654.00 L 1370.00 568.00 L 1272.00 568.00 L 1252.00 569.00 L 1212.00 569.00 L 1177.00 655.00 Z" stroke-width="1" id="270-06-04" stroke="black"/>
  <path fill="none" d="M 1512.00 654.00 L 1532.00 653.00 L 1725.00 653.00 L 1752.00 585.00 L 1732.00 565.00 L 1712.00 565.00 L 1692.00 566.00 L 1572.00 566.00 L 1552.00 567.00 L 1432.00 567.00 L 1412.00 568.00 L 1370.00 568.00 L 1328.00 654.00 Z" stroke-width="1" id="270-06-05" stroke="black"/>
  <path fill="none" d="M 1732.00 653.00 L 1752.00 652.00 L 1772.00 652.00 L 1792.00 672.00 L 1812.00 672.00 L 1832.00 652.00 L 1941.88 652.00 L 1935.00 597.00 L 1869.89 564.00 L 1852.00 564.00 L 1832.00 565.00 L 1792.00 565.00 L 1772.00 585.00 L 1752.00 585.00 L 1725.00 653.00 Z" stroke-width="1" id="270-06-06" stroke="black"/>
  <path fill="none" d="M 271.00 659.00 L 274.00 709.00 L 259.00 728.00 L 272.00 740.00 L 281.33 768.00 L 292.00 768.00 L 312.00 748.00 L 342.00 748.00 L 385.00 658.00 L 352.00 658.00 L 332.00 659.00 Z" stroke-width="1" id="270-07-01" stroke="black"/>
  <path fill="none" d="M 572.00 748.00 L 575.00 751.00 L 619.00 664.00 L 612.00 657.00 L 592.00 657.00 L 572.00 658.00 L 385.00 658.00 L 342.00 748.00 Z" stroke-width="1" id="270-07-02" stroke="black"/>
  <path fill="none" d="M 592.00 768.00 L 612.00 748.00 L 711.00 748.00 L 750.00 657.00 L 672.00 657.00 L 652.00 677.00 L 632.00 677.00 L 619.00 664.00 L 575.00 751.00 Z" stroke-width="1" id="270-07-03" stroke="black"/>
  <path fill="none" d="M 712.00 748.00 L 732.00 747.00 L 873.00 747.00 L 888.00 656.00 L 832.00 656.00 L 812.00 657.00 L 750.00 657.00 L 711.00 748.00 Z" stroke-width="1" id="270-07-04" stroke="black"/>
  <path fill="none" d="M 1020.00 747.00 L 1042.00 655.50 L 1032.00 656.00 L 888.00 656.00 L 873.00 747.00 Z" stroke-width="1" id="270-07-05" stroke="black"/>
  <path fill="none" d="M 1172.00 747.00 L 1192.00 767.00 L 1212.00 767.00 L 1232.00 747.00 L 1312.00 747.00 L 1332.00 746.00 L 1441.00 746.00 L 1475.00 654.00 L 1292.00 654.00 L 1272.00 655.00 L 1052.00 655.00 L 1042.00 655.50 L 1020.00 747.00 Z" stroke-width="1" id="270-07-06" stroke="black"/>
  <path fill="none" d="M 1472.00 746.00 L 1492.00 766.00 L 1512.00 746.00 L 1534.00 746.00 L 1584.00 653.00 L 1532.00 653.00 L 1512.00 654.00 L 1475.00 654.00 L 1441.00 746.00 Z" stroke-width="1" id="270-07-07" stroke="black"/>
  <path fill="none" d="M 1672.00 746.00 L 1692.00 766.00 L 1712.00 766.00 L 1732.00 746.00 L 1855.16 746.00 L 1868.00 727.00 L 1871.00 659.00 L 1942.00 653.00 L 1941.88 652.00 L 1832.00 652.00 L 1812.00 672.00 L 1792.00 672.00 L 1772.00 652.00 L 1752.00 652.00 L 1732.00 653.00 L 1584.00 653.00 L 1534.00 746.00 Z" stroke-width="1" id="270-07-08" stroke="black"/>
  <path fill="none" d="M 281.33 768.00 L 282.00 770.00 L 296.00 783.00 L 285.00 820.00 L 288.38 832.00 L 533.38 832.00 L 555.00 748.00 L 312.00 748.00 L 292.00 768.00 Z" stroke-width="1" id="270-08-01" stroke="black"/>
  <path fill="none" d="M 552.00 832.00 L 572.00 831.00 L 928.00 831.00 L 956.00 747.00 L 732.00 747.00 L 712.00 748.00 L 612.00 748.00 L 592.00 768.00 L 572.00 748.00 L 555.00 748.00 L 533.38 832.00 Z" stroke-width="1" id="270-08-02" stroke="black"/>
  <path fill="none" d="M 932.00 831.00 L 952.00 851.00 L 972.00 851.00 L 992.00 831.00 L 1012.00 830.00 L 1023.00 830.00 L 1065.00 747.00 L 956.00 747.00 L 928.00 831.00 Z" stroke-width="1" id="270-08-03" stroke="black"/>
  <path fill="none" d="M 1295.00 830.00 L 1330.00 746.10 L 1312.00 747.00 L 1232.00 747.00 L 1212.00 767.00 L 1192.00 767.00 L 1172.00 747.00 L 1065.00 747.00 L 1023.00 830.00 Z" stroke-width="1" id="270-08-04" stroke="black"/>
  <path fill="none" d="M 1386.00 830.00 L 1426.00 746.00 L 1332.00 746.00 L 1330.00 746.10 L 1295.00 830.00 Z" stroke-width="1" id="270-08-05" stroke="black"/>
  <path fill="none" d="M 1432.00 830.00 L 1452.00 829.00 L 1498.00 829.00 L 1522.00 746.00 L 1512.00 746.00 L 1492.00 766.00 L 1472.00 746.00 L 1426.00 746.00 L 1386.00 830.00 Z" stroke-width="1" id="270-08-06" stroke="black"/>
  <path fill="none" d="M 1793.44 829.00 L 1839.00 820.00 L 1843.00 764.00 L 1855.16 746.00 L 1732.00 746.00 L 1712.00 766.00 L 1692.00 766.00 L 1672.00 746.00 L 1522.00 746.00 L 1498.00 829.00 Z" stroke-width="1" id="270-08-07" stroke="black"/>
  <path fill="none" d="M 288.38 832.00 L 294.00 852.00 L 262.00 900.00 L 275.45 910.00 L 312.00 910.00 L 332.00 930.00 L 372.00 930.00 L 392.00 910.00 L 605.00 910.00 L 641.00 831.00 L 572.00 831.00 L 552.00 832.00 Z" stroke-width="1" id="270-09-01" stroke="black"/>
  <path fill="none" d="M 772.00 910.00 L 792.00 942.00 L 812.00 934.00 L 832.00 930.00 L 852.00 928.00 L 872.00 910.00 L 894.00 910.00 L 940.00 839.00 L 932.00 831.00 L 641.00 831.00 L 605.00 910.00 Z" stroke-width="1" id="270-09-02" stroke="black"/>
  <path fill="none" d="M 1074.00 910.00 L 1078.00 830.00 L 1012.00 830.00 L 992.00 831.00 L 972.00 851.00 L 952.00 851.00 L 940.00 839.00 L 894.00 910.00 Z" stroke-width="1" id="270-09-03" stroke="black"/>
  <path fill="none" d="M 1212.00 910.00 L 1232.00 930.00 L 1252.00 910.00 L 1352.00 910.00 L 1372.00 930.00 L 1452.00 930.00 L 1472.00 910.00 L 1481.00 910.00 L 1473.44 829.00 L 1452.00 829.00 L 1432.00 830.00 L 1078.00 830.00 L 1074.00 910.00 Z" stroke-width="1" id="270-09-04" stroke="black"/>
  <path fill="none" d="M 1590.00 910.00 L 1622.44 829.00 L 1473.44 829.00 L 1481.00 910.00 Z" stroke-width="1" id="270-09-05" stroke="black"/>
  <path fill="none" d="M 1752.00 910.00 L 1761.77 909.51 L 1758.00 836.00 L 1793.44 829.00 L 1622.44 829.00 L 1590.00 910.00 Z" stroke-width="1" id="270-09-06" stroke="black"/>
  <path fill="none" d="M 275.45 910.00 L 301.00 929.00 L 266.00 983.00 L 286.45 1001.00 L 672.00 1001.00 L 692.00 1000.00 L 731.00 1000.00 L 749.00 910.00 L 392.00 910.00 L 372.00 930.00 L 332.00 930.00 L 312.00 910.00 Z" stroke-width="1" id="270-10-01" stroke="black"/>
  <path fill="none" d="M 752.00 1000.00 L 772.00 1020.00 L 792.00 1000.00 L 798.00 1006.00 L 862.00 919.00 L 852.00 928.00 L 832.00 930.00 L 812.00 934.00 L 792.00 942.00 L 772.00 910.00 L 749.00 910.00 L 731.00 1000.00 Z" stroke-width="1" id="270-10-02" stroke="black"/>
  <path fill="none" d="M 812.00 1020.00 L 832.00 1000.00 L 1151.00 1000.00 L 1179.00 910.00 L 872.00 910.00 L 862.00 919.00 L 798.00 1006.00 Z" stroke-width="1" id="270-10-03" stroke="black"/>
  <path fill="none" d="M 1252.00 1000.00 L 1272.00 999.00 L 1437.00 999.00 L 1452.00 930.00 L 1372.00 930.00 L 1352.00 910.00 L 1252.00 910.00 L 1232.00 930.00 L 1212.00 910.00 L 1179.00 910.00 L 1151.00 1000.00 Z" stroke-width="1" id="270-10-04" stroke="black"/>
  <path fill="none" d="M 1517.00 999.00 L 1525.00 910.00 L 1472.00 910.00 L 1452.00 930.00 L 1437.00 999.00 Z" stroke-width="1" id="270-10-05" stroke="black"/>
  <path fill="none" d="M 1637.00 999.00 L 1668.00 910.00 L 1525.00 910.00 L 1517.00 999.00 Z" stroke-width="1" id="270-10-06" stroke="black"/>
  <path fill="none" d="M 1693.87 999.00 L 1694.00 997.00 L 1712.75 999.00 L 1757.75 999.00 L 1790.00 919.63 L 1762.00 914.00 L 1761.77 909.51 L 1752.00 910.00 L 1668.00 910.00 L 1637.00 999.00 Z" stroke-width="1" id="270-10-07" stroke="black"/>
  <path fill="none" d="M 1801.75 999.00 L 1834.00 928.47 L 1790.00 919.63 L 1757.75 999.00 Z" stroke-width="1" id="270-10-08" stroke="black"/>
  <path fill="none" d="M 1812.00 999.00 L 1823.85 1010.85 L 1844.00 1013.00 L 1859.17 1010.83 L 1872.00 998.00 L 1949.00 998.00 L 1970.00 995.00 L 1961.00 954.00 L 1834.00 928.47 L 1801.75 999.00 Z" stroke-width="1" id="270-10-09" stroke="black"/>
  <path fill="none" d="M 286.45 1001.00 L 291.00 1005.00 L 268.00 1073.00 L 302.00 1082.00 L 383.00 1082.96 L 404.00 1001.00 Z" stroke-width="1" id="270-11-01" stroke="black"/>
  <path fill="none" d="M 470.00 1084.00 L 466.79 1090.00 L 512.00 1090.00 L 532.00 1110.00 L 552.00 1090.00 L 632.00 1090.00 L 652.00 1110.00 L 672.00 1108.00 L 692.00 1104.00 L 712.00 1110.00 L 752.00 1110.00 L 772.00 1089.00 L 773.00 1019.00 L 772.00 1020.00 L 752.00 1000.00 L 692.00 1000.00 L 672.00 1001.00 L 404.00 1001.00 L 383.00 1082.96 Z" stroke-width="1" id="270-11-02" stroke="black"/>
  <path fill="none" d="M 832.00 1089.00 L 852.00 1069.00 L 888.00 1069.00 L 914.00 1000.00 L 832.00 1000.00 L 812.00 1020.00 L 792.00 1000.00 L 773.00 1019.00 L 772.00 1089.00 Z" stroke-width="1" id="270-11-03" stroke="black"/>
  <path fill="none" d="M 892.00 1069.00 L 912.00 1089.00 L 1072.00 1089.00 L 1092.00 1088.00 L 1319.00 1088.00 L 1348.87 999.00 L 1272.00 999.00 L 1252.00 1000.00 L 914.00 1000.00 L 888.00 1069.00 Z" stroke-width="1" id="270-11-04" stroke="black"/>
  <path fill="none" d="M 1332.00 1088.00 L 1352.00 1068.00 L 1372.00 1088.00 L 1392.00 1068.00 L 1412.00 1088.00 L 1432.00 1067.00 L 1452.00 1087.00 L 1546.00 1087.00 L 1689.00 1076.00 L 1693.87 999.00 L 1348.87 999.00 L 1319.00 1088.00 Z" stroke-width="1" id="270-11-05" stroke="black"/>
  <path fill="none" d="M 466.79 1090.00 L 432.00 1155.00 L 451.00 1175.00 L 447.09 1176.25 L 452.00 1176.00 L 752.00 1176.00 L 765.00 1175.35 L 795.00 1089.00 L 772.00 1089.00 L 752.00 1110.00 L 712.00 1110.00 L 692.00 1104.00 L 672.00 1108.00 L 652.00 1110.00 L 632.00 1090.00 L 552.00 1090.00 L 532.00 1110.00 L 512.00 1090.00 Z" stroke-width="1" id="270-12-01" stroke="black"/>
  <path fill="none" d="M 772.00 1175.00 L 915.00 1175.00 L 916.00 1089.00 L 912.00 1089.00 L 892.00 1069.00 L 852.00 1069.00 L 832.00 1089.00 L 795.00 1089.00 L 765.00 1175.35 Z" stroke-width="1" id="270-12-02" stroke="black"/>
  <path fill="none" d="M 1412.00 1174.00 L 1432.00 1173.00 L 1458.20 1173.00 L 1453.00 1156.00 L 1494.00 1091.00 L 1546.00 1087.00 L 1452.00 1087.00 L 1432.00 1067.00 L 1412.00 1088.00 L 1392.00 1068.00 L 1372.00 1088.00 L 1352.00 1068.00 L 1332.00 1088.00 L 1252.00 1088.00 L 1250.00 1174.00 Z" stroke-width="1" id="270-12-03" stroke="black"/>
  <path fill="none" d="M 204.00 1267.00 L 187.00 1338.00 L 312.00 1338.00 L 315.00 1250.00 L 258.40 1250.00 Z" stroke-width="1" id="270-14-01" stroke="black"/>
  <path fill="none" d="M 809.00 1338.00 L 834.00 1250.00 L 572.00 1250.00 L 552.00 1240.00 L 532.00 1238.00 L 492.00 1238.00 L 472.00 1242.00 L 432.00 1242.00 L 412.00 1246.00 L 392.00 1250.00 L 363.00 1250.00 L 355.00 1338.00 Z" stroke-width="1" id="270-14-02" stroke="black"/>
  <path fill="none" d="M 1155.00 1338.00 L 1168.00 1250.00 L 834.00 1250.00 L 809.00 1338.00 Z" stroke-width="1" id="270-14-03" stroke="black"/>
  <path fill="none" d="M 1196.00 1338.00 L 1189.75 1348.00 L 1192.00 1348.00 L 1212.00 1328.00 L 1245.00 1328.00 L 1306.00 1238.00 L 1292.00 1238.00 L 1272.00 1236.00 L 1212.00 1236.00 L 1192.00 1240.00 L 1172.00 1250.00 L 1168.00 1250.00 L 1155.00 1338.00 Z" stroke-width="1" id="270-14-04" stroke="black"/>
  <path fill="none" d="M 1272.00 1328.00 L 1292.00 1348.00 L 1412.00 1348.00 L 1432.00 1328.00 L 1452.00 1348.00 L 1512.00 1348.00 L 1530.73 1329.27 L 1473.00 1320.00 L 1487.00 1271.00 L 1472.00 1271.00 L 1452.00 1248.00 L 1432.00 1246.00 L 1392.00 1246.00 L 1372.00 1242.00 L 1352.00 1238.00 L 1306.00 1238.00 L 1245.00 1328.00 Z" stroke-width="1" id="270-14-05" stroke="black"/>
  <path fill="none" d="M 1104.40 1428.00 L 1152.00 1428.00 L 1172.00 1429.00 L 1192.00 1429.00 L 1212.00 1419.00 L 1272.00 1419.00 L 1292.00 1429.00 L 1412.00 1429.00 L 1432.00 1419.00 L 1435.00 1420.50 L 1476.00 1348.00 L 1452.00 1348.00 L 1432.00 1328.00 L 1412.00 1348.00 L 1292.00 1348.00 L 1272.00 1328.00 L 1212.00 1328.00 L 1192.00 1348.00 L 1189.75 1348.00 L 1151.00 1410.00 L 1128.00 1427.00 Z" stroke-width="1" id="270-15-01" stroke="black"/>
  <path fill="none" d="M 1452.00 1429.00 L 1512.00 1429.00 L 1532.00 1419.00 L 1572.00 1419.00 L 1592.00 1429.00 L 1632.00 1429.00 L 1652.00 1448.00 L 1672.00 1429.00 L 1792.00 1429.00 L 1877.00 1425.00 L 1879.00 1383.00 L 1831.00 1352.00 L 1581.00 1357.00 L 1554.00 1333.00 L 1530.73 1329.27 L 1512.00 1348.00 L 1476.00 1348.00 L 1435.00 1420.50 Z" stroke-width="1" id="270-15-02" stroke="black"/>
  <path fill="none" d="M 592.40 1510.00 L 911.40 1510.00 L 950.00 1437.00 L 945.47 1434.73 L 774.00 1442.00 L 751.00 1474.00 L 758.00 1506.00 Z" stroke-width="1" id="270-16-01" stroke="black"/>
  <path fill="none" d="M 932.00 1510.00 L 952.00 1530.00 L 992.00 1530.00 L 1012.00 1510.00 L 1177.00 1510.00 L 1193.00 1428.50 L 1192.00 1429.00 L 1172.00 1429.00 L 1152.00 1428.00 L 1104.40 1428.00 L 1003.44 1432.28 L 992.00 1438.00 L 952.00 1438.00 L 950.00 1437.00 L 911.40 1510.00 Z" stroke-width="1" id="270-16-02" stroke="black"/>
  <path fill="none" d="M 1336.00 1510.00 L 1353.00 1429.00 L 1292.00 1429.00 L 1272.00 1419.00 L 1212.00 1419.00 L 1193.00 1428.50 L 1177.00 1510.00 Z" stroke-width="1" id="270-16-03" stroke="black"/>
  <path fill="none" d="M 1558.00 1510.00 L 1568.00 1419.00 L 1532.00 1419.00 L 1512.00 1429.00 L 1452.00 1429.00 L 1432.00 1419.00 L 1412.00 1429.00 L 1353.00 1429.00 L 1336.00 1510.00 Z" stroke-width="1" id="270-16-04" stroke="black"/>
  <path fill="none" d="M 1771.19 1510.00 L 1770.00 1453.00 L 1792.00 1429.00 L 1672.00 1429.00 L 1652.00 1448.00 L 1632.00 1429.00 L 1592.00 1429.00 L 1572.00 1419.00 L 1568.00 1419.00 L 1558.00 1510.00 Z" stroke-width="1" id="270-16-05" stroke="black"/>
  <path fill="none" d="M 344.00 1516.00 L 276.00 1584.00 L 274.34 1604.69 L 277.41 1610.82 L 300.45 1623.11 L 312.00 1600.00 L 412.00 1600.00 L 432.00 1599.00 L 478.00 1599.00 L 505.40 1512.10 Z" stroke-width="1" id="270-17-01" stroke="black"/>
  <path fill="none" d="M 673.00 1599.00 L 712.00 1510.00 L 592.40 1510.00 L 505.40 1512.10 L 478.00 1599.00 Z" stroke-width="1" id="270-17-02" stroke="black"/>
  <path fill="none" d="M 712.00 1599.00 L 732.00 1598.00 L 1012.00 1598.00 L 1032.00 1597.00 L 1223.00 1597.00 L 1258.19 1510.00 L 1012.00 1510.00 L 992.00 1530.00 L 952.00 1530.00 L 932.00 1510.00 L 712.00 1510.00 L 673.00 1599.00 Z" stroke-width="1" id="270-17-03" stroke="black"/>
  <path fill="none" d="M 1312.00 1597.00 L 1332.00 1596.00 L 1438.00 1596.00 L 1478.19 1510.00 L 1258.19 1510.00 L 1223.00 1597.00 Z" stroke-width="1" id="270-17-04" stroke="black"/>
  <path fill="none" d="M 1612.00 1596.00 L 1632.00 1595.00 L 1775.97 1595.00 L 1772.00 1549.00 L 1771.19 1510.00 L 1478.19 1510.00 L 1438.00 1596.00 Z" stroke-width="1" id="270-17-05" stroke="black"/>
  <path fill="none" d="M 312.00 1600.00 L 300.45 1623.11 L 304.00 1625.00 L 294.67 1634.67 L 292.00 1640.00 L 291.15 1638.31 L 276.00 1654.00 L 295.00 1681.00 L 294.84 1684.86 L 312.00 1684.00 L 472.00 1684.00 L 492.00 1703.00 L 512.00 1723.00 L 532.00 1723.00 L 552.00 1703.00 L 572.00 1683.00 L 652.00 1683.00 L 672.00 1702.00 L 692.00 1702.00 L 712.00 1682.00 L 745.00 1598.00 L 732.00 1598.00 L 712.00 1599.00 L 432.00 1599.00 L 412.00 1600.00 Z" stroke-width="1" id="270-18-01" stroke="black"/>
  <path fill="none" d="M 832.00 1682.00 L 852.00 1681.00 L 869.00 1681.00 L 880.00 1598.00 L 745.00 1598.00 L 712.00 1682.00 Z" stroke-width="1" id="270-18-02" stroke="black"/>
  <path fill="none" d="M 1012.00 1681.00 L 1032.00 1680.00 L 1192.00 1680.00 L 1212.00 1679.00 L 1292.00 1679.00 L 1312.00 1699.00 L 1352.00 1699.00 L 1372.00 1679.00 L 1375.00 1678.85 L 1388.00 1596.00 L 1332.00 1596.00 L 1312.00 1597.00 L 1032.00 1597.00 L 1012.00 1598.00 L 880.00 1598.00 L 869.00 1681.00 Z" stroke-width="1" id="270-18-03" stroke="black"/>
  <path fill="none" d="M 1392.00 1678.00 L 1412.00 1678.00 L 1432.00 1698.00 L 1441.00 1698.00 L 1493.00 1596.00 L 1388.00 1596.00 L 1375.00 1678.85 Z" stroke-width="1" id="270-18-04" stroke="black"/>
  <path fill="none" d="M 1452.00 1698.00 L 1472.00 1718.00 L 1492.00 1698.00 L 1512.00 1678.00 L 1552.00 1678.00 L 1556.00 1677.80 L 1564.00 1596.00 L 1493.00 1596.00 L 1441.00 1698.00 Z" stroke-width="1" id="270-18-05" stroke="black"/>
  <path fill="none" d="M 1572.00 1677.00 L 1732.00 1677.00 L 1752.00 1676.00 L 1854.60 1676.00 L 1838.00 1635.00 L 1777.00 1607.00 L 1775.97 1595.00 L 1632.00 1595.00 L 1612.00 1596.00 L 1564.00 1596.00 L 1556.00 1677.80 Z" stroke-width="1" id="270-18-06" stroke="black"/>
  <path fill="none" d="M 294.84 1684.86 L 293.00 1729.00 L 277.00 1749.00 L 312.00 1765.00 L 311.41 1771.00 L 312.00 1771.00 L 332.00 1811.00 L 352.00 1811.00 L 372.00 1791.00 L 432.00 1791.00 L 452.00 1751.00 L 454.00 1684.00 L 312.00 1684.00 Z" stroke-width="1" id="270-19-01" stroke="black"/>
  <path fill="none" d="M 472.00 1771.00 L 604.00 1771.00 L 614.00 1683.00 L 572.00 1683.00 L 552.00 1703.00 L 532.00 1723.00 L 512.00 1723.00 L 492.00 1703.00 L 472.00 1684.00 L 454.00 1684.00 L 452.00 1751.00 Z" stroke-width="1" id="270-19-02" stroke="black"/>
  <path fill="none" d="M 672.00 1771.00 L 692.00 1791.00 L 732.00 1791.00 L 752.00 1771.00 L 779.00 1771.00 L 786.00 1682.00 L 712.00 1682.00 L 692.00 1702.00 L 672.00 1702.00 L 652.00 1683.00 L 614.00 1683.00 L 604.00 1771.00 Z" stroke-width="1" id="270-19-03" stroke="black"/>
  <path fill="none" d="M 917.00 1771.00 L 924.00 1681.00 L 852.00 1681.00 L 832.00 1682.00 L 786.00 1682.00 L 779.00 1771.00 Z" stroke-width="1" id="270-19-04" stroke="black"/>
  <path fill="none" d="M 1112.00 1771.00 L 1132.00 1770.00 L 1243.00 1770.00 L 1273.00 1679.00 L 1212.00 1679.00 L 1192.00 1680.00 L 1032.00 1680.00 L 1012.00 1681.00 L 924.00 1681.00 L 917.00 1771.00 Z" stroke-width="1" id="270-19-05" stroke="black"/>
  <path fill="none" d="M 1461.00 1770.00 L 1472.00 1718.00 L 1452.00 1698.00 L 1432.00 1698.00 L 1412.00 1678.00 L 1392.00 1678.00 L 1372.00 1679.00 L 1352.00 1699.00 L 1312.00 1699.00 L 1292.00 1679.00 L 1273.00 1679.00 L 1243.00 1770.00 Z" stroke-width="1" id="270-19-06" stroke="black"/>
  <path fill="none" d="M 1572.00 1770.00 L 1600.00 1677.00 L 1572.00 1677.00 L 1552.00 1678.00 L 1512.00 1678.00 L 1492.00 1698.00 L 1472.00 1718.00 L 1461.00 1770.00 Z" stroke-width="1" id="270-19-07" stroke="black"/>
  <path fill="none" d="M 1642.00 1770.00 L 1711.00 1677.00 L 1600.00 1677.00 L 1572.00 1770.00 Z" stroke-width="1" id="270-19-08" stroke="black"/>
  <path fill="none" d="M 1652.00 1770.00 L 1672.00 1790.00 L 1692.00 1790.00 L 1712.00 1770.00 L 1721.00 1770.00 L 1783.60 1676.00 L 1752.00 1676.00 L 1732.00 1677.00 L 1711.00 1677.00 L 1642.00 1770.00 Z" stroke-width="1" id="270-19-09" stroke="black"/>
  <path fill="none" d="M 1788.07 1770.00 L 1889.00 1761.00 L 1854.60 1676.00 L 1783.60 1676.00 L 1721.00 1770.00 Z" stroke-width="1" id="270-19-10" stroke="black"/>
  <path fill="none" d="M 311.41 1771.00 L 308.00 1806.00 L 281.00 1836.00 L 304.00 1852.00 L 303.44 1864.00 L 532.00 1864.00 L 552.00 1865.00 L 556.00 1865.00 L 567.00 1771.00 L 472.00 1771.00 L 452.00 1751.00 L 432.00 1791.00 L 372.00 1791.00 L 352.00 1811.00 L 332.00 1811.00 L 312.00 1771.00 Z" stroke-width="1" id="270-20-01" stroke="black"/>
  <path fill="none" d="M 679.00 1865.00 L 705.00 1791.00 L 692.00 1791.00 L 672.00 1771.00 L 567.00 1771.00 L 556.00 1865.00 Z" stroke-width="1" id="270-20-02" stroke="black"/>
  <path fill="none" d="M 957.00 1865.00 L 980.00 1771.00 L 752.00 1771.00 L 732.00 1791.00 L 705.00 1791.00 L 679.00 1865.00 Z" stroke-width="1" id="270-20-03" stroke="black"/>
  <path fill="none" d="M 972.00 1865.00 L 992.00 1866.00 L 1148.00 1866.00 L 1174.00 1770.00 L 1132.00 1770.00 L 1112.00 1771.00 L 980.00 1771.00 L 957.00 1865.00 Z" stroke-width="1" id="270-20-04" stroke="black"/>
  <path fill="none" d="M 1152.00 1866.00 L 1172.00 1886.00 L 1192.00 1866.00 L 1241.00 1866.00 L 1273.00 1770.00 L 1174.00 1770.00 L 1148.00 1866.00 Z" stroke-width="1" id="270-20-05" stroke="black"/>
  <path fill="none" d="M 1292.00 1866.00 L 1312.00 1886.00 L 1372.00 1886.00 L 1392.00 1866.00 L 1412.00 1867.00 L 1437.00 1867.00 L 1440.00 1770.00 L 1273.00 1770.00 L 1241.00 1866.00 Z" stroke-width="1" id="270-20-06" stroke="black"/>
  <path fill="none" d="M 1538.00 1867.00 L 1556.00 1770.00 L 1440.00 1770.00 L 1437.00 1867.00 Z" stroke-width="1" id="270-20-07" stroke="black"/>
  <path fill="none" d="M 1790.20 1867.00 L 1735.00 1813.00 L 1732.00 1775.00 L 1788.07 1770.00 L 1712.00 1770.00 L 1692.00 1790.00 L 1672.00 1790.00 L 1652.00 1770.00 L 1556.00 1770.00 L 1538.00 1867.00 Z" stroke-width="1" id="270-20-08" stroke="black"/>
  <path fill="none" d="M 303.44 1864.00 L 302.00 1895.00 L 285.00 1929.00 L 283.00 1945.00 L 299.36 1955.00 L 612.00 1955.00 L 632.00 1975.00 L 652.00 1975.00 L 672.00 1955.00 L 721.00 1955.00 L 740.00 1865.00 L 552.00 1865.00 L 532.00 1864.00 Z" stroke-width="1" id="270-21-01" stroke="black"/>
  <path fill="none" d="M 732.00 1955.00 L 752.00 1975.00 L 772.00 1975.00 L 792.00 1955.00 L 812.00 1975.00 L 832.00 1955.00 L 978.00 1955.00 L 1002.00 1866.00 L 992.00 1866.00 L 972.00 1865.00 L 740.00 1865.00 L 721.00 1955.00 Z" stroke-width="1" id="270-21-02" stroke="black"/>
  <path fill="none" d="M 1101.00 1955.00 L 1112.00 1866.00 L 1002.00 1866.00 L 978.00 1955.00 Z" stroke-width="1" id="270-21-03" stroke="black"/>
  <path fill="none" d="M 1212.00 1955.00 L 1275.00 1866.00 L 1192.00 1866.00 L 1172.00 1886.00 L 1152.00 1866.00 L 1112.00 1866.00 L 1101.00 1955.00 Z" stroke-width="1" id="270-21-04" stroke="black"/>
  <path fill="none" d="M 1232.00 1975.00 L 1252.00 1975.00 L 1272.00 1955.00 L 1465.00 1955.00 L 1478.20 1867.00 L 1412.00 1867.00 L 1392.00 1866.00 L 1372.00 1886.00 L 1312.00 1886.00 L 1292.00 1866.00 L 1275.00 1866.00 L 1212.00 1955.00 Z" stroke-width="1" id="270-21-05" stroke="black"/>
  <path fill="none" d="M 1533.00 1955.00 L 1587.20 1867.00 L 1478.20 1867.00 L 1465.00 1955.00 Z" stroke-width="1" id="270-21-06" stroke="black"/>
  <path fill="none" d="M 1672.00 1955.00 L 1692.00 1935.00 L 1712.00 1955.00 L 1732.00 1955.00 L 1752.00 1975.00 L 1772.00 1955.00 L 1821.58 1955.00 L 1837.00 1927.00 L 1827.00 1903.00 L 1790.20 1867.00 L 1587.20 1867.00 L 1533.00 1955.00 Z" stroke-width="1" id="270-21-07" stroke="black"/>
  <path fill="none" d="M 299.36 1955.00 L 301.00 1956.00 L 302.00 1990.00 L 279.00 2006.00 L 313.00 2024.00 L 312.02 2030.00 L 432.00 2030.00 L 486.00 1955.00 Z" stroke-width="1" id="270-22-01" stroke="black"/>
  <path fill="none" d="M 452.00 2070.00 L 472.00 2050.00 L 492.00 2070.00 L 512.00 2050.00 L 532.00 2030.00 L 552.00 2056.00 L 572.00 2058.00 L 592.00 2054.00 L 612.00 2036.00 L 632.00 2036.00 L 652.00 2030.00 L 775.00 2030.00 L 812.00 1975.00 L 792.00 1955.00 L 772.00 1975.00 L 752.00 1975.00 L 732.00 1955.00 L 672.00 1955.00 L 652.00 1975.00 L 632.00 1975.00 L 612.00 1955.00 L 486.00 1955.00 L 432.00 2030.00 Z" stroke-width="1" id="270-22-02" stroke="black"/>
  <path fill="none" d="M 952.00 2030.00 L 972.00 2050.00 L 992.00 2050.00 L 1011.00 2031.00 L 1025.00 1955.00 L 832.00 1955.00 L 812.00 1975.00 L 775.00 2030.00 Z" stroke-width="1" id="270-22-03" stroke="black"/>
  <path fill="none" d="M 1012.00 2030.00 L 1072.00 2030.00 L 1092.00 2050.00 L 1132.00 2050.00 L 1152.00 2030.00 L 1175.00 2030.00 L 1224.00 1967.00 L 1212.00 1955.00 L 1025.00 1955.00 L 1011.00 2031.00 Z" stroke-width="1" id="270-22-04" stroke="black"/>
  <path fill="none" d="M 1352.00 2030.00 L 1402.00 1955.00 L 1272.00 1955.00 L 1252.00 1975.00 L 1232.00 1975.00 L 1224.00 1967.00 L 1175.00 2030.00 Z" stroke-width="1" id="270-22-05" stroke="black"/>
  <path fill="none" d="M 1454.00 2030.00 L 1494.00 1955.00 L 1402.00 1955.00 L 1352.00 2030.00 Z" stroke-width="1" id="270-22-06" stroke="black"/>
  <path fill="none" d="M 1612.00 2030.00 L 1638.00 1955.00 L 1494.00 1955.00 L 1454.00 2030.00 Z" stroke-width="1" id="270-22-07" stroke="black"/>
  <path fill="none" d="M 1632.00 2050.00 L 1672.00 2050.00 L 1692.00 2030.00 L 1701.00 2030.00 L 1725.00 1955.00 L 1712.00 1955.00 L 1692.00 1935.00 L 1672.00 1955.00 L 1638.00 1955.00 L 1612.00 2030.00 Z" stroke-width="1" id="270-22-08" stroke="black"/>
  <path fill="none" d="M 1809.24 2030.00 L 1799.00 1996.00 L 1821.58 1955.00 L 1772.00 1955.00 L 1752.00 1975.00 L 1732.00 1955.00 L 1725.00 1955.00 L 1701.00 2030.00 Z" stroke-width="1" id="270-22-09" stroke="black"/>
  <path fill="none" d="M 312.02 2030.00 L 306.00 2067.00 L 289.00 2092.00 L 308.00 2109.00 L 317.53 2112.00 L 490.53 2112.00 L 493.00 2069.00 L 492.00 2070.00 L 472.00 2050.00 L 452.00 2070.00 L 432.00 2030.00 Z" stroke-width="1" id="270-23-01" stroke="black"/>
  <path fill="none" d="M 552.00 2112.00 L 572.00 2113.00 L 812.00 2113.00 L 823.00 2124.00 L 866.00 2030.00 L 652.00 2030.00 L 632.00 2036.00 L 612.00 2036.00 L 592.00 2054.00 L 572.00 2058.00 L 552.00 2056.00 L 532.00 2030.00 L 512.00 2050.00 L 493.00 2069.00 L 490.53 2112.00 Z" stroke-width="1" id="270-23-02" stroke="black"/>
  <path fill="none" d="M 832.00 2133.00 L 852.00 2133.00 L 872.00 2113.00 L 988.00 2113.00 L 993.00 2049.00 L 992.00 2050.00 L 972.00 2050.00 L 952.00 2030.00 L 866.00 2030.00 L 823.00 2124.00 Z" stroke-width="1" id="270-23-03" stroke="black"/>
  <path fill="none" d="M 1012.00 2113.00 L 1032.00 2114.00 L 1452.00 2114.00 L 1472.00 2115.00 L 1504.00 2115.00 L 1548.00 2030.00 L 1152.00 2030.00 L 1132.00 2050.00 L 1092.00 2050.00 L 1072.00 2030.00 L 1012.00 2030.00 L 993.00 2049.00 L 988.00 2113.00 Z" stroke-width="1" id="270-23-04" stroke="black"/>
  <path fill="none" d="M 1512.00 2115.00 L 1532.00 2135.00 L 1552.00 2135.00 L 1572.00 2115.00 L 1591.00 2115.00 L 1632.00 2050.00 L 1612.00 2030.00 L 1548.00 2030.00 L 1504.00 2115.00 Z" stroke-width="1" id="270-23-05" stroke="black"/>
  <path fill="none" d="M 1819.57 2115.00 L 1824.00 2079.00 L 1809.24 2030.00 L 1692.00 2030.00 L 1672.00 2050.00 L 1632.00 2050.00 L 1591.00 2115.00 Z" stroke-width="1" id="270-23-06" stroke="black"/>
  <path fill="none" d="M 317.53 2112.00 L 362.00 2126.00 L 348.00 2152.00 L 348.00 2194.00 L 412.00 2194.00 L 432.00 2234.00 L 452.00 2234.00 L 472.00 2214.00 L 492.00 2214.00 L 512.00 2194.00 L 534.00 2194.00 L 547.00 2112.00 Z" stroke-width="1" id="270-24-01" stroke="black"/>
  <path fill="none" d="M 681.00 2194.00 L 692.00 2113.00 L 572.00 2113.00 L 552.00 2112.00 L 547.00 2112.00 L 534.00 2194.00 Z" stroke-width="1" id="270-24-02" stroke="black"/>
  <path fill="none" d="M 752.00 2194.00 L 772.00 2195.00 L 777.00 2195.00 L 786.00 2113.00 L 692.00 2113.00 L 681.00 2194.00 Z" stroke-width="1" id="270-24-03" stroke="black"/>
  <path fill="none" d="M 982.00 2195.00 L 1016.00 2113.20 L 1012.00 2113.00 L 872.00 2113.00 L 852.00 2133.00 L 832.00 2133.00 L 812.00 2113.00 L 786.00 2113.00 L 777.00 2195.00 Z" stroke-width="1" id="270-24-04" stroke="black"/>
  <path fill="none" d="M 1012.00 2195.00 L 1032.00 2235.00 L 1052.00 2215.00 L 1072.00 2195.00 L 1203.00 2195.00 L 1206.00 2114.00 L 1032.00 2114.00 L 1016.00 2113.20 L 982.00 2195.00 Z" stroke-width="1" id="270-24-05" stroke="black"/>
  <path fill="none" d="M 1329.00 2195.00 L 1369.00 2114.00 L 1206.00 2114.00 L 1203.00 2195.00 Z" stroke-width="1" id="270-24-06" stroke="black"/>
  <path fill="none" d="M 1392.00 2195.00 L 1412.00 2196.00 L 1478.00 2196.00 L 1520.00 2123.00 L 1512.00 2115.00 L 1472.00 2115.00 L 1452.00 2114.00 L 1369.00 2114.00 L 1329.00 2195.00 Z" stroke-width="1" id="270-24-07" stroke="black"/>
  <path fill="none" d="M 1598.00 2196.00 L 1616.57 2115.00 L 1572.00 2115.00 L 1552.00 2135.00 L 1532.00 2135.00 L 1520.00 2123.00 L 1478.00 2196.00 Z" stroke-width="1" id="270-24-08" stroke="black"/>
  <path fill="none" d="M 1712.00 2196.00 L 1732.00 2216.00 L 1752.00 2196.00 L 1809.61 2196.00 L 1819.57 2115.00 L 1616.57 2115.00 L 1598.00 2196.00 Z" stroke-width="1" id="270-24-09" stroke="black"/>
  <path fill="none" d="M 348.00 2194.00 L 348.00 2234.00 L 287.00 2259.00 L 295.00 2273.00 L 314.86 2285.00 L 352.00 2285.00 L 372.00 2286.00 L 388.00 2286.00 L 423.00 2216.00 L 412.00 2194.00 Z" stroke-width="1" id="270-25-01" stroke="black"/>
  <path fill="none" d="M 512.00 2286.00 L 532.00 2266.00 L 552.00 2286.00 L 557.00 2286.00 L 587.00 2194.00 L 512.00 2194.00 L 492.00 2214.00 L 472.00 2214.00 L 452.00 2234.00 L 432.00 2234.00 L 423.00 2216.00 L 388.00 2286.00 Z" stroke-width="1" id="270-25-02" stroke="black"/>
  <path fill="none" d="M 572.00 2286.00 L 592.00 2306.00 L 612.00 2307.00 L 632.00 2287.00 L 635.00 2287.00 L 708.00 2194.00 L 587.00 2194.00 L 557.00 2286.00 Z" stroke-width="1" id="270-25-03" stroke="black"/>
  <path fill="none" d="M 760.00 2287.00 L 808.00 2195.00 L 772.00 2195.00 L 752.00 2194.00 L 708.00 2194.00 L 635.00 2287.00 Z" stroke-width="1" id="270-25-04" stroke="black"/>
  <path fill="none" d="M 832.00 2287.00 L 852.00 2288.00 L 1037.00 2288.00 L 1078.00 2195.00 L 1072.00 2195.00 L 1052.00 2215.00 L 1032.00 2235.00 L 1012.00 2195.00 L 808.00 2195.00 L 760.00 2287.00 Z" stroke-width="1" id="270-25-05" stroke="black"/>
  <path fill="none" d="M 1092.00 2288.00 L 1112.00 2289.00 L 1142.00 2289.00 L 1151.00 2195.00 L 1078.00 2195.00 L 1037.00 2288.00 Z" stroke-width="1" id="270-25-06" stroke="black"/>
  <path fill="none" d="M 1332.00 2289.00 L 1352.00 2290.00 L 1443.00 2290.00 L 1449.00 2196.00 L 1412.00 2196.00 L 1392.00 2195.00 L 1151.00 2195.00 L 1142.00 2289.00 Z" stroke-width="1" id="270-25-07" stroke="black"/>
  <path fill="none" d="M 1572.00 2290.00 L 1592.00 2291.00 L 1615.00 2291.00 L 1629.00 2196.00 L 1449.00 2196.00 L 1443.00 2290.00 Z" stroke-width="1" id="270-25-08" stroke="black"/>
  <path fill="none" d="M 1832.00 2291.00 L 1852.00 2292.00 L 1891.73 2292.00 L 1883.00 2226.00 L 1809.00 2201.00 L 1809.61 2196.00 L 1752.00 2196.00 L 1732.00 2216.00 L 1712.00 2196.00 L 1629.00 2196.00 L 1615.00 2291.00 Z" stroke-width="1" id="270-25-09" stroke="black"/>
  <path fill="none" d="M 314.86 2285.00 L 343.00 2302.00 L 293.00 2327.00 L 292.00 2353.00 L 335.00 2385.00 L 330.45 2389.45 L 332.00 2391.00 L 372.00 2391.00 L 392.00 2371.00 L 412.00 2371.00 L 451.00 2286.00 L 372.00 2286.00 L 352.00 2285.00 Z" stroke-width="1" id="270-26-01" stroke="black"/>
  <path fill="none" d="M 632.00 2371.00 L 652.00 2372.00 L 887.00 2372.00 L 900.00 2288.00 L 852.00 2288.00 L 832.00 2287.00 L 632.00 2287.00 L 612.00 2307.00 L 592.00 2306.00 L 572.00 2286.00 L 552.00 2286.00 L 532.00 2266.00 L 512.00 2286.00 L 451.00 2286.00 L 412.00 2371.00 Z" stroke-width="1" id="270-26-02" stroke="black"/>
  <path fill="none" d="M 1152.00 2372.00 L 1172.00 2373.00 L 1175.00 2373.00 L 1201.00 2289.00 L 1112.00 2289.00 L 1092.00 2288.00 L 948.00 2288.00 L 947.00 2372.00 Z" stroke-width="1" id="270-26-03" stroke="black"/>
  <path fill="none" d="M 1192.00 2373.00 L 1212.00 2393.00 L 1232.00 2393.00 L 1252.00 2373.00 L 1389.00 2373.00 L 1464.00 2290.00 L 1352.00 2290.00 L 1332.00 2289.00 L 1201.00 2289.00 L 1175.00 2373.00 Z" stroke-width="1" id="270-26-04" stroke="black"/>
  <path fill="none" d="M 1392.00 2373.00 L 1412.00 2393.00 L 1432.00 2373.00 L 1672.00 2373.00 L 1692.00 2374.00 L 1695.00 2374.00 L 1713.00 2291.00 L 1592.00 2291.00 L 1572.00 2290.00 L 1464.00 2290.00 L 1389.00 2373.00 Z" stroke-width="1" id="270-26-05" stroke="black"/>
  <path fill="none" d="M 1767.00 2374.00 L 1803.00 2291.00 L 1713.00 2291.00 L 1695.00 2374.00 Z" stroke-width="1" id="270-26-06" stroke="black"/>
  <path fill="none" d="M 1861.30 2374.00 L 1899.00 2347.00 L 1891.73 2292.00 L 1852.00 2292.00 L 1832.00 2291.00 L 1803.00 2291.00 L 1767.00 2374.00 Z" stroke-width="1" id="270-26-07" stroke="black"/>
  <path fill="none" d="M 293.00 2426.00 L 297.00 2436.00 L 329.89 2452.00 L 386.89 2452.00 L 403.00 2371.00 L 392.00 2371.00 L 372.00 2391.00 L 332.00 2391.00 L 330.45 2389.45 Z" stroke-width="1" id="270-27-01" stroke="black"/>
  <path fill="none" d="M 467.89 2452.00 L 484.00 2371.00 L 403.00 2371.00 L 386.89 2452.00 Z" stroke-width="1" id="270-27-02" stroke="black"/>
  <path fill="none" d="M 789.89 2452.00 L 795.00 2372.00 L 652.00 2372.00 L 632.00 2371.00 L 484.00 2371.00 L 467.89 2452.00 Z" stroke-width="1" id="270-27-03" stroke="black"/>
  <path fill="none" d="M 892.00 2452.00 L 912.00 2453.00 L 1252.00 2453.00 L 1272.00 2473.00 L 1292.00 2473.00 L 1312.00 2453.00 L 1339.00 2453.00 L 1351.00 2373.00 L 1252.00 2373.00 L 1232.00 2393.00 L 1212.00 2393.00 L 1192.00 2373.00 L 1172.00 2373.00 L 1152.00 2372.00 L 795.00 2372.00 L 789.89 2452.00 Z" stroke-width="1" id="270-27-04" stroke="black"/>
  <path fill="none" d="M 1372.00 2453.00 L 1392.00 2473.00 L 1412.00 2453.00 L 1420.00 2453.00 L 1476.00 2373.00 L 1432.00 2373.00 L 1412.00 2393.00 L 1392.00 2373.00 L 1351.00 2373.00 L 1339.00 2453.00 Z" stroke-width="1" id="270-27-05" stroke="black"/>
  <path fill="none" d="M 1570.00 2453.00 L 1576.00 2373.00 L 1476.00 2373.00 L 1420.00 2453.00 Z" stroke-width="1" id="270-27-06" stroke="black"/>
  <path fill="none" d="M 1692.00 2453.00 L 1712.00 2454.00 L 1840.79 2454.00 L 1825.00 2400.00 L 1861.30 2374.00 L 1692.00 2374.00 L 1672.00 2373.00 L 1576.00 2373.00 L 1570.00 2453.00 Z" stroke-width="1" id="270-27-07" stroke="black"/>
  <path fill="none" d="M 329.89 2452.00 L 334.00 2454.00 L 314.00 2492.00 L 292.00 2510.00 L 321.28 2541.00 L 352.28 2541.00 L 400.00 2452.00 Z" stroke-width="1" id="270-28-01" stroke="black"/>
  <path fill="none" d="M 512.00 2541.00 L 532.00 2521.00 L 552.00 2541.00 L 564.00 2541.00 L 601.00 2452.00 L 400.00 2452.00 L 352.28 2541.00 Z" stroke-width="1" id="270-28-02" stroke="black"/>
  <path fill="none" d="M 677.00 2541.00 L 730.00 2452.00 L 601.00 2452.00 L 564.00 2541.00 Z" stroke-width="1" id="270-28-03" stroke="black"/>
  <path fill="none" d="M 812.00 2541.00 L 832.00 2542.00 L 852.00 2542.00 L 871.00 2452.00 L 730.00 2452.00 L 677.00 2541.00 Z" stroke-width="1" id="270-28-04" stroke="black"/>
  <path fill="none" d="M 932.00 2542.00 L 952.00 2522.00 L 972.00 2542.00 L 1184.00 2542.00 L 1183.00 2453.00 L 912.00 2453.00 L 892.00 2452.00 L 871.00 2452.00 L 852.00 2542.00 Z" stroke-width="1" id="270-28-05" stroke="black"/>
  <path fill="none" d="M 1303.00 2542.00 L 1292.00 2473.00 L 1272.00 2473.00 L 1252.00 2453.00 L 1183.00 2453.00 L 1184.00 2542.00 Z" stroke-width="1" id="270-28-06" stroke="black"/>
  <path fill="none" d="M 1468.00 2542.00 L 1472.00 2453.00 L 1412.00 2453.00 L 1392.00 2473.00 L 1372.00 2453.00 L 1312.00 2453.00 L 1292.00 2473.00 L 1303.00 2542.00 Z" stroke-width="1" id="270-28-07" stroke="black"/>
  <path fill="none" d="M 1532.00 2542.00 L 1552.00 2543.00 L 1859.16 2543.00 L 1856.00 2506.00 L 1840.79 2454.00 L 1712.00 2454.00 L 1692.00 2453.00 L 1472.00 2453.00 L 1468.00 2542.00 Z" stroke-width="1" id="270-28-08" stroke="black"/>
  <path fill="none" d="M 321.28 2541.00 L 326.00 2546.00 L 317.00 2575.00 L 295.00 2608.00 L 315.00 2621.00 L 316.24 2634.00 L 420.24 2634.00 L 451.00 2541.00 Z" stroke-width="1" id="270-29-01" stroke="black"/>
  <path fill="none" d="M 492.00 2634.00 L 512.00 2654.00 L 532.00 2654.00 L 552.00 2634.00 L 692.00 2634.00 L 712.00 2654.00 L 732.00 2654.00 L 752.00 2634.00 L 765.00 2634.00 L 800.00 2541.00 L 552.00 2541.00 L 532.00 2521.00 L 512.00 2541.00 L 451.00 2541.00 L 420.24 2634.00 Z" stroke-width="1" id="270-29-02" stroke="black"/>
  <path fill="none" d="M 792.00 2634.00 L 812.00 2635.00 L 914.00 2635.00 L 972.00 2542.00 L 952.00 2522.00 L 932.00 2542.00 L 832.00 2542.00 L 812.00 2541.00 L 800.00 2541.00 L 765.00 2634.00 Z" stroke-width="1" id="270-29-03" stroke="black"/>
  <path fill="none" d="M 1012.00 2635.00 L 1032.00 2632.00 L 1052.00 2640.00 L 1072.00 2644.00 L 1092.00 2635.00 L 1302.00 2635.00 L 1340.00 2542.00 L 972.00 2542.00 L 914.00 2635.00 Z" stroke-width="1" id="270-29-04" stroke="black"/>
  <path fill="none" d="M 1461.00 2635.00 L 1496.00 2542.00 L 1340.00 2542.00 L 1302.00 2635.00 Z" stroke-width="1" id="270-29-05" stroke="black"/>
  <path fill="none" d="M 1472.00 2635.00 L 1492.00 2636.00 L 1889.04 2636.00 L 1863.00 2588.00 L 1859.16 2543.00 L 1552.00 2543.00 L 1532.00 2542.00 L 1496.00 2542.00 L 1461.00 2635.00 Z" stroke-width="1" id="270-29-06" stroke="black"/>
  <path fill="none" d="M 316.24 2634.00 L 319.00 2663.00 L 294.00 2688.00 L 315.88 2723.00 L 454.88 2723.00 L 481.00 2634.00 Z" stroke-width="1" id="270-30-01" stroke="black"/>
  <path fill="none" d="M 612.00 2723.00 L 632.00 2743.00 L 672.00 2743.00 L 692.00 2724.00 L 712.00 2724.00 L 733.00 2653.00 L 732.00 2654.00 L 712.00 2654.00 L 692.00 2634.00 L 552.00 2634.00 L 532.00 2654.00 L 512.00 2654.00 L 492.00 2634.00 L 481.00 2634.00 L 454.88 2723.00 Z" stroke-width="1" id="270-30-02" stroke="black"/>
  <path fill="none" d="M 732.00 2744.00 L 752.00 2724.00 L 772.00 2744.00 L 792.00 2724.00 L 892.00 2724.00 L 940.00 2635.00 L 812.00 2635.00 L 799.00 2634.35 L 720.00 2732.00 Z" stroke-width="1" id="270-30-03" stroke="black"/>
  <path fill="none" d="M 912.00 2744.00 L 932.00 2724.00 L 1172.00 2724.00 L 1192.00 2704.00 L 1211.00 2704.00 L 1232.00 2635.00 L 1092.00 2635.00 L 1072.00 2644.00 L 1052.00 2640.00 L 1032.00 2632.00 L 1012.00 2635.00 L 940.00 2635.00 L 892.00 2724.00 Z" stroke-width="1" id="270-30-04" stroke="black"/>
  <path fill="none" d="M 1212.00 2704.00 L 1232.00 2724.00 L 1252.00 2724.00 L 1272.00 2725.00 L 1439.00 2725.00 L 1445.00 2635.00 L 1232.00 2635.00 L 1211.00 2704.00 Z" stroke-width="1" id="270-30-05" stroke="black"/>
  <path fill="none" d="M 1561.00 2725.00 L 1585.04 2636.00 L 1492.00 2636.00 L 1472.00 2635.00 L 1445.00 2635.00 L 1439.00 2725.00 Z" stroke-width="1" id="270-30-06" stroke="black"/>
  <path fill="none" d="M 1624.00 2725.00 L 1673.04 2636.00 L 1585.04 2636.00 L 1561.00 2725.00 Z" stroke-width="1" id="270-30-07" stroke="black"/>
  <path fill="none" d="M 1832.00 2725.00 L 1852.00 2726.00 L 1898.79 2726.00 L 1914.00 2682.00 L 1889.04 2636.00 L 1673.04 2636.00 L 1624.00 2725.00 Z" stroke-width="1" id="270-30-08" stroke="black"/>
  <path fill="none" d="M 315.88 2723.00 L 324.00 2736.00 L 309.00 2765.00 L 293.00 2782.00 L 289.00 2820.00 L 315.13 2820.87 L 332.00 2804.00 L 372.00 2804.00 L 392.00 2803.00 L 559.00 2803.00 L 601.00 2723.00 Z" stroke-width="1" id="270-31-01" stroke="black"/>
  <path fill="none" d="M 632.00 2803.00 L 635.00 2802.85 L 666.00 2743.00 L 632.00 2743.00 L 612.00 2723.00 L 601.00 2723.00 L 559.00 2803.00 Z" stroke-width="1" id="270-31-02" stroke="black"/>
  <path fill="none" d="M 652.00 2802.00 L 681.00 2802.00 L 699.00 2724.00 L 692.00 2724.00 L 672.00 2743.00 L 666.00 2743.00 L 635.00 2802.85 Z" stroke-width="1" id="270-31-03" stroke="black"/>
  <path fill="none" d="M 732.00 2802.00 L 752.00 2822.00 L 772.00 2822.00 L 792.00 2802.00 L 852.00 2802.00 L 853.00 2724.00 L 792.00 2724.00 L 772.00 2744.00 L 752.00 2724.00 L 732.00 2744.00 L 712.00 2724.00 L 699.00 2724.00 L 681.00 2802.00 Z" stroke-width="1" id="270-31-04" stroke="black"/>
  <path fill="none" d="M 892.00 2802.00 L 912.00 2801.00 L 1007.00 2801.00 L 1037.00 2724.00 L 932.00 2724.00 L 912.00 2744.00 L 892.00 2724.00 L 853.00 2724.00 L 852.00 2802.00 Z" stroke-width="1" id="270-31-05" stroke="black"/>
  <path fill="none" d="M 1075.00 2801.00 L 1133.00 2724.00 L 1037.00 2724.00 L 1007.00 2801.00 Z" stroke-width="1" id="270-31-06" stroke="black"/>
  <path fill="none" d="M 1152.00 2801.00 L 1172.00 2800.00 L 1208.00 2800.00 L 1253.00 2724.05 L 1252.00 2724.00 L 1232.00 2724.00 L 1212.00 2704.00 L 1192.00 2704.00 L 1172.00 2724.00 L 1133.00 2724.00 L 1075.00 2801.00 Z" stroke-width="1" id="270-31-07" stroke="black"/>
  <path fill="none" d="M 1412.00 2800.00 L 1432.00 2799.00 L 1549.00 2799.00 L 1553.00 2725.00 L 1272.00 2725.00 L 1253.00 2724.05 L 1208.00 2800.00 Z" stroke-width="1" id="270-31-08" stroke="black"/>
  <path fill="none" d="M 1597.00 2799.00 L 1621.00 2725.00 L 1553.00 2725.00 L 1549.00 2799.00 Z" stroke-width="1" id="270-31-09" stroke="black"/>
  <path fill="none" d="M 1629.00 2799.00 L 1642.00 2725.00 L 1621.00 2725.00 L 1597.00 2799.00 Z" stroke-width="1" id="270-31-10" stroke="black"/>
  <path fill="none" d="M 1672.00 2799.00 L 1692.00 2798.00 L 1882.86 2798.00 L 1886.00 2763.00 L 1898.79 2726.00 L 1852.00 2726.00 L 1832.00 2725.00 L 1642.00 2725.00 L 1629.00 2799.00 Z" stroke-width="1" id="270-31-11" stroke="black"/>
  <path fill="none" d="M 332.00 2804.00 L 315.13 2820.87 L 319.00 2821.00 L 313.00 2844.00 L 294.00 2861.00 L 308.00 2880.00 L 308.44 2886.00 L 332.00 2886.00 L 352.00 2885.00 L 402.00 2885.00 L 418.00 2803.00 L 392.00 2803.00 L 372.00 2804.00 Z" stroke-width="1" id="270-32-01" stroke="black"/>
  <path fill="none" d="M 549.00 2885.00 L 576.00 2803.00 L 418.00 2803.00 L 402.00 2885.00 Z" stroke-width="1" id="270-32-02" stroke="black"/>
  <path fill="none" d="M 572.00 2885.00 L 592.00 2884.00 L 812.00 2884.00 L 832.00 2883.00 L 845.00 2883.00 L 864.00 2802.00 L 792.00 2802.00 L 772.00 2822.00 L 752.00 2822.00 L 732.00 2802.00 L 652.00 2802.00 L 632.00 2803.00 L 576.00 2803.00 L 549.00 2885.00 Z" stroke-width="1" id="270-32-03" stroke="black"/>
  <path fill="none" d="M 892.00 2883.00 L 912.00 2903.00 L 932.00 2883.00 L 1013.00 2883.00 L 1040.00 2801.00 L 912.00 2801.00 L 892.00 2802.00 L 864.00 2802.00 L 845.00 2883.00 Z" stroke-width="1" id="270-32-04" stroke="black"/>
  <path fill="none" d="M 1032.00 2883.00 L 1052.00 2882.00 L 1198.00 2882.00 L 1255.00 2800.00 L 1172.00 2800.00 L 1152.00 2801.00 L 1040.00 2801.00 L 1013.00 2883.00 Z" stroke-width="1" id="270-32-05" stroke="black"/>
  <path fill="none" d="M 1272.00 2882.00 L 1292.00 2901.00 L 1312.00 2901.00 L 1332.00 2881.00 L 1469.00 2881.00 L 1507.00 2799.00 L 1432.00 2799.00 L 1412.00 2800.00 L 1255.00 2800.00 L 1198.00 2882.00 Z" stroke-width="1" id="270-32-06" stroke="black"/>
  <path fill="none" d="M 1512.00 2881.00 L 1532.00 2880.00 L 1617.00 2880.00 L 1621.00 2799.00 L 1507.00 2799.00 L 1469.00 2881.00 Z" stroke-width="1" id="270-32-07" stroke="black"/>
  <path fill="none" d="M 1732.00 2880.00 L 1752.00 2879.00 L 1805.67 2879.00 L 1874.00 2874.00 L 1879.00 2841.00 L 1882.86 2798.00 L 1692.00 2798.00 L 1672.00 2799.00 L 1621.00 2799.00 L 1617.00 2880.00 Z" stroke-width="1" id="270-32-08" stroke="black"/>
  <path fill="none" d="M 308.44 2886.00 L 312.00 2935.00 L 299.00 2948.00 L 317.00 2967.00 L 452.00 2966.55 L 471.00 2885.00 L 352.00 2885.00 L 332.00 2886.00 Z" stroke-width="1" id="270-33-01" stroke="black"/>
  <path fill="none" d="M 542.00 2966.26 L 575.00 2884.85 L 572.00 2885.00 L 471.00 2885.00 L 452.00 2966.55 Z" stroke-width="1" id="270-33-02" stroke="black"/>
  <path fill="none" d="M 671.00 2965.83 L 688.00 2884.00 L 592.00 2884.00 L 575.00 2884.85 L 542.00 2966.26 Z" stroke-width="1" id="270-33-03" stroke="black"/>
  <path fill="none" d="M 974.00 2964.83 L 1026.00 2883.00 L 932.00 2883.00 L 912.00 2903.00 L 892.00 2883.00 L 832.00 2883.00 L 812.00 2884.00 L 688.00 2884.00 L 671.00 2965.83 Z" stroke-width="1" id="270-33-04" stroke="black"/>
  <path fill="none" d="M 1069.00 2964.51 L 1098.00 2882.00 L 1052.00 2882.00 L 1032.00 2883.00 L 1026.00 2883.00 L 974.00 2964.83 Z" stroke-width="1" id="270-33-05" stroke="black"/>
  <path fill="none" d="M 1207.00 2964.06 L 1237.00 2882.00 L 1098.00 2882.00 L 1069.00 2964.51 Z" stroke-width="1" id="270-33-06" stroke="black"/>
  <path fill="none" d="M 1352.00 2963.58 L 1387.00 2881.00 L 1332.00 2881.00 L 1312.00 2901.00 L 1292.00 2901.00 L 1272.00 2882.00 L 1237.00 2882.00 L 1207.00 2964.06 Z" stroke-width="1" id="270-33-07" stroke="black"/>
  <path fill="none" d="M 1465.00 2963.20 L 1490.00 2881.00 L 1387.00 2881.00 L 1352.00 2963.58 Z" stroke-width="1" id="270-33-08" stroke="black"/>
  <path fill="none" d="M 1526.00 2963.00 L 1547.60 2969.00 L 1592.00 2969.00 L 1611.82 2986.84 L 1612.40 2987.00 L 1619.58 2987.00 L 1637.58 2981.98 L 1652.00 2969.00 L 1684.08 2969.00 L 1702.00 2964.00 L 1710.00 2886.00 L 1805.67 2879.00 L 1752.00 2879.00 L 1732.00 2880.00 L 1532.00 2880.00 L 1512.00 2881.00 L 1490.00 2881.00 L 1465.00 2963.20 Z" stroke-width="1" id="270-33-09" stroke="black"/>
</svg>
