<?xml version="1.0" encoding="UTF-8"?>
<svg xmlns:xlink="http://www.w3.org/1999/xlink" xmlns="http://www.w3.org/2000/svg" contentScriptType="text/ecmascript" width="2095px" zoomAndPan="magnify" contentStyleType="text/css" viewBox="0 0 2095 3289" height="3289px" preserveAspectRatio="xMidYMid meet" version="1.0">
  <path fill="none" d="M 286.00 133.00 L 228.00 207.00 L 225.41 214.34 L 244.00 232.00 L 304.00 232.00 L 324.00 212.00 L 344.00 211.00 L 424.00 211.00 L 444.00 230.00 L 464.00 230.00 L 484.00 210.00 L 497.00 141.95 L 337.00 136.00 Z" stroke-width="1" id="271-02-01" stroke="black"/>
  <path fill="none" d="M 504.00 230.00 L 524.00 230.00 L 544.00 209.00 L 564.00 229.00 L 624.00 229.00 L 644.00 228.00 L 724.00 228.00 L 744.00 207.00 L 744.00 147.37 L 579.00 145.00 L 497.00 141.95 L 484.00 210.00 Z" stroke-width="1" id="271-02-02" stroke="black"/>
  <path fill="none" d="M 764.00 227.00 L 784.00 227.00 L 804.00 207.00 L 824.00 227.00 L 844.00 226.00 L 864.00 226.00 L 884.00 206.00 L 924.00 206.00 L 944.00 205.00 L 945.00 205.00 L 977.00 138.98 L 927.00 150.00 L 744.00 147.37 L 744.00 207.00 Z" stroke-width="1" id="271-02-03" stroke="black"/>
  <path fill="none" d="M 1004.00 205.00 L 1024.00 225.00 L 1044.00 224.00 L 1104.00 224.00 L 1124.00 204.00 L 1144.00 223.00 L 1204.00 223.00 L 1224.00 203.00 L 1244.00 222.00 L 1264.00 202.00 L 1284.00 222.00 L 1324.00 222.00 L 1344.00 221.00 L 1424.00 221.00 L 1444.00 220.00 L 1465.00 220.00 L 1484.00 127.54 L 1045.00 124.00 L 977.00 138.98 L 945.00 205.00 Z" stroke-width="1" id="271-02-04" stroke="black"/>
  <path fill="none" d="M 1484.00 220.00 L 1504.00 200.00 L 1524.00 200.00 L 1544.00 219.00 L 1584.00 219.00 L 1604.00 199.00 L 1624.00 199.00 L 1644.00 198.00 L 1704.00 198.00 L 1711.00 205.00 L 1756.00 136.64 L 1665.00 129.00 L 1484.00 127.54 L 1465.00 220.00 Z" stroke-width="1" id="271-02-05" stroke="black"/>
  <path fill="none" d="M 1724.00 218.00 L 1744.00 217.00 L 1804.00 217.00 L 1824.00 197.00 L 1844.00 196.00 L 1853.00 144.78 L 1756.00 136.64 L 1711.00 205.00 Z" stroke-width="1" id="271-02-06" stroke="black"/>
  <path fill="none" d="M 1857.00 209.00 L 1876.00 146.71 L 1853.00 144.78 L 1844.00 196.00 Z" stroke-width="1" id="271-02-07" stroke="black"/>
  <path fill="none" d="M 1864.00 216.00 L 1924.00 216.00 L 1944.00 215.00 L 1945.67 213.33 L 1959.00 192.00 L 1951.00 153.00 L 1876.00 146.71 L 1857.00 209.00 Z" stroke-width="1" id="271-02-08" stroke="black"/>
  <path fill="none" d="M 160.00 322.00 L 144.00 370.00 L 151.00 408.00 L 240.00 406.13 L 246.00 294.40 L 244.00 295.00 L 232.00 295.00 Z" stroke-width="1" id="271-04-01" stroke="black"/>
  <path fill="none" d="M 246.00 406.00 L 351.00 407.11 L 374.00 287.00 L 284.00 287.00 L 264.00 289.00 L 246.00 294.40 L 240.00 406.13 Z" stroke-width="1" id="271-04-02" stroke="black"/>
  <path fill="none" d="M 529.00 409.00 L 544.00 427.00 L 599.60 417.40 L 604.00 413.00 L 624.00 413.00 L 625.48 412.93 L 654.00 408.00 L 718.00 405.96 L 721.00 304.70 L 704.00 303.00 L 684.00 303.00 L 664.00 301.00 L 644.00 297.00 L 624.00 291.00 L 564.00 291.00 L 544.00 289.00 L 504.00 289.00 L 484.00 287.00 L 374.00 287.00 L 351.00 407.11 Z" stroke-width="1" id="271-04-03" stroke="black"/>
  <path fill="none" d="M 748.00 405.00 L 746.19 411.89 L 764.00 411.00 L 864.00 411.00 L 884.00 410.00 L 984.00 410.00 L 1004.00 429.00 L 1024.00 409.00 L 1092.00 409.00 L 1100.00 303.00 L 1084.00 303.00 L 1064.00 301.00 L 1024.00 301.00 L 1004.00 299.00 L 904.00 299.00 L 884.00 303.00 L 764.00 303.00 L 744.00 307.00 L 724.00 305.00 L 721.00 304.70 L 718.00 405.96 Z" stroke-width="1" id="271-04-04" stroke="black"/>
  <path fill="none" d="M 1104.00 409.00 L 1124.00 408.00 L 1182.00 408.00 L 1243.00 303.00 L 1100.00 303.00 L 1092.00 409.00 Z" stroke-width="1" id="271-04-05" stroke="black"/>
  <path fill="none" d="M 1224.00 408.00 L 1244.00 407.00 L 1324.00 407.00 L 1336.00 295.00 L 1304.00 295.00 L 1284.00 299.00 L 1264.00 303.00 L 1243.00 303.00 L 1182.00 408.00 Z" stroke-width="1" id="271-04-06" stroke="black"/>
  <path fill="none" d="M 1344.00 407.00 L 1364.00 406.00 L 1384.00 406.00 L 1404.00 426.00 L 1424.00 406.00 L 1464.00 406.00 L 1484.00 405.00 L 1584.00 405.00 L 1604.00 384.00 L 1619.00 399.00 L 1664.00 299.00 L 1644.00 297.00 L 1464.00 297.00 L 1444.00 295.00 L 1336.00 295.00 L 1324.00 407.00 Z" stroke-width="1" id="271-04-07" stroke="black"/>
  <path fill="none" d="M 1624.00 404.00 L 1704.00 404.00 L 1724.00 403.00 L 1824.00 403.00 L 1844.00 402.00 L 1944.00 402.00 L 1954.94 401.45 L 1950.00 324.00 L 1948.72 301.00 L 1784.00 301.00 L 1764.00 299.00 L 1664.00 299.00 L 1619.00 399.00 Z" stroke-width="1" id="271-04-08" stroke="black"/>
  <path fill="none" d="M 746.19 411.89 L 732.00 466.00 L 693.00 495.00 L 662.76 496.01 L 664.00 497.00 L 684.00 497.00 L 704.00 527.00 L 724.00 527.00 L 744.00 519.00 L 764.00 511.00 L 784.00 503.00 L 804.00 503.00 L 824.00 480.00 L 891.00 480.00 L 904.00 410.00 L 884.00 410.00 L 864.00 411.00 L 764.00 411.00 Z" stroke-width="1" id="271-05-01" stroke="black"/>
  <path fill="none" d="M 1004.00 480.00 L 1019.00 479.25 L 1034.00 409.00 L 1024.00 409.00 L 1004.00 429.00 L 984.00 410.00 L 904.00 410.00 L 891.00 480.00 Z" stroke-width="1" id="271-05-02" stroke="black"/>
  <path fill="none" d="M 1024.00 479.00 L 1144.00 479.00 L 1164.00 499.00 L 1184.00 519.00 L 1204.00 519.00 L 1224.00 499.00 L 1244.00 478.00 L 1266.00 478.00 L 1273.00 407.00 L 1244.00 407.00 L 1224.00 408.00 L 1124.00 408.00 L 1104.00 409.00 L 1034.00 409.00 L 1019.00 479.25 Z" stroke-width="1" id="271-05-03" stroke="black"/>
  <path fill="none" d="M 1444.00 478.00 L 1464.00 477.00 L 1564.00 477.00 L 1572.00 405.00 L 1484.00 405.00 L 1464.00 406.00 L 1424.00 406.00 L 1404.00 426.00 L 1384.00 406.00 L 1364.00 406.00 L 1344.00 407.00 L 1273.00 407.00 L 1266.00 478.00 Z" stroke-width="1" id="271-05-04" stroke="black"/>
  <path fill="none" d="M 1630.00 477.00 L 1661.00 404.00 L 1624.00 404.00 L 1604.00 384.00 L 1584.00 405.00 L 1572.00 405.00 L 1564.00 477.00 Z" stroke-width="1" id="271-05-05" stroke="black"/>
  <path fill="none" d="M 1664.00 477.00 L 1684.00 496.00 L 1704.00 496.00 L 1724.00 476.00 L 1862.00 476.00 L 1838.00 402.30 L 1824.00 403.00 L 1724.00 403.00 L 1704.00 404.00 L 1661.00 404.00 L 1630.00 477.00 Z" stroke-width="1" id="271-05-06" stroke="black"/>
  <path fill="none" d="M 1884.00 476.00 L 1904.00 475.00 L 1956.00 475.00 L 1956.00 418.00 L 1954.94 401.45 L 1944.00 402.00 L 1844.00 402.00 L 1838.00 402.30 L 1862.00 476.00 Z" stroke-width="1" id="271-05-07" stroke="black"/>
  <path fill="none" d="M 243.00 529.00 L 219.00 562.00 L 250.00 571.00 L 249.69 585.00 L 284.00 585.00 L 304.00 605.00 L 324.00 605.00 L 344.00 585.00 L 444.00 585.00 L 464.00 584.00 L 550.00 584.00 L 570.00 498.96 L 300.00 495.00 Z" stroke-width="1" id="271-06-01" stroke="black"/>
  <path fill="none" d="M 644.00 584.00 L 664.00 604.00 L 724.00 604.00 L 744.00 584.00 L 764.00 583.00 L 812.00 583.00 L 844.00 480.00 L 824.00 480.00 L 804.00 503.00 L 784.00 503.00 L 764.00 511.00 L 744.00 519.00 L 724.00 527.00 L 704.00 527.00 L 684.00 497.00 L 664.00 497.00 L 662.76 496.01 L 573.00 499.00 L 570.00 498.96 L 550.00 584.00 Z" stroke-width="1" id="271-06-02" stroke="black"/>
  <path fill="none" d="M 964.00 583.00 L 984.00 603.00 L 1004.00 603.00 L 1024.00 583.00 L 1044.00 583.00 L 1064.00 582.00 L 1084.00 582.00 L 1104.00 602.00 L 1124.00 622.00 L 1144.00 602.00 L 1164.00 582.00 L 1207.00 582.00 L 1231.00 491.65 L 1224.00 499.00 L 1204.00 519.00 L 1184.00 519.00 L 1164.00 499.00 L 1144.00 479.00 L 1024.00 479.00 L 1004.00 480.00 L 844.00 480.00 L 812.00 583.00 Z" stroke-width="1" id="271-06-03" stroke="black"/>
  <path fill="none" d="M 1328.00 582.00 L 1370.00 478.00 L 1244.00 478.00 L 1231.00 491.65 L 1207.00 582.00 Z" stroke-width="1" id="271-06-04" stroke="black"/>
  <path fill="none" d="M 1364.00 582.00 L 1384.00 581.00 L 1521.00 581.00 L 1568.00 477.00 L 1464.00 477.00 L 1444.00 478.00 L 1370.00 478.00 L 1328.00 582.00 Z" stroke-width="1" id="271-06-05" stroke="black"/>
  <path fill="none" d="M 1664.00 581.00 L 1684.00 580.00 L 1894.96 580.00 L 1956.00 562.00 L 1956.00 520.00 L 1956.00 475.00 L 1904.00 475.00 L 1884.00 476.00 L 1724.00 476.00 L 1704.00 496.00 L 1684.00 496.00 L 1664.00 477.00 L 1568.00 477.00 L 1521.00 581.00 Z" stroke-width="1" id="271-06-06" stroke="black"/>
  <path fill="none" d="M 249.69 585.00 L 249.00 616.00 L 220.00 643.00 L 252.00 658.00 L 423.00 658.00 L 456.00 584.40 L 444.00 585.00 L 344.00 585.00 L 324.00 605.00 L 304.00 605.00 L 284.00 585.00 Z" stroke-width="1" id="271-07-01" stroke="black"/>
  <path fill="none" d="M 424.00 658.00 L 444.00 678.00 L 464.00 698.00 L 484.00 698.00 L 504.00 678.00 L 524.00 678.00 L 544.00 658.00 L 564.00 657.00 L 604.00 657.00 L 623.00 676.00 L 713.00 604.00 L 664.00 604.00 L 644.00 584.00 L 464.00 584.00 L 456.00 584.40 L 423.00 658.00 Z" stroke-width="1" id="271-07-02" stroke="black"/>
  <path fill="none" d="M 624.00 677.00 L 644.00 697.00 L 664.00 697.00 L 684.00 677.00 L 704.00 657.00 L 860.00 657.00 L 894.00 583.00 L 764.00 583.00 L 744.00 584.00 L 724.00 604.00 L 713.00 604.00 L 623.00 676.00 Z" stroke-width="1" id="271-07-03" stroke="black"/>
  <path fill="none" d="M 964.00 657.00 L 984.00 656.00 L 1004.00 676.00 L 1024.00 676.00 L 1044.00 656.00 L 1099.00 656.00 L 1114.00 612.00 L 1104.00 602.00 L 1084.00 582.00 L 1064.00 582.00 L 1044.00 583.00 L 1024.00 583.00 L 1004.00 603.00 L 984.00 603.00 L 964.00 583.00 L 894.00 583.00 L 860.00 657.00 Z" stroke-width="1" id="271-07-04" stroke="black"/>
  <path fill="none" d="M 1193.00 656.00 L 1226.00 582.00 L 1164.00 582.00 L 1144.00 602.00 L 1124.00 622.00 L 1114.00 612.00 L 1099.00 656.00 Z" stroke-width="1" id="271-07-05" stroke="black"/>
  <path fill="none" d="M 1384.00 656.00 L 1404.00 655.00 L 1413.00 655.00 L 1455.00 581.00 L 1384.00 581.00 L 1364.00 582.00 L 1226.00 582.00 L 1193.00 656.00 Z" stroke-width="1" id="271-07-06" stroke="black"/>
  <path fill="none" d="M 1564.00 655.00 L 1584.00 675.00 L 1604.00 675.00 L 1624.00 655.00 L 1684.00 655.00 L 1704.00 675.00 L 1764.00 675.00 L 1784.00 655.00 L 1795.00 655.00 L 1820.96 580.00 L 1684.00 580.00 L 1664.00 581.00 L 1455.00 581.00 L 1413.00 655.00 Z" stroke-width="1" id="271-07-07" stroke="black"/>
  <path fill="none" d="M 1804.00 655.00 L 1824.00 654.00 L 1895.33 654.00 L 1878.00 642.00 L 1878.00 585.00 L 1894.96 580.00 L 1820.96 580.00 L 1795.00 655.00 Z" stroke-width="1" id="271-07-08" stroke="black"/>
  <path fill="none" d="M 252.00 658.00 L 253.00 708.00 L 222.00 733.00 L 253.00 750.00 L 252.86 755.00 L 304.00 755.00 L 324.00 754.00 L 484.00 754.00 L 504.00 753.00 L 531.00 753.00 L 550.00 657.70 L 544.00 658.00 L 524.00 678.00 L 504.00 678.00 L 484.00 698.00 L 464.00 698.00 L 444.00 678.00 L 424.00 658.00 Z" stroke-width="1" id="271-08-01" stroke="black"/>
  <path fill="none" d="M 595.00 753.00 L 641.00 694.00 L 624.00 677.00 L 604.00 657.00 L 564.00 657.00 L 550.00 657.70 L 531.00 753.00 Z" stroke-width="1" id="271-08-02" stroke="black"/>
  <path fill="none" d="M 644.00 753.00 L 664.00 752.00 L 684.00 752.00 L 704.00 772.00 L 744.00 772.00 L 764.00 752.00 L 824.00 752.00 L 844.00 751.00 L 911.00 751.00 L 959.00 657.00 L 704.00 657.00 L 684.00 677.00 L 664.00 697.00 L 644.00 697.00 L 641.00 694.00 L 595.00 753.00 Z" stroke-width="1" id="271-08-03" stroke="black"/>
  <path fill="none" d="M 924.00 751.00 L 944.00 771.00 L 964.00 771.00 L 968.00 775.00 L 1073.00 656.00 L 1044.00 656.00 L 1024.00 676.00 L 1004.00 676.00 L 984.00 656.00 L 964.00 657.00 L 959.00 657.00 L 911.00 751.00 Z" stroke-width="1" id="271-08-04" stroke="black"/>
  <path fill="none" d="M 984.00 791.00 L 1004.00 790.00 L 1024.00 770.00 L 1044.00 770.00 L 1064.00 750.00 L 1164.00 750.00 L 1175.00 749.45 L 1227.00 656.00 L 1073.00 656.00 L 968.00 775.00 Z" stroke-width="1" id="271-08-05" stroke="black"/>
  <path fill="none" d="M 1184.00 749.00 L 1324.00 749.00 L 1344.00 748.00 L 1364.00 748.00 L 1410.00 655.00 L 1404.00 655.00 L 1384.00 656.00 L 1227.00 656.00 L 1175.00 749.45 Z" stroke-width="1" id="271-08-06" stroke="black"/>
  <path fill="none" d="M 1460.00 748.00 L 1501.00 655.00 L 1410.00 655.00 L 1364.00 748.00 Z" stroke-width="1" id="271-08-07" stroke="black"/>
  <path fill="none" d="M 1504.00 748.00 L 1524.00 747.00 L 1650.00 747.00 L 1702.00 673.00 L 1684.00 655.00 L 1624.00 655.00 L 1604.00 675.00 L 1584.00 675.00 L 1564.00 655.00 L 1501.00 655.00 L 1460.00 748.00 Z" stroke-width="1" id="271-08-08" stroke="black"/>
  <path fill="none" d="M 1684.00 747.00 L 1704.00 746.00 L 1784.00 746.00 L 1804.00 766.00 L 1824.00 746.00 L 1844.00 766.00 L 1864.00 745.00 L 1877.00 745.00 L 1889.33 654.00 L 1824.00 654.00 L 1804.00 655.00 L 1784.00 655.00 L 1764.00 675.00 L 1704.00 675.00 L 1702.00 673.00 L 1650.00 747.00 Z" stroke-width="1" id="271-08-09" stroke="black"/>
  <path fill="none" d="M 1941.85 745.00 L 1968.00 711.00 L 1930.00 678.00 L 1895.33 654.00 L 1889.33 654.00 L 1877.00 745.00 Z" stroke-width="1" id="271-08-10" stroke="black"/>
  <path fill="none" d="M 252.86 755.00 L 252.00 786.00 L 228.00 811.00 L 250.00 826.00 L 250.47 833.00 L 364.00 833.00 L 384.00 832.00 L 604.00 832.00 L 624.00 831.00 L 646.00 831.00 L 660.00 752.20 L 644.00 753.00 L 504.00 753.00 L 484.00 754.00 L 324.00 754.00 L 304.00 755.00 Z" stroke-width="1" id="271-09-01" stroke="black"/>
  <path fill="none" d="M 801.00 831.00 L 847.00 751.00 L 844.00 751.00 L 824.00 752.00 L 764.00 752.00 L 744.00 772.00 L 704.00 772.00 L 684.00 752.00 L 664.00 752.00 L 660.00 752.20 L 646.00 831.00 Z" stroke-width="1" id="271-09-02" stroke="black"/>
  <path fill="none" d="M 844.00 831.00 L 864.00 830.00 L 898.00 830.00 L 934.00 761.00 L 924.00 751.00 L 847.00 751.00 L 801.00 831.00 Z" stroke-width="1" id="271-09-03" stroke="black"/>
  <path fill="none" d="M 1084.00 830.00 L 1104.00 829.00 L 1124.00 829.00 L 1128.00 837.00 L 1225.00 749.00 L 1184.00 749.00 L 1164.00 750.00 L 1064.00 750.00 L 1044.00 770.00 L 1024.00 770.00 L 1004.00 790.00 L 984.00 791.00 L 964.00 771.00 L 944.00 771.00 L 934.00 761.00 L 898.00 830.00 Z" stroke-width="1" id="271-09-04" stroke="black"/>
  <path fill="none" d="M 1144.00 869.00 L 1184.00 869.00 L 1204.00 849.00 L 1224.00 829.00 L 1324.00 829.00 L 1334.00 828.50 L 1404.00 748.00 L 1344.00 748.00 L 1324.00 749.00 L 1225.00 749.00 L 1128.00 837.00 Z" stroke-width="1" id="271-09-05" stroke="black"/>
  <path fill="none" d="M 1344.00 828.00 L 1364.00 848.00 L 1384.00 828.00 L 1480.00 828.00 L 1494.00 748.00 L 1404.00 748.00 L 1334.00 828.50 Z" stroke-width="1" id="271-09-06" stroke="black"/>
  <path fill="none" d="M 1544.00 828.00 L 1553.00 841.95 L 1610.00 747.00 L 1524.00 747.00 L 1504.00 748.00 L 1494.00 748.00 L 1480.00 828.00 Z" stroke-width="1" id="271-09-07" stroke="black"/>
  <path fill="none" d="M 1564.00 859.00 L 1584.00 861.00 L 1604.00 849.00 L 1624.00 849.00 L 1644.00 847.00 L 1664.00 827.00 L 1773.00 827.00 L 1804.00 766.00 L 1784.00 746.00 L 1704.00 746.00 L 1684.00 747.00 L 1610.00 747.00 L 1553.00 841.95 Z" stroke-width="1" id="271-09-08" stroke="black"/>
  <path fill="none" d="M 1804.00 827.00 L 1824.00 826.00 L 1879.09 826.00 L 1879.00 825.00 L 1933.00 804.00 L 1938.00 750.00 L 1941.85 745.00 L 1864.00 745.00 L 1844.00 766.00 L 1824.00 746.00 L 1804.00 766.00 L 1773.00 827.00 Z" stroke-width="1" id="271-09-09" stroke="black"/>
  <path fill="none" d="M 250.47 833.00 L 253.00 871.00 L 246.00 903.00 L 247.50 918.00 L 304.00 918.00 L 308.00 926.00 L 382.00 832.10 L 364.00 833.00 Z" stroke-width="1" id="271-10-01" stroke="black"/>
  <path fill="none" d="M 324.00 958.00 L 344.00 938.00 L 364.00 918.00 L 424.00 918.00 L 444.00 917.00 L 623.00 917.00 L 662.00 831.00 L 624.00 831.00 L 604.00 832.00 L 384.00 832.00 L 382.00 832.10 L 308.00 926.00 Z" stroke-width="1" id="271-10-02" stroke="black"/>
  <path fill="none" d="M 724.00 917.00 L 744.00 916.00 L 1004.00 916.00 L 1024.00 936.00 L 1044.00 915.00 L 1051.00 915.00 L 1059.00 830.00 L 864.00 830.00 L 844.00 831.00 L 662.00 831.00 L 623.00 917.00 Z" stroke-width="1" id="271-10-03" stroke="black"/>
  <path fill="none" d="M 1194.00 915.00 L 1208.00 845.00 L 1204.00 849.00 L 1184.00 869.00 L 1144.00 869.00 L 1124.00 829.00 L 1104.00 829.00 L 1084.00 830.00 L 1059.00 830.00 L 1051.00 915.00 Z" stroke-width="1" id="271-10-04" stroke="black"/>
  <path fill="none" d="M 1204.00 915.00 L 1224.00 935.00 L 1244.00 935.00 L 1264.00 915.00 L 1324.00 915.00 L 1344.00 914.00 L 1394.00 914.00 L 1416.00 828.00 L 1384.00 828.00 L 1364.00 848.00 L 1344.00 828.00 L 1324.00 829.00 L 1224.00 829.00 L 1208.00 845.00 L 1194.00 915.00 Z" stroke-width="1" id="271-10-05" stroke="black"/>
  <path fill="none" d="M 1527.00 914.00 L 1529.00 828.00 L 1416.00 828.00 L 1394.00 914.00 Z" stroke-width="1" id="271-10-06" stroke="black"/>
  <path fill="none" d="M 1604.00 914.00 L 1624.00 913.00 L 1685.00 913.00 L 1706.00 827.00 L 1664.00 827.00 L 1644.00 847.00 L 1624.00 849.00 L 1604.00 849.00 L 1584.00 861.00 L 1564.00 859.00 L 1544.00 828.00 L 1529.00 828.00 L 1527.00 914.00 Z" stroke-width="1" id="271-10-07" stroke="black"/>
  <path fill="none" d="M 1904.00 913.00 L 1917.33 912.33 L 1884.00 879.00 L 1879.09 826.00 L 1824.00 826.00 L 1804.00 827.00 L 1706.00 827.00 L 1685.00 913.00 Z" stroke-width="1" id="271-10-08" stroke="black"/>
  <path fill="none" d="M 247.50 918.00 L 252.00 963.00 L 232.00 988.00 L 234.00 1021.00 L 255.00 1029.00 L 255.30 1031.70 L 264.00 1023.00 L 284.00 1023.00 L 304.00 1003.00 L 324.00 1003.00 L 344.00 1002.00 L 406.00 1002.00 L 419.00 918.00 L 364.00 918.00 L 344.00 938.00 L 324.00 958.00 L 304.00 918.00 Z" stroke-width="1" id="271-11-01" stroke="black"/>
  <path fill="none" d="M 524.00 1002.00 L 544.00 1001.00 L 625.00 1001.00 L 654.00 917.00 L 444.00 917.00 L 424.00 918.00 L 419.00 918.00 L 406.00 1002.00 Z" stroke-width="1" id="271-11-02" stroke="black"/>
  <path fill="none" d="M 704.00 1001.00 L 724.00 1000.00 L 795.00 1000.00 L 804.00 916.00 L 744.00 916.00 L 724.00 917.00 L 654.00 917.00 L 625.00 1001.00 Z" stroke-width="1" id="271-11-03" stroke="black"/>
  <path fill="none" d="M 904.00 1000.00 L 924.00 999.00 L 1004.00 999.00 L 1024.00 936.00 L 1004.00 916.00 L 804.00 916.00 L 795.00 1000.00 Z" stroke-width="1" id="271-11-04" stroke="black"/>
  <path fill="none" d="M 1057.00 999.00 L 1128.00 915.00 L 1044.00 915.00 L 1024.00 936.00 L 1004.00 999.00 Z" stroke-width="1" id="271-11-05" stroke="black"/>
  <path fill="none" d="M 1084.00 999.00 L 1104.00 998.00 L 1124.00 1018.00 L 1144.00 1018.00 L 1164.00 998.00 L 1284.00 998.00 L 1304.00 997.00 L 1317.00 997.00 L 1325.00 914.95 L 1324.00 915.00 L 1264.00 915.00 L 1244.00 935.00 L 1224.00 935.00 L 1204.00 915.00 L 1128.00 915.00 L 1057.00 999.00 Z" stroke-width="1" id="271-11-06" stroke="black"/>
  <path fill="none" d="M 1464.00 997.00 L 1484.00 996.00 L 1496.00 996.00 L 1501.00 914.00 L 1344.00 914.00 L 1325.00 914.95 L 1317.00 997.00 Z" stroke-width="1" id="271-11-07" stroke="black"/>
  <path fill="none" d="M 1601.00 996.00 L 1610.00 913.70 L 1604.00 914.00 L 1501.00 914.00 L 1496.00 996.00 Z" stroke-width="1" id="271-11-08" stroke="black"/>
  <path fill="none" d="M 1664.00 996.00 L 1684.00 995.00 L 1844.00 995.00 L 1864.00 994.00 L 1964.33 994.00 L 1960.00 955.00 L 1917.33 912.33 L 1904.00 913.00 L 1624.00 913.00 L 1610.00 913.70 L 1601.00 996.00 Z" stroke-width="1" id="271-11-09" stroke="black"/>
  <path fill="none" d="M 264.00 1023.00 L 255.30 1031.70 L 258.00 1056.00 L 238.00 1072.00 L 253.00 1083.00 L 253.80 1100.00 L 324.00 1100.00 L 344.00 1120.00 L 384.00 1120.00 L 404.00 1099.00 L 438.00 1099.00 L 460.00 1002.00 L 344.00 1002.00 L 324.00 1003.00 L 304.00 1003.00 L 284.00 1023.00 Z" stroke-width="1" id="271-12-01" stroke="black"/>
  <path fill="none" d="M 544.00 1099.00 L 564.00 1119.00 L 584.00 1119.00 L 604.00 1099.00 L 644.00 1099.00 L 664.00 1098.00 L 804.00 1098.00 L 836.00 1000.00 L 724.00 1000.00 L 704.00 1001.00 L 544.00 1001.00 L 524.00 1002.00 L 460.00 1002.00 L 438.00 1099.00 Z" stroke-width="1" id="271-12-02" stroke="black"/>
  <path fill="none" d="M 904.00 1098.00 L 924.00 1097.00 L 1043.00 1097.00 L 1066.00 999.00 L 924.00 999.00 L 904.00 1000.00 L 836.00 1000.00 L 804.00 1098.00 Z" stroke-width="1" id="271-12-03" stroke="black"/>
  <path fill="none" d="M 1144.00 1097.00 L 1164.00 1096.00 L 1226.00 1096.00 L 1244.00 998.00 L 1164.00 998.00 L 1144.00 1018.00 L 1124.00 1018.00 L 1104.00 998.00 L 1084.00 999.00 L 1066.00 999.00 L 1043.00 1097.00 Z" stroke-width="1" id="271-12-04" stroke="black"/>
  <path fill="none" d="M 1404.00 1096.00 L 1423.00 1095.05 L 1459.00 997.00 L 1304.00 997.00 L 1284.00 998.00 L 1244.00 998.00 L 1226.00 1096.00 Z" stroke-width="1" id="271-12-05" stroke="black"/>
  <path fill="none" d="M 1424.00 1095.00 L 1525.00 1095.00 L 1550.00 996.00 L 1484.00 996.00 L 1464.00 997.00 L 1459.00 997.00 L 1423.00 1095.05 Z" stroke-width="1" id="271-12-06" stroke="black"/>
  <path fill="none" d="M 1604.00 1095.00 L 1624.00 1101.00 L 1704.00 1101.00 L 1724.00 1094.00 L 1778.00 1094.00 L 1801.00 995.00 L 1684.00 995.00 L 1664.00 996.00 L 1550.00 996.00 L 1525.00 1095.00 Z" stroke-width="1" id="271-12-07" stroke="black"/>
  <path fill="none" d="M 1856.00 1094.00 L 1891.33 994.00 L 1864.00 994.00 L 1844.00 995.00 L 1801.00 995.00 L 1778.00 1094.00 Z" stroke-width="1" id="271-12-08" stroke="black"/>
  <path fill="none" d="M 1924.00 1094.00 L 1926.93 1093.85 L 1927.00 1093.00 L 1972.00 1063.00 L 1964.33 994.00 L 1891.33 994.00 L 1856.00 1094.00 Z" stroke-width="1" id="271-12-09" stroke="black"/>
  <path fill="none" d="M 253.80 1100.00 L 256.00 1147.00 L 243.00 1170.00 L 243.00 1189.00 L 251.89 1197.00 L 264.00 1197.00 L 284.00 1177.00 L 433.00 1177.00 L 463.00 1099.00 L 404.00 1099.00 L 384.00 1120.00 L 344.00 1120.00 L 324.00 1100.00 Z" stroke-width="1" id="271-13-01" stroke="black"/>
  <path fill="none" d="M 464.00 1197.00 L 484.00 1216.00 L 504.00 1216.00 L 524.00 1196.00 L 544.00 1176.00 L 657.00 1176.00 L 695.00 1098.00 L 664.00 1098.00 L 644.00 1099.00 L 604.00 1099.00 L 584.00 1119.00 L 564.00 1119.00 L 544.00 1099.00 L 516.00 1099.00 L 457.00 1190.00 Z" stroke-width="1" id="271-13-02" stroke="black"/>
  <path fill="none" d="M 784.00 1176.00 L 804.00 1175.00 L 811.00 1175.00 L 837.00 1098.00 L 695.00 1098.00 L 657.00 1176.00 Z" stroke-width="1" id="271-13-03" stroke="black"/>
  <path fill="none" d="M 907.00 1175.00 L 927.00 1097.00 L 924.00 1097.00 L 904.00 1098.00 L 837.00 1098.00 L 811.00 1175.00 Z" stroke-width="1" id="271-13-04" stroke="black"/>
  <path fill="none" d="M 1104.00 1175.00 L 1124.00 1174.00 L 1226.00 1174.00 L 1257.00 1096.00 L 1164.00 1096.00 L 1144.00 1097.00 L 927.00 1097.00 L 907.00 1175.00 Z" stroke-width="1" id="271-13-05" stroke="black"/>
  <path fill="none" d="M 1389.00 1174.00 L 1442.00 1095.00 L 1424.00 1095.00 L 1404.00 1096.00 L 1257.00 1096.00 L 1226.00 1174.00 Z" stroke-width="1" id="271-13-06" stroke="black"/>
  <path fill="none" d="M 1444.00 1174.00 L 1464.00 1173.00 L 1484.00 1173.00 L 1504.00 1193.00 L 1524.00 1193.00 L 1544.00 1173.00 L 1726.00 1173.00 L 1749.00 1094.00 L 1724.00 1094.00 L 1704.00 1101.00 L 1624.00 1101.00 L 1604.00 1095.00 L 1442.00 1095.00 L 1389.00 1174.00 Z" stroke-width="1" id="271-13-07" stroke="black"/>
  <path fill="none" d="M 1764.00 1173.00 L 1784.00 1172.00 L 1957.40 1172.00 L 1923.00 1143.00 L 1926.93 1093.85 L 1924.00 1094.00 L 1749.00 1094.00 L 1726.00 1173.00 Z" stroke-width="1" id="271-13-08" stroke="black"/>
  <path fill="none" d="M 251.89 1197.00 L 253.00 1198.00 L 256.00 1227.00 L 238.00 1245.00 L 242.86 1280.00 L 264.00 1280.00 L 284.00 1260.00 L 324.00 1260.00 L 339.00 1266.75 L 411.00 1177.00 L 284.00 1177.00 L 264.00 1197.00 Z" stroke-width="1" id="271-14-01" stroke="black"/>
  <path fill="none" d="M 344.00 1269.00 L 364.00 1299.00 L 384.00 1279.00 L 404.00 1279.00 L 424.00 1260.00 L 565.00 1260.00 L 577.00 1176.00 L 544.00 1176.00 L 524.00 1196.00 L 504.00 1216.00 L 484.00 1216.00 L 464.00 1197.00 L 444.00 1177.00 L 411.00 1177.00 L 339.00 1266.75 Z" stroke-width="1" id="271-14-02" stroke="black"/>
  <path fill="none" d="M 584.00 1260.00 L 604.00 1259.00 L 824.00 1259.00 L 844.00 1279.00 L 864.00 1299.00 L 884.00 1279.00 L 904.00 1279.00 L 924.00 1259.00 L 946.00 1259.00 L 986.00 1175.00 L 804.00 1175.00 L 784.00 1176.00 L 577.00 1176.00 L 565.00 1260.00 Z" stroke-width="1" id="271-14-03" stroke="black"/>
  <path fill="none" d="M 1044.00 1259.00 L 1064.00 1258.00 L 1144.00 1258.00 L 1164.00 1298.00 L 1184.00 1278.00 L 1204.00 1278.00 L 1224.00 1258.00 L 1247.00 1258.00 L 1259.00 1174.00 L 1124.00 1174.00 L 1104.00 1175.00 L 986.00 1175.00 L 946.00 1259.00 Z" stroke-width="1" id="271-14-04" stroke="black"/>
  <path fill="none" d="M 1304.00 1258.00 L 1324.00 1278.00 L 1344.00 1258.00 L 1482.00 1258.00 L 1517.00 1193.00 L 1504.00 1193.00 L 1484.00 1173.00 L 1464.00 1173.00 L 1444.00 1174.00 L 1259.00 1174.00 L 1247.00 1258.00 Z" stroke-width="1" id="271-14-05" stroke="black"/>
  <path fill="none" d="M 1484.00 1258.00 L 1504.00 1277.00 L 1524.00 1277.00 L 1544.00 1257.00 L 1649.00 1257.00 L 1677.00 1173.00 L 1544.00 1173.00 L 1524.00 1193.00 L 1517.00 1193.00 L 1482.00 1258.00 Z" stroke-width="1" id="271-14-06" stroke="black"/>
  <path fill="none" d="M 1842.00 1257.00 L 1852.40 1172.00 L 1784.00 1172.00 L 1764.00 1173.00 L 1677.00 1173.00 L 1649.00 1257.00 Z" stroke-width="1" id="271-14-07" stroke="black"/>
  <path fill="none" d="M 1944.00 1257.00 L 1964.00 1256.00 L 1975.77 1256.00 L 1981.00 1237.00 L 1974.00 1186.00 L 1957.40 1172.00 L 1852.40 1172.00 L 1842.00 1257.00 Z" stroke-width="1" id="271-14-08" stroke="black"/>
  <path fill="none" d="M 242.86 1280.00 L 243.00 1281.00 L 259.00 1287.00 L 280.00 1305.00 L 280.00 1336.00 L 278.15 1342.00 L 304.00 1342.00 L 324.00 1362.00 L 364.00 1362.00 L 439.00 1260.00 L 424.00 1260.00 L 404.00 1279.00 L 384.00 1279.00 L 364.00 1299.00 L 344.00 1269.00 L 324.00 1260.00 L 284.00 1260.00 L 264.00 1280.00 Z" stroke-width="1" id="271-15-01" stroke="black"/>
  <path fill="none" d="M 384.00 1382.00 L 404.00 1382.00 L 424.00 1362.00 L 444.00 1342.00 L 543.00 1342.00 L 587.00 1259.85 L 584.00 1260.00 L 439.00 1260.00 L 364.00 1362.00 Z" stroke-width="1" id="271-15-02" stroke="black"/>
  <path fill="none" d="M 860.00 1342.00 L 899.00 1279.00 L 884.00 1279.00 L 864.00 1299.00 L 844.00 1279.00 L 824.00 1259.00 L 604.00 1259.00 L 587.00 1259.85 L 543.00 1342.00 Z" stroke-width="1" id="271-15-03" stroke="black"/>
  <path fill="none" d="M 1098.00 1342.00 L 1135.00 1258.00 L 1064.00 1258.00 L 1044.00 1259.00 L 924.00 1259.00 L 904.00 1279.00 L 899.00 1279.00 L 860.00 1342.00 Z" stroke-width="1" id="271-15-04" stroke="black"/>
  <path fill="none" d="M 1219.00 1342.00 L 1246.00 1258.00 L 1224.00 1258.00 L 1204.00 1278.00 L 1184.00 1278.00 L 1164.00 1298.00 L 1144.00 1258.00 L 1135.00 1258.00 L 1098.00 1342.00 Z" stroke-width="1" id="271-15-05" stroke="black"/>
  <path fill="none" d="M 1284.00 1342.00 L 1304.00 1362.00 L 1324.00 1382.00 L 1344.00 1362.00 L 1364.00 1362.00 L 1384.00 1342.00 L 1570.00 1342.00 L 1577.00 1257.00 L 1544.00 1257.00 L 1524.00 1277.00 L 1504.00 1277.00 L 1484.00 1258.00 L 1344.00 1258.00 L 1324.00 1278.00 L 1304.00 1258.00 L 1246.00 1258.00 L 1219.00 1342.00 Z" stroke-width="1" id="271-15-06" stroke="black"/>
  <path fill="none" d="M 1782.00 1342.00 L 1800.00 1257.00 L 1577.00 1257.00 L 1570.00 1342.00 Z" stroke-width="1" id="271-15-07" stroke="black"/>
  <path fill="none" d="M 1804.00 1342.00 L 1824.00 1341.00 L 1957.94 1341.00 L 1962.00 1306.00 L 1975.77 1256.00 L 1964.00 1256.00 L 1944.00 1257.00 L 1800.00 1257.00 L 1782.00 1342.00 Z" stroke-width="1" id="271-15-08" stroke="black"/>
  <path fill="none" d="M 278.15 1342.00 L 268.00 1375.00 L 246.00 1413.00 L 262.00 1426.00 L 262.00 1433.00 L 284.00 1433.00 L 304.00 1453.00 L 324.00 1433.00 L 440.00 1433.00 L 468.00 1342.00 L 444.00 1342.00 L 424.00 1362.00 L 404.00 1382.00 L 384.00 1382.00 L 364.00 1362.00 L 324.00 1362.00 L 304.00 1342.00 Z" stroke-width="1" id="271-16-01" stroke="black"/>
  <path fill="none" d="M 484.00 1433.00 L 504.00 1453.00 L 524.00 1473.00 L 544.00 1473.00 L 564.00 1453.00 L 584.00 1433.00 L 704.00 1433.00 L 724.00 1432.00 L 761.00 1432.00 L 805.00 1342.00 L 468.00 1342.00 L 440.00 1433.00 Z" stroke-width="1" id="271-16-02" stroke="black"/>
  <path fill="none" d="M 864.00 1432.00 L 884.00 1452.00 L 904.00 1452.00 L 924.00 1432.00 L 1018.00 1432.00 L 1071.00 1342.00 L 805.00 1342.00 L 761.00 1432.00 Z" stroke-width="1" id="271-16-03" stroke="black"/>
  <path fill="none" d="M 1190.00 1432.00 L 1247.00 1342.00 L 1071.00 1342.00 L 1018.00 1432.00 Z" stroke-width="1" id="271-16-04" stroke="black"/>
  <path fill="none" d="M 1284.00 1432.00 L 1304.00 1431.00 L 1321.00 1431.00 L 1336.00 1370.00 L 1324.00 1382.00 L 1304.00 1362.00 L 1284.00 1342.00 L 1247.00 1342.00 L 1190.00 1432.00 Z" stroke-width="1" id="271-16-05" stroke="black"/>
  <path fill="none" d="M 1424.00 1431.00 L 1444.00 1451.00 L 1504.00 1451.00 L 1505.00 1452.00 L 1591.00 1342.00 L 1384.00 1342.00 L 1364.00 1362.00 L 1344.00 1362.00 L 1336.00 1370.00 L 1321.00 1431.00 Z" stroke-width="1" id="271-16-06" stroke="black"/>
  <path fill="none" d="M 1524.00 1471.00 L 1544.00 1471.00 L 1564.00 1451.00 L 1584.00 1431.00 L 1696.00 1431.00 L 1715.00 1342.00 L 1591.00 1342.00 L 1505.00 1452.00 Z" stroke-width="1" id="271-16-07" stroke="black"/>
  <path fill="none" d="M 1824.00 1431.00 L 1826.94 1341.00 L 1824.00 1341.00 L 1804.00 1342.00 L 1715.00 1342.00 L 1696.00 1431.00 Z" stroke-width="1" id="271-16-08" stroke="black"/>
  <path fill="none" d="M 1844.00 1431.00 L 1864.00 1430.00 L 1942.81 1430.00 L 1954.00 1375.00 L 1957.94 1341.00 L 1826.94 1341.00 L 1824.00 1431.00 Z" stroke-width="1" id="271-16-09" stroke="black"/>
  <path fill="none" d="M 262.00 1433.00 L 262.00 1489.00 L 240.00 1503.00 L 271.00 1515.00 L 270.48 1519.00 L 427.48 1519.00 L 464.00 1433.00 L 324.00 1433.00 L 304.00 1453.00 L 284.00 1433.00 Z" stroke-width="1" id="271-17-01" stroke="black"/>
  <path fill="none" d="M 623.48 1519.00 L 630.00 1433.00 L 584.00 1433.00 L 564.00 1453.00 L 544.00 1473.00 L 524.00 1473.00 L 504.00 1453.00 L 484.00 1433.00 L 464.00 1433.00 L 427.48 1519.00 Z" stroke-width="1" id="271-17-02" stroke="black"/>
  <path fill="none" d="M 849.48 1519.00 L 889.00 1452.00 L 884.00 1452.00 L 864.00 1432.00 L 724.00 1432.00 L 704.00 1433.00 L 630.00 1433.00 L 623.48 1519.00 Z" stroke-width="1" id="271-17-03" stroke="black"/>
  <path fill="none" d="M 864.00 1519.00 L 884.00 1525.00 L 904.00 1547.00 L 906.00 1548.40 L 1038.00 1432.00 L 924.00 1432.00 L 904.00 1452.00 L 889.00 1452.00 L 849.48 1519.00 Z" stroke-width="1" id="271-17-04" stroke="black"/>
  <path fill="none" d="M 924.00 1561.00 L 944.00 1557.00 L 964.00 1539.00 L 984.00 1525.00 L 1004.00 1518.00 L 1180.00 1518.00 L 1213.00 1432.00 L 1038.00 1432.00 L 906.00 1548.40 Z" stroke-width="1" id="271-17-05" stroke="black"/>
  <path fill="none" d="M 1290.00 1518.00 L 1304.00 1431.00 L 1284.00 1432.00 L 1213.00 1432.00 L 1180.00 1518.00 Z" stroke-width="1" id="271-17-06" stroke="black"/>
  <path fill="none" d="M 1503.00 1518.00 L 1522.00 1469.00 L 1504.00 1451.00 L 1444.00 1451.00 L 1424.00 1431.00 L 1304.00 1431.00 L 1290.00 1518.00 Z" stroke-width="1" id="271-17-07" stroke="black"/>
  <path fill="none" d="M 1594.00 1518.00 L 1619.00 1431.00 L 1584.00 1431.00 L 1564.00 1451.00 L 1544.00 1471.00 L 1524.00 1471.00 L 1522.00 1469.00 L 1503.00 1518.00 Z" stroke-width="1" id="271-17-08" stroke="black"/>
  <path fill="none" d="M 1644.00 1518.00 L 1664.00 1517.00 L 1814.00 1517.00 L 1857.00 1430.35 L 1844.00 1431.00 L 1619.00 1431.00 L 1594.00 1518.00 Z" stroke-width="1" id="271-17-09" stroke="black"/>
  <path fill="none" d="M 1955.71 1517.00 L 1959.00 1489.00 L 1942.00 1434.00 L 1942.81 1430.00 L 1864.00 1430.00 L 1857.00 1430.35 L 1814.00 1517.00 Z" stroke-width="1" id="271-17-10" stroke="black"/>
  <path fill="none" d="M 270.48 1519.00 L 267.00 1546.00 L 264.00 1558.00 L 246.00 1584.00 L 268.00 1600.00 L 267.60 1607.00 L 796.60 1607.00 L 801.00 1519.00 Z" stroke-width="1" id="271-18-01" stroke="black"/>
  <path fill="none" d="M 877.60 1607.00 L 925.00 1560.80 L 924.00 1561.00 L 904.00 1547.00 L 884.00 1525.00 L 864.00 1519.00 L 801.00 1519.00 L 796.60 1607.00 Z" stroke-width="1" id="271-18-02" stroke="black"/>
  <path fill="none" d="M 884.00 1607.00 L 904.00 1627.00 L 924.00 1627.00 L 944.00 1607.00 L 1037.00 1607.00 L 1058.00 1518.00 L 1004.00 1518.00 L 984.00 1525.00 L 964.00 1539.00 L 944.00 1557.00 L 925.00 1560.80 L 877.60 1607.00 Z" stroke-width="1" id="271-18-03" stroke="black"/>
  <path fill="none" d="M 1171.00 1607.00 L 1218.00 1518.00 L 1058.00 1518.00 L 1037.00 1607.00 Z" stroke-width="1" id="271-18-04" stroke="black"/>
  <path fill="none" d="M 1304.00 1607.00 L 1324.00 1608.00 L 1344.00 1628.00 L 1364.00 1628.00 L 1384.00 1608.00 L 1394.00 1608.00 L 1424.00 1518.00 L 1218.00 1518.00 L 1171.00 1607.00 Z" stroke-width="1" id="271-18-05" stroke="black"/>
  <path fill="none" d="M 1624.00 1608.00 L 1647.00 1517.85 L 1644.00 1518.00 L 1424.00 1518.00 L 1394.00 1608.00 Z" stroke-width="1" id="271-18-06" stroke="black"/>
  <path fill="none" d="M 1644.00 1628.00 L 1664.00 1608.00 L 1693.00 1608.00 L 1781.00 1604.44 L 1782.71 1517.00 L 1664.00 1517.00 L 1647.00 1517.85 L 1624.00 1608.00 Z" stroke-width="1" id="271-18-07" stroke="black"/>
  <path fill="none" d="M 1965.00 1597.00 L 1953.00 1540.00 L 1955.71 1517.00 L 1782.71 1517.00 L 1781.00 1604.44 Z" stroke-width="1" id="271-18-08" stroke="black"/>
  <path fill="none" d="M 267.60 1607.00 L 265.00 1653.00 L 243.00 1677.00 L 267.00 1693.00 L 512.00 1693.00 L 553.00 1607.00 Z" stroke-width="1" id="271-19-01" stroke="black"/>
  <path fill="none" d="M 524.00 1693.00 L 544.00 1692.00 L 813.00 1692.00 L 853.00 1607.00 L 553.00 1607.00 L 512.00 1693.00 Z" stroke-width="1" id="271-19-02" stroke="black"/>
  <path fill="none" d="M 904.00 1692.00 L 924.00 1691.00 L 989.00 1691.00 L 1010.00 1607.00 L 944.00 1607.00 L 924.00 1627.00 L 904.00 1627.00 L 884.00 1607.00 L 853.00 1607.00 L 813.00 1692.00 Z" stroke-width="1" id="271-19-03" stroke="black"/>
  <path fill="none" d="M 1184.00 1691.00 L 1189.00 1696.00 L 1236.00 1607.00 L 1010.00 1607.00 L 989.00 1691.00 Z" stroke-width="1" id="271-19-04" stroke="black"/>
  <path fill="none" d="M 1204.00 1711.00 L 1224.00 1711.00 L 1244.00 1691.00 L 1304.00 1691.00 L 1324.00 1690.00 L 1325.00 1690.00 L 1355.00 1628.00 L 1344.00 1628.00 L 1324.00 1608.00 L 1304.00 1607.00 L 1236.00 1607.00 L 1189.00 1696.00 Z" stroke-width="1" id="271-19-05" stroke="black"/>
  <path fill="none" d="M 1466.00 1690.00 L 1492.00 1608.00 L 1384.00 1608.00 L 1364.00 1628.00 L 1355.00 1628.00 L 1325.00 1690.00 Z" stroke-width="1" id="271-19-06" stroke="black"/>
  <path fill="none" d="M 1684.00 1690.00 L 1699.77 1689.21 L 1693.00 1608.00 L 1664.00 1608.00 L 1644.00 1628.00 L 1624.00 1608.00 L 1492.00 1608.00 L 1466.00 1690.00 Z" stroke-width="1" id="271-19-07" stroke="black"/>
  <path fill="none" d="M 205.00 1779.00 L 184.00 1816.00 L 180.00 1833.00 L 178.00 1858.00 L 264.00 1865.82 L 292.00 1766.00 L 254.90 1766.00 L 255.00 1767.00 Z" stroke-width="1" id="271-21-01" stroke="black"/>
  <path fill="none" d="M 277.00 1867.00 L 387.00 1869.52 L 433.00 1765.00 L 404.00 1765.00 L 384.00 1766.00 L 292.00 1766.00 L 264.00 1865.82 Z" stroke-width="1" id="271-21-02" stroke="black"/>
  <path fill="none" d="M 495.00 1872.00 L 513.00 1891.00 L 577.00 1869.00 L 769.00 1872.00 L 770.75 1883.00 L 786.75 1883.00 L 840.00 1764.00 L 664.00 1764.00 L 644.00 1765.00 L 433.00 1765.00 L 387.00 1869.52 Z" stroke-width="1" id="271-21-03" stroke="black"/>
  <path fill="none" d="M 824.00 1883.00 L 844.00 1863.00 L 924.00 1863.00 L 944.00 1883.00 L 1011.00 1883.00 L 1072.00 1763.00 L 904.00 1763.00 L 884.00 1764.00 L 840.00 1764.00 L 786.75 1883.00 Z" stroke-width="1" id="271-21-04" stroke="black"/>
  <path fill="none" d="M 1110.00 1883.00 L 1185.00 1762.00 L 1164.00 1762.00 L 1144.00 1763.00 L 1072.00 1763.00 L 1011.00 1883.00 Z" stroke-width="1" id="271-21-05" stroke="black"/>
  <path fill="none" d="M 1256.00 1883.00 L 1287.00 1762.00 L 1185.00 1762.00 L 1110.00 1883.00 Z" stroke-width="1" id="271-21-06" stroke="black"/>
  <path fill="none" d="M 1284.00 1883.00 L 1304.00 1889.00 L 1324.00 1887.00 L 1344.00 1889.00 L 1364.00 1889.00 L 1384.00 1883.00 L 1404.00 1863.00 L 1424.00 1863.00 L 1444.00 1883.00 L 1588.00 1883.00 L 1631.00 1761.00 L 1404.00 1761.00 L 1384.00 1762.00 L 1287.00 1762.00 L 1256.00 1883.00 Z" stroke-width="1" id="271-21-07" stroke="black"/>
  <path fill="none" d="M 1624.00 1883.00 L 1644.00 1882.00 L 1664.00 1895.00 L 1684.00 1883.00 L 1704.00 1879.00 L 1724.00 1865.00 L 1744.00 1882.00 L 1979.04 1882.00 L 1980.00 1833.00 L 1954.00 1792.00 L 1770.00 1764.00 L 1765.40 1760.00 L 1664.00 1760.00 L 1644.00 1761.00 L 1631.00 1761.00 L 1588.00 1883.00 Z" stroke-width="1" id="271-21-08" stroke="black"/>
  <path fill="none" d="M 770.75 1883.00 L 780.00 1941.00 L 761.46 1953.87 L 764.00 1954.00 L 815.00 1954.00 L 878.00 1863.00 L 844.00 1863.00 L 824.00 1883.00 Z" stroke-width="1" id="271-22-01" stroke="black"/>
  <path fill="none" d="M 944.00 1954.00 L 964.00 1955.00 L 1020.00 1955.00 L 1043.00 1883.00 L 944.00 1883.00 L 924.00 1863.00 L 878.00 1863.00 L 815.00 1954.00 Z" stroke-width="1" id="271-22-02" stroke="black"/>
  <path fill="none" d="M 1144.00 1955.00 L 1164.00 1956.00 L 1340.00 1956.00 L 1357.00 1889.00 L 1344.00 1889.00 L 1324.00 1887.00 L 1304.00 1889.00 L 1284.00 1883.00 L 1043.00 1883.00 L 1020.00 1955.00 Z" stroke-width="1" id="271-22-03" stroke="black"/>
  <path fill="none" d="M 1364.00 1956.00 L 1384.00 1957.00 L 1464.00 1957.00 L 1484.00 1977.00 L 1524.00 1977.00 L 1544.00 1957.00 L 1564.00 1957.00 L 1584.00 1958.00 L 1629.00 1958.00 L 1638.00 1882.30 L 1624.00 1883.00 L 1444.00 1883.00 L 1424.00 1863.00 L 1404.00 1863.00 L 1384.00 1883.00 L 1364.00 1889.00 L 1357.00 1889.00 L 1340.00 1956.00 Z" stroke-width="1" id="271-22-04" stroke="black"/>
  <path fill="none" d="M 1764.00 1958.00 L 1784.00 1959.00 L 1844.00 1959.00 L 1864.00 1979.00 L 1884.00 1979.00 L 1904.00 1959.00 L 1964.00 1959.00 L 1984.00 1960.00 L 1978.00 1935.00 L 1979.04 1882.00 L 1744.00 1882.00 L 1724.00 1865.00 L 1704.00 1879.00 L 1684.00 1883.00 L 1664.00 1895.00 L 1644.00 1882.00 L 1638.00 1882.30 L 1629.00 1958.00 Z" stroke-width="1" id="271-22-05" stroke="black"/>
  <path fill="none" d="M 282.00 1986.00 L 252.00 2022.00 L 277.00 2032.00 L 279.04 2045.00 L 320.04 2045.00 L 347.00 1969.94 Z" stroke-width="1" id="271-23-01" stroke="black"/>
  <path fill="none" d="M 384.00 2045.00 L 404.00 2065.00 L 424.00 2066.00 L 444.00 2046.00 L 622.00 2046.00 L 630.00 1966.00 L 564.00 1966.00 L 367.00 1965.00 L 347.00 1969.94 L 320.04 2045.00 Z" stroke-width="1" id="271-23-02" stroke="black"/>
  <path fill="none" d="M 664.00 2046.00 L 684.00 2047.00 L 699.00 2047.00 L 714.00 1966.00 L 630.00 1966.00 L 622.00 2046.00 Z" stroke-width="1" id="271-23-03" stroke="black"/>
  <path fill="none" d="M 784.00 2047.00 L 804.00 2067.00 L 824.00 2047.00 L 924.00 2047.00 L 944.00 2048.00 L 1004.00 2048.00 L 1024.00 2028.00 L 1041.00 2028.00 L 1080.00 1955.00 L 964.00 1955.00 L 944.00 1954.00 L 764.00 1954.00 L 761.46 1953.87 L 744.00 1966.00 L 714.00 1966.00 L 699.00 2047.00 Z" stroke-width="1" id="271-23-04" stroke="black"/>
  <path fill="none" d="M 1044.00 2028.00 L 1064.00 2048.00 L 1104.00 2048.00 L 1124.00 2068.00 L 1184.00 2068.00 L 1204.00 2069.00 L 1224.00 2049.00 L 1270.00 2049.00 L 1307.00 1956.00 L 1164.00 1956.00 L 1144.00 1955.00 L 1080.00 1955.00 L 1041.00 2028.00 Z" stroke-width="1" id="271-23-05" stroke="black"/>
  <path fill="none" d="M 1444.00 2049.00 L 1464.00 2050.00 L 1544.00 2050.00 L 1564.00 2070.00 L 1584.00 2070.00 L 1604.00 2050.00 L 1657.00 2050.00 L 1677.00 1958.00 L 1584.00 1958.00 L 1564.00 1957.00 L 1544.00 1957.00 L 1524.00 1977.00 L 1484.00 1977.00 L 1464.00 1957.00 L 1384.00 1957.00 L 1364.00 1956.00 L 1307.00 1956.00 L 1270.00 2049.00 Z" stroke-width="1" id="271-23-06" stroke="black"/>
  <path fill="none" d="M 1704.00 2050.00 L 1724.00 2051.00 L 1818.00 2051.00 L 1864.00 1979.00 L 1844.00 1959.00 L 1784.00 1959.00 L 1764.00 1958.00 L 1677.00 1958.00 L 1657.00 2050.00 Z" stroke-width="1" id="271-23-07" stroke="black"/>
  <path fill="none" d="M 1844.00 2051.00 L 1864.00 2071.00 L 1884.00 2051.00 L 1964.00 2051.00 L 1984.00 2052.00 L 1988.86 2052.00 L 1987.00 2043.00 L 1996.00 2010.00 L 1984.00 1960.00 L 1964.00 1959.00 L 1904.00 1959.00 L 1884.00 1979.00 L 1864.00 1979.00 L 1818.00 2051.00 Z" stroke-width="1" id="271-23-08" stroke="black"/>
  <path fill="none" d="M 279.04 2045.00 L 285.00 2083.00 L 261.00 2119.00 L 259.00 2140.00 L 272.09 2148.00 L 284.00 2148.00 L 304.00 2128.00 L 442.00 2128.00 L 477.00 2046.00 L 444.00 2046.00 L 424.00 2066.00 L 404.00 2065.00 L 384.00 2045.00 Z" stroke-width="1" id="271-24-01" stroke="black"/>
  <path fill="none" d="M 564.00 2128.00 L 584.00 2129.00 L 658.00 2129.00 L 674.00 2046.50 L 664.00 2046.00 L 477.00 2046.00 L 442.00 2128.00 Z" stroke-width="1" id="271-24-02" stroke="black"/>
  <path fill="none" d="M 901.00 2129.00 L 951.00 2048.00 L 944.00 2048.00 L 924.00 2047.00 L 824.00 2047.00 L 804.00 2067.00 L 784.00 2047.00 L 684.00 2047.00 L 674.00 2046.50 L 658.00 2129.00 Z" stroke-width="1" id="271-24-03" stroke="black"/>
  <path fill="none" d="M 959.00 2129.00 L 1053.00 2037.00 L 1044.00 2028.00 L 1024.00 2028.00 L 1004.00 2048.00 L 951.00 2048.00 L 901.00 2129.00 Z" stroke-width="1" id="271-24-04" stroke="black"/>
  <path fill="none" d="M 984.00 2129.00 L 1004.00 2130.00 L 1024.00 2130.00 L 1044.00 2150.00 L 1064.00 2150.00 L 1084.00 2130.00 L 1184.00 2130.00 L 1192.00 2146.00 L 1285.00 2049.00 L 1224.00 2049.00 L 1204.00 2069.00 L 1184.00 2068.00 L 1124.00 2068.00 L 1104.00 2048.00 L 1064.00 2048.00 L 1053.00 2037.00 L 959.00 2129.00 Z" stroke-width="1" id="271-24-05" stroke="black"/>
  <path fill="none" d="M 1204.00 2170.00 L 1224.00 2170.00 L 1244.00 2150.00 L 1264.00 2150.00 L 1284.00 2130.00 L 1396.00 2130.00 L 1408.00 2049.00 L 1285.00 2049.00 L 1192.00 2146.00 Z" stroke-width="1" id="271-24-06" stroke="black"/>
  <path fill="none" d="M 1404.00 2130.00 L 1424.00 2131.00 L 1579.00 2131.00 L 1617.00 2050.00 L 1604.00 2050.00 L 1584.00 2070.00 L 1564.00 2070.00 L 1544.00 2050.00 L 1464.00 2050.00 L 1444.00 2049.00 L 1408.00 2049.00 L 1396.00 2130.00 Z" stroke-width="1" id="271-24-07" stroke="black"/>
  <path fill="none" d="M 1704.00 2131.00 L 1722.00 2050.90 L 1704.00 2050.00 L 1617.00 2050.00 L 1579.00 2131.00 Z" stroke-width="1" id="271-24-08" stroke="black"/>
  <path fill="none" d="M 1824.00 2131.00 L 1844.00 2132.00 L 1975.07 2132.00 L 1975.00 2131.00 L 1999.00 2101.00 L 1988.86 2052.00 L 1984.00 2052.00 L 1964.00 2051.00 L 1884.00 2051.00 L 1864.00 2071.00 L 1844.00 2051.00 L 1724.00 2051.00 L 1722.00 2050.90 L 1704.00 2131.00 Z" stroke-width="1" id="271-24-09" stroke="black"/>
  <path fill="none" d="M 272.09 2148.00 L 277.00 2151.00 L 282.00 2173.00 L 262.00 2193.00 L 285.00 2203.00 L 284.64 2213.00 L 304.00 2213.00 L 324.00 2193.00 L 344.00 2253.00 L 364.00 2253.00 L 384.00 2233.00 L 404.00 2234.00 L 424.00 2214.00 L 445.00 2214.00 L 484.00 2128.00 L 304.00 2128.00 L 284.00 2148.00 Z" stroke-width="1" id="271-25-01" stroke="black"/>
  <path fill="none" d="M 564.00 2214.00 L 584.00 2234.00 L 604.00 2214.00 L 644.00 2214.00 L 664.00 2215.00 L 795.00 2215.00 L 837.00 2129.00 L 584.00 2129.00 L 564.00 2128.00 L 484.00 2128.00 L 445.00 2214.00 Z" stroke-width="1" id="271-25-02" stroke="black"/>
  <path fill="none" d="M 904.00 2215.00 L 924.00 2216.00 L 1039.00 2216.00 L 1061.00 2150.00 L 1044.00 2150.00 L 1024.00 2130.00 L 1004.00 2130.00 L 984.00 2129.00 L 837.00 2129.00 L 795.00 2215.00 Z" stroke-width="1" id="271-25-03" stroke="black"/>
  <path fill="none" d="M 1164.00 2216.00 L 1184.00 2217.00 L 1192.00 2217.00 L 1219.00 2170.00 L 1204.00 2170.00 L 1184.00 2130.00 L 1084.00 2130.00 L 1064.00 2150.00 L 1061.00 2150.00 L 1039.00 2216.00 Z" stroke-width="1" id="271-25-04" stroke="black"/>
  <path fill="none" d="M 1283.00 2217.00 L 1304.00 2130.00 L 1284.00 2130.00 L 1264.00 2150.00 L 1244.00 2150.00 L 1224.00 2170.00 L 1219.00 2170.00 L 1192.00 2217.00 Z" stroke-width="1" id="271-25-05" stroke="black"/>
  <path fill="none" d="M 1368.00 2217.00 L 1395.00 2130.00 L 1304.00 2130.00 L 1283.00 2217.00 Z" stroke-width="1" id="271-25-06" stroke="black"/>
  <path fill="none" d="M 1424.00 2217.00 L 1444.00 2218.00 L 1675.00 2218.00 L 1707.00 2131.00 L 1424.00 2131.00 L 1404.00 2130.00 L 1395.00 2130.00 L 1368.00 2217.00 Z" stroke-width="1" id="271-25-07" stroke="black"/>
  <path fill="none" d="M 1684.00 2218.00 L 1704.00 2219.00 L 1816.00 2219.00 L 1885.07 2132.00 L 1844.00 2132.00 L 1824.00 2131.00 L 1707.00 2131.00 L 1675.00 2218.00 Z" stroke-width="1" id="271-25-08" stroke="black"/>
  <path fill="none" d="M 1904.00 2219.00 L 1924.00 2199.00 L 1944.00 2219.00 L 1964.00 2220.00 L 1970.14 2220.00 L 1978.00 2175.00 L 1975.07 2132.00 L 1885.07 2132.00 L 1816.00 2219.00 Z" stroke-width="1" id="271-25-09" stroke="black"/>
  <path fill="none" d="M 284.64 2213.00 L 283.00 2259.00 L 265.00 2271.00 L 264.00 2304.00 L 285.00 2311.00 L 285.04 2314.96 L 304.00 2296.00 L 359.00 2296.00 L 379.00 2238.00 L 364.00 2253.00 L 344.00 2253.00 L 324.00 2193.00 L 304.00 2213.00 Z" stroke-width="1" id="271-26-01" stroke="black"/>
  <path fill="none" d="M 484.00 2296.00 L 495.00 2296.55 L 514.00 2214.00 L 424.00 2214.00 L 404.00 2234.00 L 384.00 2233.00 L 379.00 2238.00 L 359.00 2296.00 Z" stroke-width="1" id="271-26-02" stroke="black"/>
  <path fill="none" d="M 504.00 2297.00 L 784.00 2297.00 L 804.00 2277.00 L 824.00 2317.00 L 844.00 2318.00 L 864.00 2298.00 L 903.00 2298.00 L 943.00 2216.00 L 924.00 2216.00 L 904.00 2215.00 L 664.00 2215.00 L 644.00 2214.00 L 604.00 2214.00 L 584.00 2234.00 L 564.00 2214.00 L 514.00 2214.00 L 495.00 2296.55 Z" stroke-width="1" id="271-26-03" stroke="black"/>
  <path fill="none" d="M 1124.00 2298.00 L 1144.00 2318.00 L 1164.00 2318.00 L 1184.00 2298.00 L 1202.00 2298.90 L 1221.00 2217.00 L 1184.00 2217.00 L 1164.00 2216.00 L 943.00 2216.00 L 903.00 2298.00 Z" stroke-width="1" id="271-26-04" stroke="black"/>
  <path fill="none" d="M 1204.00 2299.00 L 1264.00 2299.00 L 1284.00 2319.00 L 1304.00 2299.00 L 1439.00 2299.00 L 1456.00 2218.00 L 1444.00 2218.00 L 1424.00 2217.00 L 1221.00 2217.00 L 1202.00 2298.90 Z" stroke-width="1" id="271-26-05" stroke="black"/>
  <path fill="none" d="M 1524.00 2299.00 L 1544.00 2300.00 L 1559.00 2300.00 L 1600.00 2218.00 L 1456.00 2218.00 L 1439.00 2299.00 Z" stroke-width="1" id="271-26-06" stroke="black"/>
  <path fill="none" d="M 1764.00 2300.00 L 1832.00 2219.00 L 1704.00 2219.00 L 1684.00 2218.00 L 1600.00 2218.00 L 1559.00 2300.00 Z" stroke-width="1" id="271-26-07" stroke="black"/>
  <path fill="none" d="M 1784.00 2320.00 L 1804.00 2320.00 L 1824.00 2300.00 L 1884.00 2300.00 L 1904.00 2301.00 L 1954.79 2301.00 L 1960.00 2278.00 L 1970.14 2220.00 L 1964.00 2220.00 L 1944.00 2219.00 L 1924.00 2199.00 L 1904.00 2219.00 L 1832.00 2219.00 L 1764.00 2300.00 Z" stroke-width="1" id="271-26-08" stroke="black"/>
  <path fill="none" d="M 384.00 2427.00 L 404.00 2413.00 L 424.00 2409.00 L 444.00 2409.00 L 464.00 2379.00 L 563.00 2379.00 L 605.00 2297.00 L 504.00 2297.00 L 484.00 2296.00 L 436.00 2296.00 L 364.00 2375.00 Z" stroke-width="1" id="271-27-01" stroke="black"/>
  <path fill="none" d="M 604.00 2379.00 L 624.00 2380.00 L 706.00 2380.00 L 727.00 2297.00 L 605.00 2297.00 L 563.00 2379.00 Z" stroke-width="1" id="271-27-02" stroke="black"/>
  <path fill="none" d="M 764.00 2380.00 L 784.00 2381.00 L 824.00 2381.00 L 844.00 2401.00 L 864.00 2421.00 L 884.00 2421.00 L 904.00 2401.00 L 924.00 2381.00 L 943.00 2381.95 L 981.00 2298.00 L 864.00 2298.00 L 844.00 2318.00 L 824.00 2317.00 L 804.00 2277.00 L 784.00 2297.00 L 727.00 2297.00 L 706.00 2380.00 Z" stroke-width="1" id="271-27-03" stroke="black"/>
  <path fill="none" d="M 944.00 2382.00 L 1064.00 2382.00 L 1084.00 2383.00 L 1184.00 2383.00 L 1195.00 2394.00 L 1274.00 2309.00 L 1264.00 2299.00 L 1204.00 2299.00 L 1184.00 2298.00 L 1164.00 2318.00 L 1144.00 2318.00 L 1124.00 2298.00 L 981.00 2298.00 L 943.00 2381.95 Z" stroke-width="1" id="271-27-04" stroke="black"/>
  <path fill="none" d="M 1204.00 2403.00 L 1224.00 2403.00 L 1244.00 2404.00 L 1264.00 2384.00 L 1384.00 2384.00 L 1404.00 2385.00 L 1544.00 2385.00 L 1564.00 2386.00 L 1584.00 2386.00 L 1604.00 2406.00 L 1624.00 2406.00 L 1644.00 2386.00 L 1667.00 2386.00 L 1687.00 2300.00 L 1544.00 2300.00 L 1524.00 2299.00 L 1304.00 2299.00 L 1284.00 2319.00 L 1274.00 2309.00 L 1195.00 2394.00 Z" stroke-width="1" id="271-27-05" stroke="black"/>
  <path fill="none" d="M 1704.00 2386.00 L 1724.00 2387.00 L 1746.00 2387.00 L 1784.00 2320.00 L 1764.00 2300.00 L 1687.00 2300.00 L 1667.00 2386.00 Z" stroke-width="1" id="271-27-06" stroke="black"/>
  <path fill="none" d="M 1830.00 2387.00 L 1861.00 2300.00 L 1824.00 2300.00 L 1804.00 2320.00 L 1784.00 2320.00 L 1746.00 2387.00 Z" stroke-width="1" id="271-27-07" stroke="black"/>
  <path fill="none" d="M 1844.00 2387.00 L 1864.00 2388.00 L 1965.35 2388.00 L 1948.00 2331.00 L 1954.79 2301.00 L 1904.00 2301.00 L 1884.00 2300.00 L 1861.00 2300.00 L 1830.00 2387.00 Z" stroke-width="1" id="271-27-08" stroke="black"/>
  <path fill="none" d="M 285.61 2377.08 L 286.00 2419.00 L 268.00 2448.00 L 287.60 2462.00 L 344.00 2462.00 L 361.00 2479.00 L 411.00 2411.60 L 404.00 2413.00 L 384.00 2427.00 L 364.00 2375.00 L 344.00 2375.00 L 324.00 2378.00 L 304.00 2378.00 Z" stroke-width="1" id="271-28-01" stroke="black"/>
  <path fill="none" d="M 364.00 2482.00 L 384.00 2502.00 L 404.00 2482.00 L 424.00 2463.00 L 544.00 2463.00 L 564.00 2464.00 L 608.00 2464.00 L 639.00 2380.00 L 624.00 2380.00 L 604.00 2379.00 L 464.00 2379.00 L 444.00 2409.00 L 424.00 2409.00 L 411.00 2411.60 L 361.00 2479.00 Z" stroke-width="1" id="271-28-02" stroke="black"/>
  <path fill="none" d="M 684.00 2464.00 L 704.00 2465.00 L 724.00 2465.00 L 744.00 2445.00 L 764.00 2465.00 L 788.00 2465.00 L 841.00 2398.00 L 824.00 2381.00 L 784.00 2381.00 L 764.00 2380.00 L 639.00 2380.00 L 608.00 2464.00 Z" stroke-width="1" id="271-28-03" stroke="black"/>
  <path fill="none" d="M 824.00 2465.00 L 844.00 2466.00 L 964.00 2466.00 L 984.00 2467.00 L 1013.00 2467.00 L 1047.00 2382.00 L 944.00 2382.00 L 924.00 2381.00 L 904.00 2401.00 L 884.00 2421.00 L 864.00 2421.00 L 844.00 2401.00 L 841.00 2398.00 L 788.00 2465.00 Z" stroke-width="1" id="271-28-04" stroke="black"/>
  <path fill="none" d="M 1104.00 2467.00 L 1124.00 2468.00 L 1164.00 2468.00 L 1184.00 2488.00 L 1185.00 2489.00 L 1284.00 2384.00 L 1264.00 2384.00 L 1244.00 2404.00 L 1224.00 2403.00 L 1204.00 2403.00 L 1184.00 2383.00 L 1084.00 2383.00 L 1064.00 2382.00 L 1047.00 2382.00 L 1013.00 2467.00 Z" stroke-width="1" id="271-28-05" stroke="black"/>
  <path fill="none" d="M 1204.00 2508.00 L 1224.00 2508.00 L 1244.00 2488.00 L 1264.00 2469.00 L 1384.00 2469.00 L 1393.00 2469.45 L 1408.00 2385.00 L 1404.00 2385.00 L 1384.00 2384.00 L 1284.00 2384.00 L 1185.00 2489.00 Z" stroke-width="1" id="271-28-06" stroke="black"/>
  <path fill="none" d="M 1404.00 2470.00 L 1524.00 2470.00 L 1544.00 2471.00 L 1564.00 2491.00 L 1584.00 2491.00 L 1604.00 2471.00 L 1613.00 2406.00 L 1604.00 2406.00 L 1584.00 2386.00 L 1564.00 2386.00 L 1544.00 2385.00 L 1408.00 2385.00 L 1393.00 2469.45 Z" stroke-width="1" id="271-28-07" stroke="black"/>
  <path fill="none" d="M 1664.00 2471.00 L 1684.00 2472.00 L 1692.00 2472.00 L 1698.00 2386.00 L 1644.00 2386.00 L 1624.00 2406.00 L 1613.00 2406.00 L 1604.00 2471.00 Z" stroke-width="1" id="271-28-08" stroke="black"/>
  <path fill="none" d="M 1804.00 2472.00 L 1824.00 2473.00 L 1827.00 2473.00 L 1853.00 2387.45 L 1844.00 2387.00 L 1724.00 2387.00 L 1704.00 2386.00 L 1698.00 2386.00 L 1692.00 2472.00 Z" stroke-width="1" id="271-28-09" stroke="black"/>
  <path fill="none" d="M 1944.00 2473.00 L 1964.00 2474.00 L 1990.28 2474.00 L 1983.00 2446.00 L 1965.35 2388.00 L 1864.00 2388.00 L 1853.00 2387.45 L 1827.00 2473.00 Z" stroke-width="1" id="271-28-10" stroke="black"/>
  <path fill="none" d="M 287.60 2462.00 L 289.00 2463.00 L 289.00 2506.00 L 271.00 2529.00 L 291.00 2548.00 L 291.80 2558.39 L 304.00 2559.00 L 384.00 2559.00 L 391.00 2566.00 L 449.00 2463.00 L 424.00 2463.00 L 404.00 2482.00 L 384.00 2502.00 L 364.00 2482.00 L 344.00 2462.00 Z" stroke-width="1" id="271-29-01" stroke="black"/>
  <path fill="none" d="M 404.00 2579.00 L 424.00 2579.00 L 444.00 2580.00 L 464.00 2560.00 L 500.00 2560.00 L 535.00 2463.00 L 449.00 2463.00 L 391.00 2566.00 Z" stroke-width="1" id="271-29-02" stroke="black"/>
  <path fill="none" d="M 564.00 2560.00 L 584.00 2561.00 L 623.00 2561.00 L 672.00 2464.00 L 564.00 2464.00 L 544.00 2463.00 L 535.00 2463.00 L 500.00 2560.00 Z" stroke-width="1" id="271-29-03" stroke="black"/>
  <path fill="none" d="M 701.00 2561.00 L 761.00 2462.00 L 744.00 2445.00 L 724.00 2465.00 L 704.00 2465.00 L 684.00 2464.00 L 672.00 2464.00 L 623.00 2561.00 Z" stroke-width="1" id="271-29-04" stroke="black"/>
  <path fill="none" d="M 704.00 2561.00 L 724.00 2562.00 L 767.00 2562.00 L 843.00 2465.95 L 824.00 2465.00 L 764.00 2465.00 L 761.00 2462.00 L 701.00 2561.00 Z" stroke-width="1" id="271-29-05" stroke="black"/>
  <path fill="none" d="M 864.00 2562.00 L 884.00 2543.00 L 904.00 2543.00 L 924.00 2563.00 L 1004.00 2563.00 L 1024.00 2564.00 L 1144.00 2564.00 L 1164.00 2565.00 L 1208.00 2565.00 L 1210.00 2508.00 L 1204.00 2508.00 L 1184.00 2488.00 L 1164.00 2468.00 L 1124.00 2468.00 L 1104.00 2467.00 L 984.00 2467.00 L 964.00 2466.00 L 844.00 2466.00 L 843.00 2465.95 L 767.00 2562.00 Z" stroke-width="1" id="271-29-06" stroke="black"/>
  <path fill="none" d="M 1304.00 2586.00 L 1364.00 2586.00 L 1384.00 2566.00 L 1424.00 2566.00 L 1444.00 2567.00 L 1535.00 2567.00 L 1565.00 2491.00 L 1564.00 2491.00 L 1544.00 2471.00 L 1524.00 2470.00 L 1404.00 2470.00 L 1389.00 2469.25 L 1292.00 2573.40 Z" stroke-width="1" id="271-29-07" stroke="black"/>
  <path fill="none" d="M 1584.00 2567.00 L 1604.00 2568.00 L 1715.00 2568.00 L 1733.00 2472.00 L 1684.00 2472.00 L 1664.00 2471.00 L 1604.00 2471.00 L 1584.00 2491.00 L 1565.00 2491.00 L 1535.00 2567.00 Z" stroke-width="1" id="271-29-08" stroke="black"/>
  <path fill="none" d="M 1724.00 2568.00 L 1744.00 2569.00 L 1864.00 2569.00 L 1884.00 2570.00 L 1978.89 2570.00 L 2010.00 2541.00 L 1996.00 2496.00 L 1990.28 2474.00 L 1964.00 2474.00 L 1944.00 2473.00 L 1824.00 2473.00 L 1804.00 2472.00 L 1733.00 2472.00 L 1715.00 2568.00 Z" stroke-width="1" id="271-29-09" stroke="black"/>
  <path fill="none" d="M 291.80 2558.39 L 294.00 2587.00 L 279.00 2616.00 L 292.00 2631.00 L 292.00 2637.00 L 344.00 2637.00 L 364.00 2638.00 L 443.00 2638.00 L 478.00 2560.00 L 464.00 2560.00 L 444.00 2580.00 L 424.00 2579.00 L 404.00 2579.00 L 384.00 2559.00 L 304.00 2559.00 Z" stroke-width="1" id="271-30-01" stroke="black"/>
  <path fill="none" d="M 444.00 2638.00 L 464.00 2639.00 L 542.00 2639.00 L 588.00 2561.00 L 584.00 2561.00 L 564.00 2560.00 L 478.00 2560.00 L 443.00 2638.00 Z" stroke-width="1" id="271-30-02" stroke="black"/>
  <path fill="none" d="M 564.00 2639.00 L 584.00 2640.00 L 664.00 2640.00 L 684.00 2641.00 L 764.00 2641.00 L 781.00 2641.85 L 815.00 2562.00 L 724.00 2562.00 L 704.00 2561.00 L 588.00 2561.00 L 542.00 2639.00 Z" stroke-width="1" id="271-30-03" stroke="black"/>
  <path fill="none" d="M 784.00 2642.00 L 864.00 2642.00 L 884.00 2643.00 L 924.00 2643.00 L 929.00 2653.00 L 1005.00 2563.05 L 1004.00 2563.00 L 924.00 2563.00 L 904.00 2543.00 L 884.00 2543.00 L 864.00 2562.00 L 815.00 2562.00 L 781.00 2641.85 Z" stroke-width="1" id="271-30-04" stroke="black"/>
  <path fill="none" d="M 944.00 2683.00 L 964.00 2683.00 L 984.00 2663.00 L 1004.00 2644.00 L 1084.00 2644.00 L 1104.00 2645.00 L 1144.00 2645.00 L 1164.00 2665.00 L 1184.00 2665.00 L 1204.00 2666.00 L 1224.00 2646.00 L 1237.00 2646.00 L 1280.00 2565.00 L 1264.00 2565.00 L 1244.00 2545.00 L 1224.00 2565.00 L 1164.00 2565.00 L 1144.00 2564.00 L 1024.00 2564.00 L 1005.00 2563.05 L 929.00 2653.00 Z" stroke-width="1" id="271-30-05" stroke="black"/>
  <path fill="none" d="M 1284.00 2646.00 L 1304.00 2627.00 L 1324.00 2667.00 L 1344.00 2647.00 L 1404.00 2647.00 L 1424.00 2648.00 L 1504.00 2648.00 L 1524.00 2649.00 L 1604.00 2649.00 L 1615.00 2649.55 L 1659.00 2568.00 L 1604.00 2568.00 L 1584.00 2567.00 L 1444.00 2567.00 L 1424.00 2566.00 L 1384.00 2566.00 L 1364.00 2586.00 L 1304.00 2586.00 L 1284.00 2565.00 L 1280.00 2565.00 L 1237.00 2646.00 Z" stroke-width="1" id="271-30-06" stroke="black"/>
  <path fill="none" d="M 1624.00 2650.00 L 1704.00 2650.00 L 1724.00 2651.00 L 1786.00 2651.00 L 1789.00 2569.00 L 1744.00 2569.00 L 1724.00 2568.00 L 1659.00 2568.00 L 1615.00 2649.55 Z" stroke-width="1" id="271-30-07" stroke="black"/>
  <path fill="none" d="M 1824.00 2651.00 L 1844.00 2652.00 L 1875.00 2652.00 L 1890.89 2570.00 L 1884.00 2570.00 L 1864.00 2569.00 L 1789.00 2569.00 L 1786.00 2651.00 Z" stroke-width="1" id="271-30-08" stroke="black"/>
  <path fill="none" d="M 1924.00 2652.00 L 1944.00 2653.00 L 1946.93 2653.00 L 1951.00 2596.00 L 1978.89 2570.00 L 1890.89 2570.00 L 1875.00 2652.00 Z" stroke-width="1" id="271-30-09" stroke="black"/>
  <path fill="none" d="M 292.00 2637.00 L 292.00 2685.00 L 273.00 2706.00 L 297.00 2718.00 L 296.33 2734.00 L 324.00 2734.00 L 344.00 2735.00 L 404.00 2735.00 L 424.00 2756.00 L 444.00 2736.00 L 504.00 2736.00 L 524.00 2737.00 L 604.00 2737.00 L 624.00 2738.00 L 637.00 2738.00 L 650.00 2640.00 L 584.00 2640.00 L 564.00 2639.00 L 464.00 2639.00 L 444.00 2638.00 L 364.00 2638.00 L 344.00 2637.00 Z" stroke-width="1" id="271-31-01" stroke="black"/>
  <path fill="none" d="M 684.00 2738.00 L 704.00 2739.00 L 722.00 2739.00 L 734.00 2641.00 L 684.00 2641.00 L 664.00 2640.00 L 650.00 2640.00 L 637.00 2738.00 Z" stroke-width="1" id="271-31-02" stroke="black"/>
  <path fill="none" d="M 784.00 2739.00 L 804.00 2740.00 L 824.00 2740.00 L 844.00 2760.00 L 864.00 2760.00 L 884.00 2740.00 L 904.00 2741.00 L 923.00 2741.00 L 947.00 2683.00 L 944.00 2683.00 L 924.00 2643.00 L 884.00 2643.00 L 864.00 2642.00 L 784.00 2642.00 L 764.00 2641.00 L 734.00 2641.00 L 722.00 2739.00 Z" stroke-width="1" id="271-31-03" stroke="black"/>
  <path fill="none" d="M 964.00 2741.00 L 984.00 2742.00 L 1050.00 2742.00 L 1070.00 2644.00 L 1004.00 2644.00 L 984.00 2663.00 L 964.00 2683.00 L 947.00 2683.00 L 923.00 2741.00 Z" stroke-width="1" id="271-31-04" stroke="black"/>
  <path fill="none" d="M 1064.00 2742.00 L 1084.00 2743.00 L 1164.00 2743.00 L 1184.00 2744.00 L 1244.00 2744.00 L 1264.00 2745.00 L 1276.00 2745.00 L 1314.00 2647.00 L 1304.00 2627.00 L 1284.00 2646.00 L 1224.00 2646.00 L 1204.00 2666.00 L 1184.00 2665.00 L 1164.00 2665.00 L 1144.00 2645.00 L 1104.00 2645.00 L 1084.00 2644.00 L 1070.00 2644.00 L 1050.00 2742.00 Z" stroke-width="1" id="271-31-05" stroke="black"/>
  <path fill="none" d="M 1344.00 2745.00 L 1364.00 2746.00 L 1380.00 2746.00 L 1403.00 2647.00 L 1344.00 2647.00 L 1324.00 2667.00 L 1314.00 2647.00 L 1276.00 2745.00 Z" stroke-width="1" id="271-31-06" stroke="black"/>
  <path fill="none" d="M 1424.00 2746.00 L 1444.00 2766.00 L 1464.00 2747.00 L 1484.00 2767.00 L 1504.00 2747.00 L 1524.00 2747.00 L 1527.00 2747.15 L 1567.00 2649.00 L 1524.00 2649.00 L 1504.00 2648.00 L 1424.00 2648.00 L 1404.00 2647.00 L 1403.00 2647.00 L 1380.00 2746.00 Z" stroke-width="1" id="271-31-07" stroke="black"/>
  <path fill="none" d="M 1544.00 2748.00 L 1564.00 2748.00 L 1584.00 2728.00 L 1604.00 2748.00 L 1624.00 2748.00 L 1644.00 2749.00 L 1664.00 2749.00 L 1684.00 2729.00 L 1724.00 2729.00 L 1744.00 2750.00 L 1784.00 2750.00 L 1797.00 2651.00 L 1724.00 2651.00 L 1704.00 2650.00 L 1624.00 2650.00 L 1604.00 2649.00 L 1567.00 2649.00 L 1527.00 2747.15 Z" stroke-width="1" id="271-31-08" stroke="black"/>
  <path fill="none" d="M 1804.00 2750.00 L 1824.00 2751.00 L 1846.00 2751.00 L 1864.00 2652.00 L 1844.00 2652.00 L 1824.00 2651.00 L 1797.00 2651.00 L 1784.00 2750.00 Z" stroke-width="1" id="271-31-09" stroke="black"/>
  <path fill="none" d="M 1904.00 2751.00 L 1924.00 2752.00 L 1964.47 2752.00 L 1944.00 2694.00 L 1946.93 2653.00 L 1944.00 2653.00 L 1924.00 2652.00 L 1864.00 2652.00 L 1846.00 2751.00 Z" stroke-width="1" id="271-31-10" stroke="black"/>
  <path fill="none" d="M 296.33 2734.00 L 295.00 2766.00 L 274.00 2784.00 L 295.00 2800.00 L 295.76 2817.00 L 344.00 2817.00 L 364.00 2818.00 L 444.00 2818.00 L 464.00 2819.00 L 465.00 2820.10 L 532.00 2737.00 L 524.00 2737.00 L 504.00 2736.00 L 444.00 2736.00 L 424.00 2756.00 L 404.00 2735.00 L 344.00 2735.00 L 324.00 2734.00 Z" stroke-width="1" id="271-32-01" stroke="black"/>
  <path fill="none" d="M 484.00 2841.00 L 504.00 2837.00 L 524.00 2829.00 L 544.00 2825.00 L 564.00 2820.00 L 644.00 2820.00 L 656.00 2820.60 L 714.00 2739.00 L 704.00 2739.00 L 684.00 2738.00 L 624.00 2738.00 L 604.00 2737.00 L 532.00 2737.00 L 465.00 2820.10 Z" stroke-width="1" id="271-32-02" stroke="black"/>
  <path fill="none" d="M 664.00 2821.00 L 744.00 2821.00 L 764.00 2842.00 L 784.00 2822.00 L 829.00 2822.00 L 864.00 2760.00 L 844.00 2760.00 L 824.00 2740.00 L 804.00 2740.00 L 784.00 2739.00 L 714.00 2739.00 L 656.00 2820.60 Z" stroke-width="1" id="271-32-03" stroke="black"/>
  <path fill="none" d="M 844.00 2822.00 L 864.00 2823.00 L 931.00 2823.00 L 951.00 2741.00 L 904.00 2741.00 L 884.00 2740.00 L 864.00 2760.00 L 829.00 2822.00 Z" stroke-width="1" id="271-32-04" stroke="black"/>
  <path fill="none" d="M 944.00 2823.00 L 964.00 2824.00 L 1044.00 2824.00 L 1064.00 2825.00 L 1100.00 2825.00 L 1151.00 2743.00 L 1084.00 2743.00 L 1064.00 2742.00 L 984.00 2742.00 L 964.00 2741.00 L 951.00 2741.00 L 931.00 2823.00 Z" stroke-width="1" id="271-32-05" stroke="black"/>
  <path fill="none" d="M 1144.00 2825.00 L 1164.00 2846.00 L 1184.00 2846.00 L 1204.00 2826.00 L 1244.00 2826.00 L 1264.00 2827.00 L 1344.00 2827.00 L 1364.00 2828.00 L 1384.00 2808.00 L 1393.00 2817.00 L 1432.00 2754.00 L 1424.00 2746.00 L 1364.00 2746.00 L 1344.00 2745.00 L 1264.00 2745.00 L 1244.00 2744.00 L 1184.00 2744.00 L 1164.00 2743.00 L 1151.00 2743.00 L 1100.00 2825.00 Z" stroke-width="1" id="271-32-06" stroke="black"/>
  <path fill="none" d="M 1404.00 2828.00 L 1444.00 2828.00 L 1464.00 2829.00 L 1469.00 2829.00 L 1515.00 2747.00 L 1504.00 2747.00 L 1484.00 2767.00 L 1464.00 2747.00 L 1444.00 2766.00 L 1432.00 2754.00 L 1393.00 2817.00 Z" stroke-width="1" id="271-32-07" stroke="black"/>
  <path fill="none" d="M 1544.00 2829.00 L 1564.00 2830.00 L 1608.00 2830.00 L 1613.00 2748.00 L 1604.00 2748.00 L 1584.00 2728.00 L 1564.00 2748.00 L 1544.00 2748.00 L 1524.00 2747.00 L 1515.00 2747.00 L 1469.00 2829.00 Z" stroke-width="1" id="271-32-08" stroke="black"/>
  <path fill="none" d="M 1644.00 2830.00 L 1664.00 2831.00 L 1744.00 2831.00 L 1764.00 2832.00 L 1828.00 2832.00 L 1827.00 2751.00 L 1824.00 2751.00 L 1804.00 2750.00 L 1744.00 2750.00 L 1724.00 2729.00 L 1684.00 2729.00 L 1664.00 2749.00 L 1644.00 2749.00 L 1624.00 2748.00 L 1613.00 2748.00 L 1608.00 2830.00 Z" stroke-width="1" id="271-32-09" stroke="black"/>
  <path fill="none" d="M 1844.00 2832.00 L 1864.00 2833.00 L 1884.00 2813.00 L 1938.47 2752.00 L 1924.00 2752.00 L 1904.00 2751.00 L 1827.00 2751.00 L 1828.00 2832.00 Z" stroke-width="1" id="271-32-10" stroke="black"/>
  <path fill="none" d="M 1924.00 2813.00 L 1944.00 2833.00 L 1964.00 2834.00 L 1966.22 2834.00 L 1966.00 2830.00 L 1974.00 2779.00 L 1964.47 2752.00 L 1938.47 2752.00 L 1884.00 2813.00 Z" stroke-width="1" id="271-32-11" stroke="black"/>
  <path fill="none" d="M 295.76 2817.00 L 297.00 2845.00 L 274.00 2863.00 L 300.00 2890.00 L 299.50 2898.00 L 344.00 2898.00 L 364.00 2899.00 L 464.00 2899.00 L 484.00 2900.00 L 504.00 2920.00 L 524.00 2920.00 L 544.00 2900.00 L 564.00 2900.00 L 584.00 2901.00 L 593.00 2901.00 L 600.00 2820.00 L 564.00 2820.00 L 544.00 2825.00 L 524.00 2829.00 L 504.00 2837.00 L 484.00 2841.00 L 464.00 2819.00 L 444.00 2818.00 L 364.00 2818.00 L 344.00 2817.00 Z" stroke-width="1" id="271-33-01" stroke="black"/>
  <path fill="none" d="M 684.00 2901.00 L 704.00 2902.00 L 784.00 2902.00 L 795.00 2902.55 L 849.00 2822.25 L 844.00 2822.00 L 784.00 2822.00 L 764.00 2842.00 L 744.00 2821.00 L 664.00 2821.00 L 644.00 2820.00 L 600.00 2820.00 L 593.00 2901.00 Z" stroke-width="1" id="271-33-02" stroke="black"/>
  <path fill="none" d="M 804.00 2903.00 L 824.00 2903.00 L 844.00 2883.00 L 853.00 2910.00 L 914.00 2823.00 L 864.00 2823.00 L 849.00 2822.25 L 795.00 2902.55 Z" stroke-width="1" id="271-33-03" stroke="black"/>
  <path fill="none" d="M 864.00 2943.00 L 884.00 2943.00 L 904.00 2923.00 L 924.00 2904.00 L 1004.00 2904.00 L 1024.00 2905.00 L 1064.00 2905.00 L 1127.00 2825.00 L 1064.00 2825.00 L 1044.00 2824.00 L 964.00 2824.00 L 944.00 2823.00 L 914.00 2823.00 L 853.00 2910.00 Z" stroke-width="1" id="271-33-04" stroke="black"/>
  <path fill="none" d="M 1104.00 2905.00 L 1124.00 2906.00 L 1224.00 2906.00 L 1244.00 2907.00 L 1304.00 2907.00 L 1342.00 2827.00 L 1264.00 2827.00 L 1244.00 2826.00 L 1204.00 2826.00 L 1184.00 2846.00 L 1164.00 2846.00 L 1144.00 2825.00 L 1127.00 2825.00 L 1064.00 2905.00 Z" stroke-width="1" id="271-33-05" stroke="black"/>
  <path fill="none" d="M 1324.00 2907.00 L 1344.00 2908.00 L 1395.00 2908.00 L 1432.00 2828.00 L 1404.00 2828.00 L 1384.00 2808.00 L 1364.00 2828.00 L 1344.00 2827.00 L 1342.00 2827.00 L 1304.00 2907.00 Z" stroke-width="1" id="271-33-06" stroke="black"/>
  <path fill="none" d="M 1444.00 2908.00 L 1464.00 2909.00 L 1524.00 2909.00 L 1544.00 2889.00 L 1564.00 2890.00 L 1584.00 2910.00 L 1664.00 2910.00 L 1684.00 2911.00 L 1733.00 2911.00 L 1757.00 2831.65 L 1744.00 2831.00 L 1664.00 2831.00 L 1644.00 2830.00 L 1564.00 2830.00 L 1544.00 2829.00 L 1464.00 2829.00 L 1444.00 2828.00 L 1432.00 2828.00 L 1395.00 2908.00 Z" stroke-width="1" id="271-33-07" stroke="black"/>
  <path fill="none" d="M 1764.00 2911.00 L 1784.00 2912.00 L 1884.00 2912.00 L 1904.00 2913.00 L 1984.00 2913.00 L 1985.43 2913.07 L 1969.00 2884.00 L 1966.22 2834.00 L 1964.00 2834.00 L 1944.00 2833.00 L 1924.00 2813.00 L 1884.00 2813.00 L 1864.00 2833.00 L 1844.00 2832.00 L 1764.00 2832.00 L 1757.00 2831.65 L 1733.00 2911.00 Z" stroke-width="1" id="271-33-08" stroke="black"/>
  <path fill="none" d="M 299.50 2898.00 L 297.00 2938.00 L 277.00 2962.00 L 273.00 3004.00 L 301.00 3003.00 L 301.00 3004.00 L 304.00 3004.00 L 324.00 2984.00 L 344.00 2984.00 L 364.00 2985.00 L 404.00 2985.00 L 424.00 2965.00 L 444.00 2985.00 L 464.00 2986.00 L 484.00 3006.00 L 504.00 3006.00 L 524.00 2986.00 L 544.00 2986.00 L 545.00 2986.05 L 604.00 2901.00 L 584.00 2901.00 L 564.00 2900.00 L 544.00 2900.00 L 524.00 2920.00 L 504.00 2920.00 L 484.00 2900.00 L 464.00 2899.00 L 364.00 2899.00 L 344.00 2898.00 Z" stroke-width="1" id="271-34-01" stroke="black"/>
  <path fill="none" d="M 564.00 2987.00 L 644.00 2987.00 L 664.00 2988.00 L 668.00 2988.00 L 695.00 2901.55 L 684.00 2901.00 L 604.00 2901.00 L 545.00 2986.05 Z" stroke-width="1" id="271-34-02" stroke="black"/>
  <path fill="none" d="M 724.00 2988.00 L 744.00 2968.00 L 758.00 2982.70 L 821.00 2903.00 L 804.00 2903.00 L 784.00 2902.00 L 704.00 2902.00 L 695.00 2901.55 L 668.00 2988.00 Z" stroke-width="1" id="271-34-03" stroke="black"/>
  <path fill="none" d="M 764.00 2989.00 L 844.00 2989.00 L 864.00 2990.00 L 944.00 2990.00 L 950.00 2990.30 L 1000.00 2904.00 L 924.00 2904.00 L 904.00 2923.00 L 884.00 2943.00 L 864.00 2943.00 L 844.00 2883.00 L 824.00 2903.00 L 821.00 2903.00 L 758.00 2982.70 Z" stroke-width="1" id="271-34-04" stroke="black"/>
  <path fill="none" d="M 964.00 2991.00 L 1024.00 2991.00 L 1044.00 3011.00 L 1064.00 2992.00 L 1144.00 2992.00 L 1164.00 2993.00 L 1184.00 2993.00 L 1203.00 2974.00 L 1229.00 2906.25 L 1224.00 2906.00 L 1124.00 2906.00 L 1104.00 2905.00 L 1024.00 2905.00 L 1004.00 2904.00 L 1000.00 2904.00 L 950.00 2990.30 Z" stroke-width="1" id="271-34-05" stroke="black"/>
  <path fill="none" d="M 1204.00 2973.00 L 1224.00 2973.00 L 1244.00 2993.00 L 1264.00 2994.00 L 1274.00 2994.00 L 1330.00 2907.30 L 1324.00 2907.00 L 1244.00 2907.00 L 1229.00 2906.25 L 1203.00 2974.00 Z" stroke-width="1" id="271-34-06" stroke="black"/>
  <path fill="none" d="M 1344.00 2994.00 L 1364.00 2995.00 L 1416.00 2995.00 L 1452.00 2908.40 L 1444.00 2908.00 L 1344.00 2908.00 L 1330.00 2907.30 L 1274.00 2994.00 Z" stroke-width="1" id="271-34-07" stroke="black"/>
  <path fill="none" d="M 1444.00 2995.00 L 1464.00 2996.00 L 1524.00 2996.00 L 1544.00 2993.00 L 1564.00 3003.00 L 1570.00 3006.00 L 1651.00 2910.00 L 1584.00 2910.00 L 1564.00 2890.00 L 1544.00 2889.00 L 1524.00 2909.00 L 1464.00 2909.00 L 1452.00 2908.40 L 1416.00 2995.00 Z" stroke-width="1" id="271-34-08" stroke="black"/>
  <path fill="none" d="M 1584.00 3013.00 L 1604.00 3009.00 L 1624.00 3009.00 L 1644.00 2997.00 L 1664.00 2998.00 L 1744.00 2998.00 L 1764.00 2999.00 L 1799.00 2999.00 L 1799.00 2912.00 L 1784.00 2912.00 L 1764.00 2911.00 L 1684.00 2911.00 L 1664.00 2910.00 L 1651.00 2910.00 L 1570.00 3006.00 Z" stroke-width="1" id="271-34-09" stroke="black"/>
  <path fill="none" d="M 1844.00 2999.00 L 1864.00 3000.00 L 1944.00 3000.00 L 1964.00 3001.00 L 2002.90 3001.00 L 2008.00 2953.00 L 1985.43 2913.07 L 1984.00 2913.00 L 1904.00 2913.00 L 1884.00 2912.00 L 1799.00 2912.00 L 1799.00 2999.00 Z" stroke-width="1" id="271-34-10" stroke="black"/>
  <path fill="none" d="M 301.00 3004.00 L 301.00 3025.00 L 277.00 3043.00 L 304.00 3054.00 L 302.88 3069.00 L 324.00 3069.00 L 344.00 3070.00 L 345.00 3070.00 L 377.00 2985.00 L 364.00 2985.00 L 344.00 2984.00 L 324.00 2984.00 L 304.00 3004.00 Z" stroke-width="1" id="271-35-01" stroke="black"/>
  <path fill="none" d="M 404.00 3070.00 L 424.00 3071.00 L 444.00 3091.00 L 464.00 3091.00 L 484.00 3071.00 L 504.00 3071.00 L 524.00 3072.00 L 604.00 3072.00 L 624.00 3073.00 L 684.00 3073.00 L 704.00 3074.00 L 736.00 3074.00 L 725.00 2987.00 L 724.00 2988.00 L 664.00 2988.00 L 644.00 2987.00 L 564.00 2987.00 L 544.00 2986.00 L 524.00 2986.00 L 504.00 3006.00 L 484.00 3006.00 L 464.00 2986.00 L 444.00 2985.00 L 424.00 2965.00 L 404.00 2985.00 L 377.00 2985.00 L 345.00 3070.00 Z" stroke-width="1" id="271-35-02" stroke="black"/>
  <path fill="none" d="M 784.00 3074.00 L 804.00 3075.00 L 805.00 3075.00 L 840.00 2989.00 L 764.00 2989.00 L 744.00 2968.00 L 725.00 2987.00 L 736.00 3074.00 Z" stroke-width="1" id="271-35-03" stroke="black"/>
  <path fill="none" d="M 884.00 3075.00 L 904.00 3076.00 L 964.00 3076.00 L 984.00 3077.00 L 1064.00 3077.00 L 1067.00 3077.15 L 1135.00 2992.00 L 1064.00 2992.00 L 1044.00 3011.00 L 1024.00 2991.00 L 964.00 2991.00 L 944.00 2990.00 L 864.00 2990.00 L 844.00 2989.00 L 840.00 2989.00 L 805.00 3075.00 Z" stroke-width="1" id="271-35-04" stroke="black"/>
  <path fill="none" d="M 1084.00 3078.00 L 1093.56 3078.00 L 1095.00 3066.00 L 1228.00 3066.00 L 1252.00 2993.40 L 1244.00 2993.00 L 1224.00 2973.00 L 1204.00 2973.00 L 1184.00 2993.00 L 1164.00 2993.00 L 1144.00 2992.00 L 1135.00 2992.00 L 1067.00 3077.15 Z" stroke-width="1" id="271-35-05" stroke="black"/>
  <path fill="none" d="M 1409.00 3066.00 L 1462.00 2995.90 L 1444.00 2995.00 L 1364.00 2995.00 L 1344.00 2994.00 L 1264.00 2994.00 L 1252.00 2993.40 L 1228.00 3066.00 Z" stroke-width="1" id="271-35-06" stroke="black"/>
  <path fill="none" d="M 1431.00 3066.00 L 1456.08 3081.60 L 1464.00 3082.00 L 1518.50 3082.00 L 1561.00 3070.00 L 1665.00 3069.04 L 1696.00 2998.00 L 1664.00 2998.00 L 1644.00 2997.00 L 1624.00 3009.00 L 1604.00 3009.00 L 1584.00 3013.00 L 1564.00 3003.00 L 1544.00 2993.00 L 1524.00 2996.00 L 1464.00 2996.00 L 1462.00 2995.90 L 1409.00 3066.00 Z" stroke-width="1" id="271-35-07" stroke="black"/>
  <path fill="none" d="M 1842.00 3067.42 L 1871.00 3000.00 L 1864.00 3000.00 L 1844.00 2999.00 L 1764.00 2999.00 L 1744.00 2998.00 L 1696.00 2998.00 L 1665.00 3069.04 Z" stroke-width="1" id="271-35-08" stroke="black"/>
  <path fill="none" d="M 1996.00 3066.00 L 2002.90 3001.00 L 1964.00 3001.00 L 1944.00 3000.00 L 1871.00 3000.00 L 1842.00 3067.42 Z" stroke-width="1" id="271-35-09" stroke="black"/>
  <path fill="none" d="M 302.88 3069.00 L 301.00 3094.00 L 280.00 3130.00 L 306.00 3145.00 L 442.00 3143.84 L 449.00 3091.00 L 444.00 3091.00 L 424.00 3071.00 L 404.00 3070.00 L 344.00 3070.00 L 324.00 3069.00 Z" stroke-width="1" id="271-36-01" stroke="black"/>
  <path fill="none" d="M 536.00 3143.03 L 541.00 3072.00 L 524.00 3072.00 L 504.00 3071.00 L 484.00 3071.00 L 464.00 3091.00 L 449.00 3091.00 L 442.00 3143.84 Z" stroke-width="1" id="271-36-02" stroke="black"/>
  <path fill="none" d="M 774.00 3141.00 L 795.78 3177.59 L 804.00 3178.00 L 807.81 3178.00 L 873.00 3141.00 L 1086.00 3141.00 L 1093.56 3078.00 L 1084.00 3078.00 L 1064.00 3077.00 L 984.00 3077.00 L 964.00 3076.00 L 904.00 3076.00 L 884.00 3075.00 L 804.00 3075.00 L 784.00 3074.00 L 704.00 3074.00 L 684.00 3073.00 L 624.00 3073.00 L 604.00 3072.00 L 541.00 3072.00 L 536.00 3143.03 Z" stroke-width="1" id="271-36-03" stroke="black"/>
</svg>
