<?xml version="1.0" encoding="UTF-8"?>
<svg xmlns:xlink="http://www.w3.org/1999/xlink" xmlns="http://www.w3.org/2000/svg" contentScriptType="text/ecmascript" width="2077px" zoomAndPan="magnify" contentStyleType="text/css" viewBox="0 0 2077 3311" height="3311px" preserveAspectRatio="xMidYMid meet" version="1.0">
  <path fill="none" d="M 189.00 157.00 L 186.00 201.00 L 190.00 225.00 L 192.05 224.97 L 206.00 218.00 L 352.00 218.00 L 354.12 158.88 L 339.00 165.00 Z" stroke-width="1" id="272-02-01" stroke="black"/>
  <path fill="none" d="M 426.00 218.00 L 446.00 219.00 L 606.00 219.00 L 626.00 236.00 L 646.00 230.00 L 657.00 223.95 L 670.18 135.00 L 506.00 135.00 L 486.91 115.91 L 476.48 115.00 L 462.53 115.00 L 434.76 126.24 L 426.00 135.00 L 413.12 135.00 L 354.12 158.88 L 352.00 218.00 Z" stroke-width="1" id="272-02-02" stroke="black"/>
  <path fill="none" d="M 666.00 219.00 L 686.00 220.00 L 906.00 220.00 L 926.00 221.00 L 939.00 221.00 L 970.71 142.10 L 844.00 147.00 L 706.18 135.00 L 670.18 135.00 L 657.00 223.95 Z" stroke-width="1" id="272-02-03" stroke="black"/>
  <path fill="none" d="M 1145.00 221.00 L 1174.00 136.00 L 1128.71 136.00 L 970.71 142.10 L 939.00 221.00 Z" stroke-width="1" id="272-02-04" stroke="black"/>
  <path fill="none" d="M 1146.00 221.00 L 1166.00 222.00 L 1306.00 222.00 L 1326.00 242.00 L 1346.00 222.00 L 1386.00 222.00 L 1406.00 223.00 L 1626.00 223.00 L 1646.00 224.00 L 1752.00 224.00 L 1761.00 152.64 L 1618.00 142.00 L 1451.00 136.00 L 1174.00 136.00 L 1145.00 221.00 Z" stroke-width="1" id="272-02-05" stroke="black"/>
  <path fill="none" d="M 1866.00 224.00 L 1886.00 225.00 L 1959.00 225.00 L 1971.00 173.80 L 1927.00 165.00 L 1761.00 152.64 L 1752.00 224.00 Z" stroke-width="1" id="272-02-06" stroke="black"/>
  <path fill="none" d="M 249.00 363.00 L 252.00 405.00 L 358.00 408.98 L 380.00 306.00 L 353.40 306.00 L 333.00 309.00 Z" stroke-width="1" id="272-04-01" stroke="black"/>
  <path fill="none" d="M 412.00 411.00 L 466.00 411.00 L 469.00 408.00 L 490.00 306.00 L 380.00 306.00 L 358.00 408.98 Z" stroke-width="1" id="272-04-02" stroke="black"/>
  <path fill="none" d="M 486.00 391.00 L 526.00 391.00 L 546.00 411.00 L 566.00 411.00 L 586.00 430.00 L 606.00 430.00 L 626.00 410.00 L 853.00 410.00 L 906.00 296.00 L 686.00 296.00 L 666.00 294.00 L 586.00 294.00 L 566.00 310.00 L 546.00 308.00 L 526.00 306.00 L 490.00 306.00 L 469.00 408.00 Z" stroke-width="1" id="272-04-03" stroke="black"/>
  <path fill="none" d="M 966.00 410.00 L 986.00 409.00 L 1111.00 409.00 L 1061.00 296.00 L 906.00 296.00 L 853.00 410.00 Z" stroke-width="1" id="272-04-04" stroke="black"/>
  <path fill="none" d="M 1126.00 409.00 L 1133.46 423.91 L 1138.00 424.00 L 1162.00 442.00 L 1230.12 444.88 L 1246.00 429.00 L 1280.06 429.00 L 1289.06 425.94 L 1306.00 409.00 L 1315.00 409.00 L 1348.00 298.00 L 1266.00 298.00 L 1246.00 296.00 L 1061.00 296.00 L 1111.00 409.00 Z" stroke-width="1" id="272-04-05" stroke="black"/>
  <path fill="none" d="M 1346.00 409.00 L 1348.92 411.77 L 1380.69 413.31 L 1386.00 408.00 L 1425.00 408.00 L 1474.00 300.00 L 1426.00 300.00 L 1406.00 298.00 L 1348.00 298.00 L 1315.00 409.00 Z" stroke-width="1" id="272-04-06" stroke="black"/>
  <path fill="none" d="M 1569.00 408.00 L 1605.00 302.00 L 1526.00 302.00 L 1506.00 300.00 L 1474.00 300.00 L 1425.00 408.00 Z" stroke-width="1" id="272-04-07" stroke="black"/>
  <path fill="none" d="M 1586.00 408.00 L 1606.00 388.00 L 1626.00 408.00 L 1646.00 408.00 L 1665.07 427.07 L 1684.33 428.00 L 1706.00 428.00 L 1726.00 408.00 L 1746.00 408.00 L 1766.00 407.00 L 1946.77 407.00 L 1905.00 321.00 L 1906.86 308.00 L 1866.00 308.00 L 1846.00 306.00 L 1746.00 306.00 L 1726.00 304.00 L 1706.00 302.00 L 1605.00 302.00 L 1569.00 408.00 Z" stroke-width="1" id="272-04-08" stroke="black"/>
  <path fill="none" d="M 412.00 411.00 L 435.00 418.00 L 424.00 478.00 L 480.00 492.00 L 501.00 522.00 L 532.50 525.50 L 546.00 512.00 L 566.00 512.00 L 586.00 492.00 L 606.00 492.00 L 626.00 472.00 L 646.00 492.00 L 666.00 512.00 L 678.84 512.00 L 676.00 490.00 L 967.00 492.91 L 971.00 409.75 L 966.00 410.00 L 626.00 410.00 L 606.00 430.00 L 586.00 430.00 L 566.00 411.00 L 546.00 411.00 L 526.00 391.00 L 486.00 391.00 L 466.00 411.00 Z" stroke-width="1" id="272-05-01" stroke="black"/>
  <path fill="none" d="M 546.00 512.00 L 532.50 525.50 L 537.00 526.00 L 543.00 562.00 L 565.04 575.00 L 606.00 575.00 L 619.35 588.35 L 649.91 591.09 L 664.91 576.09 L 685.00 551.95 L 684.00 552.00 L 678.84 512.00 L 666.00 512.00 L 646.00 492.00 L 626.00 472.00 L 606.00 492.00 L 586.00 492.00 L 566.00 512.00 Z" stroke-width="1" id="272-06-01" stroke="black"/>
  <path fill="none" d="M 745.00 654.00 L 738.36 655.00 L 789.36 655.00 L 873.00 562.00 L 866.00 555.00 L 826.00 555.00 L 806.00 575.00 L 786.00 575.00 L 751.00 617.00 Z" stroke-width="1" id="272-07-01" stroke="black"/>
  <path fill="none" d="M 1086.00 655.00 L 1101.00 676.75 L 1189.00 575.00 L 886.00 575.00 L 873.00 562.00 L 789.36 655.00 Z" stroke-width="1" id="272-07-02" stroke="black"/>
  <path fill="none" d="M 1106.00 684.00 L 1126.00 704.00 L 1146.00 696.00 L 1166.00 688.00 L 1186.00 675.00 L 1206.00 655.00 L 1366.00 655.00 L 1395.00 575.00 L 1189.00 575.00 L 1101.00 676.75 Z" stroke-width="1" id="272-07-03" stroke="black"/>
  <path fill="none" d="M 1386.00 675.00 L 1426.00 675.00 L 1446.00 655.00 L 1457.00 655.00 L 1503.00 575.00 L 1395.00 575.00 L 1366.00 655.00 Z" stroke-width="1" id="272-07-04" stroke="black"/>
  <path fill="none" d="M 1591.00 655.00 L 1620.00 575.00 L 1503.00 575.00 L 1457.00 655.00 Z" stroke-width="1" id="272-07-05" stroke="black"/>
  <path fill="none" d="M 1664.00 655.00 L 1724.93 575.00 L 1686.00 575.00 L 1666.90 555.90 L 1665.13 555.87 L 1646.00 575.00 L 1620.00 575.00 L 1591.00 655.00 Z" stroke-width="1" id="272-07-06" stroke="black"/>
  <path fill="none" d="M 1666.00 655.00 L 1686.00 675.00 L 1706.00 675.00 L 1726.00 655.00 L 1737.00 655.00 L 1791.00 588.92 L 1767.00 585.00 L 1734.93 575.00 L 1724.93 575.00 L 1664.00 655.00 Z" stroke-width="1" id="272-07-07" stroke="black"/>
  <path fill="none" d="M 1919.05 655.00 L 1914.00 609.00 L 1791.00 588.92 L 1737.00 655.00 Z" stroke-width="1" id="272-07-08" stroke="black"/>
  <path fill="none" d="M 385.00 657.00 L 358.00 699.00 L 337.00 732.00 L 361.00 739.00 L 361.51 746.00 L 406.00 746.00 L 426.00 766.00 L 446.00 766.00 L 466.00 746.00 L 468.00 746.00 L 492.00 664.75 Z" stroke-width="1" id="272-08-01" stroke="black"/>
  <path fill="none" d="M 706.00 746.00 L 726.00 766.00 L 766.00 766.00 L 786.00 746.00 L 819.00 746.00 L 829.00 655.00 L 738.36 655.00 L 579.00 679.00 L 523.00 667.00 L 492.00 664.75 L 468.00 746.00 Z" stroke-width="1" id="272-08-02" stroke="black"/>
  <path fill="none" d="M 965.00 746.00 L 995.00 655.00 L 829.00 655.00 L 819.00 746.00 Z" stroke-width="1" id="272-08-03" stroke="black"/>
  <path fill="none" d="M 1086.00 746.00 L 1106.00 745.00 L 1276.00 745.00 L 1315.00 655.00 L 1206.00 655.00 L 1186.00 675.00 L 1166.00 688.00 L 1146.00 696.00 L 1126.00 704.00 L 1106.00 684.00 L 1086.00 655.00 L 995.00 655.00 L 965.00 746.00 Z" stroke-width="1" id="272-08-04" stroke="black"/>
  <path fill="none" d="M 1286.00 745.00 L 1306.00 765.00 L 1345.00 765.00 L 1421.00 675.00 L 1386.00 675.00 L 1366.00 655.00 L 1315.00 655.00 L 1276.00 745.00 Z" stroke-width="1" id="272-08-05" stroke="black"/>
  <path fill="none" d="M 1346.00 765.00 L 1366.00 785.00 L 1386.00 765.00 L 1406.00 765.00 L 1426.00 745.00 L 1551.00 745.00 L 1616.00 655.00 L 1446.00 655.00 L 1426.00 675.00 L 1421.00 675.00 L 1345.00 765.00 Z" stroke-width="1" id="272-08-06" stroke="black"/>
  <path fill="none" d="M 1726.00 745.00 L 1746.00 765.00 L 1766.00 745.00 L 1826.00 745.00 L 1846.00 765.00 L 1885.41 765.00 L 1917.83 753.17 L 1926.00 745.00 L 1931.50 745.00 L 1924.00 700.00 L 1919.05 655.00 L 1726.00 655.00 L 1706.00 675.00 L 1686.00 675.00 L 1666.00 655.00 L 1616.00 655.00 L 1551.00 745.00 Z" stroke-width="1" id="272-08-07" stroke="black"/>
  <path fill="none" d="M 361.51 746.00 L 364.00 780.00 L 333.00 811.00 L 367.00 828.00 L 366.78 829.78 L 386.00 849.00 L 406.00 869.00 L 446.00 869.00 L 466.00 849.00 L 486.00 829.00 L 501.00 829.00 L 510.00 746.00 L 466.00 746.00 L 446.00 766.00 L 426.00 766.00 L 406.00 746.00 Z" stroke-width="1" id="272-09-01" stroke="black"/>
  <path fill="none" d="M 656.00 829.00 L 694.00 746.00 L 510.00 746.00 L 501.00 829.00 Z" stroke-width="1" id="272-09-02" stroke="black"/>
  <path fill="none" d="M 726.00 829.00 L 746.00 849.00 L 806.00 849.00 L 826.00 829.00 L 884.00 829.00 L 896.00 746.00 L 786.00 746.00 L 766.00 766.00 L 726.00 766.00 L 706.00 746.00 L 694.00 746.00 L 656.00 829.00 Z" stroke-width="1" id="272-09-03" stroke="black"/>
  <path fill="none" d="M 1006.00 829.00 L 1026.00 860.00 L 1046.00 854.00 L 1066.00 852.00 L 1086.00 849.00 L 1106.00 829.00 L 1316.00 829.00 L 1351.00 770.00 L 1346.00 765.00 L 1306.00 765.00 L 1286.00 745.00 L 1106.00 745.00 L 1086.00 746.00 L 896.00 746.00 L 884.00 829.00 Z" stroke-width="1" id="272-09-04" stroke="black"/>
  <path fill="none" d="M 1488.00 829.00 L 1509.00 745.00 L 1426.00 745.00 L 1406.00 765.00 L 1386.00 765.00 L 1366.00 785.00 L 1351.00 770.00 L 1316.00 829.00 Z" stroke-width="1" id="272-09-05" stroke="black"/>
  <path fill="none" d="M 1658.00 829.00 L 1697.00 745.00 L 1509.00 745.00 L 1488.00 829.00 Z" stroke-width="1" id="272-09-06" stroke="black"/>
  <path fill="none" d="M 1686.00 829.00 L 1706.00 849.00 L 1726.00 829.00 L 1858.00 829.00 L 1858.00 775.00 L 1885.41 765.00 L 1846.00 765.00 L 1826.00 745.00 L 1766.00 745.00 L 1746.00 765.00 L 1726.00 745.00 L 1697.00 745.00 L 1658.00 829.00 Z" stroke-width="1" id="272-09-07" stroke="black"/>
  <path fill="none" d="M 366.78 829.78 L 361.00 876.00 L 337.00 900.00 L 339.00 928.00 L 360.00 948.00 L 366.00 948.00 L 386.00 928.00 L 466.00 928.00 L 486.00 929.00 L 508.00 929.00 L 540.00 829.00 L 486.00 829.00 L 466.00 849.00 L 446.00 869.00 L 406.00 869.00 L 386.00 849.00 Z" stroke-width="1" id="272-10-01" stroke="black"/>
  <path fill="none" d="M 653.00 929.00 L 709.00 829.00 L 540.00 829.00 L 508.00 929.00 Z" stroke-width="1" id="272-10-02" stroke="black"/>
  <path fill="none" d="M 746.00 929.00 L 766.00 930.00 L 786.00 930.00 L 806.00 910.00 L 826.00 910.00 L 846.00 930.00 L 920.00 930.00 L 950.00 829.00 L 826.00 829.00 L 806.00 849.00 L 746.00 849.00 L 726.00 829.00 L 709.00 829.00 L 653.00 929.00 Z" stroke-width="1" id="272-10-03" stroke="black"/>
  <path fill="none" d="M 986.00 930.00 L 1006.00 910.00 L 1026.00 930.00 L 1046.00 911.00 L 1073.00 850.95 L 1066.00 852.00 L 1046.00 854.00 L 1026.00 860.00 L 1006.00 829.00 L 950.00 829.00 L 920.00 930.00 Z" stroke-width="1" id="272-10-04" stroke="black"/>
  <path fill="none" d="M 1066.00 951.00 L 1086.00 931.00 L 1138.00 931.00 L 1177.00 829.00 L 1106.00 829.00 L 1086.00 849.00 L 1073.00 850.95 L 1046.00 911.00 Z" stroke-width="1" id="272-10-05" stroke="black"/>
  <path fill="none" d="M 1219.00 931.00 L 1257.00 829.00 L 1177.00 829.00 L 1138.00 931.00 Z" stroke-width="1" id="272-10-06" stroke="black"/>
  <path fill="none" d="M 1326.00 931.00 L 1346.00 932.00 L 1392.00 932.00 L 1435.00 829.00 L 1257.00 829.00 L 1219.00 931.00 Z" stroke-width="1" id="272-10-07" stroke="black"/>
  <path fill="none" d="M 1426.00 932.00 L 1446.00 912.00 L 1466.00 912.00 L 1486.00 932.00 L 1504.00 932.00 L 1533.00 829.00 L 1435.00 829.00 L 1392.00 932.00 Z" stroke-width="1" id="272-10-08" stroke="black"/>
  <path fill="none" d="M 1606.00 932.00 L 1626.00 933.00 L 1633.00 933.00 L 1654.00 829.00 L 1533.00 829.00 L 1504.00 932.00 Z" stroke-width="1" id="272-10-09" stroke="black"/>
  <path fill="none" d="M 1809.00 933.00 L 1819.00 829.00 L 1726.00 829.00 L 1706.00 849.00 L 1686.00 829.00 L 1654.00 829.00 L 1633.00 933.00 Z" stroke-width="1" id="272-10-10" stroke="black"/>
  <path fill="none" d="M 1886.00 933.00 L 1906.00 934.00 L 1922.23 934.00 L 1903.00 871.00 L 1858.00 850.00 L 1858.00 829.00 L 1819.00 829.00 L 1809.00 933.00 Z" stroke-width="1" id="272-10-11" stroke="black"/>
  <path fill="none" d="M 360.00 948.00 L 337.00 979.00 L 361.00 997.00 L 361.00 999.00 L 366.00 999.00 L 386.00 1000.00 L 546.00 1000.00 L 566.00 1001.00 L 632.00 1001.00 L 672.00 929.00 L 486.00 929.00 L 466.00 928.00 L 386.00 928.00 L 366.00 948.00 Z" stroke-width="1" id="272-11-01" stroke="black"/>
  <path fill="none" d="M 720.00 1001.00 L 751.00 929.25 L 746.00 929.00 L 672.00 929.00 L 632.00 1001.00 Z" stroke-width="1" id="272-11-02" stroke="black"/>
  <path fill="none" d="M 746.00 1001.00 L 766.00 1002.00 L 926.00 1002.00 L 929.00 1002.15 L 971.00 930.00 L 846.00 930.00 L 826.00 910.00 L 806.00 910.00 L 786.00 930.00 L 766.00 930.00 L 751.00 929.25 L 720.00 1001.00 Z" stroke-width="1" id="272-11-03" stroke="black"/>
  <path fill="none" d="M 946.00 1003.00 L 1066.00 1003.00 L 1086.00 1023.00 L 1106.00 1003.00 L 1124.00 1003.00 L 1157.00 931.00 L 1086.00 931.00 L 1066.00 951.00 L 1046.00 911.00 L 1026.00 930.00 L 1006.00 910.00 L 986.00 930.00 L 971.00 930.00 L 929.00 1002.15 Z" stroke-width="1" id="272-11-04" stroke="black"/>
  <path fill="none" d="M 1126.00 1003.00 L 1146.00 1004.00 L 1306.00 1004.00 L 1326.00 1005.00 L 1358.00 1005.00 L 1412.00 932.00 L 1346.00 932.00 L 1326.00 931.00 L 1157.00 931.00 L 1124.00 1003.00 Z" stroke-width="1" id="272-11-05" stroke="black"/>
  <path fill="none" d="M 1470.00 1005.00 L 1524.00 932.00 L 1486.00 932.00 L 1466.00 912.00 L 1446.00 912.00 L 1426.00 932.00 L 1412.00 932.00 L 1358.00 1005.00 Z" stroke-width="1" id="272-11-06" stroke="black"/>
  <path fill="none" d="M 1506.00 1005.00 L 1526.00 1006.00 L 1651.00 1006.00 L 1663.00 933.00 L 1626.00 933.00 L 1606.00 932.00 L 1524.00 932.00 L 1470.00 1005.00 Z" stroke-width="1" id="272-11-07" stroke="black"/>
  <path fill="none" d="M 1686.00 1006.00 L 1706.00 1007.00 L 1713.97 1007.00 L 1714.00 1006.00 L 1923.00 996.00 L 1932.00 966.00 L 1922.23 934.00 L 1906.00 934.00 L 1886.00 933.00 L 1663.00 933.00 L 1651.00 1006.00 Z" stroke-width="1" id="272-11-08" stroke="black"/>
  <path fill="none" d="M 361.00 999.00 L 361.00 1039.00 L 333.00 1068.00 L 361.00 1084.00 L 361.00 1102.00 L 486.00 1102.00 L 506.00 1082.00 L 526.00 1082.00 L 546.00 1062.00 L 554.00 1078.00 L 615.00 1001.00 L 566.00 1001.00 L 546.00 1000.00 L 386.00 1000.00 L 366.00 999.00 Z" stroke-width="1" id="272-12-01" stroke="black"/>
  <path fill="none" d="M 566.00 1102.00 L 683.00 1102.00 L 715.00 1001.00 L 615.00 1001.00 L 554.00 1078.00 Z" stroke-width="1" id="272-12-02" stroke="black"/>
  <path fill="none" d="M 806.00 1102.00 L 826.00 1123.00 L 846.00 1123.00 L 866.00 1103.00 L 906.00 1103.00 L 926.00 1083.00 L 938.00 1083.00 L 974.00 1003.00 L 946.00 1003.00 L 926.00 1002.00 L 766.00 1002.00 L 746.00 1001.00 L 715.00 1001.00 L 683.00 1102.00 Z" stroke-width="1" id="272-12-03" stroke="black"/>
  <path fill="none" d="M 946.00 1083.00 L 966.00 1103.00 L 1263.00 1103.00 L 1301.00 1004.00 L 1146.00 1004.00 L 1126.00 1003.00 L 1106.00 1003.00 L 1086.00 1023.00 L 1066.00 1003.00 L 974.00 1003.00 L 938.00 1083.00 Z" stroke-width="1" id="272-12-04" stroke="black"/>
  <path fill="none" d="M 1306.00 1103.00 L 1326.00 1083.00 L 1405.00 1005.00 L 1326.00 1005.00 L 1306.00 1004.00 L 1301.00 1004.00 L 1263.00 1103.00 Z" stroke-width="1" id="272-12-05" stroke="black"/>
  <path fill="none" d="M 1346.00 1103.00 L 1446.00 1103.00 L 1466.00 1104.00 L 1506.00 1104.00 L 1526.00 1084.00 L 1552.00 1084.00 L 1567.00 1006.00 L 1526.00 1006.00 L 1506.00 1005.00 L 1405.00 1005.00 L 1326.00 1083.00 Z" stroke-width="1" id="272-12-06" stroke="black"/>
  <path fill="none" d="M 1566.00 1084.00 L 1586.00 1104.00 L 1772.58 1104.00 L 1711.00 1098.00 L 1713.97 1007.00 L 1706.00 1007.00 L 1686.00 1006.00 L 1567.00 1006.00 L 1552.00 1084.00 Z" stroke-width="1" id="272-12-07" stroke="black"/>
  <path fill="none" d="M 361.00 1102.00 L 361.00 1131.00 L 336.00 1149.00 L 361.00 1164.00 L 360.79 1165.00 L 417.79 1165.00 L 486.00 1102.00 Z" stroke-width="1" id="272-13-01" stroke="black"/>
  <path fill="none" d="M 446.00 1165.00 L 466.00 1166.00 L 557.00 1166.00 L 587.00 1102.00 L 566.00 1102.00 L 546.00 1062.00 L 526.00 1082.00 L 506.00 1082.00 L 486.00 1102.00 L 417.79 1165.00 Z" stroke-width="1" id="272-13-02" stroke="black"/>
  <path fill="none" d="M 706.00 1166.00 L 726.00 1167.00 L 824.00 1167.00 L 835.00 1123.00 L 826.00 1123.00 L 806.00 1102.00 L 587.00 1102.00 L 557.00 1166.00 Z" stroke-width="1" id="272-13-03" stroke="black"/>
  <path fill="none" d="M 886.00 1167.00 L 906.00 1187.00 L 926.00 1207.00 L 946.00 1207.00 L 966.00 1187.00 L 986.00 1167.00 L 1006.00 1168.00 L 1179.00 1168.00 L 1208.00 1103.00 L 966.00 1103.00 L 946.00 1083.00 L 926.00 1083.00 L 906.00 1103.00 L 866.00 1103.00 L 846.00 1123.00 L 835.00 1123.00 L 824.00 1167.00 Z" stroke-width="1" id="272-13-04" stroke="black"/>
  <path fill="none" d="M 1246.00 1168.00 L 1266.00 1169.00 L 1286.00 1169.00 L 1306.00 1189.00 L 1326.00 1169.00 L 1442.00 1169.00 L 1469.00 1104.00 L 1466.00 1104.00 L 1446.00 1103.00 L 1346.00 1103.00 L 1326.00 1083.00 L 1306.00 1103.00 L 1208.00 1103.00 L 1179.00 1168.00 Z" stroke-width="1" id="272-13-05" stroke="black"/>
  <path fill="none" d="M 1526.00 1169.00 L 1546.00 1170.00 L 1599.00 1170.00 L 1618.58 1104.00 L 1586.00 1104.00 L 1566.00 1084.00 L 1526.00 1084.00 L 1506.00 1104.00 L 1469.00 1104.00 L 1442.00 1169.00 Z" stroke-width="1" id="272-13-06" stroke="black"/>
  <path fill="none" d="M 1786.00 1170.00 L 1806.00 1171.00 L 1914.53 1171.00 L 1906.00 1117.00 L 1772.58 1104.00 L 1618.58 1104.00 L 1599.00 1170.00 Z" stroke-width="1" id="272-13-07" stroke="black"/>
  <path fill="none" d="M 360.79 1165.00 L 351.00 1212.00 L 334.00 1239.00 L 351.50 1269.00 L 366.00 1269.00 L 386.00 1249.00 L 506.00 1249.00 L 526.00 1250.00 L 549.00 1250.00 L 545.00 1166.00 L 466.00 1166.00 L 446.00 1165.00 Z" stroke-width="1" id="272-14-01" stroke="black"/>
  <path fill="none" d="M 731.00 1250.00 L 772.00 1167.00 L 726.00 1167.00 L 706.00 1166.00 L 545.00 1166.00 L 549.00 1250.00 Z" stroke-width="1" id="272-14-02" stroke="black"/>
  <path fill="none" d="M 826.00 1250.00 L 846.00 1251.00 L 1146.00 1251.00 L 1166.00 1252.00 L 1230.00 1252.00 L 1259.00 1168.65 L 1246.00 1168.00 L 1006.00 1168.00 L 986.00 1167.00 L 966.00 1187.00 L 946.00 1207.00 L 926.00 1207.00 L 906.00 1187.00 L 886.00 1167.00 L 772.00 1167.00 L 731.00 1250.00 Z" stroke-width="1" id="272-14-03" stroke="black"/>
  <path fill="none" d="M 1410.00 1252.00 L 1438.00 1169.00 L 1326.00 1169.00 L 1306.00 1189.00 L 1286.00 1169.00 L 1266.00 1169.00 L 1259.00 1168.65 L 1230.00 1252.00 Z" stroke-width="1" id="272-14-04" stroke="black"/>
  <path fill="none" d="M 1486.00 1252.00 L 1506.00 1253.00 L 1546.00 1253.00 L 1553.00 1260.00 L 1624.00 1170.00 L 1546.00 1170.00 L 1526.00 1169.00 L 1438.00 1169.00 L 1410.00 1252.00 Z" stroke-width="1" id="272-14-05" stroke="black"/>
  <path fill="none" d="M 1566.00 1273.00 L 1586.00 1273.00 L 1606.00 1253.00 L 1766.00 1253.00 L 1786.00 1273.00 L 1806.00 1253.00 L 1822.32 1253.82 L 1806.00 1180.00 L 1915.00 1174.00 L 1914.53 1171.00 L 1806.00 1171.00 L 1786.00 1170.00 L 1624.00 1170.00 L 1553.00 1260.00 Z" stroke-width="1" id="272-14-06" stroke="black"/>
  <path fill="none" d="M 351.50 1269.00 L 355.00 1275.00 L 351.00 1297.00 L 333.00 1311.00 L 360.00 1327.00 L 359.25 1336.00 L 528.25 1336.00 L 549.00 1250.00 L 526.00 1250.00 L 506.00 1249.00 L 386.00 1249.00 L 366.00 1269.00 Z" stroke-width="1" id="272-15-01" stroke="black"/>
  <path fill="none" d="M 689.25 1336.00 L 710.00 1250.00 L 549.00 1250.00 L 528.25 1336.00 Z" stroke-width="1" id="272-15-02" stroke="black"/>
  <path fill="none" d="M 966.00 1336.00 L 986.00 1356.00 L 1006.00 1356.00 L 1026.00 1336.00 L 1061.00 1336.00 L 1081.00 1251.00 L 846.00 1251.00 L 826.00 1250.00 L 710.00 1250.00 L 689.25 1336.00 Z" stroke-width="1" id="272-15-03" stroke="black"/>
  <path fill="none" d="M 1163.00 1336.00 L 1175.00 1252.00 L 1166.00 1252.00 L 1146.00 1251.00 L 1081.00 1251.00 L 1061.00 1336.00 Z" stroke-width="1" id="272-15-04" stroke="black"/>
  <path fill="none" d="M 1246.00 1336.00 L 1266.00 1337.00 L 1286.00 1337.00 L 1306.00 1357.00 L 1326.00 1357.00 L 1346.00 1337.00 L 1466.00 1337.00 L 1470.00 1341.00 L 1562.00 1269.00 L 1546.00 1253.00 L 1506.00 1253.00 L 1486.00 1252.00 L 1175.00 1252.00 L 1163.00 1336.00 Z" stroke-width="1" id="272-15-05" stroke="black"/>
  <path fill="none" d="M 1486.00 1357.00 L 1526.00 1357.00 L 1546.00 1337.00 L 1689.00 1337.00 L 1708.00 1253.00 L 1606.00 1253.00 L 1586.00 1273.00 L 1566.00 1273.00 L 1562.00 1269.00 L 1470.00 1341.00 Z" stroke-width="1" id="272-15-06" stroke="black"/>
  <path fill="none" d="M 1902.20 1337.00 L 1936.00 1324.00 L 1926.00 1296.00 L 1827.00 1275.00 L 1822.32 1253.82 L 1806.00 1253.00 L 1786.00 1273.00 L 1766.00 1253.00 L 1708.00 1253.00 L 1689.00 1337.00 Z" stroke-width="1" id="272-15-07" stroke="black"/>
  <path fill="none" d="M 359.25 1336.00 L 355.00 1387.00 L 331.00 1396.00 L 336.00 1411.00 L 360.00 1428.00 L 356.84 1445.68 L 366.00 1464.00 L 386.00 1444.00 L 406.00 1444.00 L 426.00 1424.00 L 446.00 1425.00 L 450.00 1425.00 L 466.00 1336.00 Z" stroke-width="1" id="272-16-01" stroke="black"/>
  <path fill="none" d="M 545.00 1425.00 L 586.00 1336.00 L 466.00 1336.00 L 450.00 1425.00 Z" stroke-width="1" id="272-16-02" stroke="black"/>
  <path fill="none" d="M 666.00 1425.00 L 686.00 1426.00 L 704.00 1426.00 L 730.00 1336.00 L 586.00 1336.00 L 545.00 1425.00 Z" stroke-width="1" id="272-16-03" stroke="black"/>
  <path fill="none" d="M 906.00 1426.00 L 926.00 1427.00 L 946.00 1427.00 L 966.00 1407.00 L 986.00 1427.00 L 1146.00 1427.00 L 1166.00 1428.00 L 1316.00 1428.00 L 1326.00 1357.00 L 1306.00 1357.00 L 1286.00 1337.00 L 1266.00 1337.00 L 1246.00 1336.00 L 1026.00 1336.00 L 1006.00 1356.00 L 986.00 1356.00 L 966.00 1336.00 L 730.00 1336.00 L 704.00 1426.00 Z" stroke-width="1" id="272-16-04" stroke="black"/>
  <path fill="none" d="M 1386.00 1428.00 L 1406.00 1429.00 L 1487.00 1429.00 L 1526.00 1357.00 L 1486.00 1357.00 L 1466.00 1337.00 L 1346.00 1337.00 L 1326.00 1357.00 L 1316.00 1428.00 Z" stroke-width="1" id="272-16-05" stroke="black"/>
  <path fill="none" d="M 1586.00 1429.00 L 1606.00 1409.00 L 1626.00 1429.00 L 1643.00 1429.85 L 1671.20 1337.00 L 1546.00 1337.00 L 1526.00 1357.00 L 1487.00 1429.00 Z" stroke-width="1" id="272-16-06" stroke="black"/>
  <path fill="none" d="M 1646.00 1430.00 L 1866.00 1430.00 L 1883.57 1430.88 L 1876.00 1416.00 L 1884.00 1344.00 L 1902.20 1337.00 L 1671.20 1337.00 L 1643.00 1429.85 Z" stroke-width="1" id="272-16-07" stroke="black"/>
  <path fill="none" d="M 356.84 1445.68 L 355.00 1456.00 L 325.00 1489.00 L 354.00 1501.00 L 353.85 1505.00 L 406.00 1505.00 L 426.00 1506.00 L 535.00 1506.00 L 564.00 1425.00 L 446.00 1425.00 L 426.00 1424.00 L 406.00 1444.00 L 386.00 1444.00 L 366.00 1464.00 Z" stroke-width="1" id="272-17-01" stroke="black"/>
  <path fill="none" d="M 646.00 1506.00 L 666.00 1507.00 L 777.00 1507.00 L 793.00 1426.00 L 686.00 1426.00 L 666.00 1425.00 L 564.00 1425.00 L 535.00 1506.00 Z" stroke-width="1" id="272-17-02" stroke="black"/>
  <path fill="none" d="M 866.00 1507.00 L 874.00 1507.40 L 887.00 1426.00 L 793.00 1426.00 L 777.00 1507.00 Z" stroke-width="1" id="272-17-03" stroke="black"/>
  <path fill="none" d="M 886.00 1508.00 L 981.00 1508.00 L 1010.00 1427.00 L 986.00 1427.00 L 966.00 1407.00 L 946.00 1427.00 L 926.00 1427.00 L 906.00 1426.00 L 887.00 1426.00 L 874.00 1507.40 Z" stroke-width="1" id="272-17-04" stroke="black"/>
  <path fill="none" d="M 1106.00 1508.00 L 1126.00 1509.00 L 1307.00 1509.00 L 1339.00 1428.00 L 1166.00 1428.00 L 1146.00 1427.00 L 1010.00 1427.00 L 981.00 1508.00 Z" stroke-width="1" id="272-17-05" stroke="black"/>
  <path fill="none" d="M 1346.00 1509.00 L 1366.00 1510.00 L 1494.00 1510.00 L 1520.00 1429.00 L 1406.00 1429.00 L 1386.00 1428.00 L 1339.00 1428.00 L 1307.00 1509.00 Z" stroke-width="1" id="272-17-06" stroke="black"/>
  <path fill="none" d="M 1551.00 1510.00 L 1625.00 1428.00 L 1606.00 1409.00 L 1586.00 1429.00 L 1520.00 1429.00 L 1494.00 1510.00 Z" stroke-width="1" id="272-17-07" stroke="black"/>
  <path fill="none" d="M 1566.00 1510.00 L 1586.00 1511.00 L 1797.00 1511.00 L 1794.00 1430.00 L 1646.00 1430.00 L 1626.00 1429.00 L 1625.00 1428.00 L 1551.00 1510.00 Z" stroke-width="1" id="272-17-08" stroke="black"/>
  <path fill="none" d="M 1806.00 1511.00 L 1826.00 1512.00 L 1903.27 1512.00 L 1905.00 1473.00 L 1883.57 1430.88 L 1866.00 1430.00 L 1794.00 1430.00 L 1797.00 1511.00 Z" stroke-width="1" id="272-17-09" stroke="black"/>
  <path fill="none" d="M 353.85 1505.00 L 352.00 1555.00 L 330.00 1576.00 L 357.00 1593.00 L 354.22 1610.00 L 446.00 1610.00 L 466.00 1611.00 L 522.00 1611.00 L 536.00 1506.00 L 426.00 1506.00 L 406.00 1505.00 Z" stroke-width="1" id="272-18-01" stroke="black"/>
  <path fill="none" d="M 706.00 1611.00 L 726.00 1591.00 L 746.00 1592.00 L 766.00 1592.00 L 786.00 1612.00 L 800.00 1612.00 L 833.00 1507.00 L 666.00 1507.00 L 646.00 1506.00 L 536.00 1506.00 L 522.00 1611.00 Z" stroke-width="1" id="272-18-02" stroke="black"/>
  <path fill="none" d="M 826.00 1612.00 L 846.00 1592.00 L 866.00 1612.00 L 986.00 1612.00 L 1006.00 1613.00 L 1026.00 1633.00 L 1046.00 1633.00 L 1066.00 1613.00 L 1119.00 1613.00 L 1139.00 1509.00 L 1126.00 1509.00 L 1106.00 1508.00 L 886.00 1508.00 L 866.00 1507.00 L 833.00 1507.00 L 800.00 1612.00 Z" stroke-width="1" id="272-18-03" stroke="black"/>
  <path fill="none" d="M 1126.00 1613.00 L 1146.00 1593.00 L 1166.00 1593.00 L 1186.00 1613.00 L 1266.00 1613.00 L 1286.00 1614.00 L 1334.00 1614.00 L 1366.00 1510.00 L 1346.00 1509.00 L 1139.00 1509.00 L 1119.00 1613.00 Z" stroke-width="1" id="272-18-04" stroke="black"/>
  <path fill="none" d="M 1386.00 1614.00 L 1406.00 1634.00 L 1426.00 1614.00 L 1466.00 1614.00 L 1486.00 1594.00 L 1506.00 1614.00 L 1526.00 1614.00 L 1546.00 1615.00 L 1580.00 1615.00 L 1614.00 1511.00 L 1586.00 1511.00 L 1566.00 1510.00 L 1366.00 1510.00 L 1334.00 1614.00 Z" stroke-width="1" id="272-18-05" stroke="black"/>
  <path fill="none" d="M 1804.00 1615.00 L 1825.00 1511.95 L 1806.00 1511.00 L 1614.00 1511.00 L 1580.00 1615.00 Z" stroke-width="1" id="272-18-06" stroke="black"/>
  <path fill="none" d="M 1806.00 1615.00 L 1826.00 1616.00 L 1913.23 1616.00 L 1903.00 1518.00 L 1903.27 1512.00 L 1826.00 1512.00 L 1825.00 1511.95 L 1804.00 1615.00 Z" stroke-width="1" id="272-18-07" stroke="black"/>
  <path fill="none" d="M 354.22 1610.00 L 348.00 1648.00 L 313.00 1680.00 L 328.00 1699.00 L 334.24 1698.76 L 346.00 1687.00 L 426.00 1687.00 L 446.00 1688.00 L 462.00 1688.00 L 524.00 1611.00 L 466.00 1611.00 L 446.00 1610.00 Z" stroke-width="1" id="272-19-01" stroke="black"/>
  <path fill="none" d="M 466.00 1688.00 L 486.00 1708.00 L 506.00 1708.00 L 526.00 1688.00 L 647.00 1688.00 L 665.00 1611.00 L 524.00 1611.00 L 462.00 1688.00 Z" stroke-width="1" id="272-19-02" stroke="black"/>
  <path fill="none" d="M 686.00 1688.00 L 706.00 1689.00 L 742.00 1689.00 L 806.00 1612.00 L 786.00 1612.00 L 766.00 1592.00 L 746.00 1592.00 L 726.00 1591.00 L 706.00 1611.00 L 665.00 1611.00 L 647.00 1688.00 Z" stroke-width="1" id="272-19-03" stroke="black"/>
  <path fill="none" d="M 886.00 1689.00 L 906.00 1709.00 L 926.00 1689.00 L 946.00 1689.00 L 966.00 1690.00 L 977.00 1690.00 L 997.00 1612.55 L 986.00 1612.00 L 866.00 1612.00 L 846.00 1592.00 L 826.00 1612.00 L 806.00 1612.00 L 742.00 1689.00 Z" stroke-width="1" id="272-19-04" stroke="black"/>
  <path fill="none" d="M 1026.00 1690.00 L 1046.00 1670.00 L 1064.00 1670.00 L 1087.00 1613.00 L 1066.00 1613.00 L 1046.00 1633.00 L 1026.00 1633.00 L 1006.00 1613.00 L 997.00 1612.55 L 977.00 1690.00 Z" stroke-width="1" id="272-19-05" stroke="black"/>
  <path fill="none" d="M 1066.00 1670.00 L 1086.00 1690.00 L 1146.00 1690.00 L 1166.00 1710.00 L 1186.00 1710.00 L 1206.00 1690.00 L 1226.00 1691.00 L 1371.00 1691.00 L 1397.00 1625.00 L 1386.00 1614.00 L 1286.00 1614.00 L 1266.00 1613.00 L 1186.00 1613.00 L 1166.00 1593.00 L 1146.00 1593.00 L 1126.00 1613.00 L 1087.00 1613.00 L 1064.00 1670.00 Z" stroke-width="1" id="272-19-06" stroke="black"/>
  <path fill="none" d="M 1446.00 1691.00 L 1466.00 1692.00 L 1517.00 1692.00 L 1532.00 1614.30 L 1526.00 1614.00 L 1506.00 1614.00 L 1486.00 1594.00 L 1466.00 1614.00 L 1426.00 1614.00 L 1406.00 1634.00 L 1397.00 1625.00 L 1371.00 1691.00 Z" stroke-width="1" id="272-19-07" stroke="black"/>
  <path fill="none" d="M 1595.00 1692.00 L 1615.00 1615.00 L 1546.00 1615.00 L 1532.00 1614.30 L 1517.00 1692.00 Z" stroke-width="1" id="272-19-08" stroke="black"/>
  <path fill="none" d="M 1706.00 1692.00 L 1726.00 1693.00 L 1806.00 1693.00 L 1826.00 1673.00 L 1828.23 1616.00 L 1826.00 1616.00 L 1806.00 1615.00 L 1615.00 1615.00 L 1595.00 1692.00 Z" stroke-width="1" id="272-19-09" stroke="black"/>
  <path fill="none" d="M 1846.00 1673.00 L 1857.00 1684.00 L 1900.00 1657.00 L 1915.00 1633.00 L 1913.23 1616.00 L 1828.23 1616.00 L 1826.00 1673.00 Z" stroke-width="1" id="272-19-10" stroke="black"/>
  <path fill="none" d="M 346.00 1687.00 L 334.24 1698.76 L 354.00 1698.00 L 348.00 1720.00 L 331.00 1744.00 L 354.00 1755.00 L 353.33 1762.00 L 426.00 1762.00 L 446.00 1763.00 L 500.00 1763.00 L 544.00 1688.00 L 526.00 1688.00 L 506.00 1708.00 L 486.00 1708.00 L 466.00 1688.00 L 446.00 1688.00 L 426.00 1687.00 Z" stroke-width="1" id="272-20-01" stroke="black"/>
  <path fill="none" d="M 666.00 1763.00 L 686.00 1764.00 L 698.00 1764.00 L 734.00 1689.00 L 706.00 1689.00 L 686.00 1688.00 L 544.00 1688.00 L 500.00 1763.00 Z" stroke-width="1" id="272-20-02" stroke="black"/>
  <path fill="none" d="M 706.00 1764.00 L 726.00 1784.00 L 746.00 1764.00 L 757.00 1786.00 L 839.00 1689.00 L 734.00 1689.00 L 698.00 1764.00 Z" stroke-width="1" id="272-20-03" stroke="black"/>
  <path fill="none" d="M 766.00 1804.00 L 786.00 1804.00 L 806.00 1784.00 L 826.00 1784.00 L 846.00 1764.00 L 926.00 1764.00 L 946.00 1765.00 L 960.00 1765.00 L 994.00 1690.00 L 966.00 1690.00 L 946.00 1689.00 L 926.00 1689.00 L 906.00 1709.00 L 886.00 1689.00 L 839.00 1689.00 L 757.00 1786.00 Z" stroke-width="1" id="272-20-04" stroke="black"/>
  <path fill="none" d="M 1106.00 1765.00 L 1126.00 1785.00 L 1146.00 1765.00 L 1166.00 1765.00 L 1186.00 1766.00 L 1246.00 1766.00 L 1266.00 1786.00 L 1306.00 1786.00 L 1326.00 1766.00 L 1346.00 1766.00 L 1360.00 1780.00 L 1398.00 1691.00 L 1226.00 1691.00 L 1206.00 1690.00 L 1186.00 1710.00 L 1166.00 1710.00 L 1146.00 1690.00 L 1086.00 1690.00 L 1066.00 1670.00 L 1046.00 1670.00 L 1026.00 1690.00 L 994.00 1690.00 L 960.00 1765.00 Z" stroke-width="1" id="272-20-05" stroke="black"/>
  <path fill="none" d="M 1366.00 1786.00 L 1406.00 1786.00 L 1426.00 1766.00 L 1446.00 1767.00 L 1501.00 1767.00 L 1521.00 1692.00 L 1466.00 1692.00 L 1446.00 1691.00 L 1398.00 1691.00 L 1360.00 1780.00 Z" stroke-width="1" id="272-20-06" stroke="black"/>
  <path fill="none" d="M 1666.00 1767.00 L 1686.00 1768.00 L 1706.00 1748.00 L 1726.00 1768.00 L 1732.00 1768.00 L 1781.00 1693.00 L 1726.00 1693.00 L 1706.00 1692.00 L 1521.00 1692.00 L 1501.00 1767.00 Z" stroke-width="1" id="272-20-07" stroke="black"/>
  <path fill="none" d="M 1865.69 1768.00 L 1857.00 1684.00 L 1846.00 1673.00 L 1826.00 1673.00 L 1806.00 1693.00 L 1781.00 1693.00 L 1732.00 1768.00 Z" stroke-width="1" id="272-20-08" stroke="black"/>
  <path fill="none" d="M 353.33 1762.00 L 349.00 1807.00 L 330.00 1827.00 L 331.00 1845.00 L 349.00 1848.00 L 348.85 1855.00 L 446.00 1855.00 L 466.00 1856.00 L 471.00 1856.00 L 519.00 1763.00 L 446.00 1763.00 L 426.00 1762.00 Z" stroke-width="1" id="272-21-01" stroke="black"/>
  <path fill="none" d="M 572.00 1856.00 L 596.00 1763.00 L 519.00 1763.00 L 471.00 1856.00 Z" stroke-width="1" id="272-21-02" stroke="black"/>
  <path fill="none" d="M 646.00 1856.00 L 666.00 1868.00 L 706.00 1868.00 L 726.00 1857.00 L 886.00 1857.00 L 925.00 1764.00 L 846.00 1764.00 L 826.00 1784.00 L 806.00 1784.00 L 786.00 1804.00 L 766.00 1804.00 L 746.00 1764.00 L 726.00 1784.00 L 706.00 1764.00 L 686.00 1764.00 L 666.00 1763.00 L 596.00 1763.00 L 572.00 1856.00 Z" stroke-width="1" id="272-21-03" stroke="black"/>
  <path fill="none" d="M 906.00 1908.00 L 926.00 1904.00 L 946.00 1896.00 L 966.00 1892.00 L 986.00 1894.00 L 1006.00 1888.00 L 1026.00 1872.00 L 1046.00 1870.00 L 1066.00 1858.00 L 1156.00 1858.00 L 1192.00 1766.00 L 1186.00 1766.00 L 1166.00 1765.00 L 1146.00 1765.00 L 1126.00 1785.00 L 1106.00 1765.00 L 1005.00 1765.00 L 899.00 1890.15 Z" stroke-width="1" id="272-21-04" stroke="black"/>
  <path fill="none" d="M 1226.00 1858.00 L 1246.00 1859.00 L 1389.00 1859.00 L 1406.00 1786.00 L 1366.00 1786.00 L 1346.00 1766.00 L 1326.00 1766.00 L 1306.00 1786.00 L 1266.00 1786.00 L 1246.00 1766.00 L 1192.00 1766.00 L 1156.00 1858.00 Z" stroke-width="1" id="272-21-05" stroke="black"/>
  <path fill="none" d="M 1486.00 1859.00 L 1506.00 1860.00 L 1526.00 1860.00 L 1561.00 1767.00 L 1446.00 1767.00 L 1426.00 1766.00 L 1406.00 1786.00 L 1389.00 1859.00 Z" stroke-width="1" id="272-21-06" stroke="black"/>
  <path fill="none" d="M 1546.00 1880.00 L 1566.00 1880.00 L 1586.00 1860.00 L 1725.00 1860.00 L 1750.69 1768.00 L 1726.00 1768.00 L 1706.00 1748.00 L 1686.00 1768.00 L 1666.00 1767.00 L 1561.00 1767.00 L 1526.00 1860.00 Z" stroke-width="1" id="272-21-07" stroke="black"/>
  <path fill="none" d="M 1766.00 1860.00 L 1786.00 1861.00 L 1874.30 1861.00 L 1869.00 1800.00 L 1865.69 1768.00 L 1750.69 1768.00 L 1725.00 1860.00 Z" stroke-width="1" id="272-21-08" stroke="black"/>
  <path fill="none" d="M 348.85 1855.00 L 348.00 1896.00 L 325.00 1915.00 L 346.00 1930.00 L 346.67 1940.00 L 506.00 1940.00 L 526.00 1941.00 L 743.00 1941.00 L 768.00 1857.00 L 726.00 1857.00 L 706.00 1868.00 L 666.00 1868.00 L 646.00 1856.00 L 466.00 1856.00 L 446.00 1855.00 Z" stroke-width="1" id="272-22-01" stroke="black"/>
  <path fill="none" d="M 821.00 1941.00 L 849.00 1857.00 L 768.00 1857.00 L 743.00 1941.00 Z" stroke-width="1" id="272-22-02" stroke="black"/>
  <path fill="none" d="M 826.00 1941.00 L 846.00 1942.00 L 1066.00 1942.00 L 1124.00 1858.00 L 1066.00 1858.00 L 1046.00 1870.00 L 1026.00 1872.00 L 1006.00 1888.00 L 986.00 1894.00 L 966.00 1892.00 L 946.00 1896.00 L 926.00 1904.00 L 906.00 1908.00 L 886.00 1857.00 L 849.00 1857.00 L 821.00 1941.00 Z" stroke-width="1" id="272-22-03" stroke="black"/>
  <path fill="none" d="M 1086.00 1962.00 L 1106.00 1962.00 L 1126.00 1942.00 L 1146.00 1942.00 L 1166.00 1943.00 L 1246.00 1943.00 L 1251.00 1948.00 L 1300.00 1859.00 L 1246.00 1859.00 L 1226.00 1858.00 L 1124.00 1858.00 L 1066.00 1942.00 Z" stroke-width="1" id="272-22-04" stroke="black"/>
  <path fill="none" d="M 1266.00 1963.00 L 1286.00 1963.00 L 1306.00 1943.00 L 1466.00 1943.00 L 1486.00 1944.00 L 1649.00 1944.00 L 1647.00 1860.00 L 1586.00 1860.00 L 1566.00 1880.00 L 1546.00 1880.00 L 1526.00 1860.00 L 1506.00 1860.00 L 1486.00 1859.00 L 1300.00 1859.00 L 1251.00 1948.00 Z" stroke-width="1" id="272-22-05" stroke="black"/>
  <path fill="none" d="M 1777.00 1944.00 L 1812.30 1861.00 L 1786.00 1861.00 L 1766.00 1860.00 L 1647.00 1860.00 L 1649.00 1944.00 Z" stroke-width="1" id="272-22-06" stroke="black"/>
  <path fill="none" d="M 1786.00 1944.00 L 1806.00 1945.00 L 1892.32 1945.00 L 1881.00 1938.00 L 1874.30 1861.00 L 1812.30 1861.00 L 1777.00 1944.00 Z" stroke-width="1" id="272-22-07" stroke="black"/>
  <path fill="none" d="M 346.67 1940.00 L 349.00 1975.00 L 321.00 1996.00 L 344.88 2019.00 L 386.00 2019.00 L 406.00 2020.00 L 499.00 2020.00 L 529.00 1941.00 L 526.00 1941.00 L 506.00 1940.00 Z" stroke-width="1" id="272-23-01" stroke="black"/>
  <path fill="none" d="M 584.00 2020.00 L 619.00 1941.00 L 529.00 1941.00 L 499.00 2020.00 Z" stroke-width="1" id="272-23-02" stroke="black"/>
  <path fill="none" d="M 586.00 2020.00 L 606.00 2021.00 L 646.00 2021.00 L 656.00 2041.00 L 709.00 1941.00 L 619.00 1941.00 L 584.00 2020.00 Z" stroke-width="1" id="272-23-03" stroke="black"/>
  <path fill="none" d="M 666.00 2061.00 L 706.00 2061.00 L 726.00 2041.00 L 746.00 2021.00 L 786.00 2021.00 L 806.00 2022.00 L 851.00 2022.00 L 865.00 1942.00 L 846.00 1942.00 L 826.00 1941.00 L 709.00 1941.00 L 656.00 2041.00 Z" stroke-width="1" id="272-23-04" stroke="black"/>
  <path fill="none" d="M 981.00 2022.00 L 1017.00 1942.00 L 865.00 1942.00 L 851.00 2022.00 Z" stroke-width="1" id="272-23-05" stroke="black"/>
  <path fill="none" d="M 986.00 2022.00 L 1006.00 2023.00 L 1186.00 2023.00 L 1197.00 2023.55 L 1225.00 1943.00 L 1166.00 1943.00 L 1146.00 1942.00 L 1126.00 1942.00 L 1106.00 1962.00 L 1086.00 1962.00 L 1066.00 1942.00 L 1017.00 1942.00 L 981.00 2022.00 Z" stroke-width="1" id="272-23-06" stroke="black"/>
  <path fill="none" d="M 1206.00 2024.00 L 1346.00 2024.00 L 1366.00 2044.00 L 1386.00 2024.00 L 1406.00 2025.00 L 1486.00 2025.00 L 1513.00 1944.00 L 1486.00 1944.00 L 1466.00 1943.00 L 1306.00 1943.00 L 1286.00 1963.00 L 1266.00 1963.00 L 1246.00 1943.00 L 1225.00 1943.00 L 1197.00 2023.55 Z" stroke-width="1" id="272-23-07" stroke="black"/>
  <path fill="none" d="M 1549.00 2025.00 L 1566.00 1944.00 L 1513.00 1944.00 L 1486.00 2025.00 Z" stroke-width="1" id="272-23-08" stroke="black"/>
  <path fill="none" d="M 1586.00 2025.00 L 1606.00 2026.00 L 1617.00 2026.00 L 1652.00 1944.00 L 1566.00 1944.00 L 1549.00 2025.00 Z" stroke-width="1" id="272-23-09" stroke="black"/>
  <path fill="none" d="M 1673.00 2026.00 L 1696.00 1944.00 L 1652.00 1944.00 L 1617.00 2026.00 Z" stroke-width="1" id="272-23-10" stroke="black"/>
  <path fill="none" d="M 1746.00 2026.00 L 1766.00 2046.00 L 1786.00 2046.00 L 1806.00 2047.00 L 1826.00 2047.00 L 1846.00 2027.00 L 1896.56 2027.00 L 1941.00 2022.00 L 1936.00 1972.00 L 1892.32 1945.00 L 1806.00 1945.00 L 1786.00 1944.00 L 1696.00 1944.00 L 1673.00 2026.00 Z" stroke-width="1" id="272-23-11" stroke="black"/>
  <path fill="none" d="M 344.88 2019.00 L 348.00 2022.00 L 348.00 2059.00 L 327.00 2086.00 L 349.00 2103.00 L 348.91 2107.00 L 443.91 2107.00 L 464.00 2020.00 L 406.00 2020.00 L 386.00 2019.00 Z" stroke-width="1" id="272-24-01" stroke="black"/>
  <path fill="none" d="M 466.00 2107.00 L 483.00 2107.85 L 552.00 2020.00 L 464.00 2020.00 L 443.91 2107.00 Z" stroke-width="1" id="272-24-02" stroke="black"/>
  <path fill="none" d="M 486.00 2108.00 L 656.00 2108.00 L 666.00 2061.00 L 646.00 2021.00 L 606.00 2021.00 L 586.00 2020.00 L 552.00 2020.00 L 483.00 2107.85 Z" stroke-width="1" id="272-24-03" stroke="black"/>
  <path fill="none" d="M 746.00 2108.00 L 766.00 2109.00 L 908.00 2109.00 L 947.00 2022.00 L 806.00 2022.00 L 786.00 2021.00 L 746.00 2021.00 L 726.00 2041.00 L 706.00 2061.00 L 666.00 2061.00 L 656.00 2108.00 Z" stroke-width="1" id="272-24-04" stroke="black"/>
  <path fill="none" d="M 1026.00 2109.00 L 1046.00 2110.00 L 1161.00 2110.00 L 1195.00 2023.45 L 1186.00 2023.00 L 1006.00 2023.00 L 986.00 2022.00 L 947.00 2022.00 L 908.00 2109.00 Z" stroke-width="1" id="272-24-05" stroke="black"/>
  <path fill="none" d="M 1266.00 2110.00 L 1289.00 2024.00 L 1206.00 2024.00 L 1195.00 2023.45 L 1161.00 2110.00 Z" stroke-width="1" id="272-24-06" stroke="black"/>
  <path fill="none" d="M 1326.00 2110.00 L 1346.00 2111.00 L 1371.00 2111.00 L 1401.00 2024.75 L 1386.00 2024.00 L 1366.00 2044.00 L 1346.00 2024.00 L 1289.00 2024.00 L 1266.00 2110.00 Z" stroke-width="1" id="272-24-07" stroke="black"/>
  <path fill="none" d="M 1528.00 2111.00 L 1568.00 2025.00 L 1406.00 2025.00 L 1401.00 2024.75 L 1371.00 2111.00 Z" stroke-width="1" id="272-24-08" stroke="black"/>
  <path fill="none" d="M 1606.00 2111.00 L 1626.00 2112.00 L 1806.00 2112.00 L 1826.00 2132.00 L 1846.00 2112.00 L 1852.11 2112.00 L 1861.00 2031.00 L 1896.56 2027.00 L 1846.00 2027.00 L 1826.00 2047.00 L 1806.00 2047.00 L 1786.00 2046.00 L 1766.00 2046.00 L 1746.00 2026.00 L 1606.00 2026.00 L 1586.00 2025.00 L 1568.00 2025.00 L 1528.00 2111.00 Z" stroke-width="1" id="272-24-09" stroke="black"/>
  <path fill="none" d="M 348.91 2107.00 L 348.00 2148.00 L 322.00 2202.00 L 347.33 2214.67 L 366.00 2196.00 L 406.00 2196.00 L 426.00 2206.00 L 446.00 2206.00 L 466.00 2196.00 L 546.00 2196.00 L 566.00 2216.00 L 586.00 2216.00 L 606.00 2196.00 L 658.00 2196.00 L 671.00 2108.00 L 486.00 2108.00 L 466.00 2107.00 Z" stroke-width="1" id="272-25-01" stroke="black"/>
  <path fill="none" d="M 826.00 2196.00 L 846.00 2197.00 L 864.00 2197.00 L 903.00 2109.00 L 766.00 2109.00 L 746.00 2108.00 L 732.00 2108.00 L 720.00 2196.00 Z" stroke-width="1" id="272-25-02" stroke="black"/>
  <path fill="none" d="M 989.00 2197.00 L 1023.00 2109.00 L 903.00 2109.00 L 864.00 2197.00 Z" stroke-width="1" id="272-25-03" stroke="black"/>
  <path fill="none" d="M 1228.00 2197.00 L 1259.00 2110.00 L 1046.00 2110.00 L 1026.00 2109.00 L 1023.00 2109.00 L 989.00 2197.00 Z" stroke-width="1" id="272-25-04" stroke="black"/>
  <path fill="none" d="M 1466.00 2197.00 L 1486.00 2198.00 L 1605.00 2198.00 L 1646.00 2112.00 L 1626.00 2112.00 L 1606.00 2111.00 L 1346.00 2111.00 L 1326.00 2110.00 L 1259.00 2110.00 L 1228.00 2197.00 Z" stroke-width="1" id="272-25-05" stroke="black"/>
  <path fill="none" d="M 1606.00 2198.00 L 1626.00 2218.00 L 1646.00 2198.00 L 1732.00 2198.00 L 1765.00 2112.00 L 1646.00 2112.00 L 1605.00 2198.00 Z" stroke-width="1" id="272-25-06" stroke="black"/>
  <path fill="none" d="M 1845.31 2198.00 L 1852.00 2113.00 L 1852.11 2112.00 L 1846.00 2112.00 L 1826.00 2132.00 L 1806.00 2112.00 L 1765.00 2112.00 L 1732.00 2198.00 Z" stroke-width="1" id="272-25-07" stroke="black"/>
  <path fill="none" d="M 366.00 2196.00 L 347.33 2214.67 L 348.00 2215.00 L 343.00 2275.00 L 343.86 2293.00 L 406.00 2293.00 L 426.00 2313.00 L 446.00 2313.00 L 466.00 2293.00 L 526.00 2293.00 L 546.00 2294.00 L 549.00 2294.00 L 586.00 2216.00 L 566.00 2216.00 L 546.00 2196.00 L 466.00 2196.00 L 446.00 2206.00 L 426.00 2206.00 L 406.00 2196.00 Z" stroke-width="1" id="272-26-01" stroke="black"/>
  <path fill="none" d="M 566.00 2294.00 L 586.00 2314.00 L 606.00 2314.00 L 626.00 2294.00 L 806.00 2294.00 L 826.00 2274.00 L 846.00 2314.00 L 866.00 2314.00 L 886.00 2294.00 L 906.00 2295.00 L 931.00 2295.00 L 964.00 2197.00 L 846.00 2197.00 L 826.00 2196.00 L 606.00 2196.00 L 586.00 2216.00 L 549.00 2294.00 Z" stroke-width="1" id="272-26-02" stroke="black"/>
  <path fill="none" d="M 1008.00 2295.00 L 1066.00 2197.00 L 964.00 2197.00 L 931.00 2295.00 Z" stroke-width="1" id="272-26-03" stroke="black"/>
  <path fill="none" d="M 1217.00 2295.00 L 1272.00 2197.00 L 1066.00 2197.00 L 1008.00 2295.00 Z" stroke-width="1" id="272-26-04" stroke="black"/>
  <path fill="none" d="M 1246.00 2295.00 L 1266.00 2296.00 L 1406.00 2296.00 L 1426.00 2276.00 L 1446.00 2296.00 L 1564.00 2296.00 L 1580.00 2198.00 L 1486.00 2198.00 L 1466.00 2197.00 L 1272.00 2197.00 L 1217.00 2295.00 Z" stroke-width="1" id="272-26-05" stroke="black"/>
  <path fill="none" d="M 1606.00 2296.00 L 1626.00 2297.00 L 1666.00 2297.00 L 1686.00 2277.00 L 1706.00 2297.00 L 1744.00 2297.00 L 1758.31 2198.00 L 1646.00 2198.00 L 1626.00 2218.00 L 1606.00 2198.00 L 1580.00 2198.00 L 1564.00 2296.00 Z" stroke-width="1" id="272-26-06" stroke="black"/>
  <path fill="none" d="M 1902.78 2297.00 L 1881.00 2248.00 L 1845.00 2202.00 L 1845.31 2198.00 L 1758.31 2198.00 L 1744.00 2297.00 Z" stroke-width="1" id="272-26-07" stroke="black"/>
  <path fill="none" d="M 343.86 2293.00 L 345.00 2317.00 L 340.00 2376.00 L 340.12 2378.00 L 426.00 2378.00 L 446.00 2379.00 L 598.00 2379.00 L 606.00 2314.00 L 586.00 2314.00 L 566.00 2294.00 L 546.00 2294.00 L 526.00 2293.00 L 466.00 2293.00 L 446.00 2313.00 L 426.00 2313.00 L 406.00 2293.00 Z" stroke-width="1" id="272-27-01" stroke="black"/>
  <path fill="none" d="M 646.00 2379.00 L 666.00 2359.00 L 669.00 2362.15 L 697.00 2294.00 L 626.00 2294.00 L 606.00 2314.00 L 598.00 2379.00 Z" stroke-width="1" id="272-27-02" stroke="black"/>
  <path fill="none" d="M 686.00 2380.00 L 726.00 2380.00 L 746.00 2400.00 L 766.00 2380.00 L 826.00 2380.00 L 846.00 2400.00 L 866.00 2380.00 L 926.00 2380.00 L 946.00 2381.00 L 959.00 2381.00 L 971.00 2295.00 L 906.00 2295.00 L 886.00 2294.00 L 866.00 2314.00 L 846.00 2314.00 L 826.00 2274.00 L 806.00 2294.00 L 697.00 2294.00 L 669.00 2362.15 Z" stroke-width="1" id="272-27-03" stroke="black"/>
  <path fill="none" d="M 1076.00 2381.00 L 1102.00 2295.00 L 971.00 2295.00 L 959.00 2381.00 Z" stroke-width="1" id="272-27-04" stroke="black"/>
  <path fill="none" d="M 1166.00 2381.00 L 1186.00 2362.00 L 1206.00 2362.00 L 1226.00 2382.00 L 1298.00 2382.00 L 1328.00 2296.00 L 1266.00 2296.00 L 1246.00 2295.00 L 1102.00 2295.00 L 1076.00 2381.00 Z" stroke-width="1" id="272-27-05" stroke="black"/>
  <path fill="none" d="M 1426.00 2382.00 L 1446.00 2383.00 L 1522.00 2383.00 L 1564.00 2296.00 L 1446.00 2296.00 L 1426.00 2276.00 L 1406.00 2296.00 L 1328.00 2296.00 L 1298.00 2382.00 Z" stroke-width="1" id="272-27-06" stroke="black"/>
  <path fill="none" d="M 1666.00 2383.00 L 1686.00 2384.00 L 1706.00 2364.00 L 1746.00 2364.00 L 1776.78 2297.00 L 1706.00 2297.00 L 1686.00 2277.00 L 1666.00 2297.00 L 1626.00 2297.00 L 1606.00 2296.00 L 1564.00 2296.00 L 1522.00 2383.00 Z" stroke-width="1" id="272-27-07" stroke="black"/>
  <path fill="none" d="M 1766.00 2384.00 L 1786.00 2384.00 L 1806.00 2364.00 L 1826.00 2384.00 L 1906.00 2384.00 L 1906.55 2384.03 L 1909.00 2311.00 L 1902.78 2297.00 L 1776.78 2297.00 L 1746.00 2364.00 Z" stroke-width="1" id="272-27-08" stroke="black"/>
  <path fill="none" d="M 340.12 2378.00 L 342.00 2410.00 L 324.00 2424.00 L 345.00 2442.00 L 343.90 2460.00 L 446.00 2460.00 L 466.00 2461.00 L 526.00 2461.00 L 546.00 2441.00 L 566.00 2441.00 L 573.00 2448.00 L 619.00 2379.00 L 446.00 2379.00 L 426.00 2378.00 Z" stroke-width="1" id="272-28-01" stroke="black"/>
  <path fill="none" d="M 586.00 2461.00 L 684.00 2461.00 L 746.00 2400.00 L 726.00 2380.00 L 686.00 2380.00 L 666.00 2359.00 L 646.00 2379.00 L 619.00 2379.00 L 573.00 2448.00 Z" stroke-width="1" id="272-28-02" stroke="black"/>
  <path fill="none" d="M 686.00 2461.00 L 706.00 2481.00 L 726.00 2482.00 L 746.00 2482.00 L 766.00 2462.00 L 927.00 2462.00 L 937.00 2380.55 L 926.00 2380.00 L 866.00 2380.00 L 846.00 2400.00 L 826.00 2380.00 L 766.00 2380.00 L 746.00 2400.00 L 684.00 2461.00 Z" stroke-width="1" id="272-28-03" stroke="black"/>
  <path fill="none" d="M 966.00 2462.00 L 986.00 2463.00 L 1046.00 2463.00 L 1066.00 2443.00 L 1086.00 2463.00 L 1092.00 2463.00 L 1111.00 2381.00 L 946.00 2381.00 L 937.00 2380.55 L 927.00 2462.00 Z" stroke-width="1" id="272-28-04" stroke="black"/>
  <path fill="none" d="M 1246.00 2463.00 L 1266.00 2464.00 L 1366.00 2464.00 L 1386.00 2478.00 L 1406.00 2478.00 L 1426.00 2464.00 L 1500.00 2464.00 L 1503.00 2383.00 L 1446.00 2383.00 L 1426.00 2382.00 L 1226.00 2382.00 L 1206.00 2362.00 L 1186.00 2362.00 L 1166.00 2381.00 L 1111.00 2381.00 L 1092.00 2463.00 Z" stroke-width="1" id="272-28-05" stroke="black"/>
  <path fill="none" d="M 1626.00 2465.00 L 1646.00 2445.00 L 1648.00 2447.00 L 1761.00 2379.00 L 1746.00 2364.00 L 1706.00 2364.00 L 1686.00 2384.00 L 1666.00 2383.00 L 1639.00 2383.00 L 1608.00 2465.00 Z" stroke-width="1" id="272-28-06" stroke="black"/>
  <path fill="none" d="M 1666.00 2465.00 L 1766.00 2465.00 L 1786.00 2466.00 L 1874.18 2466.00 L 1875.00 2455.00 L 1905.00 2430.00 L 1906.55 2384.03 L 1906.00 2384.00 L 1826.00 2384.00 L 1806.00 2364.00 L 1786.00 2384.00 L 1766.00 2384.00 L 1761.00 2379.00 L 1648.00 2447.00 Z" stroke-width="1" id="272-28-07" stroke="black"/>
  <path fill="none" d="M 343.90 2460.00 L 342.00 2491.00 L 319.00 2506.00 L 342.00 2524.00 L 342.00 2537.00 L 437.00 2537.00 L 467.00 2461.00 L 466.00 2461.00 L 446.00 2460.00 Z" stroke-width="1" id="272-29-01" stroke="black"/>
  <path fill="none" d="M 446.00 2537.00 L 466.00 2538.00 L 586.00 2538.00 L 606.00 2539.00 L 641.00 2539.00 L 671.00 2461.00 L 586.00 2461.00 L 566.00 2441.00 L 546.00 2441.00 L 526.00 2461.00 L 467.00 2461.00 L 437.00 2537.00 Z" stroke-width="1" id="272-29-02" stroke="black"/>
  <path fill="none" d="M 726.00 2539.00 L 746.00 2540.00 L 826.00 2540.00 L 846.00 2560.00 L 866.00 2560.00 L 886.00 2541.00 L 902.00 2541.00 L 948.00 2462.00 L 766.00 2462.00 L 746.00 2482.00 L 726.00 2482.00 L 706.00 2481.00 L 686.00 2461.00 L 671.00 2461.00 L 641.00 2539.00 Z" stroke-width="1" id="272-29-03" stroke="black"/>
  <path fill="none" d="M 978.00 2541.00 L 1022.00 2463.00 L 986.00 2463.00 L 966.00 2462.00 L 948.00 2462.00 L 902.00 2541.00 Z" stroke-width="1" id="272-29-04" stroke="black"/>
  <path fill="none" d="M 1006.00 2541.00 L 1026.00 2542.00 L 1086.00 2542.00 L 1106.00 2562.00 L 1126.00 2562.00 L 1146.00 2542.00 L 1166.00 2543.00 L 1186.00 2523.00 L 1206.00 2543.00 L 1286.00 2543.00 L 1289.00 2543.15 L 1309.00 2464.00 L 1266.00 2464.00 L 1246.00 2463.00 L 1086.00 2463.00 L 1066.00 2443.00 L 1046.00 2463.00 L 1022.00 2463.00 L 978.00 2541.00 Z" stroke-width="1" id="272-29-05" stroke="black"/>
  <path fill="none" d="M 1306.00 2544.00 L 1366.00 2544.00 L 1386.00 2524.00 L 1406.00 2544.00 L 1426.00 2544.00 L 1446.00 2545.00 L 1481.00 2545.00 L 1534.00 2465.00 L 1526.00 2465.00 L 1506.00 2464.00 L 1426.00 2464.00 L 1406.00 2478.00 L 1386.00 2478.00 L 1366.00 2464.00 L 1309.00 2464.00 L 1289.00 2543.15 Z" stroke-width="1" id="272-29-06" stroke="black"/>
  <path fill="none" d="M 1566.00 2545.00 L 1586.00 2546.00 L 1644.00 2546.00 L 1695.00 2465.00 L 1666.00 2465.00 L 1646.00 2445.00 L 1626.00 2465.00 L 1534.00 2465.00 L 1481.00 2545.00 Z" stroke-width="1" id="272-29-07" stroke="black"/>
  <path fill="none" d="M 1706.00 2546.00 L 1726.00 2547.00 L 1846.00 2547.00 L 1866.00 2548.00 L 1896.44 2548.00 L 1869.00 2535.00 L 1874.18 2466.00 L 1786.00 2466.00 L 1766.00 2465.00 L 1695.00 2465.00 L 1644.00 2546.00 Z" stroke-width="1" id="272-29-08" stroke="black"/>
  <path fill="none" d="M 342.00 2537.00 L 342.00 2572.00 L 319.00 2605.00 L 322.00 2632.00 L 337.00 2646.00 L 346.00 2646.00 L 366.00 2626.00 L 386.00 2627.00 L 406.00 2627.00 L 417.00 2638.00 L 491.00 2538.00 L 466.00 2538.00 L 446.00 2537.00 Z" stroke-width="1" id="272-30-01" stroke="black"/>
  <path fill="none" d="M 426.00 2647.00 L 446.00 2667.00 L 466.00 2647.00 L 486.00 2647.00 L 506.00 2627.00 L 546.00 2627.00 L 566.00 2608.00 L 586.00 2628.00 L 656.00 2628.00 L 669.00 2539.00 L 606.00 2539.00 L 586.00 2538.00 L 491.00 2538.00 L 417.00 2638.00 Z" stroke-width="1" id="272-30-02" stroke="black"/>
  <path fill="none" d="M 746.00 2628.00 L 766.00 2629.00 L 809.00 2629.00 L 847.00 2560.00 L 846.00 2560.00 L 826.00 2540.00 L 746.00 2540.00 L 726.00 2539.00 L 669.00 2539.00 L 656.00 2628.00 Z" stroke-width="1" id="272-30-03" stroke="black"/>
  <path fill="none" d="M 926.00 2629.00 L 946.00 2630.00 L 1077.00 2630.00 L 1106.00 2562.00 L 1086.00 2542.00 L 1026.00 2542.00 L 1006.00 2541.00 L 886.00 2541.00 L 866.00 2560.00 L 847.00 2560.00 L 809.00 2629.00 Z" stroke-width="1" id="272-30-04" stroke="black"/>
  <path fill="none" d="M 1106.00 2630.00 L 1111.00 2630.25 L 1206.00 2543.00 L 1186.00 2523.00 L 1166.00 2543.00 L 1146.00 2542.00 L 1126.00 2562.00 L 1106.00 2562.00 L 1077.00 2630.00 Z" stroke-width="1" id="272-30-05" stroke="black"/>
  <path fill="none" d="M 1126.00 2631.00 L 1278.00 2631.00 L 1306.00 2544.00 L 1286.00 2543.00 L 1206.00 2543.00 L 1111.00 2630.25 Z" stroke-width="1" id="272-30-06" stroke="black"/>
  <path fill="none" d="M 1306.00 2631.00 L 1326.00 2632.00 L 1486.00 2632.00 L 1506.00 2633.00 L 1511.00 2638.75 L 1592.00 2546.00 L 1586.00 2546.00 L 1566.00 2545.00 L 1446.00 2545.00 L 1426.00 2544.00 L 1406.00 2544.00 L 1386.00 2524.00 L 1366.00 2544.00 L 1306.00 2544.00 L 1278.00 2631.00 Z" stroke-width="1" id="272-30-07" stroke="black"/>
  <path fill="none" d="M 1526.00 2656.00 L 1546.00 2652.00 L 1566.00 2644.00 L 1586.00 2633.00 L 1686.00 2633.00 L 1706.00 2634.00 L 1718.00 2634.00 L 1739.00 2547.00 L 1726.00 2547.00 L 1706.00 2546.00 L 1592.00 2546.00 L 1511.00 2638.75 Z" stroke-width="1" id="272-30-08" stroke="black"/>
  <path fill="none" d="M 1858.00 2634.00 L 1865.00 2547.95 L 1846.00 2547.00 L 1739.00 2547.00 L 1718.00 2634.00 Z" stroke-width="1" id="272-30-09" stroke="black"/>
  <path fill="none" d="M 1866.00 2634.00 L 1874.88 2634.44 L 1939.00 2616.00 L 1945.00 2571.00 L 1896.44 2548.00 L 1866.00 2548.00 L 1865.00 2547.95 L 1858.00 2634.00 Z" stroke-width="1" id="272-30-10" stroke="black"/>
  <path fill="none" d="M 337.00 2646.00 L 336.00 2661.00 L 321.00 2685.00 L 336.00 2695.00 L 336.75 2705.00 L 445.75 2705.00 L 446.00 2667.00 L 426.00 2647.00 L 406.00 2627.00 L 386.00 2627.00 L 366.00 2626.00 L 346.00 2646.00 Z" stroke-width="1" id="272-31-01" stroke="black"/>
  <path fill="none" d="M 583.75 2705.00 L 630.00 2628.00 L 586.00 2628.00 L 566.00 2608.00 L 546.00 2627.00 L 506.00 2627.00 L 486.00 2647.00 L 466.00 2647.00 L 446.00 2667.00 L 445.75 2705.00 Z" stroke-width="1" id="272-31-02" stroke="black"/>
  <path fill="none" d="M 586.00 2705.00 L 606.00 2706.00 L 848.00 2706.00 L 887.00 2629.00 L 766.00 2629.00 L 746.00 2628.00 L 630.00 2628.00 L 583.75 2705.00 Z" stroke-width="1" id="272-31-03" stroke="black"/>
  <path fill="none" d="M 966.00 2706.00 L 986.00 2726.00 L 1006.00 2707.00 L 1026.00 2727.00 L 1046.00 2707.00 L 1086.00 2707.00 L 1106.00 2727.00 L 1146.00 2727.00 L 1166.00 2707.00 L 1240.00 2707.00 L 1280.00 2631.00 L 1126.00 2631.00 L 1106.00 2630.00 L 946.00 2630.00 L 926.00 2629.00 L 887.00 2629.00 L 848.00 2706.00 Z" stroke-width="1" id="272-31-04" stroke="black"/>
  <path fill="none" d="M 1246.00 2707.00 L 1266.00 2727.00 L 1286.00 2727.00 L 1306.00 2707.00 L 1406.00 2707.00 L 1426.00 2708.00 L 1473.00 2708.00 L 1472.00 2632.00 L 1326.00 2632.00 L 1306.00 2631.00 L 1280.00 2631.00 L 1240.00 2707.00 Z" stroke-width="1" id="272-31-05" stroke="black"/>
  <path fill="none" d="M 1613.00 2708.00 L 1636.00 2633.00 L 1586.00 2633.00 L 1566.00 2644.00 L 1546.00 2652.00 L 1526.00 2656.00 L 1506.00 2633.00 L 1486.00 2632.00 L 1472.00 2632.00 L 1473.00 2708.00 Z" stroke-width="1" id="272-31-06" stroke="black"/>
  <path fill="none" d="M 1806.00 2708.00 L 1826.00 2709.00 L 1848.22 2709.00 L 1866.00 2637.00 L 1874.88 2634.44 L 1866.00 2634.00 L 1706.00 2634.00 L 1686.00 2633.00 L 1636.00 2633.00 L 1613.00 2708.00 Z" stroke-width="1" id="272-31-07" stroke="black"/>
  <path fill="none" d="M 336.75 2705.00 L 340.00 2748.00 L 313.00 2794.00 L 329.80 2808.00 L 386.00 2808.00 L 406.00 2828.00 L 426.00 2828.00 L 446.00 2808.00 L 466.00 2809.00 L 505.00 2809.00 L 529.00 2705.00 Z" stroke-width="1" id="272-32-01" stroke="black"/>
  <path fill="none" d="M 686.00 2809.00 L 706.00 2789.00 L 726.00 2789.00 L 735.00 2798.45 L 792.00 2706.00 L 606.00 2706.00 L 586.00 2705.00 L 529.00 2705.00 L 505.00 2809.00 Z" stroke-width="1" id="272-32-02" stroke="black"/>
  <path fill="none" d="M 746.00 2810.00 L 826.00 2810.00 L 846.00 2830.00 L 866.00 2810.00 L 911.00 2810.00 L 960.00 2706.00 L 792.00 2706.00 L 735.00 2798.45 Z" stroke-width="1" id="272-32-03" stroke="black"/>
  <path fill="none" d="M 986.00 2810.00 L 1006.00 2811.00 L 1083.00 2811.00 L 1106.00 2727.00 L 1086.00 2707.00 L 1046.00 2707.00 L 1026.00 2727.00 L 1006.00 2707.00 L 986.00 2726.00 L 966.00 2706.00 L 960.00 2706.00 L 911.00 2810.00 Z" stroke-width="1" id="272-32-04" stroke="black"/>
  <path fill="none" d="M 1192.00 2811.00 L 1240.00 2707.00 L 1166.00 2707.00 L 1146.00 2727.00 L 1106.00 2727.00 L 1083.00 2811.00 Z" stroke-width="1" id="272-32-05" stroke="black"/>
  <path fill="none" d="M 1266.00 2811.00 L 1286.00 2812.00 L 1345.00 2812.00 L 1382.00 2707.00 L 1306.00 2707.00 L 1286.00 2727.00 L 1266.00 2727.00 L 1246.00 2707.00 L 1240.00 2707.00 L 1192.00 2811.00 Z" stroke-width="1" id="272-32-06" stroke="black"/>
  <path fill="none" d="M 1526.00 2812.00 L 1546.00 2813.00 L 1601.35 2813.00 L 1602.00 2808.00 L 1725.00 2793.59 L 1746.00 2708.00 L 1426.00 2708.00 L 1406.00 2707.00 L 1382.00 2707.00 L 1345.00 2812.00 Z" stroke-width="1" id="272-32-07" stroke="black"/>
  <path fill="none" d="M 1858.00 2778.00 L 1846.00 2718.00 L 1848.22 2709.00 L 1826.00 2709.00 L 1806.00 2708.00 L 1746.00 2708.00 L 1725.00 2793.59 Z" stroke-width="1" id="272-32-08" stroke="black"/>
  <path fill="none" d="M 329.80 2808.00 L 331.00 2809.00 L 336.00 2836.00 L 313.00 2856.00 L 337.00 2875.00 L 347.20 2879.00 L 386.00 2879.00 L 406.00 2880.00 L 598.00 2880.00 L 607.00 2809.00 L 466.00 2809.00 L 446.00 2808.00 L 426.00 2828.00 L 406.00 2828.00 L 386.00 2808.00 Z" stroke-width="1" id="272-33-01" stroke="black"/>
  <path fill="none" d="M 606.00 2880.00 L 626.00 2861.00 L 646.00 2881.00 L 757.00 2881.00 L 803.00 2810.00 L 746.00 2810.00 L 726.00 2789.00 L 706.00 2789.00 L 686.00 2809.00 L 607.00 2809.00 L 598.00 2880.00 Z" stroke-width="1" id="272-33-02" stroke="black"/>
  <path fill="none" d="M 826.00 2881.00 L 846.00 2902.00 L 866.00 2882.00 L 926.00 2882.00 L 946.00 2862.00 L 966.00 2882.00 L 1046.00 2882.00 L 1066.00 2883.00 L 1075.00 2883.00 L 1114.00 2811.00 L 1006.00 2811.00 L 986.00 2810.00 L 866.00 2810.00 L 846.00 2830.00 L 826.00 2810.00 L 803.00 2810.00 L 757.00 2881.00 Z" stroke-width="1" id="272-33-03" stroke="black"/>
  <path fill="none" d="M 1086.00 2883.00 L 1106.00 2903.00 L 1126.00 2903.00 L 1146.00 2883.00 L 1169.00 2883.00 L 1221.00 2811.00 L 1114.00 2811.00 L 1075.00 2883.00 Z" stroke-width="1" id="272-33-04" stroke="black"/>
  <path fill="none" d="M 1246.00 2883.00 L 1266.00 2884.00 L 1466.00 2884.00 L 1482.00 2884.80 L 1483.00 2812.00 L 1286.00 2812.00 L 1266.00 2811.00 L 1221.00 2811.00 L 1169.00 2883.00 Z" stroke-width="1" id="272-33-05" stroke="black"/>
  <path fill="none" d="M 1486.00 2885.00 L 1546.00 2885.00 L 1566.00 2865.00 L 1586.00 2885.00 L 1664.47 2885.00 L 1593.00 2877.00 L 1601.35 2813.00 L 1546.00 2813.00 L 1526.00 2812.00 L 1483.00 2812.00 L 1482.00 2884.80 Z" stroke-width="1" id="272-33-06" stroke="black"/>
  <path fill="none" d="M 347.20 2879.00 L 388.00 2895.00 L 391.00 2950.00 L 371.29 2965.29 L 386.00 2980.00 L 406.00 2994.00 L 426.00 2994.00 L 446.00 2988.00 L 466.00 2981.00 L 486.00 2961.00 L 546.00 2961.00 L 566.00 2962.00 L 569.00 2962.00 L 646.00 2881.00 L 626.00 2861.00 L 606.00 2880.00 L 406.00 2880.00 L 386.00 2879.00 Z" stroke-width="1" id="272-34-01" stroke="black"/>
  <path fill="none" d="M 726.00 2962.00 L 746.00 2963.00 L 804.00 2963.00 L 841.00 2896.75 L 826.00 2881.00 L 646.00 2881.00 L 569.00 2962.00 Z" stroke-width="1" id="272-34-02" stroke="black"/>
  <path fill="none" d="M 906.00 2963.00 L 923.00 2963.85 L 968.00 2882.00 L 966.00 2882.00 L 946.00 2862.00 L 926.00 2882.00 L 866.00 2882.00 L 846.00 2902.00 L 841.00 2896.75 L 804.00 2963.00 Z" stroke-width="1" id="272-34-03" stroke="black"/>
  <path fill="none" d="M 926.00 2964.00 L 1006.00 2964.00 L 1026.00 2998.00 L 1046.00 2984.00 L 1066.00 2984.00 L 1086.00 2964.00 L 1106.00 2965.00 L 1115.00 2965.00 L 1122.00 2903.00 L 1106.00 2903.00 L 1086.00 2883.00 L 1066.00 2883.00 L 1046.00 2882.00 L 968.00 2882.00 L 923.00 2963.85 Z" stroke-width="1" id="272-34-04" stroke="black"/>
  <path fill="none" d="M 1246.00 2965.00 L 1266.00 2985.00 L 1286.00 2986.00 L 1306.00 2966.00 L 1419.00 2966.00 L 1464.00 2884.00 L 1266.00 2884.00 L 1246.00 2883.00 L 1146.00 2883.00 L 1126.00 2903.00 L 1122.00 2903.00 L 1115.00 2965.00 Z" stroke-width="1" id="272-34-05" stroke="black"/>
  <path fill="none" d="M 1446.00 2966.00 L 1466.00 2967.00 L 1592.00 2967.00 L 1616.47 2885.00 L 1586.00 2885.00 L 1566.00 2865.00 L 1546.00 2885.00 L 1486.00 2885.00 L 1466.00 2884.00 L 1464.00 2884.00 L 1419.00 2966.00 Z" stroke-width="1" id="272-34-06" stroke="black"/>
  <path fill="none" d="M 1626.00 2967.00 L 1646.00 2968.00 L 1682.00 2968.00 L 1693.00 2888.19 L 1664.47 2885.00 L 1616.47 2885.00 L 1592.00 2967.00 Z" stroke-width="1" id="272-34-07" stroke="black"/>
  <path fill="none" d="M 1766.00 2968.00 L 1786.00 2988.00 L 1806.00 2968.00 L 1826.00 2969.00 L 1853.56 2969.00 L 1861.00 2907.00 L 1693.00 2888.19 L 1682.00 2968.00 Z" stroke-width="1" id="272-34-08" stroke="black"/>
  <path fill="none" d="M 342.00 2988.00 L 319.00 3013.00 L 316.00 3034.00 L 337.13 3052.00 L 366.00 3052.00 L 386.00 3053.00 L 441.00 3053.00 L 445.00 2988.30 L 426.00 2994.00 L 406.00 2994.00 L 386.00 2980.00 L 371.29 2965.29 Z" stroke-width="1" id="272-35-01" stroke="black"/>
  <path fill="none" d="M 466.00 3053.00 L 486.00 3074.00 L 506.00 3054.00 L 526.00 3074.00 L 546.00 3054.00 L 566.00 3054.00 L 586.00 3055.00 L 666.00 3055.00 L 686.00 3056.00 L 766.00 3056.00 L 786.00 3057.00 L 806.00 3037.00 L 826.00 3057.00 L 846.00 3077.00 L 866.00 3057.00 L 877.00 3057.55 L 939.00 2964.00 L 926.00 2964.00 L 906.00 2963.00 L 746.00 2963.00 L 726.00 2962.00 L 566.00 2962.00 L 546.00 2961.00 L 486.00 2961.00 L 466.00 2981.00 L 446.00 2988.00 L 445.00 2988.30 L 441.00 3053.00 Z" stroke-width="1" id="272-35-02" stroke="black"/>
  <path fill="none" d="M 886.00 3058.00 L 958.00 3058.00 L 1020.00 2987.80 L 1006.00 2964.00 L 939.00 2964.00 L 877.00 3057.55 Z" stroke-width="1" id="272-35-03" stroke="black"/>
  <path fill="none" d="M 966.00 3058.00 L 986.00 3062.00 L 1006.00 3060.00 L 1046.00 3060.00 L 1066.00 3059.00 L 1086.00 3060.00 L 1166.00 3060.00 L 1186.00 3061.00 L 1266.00 3061.00 L 1286.00 3062.00 L 1366.00 3062.00 L 1386.00 3063.00 L 1387.00 3063.00 L 1426.00 2966.00 L 1306.00 2966.00 L 1286.00 2986.00 L 1266.00 2985.00 L 1246.00 2965.00 L 1106.00 2965.00 L 1086.00 2964.00 L 1066.00 2984.00 L 1046.00 2984.00 L 1026.00 2998.00 L 1020.00 2987.80 L 958.00 3058.00 Z" stroke-width="1" id="272-35-04" stroke="black"/>
  <path fill="none" d="M 1466.00 3063.00 L 1486.00 3064.00 L 1566.00 3064.00 L 1586.00 3065.00 L 1624.00 3065.00 L 1674.00 2968.00 L 1646.00 2968.00 L 1626.00 2967.00 L 1466.00 2967.00 L 1446.00 2966.00 L 1426.00 2966.00 L 1387.00 3063.00 Z" stroke-width="1" id="272-35-05" stroke="black"/>
  <path fill="none" d="M 1666.00 3065.00 L 1686.00 3066.00 L 1729.00 3066.00 L 1777.00 2979.00 L 1766.00 2968.00 L 1674.00 2968.00 L 1624.00 3065.00 Z" stroke-width="1" id="272-35-06" stroke="black"/>
  <path fill="none" d="M 1766.00 3066.00 L 1786.00 3067.00 L 1866.00 3067.00 L 1886.00 3068.00 L 1931.00 3068.00 L 1923.00 3063.00 L 1924.00 3000.00 L 1852.00 2982.00 L 1853.56 2969.00 L 1826.00 2969.00 L 1806.00 2968.00 L 1786.00 2988.00 L 1777.00 2979.00 L 1729.00 3066.00 Z" stroke-width="1" id="272-35-07" stroke="black"/>
  <path fill="none" d="M 337.13 3052.00 L 343.00 3057.00 L 339.00 3084.00 L 310.00 3111.00 L 339.00 3121.00 L 405.65 3135.98 L 406.00 3136.00 L 466.00 3136.00 L 486.00 3137.00 L 526.00 3137.00 L 546.00 3138.00 L 566.00 3158.00 L 582.08 3168.45 L 588.36 3169.47 L 606.00 3158.00 L 626.00 3159.00 L 646.00 3139.00 L 676.00 3139.00 L 713.00 3056.00 L 686.00 3056.00 L 666.00 3055.00 L 586.00 3055.00 L 566.00 3054.00 L 546.00 3054.00 L 526.00 3074.00 L 506.00 3054.00 L 486.00 3074.00 L 466.00 3053.00 L 386.00 3053.00 L 366.00 3052.00 Z" stroke-width="1" id="272-36-01" stroke="black"/>
  <path fill="none" d="M 686.00 3139.00 L 706.00 3140.00 L 746.00 3140.00 L 766.00 3141.00 L 826.00 3141.00 L 846.00 3142.00 L 870.00 3142.00 L 900.00 3058.00 L 886.00 3058.00 L 866.00 3057.00 L 846.00 3077.00 L 826.00 3057.00 L 806.00 3037.00 L 786.00 3057.00 L 766.00 3056.00 L 713.00 3056.00 L 676.00 3139.00 Z" stroke-width="1" id="272-36-02" stroke="black"/>
  <path fill="none" d="M 886.00 3142.00 L 906.00 3143.00 L 966.00 3143.00 L 979.98 3157.68 L 1013.60 3156.40 L 1026.00 3144.00 L 1046.00 3144.00 L 1066.00 3145.00 L 1078.00 3145.00 L 1098.00 3060.00 L 1086.00 3060.00 L 1066.00 3059.00 L 1046.00 3060.00 L 1006.00 3060.00 L 986.00 3062.00 L 966.00 3058.00 L 900.00 3058.00 L 870.00 3142.00 Z" stroke-width="1" id="272-36-03" stroke="black"/>
  <path fill="none" d="M 1106.00 3145.00 L 1126.00 3146.00 L 1186.00 3146.00 L 1206.00 3147.00 L 1246.00 3147.00 L 1266.00 3148.00 L 1303.00 3148.00 L 1313.00 3062.00 L 1286.00 3062.00 L 1266.00 3061.00 L 1186.00 3061.00 L 1166.00 3060.00 L 1098.00 3060.00 L 1078.00 3145.00 Z" stroke-width="1" id="272-36-04" stroke="black"/>
  <path fill="none" d="M 1326.00 3148.00 L 1346.00 3149.00 L 1406.00 3149.00 L 1426.00 3150.00 L 1433.60 3157.60 L 1457.72 3158.28 L 1466.00 3150.00 L 1485.00 3150.95 L 1518.00 3064.00 L 1486.00 3064.00 L 1466.00 3063.00 L 1386.00 3063.00 L 1366.00 3062.00 L 1313.00 3062.00 L 1303.00 3148.00 Z" stroke-width="1" id="272-36-05" stroke="black"/>
  <path fill="none" d="M 1486.00 3151.00 L 1546.00 3151.00 L 1552.25 3157.25 L 1581.24 3156.52 L 1586.00 3152.00 L 1606.00 3152.00 L 1626.00 3153.00 L 1630.50 3153.00 L 1963.00 3118.00 L 1963.00 3088.00 L 1931.00 3068.00 L 1886.00 3068.00 L 1866.00 3067.00 L 1786.00 3067.00 L 1766.00 3066.00 L 1686.00 3066.00 L 1666.00 3065.00 L 1586.00 3065.00 L 1566.00 3064.00 L 1518.00 3064.00 L 1485.00 3150.95 Z" stroke-width="1" id="272-36-06" stroke="black"/>
</svg>
