<?xml version="1.0" encoding="UTF-8"?>
<svg xmlns:xlink="http://www.w3.org/1999/xlink" xmlns="http://www.w3.org/2000/svg" contentScriptType="text/ecmascript" width="2053px" zoomAndPan="magnify" contentStyleType="text/css" viewBox="0 0 2053 3311" height="3311px" preserveAspectRatio="xMidYMid meet" version="1.0">
  <path fill="none" d="M 195.00 196.00 L 195.00 211.00 L 223.00 211.00 L 243.00 231.00 L 263.00 231.00 L 283.00 211.00 L 303.00 231.00 L 323.00 211.00 L 423.00 211.00 L 443.00 231.00 L 483.00 231.00 L 496.00 218.00 L 507.42 126.00 L 343.00 126.00 L 323.00 106.00 L 303.00 106.00 L 283.00 126.00 L 267.55 126.00 L 231.00 169.00 Z" stroke-width="1" id="273-01-01" stroke="black"/>
  <path fill="none" d="M 503.00 211.00 L 523.00 211.00 L 543.00 212.00 L 583.00 212.00 L 603.00 232.00 L 623.00 212.00 L 643.00 232.00 L 663.00 212.00 L 683.00 212.00 L 703.00 232.00 L 723.00 212.00 L 774.00 212.00 L 804.00 132.96 L 679.00 136.00 L 571.42 126.00 L 507.42 126.00 L 496.00 218.00 Z" stroke-width="1" id="273-01-02" stroke="black"/>
  <path fill="none" d="M 783.00 212.00 L 803.00 232.00 L 823.00 212.00 L 843.00 232.00 L 863.00 212.00 L 923.00 212.00 L 943.00 213.00 L 966.00 213.00 L 984.00 128.58 L 804.00 132.96 L 774.00 212.00 Z" stroke-width="1" id="273-01-03" stroke="black"/>
  <path fill="none" d="M 1103.00 213.00 L 1123.00 233.00 L 1143.00 213.00 L 1323.00 213.00 L 1343.00 214.00 L 1403.00 214.00 L 1423.00 234.00 L 1443.00 214.00 L 1541.00 214.00 L 1558.00 145.06 L 1410.00 141.00 L 1090.00 126.00 L 984.00 128.58 L 966.00 213.00 Z" stroke-width="1" id="273-01-04" stroke="black"/>
  <path fill="none" d="M 1723.00 214.00 L 1743.00 215.00 L 1763.00 215.00 L 1787.00 155.13 L 1738.00 150.00 L 1558.00 145.06 L 1541.00 214.00 Z" stroke-width="1" id="273-01-05" stroke="black"/>
  <path fill="none" d="M 1783.00 235.00 L 1803.00 215.00 L 1823.00 215.00 L 1843.00 235.00 L 1863.00 215.00 L 1874.00 215.00 L 1886.00 165.50 L 1787.00 155.13 L 1763.00 215.00 Z" stroke-width="1" id="273-01-06" stroke="black"/>
  <path fill="none" d="M 1923.00 215.00 L 1943.00 235.00 L 1957.73 220.27 L 1962.00 208.00 L 1948.00 172.00 L 1886.00 165.50 L 1874.00 215.00 Z" stroke-width="1" id="273-01-07" stroke="black"/>
  <path fill="none" d="M 222.40 317.00 L 222.00 361.00 L 199.00 382.00 L 202.00 405.00 L 219.00 420.00 L 218.05 426.00 L 223.00 426.00 L 243.00 406.00 L 323.00 406.00 L 327.00 406.20 L 355.00 315.00 L 343.00 315.00 L 323.00 313.00 L 263.00 313.00 L 243.00 317.00 Z" stroke-width="1" id="273-03-01" stroke="black"/>
  <path fill="none" d="M 343.00 407.00 L 523.00 407.00 L 543.00 408.00 L 636.00 408.00 L 660.00 321.00 L 603.00 321.00 L 583.00 319.00 L 483.00 319.00 L 463.00 317.00 L 443.00 315.00 L 355.00 315.00 L 327.00 406.20 Z" stroke-width="1" id="273-03-02" stroke="black"/>
  <path fill="none" d="M 723.00 408.00 L 743.00 409.00 L 787.00 409.00 L 818.00 306.50 L 803.00 305.00 L 783.00 307.00 L 763.00 309.00 L 743.00 317.00 L 723.00 321.00 L 660.00 321.00 L 636.00 408.00 Z" stroke-width="1" id="273-03-03" stroke="black"/>
  <path fill="none" d="M 923.00 409.00 L 943.00 410.00 L 983.00 410.00 L 1003.00 430.00 L 1043.00 430.00 L 1063.00 410.00 L 1123.00 410.00 L 1143.00 431.00 L 1163.00 431.00 L 1183.00 411.00 L 1203.00 411.00 L 1221.00 393.00 L 1240.00 319.00 L 1203.00 319.00 L 1183.00 317.00 L 1163.00 315.00 L 1143.00 313.00 L 1103.00 313.00 L 1083.00 315.00 L 1063.00 319.00 L 943.00 319.00 L 923.00 317.00 L 883.00 317.00 L 863.00 315.00 L 843.00 313.00 L 823.00 307.00 L 818.00 306.50 L 787.00 409.00 Z" stroke-width="1" id="273-03-04" stroke="black"/>
  <path fill="none" d="M 1223.00 391.00 L 1263.00 391.00 L 1283.00 411.00 L 1323.00 411.00 L 1343.00 412.00 L 1403.00 412.00 L 1423.00 432.00 L 1443.00 412.00 L 1492.00 412.00 L 1517.00 317.00 L 1403.00 317.00 L 1383.00 315.00 L 1363.00 315.00 L 1343.00 311.00 L 1323.00 315.00 L 1303.00 315.00 L 1283.00 319.00 L 1240.00 319.00 L 1221.00 393.00 Z" stroke-width="1" id="273-03-05" stroke="black"/>
  <path fill="none" d="M 1523.00 412.00 L 1543.00 413.00 L 1610.00 413.00 L 1628.00 319.00 L 1603.00 319.00 L 1583.00 317.00 L 1517.00 317.00 L 1492.00 412.00 Z" stroke-width="1" id="273-03-06" stroke="black"/>
  <path fill="none" d="M 1723.00 413.00 L 1743.00 414.00 L 1836.00 414.00 L 1843.00 321.00 L 1663.00 321.00 L 1643.00 319.00 L 1628.00 319.00 L 1610.00 413.00 Z" stroke-width="1" id="273-03-07" stroke="black"/>
  <path fill="none" d="M 1884.58 414.00 L 1884.00 400.00 L 1947.00 370.00 L 1944.00 334.00 L 1944.87 325.00 L 1943.00 325.00 L 1923.00 323.00 L 1903.00 323.00 L 1883.00 321.00 L 1843.00 321.00 L 1836.00 414.00 Z" stroke-width="1" id="273-03-08" stroke="black"/>
  <path fill="none" d="M 218.05 426.00 L 216.00 439.00 L 193.00 457.00 L 217.00 487.00 L 263.00 487.00 L 283.00 488.00 L 403.00 488.00 L 404.00 489.05 L 484.00 407.00 L 343.00 407.00 L 323.00 406.00 L 243.00 406.00 L 223.00 426.00 Z" stroke-width="1" id="273-04-01" stroke="black"/>
  <path fill="none" d="M 423.00 509.00 L 443.00 509.00 L 463.00 489.00 L 543.00 489.00 L 563.00 490.00 L 703.00 490.00 L 723.00 491.00 L 763.00 491.00 L 813.00 409.00 L 743.00 409.00 L 723.00 408.00 L 543.00 408.00 L 523.00 407.00 L 484.00 407.00 L 404.00 489.05 Z" stroke-width="1" id="273-04-02" stroke="black"/>
  <path fill="none" d="M 783.00 511.00 L 803.00 491.00 L 843.00 491.00 L 863.00 492.00 L 874.00 492.00 L 915.00 409.00 L 813.00 409.00 L 763.00 491.00 Z" stroke-width="1" id="273-04-03" stroke="black"/>
  <path fill="none" d="M 883.00 492.00 L 903.00 512.00 L 923.00 492.00 L 983.00 492.00 L 1003.00 493.00 L 1075.00 493.00 L 1086.00 410.00 L 1063.00 410.00 L 1043.00 430.00 L 1003.00 430.00 L 983.00 410.00 L 943.00 410.00 L 923.00 409.00 L 915.00 409.00 L 874.00 492.00 Z" stroke-width="1" id="273-04-04" stroke="black"/>
  <path fill="none" d="M 1143.00 494.00 L 1212.00 494.00 L 1283.00 411.00 L 1263.00 391.00 L 1223.00 391.00 L 1203.00 411.00 L 1183.00 411.00 L 1163.00 431.00 L 1144.00 431.00 L 1132.00 493.45 Z" stroke-width="1" id="273-04-05" stroke="black"/>
  <path fill="none" d="M 1263.00 494.00 L 1283.00 514.00 L 1303.00 515.00 L 1343.00 515.00 L 1363.00 495.00 L 1385.00 495.00 L 1423.00 432.00 L 1403.00 412.00 L 1343.00 412.00 L 1323.00 411.00 L 1283.00 411.00 L 1212.00 494.00 Z" stroke-width="1" id="273-04-06" stroke="black"/>
  <path fill="none" d="M 1423.00 495.00 L 1443.00 496.00 L 1486.00 496.00 L 1538.00 412.75 L 1523.00 412.00 L 1443.00 412.00 L 1423.00 432.00 L 1385.00 495.00 Z" stroke-width="1" id="273-04-07" stroke="black"/>
  <path fill="none" d="M 1563.00 496.00 L 1583.00 497.00 L 1684.00 497.00 L 1690.00 413.00 L 1543.00 413.00 L 1538.00 412.75 L 1486.00 496.00 Z" stroke-width="1" id="273-04-08" stroke="black"/>
  <path fill="none" d="M 1703.00 497.00 L 1723.00 498.00 L 1863.00 498.00 L 1883.00 499.00 L 1895.45 499.00 L 1888.00 496.00 L 1884.58 414.00 L 1743.00 414.00 L 1723.00 413.00 L 1690.00 413.00 L 1684.00 497.00 Z" stroke-width="1" id="273-04-09" stroke="black"/>
  <path fill="none" d="M 217.00 487.00 L 217.00 526.00 L 198.00 553.00 L 222.00 567.00 L 223.00 567.00 L 243.00 568.00 L 323.00 568.00 L 343.00 569.00 L 423.00 569.00 L 443.00 570.00 L 482.00 570.00 L 510.00 489.00 L 463.00 489.00 L 443.00 509.00 L 423.00 509.00 L 403.00 488.00 L 283.00 488.00 L 263.00 487.00 Z" stroke-width="1" id="273-05-01" stroke="black"/>
  <path fill="none" d="M 523.00 570.00 L 543.00 571.00 L 623.00 571.00 L 643.00 572.00 L 723.00 572.00 L 736.00 572.65 L 759.00 491.00 L 723.00 491.00 L 703.00 490.00 L 563.00 490.00 L 543.00 489.00 L 510.00 489.00 L 482.00 570.00 Z" stroke-width="1" id="273-05-02" stroke="black"/>
  <path fill="none" d="M 743.00 573.00 L 783.00 573.00 L 803.00 553.00 L 823.00 553.00 L 833.00 563.50 L 857.00 491.70 L 843.00 491.00 L 803.00 491.00 L 783.00 511.00 L 763.00 491.00 L 759.00 491.00 L 736.00 572.65 Z" stroke-width="1" id="273-05-03" stroke="black"/>
  <path fill="none" d="M 843.00 574.00 L 923.00 574.00 L 943.00 575.00 L 963.00 575.00 L 975.00 587.00 L 1025.00 493.00 L 1003.00 493.00 L 983.00 492.00 L 923.00 492.00 L 903.00 512.00 L 883.00 492.00 L 863.00 492.00 L 857.00 491.70 L 833.00 563.50 Z" stroke-width="1" id="273-05-04" stroke="black"/>
  <path fill="none" d="M 983.00 595.00 L 1023.00 595.00 L 1043.00 576.00 L 1123.00 576.00 L 1143.00 577.00 L 1159.00 577.00 L 1193.00 494.00 L 1143.00 494.00 L 1123.00 493.00 L 1025.00 493.00 L 975.00 587.00 Z" stroke-width="1" id="273-05-05" stroke="black"/>
  <path fill="none" d="M 1223.00 577.00 L 1243.00 578.00 L 1318.00 578.00 L 1340.00 515.00 L 1303.00 515.00 L 1283.00 514.00 L 1263.00 494.00 L 1193.00 494.00 L 1159.00 577.00 Z" stroke-width="1" id="273-05-06" stroke="black"/>
  <path fill="none" d="M 1323.00 578.00 L 1343.00 579.00 L 1423.00 579.00 L 1443.00 580.00 L 1523.00 580.00 L 1543.00 581.00 L 1623.00 581.00 L 1643.00 582.00 L 1743.00 582.00 L 1763.00 583.00 L 1783.00 603.00 L 1803.00 583.00 L 1843.00 583.00 L 1850.00 583.35 L 1855.00 498.00 L 1723.00 498.00 L 1703.00 497.00 L 1583.00 497.00 L 1563.00 496.00 L 1443.00 496.00 L 1423.00 495.00 L 1363.00 495.00 L 1343.00 515.00 L 1340.00 515.00 L 1318.00 578.00 Z" stroke-width="1" id="273-05-07" stroke="black"/>
  <path fill="none" d="M 1863.00 584.00 L 1943.00 584.00 L 1946.77 584.19 L 1960.00 525.00 L 1895.45 499.00 L 1883.00 499.00 L 1863.00 498.00 L 1855.00 498.00 L 1850.00 583.35 Z" stroke-width="1" id="273-05-08" stroke="black"/>
  <path fill="none" d="M 222.00 567.00 L 217.00 597.00 L 198.00 627.00 L 202.00 645.00 L 206.25 652.00 L 423.00 652.00 L 443.00 653.00 L 505.00 653.00 L 539.00 570.80 L 523.00 570.00 L 443.00 570.00 L 423.00 569.00 L 343.00 569.00 L 323.00 568.00 L 243.00 568.00 L 223.00 567.00 Z" stroke-width="1" id="273-06-01" stroke="black"/>
  <path fill="none" d="M 683.00 653.00 L 698.98 668.98 L 706.34 669.66 L 722.34 653.66 L 754.00 573.00 L 743.00 573.00 L 723.00 572.00 L 643.00 572.00 L 623.00 571.00 L 543.00 571.00 L 539.00 570.80 L 505.00 653.00 Z" stroke-width="1" id="273-06-02" stroke="black"/>
  <path fill="none" d="M 723.00 653.00 L 743.00 654.00 L 783.00 654.00 L 803.00 674.00 L 843.00 674.00 L 863.00 654.00 L 903.00 654.00 L 917.35 682.69 L 934.16 682.84 L 943.00 674.00 L 963.00 674.00 L 983.00 654.00 L 1003.00 654.00 L 1064.00 576.00 L 1043.00 576.00 L 1023.00 595.00 L 983.00 595.00 L 963.00 575.00 L 943.00 575.00 L 923.00 574.00 L 843.00 574.00 L 823.00 553.00 L 803.00 553.00 L 783.00 573.00 L 754.00 573.00 L 722.34 653.66 Z" stroke-width="1" id="273-06-03" stroke="black"/>
  <path fill="none" d="M 1017.80 683.59 L 1054.08 683.92 L 1063.00 675.00 L 1083.00 655.00 L 1157.91 655.00 L 1171.00 651.00 L 1220.05 655.00 L 1241.05 655.00 L 1281.00 578.00 L 1243.00 578.00 L 1223.00 577.00 L 1143.00 577.00 L 1123.00 576.00 L 1064.00 576.00 L 1003.00 654.00 Z" stroke-width="1" id="273-06-04" stroke="black"/>
  <path fill="none" d="M 1323.00 655.00 L 1343.00 656.00 L 1363.00 656.00 L 1374.60 667.60 L 1390.13 668.87 L 1403.00 656.00 L 1483.00 656.00 L 1494.92 679.85 L 1516.79 682.21 L 1523.00 676.00 L 1543.00 676.00 L 1563.00 656.00 L 1568.00 656.00 L 1584.00 581.00 L 1543.00 581.00 L 1523.00 580.00 L 1443.00 580.00 L 1423.00 579.00 L 1343.00 579.00 L 1323.00 578.00 L 1281.00 578.00 L 1241.05 655.00 Z" stroke-width="1" id="273-06-05" stroke="black"/>
  <path fill="none" d="M 1623.00 656.00 L 1634.52 656.58 L 1644.52 652.44 L 1683.00 582.00 L 1643.00 582.00 L 1623.00 581.00 L 1584.00 581.00 L 1568.00 656.00 Z" stroke-width="1" id="273-06-06" stroke="black"/>
  <path fill="none" d="M 1648.00 651.00 L 1769.00 649.75 L 1783.00 603.00 L 1763.00 583.00 L 1743.00 582.00 L 1683.00 582.00 L 1644.52 652.44 Z" stroke-width="1" id="273-06-07" stroke="black"/>
  <path fill="none" d="M 1939.00 648.00 L 1941.00 610.00 L 1946.77 584.19 L 1943.00 584.00 L 1863.00 584.00 L 1843.00 583.00 L 1803.00 583.00 L 1783.00 603.00 L 1769.00 649.75 Z" stroke-width="1" id="273-06-08" stroke="black"/>
  <path fill="none" d="M 206.25 652.00 L 219.00 673.00 L 219.00 702.00 L 196.00 720.00 L 219.00 730.00 L 219.93 737.00 L 243.00 737.00 L 263.00 738.00 L 383.00 738.00 L 403.00 739.00 L 523.00 739.00 L 543.00 740.00 L 555.00 740.00 L 573.00 653.00 L 443.00 653.00 L 423.00 652.00 Z" stroke-width="1" id="273-07-01" stroke="black"/>
  <path fill="none" d="M 123.00 865.00 L 143.18 914.00 L 178.00 914.00 L 220.00 911.53 L 247.00 815.00 L 223.00 815.00 L 203.00 814.00 L 177.64 814.00 Z" stroke-width="1" id="273-09-01" stroke="black"/>
  <path fill="none" d="M 297.00 907.00 L 321.00 907.00 L 365.00 816.10 L 363.00 816.00 L 323.00 816.00 L 303.00 815.00 L 247.00 815.00 L 220.00 911.53 Z" stroke-width="1" id="273-09-02" stroke="black"/>
  <path fill="none" d="M 414.00 907.00 L 414.09 914.00 L 812.09 914.00 L 838.00 829.00 L 663.00 829.00 L 643.00 827.00 L 623.00 825.00 L 603.00 825.00 L 583.00 823.00 L 543.00 823.00 L 523.00 819.00 L 503.00 817.00 L 483.00 815.00 L 463.00 815.00 L 443.00 813.00 L 423.00 813.00 L 403.00 817.00 L 383.00 817.00 L 365.00 816.10 L 321.00 907.00 Z" stroke-width="1" id="273-09-03" stroke="black"/>
  <path fill="none" d="M 1083.00 914.00 L 1103.00 934.00 L 1123.00 914.00 L 1148.00 825.00 L 1123.00 825.00 L 1103.00 823.00 L 1063.00 823.00 L 1043.00 827.00 L 923.00 827.00 L 903.00 825.00 L 883.00 825.00 L 863.00 829.00 L 838.00 829.00 L 812.09 914.00 Z" stroke-width="1" id="273-09-04" stroke="black"/>
  <path fill="none" d="M 1143.00 934.00 L 1163.00 934.00 L 1183.00 914.00 L 1195.00 914.00 L 1244.00 835.10 L 1243.00 835.00 L 1223.00 831.00 L 1203.00 827.00 L 1183.00 827.00 L 1163.00 825.00 L 1148.00 825.00 L 1123.00 914.00 Z" stroke-width="1" id="273-09-05" stroke="black"/>
  <path fill="none" d="M 1340.00 914.00 L 1344.00 836.80 L 1343.00 837.00 L 1263.00 837.00 L 1244.00 835.10 L 1195.00 914.00 Z" stroke-width="1" id="273-09-06" stroke="black"/>
  <path fill="none" d="M 1463.00 914.00 L 1483.00 934.00 L 1537.88 934.00 L 1545.38 931.62 L 1563.00 914.00 L 1600.82 914.00 L 1626.00 906.00 L 1822.00 895.00 L 1807.00 846.00 L 1650.57 831.00 L 1503.00 831.00 L 1483.00 829.00 L 1463.00 825.00 L 1423.00 825.00 L 1419.38 824.28 L 1387.31 824.14 L 1383.00 825.00 L 1363.00 833.00 L 1344.00 836.80 L 1340.00 914.00 Z" stroke-width="1" id="273-09-07" stroke="black"/>
  <path fill="none" d="M 414.09 914.00 L 415.00 984.00 L 388.62 1010.72 L 403.00 1010.00 L 423.00 990.00 L 463.00 990.00 L 483.00 1010.00 L 506.90 1010.00 L 507.00 1008.00 L 535.57 1010.00 L 583.00 1010.00 L 586.57 1013.57 L 607.00 1015.00 L 618.61 1014.39 L 623.00 1010.00 L 643.00 1010.00 L 663.00 1009.00 L 720.60 1009.00 L 891.00 1000.00 L 972.19 1008.00 L 978.19 1008.00 L 1024.00 914.00 Z" stroke-width="1" id="273-10-01" stroke="black"/>
  <path fill="none" d="M 1143.00 1008.00 L 1161.67 1026.67 L 1165.00 1027.00 L 1186.54 1024.29 L 1203.00 1007.00 L 1303.00 1007.00 L 1320.00 1024.00 L 1329.00 1027.00 L 1344.91 1027.00 L 1376.89 1013.11 L 1383.00 1007.00 L 1390.95 1007.00 L 1429.95 990.06 L 1424.00 914.00 L 1183.00 914.00 L 1163.00 934.00 L 1143.00 934.00 L 1123.00 914.00 L 1103.00 934.00 L 1083.00 914.00 L 1024.00 914.00 L 978.19 1008.00 Z" stroke-width="1" id="273-10-02" stroke="black"/>
  <path fill="none" d="M 388.62 1010.72 L 337.00 1063.00 L 379.40 1087.00 L 423.00 1087.00 L 434.48 1098.48 L 463.00 1102.00 L 468.13 1101.87 L 483.00 1087.00 L 505.00 1048.66 L 506.90 1010.00 L 483.00 1010.00 L 463.00 990.00 L 423.00 990.00 L 403.00 1010.00 Z" stroke-width="1" id="273-11-01" stroke="black"/>
  <path fill="none" d="M 711.58 1169.00 L 831.58 1169.00 L 857.00 1086.00 L 752.00 1086.00 L 725.00 1122.64 Z" stroke-width="1" id="273-12-01" stroke="black"/>
  <path fill="none" d="M 843.00 1169.00 L 863.00 1168.00 L 1020.00 1168.00 L 1060.00 1085.00 L 963.00 1085.00 L 943.00 1086.00 L 857.00 1086.00 L 831.58 1169.00 Z" stroke-width="1" id="273-12-02" stroke="black"/>
  <path fill="none" d="M 1203.00 1168.00 L 1223.00 1167.00 L 1353.00 1167.00 L 1369.18 1084.69 L 1363.00 1085.00 L 1060.00 1085.00 L 1020.00 1168.00 Z" stroke-width="1" id="273-12-03" stroke="black"/>
  <path fill="none" d="M 1463.00 1167.00 L 1505.00 1088.22 L 1373.18 1084.49 L 1369.18 1084.69 L 1353.00 1167.00 Z" stroke-width="1" id="273-12-04" stroke="black"/>
  <path fill="none" d="M 1563.00 1167.00 L 1583.00 1166.00 L 1776.00 1166.00 L 1786.00 1096.16 L 1505.00 1088.22 L 1463.00 1167.00 Z" stroke-width="1" id="273-12-05" stroke="black"/>
  <path fill="none" d="M 1903.00 1166.00 L 1923.00 1186.00 L 1943.00 1185.00 L 1951.17 1176.83 L 1957.00 1101.00 L 1786.00 1096.16 L 1776.00 1166.00 Z" stroke-width="1" id="273-12-06" stroke="black"/>
  <path fill="none" d="M 241.00 1204.00 L 228.00 1228.00 L 226.00 1252.00 L 226.83 1267.00 L 335.83 1267.00 L 356.00 1196.33 Z" stroke-width="1" id="273-13-01" stroke="black"/>
  <path fill="none" d="M 403.00 1267.00 L 423.00 1287.00 L 443.00 1267.00 L 463.00 1287.00 L 483.00 1266.00 L 504.00 1266.00 L 522.00 1184.97 L 481.00 1188.00 L 356.00 1196.33 L 335.83 1267.00 Z" stroke-width="1" id="273-13-02" stroke="black"/>
  <path fill="none" d="M 803.00 1266.00 L 822.00 1265.05 L 857.00 1168.30 L 843.00 1169.00 L 711.58 1169.00 L 711.00 1171.00 L 522.00 1184.97 L 504.00 1266.00 Z" stroke-width="1" id="273-13-03" stroke="black"/>
  <path fill="none" d="M 823.00 1265.00 L 843.00 1285.00 L 883.00 1285.00 L 903.00 1265.00 L 912.00 1265.00 L 949.00 1168.00 L 863.00 1168.00 L 857.00 1168.30 L 822.00 1265.05 Z" stroke-width="1" id="273-13-04" stroke="black"/>
  <path fill="none" d="M 1003.00 1265.00 L 1023.00 1285.00 L 1043.00 1265.00 L 1077.00 1265.00 L 1100.00 1168.00 L 949.00 1168.00 L 912.00 1265.00 Z" stroke-width="1" id="273-13-05" stroke="black"/>
  <path fill="none" d="M 1163.00 1265.00 L 1182.00 1245.05 L 1193.00 1168.00 L 1100.00 1168.00 L 1077.00 1265.00 Z" stroke-width="1" id="273-13-06" stroke="black"/>
  <path fill="none" d="M 1183.00 1244.00 L 1203.00 1264.00 L 1339.00 1264.00 L 1375.00 1167.00 L 1223.00 1167.00 L 1203.00 1168.00 L 1193.00 1168.00 L 1182.00 1245.05 Z" stroke-width="1" id="273-13-07" stroke="black"/>
  <path fill="none" d="M 1405.00 1264.00 L 1452.00 1167.00 L 1375.00 1167.00 L 1339.00 1264.00 Z" stroke-width="1" id="273-13-08" stroke="black"/>
  <path fill="none" d="M 1503.00 1264.00 L 1523.00 1263.00 L 1556.00 1263.00 L 1577.00 1166.30 L 1563.00 1167.00 L 1452.00 1167.00 L 1405.00 1264.00 Z" stroke-width="1" id="273-13-09" stroke="black"/>
  <path fill="none" d="M 1683.00 1263.00 L 1703.00 1283.00 L 1723.00 1283.00 L 1743.00 1263.00 L 1827.00 1263.00 L 1829.00 1166.00 L 1583.00 1166.00 L 1577.00 1166.30 L 1556.00 1263.00 Z" stroke-width="1" id="273-13-10" stroke="black"/>
  <path fill="none" d="M 1863.00 1263.00 L 1883.00 1262.00 L 1941.92 1262.00 L 1950.00 1192.00 L 1951.17 1176.83 L 1943.00 1185.00 L 1923.00 1186.00 L 1903.00 1166.00 L 1829.00 1166.00 L 1827.00 1263.00 Z" stroke-width="1" id="273-13-11" stroke="black"/>
  <path fill="none" d="M 226.83 1267.00 L 229.00 1306.00 L 226.00 1335.00 L 227.55 1345.00 L 302.55 1345.00 L 309.00 1267.00 Z" stroke-width="1" id="273-14-01" stroke="black"/>
  <path fill="none" d="M 303.00 1345.00 L 323.00 1344.00 L 375.00 1344.00 L 382.00 1267.00 L 309.00 1267.00 L 302.55 1345.00 Z" stroke-width="1" id="273-14-02" stroke="black"/>
  <path fill="none" d="M 483.00 1344.00 L 503.00 1363.00 L 523.00 1363.00 L 543.00 1343.00 L 663.00 1343.00 L 683.00 1342.00 L 743.00 1342.00 L 772.00 1266.00 L 483.00 1266.00 L 463.00 1287.00 L 443.00 1267.00 L 423.00 1287.00 L 403.00 1267.00 L 382.00 1267.00 L 375.00 1344.00 Z" stroke-width="1" id="273-14-03" stroke="black"/>
  <path fill="none" d="M 863.00 1342.00 L 883.00 1341.00 L 913.00 1341.00 L 933.00 1265.00 L 903.00 1265.00 L 883.00 1285.00 L 843.00 1285.00 L 823.00 1265.00 L 803.00 1266.00 L 772.00 1266.00 L 743.00 1342.00 Z" stroke-width="1" id="273-14-04" stroke="black"/>
  <path fill="none" d="M 1043.00 1341.00 L 1063.00 1340.00 L 1064.00 1340.00 L 1093.00 1265.00 L 1043.00 1265.00 L 1023.00 1285.00 L 1003.00 1265.00 L 933.00 1265.00 L 913.00 1341.00 Z" stroke-width="1" id="273-14-05" stroke="black"/>
  <path fill="none" d="M 1221.00 1340.00 L 1285.00 1264.00 L 1203.00 1264.00 L 1183.00 1244.00 L 1163.00 1265.00 L 1093.00 1265.00 L 1064.00 1340.00 Z" stroke-width="1" id="273-14-06" stroke="black"/>
  <path fill="none" d="M 1223.00 1340.00 L 1243.00 1359.00 L 1263.00 1339.00 L 1346.00 1339.00 L 1362.00 1264.00 L 1285.00 1264.00 L 1221.00 1340.00 Z" stroke-width="1" id="273-14-07" stroke="black"/>
  <path fill="none" d="M 1403.00 1339.00 L 1423.00 1338.00 L 1603.00 1338.00 L 1623.00 1337.00 L 1643.00 1337.00 L 1663.00 1357.00 L 1674.00 1357.00 L 1710.00 1283.00 L 1703.00 1283.00 L 1683.00 1263.00 L 1523.00 1263.00 L 1503.00 1264.00 L 1362.00 1264.00 L 1346.00 1339.00 Z" stroke-width="1" id="273-14-08" stroke="black"/>
  <path fill="none" d="M 1723.00 1357.00 L 1743.00 1337.00 L 1783.00 1337.00 L 1803.00 1336.00 L 1838.00 1336.00 L 1856.00 1263.00 L 1743.00 1263.00 L 1723.00 1283.00 L 1710.00 1283.00 L 1674.00 1357.00 Z" stroke-width="1" id="273-14-09" stroke="black"/>
  <path fill="none" d="M 1959.42 1336.00 L 1941.00 1270.00 L 1941.92 1262.00 L 1883.00 1262.00 L 1863.00 1263.00 L 1856.00 1263.00 L 1838.00 1336.00 Z" stroke-width="1" id="273-14-10" stroke="black"/>
  <path fill="none" d="M 227.55 1345.00 L 235.00 1393.00 L 223.00 1408.00 L 237.00 1426.00 L 236.33 1436.00 L 323.00 1436.00 L 343.00 1435.00 L 468.00 1435.00 L 503.00 1363.00 L 483.00 1344.00 L 323.00 1344.00 L 303.00 1345.00 Z" stroke-width="1" id="273-15-01" stroke="black"/>
  <path fill="none" d="M 543.00 1435.00 L 563.00 1434.00 L 645.00 1434.00 L 677.00 1342.30 L 663.00 1343.00 L 543.00 1343.00 L 523.00 1363.00 L 503.00 1363.00 L 468.00 1435.00 Z" stroke-width="1" id="273-15-02" stroke="black"/>
  <path fill="none" d="M 703.00 1434.00 L 771.00 1342.00 L 683.00 1342.00 L 677.00 1342.30 L 645.00 1434.00 Z" stroke-width="1" id="273-15-03" stroke="black"/>
  <path fill="none" d="M 723.00 1454.00 L 743.00 1434.00 L 763.00 1433.00 L 927.00 1433.00 L 942.00 1341.00 L 883.00 1341.00 L 863.00 1342.00 L 771.00 1342.00 L 703.00 1434.00 Z" stroke-width="1" id="273-15-04" stroke="black"/>
  <path fill="none" d="M 963.00 1433.00 L 983.00 1431.00 L 1003.00 1435.00 L 1023.00 1437.00 L 1043.00 1441.00 L 1063.00 1432.00 L 1086.00 1432.00 L 1114.00 1340.00 L 1063.00 1340.00 L 1043.00 1341.00 L 942.00 1341.00 L 927.00 1433.00 Z" stroke-width="1" id="273-15-05" stroke="black"/>
  <path fill="none" d="M 1183.00 1432.00 L 1203.00 1431.00 L 1266.00 1431.00 L 1303.00 1339.00 L 1263.00 1339.00 L 1243.00 1359.00 L 1223.00 1340.00 L 1114.00 1340.00 L 1086.00 1432.00 Z" stroke-width="1" id="273-15-06" stroke="black"/>
  <path fill="none" d="M 1383.00 1431.00 L 1403.00 1430.00 L 1507.00 1430.00 L 1548.00 1338.00 L 1423.00 1338.00 L 1403.00 1339.00 L 1303.00 1339.00 L 1266.00 1431.00 Z" stroke-width="1" id="273-15-07" stroke="black"/>
  <path fill="none" d="M 1563.00 1430.00 L 1583.00 1450.00 L 1603.00 1430.00 L 1623.00 1429.00 L 1765.00 1429.00 L 1790.00 1336.65 L 1783.00 1337.00 L 1743.00 1337.00 L 1723.00 1357.00 L 1663.00 1357.00 L 1643.00 1337.00 L 1623.00 1337.00 L 1603.00 1338.00 L 1548.00 1338.00 L 1507.00 1430.00 Z" stroke-width="1" id="273-15-08" stroke="black"/>
  <path fill="none" d="M 1823.00 1429.00 L 1843.00 1428.00 L 1929.13 1428.00 L 1965.00 1399.00 L 1965.00 1356.00 L 1959.42 1336.00 L 1803.00 1336.00 L 1790.00 1336.65 L 1765.00 1429.00 Z" stroke-width="1" id="273-15-09" stroke="black"/>
  <path fill="none" d="M 236.33 1436.00 L 234.00 1471.00 L 216.00 1497.00 L 240.00 1512.00 L 239.83 1516.00 L 391.83 1516.00 L 413.00 1435.00 L 343.00 1435.00 L 323.00 1436.00 Z" stroke-width="1" id="273-16-01" stroke="black"/>
  <path fill="none" d="M 443.00 1516.00 L 463.00 1515.00 L 475.00 1515.00 L 503.00 1435.00 L 413.00 1435.00 L 391.83 1516.00 Z" stroke-width="1" id="273-16-02" stroke="black"/>
  <path fill="none" d="M 763.00 1515.00 L 783.00 1514.00 L 812.00 1514.00 L 834.00 1433.00 L 763.00 1433.00 L 743.00 1434.00 L 723.00 1454.00 L 703.00 1434.00 L 563.00 1434.00 L 543.00 1435.00 L 503.00 1435.00 L 475.00 1515.00 Z" stroke-width="1" id="273-16-03" stroke="black"/>
  <path fill="none" d="M 939.00 1514.00 L 992.00 1432.80 L 983.00 1431.00 L 963.00 1433.00 L 834.00 1433.00 L 812.00 1514.00 Z" stroke-width="1" id="273-16-04" stroke="black"/>
  <path fill="none" d="M 1083.00 1514.00 L 1103.00 1513.00 L 1118.00 1513.00 L 1170.00 1432.00 L 1063.00 1432.00 L 1043.00 1441.00 L 1023.00 1437.00 L 1003.00 1435.00 L 992.00 1432.80 L 939.00 1514.00 Z" stroke-width="1" id="273-16-05" stroke="black"/>
  <path fill="none" d="M 1392.00 1513.00 L 1421.00 1430.00 L 1403.00 1430.00 L 1383.00 1431.00 L 1203.00 1431.00 L 1183.00 1432.00 L 1170.00 1432.00 L 1118.00 1513.00 Z" stroke-width="1" id="273-16-06" stroke="black"/>
  <path fill="none" d="M 1423.00 1513.00 L 1443.00 1512.00 L 1596.00 1512.00 L 1637.00 1429.00 L 1623.00 1429.00 L 1603.00 1430.00 L 1583.00 1450.00 L 1563.00 1430.00 L 1421.00 1430.00 L 1392.00 1513.00 Z" stroke-width="1" id="273-16-07" stroke="black"/>
  <path fill="none" d="M 1658.87 1512.00 L 1659.00 1509.00 L 1751.00 1506.16 L 1740.00 1429.00 L 1637.00 1429.00 L 1596.00 1512.00 Z" stroke-width="1" id="273-16-08" stroke="black"/>
  <path fill="none" d="M 1918.00 1501.00 L 1918.00 1437.00 L 1929.13 1428.00 L 1843.00 1428.00 L 1823.00 1429.00 L 1740.00 1429.00 L 1751.00 1506.16 Z" stroke-width="1" id="273-16-09" stroke="black"/>
  <path fill="none" d="M 239.83 1516.00 L 238.00 1558.00 L 232.00 1587.00 L 233.70 1611.00 L 283.00 1611.00 L 284.00 1611.10 L 339.00 1516.00 Z" stroke-width="1" id="273-17-01" stroke="black"/>
  <path fill="none" d="M 303.00 1613.00 L 323.00 1613.00 L 343.00 1615.00 L 363.00 1615.00 L 383.00 1619.00 L 403.00 1623.00 L 423.00 1623.00 L 443.00 1625.00 L 463.00 1625.00 L 475.00 1622.60 L 505.00 1515.00 L 463.00 1515.00 L 443.00 1516.00 L 339.00 1516.00 L 284.00 1611.10 Z" stroke-width="1" id="273-17-02" stroke="black"/>
  <path fill="none" d="M 483.00 1621.00 L 503.00 1631.00 L 523.00 1645.00 L 543.00 1645.00 L 563.00 1631.00 L 583.00 1617.00 L 604.00 1617.00 L 608.00 1515.00 L 505.00 1515.00 L 475.00 1622.60 Z" stroke-width="1" id="273-17-03" stroke="black"/>
  <path fill="none" d="M 712.00 1617.00 L 757.00 1515.00 L 608.00 1515.00 L 604.00 1617.00 Z" stroke-width="1" id="273-17-04" stroke="black"/>
  <path fill="none" d="M 783.00 1617.00 L 803.00 1615.00 L 823.00 1609.00 L 863.00 1609.00 L 883.00 1605.00 L 963.00 1605.00 L 983.00 1603.00 L 1043.00 1603.00 L 1063.00 1595.00 L 1103.00 1595.00 L 1123.00 1591.00 L 1143.00 1613.00 L 1183.00 1613.00 L 1203.00 1609.00 L 1206.00 1608.40 L 1239.00 1513.00 L 1103.00 1513.00 L 1083.00 1514.00 L 783.00 1514.00 L 763.00 1515.00 L 757.00 1515.00 L 712.00 1617.00 Z" stroke-width="1" id="273-17-05" stroke="black"/>
  <path fill="none" d="M 1223.00 1605.00 L 1243.00 1601.00 L 1303.00 1601.00 L 1323.00 1603.00 L 1343.00 1603.00 L 1363.00 1605.00 L 1383.00 1605.00 L 1384.00 1605.10 L 1444.87 1512.00 L 1443.00 1512.00 L 1423.00 1513.00 L 1239.00 1513.00 L 1206.00 1608.40 Z" stroke-width="1" id="273-17-06" stroke="black"/>
  <path fill="none" d="M 1403.00 1607.00 L 1423.00 1609.00 L 1443.00 1613.00 L 1463.00 1617.00 L 1483.00 1617.00 L 1503.00 1613.00 L 1523.00 1601.00 L 1543.00 1593.00 L 1683.60 1593.00 L 1657.00 1555.00 L 1658.87 1512.00 L 1444.87 1512.00 L 1384.00 1605.10 Z" stroke-width="1" id="273-17-07" stroke="black"/>
  <path fill="none" d="M 1023.00 1680.00 L 1060.00 1680.00 L 1132.00 1600.90 L 1123.00 1591.00 L 1103.00 1595.00 L 1063.00 1595.00 L 1043.00 1603.00 L 1020.00 1603.00 L 1018.00 1679.75 Z" stroke-width="1" id="273-18-01" stroke="black"/>
  <path fill="none" d="M 1123.00 1680.00 L 1143.00 1681.00 L 1224.00 1681.00 L 1230.00 1603.60 L 1223.00 1605.00 L 1203.00 1609.00 L 1183.00 1613.00 L 1143.00 1613.00 L 1132.00 1600.90 L 1060.00 1680.00 Z" stroke-width="1" id="273-18-02" stroke="black"/>
  <path fill="none" d="M 1243.00 1681.00 L 1263.00 1682.00 L 1337.00 1682.00 L 1339.00 1603.00 L 1323.00 1603.00 L 1303.00 1601.00 L 1243.00 1601.00 L 1230.00 1603.60 L 1224.00 1681.00 Z" stroke-width="1" id="273-18-03" stroke="black"/>
  <path fill="none" d="M 1583.00 1684.00 L 1603.00 1685.00 L 1677.70 1685.00 L 1692.00 1605.00 L 1683.60 1593.00 L 1543.00 1593.00 L 1523.00 1601.00 L 1511.00 1608.20 L 1508.00 1684.00 Z" stroke-width="1" id="273-18-04" stroke="black"/>
  <path fill="none" d="M 142.00 1800.00 L 135.00 1813.00 L 144.00 1848.00 L 214.00 1852.62 L 255.00 1751.00 L 223.00 1751.00 L 203.00 1747.00 L 198.57 1746.11 L 196.00 1747.00 Z" stroke-width="1" id="273-20-01" stroke="black"/>
  <path fill="none" d="M 250.00 1855.00 L 327.00 1855.00 L 362.00 1760.00 L 283.00 1760.00 L 263.00 1751.00 L 255.00 1751.00 L 214.00 1852.62 Z" stroke-width="1" id="273-20-02" stroke="black"/>
  <path fill="none" d="M 403.00 1855.00 L 423.00 1854.00 L 683.00 1854.00 L 703.00 1853.00 L 818.00 1853.00 L 854.00 1759.00 L 743.00 1759.00 L 723.00 1760.00 L 362.00 1760.00 L 327.00 1855.00 Z" stroke-width="1" id="273-20-03" stroke="black"/>
  <path fill="none" d="M 963.00 1853.00 L 983.00 1852.00 L 1164.00 1852.00 L 1204.00 1759.00 L 854.00 1759.00 L 818.00 1853.00 Z" stroke-width="1" id="273-20-04" stroke="black"/>
  <path fill="none" d="M 1263.00 1852.00 L 1283.00 1851.00 L 1455.00 1851.00 L 1453.00 1778.00 L 1363.00 1778.00 L 1343.00 1758.00 L 1323.00 1759.00 L 1303.00 1779.00 L 1283.00 1759.00 L 1204.00 1759.00 L 1164.00 1852.00 Z" stroke-width="1" id="273-20-05" stroke="black"/>
  <path fill="none" d="M 1503.00 1851.00 L 1523.00 1871.00 L 1543.00 1865.00 L 1563.00 1869.00 L 1583.00 1850.00 L 1743.00 1850.00 L 1752.21 1859.21 L 1771.00 1858.00 L 1807.00 1810.00 L 1719.64 1758.66 L 1703.00 1757.00 L 1689.75 1754.35 L 1665.00 1756.00 L 1665.54 1753.00 L 1523.00 1753.00 L 1503.00 1761.00 L 1483.00 1778.00 L 1453.00 1778.00 L 1455.00 1851.00 Z" stroke-width="1" id="273-20-06" stroke="black"/>
  <path fill="none" d="M 250.00 1855.00 L 478.00 1857.00 L 489.00 1918.00 L 499.00 1954.00 L 513.00 1953.00 L 561.00 1943.40 L 610.00 1854.00 L 423.00 1854.00 L 403.00 1855.00 Z" stroke-width="1" id="273-21-01" stroke="black"/>
  <path fill="none" d="M 573.00 1941.00 L 718.00 1951.00 L 719.67 1956.00 L 726.67 1956.00 L 730.00 1853.00 L 703.00 1853.00 L 683.00 1854.00 L 610.00 1854.00 L 561.00 1943.40 Z" stroke-width="1" id="273-21-02" stroke="black"/>
  <path fill="none" d="M 803.00 1956.00 L 823.00 1975.00 L 843.00 1975.00 L 863.00 1955.00 L 1023.00 1955.00 L 1043.00 1954.00 L 1092.00 1954.00 L 1139.00 1852.00 L 983.00 1852.00 L 963.00 1853.00 L 730.00 1853.00 L 726.67 1956.00 Z" stroke-width="1" id="273-21-03" stroke="black"/>
  <path fill="none" d="M 1103.00 1954.00 L 1123.00 1934.00 L 1143.00 1954.00 L 1163.00 1974.00 L 1203.00 1974.00 L 1223.00 1954.00 L 1243.00 1954.00 L 1263.00 1953.00 L 1483.00 1953.00 L 1503.00 1952.00 L 1563.50 1952.00 L 1582.50 1876.00 L 1580.00 1852.85 L 1563.00 1869.00 L 1543.00 1865.00 L 1523.00 1871.00 L 1503.00 1851.00 L 1283.00 1851.00 L 1263.00 1852.00 L 1139.00 1852.00 L 1092.00 1954.00 Z" stroke-width="1" id="273-21-04" stroke="black"/>
  <path fill="none" d="M 730.00 1987.00 L 700.00 2034.00 L 668.75 2033.05 L 683.00 2053.00 L 703.00 2071.00 L 743.00 2071.00 L 763.00 2051.00 L 783.00 2025.00 L 880.00 2025.00 L 910.00 1955.00 L 863.00 1955.00 L 843.00 1975.00 L 823.00 1975.00 L 803.00 1956.00 L 747.00 1956.00 L 729.67 1986.01 Z" stroke-width="1" id="273-22-01" stroke="black"/>
  <path fill="none" d="M 1030.00 2025.00 L 1059.00 1954.00 L 1043.00 1954.00 L 1023.00 1955.00 L 910.00 1955.00 L 880.00 2025.00 Z" stroke-width="1" id="273-22-02" stroke="black"/>
  <path fill="none" d="M 1163.00 2025.00 L 1183.00 2045.00 L 1243.00 2045.00 L 1263.00 2025.00 L 1279.00 2025.00 L 1306.00 1953.00 L 1263.00 1953.00 L 1243.00 1954.00 L 1223.00 1954.00 L 1203.00 1974.00 L 1163.00 1974.00 L 1143.00 1954.00 L 1123.00 1934.00 L 1103.00 1954.00 L 1059.00 1954.00 L 1030.00 2025.00 Z" stroke-width="1" id="273-22-03" stroke="black"/>
  <path fill="none" d="M 1523.00 2025.00 L 1543.00 2045.00 L 1563.00 2045.00 L 1583.00 2025.00 L 1586.00 1962.84 L 1561.00 1962.00 L 1563.50 1952.00 L 1503.00 1952.00 L 1483.00 1953.00 L 1306.00 1953.00 L 1279.00 2025.00 Z" stroke-width="1" id="273-22-04" stroke="black"/>
  <path fill="none" d="M 1670.00 2025.00 L 1676.00 1965.84 L 1586.00 1962.84 L 1583.00 2025.00 Z" stroke-width="1" id="273-22-05" stroke="black"/>
  <path fill="none" d="M 1743.00 2025.00 L 1763.00 2024.00 L 1838.00 2024.00 L 1856.00 1971.86 L 1676.00 1965.84 L 1670.00 2025.00 Z" stroke-width="1" id="273-22-06" stroke="black"/>
  <path fill="none" d="M 1938.97 2024.00 L 1920.00 1974.00 L 1856.00 1971.86 L 1838.00 2024.00 Z" stroke-width="1" id="273-22-07" stroke="black"/>
  <path fill="none" d="M 252.00 2055.00 L 240.00 2088.00 L 240.00 2114.00 L 355.00 2114.00 L 366.00 2025.00 L 331.69 2025.00 Z" stroke-width="1" id="273-23-01" stroke="black"/>
  <path fill="none" d="M 423.00 2114.00 L 443.00 2119.00 L 463.00 2125.00 L 483.00 2133.00 L 503.00 2133.00 L 523.00 2134.00 L 543.00 2134.00 L 563.00 2114.00 L 696.00 2114.00 L 703.00 2071.00 L 683.00 2053.00 L 668.75 2033.05 L 403.00 2025.00 L 366.00 2025.00 L 355.00 2114.00 Z" stroke-width="1" id="273-23-02" stroke="black"/>
  <path fill="none" d="M 943.00 2114.00 L 1004.00 2025.00 L 783.00 2025.00 L 763.00 2051.00 L 743.00 2071.00 L 703.00 2071.00 L 696.00 2114.00 Z" stroke-width="1" id="273-23-03" stroke="black"/>
  <path fill="none" d="M 963.00 2134.00 L 983.00 2114.00 L 1167.00 2114.00 L 1185.00 2045.00 L 1183.00 2045.00 L 1163.00 2025.00 L 1004.00 2025.00 L 943.00 2114.00 Z" stroke-width="1" id="273-23-04" stroke="black"/>
  <path fill="none" d="M 1263.00 2114.00 L 1283.00 2113.00 L 1663.00 2113.00 L 1695.00 2025.00 L 1583.00 2025.00 L 1563.00 2045.00 L 1543.00 2045.00 L 1523.00 2025.00 L 1263.00 2025.00 L 1243.00 2045.00 L 1185.00 2045.00 L 1167.00 2114.00 Z" stroke-width="1" id="273-23-05" stroke="black"/>
  <path fill="none" d="M 1823.00 2113.00 L 1822.97 2024.00 L 1763.00 2024.00 L 1743.00 2025.00 L 1695.00 2025.00 L 1663.00 2113.00 Z" stroke-width="1" id="273-23-06" stroke="black"/>
  <path fill="none" d="M 1957.42 2113.00 L 1953.00 2061.00 L 1938.97 2024.00 L 1822.97 2024.00 L 1823.00 2113.00 Z" stroke-width="1" id="273-23-07" stroke="black"/>
  <path fill="none" d="M 240.00 2114.00 L 240.00 2115.00 L 241.00 2160.00 L 225.00 2185.00 L 241.00 2196.00 L 241.31 2204.00 L 323.00 2204.00 L 343.00 2205.00 L 523.00 2205.00 L 543.00 2206.00 L 723.00 2206.00 L 743.00 2227.00 L 763.00 2207.00 L 779.00 2207.00 L 791.00 2114.00 L 563.00 2114.00 L 543.00 2134.00 L 523.00 2134.00 L 503.00 2133.00 L 483.00 2133.00 L 463.00 2125.00 L 443.00 2119.00 L 423.00 2114.00 Z" stroke-width="1" id="273-24-01" stroke="black"/>
  <path fill="none" d="M 923.00 2207.00 L 943.00 2208.00 L 999.00 2208.00 L 1022.00 2114.00 L 983.00 2114.00 L 963.00 2134.00 L 943.00 2114.00 L 791.00 2114.00 L 779.00 2207.00 Z" stroke-width="1" id="273-24-02" stroke="black"/>
  <path fill="none" d="M 1123.00 2208.00 L 1143.00 2209.00 L 1243.00 2209.00 L 1263.00 2189.00 L 1283.00 2209.00 L 1303.00 2225.00 L 1323.00 2221.00 L 1343.00 2210.00 L 1362.00 2210.00 L 1367.42 2113.00 L 1283.00 2113.00 L 1263.00 2114.00 L 1022.00 2114.00 L 999.00 2208.00 Z" stroke-width="1" id="273-24-03" stroke="black"/>
  <path fill="none" d="M 1383.00 2210.00 L 1403.00 2190.00 L 1423.00 2210.00 L 1523.00 2210.00 L 1573.42 2113.00 L 1367.42 2113.00 L 1362.00 2210.00 Z" stroke-width="1" id="273-24-04" stroke="black"/>
  <path fill="none" d="M 1543.00 2211.00 L 1583.00 2211.00 L 1603.00 2191.00 L 1623.00 2211.00 L 1723.00 2211.00 L 1743.00 2212.00 L 1759.00 2212.00 L 1766.42 2113.00 L 1573.42 2113.00 L 1523.00 2210.00 Z" stroke-width="1" id="273-24-05" stroke="black"/>
  <path fill="none" d="M 1825.00 2212.00 L 1861.42 2113.00 L 1766.42 2113.00 L 1759.00 2212.00 Z" stroke-width="1" id="273-24-06" stroke="black"/>
  <path fill="none" d="M 1923.00 2212.00 L 1936.36 2212.67 L 1962.00 2167.00 L 1957.42 2113.00 L 1861.42 2113.00 L 1825.00 2212.00 Z" stroke-width="1" id="273-24-07" stroke="black"/>
  <path fill="none" d="M 241.31 2204.00 L 243.00 2248.00 L 222.00 2275.00 L 241.00 2281.00 L 241.94 2298.95 L 243.00 2299.00 L 343.00 2299.00 L 350.00 2299.35 L 357.00 2205.00 L 343.00 2205.00 L 323.00 2204.00 Z" stroke-width="1" id="273-25-01" stroke="black"/>
  <path fill="none" d="M 363.00 2300.00 L 463.00 2300.00 L 483.00 2301.00 L 563.00 2301.00 L 583.00 2281.00 L 588.00 2206.00 L 543.00 2206.00 L 523.00 2205.00 L 357.00 2205.00 L 350.00 2299.35 Z" stroke-width="1" id="273-25-02" stroke="black"/>
  <path fill="none" d="M 603.00 2282.00 L 623.00 2282.00 L 643.00 2302.00 L 683.00 2302.00 L 703.00 2303.00 L 803.00 2303.00 L 823.00 2304.00 L 923.00 2304.00 L 943.00 2305.00 L 959.00 2305.00 L 1001.00 2208.00 L 943.00 2208.00 L 923.00 2207.00 L 763.00 2207.00 L 743.00 2227.00 L 723.00 2206.00 L 588.00 2206.00 L 583.00 2281.00 Z" stroke-width="1" id="273-25-03" stroke="black"/>
  <path fill="none" d="M 1043.00 2305.00 L 1063.00 2306.00 L 1143.00 2306.00 L 1163.00 2307.00 L 1263.00 2307.00 L 1283.00 2308.00 L 1357.00 2308.00 L 1419.00 2206.00 L 1403.00 2190.00 L 1383.00 2210.00 L 1343.00 2210.00 L 1323.00 2221.00 L 1303.00 2225.00 L 1283.00 2209.00 L 1263.00 2189.00 L 1243.00 2209.00 L 1143.00 2209.00 L 1123.00 2208.00 L 1001.00 2208.00 L 959.00 2305.00 Z" stroke-width="1" id="273-25-04" stroke="black"/>
  <path fill="none" d="M 1383.00 2308.00 L 1403.00 2309.00 L 1423.00 2289.00 L 1443.00 2309.00 L 1503.00 2309.00 L 1523.00 2310.00 L 1563.00 2310.00 L 1583.00 2290.00 L 1625.00 2211.00 L 1623.00 2211.00 L 1603.00 2191.00 L 1583.00 2211.00 L 1543.00 2211.00 L 1523.00 2210.00 L 1423.00 2210.00 L 1419.00 2206.00 L 1357.00 2308.00 Z" stroke-width="1" id="273-25-05" stroke="black"/>
  <path fill="none" d="M 1603.00 2310.00 L 1623.00 2310.00 L 1643.00 2311.00 L 1723.00 2311.00 L 1743.00 2292.00 L 1763.00 2312.00 L 1770.00 2312.00 L 1809.00 2212.00 L 1743.00 2212.00 L 1723.00 2211.00 L 1625.00 2211.00 L 1583.00 2290.00 Z" stroke-width="1" id="273-25-06" stroke="black"/>
  <path fill="none" d="M 1843.00 2312.00 L 1863.00 2313.00 L 1963.00 2313.00 L 1963.38 2313.02 L 1930.00 2224.00 L 1936.36 2212.67 L 1923.00 2212.00 L 1809.00 2212.00 L 1770.00 2312.00 Z" stroke-width="1" id="273-25-07" stroke="black"/>
  <path fill="none" d="M 241.94 2298.95 L 244.00 2338.00 L 222.00 2355.00 L 241.00 2376.00 L 241.00 2378.00 L 243.00 2378.00 L 263.00 2379.00 L 363.00 2379.00 L 383.00 2380.00 L 474.00 2380.00 L 504.00 2301.00 L 483.00 2301.00 L 463.00 2300.00 L 363.00 2300.00 L 343.00 2299.00 L 243.00 2299.00 Z" stroke-width="1" id="273-26-01" stroke="black"/>
  <path fill="none" d="M 503.00 2380.00 L 523.00 2381.00 L 623.00 2381.00 L 643.00 2382.00 L 703.00 2382.00 L 743.00 2303.00 L 703.00 2303.00 L 683.00 2302.00 L 643.00 2302.00 L 623.00 2282.00 L 603.00 2282.00 L 583.00 2281.00 L 563.00 2301.00 L 504.00 2301.00 L 474.00 2380.00 Z" stroke-width="1" id="273-26-02" stroke="black"/>
  <path fill="none" d="M 763.00 2382.00 L 783.00 2383.00 L 883.00 2383.00 L 903.00 2384.00 L 1003.00 2384.00 L 1023.00 2385.00 L 1143.00 2385.00 L 1163.00 2386.00 L 1217.00 2386.00 L 1217.00 2307.00 L 1163.00 2307.00 L 1143.00 2306.00 L 1063.00 2306.00 L 1043.00 2305.00 L 943.00 2305.00 L 923.00 2304.00 L 823.00 2304.00 L 803.00 2303.00 L 743.00 2303.00 L 703.00 2382.00 Z" stroke-width="1" id="273-26-03" stroke="black"/>
  <path fill="none" d="M 1263.00 2386.00 L 1283.00 2387.00 L 1310.00 2387.00 L 1322.00 2308.00 L 1283.00 2308.00 L 1263.00 2307.00 L 1217.00 2307.00 L 1217.00 2386.00 Z" stroke-width="1" id="273-26-04" stroke="black"/>
  <path fill="none" d="M 1403.00 2387.00 L 1423.00 2368.00 L 1443.00 2388.00 L 1508.00 2388.00 L 1514.00 2309.55 L 1503.00 2309.00 L 1443.00 2309.00 L 1423.00 2289.00 L 1403.00 2309.00 L 1383.00 2308.00 L 1322.00 2308.00 L 1310.00 2387.00 Z" stroke-width="1" id="273-26-05" stroke="black"/>
  <path fill="none" d="M 1523.00 2388.00 L 1543.00 2389.00 L 1643.00 2389.00 L 1663.00 2390.00 L 1783.00 2390.00 L 1803.00 2391.00 L 1903.00 2391.00 L 1923.00 2392.00 L 1934.78 2392.00 L 1965.00 2376.00 L 1969.00 2328.00 L 1963.38 2313.02 L 1963.00 2313.00 L 1863.00 2313.00 L 1843.00 2312.00 L 1763.00 2312.00 L 1743.00 2292.00 L 1723.00 2311.00 L 1643.00 2311.00 L 1623.00 2310.00 L 1603.00 2310.00 L 1583.00 2290.00 L 1563.00 2310.00 L 1523.00 2310.00 L 1514.00 2309.55 L 1508.00 2388.00 Z" stroke-width="1" id="273-26-06" stroke="black"/>
  <path fill="none" d="M 241.00 2378.00 L 241.00 2422.00 L 228.00 2439.00 L 253.00 2455.00 L 250.75 2472.00 L 323.00 2472.00 L 343.00 2473.00 L 423.00 2473.00 L 443.00 2474.00 L 523.00 2474.00 L 543.00 2475.00 L 606.00 2475.00 L 621.00 2381.00 L 523.00 2381.00 L 503.00 2380.00 L 383.00 2380.00 L 363.00 2379.00 L 263.00 2379.00 L 243.00 2378.00 Z" stroke-width="1" id="273-27-01" stroke="black"/>
  <path fill="none" d="M 623.00 2475.00 L 643.00 2476.00 L 702.00 2476.00 L 736.00 2382.00 L 643.00 2382.00 L 623.00 2381.00 L 621.00 2381.00 L 606.00 2475.00 Z" stroke-width="1" id="273-27-02" stroke="black"/>
  <path fill="none" d="M 723.00 2476.00 L 743.00 2477.00 L 823.00 2477.00 L 843.00 2478.00 L 905.00 2478.00 L 941.00 2384.00 L 903.00 2384.00 L 883.00 2383.00 L 783.00 2383.00 L 763.00 2382.00 L 736.00 2382.00 L 702.00 2476.00 Z" stroke-width="1" id="273-27-03" stroke="black"/>
  <path fill="none" d="M 923.00 2478.00 L 943.00 2479.00 L 1023.00 2479.00 L 1043.00 2480.00 L 1045.00 2480.00 L 1050.00 2385.00 L 1023.00 2385.00 L 1003.00 2384.00 L 941.00 2384.00 L 905.00 2478.00 Z" stroke-width="1" id="273-27-04" stroke="black"/>
  <path fill="none" d="M 1063.00 2480.00 L 1083.00 2460.00 L 1103.00 2480.00 L 1123.00 2480.00 L 1143.00 2481.00 L 1196.00 2481.00 L 1213.00 2386.00 L 1163.00 2386.00 L 1143.00 2385.00 L 1050.00 2385.00 L 1045.00 2480.00 Z" stroke-width="1" id="273-27-05" stroke="black"/>
  <path fill="none" d="M 1223.00 2481.00 L 1243.00 2482.00 L 1323.00 2482.00 L 1331.00 2482.40 L 1377.00 2387.00 L 1283.00 2387.00 L 1263.00 2386.00 L 1213.00 2386.00 L 1196.00 2481.00 Z" stroke-width="1" id="273-27-06" stroke="black"/>
  <path fill="none" d="M 1343.00 2483.00 L 1423.00 2483.00 L 1443.00 2484.00 L 1517.00 2484.00 L 1564.00 2389.00 L 1543.00 2389.00 L 1523.00 2388.00 L 1443.00 2388.00 L 1423.00 2368.00 L 1403.00 2387.00 L 1377.00 2387.00 L 1331.00 2482.40 Z" stroke-width="1" id="273-27-07" stroke="black"/>
  <path fill="none" d="M 1523.00 2484.00 L 1543.00 2485.00 L 1623.00 2485.00 L 1643.00 2486.00 L 1723.00 2486.00 L 1743.00 2467.00 L 1753.00 2477.00 L 1811.00 2391.00 L 1803.00 2391.00 L 1783.00 2390.00 L 1663.00 2390.00 L 1643.00 2389.00 L 1564.00 2389.00 L 1517.00 2484.00 Z" stroke-width="1" id="273-27-08" stroke="black"/>
  <path fill="none" d="M 1763.00 2487.00 L 1823.00 2487.00 L 1843.00 2488.00 L 1916.36 2488.00 L 1914.00 2403.00 L 1934.78 2392.00 L 1923.00 2392.00 L 1903.00 2391.00 L 1811.00 2391.00 L 1753.00 2477.00 Z" stroke-width="1" id="273-27-09" stroke="black"/>
  <path fill="none" d="M 250.75 2472.00 L 244.00 2523.00 L 256.35 2558.00 L 263.00 2558.00 L 283.00 2559.00 L 303.00 2567.00 L 323.00 2563.00 L 343.00 2561.00 L 363.00 2560.00 L 423.00 2560.00 L 443.00 2561.00 L 503.00 2561.00 L 523.00 2562.00 L 528.00 2562.00 L 584.00 2475.00 L 543.00 2475.00 L 523.00 2474.00 L 443.00 2474.00 L 423.00 2473.00 L 343.00 2473.00 L 323.00 2472.00 Z" stroke-width="1" id="273-28-01" stroke="black"/>
  <path fill="none" d="M 583.00 2562.00 L 603.00 2563.00 L 663.00 2563.00 L 683.00 2564.00 L 743.00 2564.00 L 763.00 2565.00 L 823.00 2565.00 L 843.00 2566.00 L 864.00 2566.00 L 910.00 2478.00 L 843.00 2478.00 L 823.00 2477.00 L 743.00 2477.00 L 723.00 2476.00 L 643.00 2476.00 L 623.00 2475.00 L 584.00 2475.00 L 528.00 2562.00 Z" stroke-width="1" id="273-28-02" stroke="black"/>
  <path fill="none" d="M 883.00 2566.00 L 903.00 2586.00 L 923.00 2567.00 L 982.00 2567.00 L 986.00 2479.00 L 943.00 2479.00 L 923.00 2478.00 L 910.00 2478.00 L 864.00 2566.00 Z" stroke-width="1" id="273-28-03" stroke="black"/>
  <path fill="none" d="M 983.00 2567.00 L 1003.00 2568.00 L 1043.00 2568.00 L 1063.00 2569.00 L 1117.00 2569.00 L 1144.00 2481.00 L 1143.00 2481.00 L 1123.00 2480.00 L 1103.00 2480.00 L 1083.00 2460.00 L 1063.00 2480.00 L 1043.00 2480.00 L 1023.00 2479.00 L 986.00 2479.00 L 982.00 2567.00 Z" stroke-width="1" id="273-28-04" stroke="black"/>
  <path fill="none" d="M 1123.00 2569.00 L 1143.00 2570.00 L 1183.00 2570.00 L 1203.00 2550.00 L 1223.00 2571.00 L 1283.00 2571.00 L 1303.00 2572.00 L 1363.00 2572.00 L 1383.00 2573.00 L 1443.00 2573.00 L 1463.00 2574.00 L 1523.00 2574.00 L 1543.00 2575.00 L 1552.00 2575.00 L 1564.00 2485.00 L 1543.00 2485.00 L 1523.00 2484.00 L 1443.00 2484.00 L 1423.00 2483.00 L 1343.00 2483.00 L 1323.00 2482.00 L 1243.00 2482.00 L 1223.00 2481.00 L 1144.00 2481.00 L 1117.00 2569.00 Z" stroke-width="1" id="273-28-05" stroke="black"/>
  <path fill="none" d="M 1603.00 2575.00 L 1623.00 2576.00 L 1683.00 2576.00 L 1703.00 2577.00 L 1711.00 2577.00 L 1752.00 2476.00 L 1743.00 2467.00 L 1723.00 2486.00 L 1643.00 2486.00 L 1623.00 2485.00 L 1564.00 2485.00 L 1552.00 2575.00 Z" stroke-width="1" id="273-28-06" stroke="black"/>
  <path fill="none" d="M 1763.00 2577.00 L 1783.00 2578.00 L 1843.00 2578.00 L 1863.00 2579.00 L 1923.00 2579.00 L 1943.00 2580.00 L 1953.24 2580.00 L 1917.00 2511.00 L 1916.36 2488.00 L 1843.00 2488.00 L 1823.00 2487.00 L 1763.00 2487.00 L 1752.00 2476.00 L 1711.00 2577.00 Z" stroke-width="1" id="273-28-07" stroke="black"/>
  <path fill="none" d="M 256.35 2558.00 L 262.00 2574.00 L 265.00 2616.00 L 259.81 2634.84 L 263.00 2635.00 L 303.00 2635.00 L 323.00 2636.00 L 383.00 2636.00 L 403.00 2637.00 L 443.00 2637.00 L 458.00 2637.75 L 492.00 2561.00 L 443.00 2561.00 L 423.00 2560.00 L 363.00 2560.00 L 343.00 2561.00 L 323.00 2563.00 L 303.00 2567.00 L 283.00 2559.00 L 263.00 2558.00 Z" stroke-width="1" id="273-29-01" stroke="black"/>
  <path fill="none" d="M 463.00 2638.00 L 503.00 2638.00 L 523.00 2639.00 L 563.00 2639.00 L 583.00 2640.00 L 635.00 2640.00 L 690.00 2564.00 L 683.00 2564.00 L 663.00 2563.00 L 603.00 2563.00 L 583.00 2562.00 L 523.00 2562.00 L 503.00 2561.00 L 492.00 2561.00 L 458.00 2637.75 Z" stroke-width="1" id="273-29-02" stroke="black"/>
  <path fill="none" d="M 643.00 2640.00 L 663.00 2641.00 L 683.00 2621.00 L 703.00 2641.00 L 723.00 2642.00 L 763.00 2642.00 L 783.00 2643.00 L 823.00 2643.00 L 843.00 2644.00 L 862.00 2644.00 L 895.00 2578.00 L 883.00 2566.00 L 843.00 2566.00 L 823.00 2565.00 L 763.00 2565.00 L 743.00 2564.00 L 690.00 2564.00 L 635.00 2640.00 Z" stroke-width="1" id="273-29-03" stroke="black"/>
  <path fill="none" d="M 883.00 2644.00 L 903.00 2664.00 L 923.00 2645.00 L 963.00 2645.00 L 983.00 2646.00 L 1023.00 2646.00 L 1043.00 2647.00 L 1071.00 2647.00 L 1140.00 2569.85 L 1123.00 2569.00 L 1063.00 2569.00 L 1043.00 2568.00 L 1003.00 2568.00 L 983.00 2567.00 L 923.00 2567.00 L 903.00 2586.00 L 895.00 2578.00 L 862.00 2644.00 Z" stroke-width="1" id="273-29-04" stroke="black"/>
  <path fill="none" d="M 1083.00 2647.00 L 1103.00 2648.00 L 1163.00 2648.00 L 1183.00 2649.00 L 1223.00 2649.00 L 1243.00 2650.00 L 1283.00 2650.00 L 1285.00 2650.10 L 1339.00 2572.00 L 1303.00 2572.00 L 1283.00 2571.00 L 1223.00 2571.00 L 1203.00 2550.00 L 1183.00 2570.00 L 1143.00 2570.00 L 1140.00 2569.85 L 1071.00 2647.00 Z" stroke-width="1" id="273-29-05" stroke="black"/>
  <path fill="none" d="M 1303.00 2651.00 L 1343.00 2651.00 L 1363.00 2652.00 L 1387.00 2652.00 L 1435.00 2573.00 L 1383.00 2573.00 L 1363.00 2572.00 L 1339.00 2572.00 L 1285.00 2650.10 Z" stroke-width="1" id="273-29-06" stroke="black"/>
  <path fill="none" d="M 1423.00 2652.00 L 1443.00 2653.00 L 1483.00 2653.00 L 1503.00 2654.00 L 1526.00 2654.00 L 1550.00 2575.00 L 1543.00 2575.00 L 1523.00 2574.00 L 1463.00 2574.00 L 1443.00 2573.00 L 1435.00 2573.00 L 1387.00 2652.00 Z" stroke-width="1" id="273-29-07" stroke="black"/>
  <path fill="none" d="M 1543.00 2654.00 L 1563.00 2655.00 L 1603.00 2655.00 L 1623.00 2656.00 L 1683.00 2656.00 L 1703.00 2657.00 L 1743.00 2657.00 L 1763.00 2658.00 L 1803.00 2658.00 L 1823.00 2659.00 L 1824.00 2659.00 L 1823.00 2578.00 L 1783.00 2578.00 L 1763.00 2577.00 L 1703.00 2577.00 L 1683.00 2576.00 L 1623.00 2576.00 L 1603.00 2575.00 L 1550.00 2575.00 L 1526.00 2654.00 Z" stroke-width="1" id="273-29-08" stroke="black"/>
  <path fill="none" d="M 1883.00 2659.00 L 1903.00 2660.00 L 1943.00 2660.00 L 1961.31 2660.92 L 1969.00 2610.00 L 1953.24 2580.00 L 1943.00 2580.00 L 1923.00 2579.00 L 1863.00 2579.00 L 1843.00 2578.00 L 1823.00 2578.00 L 1824.00 2659.00 Z" stroke-width="1" id="273-29-09" stroke="black"/>
  <path fill="none" d="M 259.81 2634.84 L 246.00 2685.00 L 231.00 2709.00 L 226.00 2737.00 L 248.99 2738.01 L 263.00 2724.00 L 283.00 2725.00 L 343.00 2725.00 L 363.00 2726.00 L 407.00 2726.00 L 389.00 2636.30 L 383.00 2636.00 L 323.00 2636.00 L 303.00 2635.00 L 263.00 2635.00 Z" stroke-width="1" id="273-30-01" stroke="black"/>
  <path fill="none" d="M 423.00 2726.00 L 443.00 2727.00 L 503.00 2727.00 L 523.00 2728.00 L 583.00 2728.00 L 603.00 2729.00 L 659.00 2729.00 L 705.00 2641.10 L 703.00 2641.00 L 683.00 2621.00 L 663.00 2641.00 L 643.00 2640.00 L 583.00 2640.00 L 563.00 2639.00 L 523.00 2639.00 L 503.00 2638.00 L 463.00 2638.00 L 443.00 2637.00 L 403.00 2637.00 L 389.00 2636.30 L 407.00 2726.00 Z" stroke-width="1" id="273-30-02" stroke="black"/>
  <path fill="none" d="M 663.00 2729.00 L 683.00 2730.00 L 743.00 2730.00 L 763.00 2731.00 L 823.00 2731.00 L 843.00 2732.00 L 901.00 2732.00 L 945.00 2645.00 L 923.00 2645.00 L 903.00 2664.00 L 883.00 2644.00 L 843.00 2644.00 L 823.00 2643.00 L 783.00 2643.00 L 763.00 2642.00 L 723.00 2642.00 L 705.00 2641.10 L 659.00 2729.00 Z" stroke-width="1" id="273-30-03" stroke="black"/>
  <path fill="none" d="M 903.00 2732.00 L 923.00 2733.00 L 983.00 2733.00 L 1003.00 2734.00 L 1063.00 2734.00 L 1083.00 2735.00 L 1096.00 2735.00 L 1113.00 2648.00 L 1103.00 2648.00 L 1083.00 2647.00 L 1043.00 2647.00 L 1023.00 2646.00 L 983.00 2646.00 L 963.00 2645.00 L 945.00 2645.00 L 901.00 2732.00 Z" stroke-width="1" id="273-30-04" stroke="black"/>
  <path fill="none" d="M 1123.00 2735.00 L 1143.00 2736.00 L 1203.00 2736.00 L 1209.00 2736.30 L 1219.00 2649.00 L 1183.00 2649.00 L 1163.00 2648.00 L 1113.00 2648.00 L 1096.00 2735.00 Z" stroke-width="1" id="273-30-05" stroke="black"/>
  <path fill="none" d="M 1223.00 2737.00 L 1283.00 2737.00 L 1303.00 2738.00 L 1363.00 2738.00 L 1383.00 2739.00 L 1443.00 2739.00 L 1463.00 2740.00 L 1475.00 2740.00 L 1515.00 2654.00 L 1503.00 2654.00 L 1483.00 2653.00 L 1443.00 2653.00 L 1423.00 2652.00 L 1363.00 2652.00 L 1343.00 2651.00 L 1303.00 2651.00 L 1283.00 2650.00 L 1243.00 2650.00 L 1223.00 2649.00 L 1219.00 2649.00 L 1209.00 2736.30 Z" stroke-width="1" id="273-30-06" stroke="black"/>
  <path fill="none" d="M 1483.00 2740.00 L 1503.00 2760.00 L 1523.00 2740.00 L 1543.00 2741.00 L 1588.00 2741.00 L 1637.00 2656.00 L 1623.00 2656.00 L 1603.00 2655.00 L 1563.00 2655.00 L 1543.00 2654.00 L 1515.00 2654.00 L 1475.00 2740.00 Z" stroke-width="1" id="273-30-07" stroke="black"/>
  <path fill="none" d="M 1603.00 2741.00 L 1623.00 2742.00 L 1683.00 2742.00 L 1703.00 2743.00 L 1763.00 2743.00 L 1783.00 2744.00 L 1796.00 2744.00 L 1826.00 2659.00 L 1823.00 2659.00 L 1803.00 2658.00 L 1763.00 2658.00 L 1743.00 2657.00 L 1703.00 2657.00 L 1683.00 2656.00 L 1637.00 2656.00 L 1588.00 2741.00 Z" stroke-width="1" id="273-30-08" stroke="black"/>
  <path fill="none" d="M 1843.00 2744.00 L 1863.00 2745.00 L 1923.00 2745.00 L 1943.00 2746.00 L 1963.95 2746.00 L 1953.00 2716.00 L 1961.31 2660.92 L 1943.00 2660.00 L 1903.00 2660.00 L 1883.00 2659.00 L 1826.00 2659.00 L 1796.00 2744.00 Z" stroke-width="1" id="273-30-09" stroke="black"/>
  <path fill="none" d="M 263.00 2724.00 L 248.99 2738.01 L 294.00 2740.00 L 289.00 2793.00 L 284.00 2808.00 L 303.00 2808.00 L 323.00 2809.00 L 363.00 2809.00 L 383.00 2810.00 L 403.00 2810.00 L 413.00 2800.00 L 425.00 2726.10 L 423.00 2726.00 L 363.00 2726.00 L 343.00 2725.00 L 283.00 2725.00 Z" stroke-width="1" id="273-31-01" stroke="black"/>
  <path fill="none" d="M 423.00 2790.00 L 443.00 2811.00 L 463.00 2811.00 L 483.00 2791.00 L 503.00 2812.00 L 543.00 2812.00 L 563.00 2813.00 L 603.00 2813.00 L 611.00 2813.40 L 623.00 2729.00 L 603.00 2729.00 L 583.00 2728.00 L 523.00 2728.00 L 503.00 2727.00 L 443.00 2727.00 L 425.00 2726.10 L 413.00 2800.00 Z" stroke-width="1" id="273-31-02" stroke="black"/>
  <path fill="none" d="M 623.00 2814.00 L 663.00 2814.00 L 683.00 2815.00 L 706.00 2815.00 L 745.00 2730.10 L 743.00 2730.00 L 683.00 2730.00 L 663.00 2729.00 L 623.00 2729.00 L 611.00 2813.40 Z" stroke-width="1" id="273-31-03" stroke="black"/>
  <path fill="none" d="M 723.00 2815.00 L 743.00 2816.00 L 783.00 2816.00 L 803.00 2817.00 L 843.00 2817.00 L 863.00 2818.00 L 923.00 2818.00 L 941.00 2818.90 L 961.00 2733.00 L 923.00 2733.00 L 903.00 2732.00 L 843.00 2732.00 L 823.00 2731.00 L 763.00 2731.00 L 745.00 2730.10 L 706.00 2815.00 Z" stroke-width="1" id="273-31-04" stroke="black"/>
  <path fill="none" d="M 943.00 2819.00 L 983.00 2819.00 L 1003.00 2820.00 L 1043.00 2820.00 L 1063.00 2821.00 L 1103.00 2821.00 L 1123.00 2822.00 L 1163.00 2822.00 L 1183.00 2823.00 L 1203.00 2843.00 L 1223.00 2843.00 L 1243.00 2824.00 L 1274.00 2824.00 L 1308.00 2738.00 L 1303.00 2738.00 L 1283.00 2737.00 L 1223.00 2737.00 L 1203.00 2736.00 L 1143.00 2736.00 L 1123.00 2735.00 L 1083.00 2735.00 L 1063.00 2734.00 L 1003.00 2734.00 L 983.00 2733.00 L 961.00 2733.00 L 941.00 2818.90 Z" stroke-width="1" id="273-31-05" stroke="black"/>
  <path fill="none" d="M 1283.00 2824.00 L 1303.00 2825.00 L 1343.00 2825.00 L 1363.00 2826.00 L 1403.00 2826.00 L 1423.00 2827.00 L 1463.00 2827.00 L 1483.00 2828.00 L 1523.00 2828.00 L 1543.00 2829.00 L 1583.00 2829.00 L 1603.00 2830.00 L 1634.00 2830.00 L 1638.00 2742.00 L 1623.00 2742.00 L 1603.00 2741.00 L 1543.00 2741.00 L 1523.00 2740.00 L 1503.00 2760.00 L 1483.00 2740.00 L 1463.00 2740.00 L 1443.00 2739.00 L 1383.00 2739.00 L 1363.00 2738.00 L 1308.00 2738.00 L 1274.00 2824.00 Z" stroke-width="1" id="273-31-06" stroke="black"/>
  <path fill="none" d="M 1643.00 2830.00 L 1663.00 2831.00 L 1695.00 2831.00 L 1712.00 2743.00 L 1703.00 2743.00 L 1683.00 2742.00 L 1638.00 2742.00 L 1634.00 2830.00 Z" stroke-width="1" id="273-31-07" stroke="black"/>
  <path fill="none" d="M 1723.00 2831.00 L 1743.00 2832.00 L 1783.00 2832.00 L 1803.00 2833.00 L 1843.00 2833.00 L 1863.00 2834.00 L 1903.00 2834.00 L 1923.00 2835.00 L 1948.13 2835.00 L 1947.00 2818.00 L 1980.00 2790.00 L 1963.95 2746.00 L 1943.00 2746.00 L 1923.00 2745.00 L 1863.00 2745.00 L 1843.00 2744.00 L 1783.00 2744.00 L 1763.00 2743.00 L 1712.00 2743.00 L 1695.00 2831.00 Z" stroke-width="1" id="273-31-08" stroke="black"/>
  <path fill="none" d="M 231.00 2857.00 L 234.00 2878.00 L 255.00 2887.00 L 254.23 2896.00 L 283.00 2896.00 L 303.00 2897.00 L 323.00 2897.00 L 343.00 2898.00 L 356.00 2898.00 L 367.00 2809.20 L 363.00 2809.00 L 323.00 2809.00 L 303.00 2808.00 L 284.00 2808.00 L 276.00 2832.00 Z" stroke-width="1" id="273-32-01" stroke="black"/>
  <path fill="none" d="M 383.00 2898.00 L 403.00 2899.00 L 443.00 2899.00 L 463.00 2900.00 L 483.00 2900.00 L 503.00 2920.00 L 523.00 2921.00 L 543.00 2901.00 L 563.00 2902.00 L 603.00 2902.00 L 623.00 2903.00 L 663.00 2903.00 L 683.00 2904.00 L 723.00 2904.00 L 743.00 2905.00 L 763.00 2905.00 L 783.00 2906.00 L 784.00 2906.00 L 829.00 2817.00 L 803.00 2817.00 L 783.00 2816.00 L 743.00 2816.00 L 723.00 2815.00 L 683.00 2815.00 L 663.00 2814.00 L 623.00 2814.00 L 603.00 2813.00 L 563.00 2813.00 L 543.00 2812.00 L 503.00 2812.00 L 483.00 2791.00 L 463.00 2811.00 L 443.00 2811.00 L 423.00 2790.00 L 403.00 2810.00 L 383.00 2810.00 L 367.00 2809.20 L 356.00 2898.00 Z" stroke-width="1" id="273-32-02" stroke="black"/>
  <path fill="none" d="M 823.00 2906.00 L 843.00 2907.00 L 883.00 2907.00 L 903.00 2888.00 L 914.00 2888.00 L 924.00 2818.05 L 923.00 2818.00 L 863.00 2818.00 L 843.00 2817.00 L 829.00 2817.00 L 784.00 2906.00 Z" stroke-width="1" id="273-32-03" stroke="black"/>
  <path fill="none" d="M 923.00 2888.00 L 943.00 2908.00 L 963.00 2909.00 L 983.00 2909.00 L 1003.00 2910.00 L 1043.00 2910.00 L 1063.00 2911.00 L 1099.00 2911.00 L 1131.00 2822.00 L 1123.00 2822.00 L 1103.00 2821.00 L 1063.00 2821.00 L 1043.00 2820.00 L 1003.00 2820.00 L 983.00 2819.00 L 943.00 2819.00 L 924.00 2818.05 L 914.00 2888.00 Z" stroke-width="1" id="273-32-04" stroke="black"/>
  <path fill="none" d="M 1103.00 2911.00 L 1123.00 2912.00 L 1163.00 2912.00 L 1183.00 2913.00 L 1203.00 2913.00 L 1223.00 2914.00 L 1263.00 2914.00 L 1283.00 2915.00 L 1323.00 2915.00 L 1343.00 2916.00 L 1363.00 2896.00 L 1383.00 2896.00 L 1403.00 2897.00 L 1423.00 2917.00 L 1443.00 2918.00 L 1483.00 2918.00 L 1503.00 2919.00 L 1543.00 2919.00 L 1563.00 2920.00 L 1603.00 2920.00 L 1623.00 2921.00 L 1661.00 2830.90 L 1643.00 2830.00 L 1603.00 2830.00 L 1583.00 2829.00 L 1543.00 2829.00 L 1523.00 2828.00 L 1483.00 2828.00 L 1463.00 2827.00 L 1423.00 2827.00 L 1403.00 2826.00 L 1363.00 2826.00 L 1343.00 2825.00 L 1303.00 2825.00 L 1283.00 2824.00 L 1243.00 2824.00 L 1223.00 2843.00 L 1203.00 2843.00 L 1183.00 2823.00 L 1163.00 2822.00 L 1131.00 2822.00 L 1099.00 2911.00 Z" stroke-width="1" id="273-32-05" stroke="black"/>
  <path fill="none" d="M 1643.00 2921.00 L 1663.00 2922.00 L 1703.00 2922.00 L 1723.00 2923.00 L 1763.00 2923.00 L 1783.00 2924.00 L 1808.00 2924.00 L 1820.00 2833.00 L 1803.00 2833.00 L 1783.00 2832.00 L 1743.00 2832.00 L 1723.00 2831.00 L 1663.00 2831.00 L 1661.00 2830.90 L 1623.00 2921.00 Z" stroke-width="1" id="273-32-06" stroke="black"/>
  <path fill="none" d="M 1823.00 2924.00 L 1843.00 2925.00 L 1863.00 2925.00 L 1883.00 2926.00 L 1923.00 2926.00 L 1941.71 2926.94 L 1938.00 2925.00 L 1951.00 2878.00 L 1948.13 2835.00 L 1923.00 2835.00 L 1903.00 2834.00 L 1863.00 2834.00 L 1843.00 2833.00 L 1820.00 2833.00 L 1808.00 2924.00 Z" stroke-width="1" id="273-32-07" stroke="black"/>
  <path fill="none" d="M 254.23 2896.00 L 252.00 2922.00 L 234.00 2961.00 L 249.00 2973.00 L 250.62 2983.00 L 263.00 2983.00 L 283.00 2984.00 L 303.00 2984.00 L 316.00 2984.65 L 331.00 2897.40 L 323.00 2897.00 L 303.00 2897.00 L 283.00 2896.00 Z" stroke-width="1" id="273-33-01" stroke="black"/>
  <path fill="none" d="M 323.00 2985.00 L 343.00 2985.00 L 363.00 2986.00 L 403.00 2986.00 L 423.00 2987.00 L 443.00 2987.00 L 463.00 2988.00 L 503.00 2988.00 L 517.00 2988.70 L 524.00 2920.00 L 523.00 2921.00 L 503.00 2920.00 L 483.00 2900.00 L 463.00 2900.00 L 443.00 2899.00 L 403.00 2899.00 L 383.00 2898.00 L 343.00 2898.00 L 331.00 2897.40 L 316.00 2984.65 Z" stroke-width="1" id="273-33-02" stroke="black"/>
  <path fill="none" d="M 523.00 2989.00 L 543.00 2989.00 L 563.00 3010.00 L 583.00 2990.00 L 603.00 2991.00 L 639.00 2991.00 L 681.00 2903.90 L 663.00 2903.00 L 623.00 2903.00 L 603.00 2902.00 L 563.00 2902.00 L 543.00 2901.00 L 524.00 2920.00 L 517.00 2988.70 Z" stroke-width="1" id="273-33-03" stroke="black"/>
  <path fill="none" d="M 643.00 2991.00 L 663.00 2992.00 L 683.00 2992.00 L 703.00 2993.00 L 723.00 2993.00 L 743.00 2994.00 L 774.00 2994.00 L 804.00 2906.00 L 783.00 2906.00 L 763.00 2905.00 L 743.00 2905.00 L 723.00 2904.00 L 683.00 2904.00 L 681.00 2903.90 L 639.00 2991.00 Z" stroke-width="1" id="273-33-04" stroke="black"/>
  <path fill="none" d="M 783.00 2994.00 L 803.00 2995.00 L 823.00 2995.00 L 843.00 2996.00 L 863.00 2976.00 L 883.00 2996.00 L 903.00 2997.00 L 923.00 2997.00 L 943.00 2998.00 L 954.00 3009.00 L 1008.00 2910.00 L 1003.00 2910.00 L 983.00 2909.00 L 963.00 2909.00 L 943.00 2908.00 L 923.00 2888.00 L 903.00 2888.00 L 883.00 2907.00 L 843.00 2907.00 L 823.00 2906.00 L 804.00 2906.00 L 774.00 2994.00 Z" stroke-width="1" id="273-33-05" stroke="black"/>
  <path fill="none" d="M 963.00 3018.00 L 983.00 2999.00 L 1023.00 2999.00 L 1043.00 3000.00 L 1063.00 3000.00 L 1083.00 3001.00 L 1103.00 3001.00 L 1123.00 3002.00 L 1163.00 3002.00 L 1183.00 3003.00 L 1203.00 3003.00 L 1223.00 3004.00 L 1263.00 3004.00 L 1279.00 3004.80 L 1308.00 2915.00 L 1283.00 2915.00 L 1263.00 2914.00 L 1223.00 2914.00 L 1203.00 2913.00 L 1183.00 2913.00 L 1163.00 2912.00 L 1123.00 2912.00 L 1103.00 2911.00 L 1063.00 2911.00 L 1043.00 2910.00 L 1008.00 2910.00 L 954.00 3009.00 Z" stroke-width="1" id="273-33-06" stroke="black"/>
  <path fill="none" d="M 1283.00 3005.00 L 1303.00 3005.00 L 1323.00 3006.00 L 1343.00 3006.00 L 1363.00 3007.00 L 1403.00 3007.00 L 1423.00 3008.00 L 1443.00 3008.00 L 1461.00 3008.90 L 1516.00 2919.00 L 1503.00 2919.00 L 1483.00 2918.00 L 1443.00 2918.00 L 1423.00 2917.00 L 1403.00 2897.00 L 1383.00 2896.00 L 1363.00 2896.00 L 1343.00 2916.00 L 1323.00 2915.00 L 1308.00 2915.00 L 1279.00 3004.80 Z" stroke-width="1" id="273-33-07" stroke="black"/>
  <path fill="none" d="M 1463.00 3009.00 L 1483.00 3009.00 L 1503.00 3010.00 L 1543.00 3010.00 L 1563.00 3011.00 L 1583.00 3011.00 L 1603.00 3012.00 L 1643.00 3012.00 L 1663.00 3013.00 L 1683.00 3013.00 L 1684.00 3013.05 L 1713.00 2922.50 L 1703.00 2922.00 L 1663.00 2922.00 L 1643.00 2921.00 L 1623.00 2921.00 L 1603.00 2920.00 L 1563.00 2920.00 L 1543.00 2919.00 L 1516.00 2919.00 L 1461.00 3008.90 Z" stroke-width="1" id="273-33-08" stroke="black"/>
  <path fill="none" d="M 1703.00 3014.00 L 1723.00 3014.00 L 1743.00 3015.00 L 1783.00 3015.00 L 1803.00 3016.00 L 1823.00 3016.00 L 1843.00 3017.00 L 1861.00 3017.00 L 1871.00 2925.40 L 1863.00 2925.00 L 1843.00 2925.00 L 1823.00 2924.00 L 1783.00 2924.00 L 1763.00 2923.00 L 1723.00 2923.00 L 1713.00 2922.50 L 1684.00 3013.05 Z" stroke-width="1" id="273-33-09" stroke="black"/>
  <path fill="none" d="M 1863.00 3017.00 L 1876.00 3017.65 L 1888.00 2926.00 L 1883.00 2926.00 L 1871.00 2925.40 L 1861.00 3017.00 Z" stroke-width="1" id="273-33-10" stroke="black"/>
  <path fill="none" d="M 1883.00 3018.00 L 1923.00 3018.00 L 1943.00 3019.00 L 1946.53 3019.00 L 1948.00 3001.00 L 1986.00 2982.00 L 1984.00 2949.00 L 1941.71 2926.94 L 1923.00 2926.00 L 1888.00 2926.00 L 1876.00 3017.65 Z" stroke-width="1" id="273-33-11" stroke="black"/>
  <path fill="none" d="M 250.62 2983.00 L 255.00 3010.00 L 232.00 3042.00 L 253.00 3051.00 L 254.56 3066.58 L 263.00 3067.00 L 283.00 3067.00 L 303.00 3068.00 L 323.00 3068.00 L 343.00 3069.00 L 363.00 3069.00 L 383.00 3050.00 L 403.00 3070.00 L 423.00 3071.00 L 443.00 3071.00 L 463.00 3072.00 L 483.00 3072.00 L 503.00 3073.00 L 543.00 3073.00 L 563.00 3074.00 L 583.00 3074.00 L 603.00 3075.00 L 654.00 2991.55 L 643.00 2991.00 L 603.00 2991.00 L 583.00 2990.00 L 563.00 3010.00 L 543.00 2989.00 L 523.00 2989.00 L 503.00 2988.00 L 463.00 2988.00 L 443.00 2987.00 L 423.00 2987.00 L 403.00 2986.00 L 363.00 2986.00 L 343.00 2985.00 L 323.00 2985.00 L 303.00 2984.00 L 283.00 2984.00 L 263.00 2983.00 Z" stroke-width="1" id="273-34-01" stroke="black"/>
  <path fill="none" d="M 623.00 3075.00 L 643.00 3076.00 L 663.00 3076.00 L 683.00 3077.00 L 703.00 3077.00 L 723.00 3078.00 L 743.00 3078.00 L 763.00 3079.00 L 767.00 3079.00 L 814.00 2995.00 L 803.00 2995.00 L 783.00 2994.00 L 743.00 2994.00 L 723.00 2993.00 L 703.00 2993.00 L 683.00 2992.00 L 663.00 2992.00 L 654.00 2991.55 L 603.00 3075.00 Z" stroke-width="1" id="273-34-02" stroke="black"/>
  <path fill="none" d="M 783.00 3079.00 L 803.00 3080.00 L 823.00 3080.00 L 843.00 3081.00 L 863.00 3081.00 L 883.00 3082.00 L 914.00 3082.00 L 958.00 3013.00 L 943.00 2998.00 L 923.00 2997.00 L 903.00 2997.00 L 883.00 2996.00 L 863.00 2976.00 L 843.00 2996.00 L 823.00 2995.00 L 814.00 2995.00 L 767.00 3079.00 Z" stroke-width="1" id="273-34-03" stroke="black"/>
  <path fill="none" d="M 923.00 3082.00 L 943.00 3063.00 L 955.00 3075.00 L 1000.00 2999.00 L 983.00 2999.00 L 963.00 3018.00 L 958.00 3013.00 L 914.00 3082.00 Z" stroke-width="1" id="273-34-04" stroke="black"/>
  <path fill="none" d="M 963.00 3083.00 L 983.00 3084.00 L 1003.00 3084.00 L 1023.00 3085.00 L 1043.00 3085.00 L 1063.00 3086.00 L 1073.00 3086.00 L 1134.00 3002.00 L 1123.00 3002.00 L 1103.00 3001.00 L 1083.00 3001.00 L 1063.00 3000.00 L 1043.00 3000.00 L 1023.00 2999.00 L 1000.00 2999.00 L 955.00 3075.00 Z" stroke-width="1" id="273-34-05" stroke="black"/>
  <path fill="none" d="M 1083.00 3086.00 L 1103.00 3087.00 L 1123.00 3087.00 L 1143.00 3088.00 L 1163.00 3088.00 L 1183.00 3089.00 L 1203.00 3089.00 L 1223.00 3090.00 L 1243.00 3090.00 L 1263.00 3091.00 L 1286.00 3091.00 L 1309.00 3005.30 L 1303.00 3005.00 L 1283.00 3005.00 L 1263.00 3004.00 L 1223.00 3004.00 L 1203.00 3003.00 L 1183.00 3003.00 L 1163.00 3002.00 L 1134.00 3002.00 L 1073.00 3086.00 Z" stroke-width="1" id="273-34-06" stroke="black"/>
  <path fill="none" d="M 1303.00 3091.00 L 1323.00 3092.00 L 1343.00 3092.00 L 1363.00 3073.00 L 1373.00 3083.00 L 1419.00 3007.80 L 1403.00 3007.00 L 1363.00 3007.00 L 1343.00 3006.00 L 1323.00 3006.00 L 1309.00 3005.30 L 1286.00 3091.00 Z" stroke-width="1" id="273-34-07" stroke="black"/>
  <path fill="none" d="M 1383.00 3093.00 L 1403.00 3094.00 L 1423.00 3094.00 L 1443.00 3095.00 L 1463.00 3075.00 L 1483.00 3096.00 L 1503.00 3096.00 L 1523.00 3097.00 L 1543.00 3097.00 L 1563.00 3098.00 L 1583.00 3098.00 L 1603.00 3099.00 L 1623.00 3099.00 L 1643.00 3100.00 L 1683.00 3100.00 L 1703.00 3101.00 L 1713.00 3101.00 L 1718.00 3014.00 L 1703.00 3014.00 L 1683.00 3013.00 L 1663.00 3013.00 L 1643.00 3012.00 L 1603.00 3012.00 L 1583.00 3011.00 L 1563.00 3011.00 L 1543.00 3010.00 L 1503.00 3010.00 L 1483.00 3009.00 L 1463.00 3009.00 L 1443.00 3008.00 L 1423.00 3008.00 L 1419.00 3007.80 L 1373.00 3083.00 Z" stroke-width="1" id="273-34-08" stroke="black"/>
  <path fill="none" d="M 1723.00 3101.00 L 1743.00 3109.00 L 1763.00 3105.00 L 1783.00 3103.00 L 1803.00 3103.00 L 1823.00 3104.00 L 1843.00 3104.00 L 1863.00 3105.00 L 1883.00 3105.00 L 1898.00 3090.75 L 1900.00 3018.00 L 1883.00 3018.00 L 1863.00 3017.00 L 1843.00 3017.00 L 1823.00 3016.00 L 1803.00 3016.00 L 1783.00 3015.00 L 1743.00 3015.00 L 1723.00 3014.00 L 1718.00 3014.00 L 1713.00 3101.00 Z" stroke-width="1" id="273-34-09" stroke="black"/>
  <path fill="none" d="M 1903.00 3086.00 L 1923.00 3086.00 L 1943.00 3107.00 L 1956.92 3107.00 L 1941.00 3087.00 L 1946.53 3019.00 L 1943.00 3019.00 L 1923.00 3018.00 L 1900.00 3018.00 L 1898.00 3090.75 Z" stroke-width="1" id="273-34-10" stroke="black"/>
  <path fill="none" d="M 254.56 3066.58 L 256.00 3081.00 L 255.00 3099.00 L 231.00 3121.00 L 267.00 3141.00 L 279.00 3169.00 L 301.00 3163.00 L 319.80 3154.20 L 323.00 3151.00 L 326.29 3151.16 L 348.00 3141.00 L 400.00 3141.68 L 439.00 3071.00 L 423.00 3071.00 L 403.00 3070.00 L 383.00 3050.00 L 363.00 3069.00 L 343.00 3069.00 L 323.00 3068.00 L 303.00 3068.00 L 283.00 3067.00 L 263.00 3067.00 Z" stroke-width="1" id="273-35-01" stroke="black"/>
  <path fill="none" d="M 594.00 3144.23 L 626.00 3075.15 L 623.00 3075.00 L 603.00 3075.00 L 583.00 3074.00 L 563.00 3074.00 L 543.00 3073.00 L 503.00 3073.00 L 483.00 3072.00 L 463.00 3072.00 L 443.00 3071.00 L 439.00 3071.00 L 400.00 3141.68 Z" stroke-width="1" id="273-35-02" stroke="black"/>
  <path fill="none" d="M 755.00 3146.34 L 781.00 3079.00 L 763.00 3079.00 L 743.00 3078.00 L 723.00 3078.00 L 703.00 3077.00 L 683.00 3077.00 L 663.00 3076.00 L 643.00 3076.00 L 626.00 3075.15 L 594.00 3144.23 Z" stroke-width="1" id="273-35-03" stroke="black"/>
  <path fill="none" d="M 805.00 3147.00 L 823.00 3180.00 L 845.22 3180.00 L 863.00 3164.00 L 875.00 3164.00 L 889.00 3150.00 L 925.00 3151.00 L 932.75 3173.29 L 933.42 3173.85 L 985.42 3155.73 L 1003.00 3084.00 L 983.00 3084.00 L 963.00 3083.00 L 943.00 3063.00 L 923.00 3082.00 L 883.00 3082.00 L 863.00 3081.00 L 843.00 3081.00 L 823.00 3080.00 L 803.00 3080.00 L 783.00 3079.00 L 781.00 3079.00 L 755.00 3146.34 Z" stroke-width="1" id="273-35-04" stroke="black"/>
  <path fill="none" d="M 999.00 3151.00 L 1177.00 3169.00 L 1216.00 3169.00 L 1249.00 3090.30 L 1243.00 3090.00 L 1223.00 3090.00 L 1203.00 3089.00 L 1183.00 3089.00 L 1163.00 3088.00 L 1143.00 3088.00 L 1123.00 3087.00 L 1103.00 3087.00 L 1083.00 3086.00 L 1063.00 3086.00 L 1043.00 3085.00 L 1023.00 3085.00 L 1003.00 3084.00 L 985.42 3155.73 Z" stroke-width="1" id="273-35-05" stroke="black"/>
  <path fill="none" d="M 1461.00 3169.00 L 1508.00 3096.25 L 1503.00 3096.00 L 1483.00 3096.00 L 1463.00 3075.00 L 1443.00 3095.00 L 1423.00 3094.00 L 1403.00 3094.00 L 1383.00 3093.00 L 1363.00 3073.00 L 1343.00 3092.00 L 1323.00 3092.00 L 1303.00 3091.00 L 1263.00 3091.00 L 1249.00 3090.30 L 1216.00 3169.00 Z" stroke-width="1" id="273-35-06" stroke="black"/>
  <path fill="none" d="M 1479.96 3177.85 L 1483.00 3178.00 L 1503.00 3178.00 L 1503.69 3178.03 L 1537.00 3165.00 L 1631.00 3167.07 L 1652.00 3100.00 L 1643.00 3100.00 L 1623.00 3099.00 L 1603.00 3099.00 L 1583.00 3098.00 L 1563.00 3098.00 L 1543.00 3097.00 L 1523.00 3097.00 L 1508.00 3096.25 L 1461.00 3169.00 Z" stroke-width="1" id="273-35-07" stroke="black"/>
  <path fill="none" d="M 1719.00 3169.00 L 1765.00 3167.93 L 1765.00 3104.80 L 1763.00 3105.00 L 1743.00 3109.00 L 1723.00 3101.00 L 1703.00 3101.00 L 1683.00 3100.00 L 1652.00 3100.00 L 1631.00 3167.07 Z" stroke-width="1" id="273-35-08" stroke="black"/>
  <path fill="none" d="M 1833.00 3166.36 L 1864.00 3105.00 L 1863.00 3105.00 L 1843.00 3104.00 L 1823.00 3104.00 L 1803.00 3103.00 L 1783.00 3103.00 L 1765.00 3104.80 L 1765.00 3167.93 Z" stroke-width="1" id="273-35-09" stroke="black"/>
  <path fill="none" d="M 1978.00 3163.00 L 1980.00 3136.00 L 1956.92 3107.00 L 1943.00 3107.00 L 1923.00 3086.00 L 1903.00 3086.00 L 1883.00 3105.00 L 1864.00 3105.00 L 1833.00 3166.36 Z" stroke-width="1" id="273-35-10" stroke="black"/>
</svg>
