<?xml version="1.0" encoding="UTF-8"?>
<svg xmlns:xlink="http://www.w3.org/1999/xlink" xmlns="http://www.w3.org/2000/svg" contentScriptType="text/ecmascript" width="2065px" zoomAndPan="magnify" contentStyleType="text/css" viewBox="0 0 2065 3353" height="3353px" preserveAspectRatio="xMidYMid meet" version="1.0">
  <path fill="none" d="M 185.33 197.46 L 171.00 234.00 L 171.00 258.00 L 208.65 268.00 L 271.00 268.00 L 291.00 270.00 L 311.00 272.00 L 329.00 273.80 L 358.50 210.10 L 337.00 223.00 L 300.00 204.00 L 285.88 203.00 L 211.00 203.00 L 205.30 197.30 L 187.00 196.00 Z" stroke-width="1" id="274-01-01" stroke="black"/>
  <path fill="none" d="M 331.00 274.00 L 351.00 274.00 L 371.00 280.00 L 391.00 276.00 L 451.00 276.00 L 471.00 274.00 L 491.00 274.00 L 511.00 276.00 L 531.00 280.00 L 551.00 280.00 L 571.00 276.00 L 591.00 272.00 L 611.00 282.00 L 631.00 282.00 L 645.00 273.60 L 654.00 220.85 L 651.00 221.00 L 591.00 221.00 L 571.00 202.00 L 551.00 200.00 L 531.00 182.00 L 511.00 178.00 L 451.00 178.00 L 431.00 180.00 L 411.00 184.00 L 397.50 186.70 L 358.50 210.10 L 329.00 273.80 Z" stroke-width="1" id="274-01-02" stroke="black"/>
  <path fill="none" d="M 651.00 270.00 L 671.00 264.00 L 691.00 272.00 L 711.00 274.00 L 731.00 270.00 L 751.00 272.00 L 771.00 272.00 L 791.00 274.00 L 831.00 274.00 L 851.00 278.00 L 871.00 278.00 L 891.00 274.00 L 911.00 270.00 L 922.00 270.00 L 944.00 219.00 L 871.00 219.00 L 851.00 199.00 L 839.35 187.35 L 822.36 188.07 L 811.00 200.00 L 791.00 220.00 L 751.00 220.00 L 731.00 200.00 L 691.00 200.00 L 671.00 220.00 L 654.00 220.85 L 645.00 273.60 Z" stroke-width="1" id="274-01-03" stroke="black"/>
  <path fill="none" d="M 971.00 270.00 L 991.00 274.00 L 1011.00 274.00 L 1031.00 276.00 L 1091.00 276.00 L 1111.00 268.00 L 1135.00 217.80 L 1131.00 218.00 L 1111.00 198.00 L 1091.00 218.00 L 991.00 218.00 L 971.00 219.00 L 944.00 219.00 L 922.00 270.00 Z" stroke-width="1" id="274-01-04" stroke="black"/>
  <path fill="none" d="M 1131.00 268.00 L 1151.00 270.00 L 1171.00 270.00 L 1191.00 272.00 L 1271.00 272.00 L 1291.00 268.00 L 1311.00 268.00 L 1331.00 270.00 L 1451.00 270.00 L 1471.00 266.00 L 1491.00 262.00 L 1531.00 262.00 L 1551.00 264.00 L 1571.00 264.00 L 1591.00 266.00 L 1625.00 266.00 L 1638.00 214.00 L 1631.00 214.00 L 1611.00 215.00 L 1551.00 215.00 L 1533.84 180.67 L 1505.64 180.36 L 1491.00 195.00 L 1471.00 195.00 L 1451.00 196.00 L 1411.00 196.00 L 1391.00 216.00 L 1351.00 216.00 L 1331.00 196.00 L 1311.00 196.00 L 1291.00 217.00 L 1271.00 177.00 L 1191.00 177.00 L 1171.00 197.00 L 1151.00 217.00 L 1135.00 217.80 L 1111.00 268.00 Z" stroke-width="1" id="274-01-05" stroke="black"/>
  <path fill="none" d="M 1671.00 266.00 L 1691.00 264.00 L 1875.00 264.00 L 1883.00 213.00 L 1871.00 213.00 L 1851.00 193.00 L 1811.00 193.00 L 1791.00 213.00 L 1771.00 194.00 L 1751.00 194.00 L 1731.00 214.00 L 1691.00 214.00 L 1671.00 194.00 L 1651.00 214.00 L 1638.00 214.00 L 1625.00 266.00 Z" stroke-width="1" id="274-01-06" stroke="black"/>
  <path fill="none" d="M 1951.00 264.00 L 1971.00 266.00 L 1991.00 266.00 L 2009.58 260.43 L 1999.08 212.00 L 1951.00 212.00 L 1931.00 213.00 L 1883.00 213.00 L 1875.00 264.00 Z" stroke-width="1" id="274-01-07" stroke="black"/>
  <path fill="none" d="M 361.71 364.00 L 361.00 394.00 L 346.00 427.00 L 350.44 437.00 L 391.00 437.00 L 411.00 436.00 L 511.00 436.00 L 531.00 435.00 L 631.00 435.00 L 651.00 434.00 L 682.00 434.00 L 716.00 364.00 L 691.00 364.00 L 671.00 362.00 L 491.00 362.00 L 471.00 364.00 L 451.00 364.00 L 431.00 368.00 L 391.00 368.00 L 371.00 364.00 Z" stroke-width="1" id="274-03-01" stroke="black"/>
  <path fill="none" d="M 751.00 434.00 L 771.00 433.00 L 841.00 433.00 L 870.00 367.90 L 851.00 366.00 L 831.00 366.00 L 811.00 364.00 L 716.00 364.00 L 682.00 434.00 Z" stroke-width="1" id="274-03-02" stroke="black"/>
  <path fill="none" d="M 871.00 433.00 L 891.00 432.00 L 928.00 432.00 L 952.00 368.00 L 871.00 368.00 L 870.00 367.90 L 841.00 433.00 Z" stroke-width="1" id="274-03-03" stroke="black"/>
  <path fill="none" d="M 991.00 432.00 L 1011.00 431.00 L 1073.00 431.00 L 1097.00 352.00 L 1051.00 352.00 L 1031.00 364.00 L 1011.00 368.00 L 952.00 368.00 L 928.00 432.00 Z" stroke-width="1" id="274-03-04" stroke="black"/>
  <path fill="none" d="M 1111.00 431.00 L 1131.00 430.00 L 1231.00 430.00 L 1251.00 449.00 L 1291.00 449.00 L 1311.00 429.00 L 1351.00 429.00 L 1371.00 428.00 L 1471.00 428.00 L 1491.00 447.00 L 1511.00 447.00 L 1530.00 428.00 L 1525.00 367.40 L 1511.00 366.00 L 1471.00 366.00 L 1451.00 364.00 L 1431.00 368.00 L 1391.00 368.00 L 1371.00 372.00 L 1351.00 376.00 L 1331.00 374.00 L 1311.00 370.00 L 1291.00 366.00 L 1271.00 356.00 L 1251.00 354.00 L 1211.00 354.00 L 1191.00 352.00 L 1097.00 352.00 L 1073.00 431.00 Z" stroke-width="1" id="274-03-05" stroke="black"/>
  <path fill="none" d="M 1531.00 427.00 L 1591.00 427.00 L 1611.00 426.00 L 1711.00 426.00 L 1731.00 425.00 L 1771.00 425.00 L 1791.00 445.00 L 1811.00 465.00 L 1831.00 445.00 L 1851.00 424.00 L 1870.48 424.00 L 1881.00 388.00 L 1872.61 366.00 L 1851.00 366.00 L 1831.00 364.00 L 1751.00 364.00 L 1731.00 368.00 L 1531.00 368.00 L 1525.00 367.40 L 1530.00 428.00 Z" stroke-width="1" id="274-03-06" stroke="black"/>
  <path fill="none" d="M 350.44 437.00 L 358.00 454.00 L 355.00 489.00 L 342.00 511.00 L 351.95 520.95 L 371.00 520.00 L 407.00 520.00 L 465.00 436.00 L 411.00 436.00 L 391.00 437.00 Z" stroke-width="1" id="274-04-01" stroke="black"/>
  <path fill="none" d="M 451.00 520.00 L 471.00 519.00 L 531.00 519.00 L 551.00 518.00 L 563.00 435.00 L 531.00 435.00 L 511.00 436.00 L 465.00 436.00 L 407.00 520.00 Z" stroke-width="1" id="274-04-02" stroke="black"/>
  <path fill="none" d="M 631.00 518.00 L 651.00 517.00 L 731.00 517.00 L 751.00 516.00 L 831.00 516.00 L 851.00 515.00 L 865.00 515.00 L 896.00 432.00 L 891.00 432.00 L 871.00 433.00 L 771.00 433.00 L 751.00 434.00 L 651.00 434.00 L 631.00 435.00 L 563.00 435.00 L 551.00 518.00 Z" stroke-width="1" id="274-04-03" stroke="black"/>
  <path fill="none" d="M 911.00 515.00 L 931.00 514.00 L 1011.00 514.00 L 1031.00 513.00 L 1111.00 513.00 L 1131.00 512.00 L 1141.00 512.00 L 1174.00 430.00 L 1131.00 430.00 L 1111.00 431.00 L 1011.00 431.00 L 991.00 432.00 L 896.00 432.00 L 865.00 515.00 Z" stroke-width="1" id="274-04-04" stroke="black"/>
  <path fill="none" d="M 1211.00 512.00 L 1231.00 511.00 L 1291.00 511.00 L 1311.00 510.00 L 1324.00 510.00 L 1353.00 428.90 L 1351.00 429.00 L 1311.00 429.00 L 1291.00 449.00 L 1251.00 449.00 L 1231.00 430.00 L 1174.00 430.00 L 1141.00 512.00 Z" stroke-width="1" id="274-04-05" stroke="black"/>
  <path fill="none" d="M 1391.00 510.00 L 1411.00 509.00 L 1441.00 509.00 L 1460.00 428.00 L 1371.00 428.00 L 1353.00 428.90 L 1324.00 510.00 Z" stroke-width="1" id="274-04-06" stroke="black"/>
  <path fill="none" d="M 1491.00 509.00 L 1511.00 508.00 L 1591.00 508.00 L 1611.00 507.00 L 1626.00 507.00 L 1655.00 426.00 L 1611.00 426.00 L 1591.00 427.00 L 1531.00 427.00 L 1511.00 447.00 L 1491.00 447.00 L 1471.00 428.00 L 1460.00 428.00 L 1441.00 509.00 Z" stroke-width="1" id="274-04-07" stroke="black"/>
  <path fill="none" d="M 1671.00 507.00 L 1691.00 506.00 L 1771.00 506.00 L 1791.00 505.00 L 1863.15 505.00 L 1855.00 477.00 L 1870.48 424.00 L 1851.00 424.00 L 1831.00 445.00 L 1811.00 465.00 L 1791.00 445.00 L 1771.00 425.00 L 1731.00 425.00 L 1711.00 426.00 L 1655.00 426.00 L 1626.00 507.00 Z" stroke-width="1" id="274-04-08" stroke="black"/>
  <path fill="none" d="M 351.95 520.95 L 357.00 526.00 L 357.00 573.00 L 336.00 598.00 L 351.00 610.00 L 391.00 610.00 L 411.00 609.00 L 471.00 609.00 L 491.00 608.00 L 531.00 608.00 L 551.00 607.00 L 611.00 607.00 L 631.00 626.00 L 651.00 586.00 L 659.00 594.00 L 708.00 517.00 L 651.00 517.00 L 631.00 518.00 L 551.00 518.00 L 531.00 519.00 L 471.00 519.00 L 451.00 520.00 L 371.00 520.00 Z" stroke-width="1" id="274-05-01" stroke="black"/>
  <path fill="none" d="M 671.00 606.00 L 691.00 606.00 L 711.00 605.00 L 771.00 605.00 L 791.00 604.00 L 831.00 604.00 L 851.00 603.00 L 911.00 603.00 L 931.00 602.00 L 963.00 602.00 L 958.00 514.00 L 931.00 514.00 L 911.00 515.00 L 851.00 515.00 L 831.00 516.00 L 751.00 516.00 L 731.00 517.00 L 708.00 517.00 L 659.00 594.00 Z" stroke-width="1" id="274-05-02" stroke="black"/>
  <path fill="none" d="M 991.00 602.00 L 1011.00 601.00 L 1071.00 601.00 L 1091.00 600.00 L 1093.00 600.00 L 1121.00 512.50 L 1111.00 513.00 L 1031.00 513.00 L 1011.00 514.00 L 958.00 514.00 L 963.00 602.00 Z" stroke-width="1" id="274-05-03" stroke="black"/>
  <path fill="none" d="M 1131.00 600.00 L 1151.00 599.00 L 1211.00 599.00 L 1213.00 598.90 L 1229.00 511.10 L 1211.00 512.00 L 1131.00 512.00 L 1121.00 512.50 L 1093.00 600.00 Z" stroke-width="1" id="274-05-04" stroke="black"/>
  <path fill="none" d="M 1231.00 598.00 L 1246.00 598.00 L 1359.00 510.00 L 1311.00 510.00 L 1291.00 511.00 L 1231.00 511.00 L 1229.00 511.10 L 1213.00 598.90 Z" stroke-width="1" id="274-05-05" stroke="black"/>
  <path fill="none" d="M 1291.00 598.00 L 1311.00 597.00 L 1371.00 597.00 L 1391.00 596.00 L 1451.00 596.00 L 1471.00 595.00 L 1499.00 595.00 L 1536.00 508.00 L 1511.00 508.00 L 1491.00 509.00 L 1411.00 509.00 L 1391.00 510.00 L 1359.00 510.00 L 1246.00 598.00 Z" stroke-width="1" id="274-05-06" stroke="black"/>
  <path fill="none" d="M 1511.00 595.00 L 1531.00 594.00 L 1591.00 594.00 L 1611.00 593.00 L 1671.00 593.00 L 1684.00 592.35 L 1721.00 506.00 L 1691.00 506.00 L 1671.00 507.00 L 1611.00 507.00 L 1591.00 508.00 L 1536.00 508.00 L 1499.00 595.00 Z" stroke-width="1" id="274-05-07" stroke="black"/>
  <path fill="none" d="M 1691.00 592.00 L 1751.00 592.00 L 1771.00 591.00 L 1811.00 591.00 L 1831.00 590.00 L 1889.09 590.00 L 1878.00 556.00 L 1863.15 505.00 L 1791.00 505.00 L 1771.00 506.00 L 1721.00 506.00 L 1684.00 592.35 Z" stroke-width="1" id="274-05-08" stroke="black"/>
  <path fill="none" d="M 351.00 610.00 L 361.00 618.00 L 358.00 657.00 L 327.00 681.00 L 344.00 696.00 L 371.00 696.00 L 391.00 695.00 L 451.00 695.00 L 471.00 694.00 L 511.00 694.00 L 528.00 693.15 L 548.00 607.15 L 531.00 608.00 L 491.00 608.00 L 471.00 609.00 L 411.00 609.00 L 391.00 610.00 Z" stroke-width="1" id="274-06-01" stroke="black"/>
  <path fill="none" d="M 531.00 693.00 L 591.00 693.00 L 611.00 692.00 L 671.00 692.00 L 691.00 691.00 L 731.00 691.00 L 742.00 690.45 L 785.00 604.30 L 771.00 605.00 L 711.00 605.00 L 691.00 606.00 L 671.00 606.00 L 651.00 586.00 L 631.00 626.00 L 611.00 607.00 L 551.00 607.00 L 548.00 607.15 L 528.00 693.15 Z" stroke-width="1" id="274-06-02" stroke="black"/>
  <path fill="none" d="M 751.00 690.00 L 811.00 690.00 L 831.00 689.00 L 871.00 689.00 L 891.00 688.00 L 904.00 688.00 L 923.00 602.40 L 911.00 603.00 L 851.00 603.00 L 831.00 604.00 L 791.00 604.00 L 785.00 604.30 L 742.00 690.45 Z" stroke-width="1" id="274-06-03" stroke="black"/>
  <path fill="none" d="M 951.00 688.00 L 971.00 687.00 L 1011.00 687.00 L 1031.00 706.00 L 1051.00 726.00 L 1071.00 726.00 L 1091.00 706.00 L 1111.00 685.00 L 1151.00 685.00 L 1171.00 705.00 L 1191.00 724.00 L 1211.00 724.00 L 1231.00 704.00 L 1251.00 703.00 L 1271.00 703.00 L 1291.00 683.00 L 1301.00 597.50 L 1291.00 598.00 L 1231.00 598.00 L 1211.00 599.00 L 1151.00 599.00 L 1131.00 600.00 L 1091.00 600.00 L 1071.00 601.00 L 1011.00 601.00 L 991.00 602.00 L 931.00 602.00 L 923.00 602.40 L 904.00 688.00 Z" stroke-width="1" id="274-06-04" stroke="black"/>
  <path fill="none" d="M 1311.00 683.00 L 1331.00 682.00 L 1371.00 682.00 L 1391.00 681.00 L 1417.00 681.00 L 1442.00 596.00 L 1391.00 596.00 L 1371.00 597.00 L 1311.00 597.00 L 1301.00 597.50 L 1291.00 683.00 Z" stroke-width="1" id="274-06-05" stroke="black"/>
  <path fill="none" d="M 1451.00 681.00 L 1471.00 680.00 L 1511.00 680.00 L 1531.00 679.00 L 1586.00 679.00 L 1622.00 593.00 L 1611.00 593.00 L 1591.00 594.00 L 1531.00 594.00 L 1511.00 595.00 L 1471.00 595.00 L 1451.00 596.00 L 1442.00 596.00 L 1417.00 681.00 Z" stroke-width="1" id="274-06-06" stroke="black"/>
  <path fill="none" d="M 1591.00 679.00 L 1611.00 718.00 L 1631.00 698.00 L 1651.00 678.00 L 1671.00 678.00 L 1715.00 592.00 L 1691.00 592.00 L 1671.00 593.00 L 1622.00 593.00 L 1586.00 679.00 Z" stroke-width="1" id="274-06-07" stroke="black"/>
  <path fill="none" d="M 1691.00 697.00 L 1711.00 717.00 L 1731.00 677.00 L 1751.00 676.00 L 1811.00 676.00 L 1831.00 695.00 L 1851.00 715.00 L 1871.00 715.00 L 1891.00 694.00 L 1901.31 683.69 L 1908.00 648.00 L 1889.09 590.00 L 1831.00 590.00 L 1811.00 591.00 L 1771.00 591.00 L 1751.00 592.00 L 1715.00 592.00 L 1671.00 678.00 Z" stroke-width="1" id="274-06-08" stroke="black"/>
  <path fill="none" d="M 344.00 696.00 L 361.00 711.00 L 360.00 742.00 L 337.00 760.00 L 337.00 769.00 L 342.91 775.40 L 351.00 775.00 L 391.00 775.00 L 411.00 774.00 L 471.00 694.00 L 451.00 695.00 L 391.00 695.00 L 371.00 696.00 Z" stroke-width="1" id="274-07-01" stroke="black"/>
  <path fill="none" d="M 431.00 794.00 L 451.00 774.00 L 471.00 773.00 L 511.00 773.00 L 531.00 772.00 L 571.00 772.00 L 591.00 771.00 L 631.00 771.00 L 651.00 770.00 L 691.00 770.00 L 711.00 769.00 L 744.00 769.00 L 778.00 690.00 L 751.00 690.00 L 731.00 691.00 L 691.00 691.00 L 671.00 692.00 L 611.00 692.00 L 591.00 693.00 L 531.00 693.00 L 511.00 694.00 L 471.00 694.00 L 411.00 774.00 Z" stroke-width="1" id="274-07-02" stroke="black"/>
  <path fill="none" d="M 751.00 769.00 L 771.00 768.00 L 811.00 768.00 L 831.00 767.00 L 851.00 767.00 L 858.00 785.55 L 904.00 688.00 L 891.00 688.00 L 871.00 689.00 L 831.00 689.00 L 811.00 690.00 L 778.00 690.00 L 744.00 769.00 Z" stroke-width="1" id="274-07-03" stroke="black"/>
  <path fill="none" d="M 871.00 820.00 L 911.00 820.00 L 931.00 804.00 L 951.00 792.00 L 971.00 765.00 L 991.00 765.00 L 1011.00 764.00 L 1051.00 764.00 L 1070.00 763.05 L 1105.00 691.30 L 1091.00 706.00 L 1071.00 726.00 L 1051.00 726.00 L 1031.00 706.00 L 1011.00 687.00 L 971.00 687.00 L 951.00 688.00 L 904.00 688.00 L 858.00 785.55 Z" stroke-width="1" id="274-07-04" stroke="black"/>
  <path fill="none" d="M 1071.00 763.00 L 1111.00 763.00 L 1131.00 762.00 L 1171.00 762.00 L 1191.00 761.00 L 1231.00 761.00 L 1251.00 760.00 L 1291.00 760.00 L 1311.00 759.00 L 1323.00 759.00 L 1352.00 682.00 L 1331.00 682.00 L 1311.00 683.00 L 1291.00 683.00 L 1271.00 703.00 L 1251.00 703.00 L 1231.00 704.00 L 1211.00 724.00 L 1191.00 724.00 L 1171.00 705.00 L 1151.00 685.00 L 1111.00 685.00 L 1105.00 691.30 L 1070.00 763.05 Z" stroke-width="1" id="274-07-05" stroke="black"/>
  <path fill="none" d="M 1351.00 759.00 L 1371.00 758.00 L 1411.00 758.00 L 1431.00 757.00 L 1444.00 757.00 L 1453.00 680.90 L 1451.00 681.00 L 1391.00 681.00 L 1371.00 682.00 L 1352.00 682.00 L 1323.00 759.00 Z" stroke-width="1" id="274-07-06" stroke="black"/>
  <path fill="none" d="M 1471.00 757.00 L 1491.00 756.00 L 1531.00 756.00 L 1551.00 755.00 L 1591.00 755.00 L 1592.00 754.95 L 1609.00 714.10 L 1591.00 679.00 L 1531.00 679.00 L 1511.00 680.00 L 1471.00 680.00 L 1453.00 680.90 L 1444.00 757.00 Z" stroke-width="1" id="274-07-07" stroke="black"/>
  <path fill="none" d="M 1611.00 754.00 L 1651.00 754.00 L 1671.00 753.00 L 1711.00 753.00 L 1731.00 752.00 L 1745.00 773.00 L 1807.00 676.00 L 1751.00 676.00 L 1731.00 677.00 L 1711.00 717.00 L 1691.00 697.00 L 1671.00 678.00 L 1651.00 678.00 L 1631.00 698.00 L 1611.00 718.00 L 1609.00 714.10 L 1592.00 754.95 Z" stroke-width="1" id="274-07-08" stroke="black"/>
  <path fill="none" d="M 1751.00 782.00 L 1791.00 782.00 L 1811.00 780.00 L 1831.00 751.00 L 1851.00 750.00 L 1891.00 750.00 L 1896.23 749.74 L 1899.00 696.00 L 1901.31 683.69 L 1891.00 694.00 L 1871.00 715.00 L 1851.00 715.00 L 1831.00 695.00 L 1811.00 676.00 L 1807.00 676.00 L 1745.00 773.00 Z" stroke-width="1" id="274-07-09" stroke="black"/>
  <path fill="none" d="M 342.91 775.40 L 361.00 795.00 L 358.00 829.00 L 340.00 850.00 L 356.71 863.00 L 411.00 863.00 L 431.00 862.00 L 499.00 862.00 L 550.00 772.00 L 531.00 772.00 L 511.00 773.00 L 471.00 773.00 L 451.00 774.00 L 431.00 794.00 L 411.00 774.00 L 391.00 775.00 L 351.00 775.00 Z" stroke-width="1" id="274-08-01" stroke="black"/>
  <path fill="none" d="M 511.00 862.00 L 531.00 861.00 L 591.00 861.00 L 611.00 860.00 L 616.00 860.00 L 646.00 770.25 L 631.00 771.00 L 591.00 771.00 L 571.00 772.00 L 550.00 772.00 L 499.00 862.00 Z" stroke-width="1" id="274-08-02" stroke="black"/>
  <path fill="none" d="M 651.00 860.00 L 671.00 880.00 L 691.00 859.00 L 771.00 859.00 L 791.00 898.00 L 831.00 898.00 L 851.00 878.00 L 871.00 877.00 L 891.00 857.00 L 895.00 857.00 L 902.00 820.00 L 871.00 820.00 L 851.00 767.00 L 831.00 767.00 L 811.00 768.00 L 771.00 768.00 L 751.00 769.00 L 711.00 769.00 L 691.00 770.00 L 651.00 770.00 L 646.00 770.25 L 616.00 860.00 Z" stroke-width="1" id="274-08-03" stroke="black"/>
  <path fill="none" d="M 931.00 857.00 L 951.00 856.00 L 1031.00 856.00 L 1044.00 855.35 L 1065.00 763.30 L 1051.00 764.00 L 1011.00 764.00 L 991.00 765.00 L 971.00 765.00 L 951.00 792.00 L 931.00 804.00 L 911.00 820.00 L 902.00 820.00 L 895.00 857.00 Z" stroke-width="1" id="274-08-04" stroke="black"/>
  <path fill="none" d="M 1051.00 855.00 L 1111.00 855.00 L 1131.00 854.00 L 1191.00 854.00 L 1211.00 853.00 L 1231.00 853.00 L 1251.00 873.00 L 1271.00 873.00 L 1291.00 853.00 L 1292.00 759.95 L 1291.00 760.00 L 1251.00 760.00 L 1231.00 761.00 L 1191.00 761.00 L 1171.00 762.00 L 1131.00 762.00 L 1111.00 763.00 L 1071.00 763.00 L 1065.00 763.30 L 1044.00 855.35 Z" stroke-width="1" id="274-08-05" stroke="black"/>
  <path fill="none" d="M 1311.00 852.00 L 1371.00 852.00 L 1389.00 851.10 L 1404.00 758.00 L 1371.00 758.00 L 1351.00 759.00 L 1311.00 759.00 L 1292.00 759.95 L 1291.00 853.00 Z" stroke-width="1" id="274-08-06" stroke="black"/>
  <path fill="none" d="M 1391.00 851.00 L 1451.00 851.00 L 1471.00 850.00 L 1551.00 850.00 L 1556.00 849.75 L 1559.00 755.00 L 1551.00 755.00 L 1531.00 756.00 L 1491.00 756.00 L 1471.00 757.00 L 1431.00 757.00 L 1411.00 758.00 L 1404.00 758.00 L 1389.00 851.10 Z" stroke-width="1" id="274-08-07" stroke="black"/>
  <path fill="none" d="M 1571.00 849.00 L 1631.00 849.00 L 1651.00 848.00 L 1711.00 848.00 L 1731.00 847.00 L 1811.00 847.00 L 1831.00 846.00 L 1886.54 846.00 L 1894.00 793.00 L 1896.23 749.74 L 1891.00 750.00 L 1851.00 750.00 L 1831.00 751.00 L 1811.00 780.00 L 1791.00 782.00 L 1751.00 782.00 L 1731.00 752.00 L 1711.00 753.00 L 1671.00 753.00 L 1651.00 754.00 L 1611.00 754.00 L 1591.00 755.00 L 1559.00 755.00 L 1556.00 849.75 Z" stroke-width="1" id="274-08-08" stroke="black"/>
  <path fill="none" d="M 356.71 863.00 L 358.00 864.00 L 357.00 912.00 L 336.00 939.00 L 353.77 950.00 L 411.00 950.00 L 431.00 949.00 L 445.00 949.00 L 457.00 862.00 L 431.00 862.00 L 411.00 863.00 Z" stroke-width="1" id="274-09-01" stroke="black"/>
  <path fill="none" d="M 491.00 949.00 L 511.00 948.00 L 571.00 948.00 L 591.00 947.00 L 596.00 947.00 L 619.00 860.00 L 611.00 860.00 L 591.00 861.00 L 531.00 861.00 L 511.00 862.00 L 457.00 862.00 L 445.00 949.00 Z" stroke-width="1" id="274-09-02" stroke="black"/>
  <path fill="none" d="M 671.00 947.00 L 691.00 946.00 L 751.00 946.00 L 771.00 945.00 L 818.00 945.00 L 831.00 898.00 L 791.00 898.00 L 771.00 859.00 L 691.00 859.00 L 671.00 880.00 L 651.00 860.00 L 619.00 860.00 L 596.00 947.00 Z" stroke-width="1" id="274-09-03" stroke="black"/>
  <path fill="none" d="M 831.00 945.00 L 851.00 944.00 L 911.00 944.00 L 931.00 943.00 L 951.00 963.00 L 954.00 963.00 L 1011.00 856.00 L 951.00 856.00 L 931.00 857.00 L 891.00 857.00 L 871.00 877.00 L 851.00 878.00 L 831.00 898.00 L 818.00 945.00 Z" stroke-width="1" id="274-09-04" stroke="black"/>
  <path fill="none" d="M 991.00 963.00 L 1011.00 942.00 L 1071.00 942.00 L 1091.00 941.00 L 1171.00 941.00 L 1191.00 940.00 L 1195.00 940.00 L 1242.00 864.00 L 1231.00 853.00 L 1211.00 853.00 L 1191.00 854.00 L 1131.00 854.00 L 1111.00 855.00 L 1051.00 855.00 L 1031.00 856.00 L 1011.00 856.00 L 954.00 963.00 Z" stroke-width="1" id="274-09-05" stroke="black"/>
  <path fill="none" d="M 1251.00 940.00 L 1271.00 939.00 L 1331.00 939.00 L 1351.00 938.00 L 1361.00 938.00 L 1417.00 851.00 L 1391.00 851.00 L 1371.00 852.00 L 1311.00 852.00 L 1291.00 853.00 L 1271.00 873.00 L 1251.00 873.00 L 1242.00 864.00 L 1195.00 940.00 Z" stroke-width="1" id="274-09-06" stroke="black"/>
  <path fill="none" d="M 1411.00 938.00 L 1431.00 937.00 L 1451.00 937.00 L 1471.00 977.00 L 1491.00 977.00 L 1511.00 976.00 L 1531.00 956.00 L 1551.00 936.00 L 1591.00 936.00 L 1611.00 935.00 L 1671.00 935.00 L 1691.00 934.00 L 1706.00 934.00 L 1759.00 847.00 L 1731.00 847.00 L 1711.00 848.00 L 1651.00 848.00 L 1631.00 849.00 L 1571.00 849.00 L 1551.00 850.00 L 1471.00 850.00 L 1451.00 851.00 L 1417.00 851.00 L 1361.00 938.00 Z" stroke-width="1" id="274-09-07" stroke="black"/>
  <path fill="none" d="M 1751.00 934.00 L 1771.00 933.00 L 1831.00 933.00 L 1851.00 932.00 L 1894.00 932.00 L 1884.00 864.00 L 1886.54 846.00 L 1831.00 846.00 L 1811.00 847.00 L 1759.00 847.00 L 1706.00 934.00 Z" stroke-width="1" id="274-09-08" stroke="black"/>
  <path fill="none" d="M 353.77 950.00 L 357.00 952.00 L 357.00 999.00 L 331.00 1032.00 L 331.00 1050.00 L 371.00 1050.00 L 391.00 1029.00 L 451.00 1029.00 L 471.00 1028.00 L 483.00 1028.00 L 494.00 948.85 L 491.00 949.00 L 431.00 949.00 L 411.00 950.00 Z" stroke-width="1" id="274-10-01" stroke="black"/>
  <path fill="none" d="M 511.00 1028.00 L 531.00 1027.00 L 567.00 1027.00 L 615.00 947.00 L 591.00 947.00 L 571.00 948.00 L 511.00 948.00 L 494.00 948.85 L 483.00 1028.00 Z" stroke-width="1" id="274-10-02" stroke="black"/>
  <path fill="none" d="M 591.00 1027.00 L 611.00 1026.00 L 651.00 1026.00 L 671.00 1025.00 L 731.00 1025.00 L 751.00 1024.00 L 771.00 1024.00 L 791.00 1040.00 L 811.00 1052.00 L 831.00 1054.00 L 851.00 1058.00 L 871.00 1043.00 L 891.00 1022.00 L 901.00 1022.00 L 940.00 952.00 L 931.00 943.00 L 911.00 944.00 L 851.00 944.00 L 831.00 945.00 L 771.00 945.00 L 751.00 946.00 L 691.00 946.00 L 671.00 947.00 L 615.00 947.00 L 567.00 1027.00 Z" stroke-width="1" id="274-10-03" stroke="black"/>
  <path fill="none" d="M 931.00 1022.00 L 951.00 1021.00 L 1011.00 1021.00 L 1031.00 1020.00 L 1071.00 1020.00 L 1073.00 1019.90 L 1098.00 941.00 L 1091.00 941.00 L 1071.00 942.00 L 1011.00 942.00 L 991.00 963.00 L 951.00 963.00 L 940.00 952.00 L 901.00 1022.00 Z" stroke-width="1" id="274-10-04" stroke="black"/>
  <path fill="none" d="M 1091.00 1019.00 L 1151.00 1019.00 L 1171.00 1018.00 L 1211.00 1018.00 L 1231.00 1017.00 L 1291.00 1017.00 L 1311.00 1016.00 L 1351.00 1016.00 L 1409.00 938.00 L 1351.00 938.00 L 1331.00 939.00 L 1271.00 939.00 L 1251.00 940.00 L 1191.00 940.00 L 1171.00 941.00 L 1098.00 941.00 L 1073.00 1019.90 Z" stroke-width="1" id="274-10-05" stroke="black"/>
  <path fill="none" d="M 1371.00 1035.00 L 1391.00 1055.00 L 1411.00 1035.00 L 1431.00 1015.00 L 1450.00 1014.05 L 1477.00 977.00 L 1471.00 977.00 L 1451.00 937.00 L 1431.00 937.00 L 1411.00 938.00 L 1409.00 938.00 L 1351.00 1016.00 Z" stroke-width="1" id="274-10-06" stroke="black"/>
  <path fill="none" d="M 1451.00 1014.00 L 1491.00 1014.00 L 1511.00 1013.00 L 1571.00 1013.00 L 1591.00 1012.00 L 1592.00 1012.00 L 1621.00 935.00 L 1611.00 935.00 L 1591.00 936.00 L 1551.00 936.00 L 1531.00 956.00 L 1511.00 976.00 L 1491.00 977.00 L 1477.00 977.00 L 1450.00 1014.05 Z" stroke-width="1" id="274-10-07" stroke="black"/>
  <path fill="none" d="M 1631.00 1012.00 L 1651.00 1011.00 L 1671.00 1011.00 L 1691.00 1031.00 L 1711.00 1051.00 L 1731.00 1030.00 L 1751.00 1050.00 L 1771.00 1050.00 L 1791.00 1029.00 L 1811.00 1009.00 L 1831.00 1029.00 L 1851.00 1009.00 L 1871.00 1028.00 L 1891.00 1028.00 L 1894.09 1024.91 L 1899.00 966.00 L 1894.00 932.00 L 1851.00 932.00 L 1831.00 933.00 L 1771.00 933.00 L 1751.00 934.00 L 1691.00 934.00 L 1671.00 935.00 L 1621.00 935.00 L 1592.00 1012.00 Z" stroke-width="1" id="274-10-08" stroke="black"/>
  <path fill="none" d="M 331.00 1050.00 L 331.00 1051.00 L 360.00 1056.00 L 358.00 1086.00 L 337.00 1125.00 L 339.94 1148.49 L 341.36 1149.84 L 352.97 1157.03 L 371.00 1139.00 L 391.00 1119.00 L 411.00 1119.00 L 431.00 1118.00 L 511.00 1118.00 L 531.00 1117.00 L 563.00 1117.00 L 585.00 1027.00 L 531.00 1027.00 L 511.00 1028.00 L 471.00 1028.00 L 451.00 1029.00 L 391.00 1029.00 L 371.00 1050.00 Z" stroke-width="1" id="274-11-01" stroke="black"/>
  <path fill="none" d="M 591.00 1117.00 L 611.00 1116.00 L 671.00 1116.00 L 691.00 1115.00 L 733.00 1115.00 L 717.00 1025.00 L 671.00 1025.00 L 651.00 1026.00 L 611.00 1026.00 L 591.00 1027.00 L 585.00 1027.00 L 563.00 1117.00 Z" stroke-width="1" id="274-11-02" stroke="black"/>
  <path fill="none" d="M 771.00 1115.00 L 791.00 1114.00 L 831.00 1114.00 L 851.00 1128.00 L 871.00 1130.00 L 891.00 1130.00 L 904.00 1131.95 L 959.00 1021.00 L 951.00 1021.00 L 931.00 1022.00 L 891.00 1022.00 L 871.00 1043.00 L 851.00 1058.00 L 831.00 1054.00 L 811.00 1052.00 L 791.00 1040.00 L 771.00 1024.00 L 751.00 1024.00 L 731.00 1025.00 L 717.00 1025.00 L 733.00 1115.00 Z" stroke-width="1" id="274-11-03" stroke="black"/>
  <path fill="none" d="M 911.00 1133.00 L 931.00 1133.00 L 951.00 1112.00 L 1031.00 1112.00 L 1032.00 1111.95 L 1038.00 1020.00 L 1031.00 1020.00 L 1011.00 1021.00 L 959.00 1021.00 L 904.00 1131.95 Z" stroke-width="1" id="274-11-04" stroke="black"/>
  <path fill="none" d="M 1051.00 1111.00 L 1111.00 1111.00 L 1131.00 1110.00 L 1151.00 1110.00 L 1171.00 1130.00 L 1191.00 1150.00 L 1211.00 1149.00 L 1231.00 1129.00 L 1251.00 1109.00 L 1291.00 1109.00 L 1311.00 1108.00 L 1371.00 1108.00 L 1391.00 1107.00 L 1451.00 1107.00 L 1456.00 1111.75 L 1517.00 1013.00 L 1511.00 1013.00 L 1491.00 1014.00 L 1451.00 1014.00 L 1431.00 1015.00 L 1411.00 1035.00 L 1391.00 1055.00 L 1371.00 1035.00 L 1351.00 1016.00 L 1311.00 1016.00 L 1291.00 1017.00 L 1231.00 1017.00 L 1211.00 1018.00 L 1171.00 1018.00 L 1151.00 1019.00 L 1091.00 1019.00 L 1071.00 1020.00 L 1038.00 1020.00 L 1032.00 1111.95 Z" stroke-width="1" id="274-11-05" stroke="black"/>
  <path fill="none" d="M 1471.00 1126.00 L 1491.00 1126.00 L 1511.00 1106.00 L 1551.00 1106.00 L 1571.00 1105.00 L 1611.00 1105.00 L 1623.00 1012.00 L 1591.00 1012.00 L 1571.00 1013.00 L 1517.00 1013.00 L 1456.00 1111.75 Z" stroke-width="1" id="274-11-06" stroke="black"/>
  <path fill="none" d="M 1631.00 1105.00 L 1651.00 1104.00 L 1671.00 1124.00 L 1711.00 1124.00 L 1731.00 1103.00 L 1811.00 1103.00 L 1831.00 1102.00 L 1883.73 1102.00 L 1890.00 1074.00 L 1894.09 1024.91 L 1891.00 1028.00 L 1871.00 1028.00 L 1851.00 1009.00 L 1831.00 1029.00 L 1811.00 1009.00 L 1791.00 1029.00 L 1771.00 1050.00 L 1751.00 1050.00 L 1731.00 1030.00 L 1711.00 1051.00 L 1691.00 1031.00 L 1671.00 1011.00 L 1651.00 1011.00 L 1631.00 1012.00 L 1623.00 1012.00 L 1611.00 1105.00 Z" stroke-width="1" id="274-11-07" stroke="black"/>
  <path fill="none" d="M 391.00 1119.00 L 371.00 1139.00 L 352.97 1157.03 L 361.00 1162.00 L 355.00 1177.00 L 334.00 1198.00 L 364.00 1203.00 L 364.00 1217.00 L 371.00 1217.00 L 391.00 1216.00 L 411.00 1236.00 L 451.00 1236.00 L 471.00 1235.00 L 491.00 1235.00 L 511.00 1215.00 L 531.00 1214.00 L 568.00 1214.00 L 599.00 1116.60 L 591.00 1117.00 L 531.00 1117.00 L 511.00 1118.00 L 431.00 1118.00 L 411.00 1119.00 Z" stroke-width="1" id="274-12-01" stroke="black"/>
  <path fill="none" d="M 591.00 1214.00 L 611.00 1213.00 L 651.00 1213.00 L 671.00 1212.00 L 731.00 1212.00 L 751.00 1211.00 L 771.00 1231.00 L 791.00 1231.00 L 811.00 1210.00 L 871.00 1210.00 L 891.00 1209.00 L 911.00 1209.00 L 931.00 1229.00 L 951.00 1229.00 L 971.00 1228.00 L 991.00 1208.00 L 1011.00 1228.00 L 1031.00 1207.00 L 1037.00 1207.00 L 1064.00 1111.00 L 1051.00 1111.00 L 1031.00 1112.00 L 951.00 1112.00 L 931.00 1133.00 L 911.00 1133.00 L 891.00 1130.00 L 871.00 1130.00 L 851.00 1128.00 L 831.00 1114.00 L 791.00 1114.00 L 771.00 1115.00 L 691.00 1115.00 L 671.00 1116.00 L 611.00 1116.00 L 599.00 1116.60 L 568.00 1214.00 Z" stroke-width="1" id="274-12-02" stroke="black"/>
  <path fill="none" d="M 1091.00 1207.00 L 1111.00 1206.00 L 1128.00 1206.00 L 1167.00 1126.00 L 1151.00 1110.00 L 1131.00 1110.00 L 1111.00 1111.00 L 1064.00 1111.00 L 1037.00 1207.00 Z" stroke-width="1" id="274-12-03" stroke="black"/>
  <path fill="none" d="M 1151.00 1206.00 L 1171.00 1205.00 L 1231.00 1205.00 L 1251.00 1204.00 L 1291.00 1204.00 L 1311.00 1203.00 L 1340.00 1203.00 L 1346.00 1108.00 L 1311.00 1108.00 L 1291.00 1109.00 L 1251.00 1109.00 L 1231.00 1129.00 L 1211.00 1149.00 L 1191.00 1150.00 L 1171.00 1130.00 L 1167.00 1126.00 L 1128.00 1206.00 Z" stroke-width="1" id="274-12-04" stroke="black"/>
  <path fill="none" d="M 1371.00 1203.00 L 1391.00 1202.00 L 1431.00 1202.00 L 1451.00 1201.00 L 1452.00 1201.00 L 1480.00 1126.00 L 1471.00 1126.00 L 1451.00 1107.00 L 1391.00 1107.00 L 1371.00 1108.00 L 1346.00 1108.00 L 1340.00 1203.00 Z" stroke-width="1" id="274-12-05" stroke="black"/>
  <path fill="none" d="M 1511.00 1201.00 L 1531.00 1200.00 L 1551.00 1200.00 L 1571.00 1220.00 L 1591.00 1220.00 L 1611.00 1199.00 L 1636.00 1199.00 L 1666.00 1119.00 L 1651.00 1104.00 L 1631.00 1105.00 L 1571.00 1105.00 L 1551.00 1106.00 L 1511.00 1106.00 L 1491.00 1126.00 L 1480.00 1126.00 L 1452.00 1201.00 Z" stroke-width="1" id="274-12-06" stroke="black"/>
  <path fill="none" d="M 1651.00 1199.00 L 1671.00 1198.00 L 1731.00 1198.00 L 1751.00 1197.00 L 1791.00 1197.00 L 1811.00 1196.00 L 1844.40 1196.00 L 1878.00 1188.00 L 1875.00 1141.00 L 1883.73 1102.00 L 1831.00 1102.00 L 1811.00 1103.00 L 1731.00 1103.00 L 1711.00 1124.00 L 1671.00 1124.00 L 1666.00 1119.00 L 1636.00 1199.00 Z" stroke-width="1" id="274-12-07" stroke="black"/>
  <path fill="none" d="M 364.00 1217.00 L 364.00 1252.00 L 336.00 1270.00 L 342.00 1302.00 L 357.00 1314.00 L 357.00 1321.70 L 371.00 1307.00 L 391.00 1287.00 L 411.00 1287.00 L 431.00 1286.00 L 471.00 1286.00 L 491.00 1285.00 L 498.00 1285.00 L 529.00 1214.10 L 511.00 1215.00 L 491.00 1235.00 L 471.00 1235.00 L 451.00 1236.00 L 411.00 1236.00 L 391.00 1216.00 L 371.00 1217.00 Z" stroke-width="1" id="274-13-01" stroke="black"/>
  <path fill="none" d="M 531.00 1285.00 L 551.00 1284.00 L 591.00 1284.00 L 611.00 1283.00 L 651.00 1283.00 L 664.00 1282.35 L 660.00 1212.55 L 651.00 1213.00 L 611.00 1213.00 L 591.00 1214.00 L 531.00 1214.00 L 529.00 1214.10 L 498.00 1285.00 Z" stroke-width="1" id="274-13-02" stroke="black"/>
  <path fill="none" d="M 671.00 1282.00 L 731.00 1282.00 L 751.00 1281.00 L 780.00 1231.00 L 771.00 1231.00 L 751.00 1211.00 L 731.00 1212.00 L 671.00 1212.00 L 660.00 1212.55 L 664.00 1282.35 Z" stroke-width="1" id="274-13-03" stroke="black"/>
  <path fill="none" d="M 791.00 1281.00 L 811.00 1280.00 L 851.00 1280.00 L 871.00 1279.00 L 911.00 1279.00 L 930.00 1278.05 L 958.00 1228.65 L 951.00 1229.00 L 931.00 1229.00 L 911.00 1209.00 L 891.00 1209.00 L 871.00 1210.00 L 811.00 1210.00 L 791.00 1231.00 L 780.00 1231.00 L 751.00 1281.00 Z" stroke-width="1" id="274-13-04" stroke="black"/>
  <path fill="none" d="M 931.00 1278.00 L 971.00 1278.00 L 991.00 1277.00 L 1031.00 1277.00 L 1051.00 1276.00 L 1091.00 1276.00 L 1111.00 1275.00 L 1122.00 1275.00 L 1154.00 1205.85 L 1151.00 1206.00 L 1111.00 1206.00 L 1091.00 1207.00 L 1031.00 1207.00 L 1011.00 1228.00 L 991.00 1208.00 L 971.00 1228.00 L 958.00 1228.65 L 930.00 1278.05 Z" stroke-width="1" id="274-13-05" stroke="black"/>
  <path fill="none" d="M 1151.00 1275.00 L 1171.00 1274.00 L 1231.00 1274.00 L 1251.00 1273.00 L 1248.00 1204.15 L 1231.00 1205.00 L 1171.00 1205.00 L 1154.00 1205.85 L 1122.00 1275.00 Z" stroke-width="1" id="274-13-06" stroke="black"/>
  <path fill="none" d="M 1291.00 1273.00 L 1311.00 1272.00 L 1351.00 1272.00 L 1371.00 1271.00 L 1411.00 1271.00 L 1431.00 1270.00 L 1471.00 1270.00 L 1491.00 1269.00 L 1531.00 1269.00 L 1551.00 1268.00 L 1577.00 1268.00 L 1582.00 1220.00 L 1571.00 1220.00 L 1551.00 1200.00 L 1531.00 1200.00 L 1511.00 1201.00 L 1451.00 1201.00 L 1431.00 1202.00 L 1391.00 1202.00 L 1371.00 1203.00 L 1311.00 1203.00 L 1291.00 1204.00 L 1251.00 1204.00 L 1248.00 1204.15 L 1251.00 1273.00 Z" stroke-width="1" id="274-13-07" stroke="black"/>
  <path fill="none" d="M 1591.00 1268.00 L 1611.00 1267.00 L 1651.00 1267.00 L 1671.00 1266.00 L 1731.00 1266.00 L 1751.00 1265.00 L 1791.00 1265.00 L 1811.00 1264.00 L 1818.88 1264.00 L 1809.00 1261.00 L 1815.00 1203.00 L 1844.40 1196.00 L 1811.00 1196.00 L 1791.00 1197.00 L 1751.00 1197.00 L 1731.00 1198.00 L 1671.00 1198.00 L 1651.00 1199.00 L 1611.00 1199.00 L 1591.00 1220.00 L 1582.00 1220.00 L 1577.00 1268.00 Z" stroke-width="1" id="274-13-08" stroke="black"/>
  <path fill="none" d="M 391.00 1287.00 L 371.00 1307.00 L 357.00 1321.70 L 357.00 1332.00 L 334.00 1356.00 L 359.20 1370.00 L 411.00 1370.00 L 431.00 1369.00 L 471.00 1369.00 L 491.00 1409.00 L 511.00 1408.00 L 531.00 1408.00 L 551.00 1388.00 L 571.00 1368.00 L 591.00 1367.00 L 614.00 1367.00 L 632.00 1283.00 L 611.00 1283.00 L 591.00 1284.00 L 551.00 1284.00 L 531.00 1285.00 L 491.00 1285.00 L 471.00 1286.00 L 431.00 1286.00 L 411.00 1287.00 Z" stroke-width="1" id="274-14-01" stroke="black"/>
  <path fill="none" d="M 651.00 1367.00 L 671.00 1366.00 L 719.00 1366.00 L 727.00 1282.00 L 671.00 1282.00 L 651.00 1283.00 L 632.00 1283.00 L 614.00 1367.00 Z" stroke-width="1" id="274-14-02" stroke="black"/>
  <path fill="none" d="M 731.00 1366.00 L 751.00 1365.00 L 811.00 1365.00 L 831.00 1364.00 L 854.00 1364.00 L 878.00 1279.00 L 871.00 1279.00 L 851.00 1280.00 L 811.00 1280.00 L 791.00 1281.00 L 751.00 1281.00 L 731.00 1282.00 L 727.00 1282.00 L 719.00 1366.00 Z" stroke-width="1" id="274-14-03" stroke="black"/>
  <path fill="none" d="M 891.00 1364.00 L 911.00 1363.00 L 971.00 1363.00 L 991.00 1362.00 L 1007.00 1362.00 L 1053.00 1276.00 L 1051.00 1276.00 L 1031.00 1277.00 L 991.00 1277.00 L 971.00 1278.00 L 931.00 1278.00 L 911.00 1279.00 L 878.00 1279.00 L 854.00 1364.00 Z" stroke-width="1" id="274-14-04" stroke="black"/>
  <path fill="none" d="M 1071.00 1362.00 L 1091.00 1361.00 L 1151.00 1361.00 L 1171.00 1360.00 L 1231.00 1360.00 L 1240.00 1368.55 L 1270.00 1273.00 L 1251.00 1273.00 L 1231.00 1274.00 L 1171.00 1274.00 L 1151.00 1275.00 L 1111.00 1275.00 L 1091.00 1276.00 L 1053.00 1276.00 L 1007.00 1362.00 Z" stroke-width="1" id="274-14-05" stroke="black"/>
  <path fill="none" d="M 1251.00 1379.00 L 1271.00 1379.00 L 1291.00 1359.00 L 1311.00 1359.00 L 1331.00 1378.00 L 1351.00 1378.00 L 1371.00 1358.00 L 1386.00 1358.00 L 1403.00 1271.00 L 1371.00 1271.00 L 1351.00 1272.00 L 1311.00 1272.00 L 1291.00 1273.00 L 1270.00 1273.00 L 1240.00 1368.55 Z" stroke-width="1" id="274-14-06" stroke="black"/>
  <path fill="none" d="M 1391.00 1358.00 L 1411.00 1357.00 L 1471.00 1357.00 L 1491.00 1356.00 L 1551.00 1356.00 L 1555.00 1355.80 L 1579.00 1268.00 L 1551.00 1268.00 L 1531.00 1269.00 L 1491.00 1269.00 L 1471.00 1270.00 L 1431.00 1270.00 L 1411.00 1271.00 L 1403.00 1271.00 L 1386.00 1358.00 Z" stroke-width="1" id="274-14-07" stroke="black"/>
  <path fill="none" d="M 1571.00 1355.00 L 1631.00 1355.00 L 1651.00 1354.00 L 1671.00 1374.00 L 1691.00 1354.00 L 1711.00 1354.00 L 1731.00 1353.00 L 1791.00 1353.00 L 1811.00 1352.00 L 1891.00 1352.00 L 1896.16 1351.74 L 1888.00 1285.00 L 1818.88 1264.00 L 1811.00 1264.00 L 1791.00 1265.00 L 1751.00 1265.00 L 1731.00 1266.00 L 1671.00 1266.00 L 1651.00 1267.00 L 1611.00 1267.00 L 1591.00 1268.00 L 1579.00 1268.00 L 1555.00 1355.80 Z" stroke-width="1" id="274-14-08" stroke="black"/>
  <path fill="none" d="M 359.20 1370.00 L 361.00 1371.00 L 355.00 1417.00 L 339.00 1440.00 L 355.76 1456.76 L 371.00 1456.00 L 451.00 1456.00 L 471.00 1455.00 L 512.00 1455.00 L 531.00 1408.00 L 511.00 1408.00 L 491.00 1409.00 L 471.00 1369.00 L 431.00 1369.00 L 411.00 1370.00 Z" stroke-width="1" id="274-15-01" stroke="black"/>
  <path fill="none" d="M 551.00 1455.00 L 571.00 1454.00 L 651.00 1454.00 L 671.00 1453.00 L 751.00 1453.00 L 771.00 1452.00 L 851.00 1452.00 L 871.00 1451.00 L 931.00 1451.00 L 951.00 1471.00 L 971.00 1470.00 L 991.00 1450.00 L 1032.00 1450.00 L 1080.00 1361.55 L 1071.00 1362.00 L 991.00 1362.00 L 971.00 1363.00 L 911.00 1363.00 L 891.00 1364.00 L 831.00 1364.00 L 811.00 1365.00 L 751.00 1365.00 L 731.00 1366.00 L 671.00 1366.00 L 651.00 1367.00 L 591.00 1367.00 L 571.00 1368.00 L 551.00 1388.00 L 531.00 1408.00 L 512.00 1455.00 Z" stroke-width="1" id="274-15-02" stroke="black"/>
  <path fill="none" d="M 1051.00 1450.00 L 1071.00 1469.00 L 1111.00 1469.00 L 1131.00 1449.00 L 1138.00 1449.00 L 1207.00 1360.00 L 1171.00 1360.00 L 1151.00 1361.00 L 1091.00 1361.00 L 1080.00 1361.55 L 1032.00 1450.00 Z" stroke-width="1" id="274-15-03" stroke="black"/>
  <path fill="none" d="M 1151.00 1449.00 L 1171.00 1448.00 L 1251.00 1448.00 L 1262.00 1447.45 L 1301.00 1359.00 L 1291.00 1359.00 L 1271.00 1379.00 L 1251.00 1379.00 L 1231.00 1360.00 L 1207.00 1360.00 L 1138.00 1449.00 Z" stroke-width="1" id="274-15-04" stroke="black"/>
  <path fill="none" d="M 1271.00 1447.00 L 1351.00 1447.00 L 1371.00 1446.00 L 1451.00 1446.00 L 1471.00 1445.00 L 1472.00 1445.00 L 1479.00 1356.60 L 1471.00 1357.00 L 1411.00 1357.00 L 1391.00 1358.00 L 1371.00 1358.00 L 1351.00 1378.00 L 1331.00 1378.00 L 1311.00 1359.00 L 1301.00 1359.00 L 1262.00 1447.45 Z" stroke-width="1" id="274-15-05" stroke="black"/>
  <path fill="none" d="M 1551.00 1445.00 L 1571.00 1444.00 L 1651.00 1444.00 L 1671.00 1443.00 L 1691.00 1463.00 L 1711.00 1443.00 L 1718.00 1443.00 L 1723.00 1353.40 L 1711.00 1354.00 L 1691.00 1354.00 L 1671.00 1374.00 L 1651.00 1354.00 L 1631.00 1355.00 L 1571.00 1355.00 L 1551.00 1356.00 L 1491.00 1356.00 L 1479.00 1356.60 L 1472.00 1445.00 Z" stroke-width="1" id="274-15-06" stroke="black"/>
  <path fill="none" d="M 1751.00 1443.00 L 1771.00 1442.00 L 1811.00 1442.00 L 1831.00 1462.00 L 1851.00 1462.00 L 1871.00 1461.00 L 1891.00 1441.00 L 1923.86 1441.00 L 1930.00 1425.00 L 1899.00 1375.00 L 1896.16 1351.74 L 1891.00 1352.00 L 1811.00 1352.00 L 1791.00 1353.00 L 1731.00 1353.00 L 1723.00 1353.40 L 1718.00 1443.00 Z" stroke-width="1" id="274-15-07" stroke="black"/>
  <path fill="none" d="M 355.76 1456.76 L 358.00 1459.00 L 358.00 1510.00 L 340.00 1528.00 L 357.00 1546.00 L 356.71 1552.42 L 371.00 1581.00 L 391.00 1581.00 L 411.00 1561.00 L 431.00 1541.00 L 451.00 1540.00 L 465.00 1540.00 L 471.00 1455.00 L 451.00 1456.00 L 371.00 1456.00 Z" stroke-width="1" id="274-16-01" stroke="black"/>
  <path fill="none" d="M 551.00 1540.00 L 567.00 1539.20 L 605.00 1454.00 L 571.00 1454.00 L 551.00 1455.00 L 471.00 1455.00 L 465.00 1540.00 Z" stroke-width="1" id="274-16-02" stroke="black"/>
  <path fill="none" d="M 571.00 1539.00 L 691.00 1539.00 L 711.00 1538.00 L 729.00 1538.00 L 774.00 1452.00 L 771.00 1452.00 L 751.00 1453.00 L 671.00 1453.00 L 651.00 1454.00 L 605.00 1454.00 L 567.00 1539.20 Z" stroke-width="1" id="274-16-03" stroke="black"/>
  <path fill="none" d="M 811.00 1538.00 L 831.00 1537.00 L 951.00 1537.00 L 971.00 1562.00 L 991.00 1562.00 L 1011.00 1550.00 L 1031.00 1550.00 L 1051.00 1552.00 L 1071.00 1544.00 L 1076.00 1542.00 L 1081.00 1469.00 L 1071.00 1469.00 L 1051.00 1450.00 L 991.00 1450.00 L 971.00 1470.00 L 951.00 1471.00 L 931.00 1451.00 L 871.00 1451.00 L 851.00 1452.00 L 774.00 1452.00 L 729.00 1538.00 Z" stroke-width="1" id="274-16-04" stroke="black"/>
  <path fill="none" d="M 1091.00 1536.00 L 1111.00 1535.00 L 1211.00 1535.00 L 1231.00 1534.00 L 1239.00 1534.00 L 1239.00 1448.00 L 1171.00 1448.00 L 1151.00 1449.00 L 1131.00 1449.00 L 1111.00 1469.00 L 1081.00 1469.00 L 1076.00 1542.00 Z" stroke-width="1" id="274-16-05" stroke="black"/>
  <path fill="none" d="M 1351.00 1534.00 L 1364.00 1533.35 L 1380.00 1446.00 L 1371.00 1446.00 L 1351.00 1447.00 L 1271.00 1447.00 L 1251.00 1448.00 L 1239.00 1448.00 L 1239.00 1534.00 Z" stroke-width="1" id="274-16-06" stroke="black"/>
  <path fill="none" d="M 1371.00 1533.00 L 1471.00 1533.00 L 1491.00 1532.00 L 1543.00 1532.00 L 1601.00 1444.00 L 1571.00 1444.00 L 1551.00 1445.00 L 1471.00 1445.00 L 1451.00 1446.00 L 1380.00 1446.00 L 1364.00 1533.35 Z" stroke-width="1" id="274-16-07" stroke="black"/>
  <path fill="none" d="M 1611.00 1532.00 L 1631.00 1531.00 L 1691.00 1531.00 L 1711.00 1551.00 L 1731.00 1531.00 L 1746.00 1531.00 L 1753.00 1442.90 L 1751.00 1443.00 L 1711.00 1443.00 L 1691.00 1463.00 L 1671.00 1443.00 L 1651.00 1444.00 L 1601.00 1444.00 L 1543.00 1532.00 Z" stroke-width="1" id="274-16-08" stroke="black"/>
  <path fill="none" d="M 1751.00 1531.00 L 1771.00 1530.00 L 1870.08 1530.00 L 1876.00 1525.00 L 1902.00 1498.00 L 1923.86 1441.00 L 1891.00 1441.00 L 1871.00 1461.00 L 1851.00 1462.00 L 1831.00 1462.00 L 1811.00 1442.00 L 1771.00 1442.00 L 1753.00 1442.90 L 1746.00 1531.00 Z" stroke-width="1" id="274-16-09" stroke="black"/>
  <path fill="none" d="M 356.71 1552.42 L 355.00 1590.00 L 336.00 1614.00 L 357.00 1624.00 L 357.29 1638.29 L 371.00 1652.00 L 391.00 1632.00 L 411.00 1631.00 L 412.00 1631.00 L 490.00 1540.00 L 451.00 1540.00 L 431.00 1541.00 L 411.00 1561.00 L 391.00 1581.00 L 371.00 1581.00 Z" stroke-width="1" id="274-17-01" stroke="black"/>
  <path fill="none" d="M 511.00 1631.00 L 531.00 1630.00 L 562.00 1630.00 L 594.00 1539.00 L 571.00 1539.00 L 551.00 1540.00 L 490.00 1540.00 L 412.00 1631.00 Z" stroke-width="1" id="274-17-02" stroke="black"/>
  <path fill="none" d="M 631.00 1630.00 L 651.00 1629.00 L 751.00 1629.00 L 771.00 1628.00 L 791.00 1628.00 L 811.00 1668.00 L 831.00 1668.00 L 851.00 1648.00 L 871.00 1628.00 L 891.00 1627.00 L 902.00 1627.00 L 907.00 1537.00 L 831.00 1537.00 L 811.00 1538.00 L 711.00 1538.00 L 691.00 1539.00 L 594.00 1539.00 L 562.00 1630.00 Z" stroke-width="1" id="274-17-03" stroke="black"/>
  <path fill="none" d="M 991.00 1627.00 L 1011.00 1626.00 L 1091.00 1626.00 L 1111.00 1625.00 L 1182.00 1625.00 L 1195.00 1535.00 L 1111.00 1535.00 L 1091.00 1536.00 L 1071.00 1544.00 L 1051.00 1552.00 L 1031.00 1550.00 L 1011.00 1550.00 L 991.00 1562.00 L 971.00 1562.00 L 951.00 1537.00 L 907.00 1537.00 L 902.00 1627.00 Z" stroke-width="1" id="274-17-04" stroke="black"/>
  <path fill="none" d="M 1211.00 1625.00 L 1231.00 1624.00 L 1331.00 1624.00 L 1351.00 1623.00 L 1436.00 1623.00 L 1475.00 1532.80 L 1471.00 1533.00 L 1371.00 1533.00 L 1351.00 1534.00 L 1231.00 1534.00 L 1211.00 1535.00 L 1195.00 1535.00 L 1182.00 1625.00 Z" stroke-width="1" id="274-17-05" stroke="black"/>
  <path fill="none" d="M 1451.00 1623.00 L 1471.00 1622.00 L 1541.00 1622.00 L 1596.00 1532.00 L 1491.00 1532.00 L 1475.00 1532.80 L 1436.00 1623.00 Z" stroke-width="1" id="274-17-06" stroke="black"/>
  <path fill="none" d="M 1571.00 1622.00 L 1591.00 1621.00 L 1631.00 1621.00 L 1651.00 1641.00 L 1671.00 1621.00 L 1691.00 1641.00 L 1711.00 1620.00 L 1811.00 1620.00 L 1821.28 1619.49 L 1831.00 1563.00 L 1870.08 1530.00 L 1771.00 1530.00 L 1751.00 1531.00 L 1731.00 1531.00 L 1711.00 1551.00 L 1691.00 1531.00 L 1631.00 1531.00 L 1611.00 1532.00 L 1596.00 1532.00 L 1541.00 1622.00 Z" stroke-width="1" id="274-17-07" stroke="black"/>
  <path fill="none" d="M 357.29 1638.29 L 358.00 1674.00 L 342.00 1696.00 L 360.00 1708.00 L 359.88 1711.56 L 371.00 1711.00 L 431.00 1711.00 L 451.00 1710.00 L 502.00 1710.00 L 507.00 1631.00 L 411.00 1631.00 L 391.00 1632.00 L 371.00 1652.00 Z" stroke-width="1" id="274-18-01" stroke="black"/>
  <path fill="none" d="M 531.00 1710.00 L 551.00 1709.00 L 631.00 1709.00 L 641.00 1708.50 L 688.00 1629.00 L 651.00 1629.00 L 631.00 1630.00 L 531.00 1630.00 L 511.00 1631.00 L 507.00 1631.00 L 502.00 1710.00 Z" stroke-width="1" id="274-18-02" stroke="black"/>
  <path fill="none" d="M 651.00 1708.00 L 711.00 1708.00 L 731.00 1707.00 L 811.00 1707.00 L 831.00 1718.00 L 850.00 1719.90 L 918.00 1627.00 L 891.00 1627.00 L 871.00 1628.00 L 851.00 1648.00 L 831.00 1668.00 L 811.00 1668.00 L 791.00 1628.00 L 771.00 1628.00 L 751.00 1629.00 L 688.00 1629.00 L 641.00 1708.50 Z" stroke-width="1" id="274-18-03" stroke="black"/>
  <path fill="none" d="M 851.00 1720.00 L 871.00 1746.00 L 891.00 1726.00 L 911.00 1725.00 L 931.00 1705.00 L 991.00 1705.00 L 1011.00 1704.00 L 1091.00 1704.00 L 1096.00 1703.75 L 1100.00 1625.55 L 1091.00 1626.00 L 1011.00 1626.00 L 991.00 1627.00 L 918.00 1627.00 L 850.00 1719.90 Z" stroke-width="1" id="274-18-04" stroke="black"/>
  <path fill="none" d="M 1111.00 1703.00 L 1171.00 1703.00 L 1182.00 1702.45 L 1216.00 1624.75 L 1211.00 1625.00 L 1111.00 1625.00 L 1100.00 1625.55 L 1096.00 1703.75 Z" stroke-width="1" id="274-18-05" stroke="black"/>
  <path fill="none" d="M 1191.00 1702.00 L 1271.00 1702.00 L 1291.00 1701.00 L 1351.00 1701.00 L 1371.00 1700.00 L 1391.00 1720.00 L 1394.00 1723.00 L 1469.00 1622.10 L 1451.00 1623.00 L 1351.00 1623.00 L 1331.00 1624.00 L 1231.00 1624.00 L 1216.00 1624.75 L 1182.00 1702.45 Z" stroke-width="1" id="274-18-06" stroke="black"/>
  <path fill="none" d="M 1411.00 1740.00 L 1431.00 1740.00 L 1451.00 1720.00 L 1471.00 1719.00 L 1491.00 1699.00 L 1551.00 1699.00 L 1571.00 1698.00 L 1599.00 1698.00 L 1610.00 1621.00 L 1591.00 1621.00 L 1571.00 1622.00 L 1471.00 1622.00 L 1469.00 1622.10 L 1394.00 1723.00 Z" stroke-width="1" id="274-18-07" stroke="black"/>
  <path fill="none" d="M 1631.00 1698.00 L 1651.00 1697.00 L 1731.00 1697.00 L 1751.00 1696.00 L 1786.43 1696.00 L 1815.00 1656.00 L 1821.28 1619.49 L 1811.00 1620.00 L 1711.00 1620.00 L 1691.00 1641.00 L 1671.00 1621.00 L 1651.00 1641.00 L 1631.00 1621.00 L 1610.00 1621.00 L 1599.00 1698.00 Z" stroke-width="1" id="274-18-08" stroke="black"/>
  <path fill="none" d="M 359.88 1711.56 L 358.00 1765.00 L 334.00 1791.00 L 340.00 1794.00 L 371.00 1794.00 L 391.00 1793.00 L 411.00 1820.00 L 451.00 1820.00 L 471.00 1816.00 L 491.00 1824.00 L 511.00 1824.00 L 531.00 1820.00 L 551.00 1810.00 L 571.00 1810.00 L 591.00 1790.00 L 631.00 1790.00 L 633.00 1708.90 L 631.00 1709.00 L 551.00 1709.00 L 531.00 1710.00 L 451.00 1710.00 L 431.00 1711.00 L 371.00 1711.00 Z" stroke-width="1" id="274-19-01" stroke="black"/>
  <path fill="none" d="M 651.00 1790.00 L 671.00 1789.00 L 711.00 1789.00 L 731.00 1788.00 L 772.00 1788.00 L 806.00 1707.00 L 731.00 1707.00 L 711.00 1708.00 L 651.00 1708.00 L 633.00 1708.90 L 631.00 1790.00 Z" stroke-width="1" id="274-19-02" stroke="black"/>
  <path fill="none" d="M 791.00 1788.00 L 811.00 1787.00 L 851.00 1787.00 L 871.00 1786.00 L 931.00 1786.00 L 951.00 1785.00 L 991.00 1785.00 L 1011.00 1784.00 L 1071.00 1784.00 L 1091.00 1783.00 L 1131.00 1783.00 L 1151.00 1782.00 L 1167.00 1782.00 L 1206.00 1702.00 L 1191.00 1702.00 L 1171.00 1703.00 L 1111.00 1703.00 L 1091.00 1704.00 L 1011.00 1704.00 L 991.00 1705.00 L 931.00 1705.00 L 911.00 1725.00 L 891.00 1726.00 L 871.00 1746.00 L 851.00 1720.00 L 831.00 1718.00 L 811.00 1707.00 L 806.00 1707.00 L 772.00 1788.00 Z" stroke-width="1" id="274-19-03" stroke="black"/>
  <path fill="none" d="M 1211.00 1782.00 L 1231.00 1781.00 L 1253.00 1781.00 L 1262.00 1702.00 L 1206.00 1702.00 L 1167.00 1782.00 Z" stroke-width="1" id="274-19-04" stroke="black"/>
  <path fill="none" d="M 1271.00 1781.00 L 1291.00 1780.00 L 1331.00 1780.00 L 1351.00 1779.00 L 1411.00 1779.00 L 1431.00 1778.00 L 1471.00 1778.00 L 1491.00 1777.00 L 1551.00 1777.00 L 1571.00 1776.00 L 1573.00 1776.00 L 1614.00 1698.00 L 1571.00 1698.00 L 1551.00 1699.00 L 1491.00 1699.00 L 1471.00 1719.00 L 1451.00 1720.00 L 1431.00 1740.00 L 1411.00 1740.00 L 1391.00 1720.00 L 1371.00 1700.00 L 1351.00 1701.00 L 1291.00 1701.00 L 1271.00 1702.00 L 1262.00 1702.00 L 1253.00 1781.00 Z" stroke-width="1" id="274-19-05" stroke="black"/>
  <path fill="none" d="M 1611.00 1776.00 L 1631.00 1775.00 L 1691.00 1775.00 L 1711.00 1774.00 L 1751.00 1774.00 L 1768.51 1773.12 L 1758.00 1737.00 L 1785.00 1698.00 L 1786.43 1696.00 L 1751.00 1696.00 L 1731.00 1697.00 L 1651.00 1697.00 L 1631.00 1698.00 L 1614.00 1698.00 L 1573.00 1776.00 Z" stroke-width="1" id="274-19-06" stroke="black"/>
  <path fill="none" d="M 340.00 1794.00 L 360.00 1804.00 L 357.00 1834.00 L 339.00 1870.00 L 357.00 1884.00 L 357.00 1886.00 L 411.00 1886.00 L 431.00 1885.00 L 462.00 1885.00 L 484.00 1821.20 L 471.00 1816.00 L 451.00 1820.00 L 411.00 1820.00 L 391.00 1793.00 L 371.00 1794.00 Z" stroke-width="1" id="274-20-01" stroke="black"/>
  <path fill="none" d="M 491.00 1885.00 L 511.00 1884.00 L 571.00 1884.00 L 591.00 1883.00 L 651.00 1883.00 L 671.00 1896.00 L 691.00 1902.00 L 711.00 1902.00 L 730.00 1896.30 L 724.00 1788.35 L 711.00 1789.00 L 671.00 1789.00 L 651.00 1790.00 L 591.00 1790.00 L 571.00 1810.00 L 551.00 1810.00 L 531.00 1820.00 L 511.00 1824.00 L 491.00 1824.00 L 484.00 1821.20 L 462.00 1885.00 Z" stroke-width="1" id="274-20-02" stroke="black"/>
  <path fill="none" d="M 731.00 1896.00 L 751.00 1892.00 L 771.00 1881.00 L 811.00 1881.00 L 831.00 1880.00 L 891.00 1880.00 L 911.00 1879.00 L 971.00 1879.00 L 991.00 1878.00 L 1019.00 1784.00 L 1011.00 1784.00 L 991.00 1785.00 L 951.00 1785.00 L 931.00 1786.00 L 871.00 1786.00 L 851.00 1787.00 L 811.00 1787.00 L 791.00 1788.00 L 731.00 1788.00 L 724.00 1788.35 L 730.00 1896.30 Z" stroke-width="1" id="274-20-03" stroke="black"/>
  <path fill="none" d="M 1051.00 1878.00 L 1071.00 1877.00 L 1091.00 1897.00 L 1111.00 1917.00 L 1131.00 1897.00 L 1151.00 1896.00 L 1171.00 1876.00 L 1187.00 1876.00 L 1206.00 1782.00 L 1151.00 1782.00 L 1131.00 1783.00 L 1091.00 1783.00 L 1071.00 1784.00 L 1019.00 1784.00 L 991.00 1878.00 Z" stroke-width="1" id="274-20-04" stroke="black"/>
  <path fill="none" d="M 1211.00 1876.00 L 1231.00 1875.00 L 1291.00 1875.00 L 1311.00 1874.00 L 1371.00 1874.00 L 1390.00 1873.05 L 1479.00 1777.60 L 1471.00 1778.00 L 1431.00 1778.00 L 1411.00 1779.00 L 1351.00 1779.00 L 1331.00 1780.00 L 1291.00 1780.00 L 1271.00 1781.00 L 1231.00 1781.00 L 1211.00 1782.00 L 1206.00 1782.00 L 1187.00 1876.00 Z" stroke-width="1" id="274-20-05" stroke="black"/>
  <path fill="none" d="M 1391.00 1873.00 L 1411.00 1893.00 L 1431.00 1893.00 L 1451.00 1873.00 L 1471.00 1872.00 L 1551.00 1872.00 L 1571.00 1871.00 L 1614.00 1871.00 L 1617.00 1775.70 L 1611.00 1776.00 L 1571.00 1776.00 L 1551.00 1777.00 L 1491.00 1777.00 L 1479.00 1777.60 L 1390.00 1873.05 Z" stroke-width="1" id="274-20-06" stroke="black"/>
  <path fill="none" d="M 1631.00 1871.00 L 1651.00 1870.00 L 1711.00 1870.00 L 1731.00 1869.00 L 1748.00 1774.00 L 1711.00 1774.00 L 1691.00 1775.00 L 1631.00 1775.00 L 1617.00 1775.70 L 1614.00 1871.00 Z" stroke-width="1" id="274-20-07" stroke="black"/>
  <path fill="none" d="M 1791.00 1869.00 L 1811.00 1868.00 L 1871.00 1868.00 L 1891.00 1867.00 L 1905.82 1867.00 L 1911.00 1842.00 L 1825.00 1801.00 L 1774.00 1792.00 L 1768.51 1773.12 L 1751.00 1774.00 L 1748.00 1774.00 L 1731.00 1869.00 Z" stroke-width="1" id="274-20-08" stroke="black"/>
  <path fill="none" d="M 357.00 1886.00 L 357.00 1930.00 L 334.00 1951.00 L 357.00 1968.00 L 357.00 1977.00 L 371.00 1977.00 L 391.00 1976.00 L 411.00 2002.00 L 431.00 2004.00 L 451.00 1996.00 L 471.00 1988.00 L 491.00 1988.00 L 511.00 1990.00 L 531.00 1992.00 L 551.00 1996.00 L 571.00 1998.00 L 591.00 1998.00 L 611.00 1994.00 L 631.00 1990.00 L 635.00 1990.00 L 680.00 1898.70 L 671.00 1896.00 L 651.00 1883.00 L 591.00 1883.00 L 571.00 1884.00 L 511.00 1884.00 L 491.00 1885.00 L 431.00 1885.00 L 411.00 1886.00 Z" stroke-width="1" id="274-21-01" stroke="black"/>
  <path fill="none" d="M 691.00 1990.00 L 711.00 1973.00 L 751.00 1973.00 L 820.00 1880.55 L 811.00 1881.00 L 771.00 1881.00 L 751.00 1892.00 L 731.00 1896.00 L 711.00 1902.00 L 691.00 1902.00 L 680.00 1898.70 L 635.00 1990.00 Z" stroke-width="1" id="274-21-02" stroke="black"/>
  <path fill="none" d="M 771.00 1993.00 L 791.00 1992.00 L 811.00 1972.00 L 871.00 1972.00 L 891.00 1971.00 L 971.00 1971.00 L 985.00 1970.30 L 1025.00 1878.00 L 991.00 1878.00 L 971.00 1879.00 L 911.00 1879.00 L 891.00 1880.00 L 831.00 1880.00 L 820.00 1880.55 L 751.00 1973.00 Z" stroke-width="1" id="274-21-03" stroke="black"/>
  <path fill="none" d="M 991.00 1970.00 L 1071.00 1970.00 L 1091.00 1969.00 L 1151.00 1969.00 L 1161.00 1989.00 L 1248.00 1875.00 L 1231.00 1875.00 L 1211.00 1876.00 L 1171.00 1876.00 L 1151.00 1896.00 L 1131.00 1897.00 L 1111.00 1917.00 L 1091.00 1897.00 L 1071.00 1877.00 L 1051.00 1878.00 L 1025.00 1878.00 L 985.00 1970.30 Z" stroke-width="1" id="274-21-04" stroke="black"/>
  <path fill="none" d="M 1171.00 2009.00 L 1191.00 2008.00 L 1211.00 2008.00 L 1231.00 1988.00 L 1251.00 1968.00 L 1271.00 1968.00 L 1291.00 1967.00 L 1371.00 1967.00 L 1379.00 1966.60 L 1411.00 1893.00 L 1391.00 1873.00 L 1371.00 1874.00 L 1311.00 1874.00 L 1291.00 1875.00 L 1248.00 1875.00 L 1161.00 1989.00 Z" stroke-width="1" id="274-21-05" stroke="black"/>
  <path fill="none" d="M 1391.00 1966.00 L 1471.00 1966.00 L 1491.00 1965.00 L 1591.00 1965.00 L 1602.00 1964.45 L 1653.00 1870.00 L 1651.00 1870.00 L 1631.00 1871.00 L 1571.00 1871.00 L 1551.00 1872.00 L 1471.00 1872.00 L 1451.00 1873.00 L 1431.00 1893.00 L 1411.00 1893.00 L 1379.00 1966.60 Z" stroke-width="1" id="274-21-06" stroke="black"/>
  <path fill="none" d="M 1611.00 1964.00 L 1671.00 1964.00 L 1691.00 1984.00 L 1711.00 1983.00 L 1731.00 1963.00 L 1751.00 1963.00 L 1771.00 1983.00 L 1791.00 1983.00 L 1811.00 1962.00 L 1856.86 1962.00 L 1894.00 1924.00 L 1905.82 1867.00 L 1891.00 1867.00 L 1871.00 1868.00 L 1811.00 1868.00 L 1791.00 1869.00 L 1731.00 1869.00 L 1711.00 1870.00 L 1653.00 1870.00 L 1602.00 1964.45 Z" stroke-width="1" id="274-21-07" stroke="black"/>
  <path fill="none" d="M 357.00 1977.00 L 357.00 2019.00 L 336.00 2037.00 L 346.56 2052.00 L 465.56 2052.00 L 494.00 1988.30 L 491.00 1988.00 L 471.00 1988.00 L 451.00 1996.00 L 431.00 2004.00 L 411.00 2002.00 L 391.00 1976.00 L 371.00 1977.00 Z" stroke-width="1" id="274-22-01" stroke="black"/>
  <path fill="none" d="M 471.00 2052.00 L 491.00 2051.00 L 601.00 2051.00 L 606.00 1995.00 L 591.00 1998.00 L 571.00 1998.00 L 551.00 1996.00 L 531.00 1992.00 L 511.00 1990.00 L 494.00 1988.30 L 465.56 2052.00 Z" stroke-width="1" id="274-22-02" stroke="black"/>
  <path fill="none" d="M 631.00 2051.00 L 651.00 2050.00 L 691.00 2050.00 L 711.00 2070.00 L 731.00 2070.00 L 751.00 2050.00 L 791.00 2050.00 L 811.00 2049.00 L 851.00 2049.00 L 860.00 2062.95 L 901.00 1971.00 L 891.00 1971.00 L 871.00 1972.00 L 811.00 1972.00 L 791.00 1992.00 L 771.00 1993.00 L 751.00 1973.00 L 711.00 1973.00 L 691.00 1990.00 L 631.00 1990.00 L 611.00 1994.00 L 606.00 1995.00 L 601.00 2051.00 Z" stroke-width="1" id="274-22-03" stroke="black"/>
  <path fill="none" d="M 871.00 2080.00 L 891.00 2080.00 L 911.00 2060.00 L 931.00 2058.00 L 951.00 2049.00 L 971.00 2048.00 L 1045.00 2048.00 L 1053.00 1970.00 L 991.00 1970.00 L 971.00 1971.00 L 901.00 1971.00 L 860.00 2062.95 Z" stroke-width="1" id="274-22-04" stroke="black"/>
  <path fill="none" d="M 1111.00 2048.00 L 1131.00 2047.00 L 1241.00 2047.00 L 1272.00 1967.95 L 1271.00 1968.00 L 1251.00 1968.00 L 1231.00 1988.00 L 1211.00 2008.00 L 1191.00 2008.00 L 1171.00 2009.00 L 1151.00 1969.00 L 1091.00 1969.00 L 1071.00 1970.00 L 1053.00 1970.00 L 1045.00 2048.00 Z" stroke-width="1" id="274-22-05" stroke="black"/>
  <path fill="none" d="M 1271.00 2047.00 L 1291.00 2046.00 L 1317.00 2046.00 L 1341.00 1967.00 L 1291.00 1967.00 L 1272.00 1967.95 L 1241.00 2047.00 Z" stroke-width="1" id="274-22-06" stroke="black"/>
  <path fill="none" d="M 1431.00 2046.00 L 1451.00 2045.00 L 1585.00 2045.00 L 1604.00 1964.35 L 1591.00 1965.00 L 1491.00 1965.00 L 1471.00 1966.00 L 1391.00 1966.00 L 1371.00 1967.00 L 1341.00 1967.00 L 1317.00 2046.00 Z" stroke-width="1" id="274-22-07" stroke="black"/>
  <path fill="none" d="M 1591.00 2045.00 L 1611.00 2044.00 L 1751.00 2044.00 L 1771.00 2043.00 L 1849.30 2043.00 L 1851.00 1968.00 L 1856.86 1962.00 L 1811.00 1962.00 L 1791.00 1983.00 L 1771.00 1983.00 L 1751.00 1963.00 L 1731.00 1963.00 L 1711.00 1983.00 L 1691.00 1984.00 L 1671.00 1964.00 L 1611.00 1964.00 L 1604.00 1964.35 L 1585.00 2045.00 Z" stroke-width="1" id="274-22-08" stroke="black"/>
  <path fill="none" d="M 346.56 2052.00 L 355.00 2064.00 L 354.00 2100.00 L 337.00 2133.00 L 339.00 2161.00 L 340.00 2162.00 L 351.00 2162.00 L 371.00 2158.00 L 391.00 2147.00 L 411.00 2127.00 L 431.00 2127.00 L 446.00 2157.00 L 513.00 2051.00 L 491.00 2051.00 L 471.00 2052.00 Z" stroke-width="1" id="274-23-01" stroke="black"/>
  <path fill="none" d="M 451.00 2167.00 L 491.00 2167.00 L 511.00 2147.00 L 531.00 2146.00 L 691.00 2146.00 L 711.00 2145.00 L 731.00 2165.00 L 751.00 2165.00 L 771.00 2145.00 L 793.00 2145.00 L 835.00 2049.00 L 811.00 2049.00 L 791.00 2050.00 L 751.00 2050.00 L 731.00 2070.00 L 711.00 2070.00 L 691.00 2050.00 L 651.00 2050.00 L 631.00 2051.00 L 513.00 2051.00 L 446.00 2157.00 Z" stroke-width="1" id="274-23-02" stroke="black"/>
  <path fill="none" d="M 851.00 2145.00 L 871.00 2144.00 L 931.00 2144.00 L 968.00 2048.15 L 951.00 2049.00 L 931.00 2058.00 L 911.00 2060.00 L 891.00 2080.00 L 871.00 2080.00 L 851.00 2049.00 L 835.00 2049.00 L 793.00 2145.00 Z" stroke-width="1" id="274-23-03" stroke="black"/>
  <path fill="none" d="M 1031.00 2144.00 L 1051.00 2143.00 L 1071.00 2163.00 L 1091.00 2143.00 L 1146.00 2143.00 L 1200.00 2047.00 L 1131.00 2047.00 L 1111.00 2048.00 L 971.00 2048.00 L 968.00 2048.15 L 931.00 2144.00 Z" stroke-width="1" id="274-23-04" stroke="black"/>
  <path fill="none" d="M 1211.00 2143.00 L 1231.00 2142.00 L 1337.00 2142.00 L 1377.00 2046.00 L 1291.00 2046.00 L 1271.00 2047.00 L 1200.00 2047.00 L 1146.00 2143.00 Z" stroke-width="1" id="274-23-05" stroke="black"/>
  <path fill="none" d="M 1391.00 2142.00 L 1411.00 2141.00 L 1449.00 2141.00 L 1506.00 2045.00 L 1451.00 2045.00 L 1431.00 2046.00 L 1377.00 2046.00 L 1337.00 2142.00 Z" stroke-width="1" id="274-23-06" stroke="black"/>
  <path fill="none" d="M 1511.00 2141.00 L 1531.00 2161.00 L 1551.00 2161.00 L 1571.00 2160.00 L 1591.00 2140.00 L 1632.00 2140.00 L 1646.00 2044.00 L 1611.00 2044.00 L 1591.00 2045.00 L 1506.00 2045.00 L 1449.00 2141.00 Z" stroke-width="1" id="274-23-07" stroke="black"/>
  <path fill="none" d="M 1700.00 2140.00 L 1767.00 2043.20 L 1751.00 2044.00 L 1646.00 2044.00 L 1632.00 2140.00 Z" stroke-width="1" id="274-23-08" stroke="black"/>
  <path fill="none" d="M 1731.00 2140.00 L 1751.00 2139.00 L 1871.40 2139.00 L 1848.00 2100.00 L 1849.30 2043.00 L 1771.00 2043.00 L 1767.00 2043.20 L 1700.00 2140.00 Z" stroke-width="1" id="274-23-09" stroke="black"/>
  <path fill="none" d="M 340.00 2162.00 L 357.00 2179.00 L 334.00 2211.00 L 354.12 2225.00 L 431.00 2225.00 L 451.00 2224.00 L 551.00 2224.00 L 571.00 2223.00 L 624.00 2223.00 L 660.00 2146.00 L 531.00 2146.00 L 511.00 2147.00 L 491.00 2167.00 L 451.00 2167.00 L 431.00 2127.00 L 411.00 2127.00 L 391.00 2147.00 L 371.00 2158.00 L 351.00 2162.00 Z" stroke-width="1" id="274-24-01" stroke="black"/>
  <path fill="none" d="M 691.00 2223.00 L 711.00 2222.00 L 765.00 2222.00 L 780.00 2145.00 L 771.00 2145.00 L 751.00 2165.00 L 731.00 2165.00 L 711.00 2145.00 L 691.00 2146.00 L 660.00 2146.00 L 624.00 2223.00 Z" stroke-width="1" id="274-24-02" stroke="black"/>
  <path fill="none" d="M 831.00 2222.00 L 851.00 2221.00 L 891.00 2221.00 L 911.00 2241.00 L 931.00 2241.00 L 951.00 2221.00 L 971.00 2220.00 L 1031.00 2220.00 L 1051.00 2240.00 L 1071.00 2220.00 L 1088.00 2220.00 L 1108.00 2143.00 L 1091.00 2143.00 L 1071.00 2163.00 L 1051.00 2143.00 L 1031.00 2144.00 L 871.00 2144.00 L 851.00 2145.00 L 780.00 2145.00 L 765.00 2222.00 Z" stroke-width="1" id="274-24-03" stroke="black"/>
  <path fill="none" d="M 1091.00 2220.00 L 1111.00 2219.00 L 1171.00 2219.00 L 1191.00 2239.00 L 1211.00 2259.00 L 1231.00 2239.00 L 1251.00 2218.00 L 1281.00 2218.00 L 1270.00 2142.00 L 1231.00 2142.00 L 1211.00 2143.00 L 1108.00 2143.00 L 1088.00 2220.00 Z" stroke-width="1" id="274-24-04" stroke="black"/>
  <path fill="none" d="M 1351.00 2218.00 L 1371.00 2217.00 L 1491.00 2217.00 L 1511.00 2216.00 L 1538.00 2216.00 L 1554.00 2160.85 L 1551.00 2161.00 L 1531.00 2161.00 L 1511.00 2141.00 L 1411.00 2141.00 L 1391.00 2142.00 L 1270.00 2142.00 L 1281.00 2218.00 Z" stroke-width="1" id="274-24-05" stroke="black"/>
  <path fill="none" d="M 1611.00 2216.00 L 1631.00 2215.00 L 1635.00 2215.00 L 1668.00 2140.00 L 1591.00 2140.00 L 1571.00 2160.00 L 1554.00 2160.85 L 1538.00 2216.00 Z" stroke-width="1" id="274-24-06" stroke="black"/>
  <path fill="none" d="M 1748.00 2215.00 L 1796.40 2139.00 L 1751.00 2139.00 L 1731.00 2140.00 L 1668.00 2140.00 L 1635.00 2215.00 Z" stroke-width="1" id="274-24-07" stroke="black"/>
  <path fill="none" d="M 1751.00 2215.00 L 1771.00 2214.00 L 1870.74 2214.00 L 1908.00 2199.00 L 1881.00 2155.00 L 1871.40 2139.00 L 1796.40 2139.00 L 1748.00 2215.00 Z" stroke-width="1" id="274-24-08" stroke="black"/>
  <path fill="none" d="M 354.12 2225.00 L 357.00 2227.00 L 355.00 2265.00 L 334.00 2290.00 L 358.00 2308.00 L 356.96 2316.66 L 371.00 2330.00 L 391.00 2310.00 L 531.00 2310.00 L 551.00 2309.00 L 671.00 2309.00 L 691.00 2329.00 L 711.00 2329.00 L 731.00 2328.00 L 751.00 2308.00 L 758.00 2308.00 L 792.00 2222.00 L 711.00 2222.00 L 691.00 2223.00 L 571.00 2223.00 L 551.00 2224.00 L 451.00 2224.00 L 431.00 2225.00 Z" stroke-width="1" id="274-25-01" stroke="black"/>
  <path fill="none" d="M 843.00 2308.00 L 911.00 2241.00 L 891.00 2221.00 L 851.00 2221.00 L 831.00 2222.00 L 792.00 2222.00 L 758.00 2308.00 Z" stroke-width="1" id="274-25-02" stroke="black"/>
  <path fill="none" d="M 891.00 2308.00 L 911.00 2307.00 L 991.00 2307.00 L 1011.00 2287.00 L 1031.00 2287.00 L 1051.00 2307.00 L 1071.00 2307.00 L 1091.00 2306.00 L 1101.00 2328.00 L 1165.00 2219.00 L 1111.00 2219.00 L 1091.00 2220.00 L 1071.00 2220.00 L 1051.00 2240.00 L 1031.00 2220.00 L 971.00 2220.00 L 951.00 2221.00 L 931.00 2241.00 L 911.00 2241.00 L 843.00 2308.00 Z" stroke-width="1" id="274-25-03" stroke="black"/>
  <path fill="none" d="M 1111.00 2350.00 L 1131.00 2350.00 L 1151.00 2344.00 L 1171.00 2330.00 L 1191.00 2326.00 L 1211.00 2306.00 L 1251.00 2306.00 L 1271.00 2305.00 L 1326.00 2305.00 L 1372.00 2217.00 L 1371.00 2217.00 L 1351.00 2218.00 L 1251.00 2218.00 L 1231.00 2239.00 L 1211.00 2259.00 L 1191.00 2239.00 L 1171.00 2219.00 L 1165.00 2219.00 L 1101.00 2328.00 Z" stroke-width="1" id="274-25-04" stroke="black"/>
  <path fill="none" d="M 1451.00 2305.00 L 1471.00 2304.00 L 1484.00 2304.00 L 1487.00 2217.00 L 1372.00 2217.00 L 1326.00 2305.00 Z" stroke-width="1" id="274-25-05" stroke="black"/>
  <path fill="none" d="M 1561.00 2304.00 L 1572.00 2216.00 L 1511.00 2216.00 L 1491.00 2217.00 L 1487.00 2217.00 L 1484.00 2304.00 Z" stroke-width="1" id="274-25-06" stroke="black"/>
  <path fill="none" d="M 1631.00 2304.00 L 1651.00 2303.00 L 1671.00 2303.00 L 1691.00 2304.00 L 1711.00 2304.00 L 1731.00 2306.00 L 1751.00 2306.00 L 1771.00 2303.00 L 1811.00 2303.00 L 1831.00 2302.00 L 1833.50 2302.00 L 1831.00 2230.00 L 1870.74 2214.00 L 1771.00 2214.00 L 1751.00 2215.00 L 1631.00 2215.00 L 1611.00 2216.00 L 1572.00 2216.00 L 1561.00 2304.00 Z" stroke-width="1" id="274-25-07" stroke="black"/>
  <path fill="none" d="M 356.96 2316.66 L 352.00 2358.00 L 325.00 2388.00 L 329.50 2410.50 L 331.00 2412.00 L 340.50 2421.50 L 351.00 2430.00 L 350.75 2431.75 L 351.00 2432.00 L 371.00 2392.00 L 451.00 2392.00 L 471.00 2391.00 L 543.00 2391.00 L 557.00 2309.00 L 551.00 2309.00 L 531.00 2310.00 L 391.00 2310.00 L 371.00 2330.00 Z" stroke-width="1" id="274-26-01" stroke="black"/>
  <path fill="none" d="M 702.00 2391.00 L 705.00 2329.00 L 691.00 2329.00 L 671.00 2309.00 L 557.00 2309.00 L 543.00 2391.00 Z" stroke-width="1" id="274-26-02" stroke="black"/>
  <path fill="none" d="M 731.00 2391.00 L 751.00 2390.00 L 923.00 2390.00 L 920.00 2307.00 L 911.00 2307.00 L 891.00 2308.00 L 751.00 2308.00 L 731.00 2328.00 L 711.00 2329.00 L 705.00 2329.00 L 702.00 2391.00 Z" stroke-width="1" id="274-26-03" stroke="black"/>
  <path fill="none" d="M 1011.00 2390.00 L 1031.00 2389.00 L 1096.00 2389.00 L 1117.00 2350.00 L 1111.00 2350.00 L 1091.00 2306.00 L 1071.00 2307.00 L 1051.00 2307.00 L 1031.00 2287.00 L 1011.00 2287.00 L 991.00 2307.00 L 920.00 2307.00 L 923.00 2390.00 Z" stroke-width="1" id="274-26-04" stroke="black"/>
  <path fill="none" d="M 1251.00 2389.00 L 1271.00 2409.00 L 1291.00 2409.00 L 1311.00 2408.00 L 1331.00 2408.00 L 1408.00 2305.00 L 1271.00 2305.00 L 1251.00 2306.00 L 1211.00 2306.00 L 1191.00 2326.00 L 1171.00 2330.00 L 1151.00 2344.00 L 1131.00 2350.00 L 1117.00 2350.00 L 1096.00 2389.00 Z" stroke-width="1" id="274-26-05" stroke="black"/>
  <path fill="none" d="M 1371.00 2408.00 L 1391.00 2388.00 L 1571.00 2388.00 L 1591.00 2387.00 L 1659.00 2387.00 L 1699.00 2304.00 L 1691.00 2304.00 L 1671.00 2303.00 L 1651.00 2303.00 L 1631.00 2304.00 L 1471.00 2304.00 L 1451.00 2305.00 L 1408.00 2305.00 L 1331.00 2408.00 Z" stroke-width="1" id="274-26-06" stroke="black"/>
  <path fill="none" d="M 1691.00 2387.00 L 1711.00 2407.00 L 1731.00 2387.00 L 1809.00 2387.00 L 1808.00 2303.00 L 1771.00 2303.00 L 1751.00 2306.00 L 1731.00 2306.00 L 1711.00 2304.00 L 1699.00 2304.00 L 1659.00 2387.00 Z" stroke-width="1" id="274-26-07" stroke="black"/>
  <path fill="none" d="M 371.00 2392.00 L 351.00 2432.00 L 350.75 2431.75 L 345.00 2472.00 L 331.00 2499.00 L 344.22 2516.00 L 351.00 2516.00 L 371.00 2495.00 L 391.00 2495.00 L 411.00 2475.00 L 531.00 2475.00 L 536.00 2474.75 L 544.00 2391.00 L 471.00 2391.00 L 451.00 2392.00 Z" stroke-width="1" id="274-27-01" stroke="black"/>
  <path fill="none" d="M 551.00 2474.00 L 562.00 2474.00 L 598.00 2391.00 L 544.00 2391.00 L 536.00 2474.75 Z" stroke-width="1" id="274-27-02" stroke="black"/>
  <path fill="none" d="M 911.00 2473.00 L 931.00 2472.00 L 1071.00 2472.00 L 1076.00 2477.00 L 1130.00 2389.00 L 1031.00 2389.00 L 1011.00 2390.00 L 792.00 2390.00 L 791.00 2473.00 Z" stroke-width="1" id="274-27-03" stroke="black"/>
  <path fill="none" d="M 1091.00 2492.00 L 1111.00 2511.00 L 1131.00 2511.00 L 1151.00 2491.00 L 1171.00 2471.00 L 1271.00 2471.00 L 1287.00 2470.20 L 1293.00 2408.90 L 1291.00 2409.00 L 1271.00 2409.00 L 1251.00 2389.00 L 1130.00 2389.00 L 1076.00 2477.00 Z" stroke-width="1" id="274-27-04" stroke="black"/>
  <path fill="none" d="M 1291.00 2470.00 L 1471.00 2470.00 L 1491.00 2469.00 L 1498.00 2469.00 L 1540.00 2388.00 L 1391.00 2388.00 L 1371.00 2408.00 L 1311.00 2408.00 L 1293.00 2408.90 L 1287.00 2470.20 Z" stroke-width="1" id="274-27-05" stroke="black"/>
  <path fill="none" d="M 1651.00 2469.00 L 1671.00 2468.00 L 1806.00 2468.00 L 1811.77 2387.00 L 1731.00 2387.00 L 1711.00 2407.00 L 1691.00 2387.00 L 1591.00 2387.00 L 1571.00 2388.00 L 1540.00 2388.00 L 1498.00 2469.00 Z" stroke-width="1" id="274-27-06" stroke="black"/>
  <path fill="none" d="M 1831.00 2468.00 L 1851.00 2467.00 L 1879.18 2467.00 L 1911.00 2440.00 L 1850.77 2387.00 L 1811.77 2387.00 L 1806.00 2468.00 Z" stroke-width="1" id="274-27-07" stroke="black"/>
  <path fill="none" d="M 344.22 2516.00 L 345.00 2517.00 L 324.00 2553.00 L 351.00 2565.00 L 350.63 2568.02 L 351.00 2568.00 L 411.00 2568.00 L 431.00 2608.00 L 451.00 2568.00 L 491.00 2568.00 L 511.00 2567.00 L 651.00 2567.00 L 661.00 2566.50 L 685.00 2474.00 L 551.00 2474.00 L 531.00 2475.00 L 411.00 2475.00 L 391.00 2495.00 L 371.00 2495.00 L 351.00 2516.00 Z" stroke-width="1" id="274-28-01" stroke="black"/>
  <path fill="none" d="M 671.00 2566.00 L 811.00 2566.00 L 831.00 2565.00 L 851.00 2585.00 L 891.00 2585.00 L 911.00 2565.00 L 954.00 2565.00 L 986.00 2472.00 L 931.00 2472.00 L 911.00 2473.00 L 791.00 2473.00 L 771.00 2493.00 L 751.00 2493.00 L 731.00 2473.00 L 711.00 2474.00 L 685.00 2474.00 L 661.00 2566.50 Z" stroke-width="1" id="274-28-02" stroke="black"/>
  <path fill="none" d="M 971.00 2565.00 L 991.00 2564.00 L 1091.00 2564.00 L 1111.00 2584.00 L 1131.00 2584.00 L 1151.00 2564.00 L 1171.00 2563.00 L 1231.00 2563.00 L 1251.00 2583.00 L 1271.00 2603.00 L 1291.00 2583.00 L 1311.00 2583.00 L 1331.00 2562.00 L 1349.00 2562.00 L 1378.00 2470.00 L 1291.00 2470.00 L 1271.00 2471.00 L 1171.00 2471.00 L 1151.00 2491.00 L 1131.00 2511.00 L 1111.00 2511.00 L 1091.00 2492.00 L 1071.00 2472.00 L 986.00 2472.00 L 954.00 2565.00 Z" stroke-width="1" id="274-28-03" stroke="black"/>
  <path fill="none" d="M 1431.00 2562.00 L 1441.00 2572.00 L 1472.00 2469.95 L 1471.00 2470.00 L 1378.00 2470.00 L 1349.00 2562.00 Z" stroke-width="1" id="274-28-04" stroke="black"/>
  <path fill="none" d="M 1451.00 2582.00 L 1471.00 2602.00 L 1491.00 2581.00 L 1511.00 2561.00 L 1611.00 2561.00 L 1618.00 2568.00 L 1684.00 2468.00 L 1671.00 2468.00 L 1651.00 2469.00 L 1491.00 2469.00 L 1472.00 2469.95 L 1441.00 2572.00 Z" stroke-width="1" id="274-28-05" stroke="black"/>
  <path fill="none" d="M 1631.00 2581.00 L 1651.00 2580.00 L 1671.00 2560.00 L 1691.00 2560.00 L 1711.00 2600.00 L 1731.00 2580.00 L 1751.00 2580.00 L 1771.00 2560.00 L 1791.00 2560.00 L 1811.00 2559.00 L 1854.28 2559.00 L 1845.00 2496.00 L 1879.18 2467.00 L 1851.00 2467.00 L 1831.00 2468.00 L 1684.00 2468.00 L 1618.00 2568.00 Z" stroke-width="1" id="274-28-06" stroke="black"/>
  <path fill="none" d="M 350.63 2568.02 L 345.00 2614.00 L 331.00 2637.00 L 349.00 2649.00 L 346.08 2681.08 L 351.00 2686.00 L 371.00 2686.00 L 391.00 2666.00 L 411.00 2665.00 L 431.00 2645.00 L 431.00 2608.00 L 411.00 2568.00 L 351.00 2568.00 Z" stroke-width="1" id="274-29-01" stroke="black"/>
  <path fill="none" d="M 511.00 2645.00 L 531.00 2644.00 L 631.00 2644.00 L 651.00 2643.00 L 671.00 2643.00 L 691.00 2683.00 L 711.00 2683.00 L 731.00 2663.00 L 751.00 2663.00 L 771.00 2642.00 L 795.00 2566.00 L 671.00 2566.00 L 651.00 2567.00 L 511.00 2567.00 L 491.00 2568.00 L 451.00 2568.00 L 431.00 2608.00 L 431.00 2645.00 Z" stroke-width="1" id="274-29-02" stroke="black"/>
  <path fill="none" d="M 871.00 2642.00 L 891.00 2641.00 L 962.00 2641.00 L 987.00 2564.20 L 971.00 2565.00 L 911.00 2565.00 L 891.00 2585.00 L 851.00 2585.00 L 831.00 2565.00 L 811.00 2566.00 L 795.00 2566.00 L 771.00 2642.00 Z" stroke-width="1" id="274-29-03" stroke="black"/>
  <path fill="none" d="M 991.00 2641.00 L 1011.00 2640.00 L 1067.00 2640.00 L 1081.00 2564.00 L 991.00 2564.00 L 987.00 2564.20 L 962.00 2641.00 Z" stroke-width="1" id="274-29-04" stroke="black"/>
  <path fill="none" d="M 1111.00 2640.00 L 1131.00 2639.00 L 1151.00 2659.00 L 1152.00 2660.00 L 1228.00 2563.00 L 1171.00 2563.00 L 1151.00 2564.00 L 1131.00 2584.00 L 1111.00 2584.00 L 1091.00 2564.00 L 1081.00 2564.00 L 1067.00 2640.00 Z" stroke-width="1" id="274-29-05" stroke="black"/>
  <path fill="none" d="M 1171.00 2679.00 L 1191.00 2659.00 L 1211.00 2639.00 L 1231.00 2639.00 L 1251.00 2638.00 L 1351.00 2638.00 L 1371.00 2637.00 L 1471.00 2637.00 L 1491.00 2636.00 L 1591.00 2636.00 L 1611.00 2675.00 L 1631.00 2655.00 L 1651.00 2635.00 L 1659.00 2635.00 L 1685.00 2560.00 L 1671.00 2560.00 L 1651.00 2580.00 L 1631.00 2581.00 L 1611.00 2561.00 L 1511.00 2561.00 L 1491.00 2581.00 L 1471.00 2602.00 L 1451.00 2582.00 L 1431.00 2562.00 L 1331.00 2562.00 L 1311.00 2583.00 L 1291.00 2583.00 L 1271.00 2603.00 L 1251.00 2583.00 L 1231.00 2563.00 L 1228.00 2563.00 L 1152.00 2660.00 Z" stroke-width="1" id="274-29-06" stroke="black"/>
  <path fill="none" d="M 1711.00 2635.00 L 1731.00 2634.00 L 1831.00 2634.00 L 1846.94 2633.20 L 1864.00 2625.00 L 1854.28 2559.00 L 1811.00 2559.00 L 1791.00 2560.00 L 1771.00 2560.00 L 1751.00 2580.00 L 1731.00 2580.00 L 1711.00 2600.00 L 1691.00 2560.00 L 1685.00 2560.00 L 1659.00 2635.00 Z" stroke-width="1" id="274-29-07" stroke="black"/>
  <path fill="none" d="M 346.08 2681.08 L 346.00 2682.00 L 328.00 2721.00 L 333.00 2754.00 L 333.95 2755.00 L 351.00 2755.00 L 371.00 2735.00 L 391.00 2734.00 L 469.00 2734.00 L 493.00 2645.00 L 431.00 2645.00 L 411.00 2665.00 L 391.00 2666.00 L 371.00 2686.00 L 351.00 2686.00 Z" stroke-width="1" id="274-30-01" stroke="black"/>
  <path fill="none" d="M 491.00 2734.00 L 511.00 2753.00 L 531.00 2753.00 L 551.00 2733.00 L 556.00 2733.00 L 597.00 2644.00 L 531.00 2644.00 L 511.00 2645.00 L 493.00 2645.00 L 469.00 2734.00 Z" stroke-width="1" id="274-30-02" stroke="black"/>
  <path fill="none" d="M 591.00 2733.00 L 611.00 2732.00 L 666.00 2732.00 L 665.00 2643.00 L 651.00 2643.00 L 631.00 2644.00 L 597.00 2644.00 L 556.00 2733.00 Z" stroke-width="1" id="274-30-03" stroke="black"/>
  <path fill="none" d="M 711.00 2732.00 L 731.00 2731.00 L 746.00 2731.00 L 752.00 2661.95 L 751.00 2663.00 L 731.00 2663.00 L 711.00 2683.00 L 691.00 2683.00 L 671.00 2643.00 L 665.00 2643.00 L 666.00 2732.00 Z" stroke-width="1" id="274-30-04" stroke="black"/>
  <path fill="none" d="M 771.00 2731.00 L 791.00 2751.00 L 811.00 2751.00 L 831.00 2730.00 L 842.00 2730.00 L 897.00 2641.00 L 891.00 2641.00 L 871.00 2642.00 L 771.00 2642.00 L 752.00 2661.95 L 746.00 2731.00 Z" stroke-width="1" id="274-30-05" stroke="black"/>
  <path fill="none" d="M 931.00 2730.00 L 951.00 2729.00 L 1031.00 2729.00 L 1051.00 2728.00 L 1079.00 2728.00 L 1113.00 2639.90 L 1111.00 2640.00 L 1011.00 2640.00 L 991.00 2641.00 L 897.00 2641.00 L 842.00 2730.00 Z" stroke-width="1" id="274-30-06" stroke="black"/>
  <path fill="none" d="M 1091.00 2728.00 L 1111.00 2748.00 L 1131.00 2748.00 L 1151.00 2728.00 L 1171.00 2727.00 L 1172.00 2727.00 L 1239.00 2638.60 L 1231.00 2639.00 L 1211.00 2639.00 L 1191.00 2659.00 L 1171.00 2679.00 L 1151.00 2659.00 L 1131.00 2639.00 L 1113.00 2639.90 L 1079.00 2728.00 Z" stroke-width="1" id="274-30-07" stroke="black"/>
  <path fill="none" d="M 1251.00 2727.00 L 1271.00 2726.00 L 1291.00 2726.00 L 1304.00 2739.00 L 1354.00 2637.85 L 1351.00 2638.00 L 1251.00 2638.00 L 1239.00 2638.60 L 1172.00 2727.00 Z" stroke-width="1" id="274-30-08" stroke="black"/>
  <path fill="none" d="M 1311.00 2746.00 L 1331.00 2746.00 L 1351.00 2726.00 L 1371.00 2726.00 L 1391.00 2725.00 L 1411.00 2725.00 L 1431.00 2745.00 L 1451.00 2745.00 L 1471.00 2725.00 L 1491.00 2724.00 L 1591.00 2724.00 L 1611.00 2723.00 L 1691.00 2723.00 L 1697.00 2722.70 L 1745.00 2634.00 L 1731.00 2634.00 L 1711.00 2635.00 L 1651.00 2635.00 L 1631.00 2655.00 L 1611.00 2675.00 L 1591.00 2636.00 L 1491.00 2636.00 L 1471.00 2637.00 L 1371.00 2637.00 L 1354.00 2637.85 L 1304.00 2739.00 Z" stroke-width="1" id="274-30-09" stroke="black"/>
  <path fill="none" d="M 1711.00 2722.00 L 1731.00 2742.00 L 1751.00 2742.00 L 1771.00 2722.00 L 1807.56 2722.00 L 1812.00 2650.00 L 1846.94 2633.20 L 1831.00 2634.00 L 1745.00 2634.00 L 1697.00 2722.70 Z" stroke-width="1" id="274-30-10" stroke="black"/>
  <path fill="none" d="M 333.95 2755.00 L 351.00 2773.00 L 330.00 2808.00 L 349.00 2818.00 L 349.44 2829.00 L 371.00 2829.00 L 391.00 2828.00 L 450.00 2828.00 L 464.00 2734.00 L 391.00 2734.00 L 371.00 2735.00 L 351.00 2755.00 Z" stroke-width="1" id="274-31-01" stroke="black"/>
  <path fill="none" d="M 491.00 2828.00 L 511.00 2827.00 L 571.00 2827.00 L 591.00 2847.00 L 611.00 2846.00 L 631.00 2846.00 L 651.00 2826.00 L 711.00 2826.00 L 731.00 2825.00 L 750.00 2825.00 L 784.00 2744.00 L 771.00 2731.00 L 731.00 2731.00 L 711.00 2732.00 L 611.00 2732.00 L 591.00 2733.00 L 551.00 2733.00 L 531.00 2753.00 L 511.00 2753.00 L 491.00 2734.00 L 464.00 2734.00 L 450.00 2828.00 Z" stroke-width="1" id="274-31-02" stroke="black"/>
  <path fill="none" d="M 811.00 2825.00 L 831.00 2824.00 L 931.00 2824.00 L 951.00 2823.00 L 1031.00 2823.00 L 1051.00 2822.00 L 1058.00 2822.00 L 1111.00 2748.00 L 1091.00 2728.00 L 1051.00 2728.00 L 1031.00 2729.00 L 951.00 2729.00 L 931.00 2730.00 L 831.00 2730.00 L 811.00 2751.00 L 791.00 2751.00 L 784.00 2744.00 L 750.00 2825.00 Z" stroke-width="1" id="274-31-03" stroke="black"/>
  <path fill="none" d="M 1091.00 2822.00 L 1111.00 2842.00 L 1131.00 2842.00 L 1151.00 2821.00 L 1171.00 2841.00 L 1191.00 2821.00 L 1211.00 2841.00 L 1251.00 2841.00 L 1271.00 2820.00 L 1324.00 2820.00 L 1327.00 2746.00 L 1311.00 2746.00 L 1291.00 2726.00 L 1271.00 2726.00 L 1251.00 2727.00 L 1171.00 2727.00 L 1151.00 2728.00 L 1131.00 2748.00 L 1111.00 2748.00 L 1058.00 2822.00 Z" stroke-width="1" id="274-31-04" stroke="black"/>
  <path fill="none" d="M 1351.00 2820.00 L 1371.00 2832.00 L 1377.00 2832.00 L 1431.00 2745.00 L 1411.00 2725.00 L 1391.00 2725.00 L 1371.00 2726.00 L 1351.00 2726.00 L 1331.00 2746.00 L 1327.00 2746.00 L 1324.00 2820.00 Z" stroke-width="1" id="274-31-05" stroke="black"/>
  <path fill="none" d="M 1391.00 2832.00 L 1411.00 2830.00 L 1431.00 2830.00 L 1451.00 2826.00 L 1471.00 2822.00 L 1491.00 2824.00 L 1511.00 2820.00 L 1531.00 2818.00 L 1536.00 2823.00 L 1610.00 2723.05 L 1591.00 2724.00 L 1491.00 2724.00 L 1471.00 2725.00 L 1451.00 2745.00 L 1431.00 2745.00 L 1377.00 2832.00 Z" stroke-width="1" id="274-31-06" stroke="black"/>
  <path fill="none" d="M 1551.00 2838.00 L 1571.00 2818.00 L 1591.00 2817.00 L 1672.00 2817.00 L 1720.00 2731.00 L 1711.00 2722.00 L 1691.00 2723.00 L 1611.00 2723.00 L 1610.00 2723.05 L 1536.00 2823.00 Z" stroke-width="1" id="274-31-07" stroke="black"/>
  <path fill="none" d="M 1691.00 2817.00 L 1711.00 2816.00 L 1791.00 2816.00 L 1811.00 2815.00 L 1891.00 2815.00 L 1903.03 2814.40 L 1909.00 2809.00 L 1971.00 2811.00 L 1968.00 2752.00 L 1807.00 2731.00 L 1807.56 2722.00 L 1771.00 2722.00 L 1751.00 2742.00 L 1731.00 2742.00 L 1720.00 2731.00 L 1672.00 2817.00 Z" stroke-width="1" id="274-31-08" stroke="black"/>
  <path fill="none" d="M 349.44 2829.00 L 351.00 2868.00 L 328.00 2892.00 L 344.33 2906.00 L 371.00 2906.00 L 391.00 2905.00 L 471.00 2905.00 L 491.00 2904.00 L 551.00 2904.00 L 571.00 2924.00 L 591.00 2903.00 L 597.00 2915.00 L 631.00 2846.00 L 611.00 2846.00 L 591.00 2847.00 L 571.00 2827.00 L 511.00 2827.00 L 491.00 2828.00 L 391.00 2828.00 L 371.00 2829.00 Z" stroke-width="1" id="274-32-01" stroke="black"/>
  <path fill="none" d="M 611.00 2943.00 L 631.00 2943.00 L 651.00 2923.00 L 671.00 2903.00 L 691.00 2902.00 L 771.00 2902.00 L 789.00 2901.10 L 801.00 2825.00 L 731.00 2825.00 L 711.00 2826.00 L 651.00 2826.00 L 631.00 2846.00 L 597.00 2915.00 Z" stroke-width="1" id="274-32-02" stroke="black"/>
  <path fill="none" d="M 791.00 2901.00 L 871.00 2901.00 L 891.00 2900.00 L 932.00 2900.00 L 932.00 2823.95 L 931.00 2824.00 L 831.00 2824.00 L 811.00 2825.00 L 801.00 2825.00 L 789.00 2901.10 Z" stroke-width="1" id="274-32-03" stroke="black"/>
  <path fill="none" d="M 971.00 2900.00 L 991.00 2899.00 L 1009.00 2899.00 L 1059.00 2822.00 L 1051.00 2822.00 L 1031.00 2823.00 L 951.00 2823.00 L 932.00 2823.95 L 932.00 2900.00 Z" stroke-width="1" id="274-32-04" stroke="black"/>
  <path fill="none" d="M 1071.00 2899.00 L 1091.00 2918.00 L 1171.00 2918.00 L 1191.00 2897.00 L 1211.00 2897.00 L 1231.00 2937.00 L 1251.00 2937.00 L 1271.00 2917.00 L 1291.00 2896.00 L 1314.00 2896.00 L 1347.00 2820.00 L 1271.00 2820.00 L 1251.00 2841.00 L 1211.00 2841.00 L 1191.00 2821.00 L 1171.00 2841.00 L 1151.00 2821.00 L 1131.00 2842.00 L 1111.00 2842.00 L 1091.00 2822.00 L 1059.00 2822.00 L 1009.00 2899.00 Z" stroke-width="1" id="274-32-05" stroke="black"/>
  <path fill="none" d="M 1371.00 2896.00 L 1391.00 2895.00 L 1471.00 2895.00 L 1485.00 2908.30 L 1551.00 2838.00 L 1531.00 2818.00 L 1511.00 2820.00 L 1491.00 2824.00 L 1471.00 2822.00 L 1451.00 2826.00 L 1431.00 2830.00 L 1411.00 2830.00 L 1391.00 2832.00 L 1371.00 2832.00 L 1351.00 2820.00 L 1347.00 2820.00 L 1314.00 2896.00 Z" stroke-width="1" id="274-32-06" stroke="black"/>
  <path fill="none" d="M 1491.00 2914.00 L 1531.00 2914.00 L 1551.00 2894.00 L 1571.00 2894.00 L 1591.00 2893.00 L 1671.00 2893.00 L 1691.00 2892.00 L 1712.00 2892.00 L 1720.00 2816.00 L 1711.00 2816.00 L 1691.00 2817.00 L 1591.00 2817.00 L 1571.00 2818.00 L 1551.00 2838.00 L 1485.00 2908.30 Z" stroke-width="1" id="274-32-07" stroke="black"/>
  <path fill="none" d="M 1771.00 2892.00 L 1791.00 2891.00 L 1871.00 2891.00 L 1877.80 2890.66 L 1867.00 2847.00 L 1903.03 2814.40 L 1891.00 2815.00 L 1811.00 2815.00 L 1791.00 2816.00 L 1720.00 2816.00 L 1712.00 2892.00 Z" stroke-width="1" id="274-32-08" stroke="black"/>
  <path fill="none" d="M 344.33 2906.00 L 349.00 2910.00 L 346.00 2934.00 L 327.00 2967.00 L 351.00 2988.00 L 350.94 2989.00 L 371.00 2989.00 L 391.00 2988.00 L 491.00 2988.00 L 511.00 2987.00 L 525.00 2987.00 L 532.00 2904.00 L 491.00 2904.00 L 471.00 2905.00 L 391.00 2905.00 L 371.00 2906.00 Z" stroke-width="1" id="274-33-01" stroke="black"/>
  <path fill="none" d="M 691.00 2986.00 L 711.00 2985.00 L 747.00 2985.00 L 793.00 2901.00 L 791.00 2901.00 L 771.00 2902.00 L 691.00 2902.00 L 671.00 2903.00 L 651.00 2923.00 L 631.00 2943.00 L 626.00 2986.00 Z" stroke-width="1" id="274-33-02" stroke="black"/>
  <path fill="none" d="M 811.00 2985.00 L 831.00 2984.00 L 911.00 2984.00 L 931.00 2983.00 L 1011.00 2983.00 L 1031.00 2982.00 L 1131.00 2982.00 L 1151.00 2981.00 L 1171.00 3001.00 L 1191.00 3001.00 L 1211.00 2981.00 L 1222.00 2981.00 L 1236.00 2937.00 L 1231.00 2937.00 L 1211.00 2897.00 L 1191.00 2897.00 L 1171.00 2918.00 L 1091.00 2918.00 L 1071.00 2899.00 L 991.00 2899.00 L 971.00 2900.00 L 891.00 2900.00 L 871.00 2901.00 L 793.00 2901.00 L 747.00 2985.00 Z" stroke-width="1" id="274-33-03" stroke="black"/>
  <path fill="none" d="M 1231.00 2981.00 L 1251.00 2980.00 L 1351.00 2980.00 L 1371.00 2979.00 L 1427.00 2979.00 L 1477.00 2900.70 L 1471.00 2895.00 L 1391.00 2895.00 L 1371.00 2896.00 L 1291.00 2896.00 L 1271.00 2917.00 L 1251.00 2937.00 L 1236.00 2937.00 L 1222.00 2981.00 Z" stroke-width="1" id="274-33-04" stroke="black"/>
  <path fill="none" d="M 1451.00 2979.00 L 1471.00 2978.00 L 1551.00 2978.00 L 1559.00 2977.60 L 1610.00 2893.00 L 1591.00 2893.00 L 1571.00 2894.00 L 1551.00 2894.00 L 1531.00 2914.00 L 1491.00 2914.00 L 1477.00 2900.70 L 1427.00 2979.00 Z" stroke-width="1" id="274-33-05" stroke="black"/>
  <path fill="none" d="M 1571.00 2977.00 L 1671.00 2977.00 L 1691.00 2976.00 L 1711.00 2976.00 L 1731.00 2996.00 L 1751.00 2976.00 L 1771.00 2976.00 L 1791.00 2995.00 L 1811.00 2975.00 L 1816.00 2975.00 L 1821.00 2891.00 L 1791.00 2891.00 L 1771.00 2892.00 L 1691.00 2892.00 L 1671.00 2893.00 L 1610.00 2893.00 L 1559.00 2977.60 Z" stroke-width="1" id="274-33-06" stroke="black"/>
  <path fill="none" d="M 1871.00 2975.00 L 1877.00 2974.70 L 1891.00 2944.00 L 1877.80 2890.66 L 1871.00 2891.00 L 1821.00 2891.00 L 1816.00 2975.00 Z" stroke-width="1" id="274-33-07" stroke="black"/>
  <path fill="none" d="M 350.94 2989.00 L 348.00 3040.00 L 334.00 3069.00 L 352.00 3081.00 L 351.92 3082.00 L 391.00 3082.00 L 397.00 3081.70 L 430.00 2988.00 L 391.00 2988.00 L 371.00 2989.00 Z" stroke-width="1" id="274-34-01" stroke="black"/>
  <path fill="none" d="M 411.00 3081.00 L 511.00 3081.00 L 521.00 3080.50 L 536.00 2987.00 L 511.00 2987.00 L 491.00 2988.00 L 430.00 2988.00 L 397.00 3081.70 Z" stroke-width="1" id="274-34-02" stroke="black"/>
  <path fill="none" d="M 531.00 3080.00 L 631.00 3080.00 L 651.00 3079.00 L 691.00 3079.00 L 701.00 3089.00 L 752.00 2985.00 L 711.00 2985.00 L 691.00 2986.00 L 611.00 2986.00 L 591.00 2987.00 L 536.00 2987.00 L 521.00 3080.50 Z" stroke-width="1" id="274-34-03" stroke="black"/>
  <path fill="none" d="M 711.00 3099.00 L 731.00 3099.00 L 751.00 3079.00 L 771.00 3078.00 L 871.00 3078.00 L 891.00 3077.00 L 921.00 3077.00 L 916.00 2983.75 L 911.00 2984.00 L 831.00 2984.00 L 811.00 2985.00 L 752.00 2985.00 L 701.00 3089.00 Z" stroke-width="1" id="274-34-04" stroke="black"/>
  <path fill="none" d="M 971.00 3077.00 L 991.00 3076.00 L 1011.00 3076.00 L 1031.00 3096.00 L 1034.00 3096.00 L 1104.00 2982.00 L 1031.00 2982.00 L 1011.00 2983.00 L 931.00 2983.00 L 916.00 2983.75 L 921.00 3077.00 Z" stroke-width="1" id="274-34-05" stroke="black"/>
  <path fill="none" d="M 1071.00 3096.00 L 1091.00 3076.00 L 1111.00 3075.00 L 1211.00 3075.00 L 1231.00 3074.00 L 1278.00 3074.00 L 1323.00 2980.00 L 1251.00 2980.00 L 1231.00 2981.00 L 1211.00 2981.00 L 1191.00 3001.00 L 1171.00 3001.00 L 1151.00 2981.00 L 1131.00 2982.00 L 1104.00 2982.00 L 1034.00 3096.00 Z" stroke-width="1" id="274-34-06" stroke="black"/>
  <path fill="none" d="M 1331.00 3074.00 L 1351.00 3073.00 L 1451.00 3073.00 L 1471.00 3072.00 L 1478.00 3072.00 L 1507.00 2978.00 L 1471.00 2978.00 L 1451.00 2979.00 L 1371.00 2979.00 L 1351.00 2980.00 L 1323.00 2980.00 L 1278.00 3074.00 Z" stroke-width="1" id="274-34-07" stroke="black"/>
  <path fill="none" d="M 1551.00 3072.00 L 1571.00 3098.00 L 1591.00 3090.00 L 1611.00 3076.00 L 1631.00 3080.00 L 1651.00 3071.00 L 1671.00 3071.00 L 1691.00 3070.00 L 1791.00 3070.00 L 1811.00 3069.00 L 1871.25 3069.00 L 1854.00 3057.00 L 1860.00 3012.00 L 1877.00 2974.70 L 1871.00 2975.00 L 1811.00 2975.00 L 1791.00 2995.00 L 1771.00 2976.00 L 1751.00 2976.00 L 1731.00 2996.00 L 1711.00 2976.00 L 1691.00 2976.00 L 1671.00 2977.00 L 1571.00 2977.00 L 1551.00 2978.00 L 1507.00 2978.00 L 1478.00 3072.00 Z" stroke-width="1" id="274-34-08" stroke="black"/>
  <path fill="none" d="M 351.92 3082.00 L 349.00 3120.00 L 345.00 3148.00 L 413.71 3165.86 L 431.00 3165.00 L 438.24 3172.24 L 445.00 3174.00 L 462.72 3173.28 L 471.00 3165.00 L 531.00 3165.00 L 536.29 3170.29 L 566.17 3169.07 L 571.00 3164.00 L 591.00 3164.00 L 580.00 3080.00 L 531.00 3080.00 L 511.00 3081.00 L 411.00 3081.00 L 391.00 3082.00 Z" stroke-width="1" id="274-35-01" stroke="black"/>
  <path fill="none" d="M 624.15 3164.00 L 694.15 3157.77 L 714.00 3099.00 L 711.00 3099.00 L 691.00 3079.00 L 651.00 3079.00 L 631.00 3080.00 L 580.00 3080.00 L 591.00 3164.00 Z" stroke-width="1" id="274-35-02" stroke="black"/>
  <path fill="none" d="M 714.00 3156.00 L 844.00 3159.96 L 875.00 3077.80 L 871.00 3078.00 L 771.00 3078.00 L 751.00 3079.00 L 731.00 3099.00 L 714.00 3099.00 L 694.15 3157.77 Z" stroke-width="1" id="274-35-03" stroke="black"/>
  <path fill="none" d="M 911.00 3162.00 L 931.00 3162.00 L 951.00 3161.00 L 1071.00 3161.00 L 1073.00 3160.90 L 1112.00 3075.00 L 1111.00 3075.00 L 1091.00 3076.00 L 1071.00 3096.00 L 1031.00 3096.00 L 1011.00 3076.00 L 991.00 3076.00 L 971.00 3077.00 L 891.00 3077.00 L 875.00 3077.80 L 844.00 3159.96 Z" stroke-width="1" id="274-35-04" stroke="black"/>
  <path fill="none" d="M 1091.00 3160.00 L 1098.72 3167.72 L 1108.00 3168.00 L 1123.23 3167.77 L 1131.00 3160.00 L 1177.00 3160.00 L 1217.00 3074.70 L 1211.00 3075.00 L 1112.00 3075.00 L 1073.00 3160.90 Z" stroke-width="1" id="274-35-05" stroke="black"/>
  <path fill="none" d="M 1191.00 3160.00 L 1211.00 3159.00 L 1311.00 3159.00 L 1331.00 3158.00 L 1451.00 3158.00 L 1471.00 3157.00 L 1571.00 3157.00 L 1582.00 3156.45 L 1572.00 3097.60 L 1571.00 3098.00 L 1551.00 3072.00 L 1471.00 3072.00 L 1451.00 3073.00 L 1351.00 3073.00 L 1331.00 3074.00 L 1231.00 3074.00 L 1217.00 3074.70 L 1177.00 3160.00 Z" stroke-width="1" id="274-35-06" stroke="black"/>
  <path fill="none" d="M 1591.00 3156.00 L 1631.00 3156.00 L 1643.21 3168.21 L 1671.71 3184.68 L 1691.00 3176.00 L 1711.00 3176.00 L 1731.00 3155.00 L 1831.00 3155.00 L 1851.00 3154.00 L 1910.61 3154.00 L 1918.00 3153.00 L 1923.00 3105.00 L 1871.25 3069.00 L 1811.00 3069.00 L 1791.00 3070.00 L 1691.00 3070.00 L 1671.00 3071.00 L 1651.00 3071.00 L 1631.00 3080.00 L 1611.00 3076.00 L 1591.00 3090.00 L 1572.00 3097.60 L 1582.00 3156.45 Z" stroke-width="1" id="274-35-07" stroke="black"/>
</svg>
