<?xml version="1.0" encoding="UTF-8"?>
<svg xmlns:xlink="http://www.w3.org/1999/xlink" xmlns="http://www.w3.org/2000/svg" contentScriptType="text/ecmascript" width="2053px" zoomAndPan="magnify" contentStyleType="text/css" viewBox="0 0 2053 3329" height="3329px" preserveAspectRatio="xMidYMid meet" version="1.0">
  <path fill="none" d="M 214.00 207.00 L 228.67 229.00 L 233.00 229.00 L 253.00 230.00 L 313.00 230.00 L 333.00 231.00 L 393.00 231.00 L 413.00 232.00 L 433.00 252.00 L 453.00 252.00 L 473.00 232.00 L 476.00 232.15 L 487.00 151.00 L 453.00 151.00 L 433.00 150.00 L 373.00 150.00 L 353.00 149.00 L 333.00 149.00 L 313.92 138.50 L 312.19 138.41 L 293.00 148.00 L 290.28 148.00 L 252.00 174.00 Z" stroke-width="1" id="275-01-01" stroke="black"/>
  <path fill="none" d="M 493.00 233.00 L 553.00 233.00 L 573.00 234.00 L 653.00 234.00 L 673.00 235.00 L 730.00 235.00 L 770.00 155.00 L 733.00 155.00 L 729.36 154.82 L 641.00 157.00 L 552.58 152.00 L 513.00 152.00 L 493.00 151.00 L 487.00 151.00 L 476.00 232.15 Z" stroke-width="1" id="275-01-02" stroke="black"/>
  <path fill="none" d="M 733.00 235.00 L 753.00 236.00 L 813.00 236.00 L 833.00 237.00 L 893.00 237.00 L 913.00 238.00 L 934.00 238.00 L 960.00 158.00 L 953.00 158.00 L 933.00 157.00 L 873.00 157.00 L 853.00 156.00 L 793.00 156.00 L 773.00 155.00 L 770.00 155.00 L 730.00 235.00 Z" stroke-width="1" id="275-01-03" stroke="black"/>
  <path fill="none" d="M 973.00 238.00 L 993.00 239.00 L 1073.00 239.00 L 1093.00 240.00 L 1153.00 240.00 L 1173.00 241.00 L 1233.00 241.00 L 1253.00 242.00 L 1313.00 242.00 L 1333.00 243.00 L 1393.00 243.00 L 1413.00 244.00 L 1473.00 244.00 L 1493.00 245.00 L 1501.00 245.00 L 1502.00 165.85 L 1465.12 165.00 L 1433.00 165.00 L 1413.00 164.00 L 1373.00 164.00 L 1353.00 163.00 L 1293.00 163.00 L 1273.00 162.00 L 1233.00 162.00 L 1213.00 161.00 L 1153.00 161.00 L 1133.00 160.00 L 1093.00 160.00 L 1073.00 159.00 L 1061.82 147.82 L 1046.00 147.00 L 1044.97 147.03 L 1033.00 159.00 L 1013.00 159.00 L 993.00 158.00 L 960.00 158.00 L 934.00 238.00 Z" stroke-width="1" id="275-01-04" stroke="black"/>
  <path fill="none" d="M 1573.00 245.00 L 1593.00 246.00 L 1653.00 246.00 L 1673.00 247.00 L 1733.00 247.00 L 1735.00 247.10 L 1744.00 175.17 L 1682.00 170.00 L 1502.00 165.85 L 1501.00 245.00 Z" stroke-width="1" id="275-01-05" stroke="black"/>
  <path fill="none" d="M 1753.00 248.00 L 1813.00 248.00 L 1833.00 249.00 L 1869.00 249.00 L 1871.00 185.75 L 1744.00 175.17 L 1735.00 247.10 Z" stroke-width="1" id="275-01-06" stroke="black"/>
  <path fill="none" d="M 1893.00 249.00 L 1913.00 250.00 L 1963.32 250.00 L 1969.00 234.00 L 1970.00 194.00 L 1871.00 185.75 L 1869.00 249.00 Z" stroke-width="1" id="275-01-07" stroke="black"/>
  <path fill="none" d="M 235.09 344.16 L 237.00 369.00 L 214.00 390.00 L 235.00 400.00 L 235.59 415.00 L 313.00 415.00 L 333.00 416.00 L 361.00 416.00 L 391.00 322.80 L 373.00 321.00 L 333.00 321.00 L 313.00 329.00 L 293.00 329.00 L 273.00 337.00 L 253.00 337.00 Z" stroke-width="1" id="275-03-01" stroke="black"/>
  <path fill="none" d="M 442.00 416.00 L 473.00 339.00 L 453.00 339.00 L 433.00 333.00 L 413.00 327.00 L 393.00 323.00 L 391.00 322.80 L 361.00 416.00 Z" stroke-width="1" id="275-03-02" stroke="black"/>
  <path fill="none" d="M 493.00 416.00 L 494.00 418.05 L 552.00 343.00 L 533.00 343.00 L 513.00 339.00 L 473.00 339.00 L 442.00 416.00 Z" stroke-width="1" id="275-03-03" stroke="black"/>
  <path fill="none" d="M 513.00 457.00 L 533.00 437.00 L 553.00 417.00 L 570.00 434.00 L 585.00 343.00 L 552.00 343.00 L 494.00 418.05 Z" stroke-width="1" id="275-03-04" stroke="black"/>
  <path fill="none" d="M 573.00 437.00 L 593.00 437.00 L 613.00 417.00 L 634.00 417.00 L 642.00 343.90 L 633.00 343.00 L 585.00 343.00 L 570.00 434.00 Z" stroke-width="1" id="275-03-05" stroke="black"/>
  <path fill="none" d="M 653.00 417.00 L 673.00 418.00 L 709.00 418.00 L 717.00 345.00 L 653.00 345.00 L 642.00 343.90 L 634.00 417.00 Z" stroke-width="1" id="275-03-06" stroke="black"/>
  <path fill="none" d="M 833.00 418.00 L 853.00 419.00 L 895.00 419.00 L 926.00 347.00 L 893.00 347.00 L 873.00 345.00 L 853.00 345.00 L 833.00 343.00 L 813.00 343.00 L 793.00 347.00 L 773.00 347.00 L 753.00 345.00 L 717.00 345.00 L 709.00 418.00 Z" stroke-width="1" id="275-03-07" stroke="black"/>
  <path fill="none" d="M 993.00 419.00 L 1013.00 420.00 L 1173.00 420.00 L 1193.00 421.00 L 1333.00 421.00 L 1353.00 422.00 L 1373.00 422.00 L 1386.00 435.00 L 1429.00 349.00 L 1413.00 349.00 L 1393.00 347.00 L 1373.00 347.00 L 1353.00 345.00 L 1333.00 341.00 L 1313.00 339.00 L 1293.00 339.00 L 1273.00 337.00 L 1253.00 337.00 L 1233.00 335.00 L 1193.00 335.00 L 1173.00 339.00 L 1033.00 339.00 L 1013.00 343.00 L 973.00 343.00 L 953.00 347.00 L 926.00 347.00 L 895.00 419.00 Z" stroke-width="1" id="275-03-08" stroke="black"/>
  <path fill="none" d="M 1393.00 442.00 L 1413.00 462.00 L 1433.00 462.00 L 1453.00 442.00 L 1473.00 422.00 L 1513.00 422.00 L 1533.00 423.00 L 1595.00 423.00 L 1616.00 371.00 L 1593.00 371.00 L 1573.00 369.00 L 1553.00 365.00 L 1533.00 355.00 L 1513.00 353.00 L 1493.00 351.00 L 1453.00 351.00 L 1433.00 349.00 L 1429.00 349.00 L 1386.00 435.00 Z" stroke-width="1" id="275-03-09" stroke="black"/>
  <path fill="none" d="M 1673.00 423.00 L 1693.00 424.00 L 1723.00 424.00 L 1734.00 371.00 L 1616.00 371.00 L 1595.00 423.00 Z" stroke-width="1" id="275-03-10" stroke="black"/>
  <path fill="none" d="M 1802.00 424.00 L 1821.00 371.00 L 1813.00 371.00 L 1793.00 361.00 L 1773.00 367.00 L 1753.00 371.00 L 1734.00 371.00 L 1723.00 424.00 Z" stroke-width="1" id="275-03-11" stroke="black"/>
  <path fill="none" d="M 1853.00 424.00 L 1873.00 425.00 L 1929.03 425.00 L 1920.00 372.00 L 1922.45 365.11 L 1913.00 367.00 L 1853.00 367.00 L 1833.00 371.00 L 1821.00 371.00 L 1802.00 424.00 Z" stroke-width="1" id="275-03-12" stroke="black"/>
  <path fill="none" d="M 235.59 415.00 L 237.00 451.00 L 219.00 475.00 L 237.00 498.00 L 237.42 502.22 L 253.00 503.00 L 333.00 503.00 L 353.00 504.00 L 374.00 504.00 L 418.00 416.00 L 333.00 416.00 L 313.00 415.00 Z" stroke-width="1" id="275-04-01" stroke="black"/>
  <path fill="none" d="M 433.00 504.00 L 453.00 505.00 L 523.00 505.00 L 517.00 453.00 L 513.00 457.00 L 493.00 416.00 L 418.00 416.00 L 374.00 504.00 Z" stroke-width="1" id="275-04-02" stroke="black"/>
  <path fill="none" d="M 533.00 505.00 L 553.00 506.00 L 633.00 506.00 L 653.00 507.00 L 713.00 507.00 L 726.00 507.65 L 750.00 418.00 L 673.00 418.00 L 653.00 417.00 L 613.00 417.00 L 593.00 437.00 L 573.00 437.00 L 553.00 417.00 L 533.00 437.00 L 517.00 453.00 L 523.00 505.00 Z" stroke-width="1" id="275-04-03" stroke="black"/>
  <path fill="none" d="M 733.00 508.00 L 753.00 528.00 L 773.00 528.00 L 793.00 508.00 L 800.00 508.00 L 869.00 419.00 L 853.00 419.00 L 833.00 418.00 L 750.00 418.00 L 726.00 507.65 Z" stroke-width="1" id="275-04-04" stroke="black"/>
  <path fill="none" d="M 813.00 508.00 L 833.00 509.00 L 913.00 509.00 L 933.00 510.00 L 956.00 510.00 L 985.00 419.00 L 869.00 419.00 L 800.00 508.00 Z" stroke-width="1" id="275-04-05" stroke="black"/>
  <path fill="none" d="M 1013.00 510.00 L 1033.00 531.00 L 1073.00 531.00 L 1093.00 511.00 L 1113.00 511.00 L 1133.00 512.00 L 1193.00 512.00 L 1213.00 492.00 L 1233.00 513.00 L 1275.00 513.00 L 1303.00 421.00 L 1193.00 421.00 L 1173.00 420.00 L 1013.00 420.00 L 993.00 419.00 L 985.00 419.00 L 956.00 510.00 Z" stroke-width="1" id="275-04-06" stroke="black"/>
  <path fill="none" d="M 1293.00 513.00 L 1313.00 514.00 L 1333.00 514.00 L 1353.00 534.00 L 1373.00 534.00 L 1393.00 514.00 L 1413.00 515.00 L 1493.00 515.00 L 1513.00 516.00 L 1593.00 516.00 L 1613.00 517.00 L 1635.00 517.00 L 1663.00 423.00 L 1533.00 423.00 L 1513.00 422.00 L 1473.00 422.00 L 1453.00 442.00 L 1433.00 462.00 L 1413.00 462.00 L 1393.00 442.00 L 1373.00 422.00 L 1353.00 422.00 L 1333.00 421.00 L 1303.00 421.00 L 1275.00 513.00 Z" stroke-width="1" id="275-04-07" stroke="black"/>
  <path fill="none" d="M 1693.00 517.00 L 1713.00 518.00 L 1761.00 518.00 L 1777.00 424.00 L 1693.00 424.00 L 1673.00 423.00 L 1663.00 423.00 L 1635.00 517.00 Z" stroke-width="1" id="275-04-08" stroke="black"/>
  <path fill="none" d="M 1793.00 518.00 L 1813.00 519.00 L 1873.00 519.00 L 1893.00 520.00 L 1934.41 520.00 L 1935.00 460.00 L 1929.03 425.00 L 1873.00 425.00 L 1853.00 424.00 L 1777.00 424.00 L 1761.00 518.00 Z" stroke-width="1" id="275-04-09" stroke="black"/>
  <path fill="none" d="M 237.42 502.22 L 241.00 538.00 L 220.00 562.00 L 237.00 577.00 L 237.00 597.00 L 293.00 597.00 L 313.00 598.00 L 373.00 598.00 L 393.00 599.00 L 395.00 599.00 L 456.00 505.00 L 453.00 505.00 L 433.00 504.00 L 353.00 504.00 L 333.00 503.00 L 253.00 503.00 Z" stroke-width="1" id="275-05-01" stroke="black"/>
  <path fill="none" d="M 453.00 599.00 L 473.00 600.00 L 493.00 580.00 L 496.00 583.00 L 544.00 505.55 L 533.00 505.00 L 456.00 505.00 L 395.00 599.00 Z" stroke-width="1" id="275-05-02" stroke="black"/>
  <path fill="none" d="M 513.00 600.00 L 533.00 601.00 L 593.00 601.00 L 613.00 602.00 L 653.00 602.00 L 673.00 582.00 L 693.00 583.00 L 708.00 598.00 L 740.00 515.00 L 733.00 508.00 L 713.00 507.00 L 653.00 507.00 L 633.00 506.00 L 553.00 506.00 L 544.00 505.55 L 496.00 583.00 Z" stroke-width="1" id="275-05-03" stroke="black"/>
  <path fill="none" d="M 713.00 603.00 L 753.00 603.00 L 773.00 604.00 L 813.00 604.00 L 833.00 624.00 L 853.00 605.00 L 882.00 605.00 L 939.00 510.00 L 933.00 510.00 L 913.00 509.00 L 833.00 509.00 L 813.00 508.00 L 793.00 508.00 L 773.00 528.00 L 753.00 528.00 L 740.00 515.00 L 708.00 598.00 Z" stroke-width="1" id="275-05-04" stroke="black"/>
  <path fill="none" d="M 893.00 605.00 L 913.00 606.00 L 953.00 606.00 L 973.00 626.00 L 993.00 627.00 L 1013.00 607.00 L 1053.00 607.00 L 1059.00 607.30 L 1074.00 530.00 L 1073.00 531.00 L 1033.00 531.00 L 1013.00 510.00 L 939.00 510.00 L 882.00 605.00 Z" stroke-width="1" id="275-05-05" stroke="black"/>
  <path fill="none" d="M 1073.00 608.00 L 1133.00 608.00 L 1152.00 608.95 L 1181.00 512.00 L 1133.00 512.00 L 1113.00 511.00 L 1093.00 511.00 L 1074.00 530.00 L 1059.00 607.30 Z" stroke-width="1" id="275-05-06" stroke="black"/>
  <path fill="none" d="M 1153.00 609.00 L 1193.00 609.00 L 1213.00 610.00 L 1273.00 610.00 L 1293.00 611.00 L 1339.00 520.00 L 1333.00 514.00 L 1313.00 514.00 L 1293.00 513.00 L 1233.00 513.00 L 1213.00 492.00 L 1193.00 512.00 L 1181.00 512.00 L 1152.00 608.95 Z" stroke-width="1" id="275-05-07" stroke="black"/>
  <path fill="none" d="M 1353.00 611.00 L 1373.00 612.00 L 1433.00 612.00 L 1453.00 613.00 L 1464.00 613.00 L 1523.00 516.00 L 1513.00 516.00 L 1493.00 515.00 L 1413.00 515.00 L 1393.00 514.00 L 1373.00 534.00 L 1353.00 534.00 L 1339.00 520.00 L 1293.00 611.00 Z" stroke-width="1" id="275-05-08" stroke="black"/>
  <path fill="none" d="M 1513.00 613.00 L 1533.00 614.00 L 1573.00 614.00 L 1593.00 615.00 L 1649.00 615.00 L 1699.00 517.30 L 1693.00 517.00 L 1613.00 517.00 L 1593.00 516.00 L 1523.00 516.00 L 1464.00 613.00 Z" stroke-width="1" id="275-05-09" stroke="black"/>
  <path fill="none" d="M 1653.00 615.00 L 1673.00 616.00 L 1733.00 616.00 L 1753.00 617.00 L 1813.00 617.00 L 1833.00 618.00 L 1893.00 618.00 L 1913.00 619.00 L 1948.77 619.00 L 1934.00 561.00 L 1934.41 520.00 L 1893.00 520.00 L 1873.00 519.00 L 1813.00 519.00 L 1793.00 518.00 L 1713.00 518.00 L 1699.00 517.30 L 1649.00 615.00 Z" stroke-width="1" id="275-05-10" stroke="black"/>
  <path fill="none" d="M 237.00 597.00 L 237.00 630.00 L 220.00 646.00 L 237.00 664.00 L 238.00 683.00 L 293.00 683.00 L 313.00 684.00 L 373.00 684.00 L 377.00 684.20 L 423.00 599.00 L 393.00 599.00 L 373.00 598.00 L 313.00 598.00 L 293.00 597.00 Z" stroke-width="1" id="275-06-01" stroke="black"/>
  <path fill="none" d="M 393.00 685.00 L 453.00 685.00 L 473.00 686.00 L 513.00 686.00 L 533.00 687.00 L 574.00 687.00 L 611.00 601.90 L 593.00 601.00 L 533.00 601.00 L 513.00 600.00 L 493.00 580.00 L 473.00 600.00 L 453.00 599.00 L 423.00 599.00 L 377.00 684.20 Z" stroke-width="1" id="275-06-02" stroke="black"/>
  <path fill="none" d="M 593.00 687.00 L 613.00 688.00 L 673.00 688.00 L 693.00 689.00 L 721.00 689.00 L 770.00 603.85 L 753.00 603.00 L 713.00 603.00 L 693.00 583.00 L 673.00 582.00 L 653.00 602.00 L 613.00 602.00 L 611.00 601.90 L 574.00 687.00 Z" stroke-width="1" id="275-06-03" stroke="black"/>
  <path fill="none" d="M 733.00 689.00 L 753.00 669.00 L 773.00 690.00 L 813.00 690.00 L 833.00 691.00 L 856.00 691.00 L 908.00 605.75 L 893.00 605.00 L 853.00 605.00 L 833.00 624.00 L 813.00 604.00 L 773.00 604.00 L 770.00 603.85 L 721.00 689.00 Z" stroke-width="1" id="275-06-04" stroke="black"/>
  <path fill="none" d="M 893.00 691.00 L 913.00 692.00 L 973.00 692.00 L 993.00 693.00 L 1013.00 673.00 L 1033.00 673.00 L 1053.00 693.00 L 1073.00 694.00 L 1113.00 694.00 L 1133.00 695.00 L 1193.00 695.00 L 1203.00 695.50 L 1238.00 610.00 L 1213.00 610.00 L 1193.00 609.00 L 1153.00 609.00 L 1133.00 608.00 L 1073.00 608.00 L 1053.00 607.00 L 1013.00 607.00 L 993.00 627.00 L 973.00 626.00 L 953.00 606.00 L 913.00 606.00 L 908.00 605.75 L 856.00 691.00 Z" stroke-width="1" id="275-06-05" stroke="black"/>
  <path fill="none" d="M 1213.00 696.00 L 1273.00 696.00 L 1293.00 697.00 L 1353.00 697.00 L 1375.00 612.00 L 1373.00 612.00 L 1353.00 611.00 L 1293.00 611.00 L 1273.00 610.00 L 1238.00 610.00 L 1203.00 695.50 Z" stroke-width="1" id="275-06-06" stroke="black"/>
  <path fill="none" d="M 1373.00 698.00 L 1413.00 698.00 L 1433.00 699.00 L 1458.00 699.00 L 1469.00 613.00 L 1453.00 613.00 L 1433.00 612.00 L 1375.00 612.00 L 1353.00 697.00 Z" stroke-width="1" id="275-06-07" stroke="black"/>
  <path fill="none" d="M 1493.00 699.00 L 1513.00 700.00 L 1573.00 700.00 L 1593.00 701.00 L 1653.00 701.00 L 1673.00 702.00 L 1713.00 702.00 L 1720.00 702.35 L 1768.00 617.00 L 1753.00 617.00 L 1733.00 616.00 L 1673.00 616.00 L 1653.00 615.00 L 1593.00 615.00 L 1573.00 614.00 L 1533.00 614.00 L 1513.00 613.00 L 1469.00 613.00 L 1458.00 699.00 Z" stroke-width="1" id="275-06-08" stroke="black"/>
  <path fill="none" d="M 1733.00 703.00 L 1793.00 703.00 L 1805.00 703.60 L 1833.00 618.00 L 1813.00 617.00 L 1768.00 617.00 L 1720.00 702.35 Z" stroke-width="1" id="275-06-09" stroke="black"/>
  <path fill="none" d="M 1813.00 704.00 L 1873.00 704.00 L 1881.68 704.43 L 1961.00 667.00 L 1948.77 619.00 L 1913.00 619.00 L 1893.00 618.00 L 1833.00 618.00 L 1805.00 703.60 Z" stroke-width="1" id="275-06-10" stroke="black"/>
  <path fill="none" d="M 238.00 683.00 L 240.00 721.00 L 213.00 772.00 L 237.00 780.00 L 237.67 782.57 L 253.00 768.00 L 333.00 768.00 L 353.00 769.00 L 355.00 769.00 L 375.00 684.10 L 373.00 684.00 L 313.00 684.00 L 293.00 683.00 Z" stroke-width="1" id="275-07-01" stroke="black"/>
  <path fill="none" d="M 373.00 769.00 L 393.00 749.00 L 413.00 769.00 L 433.00 770.00 L 513.00 770.00 L 531.00 770.90 L 576.00 687.00 L 533.00 687.00 L 513.00 686.00 L 473.00 686.00 L 453.00 685.00 L 393.00 685.00 L 375.00 684.10 L 355.00 769.00 Z" stroke-width="1" id="275-07-02" stroke="black"/>
  <path fill="none" d="M 533.00 771.00 L 593.00 771.00 L 613.00 772.00 L 622.00 772.00 L 672.00 688.00 L 613.00 688.00 L 593.00 687.00 L 576.00 687.00 L 531.00 770.90 Z" stroke-width="1" id="275-07-03" stroke="black"/>
  <path fill="none" d="M 693.00 772.00 L 713.00 773.00 L 773.00 773.00 L 793.00 774.00 L 843.00 774.00 L 856.00 691.00 L 833.00 691.00 L 813.00 690.00 L 773.00 690.00 L 753.00 669.00 L 733.00 689.00 L 693.00 689.00 L 673.00 688.00 L 672.00 688.00 L 622.00 772.00 Z" stroke-width="1" id="275-07-04" stroke="black"/>
  <path fill="none" d="M 873.00 774.00 L 893.00 775.00 L 913.00 755.00 L 933.00 775.00 L 964.00 775.00 L 990.00 692.85 L 973.00 692.00 L 913.00 692.00 L 893.00 691.00 L 856.00 691.00 L 843.00 774.00 Z" stroke-width="1" id="275-07-05" stroke="black"/>
  <path fill="none" d="M 973.00 775.00 L 993.00 776.00 L 1033.00 776.00 L 1053.00 796.00 L 1073.00 797.00 L 1093.00 777.00 L 1125.00 777.00 L 1157.00 695.00 L 1133.00 695.00 L 1113.00 694.00 L 1073.00 694.00 L 1053.00 693.00 L 1033.00 673.00 L 1013.00 673.00 L 993.00 693.00 L 990.00 692.85 L 964.00 775.00 Z" stroke-width="1" id="275-07-06" stroke="black"/>
  <path fill="none" d="M 1153.00 777.00 L 1173.00 778.00 L 1233.00 778.00 L 1253.00 779.00 L 1283.00 779.00 L 1308.00 697.00 L 1293.00 697.00 L 1273.00 696.00 L 1213.00 696.00 L 1193.00 695.00 L 1157.00 695.00 L 1125.00 777.00 Z" stroke-width="1" id="275-07-07" stroke="black"/>
  <path fill="none" d="M 1333.00 779.00 L 1353.00 780.00 L 1413.00 780.00 L 1416.00 780.15 L 1440.00 699.00 L 1433.00 699.00 L 1413.00 698.00 L 1373.00 698.00 L 1353.00 697.00 L 1308.00 697.00 L 1283.00 779.00 Z" stroke-width="1" id="275-07-08" stroke="black"/>
  <path fill="none" d="M 1433.00 781.00 L 1513.00 781.00 L 1533.00 782.00 L 1553.00 782.00 L 1573.00 762.00 L 1593.00 782.00 L 1613.00 782.00 L 1633.00 783.00 L 1693.00 783.00 L 1713.00 784.00 L 1793.00 784.00 L 1813.00 785.00 L 1873.00 785.00 L 1893.00 786.00 L 1933.00 786.00 L 1943.41 775.59 L 1872.00 760.00 L 1872.00 709.00 L 1881.68 704.43 L 1873.00 704.00 L 1813.00 704.00 L 1793.00 703.00 L 1733.00 703.00 L 1713.00 702.00 L 1673.00 702.00 L 1653.00 701.00 L 1593.00 701.00 L 1573.00 700.00 L 1513.00 700.00 L 1493.00 699.00 L 1440.00 699.00 L 1416.00 780.15 Z" stroke-width="1" id="275-07-09" stroke="black"/>
  <path fill="none" d="M 237.67 782.57 L 244.00 807.00 L 235.00 826.00 L 237.41 852.00 L 253.00 852.00 L 273.00 853.00 L 313.00 853.00 L 333.00 833.00 L 353.00 853.00 L 373.00 854.00 L 453.00 854.00 L 473.00 855.00 L 573.00 855.00 L 579.00 861.30 L 637.00 772.00 L 613.00 772.00 L 593.00 771.00 L 533.00 771.00 L 513.00 770.00 L 433.00 770.00 L 413.00 769.00 L 393.00 749.00 L 373.00 769.00 L 353.00 769.00 L 333.00 768.00 L 253.00 768.00 Z" stroke-width="1" id="275-08-01" stroke="black"/>
  <path fill="none" d="M 593.00 876.00 L 613.00 876.00 L 633.00 856.00 L 673.00 856.00 L 693.00 857.00 L 773.00 857.00 L 793.00 858.00 L 893.00 858.00 L 913.00 859.00 L 993.00 859.00 L 1013.00 860.00 L 1053.00 796.00 L 1033.00 776.00 L 993.00 776.00 L 973.00 775.00 L 933.00 775.00 L 913.00 755.00 L 893.00 775.00 L 873.00 774.00 L 793.00 774.00 L 773.00 773.00 L 713.00 773.00 L 693.00 772.00 L 637.00 772.00 L 579.00 861.30 Z" stroke-width="1" id="275-08-02" stroke="black"/>
  <path fill="none" d="M 1033.00 880.00 L 1053.00 860.00 L 1093.00 860.00 L 1113.00 861.00 L 1213.00 861.00 L 1233.00 862.00 L 1252.00 862.00 L 1279.00 779.00 L 1253.00 779.00 L 1233.00 778.00 L 1173.00 778.00 L 1153.00 777.00 L 1093.00 777.00 L 1073.00 797.00 L 1053.00 796.00 L 1013.00 860.00 Z" stroke-width="1" id="275-08-03" stroke="black"/>
  <path fill="none" d="M 1313.00 862.00 L 1333.00 863.00 L 1413.00 863.00 L 1433.00 864.00 L 1453.00 844.00 L 1473.00 864.00 L 1479.00 864.00 L 1520.00 781.35 L 1513.00 781.00 L 1433.00 781.00 L 1413.00 780.00 L 1353.00 780.00 L 1333.00 779.00 L 1279.00 779.00 L 1252.00 862.00 Z" stroke-width="1" id="275-08-04" stroke="black"/>
  <path fill="none" d="M 1533.00 864.00 L 1553.00 865.00 L 1591.00 865.00 L 1596.00 782.00 L 1593.00 782.00 L 1573.00 762.00 L 1553.00 782.00 L 1533.00 782.00 L 1520.00 781.35 L 1479.00 864.00 Z" stroke-width="1" id="275-08-05" stroke="black"/>
  <path fill="none" d="M 1633.00 865.00 L 1653.00 866.00 L 1733.00 866.00 L 1753.00 867.00 L 1814.00 867.00 L 1818.00 785.00 L 1813.00 785.00 L 1793.00 784.00 L 1713.00 784.00 L 1693.00 783.00 L 1633.00 783.00 L 1613.00 782.00 L 1596.00 782.00 L 1591.00 865.00 Z" stroke-width="1" id="275-08-06" stroke="black"/>
  <path fill="none" d="M 1853.00 867.00 L 1873.00 868.00 L 1953.00 868.00 L 1960.36 868.37 L 1959.00 779.00 L 1943.41 775.59 L 1933.00 786.00 L 1893.00 786.00 L 1873.00 785.00 L 1818.00 785.00 L 1814.00 867.00 Z" stroke-width="1" id="275-08-07" stroke="black"/>
  <path fill="none" d="M 237.41 852.00 L 240.00 880.00 L 237.00 924.00 L 237.50 933.00 L 273.00 933.00 L 293.00 934.00 L 393.00 934.00 L 403.00 954.00 L 487.00 855.00 L 473.00 855.00 L 453.00 854.00 L 373.00 854.00 L 353.00 853.00 L 333.00 833.00 L 313.00 853.00 L 273.00 853.00 L 253.00 852.00 Z" stroke-width="1" id="275-09-01" stroke="black"/>
  <path fill="none" d="M 413.00 974.00 L 433.00 975.00 L 453.00 975.00 L 473.00 955.00 L 493.00 955.00 L 513.00 935.00 L 533.00 935.00 L 553.00 936.00 L 625.00 936.00 L 642.00 856.00 L 633.00 856.00 L 613.00 876.00 L 593.00 876.00 L 573.00 855.00 L 487.00 855.00 L 403.00 954.00 Z" stroke-width="1" id="275-09-02" stroke="black"/>
  <path fill="none" d="M 673.00 936.00 L 693.00 937.00 L 793.00 937.00 L 813.00 938.00 L 879.00 938.00 L 916.00 859.00 L 913.00 859.00 L 893.00 858.00 L 793.00 858.00 L 773.00 857.00 L 693.00 857.00 L 673.00 856.00 L 642.00 856.00 L 625.00 936.00 Z" stroke-width="1" id="275-09-03" stroke="black"/>
  <path fill="none" d="M 933.00 938.00 L 953.00 939.00 L 1053.00 939.00 L 1073.00 940.00 L 1174.00 940.00 L 1191.00 861.00 L 1113.00 861.00 L 1093.00 860.00 L 1053.00 860.00 L 1033.00 880.00 L 1013.00 860.00 L 993.00 859.00 L 916.00 859.00 L 879.00 938.00 Z" stroke-width="1" id="275-09-04" stroke="black"/>
  <path fill="none" d="M 1193.00 940.00 L 1213.00 941.00 L 1253.00 941.00 L 1265.00 953.00 L 1336.00 863.00 L 1333.00 863.00 L 1313.00 862.00 L 1233.00 862.00 L 1213.00 861.00 L 1191.00 861.00 L 1174.00 940.00 Z" stroke-width="1" id="275-09-05" stroke="black"/>
  <path fill="none" d="M 1273.00 961.00 L 1293.00 981.00 L 1313.00 981.00 L 1333.00 961.00 L 1353.00 942.00 L 1453.00 942.00 L 1473.00 943.00 L 1478.00 943.00 L 1511.00 864.00 L 1473.00 864.00 L 1453.00 844.00 L 1433.00 864.00 L 1413.00 863.00 L 1336.00 863.00 L 1265.00 953.00 Z" stroke-width="1" id="275-09-06" stroke="black"/>
  <path fill="none" d="M 1593.00 943.00 L 1613.00 944.00 L 1713.00 944.00 L 1730.00 961.85 L 1832.00 867.00 L 1753.00 867.00 L 1733.00 866.00 L 1653.00 866.00 L 1633.00 865.00 L 1553.00 865.00 L 1533.00 864.00 L 1511.00 864.00 L 1478.00 943.00 Z" stroke-width="1" id="275-09-07" stroke="black"/>
  <path fill="none" d="M 1733.00 965.00 L 1753.00 985.00 L 1773.00 965.00 L 1793.00 965.00 L 1813.00 945.00 L 1853.00 945.00 L 1873.00 946.00 L 1959.48 946.00 L 1961.00 910.00 L 1960.36 868.37 L 1953.00 868.00 L 1873.00 868.00 L 1853.00 867.00 L 1832.00 867.00 L 1730.00 961.85 Z" stroke-width="1" id="275-09-08" stroke="black"/>
  <path fill="none" d="M 237.50 933.00 L 240.00 978.00 L 226.00 991.00 L 240.00 1006.00 L 240.89 1018.00 L 273.00 1018.00 L 293.00 1019.00 L 393.00 1019.00 L 413.00 1020.00 L 425.00 1020.00 L 430.00 974.85 L 413.00 974.00 L 393.00 934.00 L 293.00 934.00 L 273.00 933.00 Z" stroke-width="1" id="275-10-01" stroke="black"/>
  <path fill="none" d="M 513.00 1020.00 L 533.00 1021.00 L 602.00 1021.00 L 619.00 936.00 L 553.00 936.00 L 533.00 935.00 L 513.00 935.00 L 493.00 955.00 L 473.00 955.00 L 453.00 975.00 L 433.00 975.00 L 430.00 974.85 L 425.00 1020.00 Z" stroke-width="1" id="275-10-02" stroke="black"/>
  <path fill="none" d="M 653.00 1021.00 L 673.00 1022.00 L 753.00 1022.00 L 773.00 1042.00 L 793.00 1023.00 L 893.00 1023.00 L 913.00 1024.00 L 1002.00 1024.00 L 1030.00 939.00 L 953.00 939.00 L 933.00 938.00 L 813.00 938.00 L 793.00 937.00 L 693.00 937.00 L 673.00 936.00 L 619.00 936.00 L 602.00 1021.00 Z" stroke-width="1" id="275-10-03" stroke="black"/>
  <path fill="none" d="M 1013.00 1024.00 L 1033.00 1025.00 L 1153.00 1025.00 L 1173.00 1026.00 L 1226.00 1026.00 L 1245.00 941.00 L 1213.00 941.00 L 1193.00 940.00 L 1073.00 940.00 L 1053.00 939.00 L 1030.00 939.00 L 1002.00 1024.00 Z" stroke-width="1" id="275-10-04" stroke="black"/>
  <path fill="none" d="M 1273.00 1026.00 L 1293.00 1027.00 L 1357.00 1027.00 L 1407.00 942.00 L 1353.00 942.00 L 1333.00 961.00 L 1313.00 981.00 L 1293.00 981.00 L 1273.00 961.00 L 1253.00 941.00 L 1245.00 941.00 L 1226.00 1026.00 Z" stroke-width="1" id="275-10-05" stroke="black"/>
  <path fill="none" d="M 1393.00 1027.00 L 1413.00 1028.00 L 1513.00 1028.00 L 1533.00 1029.00 L 1563.00 1029.00 L 1580.00 943.00 L 1473.00 943.00 L 1453.00 942.00 L 1407.00 942.00 L 1357.00 1027.00 Z" stroke-width="1" id="275-10-06" stroke="black"/>
  <path fill="none" d="M 1653.00 1029.00 L 1671.00 1029.90 L 1704.00 944.00 L 1613.00 944.00 L 1593.00 943.00 L 1580.00 943.00 L 1563.00 1029.00 Z" stroke-width="1" id="275-10-07" stroke="black"/>
  <path fill="none" d="M 1673.00 1030.00 L 1773.00 1030.00 L 1793.00 1071.00 L 1813.00 1051.00 L 1833.00 1051.00 L 1853.00 1031.00 L 1893.00 1031.00 L 1913.00 1032.00 L 1933.57 1032.00 L 1957.00 1005.00 L 1959.48 946.00 L 1873.00 946.00 L 1853.00 945.00 L 1813.00 945.00 L 1793.00 965.00 L 1773.00 965.00 L 1753.00 985.00 L 1733.00 965.00 L 1713.00 944.00 L 1704.00 944.00 L 1671.00 1029.90 Z" stroke-width="1" id="275-10-08" stroke="black"/>
  <path fill="none" d="M 240.89 1018.00 L 244.00 1060.00 L 225.00 1080.00 L 243.00 1087.00 L 244.21 1104.00 L 253.00 1104.00 L 273.00 1105.00 L 373.00 1105.00 L 393.00 1106.00 L 488.00 1106.00 L 497.00 1020.00 L 413.00 1020.00 L 393.00 1019.00 L 293.00 1019.00 L 273.00 1018.00 Z" stroke-width="1" id="275-11-01" stroke="black"/>
  <path fill="none" d="M 493.00 1106.00 L 513.00 1107.00 L 573.00 1107.00 L 593.00 1127.00 L 613.00 1107.00 L 633.00 1128.00 L 653.00 1128.00 L 673.00 1108.00 L 733.00 1108.00 L 753.00 1109.00 L 773.00 1129.00 L 793.00 1109.00 L 820.00 1109.00 L 846.00 1023.00 L 793.00 1023.00 L 773.00 1042.00 L 753.00 1022.00 L 673.00 1022.00 L 653.00 1021.00 L 533.00 1021.00 L 513.00 1020.00 L 497.00 1020.00 L 488.00 1106.00 Z" stroke-width="1" id="275-11-02" stroke="black"/>
  <path fill="none" d="M 853.00 1109.00 L 873.00 1110.00 L 973.00 1110.00 L 993.00 1111.00 L 1001.00 1111.00 L 1053.00 1025.00 L 1033.00 1025.00 L 1013.00 1024.00 L 913.00 1024.00 L 893.00 1023.00 L 846.00 1023.00 L 820.00 1109.00 Z" stroke-width="1" id="275-11-03" stroke="black"/>
  <path fill="none" d="M 1093.00 1111.00 L 1113.00 1112.00 L 1213.00 1112.00 L 1220.00 1112.35 L 1255.00 1026.00 L 1173.00 1026.00 L 1153.00 1025.00 L 1053.00 1025.00 L 1001.00 1111.00 Z" stroke-width="1" id="275-11-04" stroke="black"/>
  <path fill="none" d="M 1233.00 1113.00 L 1313.00 1113.00 L 1333.00 1114.00 L 1368.00 1114.00 L 1394.00 1027.05 L 1393.00 1027.00 L 1293.00 1027.00 L 1273.00 1026.00 L 1255.00 1026.00 L 1220.00 1112.35 Z" stroke-width="1" id="275-11-05" stroke="black"/>
  <path fill="none" d="M 1433.00 1114.00 L 1453.00 1115.00 L 1553.00 1115.00 L 1573.00 1116.00 L 1592.00 1116.00 L 1618.00 1029.00 L 1533.00 1029.00 L 1513.00 1028.00 L 1413.00 1028.00 L 1394.00 1027.05 L 1368.00 1114.00 Z" stroke-width="1" id="275-11-06" stroke="black"/>
  <path fill="none" d="M 1673.00 1116.00 L 1693.00 1117.00 L 1755.00 1117.00 L 1780.00 1044.35 L 1773.00 1030.00 L 1673.00 1030.00 L 1653.00 1029.00 L 1618.00 1029.00 L 1592.00 1116.00 Z" stroke-width="1" id="275-11-07" stroke="black"/>
  <path fill="none" d="M 1793.00 1117.00 L 1813.00 1118.00 L 1913.00 1118.00 L 1925.25 1118.61 L 1911.00 1101.00 L 1911.00 1058.00 L 1933.57 1032.00 L 1913.00 1032.00 L 1893.00 1031.00 L 1853.00 1031.00 L 1833.00 1051.00 L 1813.00 1051.00 L 1793.00 1071.00 L 1780.00 1044.35 L 1755.00 1117.00 Z" stroke-width="1" id="275-11-08" stroke="black"/>
  <path fill="none" d="M 244.21 1104.00 L 247.00 1143.00 L 231.00 1165.00 L 247.00 1173.00 L 247.00 1195.00 L 253.00 1195.00 L 273.00 1196.00 L 353.00 1196.00 L 373.00 1197.00 L 453.00 1197.00 L 473.00 1198.00 L 535.00 1198.00 L 569.00 1107.00 L 513.00 1107.00 L 493.00 1106.00 L 393.00 1106.00 L 373.00 1105.00 L 273.00 1105.00 L 253.00 1104.00 Z" stroke-width="1" id="275-12-01" stroke="black"/>
  <path fill="none" d="M 573.00 1198.00 L 593.00 1199.00 L 613.00 1199.00 L 614.00 1200.00 L 684.00 1108.00 L 673.00 1108.00 L 653.00 1128.00 L 633.00 1128.00 L 613.00 1107.00 L 593.00 1127.00 L 573.00 1107.00 L 569.00 1107.00 L 535.00 1198.00 Z" stroke-width="1" id="275-12-02" stroke="black"/>
  <path fill="none" d="M 633.00 1219.00 L 653.00 1199.00 L 673.00 1199.00 L 693.00 1200.00 L 773.00 1200.00 L 793.00 1201.00 L 813.00 1201.00 L 833.00 1221.00 L 853.00 1221.00 L 873.00 1201.00 L 893.00 1201.00 L 913.00 1202.00 L 952.00 1202.00 L 964.00 1110.00 L 873.00 1110.00 L 853.00 1109.00 L 793.00 1109.00 L 773.00 1129.00 L 753.00 1109.00 L 733.00 1108.00 L 684.00 1108.00 L 614.00 1200.00 Z" stroke-width="1" id="275-12-03" stroke="black"/>
  <path fill="none" d="M 993.00 1202.00 L 1013.00 1203.00 L 1093.00 1203.00 L 1094.00 1203.05 L 1132.00 1112.00 L 1113.00 1112.00 L 1093.00 1111.00 L 993.00 1111.00 L 973.00 1110.00 L 964.00 1110.00 L 952.00 1202.00 Z" stroke-width="1" id="275-12-04" stroke="black"/>
  <path fill="none" d="M 1113.00 1204.00 L 1213.00 1204.00 L 1233.00 1205.00 L 1253.00 1185.00 L 1273.00 1205.00 L 1293.00 1205.00 L 1313.00 1225.00 L 1333.00 1226.00 L 1353.00 1226.00 L 1373.00 1206.00 L 1413.00 1206.00 L 1428.00 1206.75 L 1441.00 1114.40 L 1433.00 1114.00 L 1333.00 1114.00 L 1313.00 1113.00 L 1233.00 1113.00 L 1213.00 1112.00 L 1132.00 1112.00 L 1094.00 1203.05 Z" stroke-width="1" id="275-12-05" stroke="black"/>
  <path fill="none" d="M 1433.00 1207.00 L 1533.00 1207.00 L 1553.00 1208.00 L 1633.00 1208.00 L 1653.00 1209.00 L 1700.00 1209.00 L 1724.00 1117.00 L 1693.00 1117.00 L 1673.00 1116.00 L 1573.00 1116.00 L 1553.00 1115.00 L 1453.00 1115.00 L 1441.00 1114.40 L 1428.00 1206.75 Z" stroke-width="1" id="275-12-06" stroke="black"/>
  <path fill="none" d="M 1733.00 1209.00 L 1753.00 1210.00 L 1852.00 1210.00 L 1861.00 1118.00 L 1813.00 1118.00 L 1793.00 1117.00 L 1724.00 1117.00 L 1700.00 1209.00 Z" stroke-width="1" id="275-12-07" stroke="black"/>
  <path fill="none" d="M 1853.00 1210.00 L 1873.00 1231.00 L 1913.00 1231.00 L 1933.00 1211.00 L 1953.00 1211.00 L 1964.07 1211.55 L 1966.00 1169.00 L 1925.25 1118.61 L 1913.00 1118.00 L 1861.00 1118.00 L 1852.00 1210.00 Z" stroke-width="1" id="275-12-08" stroke="black"/>
  <path fill="none" d="M 247.00 1195.00 L 247.00 1230.00 L 231.00 1242.00 L 249.00 1255.00 L 248.53 1280.00 L 293.00 1280.00 L 313.00 1281.00 L 373.00 1281.00 L 393.00 1282.00 L 433.00 1282.00 L 453.00 1283.00 L 457.00 1283.00 L 485.00 1198.00 L 473.00 1198.00 L 453.00 1197.00 L 373.00 1197.00 L 353.00 1196.00 L 273.00 1196.00 L 253.00 1195.00 Z" stroke-width="1" id="275-13-01" stroke="black"/>
  <path fill="none" d="M 513.00 1283.00 L 533.00 1284.00 L 593.00 1284.00 L 613.00 1305.00 L 633.00 1285.00 L 673.00 1285.00 L 693.00 1286.00 L 733.00 1286.00 L 753.00 1287.00 L 813.00 1287.00 L 833.00 1288.00 L 873.00 1288.00 L 893.00 1268.00 L 900.00 1275.35 L 974.00 1202.00 L 913.00 1202.00 L 893.00 1201.00 L 873.00 1201.00 L 853.00 1221.00 L 833.00 1221.00 L 813.00 1201.00 L 793.00 1201.00 L 773.00 1200.00 L 693.00 1200.00 L 673.00 1199.00 L 653.00 1199.00 L 633.00 1219.00 L 613.00 1199.00 L 593.00 1199.00 L 573.00 1198.00 L 485.00 1198.00 L 457.00 1283.00 Z" stroke-width="1" id="275-13-02" stroke="black"/>
  <path fill="none" d="M 913.00 1289.00 L 973.00 1289.00 L 993.00 1290.00 L 1012.00 1290.00 L 1064.00 1203.00 L 1013.00 1203.00 L 993.00 1202.00 L 974.00 1202.00 L 900.00 1275.35 Z" stroke-width="1" id="275-13-03" stroke="black"/>
  <path fill="none" d="M 1033.00 1290.00 L 1053.00 1291.00 L 1113.00 1291.00 L 1120.00 1291.35 L 1150.00 1204.00 L 1113.00 1204.00 L 1093.00 1203.00 L 1064.00 1203.00 L 1012.00 1290.00 Z" stroke-width="1" id="275-13-04" stroke="black"/>
  <path fill="none" d="M 1133.00 1292.00 L 1153.00 1272.00 L 1173.00 1272.00 L 1193.00 1292.00 L 1213.00 1293.00 L 1253.00 1293.00 L 1265.00 1293.60 L 1286.00 1205.00 L 1273.00 1205.00 L 1253.00 1185.00 L 1233.00 1205.00 L 1213.00 1204.00 L 1150.00 1204.00 L 1120.00 1291.35 Z" stroke-width="1" id="275-13-05" stroke="black"/>
  <path fill="none" d="M 1273.00 1294.00 L 1333.00 1294.00 L 1353.00 1295.00 L 1373.00 1295.00 L 1393.00 1275.00 L 1413.00 1275.00 L 1433.00 1296.00 L 1441.00 1296.00 L 1474.00 1207.00 L 1433.00 1207.00 L 1413.00 1206.00 L 1373.00 1206.00 L 1353.00 1226.00 L 1333.00 1226.00 L 1313.00 1225.00 L 1293.00 1205.00 L 1286.00 1205.00 L 1265.00 1293.60 Z" stroke-width="1" id="275-13-06" stroke="black"/>
  <path fill="none" d="M 1493.00 1296.00 L 1513.00 1297.00 L 1553.00 1297.00 L 1573.00 1298.00 L 1633.00 1298.00 L 1653.00 1299.00 L 1713.00 1299.00 L 1733.00 1300.00 L 1793.00 1300.00 L 1813.00 1301.00 L 1833.00 1301.00 L 1853.00 1281.00 L 1873.00 1282.00 L 1893.00 1302.00 L 1933.00 1302.00 L 1953.00 1303.00 L 1958.00 1303.00 L 1962.00 1257.00 L 1964.07 1211.55 L 1953.00 1211.00 L 1933.00 1211.00 L 1913.00 1231.00 L 1873.00 1231.00 L 1853.00 1210.00 L 1753.00 1210.00 L 1733.00 1209.00 L 1653.00 1209.00 L 1633.00 1208.00 L 1553.00 1208.00 L 1533.00 1207.00 L 1474.00 1207.00 L 1441.00 1296.00 Z" stroke-width="1" id="275-13-07" stroke="black"/>
  <path fill="none" d="M 248.53 1280.00 L 247.00 1362.00 L 247.00 1386.00 L 253.00 1398.00 L 273.00 1398.00 L 293.00 1379.00 L 313.00 1359.00 L 353.00 1359.00 L 373.00 1360.00 L 413.00 1360.00 L 420.00 1360.35 L 446.00 1282.65 L 433.00 1282.00 L 393.00 1282.00 L 373.00 1281.00 L 313.00 1281.00 L 293.00 1280.00 Z" stroke-width="1" id="275-14-01" stroke="black"/>
  <path fill="none" d="M 433.00 1361.00 L 493.00 1361.00 L 513.00 1362.00 L 553.00 1362.00 L 573.00 1363.00 L 576.00 1363.00 L 582.00 1284.00 L 533.00 1284.00 L 513.00 1283.00 L 453.00 1283.00 L 446.00 1282.65 L 420.00 1360.35 Z" stroke-width="1" id="275-14-02" stroke="black"/>
  <path fill="none" d="M 613.00 1363.00 L 633.00 1364.00 L 650.00 1364.00 L 700.00 1286.00 L 693.00 1286.00 L 673.00 1285.00 L 633.00 1285.00 L 613.00 1305.00 L 593.00 1284.00 L 582.00 1284.00 L 576.00 1363.00 Z" stroke-width="1" id="275-14-03" stroke="black"/>
  <path fill="none" d="M 673.00 1364.00 L 693.00 1384.00 L 713.00 1385.00 L 733.00 1365.00 L 753.00 1385.00 L 773.00 1366.00 L 793.00 1366.00 L 813.00 1386.00 L 833.00 1381.00 L 853.00 1375.00 L 872.00 1367.40 L 922.00 1289.00 L 913.00 1289.00 L 893.00 1268.00 L 873.00 1288.00 L 833.00 1288.00 L 813.00 1287.00 L 753.00 1287.00 L 733.00 1286.00 L 700.00 1286.00 L 650.00 1364.00 Z" stroke-width="1" id="275-14-04" stroke="black"/>
  <path fill="none" d="M 873.00 1367.00 L 893.00 1367.00 L 913.00 1368.00 L 973.00 1368.00 L 980.00 1368.35 L 1007.00 1290.00 L 993.00 1290.00 L 973.00 1289.00 L 922.00 1289.00 L 872.00 1367.40 Z" stroke-width="1" id="275-14-05" stroke="black"/>
  <path fill="none" d="M 993.00 1369.00 L 1033.00 1369.00 L 1053.00 1350.00 L 1073.00 1370.00 L 1093.00 1370.00 L 1113.00 1371.00 L 1133.00 1371.00 L 1153.00 1391.00 L 1173.00 1411.00 L 1193.00 1392.00 L 1213.00 1392.00 L 1233.00 1372.00 L 1253.00 1373.00 L 1313.00 1373.00 L 1314.00 1373.05 L 1307.00 1294.00 L 1273.00 1294.00 L 1253.00 1293.00 L 1213.00 1293.00 L 1193.00 1292.00 L 1173.00 1272.00 L 1153.00 1272.00 L 1133.00 1292.00 L 1113.00 1291.00 L 1053.00 1291.00 L 1033.00 1290.00 L 1007.00 1290.00 L 980.00 1368.35 Z" stroke-width="1" id="275-14-06" stroke="black"/>
  <path fill="none" d="M 1333.00 1374.00 L 1373.00 1374.00 L 1393.00 1375.00 L 1453.00 1375.00 L 1473.00 1376.00 L 1513.00 1376.00 L 1576.00 1298.00 L 1573.00 1298.00 L 1553.00 1297.00 L 1513.00 1297.00 L 1493.00 1296.00 L 1433.00 1296.00 L 1413.00 1275.00 L 1393.00 1275.00 L 1373.00 1295.00 L 1353.00 1295.00 L 1333.00 1294.00 L 1307.00 1294.00 L 1314.00 1373.05 Z" stroke-width="1" id="275-14-07" stroke="black"/>
  <path fill="none" d="M 1533.00 1397.00 L 1553.00 1397.00 L 1573.00 1377.00 L 1593.00 1378.00 L 1653.00 1378.00 L 1656.00 1378.15 L 1673.00 1299.00 L 1653.00 1299.00 L 1633.00 1298.00 L 1576.00 1298.00 L 1513.00 1376.00 Z" stroke-width="1" id="275-14-08" stroke="black"/>
  <path fill="none" d="M 1673.00 1379.00 L 1713.00 1379.00 L 1733.00 1380.00 L 1783.00 1380.00 L 1788.00 1300.00 L 1733.00 1300.00 L 1713.00 1299.00 L 1673.00 1299.00 L 1656.00 1378.15 Z" stroke-width="1" id="275-14-09" stroke="black"/>
  <path fill="none" d="M 1793.00 1380.00 L 1813.00 1381.00 L 1853.00 1381.00 L 1873.00 1382.00 L 1933.00 1382.00 L 1935.85 1382.14 L 1954.00 1349.00 L 1958.00 1303.00 L 1953.00 1303.00 L 1933.00 1302.00 L 1893.00 1302.00 L 1873.00 1282.00 L 1853.00 1281.00 L 1833.00 1301.00 L 1813.00 1301.00 L 1793.00 1300.00 L 1788.00 1300.00 L 1783.00 1380.00 Z" stroke-width="1" id="275-14-10" stroke="black"/>
  <path fill="none" d="M 247.00 1386.00 L 247.00 1407.00 L 234.00 1422.00 L 247.00 1437.00 L 247.56 1447.00 L 253.00 1447.00 L 273.00 1448.00 L 293.00 1448.00 L 313.00 1449.00 L 353.00 1449.00 L 373.00 1450.00 L 413.00 1450.00 L 433.00 1451.00 L 453.00 1451.00 L 473.00 1452.00 L 513.00 1452.00 L 533.00 1433.00 L 553.00 1433.00 L 573.00 1453.00 L 593.00 1454.00 L 613.00 1454.00 L 633.00 1455.00 L 638.00 1455.00 L 667.00 1364.00 L 633.00 1364.00 L 613.00 1363.00 L 573.00 1363.00 L 553.00 1362.00 L 513.00 1362.00 L 493.00 1361.00 L 433.00 1361.00 L 413.00 1360.00 L 373.00 1360.00 L 353.00 1359.00 L 313.00 1359.00 L 293.00 1379.00 L 273.00 1398.00 L 253.00 1398.00 Z" stroke-width="1" id="275-15-01" stroke="black"/>
  <path fill="none" d="M 673.00 1455.00 L 693.00 1456.00 L 733.00 1456.00 L 753.00 1457.00 L 773.00 1457.00 L 793.00 1458.00 L 833.00 1458.00 L 853.00 1459.00 L 893.00 1459.00 L 913.00 1460.00 L 933.00 1460.00 L 937.00 1460.20 L 983.00 1368.50 L 973.00 1368.00 L 913.00 1368.00 L 893.00 1367.00 L 873.00 1367.00 L 853.00 1375.00 L 833.00 1381.00 L 813.00 1386.00 L 793.00 1366.00 L 773.00 1366.00 L 753.00 1385.00 L 733.00 1365.00 L 713.00 1385.00 L 693.00 1384.00 L 673.00 1364.00 L 667.00 1364.00 L 638.00 1455.00 Z" stroke-width="1" id="275-15-02" stroke="black"/>
  <path fill="none" d="M 953.00 1461.00 L 993.00 1461.00 L 998.00 1461.25 L 1066.00 1363.00 L 1053.00 1350.00 L 1033.00 1369.00 L 993.00 1369.00 L 983.00 1368.50 L 937.00 1460.20 Z" stroke-width="1" id="275-15-03" stroke="black"/>
  <path fill="none" d="M 1013.00 1462.00 L 1053.00 1462.00 L 1073.00 1483.00 L 1093.00 1463.00 L 1113.00 1464.00 L 1153.00 1464.00 L 1167.00 1464.70 L 1215.00 1390.00 L 1213.00 1392.00 L 1193.00 1392.00 L 1173.00 1411.00 L 1153.00 1391.00 L 1133.00 1371.00 L 1113.00 1371.00 L 1093.00 1370.00 L 1073.00 1370.00 L 1066.00 1363.00 L 998.00 1461.25 Z" stroke-width="1" id="275-15-04" stroke="black"/>
  <path fill="none" d="M 1173.00 1465.00 L 1213.00 1465.00 L 1226.94 1465.70 L 1366.94 1463.85 L 1420.00 1375.00 L 1393.00 1375.00 L 1373.00 1374.00 L 1333.00 1374.00 L 1313.00 1373.00 L 1253.00 1373.00 L 1233.00 1372.00 L 1215.00 1390.00 L 1167.00 1464.70 Z" stroke-width="1" id="275-15-05" stroke="black"/>
  <path fill="none" d="M 1584.94 1460.97 L 1594.00 1378.00 L 1593.00 1378.00 L 1573.00 1377.00 L 1553.00 1397.00 L 1533.00 1397.00 L 1513.00 1376.00 L 1473.00 1376.00 L 1453.00 1375.00 L 1420.00 1375.00 L 1366.94 1463.85 Z" stroke-width="1" id="275-15-06" stroke="black"/>
  <path fill="none" d="M 1749.94 1458.80 L 1765.00 1380.00 L 1733.00 1380.00 L 1713.00 1379.00 L 1673.00 1379.00 L 1653.00 1378.00 L 1594.00 1378.00 L 1584.94 1460.97 Z" stroke-width="1" id="275-15-07" stroke="black"/>
  <path fill="none" d="M 1886.00 1457.00 L 1908.00 1433.00 L 1935.85 1382.14 L 1933.00 1382.00 L 1873.00 1382.00 L 1853.00 1381.00 L 1813.00 1381.00 L 1793.00 1380.00 L 1765.00 1380.00 L 1749.94 1458.80 Z" stroke-width="1" id="275-15-08" stroke="black"/>
  <path fill="none" d="M 247.56 1447.00 L 250.00 1491.00 L 231.00 1510.00 L 249.00 1519.00 L 416.00 1527.22 L 445.00 1451.00 L 433.00 1451.00 L 413.00 1450.00 L 373.00 1450.00 L 353.00 1449.00 L 313.00 1449.00 L 293.00 1448.00 L 273.00 1448.00 L 253.00 1447.00 Z" stroke-width="1" id="275-16-01" stroke="black"/>
  <path fill="none" d="M 513.00 1532.00 L 517.89 1554.02 L 533.00 1551.00 L 553.00 1545.00 L 573.00 1539.00 L 601.00 1539.00 L 614.00 1454.05 L 613.00 1454.00 L 593.00 1454.00 L 573.00 1453.00 L 553.00 1433.00 L 533.00 1433.00 L 513.00 1452.00 L 473.00 1452.00 L 453.00 1451.00 L 445.00 1451.00 L 416.00 1527.22 Z" stroke-width="1" id="275-16-02" stroke="black"/>
  <path fill="none" d="M 640.67 1539.00 L 697.46 1538.11 L 713.00 1535.00 L 733.00 1531.00 L 773.00 1531.00 L 777.00 1531.40 L 794.00 1458.00 L 793.00 1458.00 L 773.00 1457.00 L 753.00 1457.00 L 733.00 1456.00 L 693.00 1456.00 L 673.00 1455.00 L 633.00 1455.00 L 614.00 1454.05 L 601.00 1539.00 Z" stroke-width="1" id="275-16-03" stroke="black"/>
  <path fill="none" d="M 793.00 1533.00 L 813.00 1535.00 L 873.00 1535.00 L 893.00 1537.00 L 913.00 1537.00 L 933.00 1539.00 L 1093.00 1539.00 L 1113.00 1541.00 L 1133.00 1541.00 L 1153.00 1533.00 L 1194.17 1533.00 L 1204.00 1466.00 L 1226.94 1465.70 L 1213.00 1465.00 L 1173.00 1465.00 L 1153.00 1464.00 L 1113.00 1464.00 L 1093.00 1463.00 L 1073.00 1483.00 L 1053.00 1462.00 L 1013.00 1462.00 L 993.00 1461.00 L 953.00 1461.00 L 933.00 1460.00 L 913.00 1460.00 L 893.00 1459.00 L 853.00 1459.00 L 833.00 1458.00 L 794.00 1458.00 L 777.00 1531.40 Z" stroke-width="1" id="275-16-04" stroke="black"/>
  <path fill="none" d="M 758.43 1557.91 L 725.00 1631.00 L 701.62 1629.05 L 713.00 1641.00 L 753.00 1641.00 L 773.00 1622.00 L 793.00 1622.00 L 813.00 1623.00 L 853.00 1623.00 L 873.00 1624.00 L 893.00 1624.00 L 913.00 1625.00 L 953.00 1625.00 L 973.00 1626.00 L 974.00 1626.00 L 983.00 1563.00 L 953.00 1563.00 L 933.00 1561.00 L 873.00 1561.00 L 853.00 1553.00 L 833.00 1541.00 L 793.00 1541.00 L 773.00 1555.00 Z" stroke-width="1" id="275-17-01" stroke="black"/>
  <path fill="none" d="M 993.00 1626.00 L 1013.00 1627.00 L 1053.00 1627.00 L 1073.00 1628.00 L 1093.00 1628.00 L 1113.00 1629.00 L 1153.00 1629.00 L 1173.00 1630.00 L 1193.00 1630.00 L 1213.00 1631.00 L 1236.00 1631.00 L 1267.00 1568.00 L 1253.00 1568.00 L 1233.00 1567.00 L 1193.00 1567.00 L 1173.00 1566.00 L 1133.00 1566.00 L 1113.00 1565.00 L 1073.00 1565.00 L 1053.00 1564.00 L 1013.00 1564.00 L 993.00 1563.00 L 983.00 1563.00 L 974.00 1626.00 Z" stroke-width="1" id="275-17-02" stroke="black"/>
  <path fill="none" d="M 1253.00 1631.00 L 1273.00 1632.00 L 1293.00 1652.00 L 1313.00 1673.00 L 1333.00 1673.00 L 1353.00 1653.00 L 1373.00 1634.00 L 1390.00 1634.00 L 1414.00 1571.00 L 1413.00 1571.00 L 1393.00 1570.00 L 1353.00 1570.00 L 1333.00 1569.00 L 1313.00 1569.00 L 1293.00 1568.00 L 1267.00 1568.00 L 1236.00 1631.00 Z" stroke-width="1" id="275-17-03" stroke="black"/>
  <path fill="none" d="M 1393.00 1634.00 L 1413.00 1635.00 L 1453.00 1635.00 L 1473.00 1636.00 L 1493.00 1636.00 L 1513.00 1637.00 L 1553.00 1637.00 L 1573.00 1618.00 L 1593.00 1618.00 L 1613.00 1639.00 L 1633.00 1619.00 L 1653.00 1619.00 L 1673.00 1640.00 L 1687.00 1626.00 L 1687.00 1569.70 L 1677.72 1559.96 L 1668.41 1559.59 L 1653.00 1575.00 L 1633.00 1574.00 L 1593.00 1574.00 L 1573.00 1573.00 L 1553.00 1573.00 L 1534.35 1554.35 L 1511.54 1553.46 L 1493.00 1572.00 L 1473.00 1552.00 L 1453.00 1571.00 L 1414.00 1571.00 L 1390.00 1634.00 Z" stroke-width="1" id="275-17-04" stroke="black"/>
  <path fill="none" d="M 1693.00 1620.00 L 1713.00 1620.00 L 1729.57 1637.40 L 1730.00 1633.00 L 1780.00 1612.00 L 1744.58 1576.58 L 1733.00 1576.00 L 1718.55 1561.55 L 1707.87 1561.13 L 1693.00 1576.00 L 1687.00 1569.70 L 1687.00 1626.00 Z" stroke-width="1" id="275-17-05" stroke="black"/>
  <path fill="none" d="M 250.00 1656.00 L 249.00 1696.00 L 294.82 1703.00 L 353.00 1703.00 L 373.00 1683.00 L 393.00 1703.00 L 677.00 1703.00 L 709.00 1636.80 L 701.62 1629.05 L 563.00 1617.50 L 553.00 1617.00 L 513.00 1617.00 L 493.00 1616.00 L 473.00 1616.00 L 453.00 1615.00 L 413.00 1615.00 L 393.00 1614.00 L 373.00 1614.00 L 353.00 1613.00 L 313.00 1613.00 L 294.86 1612.09 Z" stroke-width="1" id="275-18-01" stroke="black"/>
  <path fill="none" d="M 773.00 1703.00 L 793.00 1704.00 L 903.60 1704.00 L 966.60 1703.13 L 972.00 1625.95 L 953.00 1625.00 L 913.00 1625.00 L 893.00 1624.00 L 873.00 1624.00 L 853.00 1623.00 L 813.00 1623.00 L 793.00 1622.00 L 773.00 1622.00 L 753.00 1641.00 L 713.00 1641.00 L 709.00 1636.80 L 677.00 1703.00 Z" stroke-width="1" id="275-18-02" stroke="black"/>
  <path fill="none" d="M 1723.00 1705.00 L 1729.57 1637.40 L 1713.00 1620.00 L 1693.00 1620.00 L 1673.00 1640.00 L 1653.00 1619.00 L 1633.00 1619.00 L 1613.00 1639.00 L 1593.00 1618.00 L 1573.00 1618.00 L 1553.00 1637.00 L 1513.00 1637.00 L 1508.59 1704.43 Z" stroke-width="1" id="275-18-03" stroke="black"/>
  <path fill="none" d="M 294.82 1703.00 L 321.00 1707.00 L 314.00 1719.00 L 281.00 1730.00 L 275.00 1777.00 L 275.44 1788.00 L 353.00 1788.00 L 373.00 1789.00 L 382.00 1789.00 L 403.00 1703.00 L 393.00 1703.00 L 373.00 1683.00 L 353.00 1703.00 Z" stroke-width="1" id="275-19-01" stroke="black"/>
  <path fill="none" d="M 473.00 1789.00 L 493.00 1790.00 L 573.00 1790.00 L 590.39 1790.87 L 614.00 1708.00 L 903.60 1704.00 L 793.00 1704.00 L 773.00 1703.00 L 403.00 1703.00 L 382.00 1789.00 Z" stroke-width="1" id="275-19-02" stroke="black"/>
  <path fill="none" d="M 153.00 1918.00 L 158.00 1953.00 L 244.00 1953.14 L 260.00 1875.96 L 224.00 1874.00 Z" stroke-width="1" id="275-21-01" stroke="black"/>
  <path fill="none" d="M 367.00 1953.34 L 386.00 1863.00 L 353.00 1863.00 L 333.00 1862.00 L 293.00 1862.00 L 278.37 1861.27 L 279.00 1877.00 L 260.00 1875.96 L 244.00 1953.14 Z" stroke-width="1" id="275-21-02" stroke="black"/>
  <path fill="none" d="M 514.00 1953.57 L 567.00 1873.00 L 568.99 1866.00 L 533.00 1866.00 L 513.00 1865.00 L 473.00 1865.00 L 453.00 1864.00 L 413.00 1864.00 L 393.00 1863.00 L 386.00 1863.00 L 367.00 1953.34 Z" stroke-width="1" id="275-21-03" stroke="black"/>
  <path fill="none" d="M 780.00 1954.00 L 761.66 1978.00 L 773.00 1978.00 L 793.00 1998.00 L 813.00 1978.00 L 913.00 1978.00 L 933.00 1998.00 L 953.00 1998.00 L 973.00 1978.00 L 1009.00 1978.00 L 1050.00 1877.27 L 567.00 1873.00 L 514.00 1953.57 Z" stroke-width="1" id="275-21-04" stroke="black"/>
  <path fill="none" d="M 1224.00 1978.00 L 1232.00 1948.05 L 1231.00 1948.00 L 1245.00 1879.00 L 1050.00 1877.27 L 1009.00 1978.00 Z" stroke-width="1" id="275-21-05" stroke="black"/>
  <path fill="none" d="M 761.66 1978.00 L 699.30 2059.60 L 713.00 2087.00 L 733.00 2087.00 L 753.00 2067.00 L 773.00 2067.00 L 793.00 2047.00 L 872.00 2047.00 L 897.00 1978.00 L 813.00 1978.00 L 793.00 1998.00 L 773.00 1978.00 Z" stroke-width="1" id="275-22-01" stroke="black"/>
  <path fill="none" d="M 998.00 2047.00 L 1032.64 1978.00 L 973.00 1978.00 L 953.00 1998.00 L 933.00 1998.00 L 913.00 1978.00 L 897.00 1978.00 L 872.00 2047.00 Z" stroke-width="1" id="275-22-02" stroke="black"/>
  <path fill="none" d="M 1067.00 2047.00 L 1089.64 1978.00 L 1032.64 1978.00 L 998.00 2047.00 Z" stroke-width="1" id="275-22-03" stroke="black"/>
  <path fill="none" d="M 1221.00 2047.00 L 1240.64 1978.00 L 1089.64 1978.00 L 1067.00 2047.00 Z" stroke-width="1" id="275-22-04" stroke="black"/>
  <path fill="none" d="M 1293.00 2047.00 L 1296.00 2050.00 L 1338.64 1978.00 L 1240.64 1978.00 L 1221.00 2047.00 Z" stroke-width="1" id="275-22-05" stroke="black"/>
  <path fill="none" d="M 1313.00 2067.00 L 1333.00 2067.00 L 1353.00 2047.00 L 1457.00 2047.00 L 1489.64 1978.00 L 1338.64 1978.00 L 1296.00 2050.00 Z" stroke-width="1" id="275-22-06" stroke="black"/>
  <path fill="none" d="M 1674.00 2047.00 L 1701.64 1978.00 L 1489.64 1978.00 L 1457.00 2047.00 Z" stroke-width="1" id="275-22-07" stroke="black"/>
  <path fill="none" d="M 1693.00 2047.00 L 1713.00 2048.00 L 1824.00 2048.00 L 1842.00 1988.30 L 1766.64 1978.00 L 1701.64 1978.00 L 1674.00 2047.00 Z" stroke-width="1" id="275-22-08" stroke="black"/>
  <path fill="none" d="M 1928.15 2048.00 L 1912.00 2038.00 L 1913.00 1998.00 L 1842.00 1988.30 L 1824.00 2048.00 Z" stroke-width="1" id="275-22-09" stroke="black"/>
  <path fill="none" d="M 237.00 2107.00 L 236.00 2141.00 L 259.85 2146.15 L 273.00 2133.00 L 372.00 2133.00 L 410.00 2059.68 L 301.00 2067.00 Z" stroke-width="1" id="275-23-01" stroke="black"/>
  <path fill="none" d="M 564.00 2133.00 L 593.00 2052.69 L 554.00 2050.00 L 410.00 2059.68 L 372.00 2133.00 Z" stroke-width="1" id="275-23-02" stroke="black"/>
  <path fill="none" d="M 906.00 2133.00 L 926.00 2047.00 L 793.00 2047.00 L 773.00 2067.00 L 753.00 2067.00 L 733.00 2087.00 L 713.00 2087.00 L 699.30 2059.60 L 699.00 2060.00 L 593.00 2052.69 L 564.00 2133.00 Z" stroke-width="1" id="275-23-03" stroke="black"/>
  <path fill="none" d="M 973.00 2133.00 L 979.00 2140.80 L 1020.00 2047.00 L 926.00 2047.00 L 906.00 2133.00 Z" stroke-width="1" id="275-23-04" stroke="black"/>
  <path fill="none" d="M 993.00 2159.00 L 1013.00 2149.00 L 1033.00 2147.00 L 1053.00 2153.00 L 1073.00 2133.00 L 1154.00 2133.00 L 1173.00 2047.00 L 1020.00 2047.00 L 979.00 2140.80 Z" stroke-width="1" id="275-23-05" stroke="black"/>
  <path fill="none" d="M 1340.00 2133.00 L 1385.00 2047.00 L 1353.00 2047.00 L 1333.00 2067.00 L 1313.00 2067.00 L 1293.00 2047.00 L 1173.00 2047.00 L 1154.00 2133.00 Z" stroke-width="1" id="275-23-06" stroke="black"/>
  <path fill="none" d="M 1461.00 2133.00 L 1486.00 2047.00 L 1385.00 2047.00 L 1340.00 2133.00 Z" stroke-width="1" id="275-23-07" stroke="black"/>
  <path fill="none" d="M 1573.00 2133.00 L 1593.00 2153.00 L 1633.00 2153.00 L 1653.00 2133.00 L 1713.00 2133.00 L 1733.00 2153.00 L 1773.00 2153.00 L 1793.00 2133.00 L 1800.00 2133.00 L 1823.15 2048.00 L 1713.00 2048.00 L 1693.00 2047.00 L 1486.00 2047.00 L 1461.00 2133.00 Z" stroke-width="1" id="275-23-08" stroke="black"/>
  <path fill="none" d="M 1974.40 2133.00 L 1977.00 2107.00 L 1975.00 2077.00 L 1928.15 2048.00 L 1823.15 2048.00 L 1800.00 2133.00 Z" stroke-width="1" id="275-23-09" stroke="black"/>
  <path fill="none" d="M 273.00 2133.00 L 259.85 2146.15 L 287.00 2152.00 L 239.00 2193.00 L 260.00 2206.00 L 260.64 2220.00 L 413.00 2220.00 L 433.00 2241.00 L 453.00 2261.00 L 473.00 2221.00 L 506.00 2221.00 L 520.00 2133.00 Z" stroke-width="1" id="275-24-01" stroke="black"/>
  <path fill="none" d="M 640.00 2221.00 L 672.00 2133.00 L 520.00 2133.00 L 506.00 2221.00 Z" stroke-width="1" id="275-24-02" stroke="black"/>
  <path fill="none" d="M 693.00 2221.00 L 713.00 2222.00 L 876.00 2222.00 L 884.00 2133.00 L 672.00 2133.00 L 640.00 2221.00 Z" stroke-width="1" id="275-24-03" stroke="black"/>
  <path fill="none" d="M 949.00 2222.00 L 962.00 2133.00 L 884.00 2133.00 L 876.00 2222.00 Z" stroke-width="1" id="275-24-04" stroke="black"/>
  <path fill="none" d="M 973.00 2222.00 L 993.00 2223.00 L 1128.00 2223.00 L 1139.00 2133.00 L 1073.00 2133.00 L 1053.00 2153.00 L 1033.00 2147.00 L 1013.00 2149.00 L 993.00 2159.00 L 973.00 2133.00 L 962.00 2133.00 L 949.00 2222.00 Z" stroke-width="1" id="275-24-05" stroke="black"/>
  <path fill="none" d="M 1253.00 2223.00 L 1273.00 2224.00 L 1533.00 2224.00 L 1553.00 2225.00 L 1693.00 2225.00 L 1719.00 2139.00 L 1713.00 2133.00 L 1653.00 2133.00 L 1633.00 2153.00 L 1593.00 2153.00 L 1573.00 2133.00 L 1139.00 2133.00 L 1128.00 2223.00 Z" stroke-width="1" id="275-24-06" stroke="black"/>
  <path fill="none" d="M 1713.00 2245.00 L 1733.00 2245.00 L 1753.00 2225.00 L 1813.00 2225.00 L 1833.00 2226.00 L 1845.00 2226.00 L 1869.40 2133.00 L 1793.00 2133.00 L 1773.00 2153.00 L 1733.00 2153.00 L 1719.00 2139.00 L 1693.00 2225.00 Z" stroke-width="1" id="275-24-07" stroke="black"/>
  <path fill="none" d="M 1953.32 2226.00 L 1967.00 2207.00 L 1974.40 2133.00 L 1869.40 2133.00 L 1845.00 2226.00 Z" stroke-width="1" id="275-24-08" stroke="black"/>
  <path fill="none" d="M 260.64 2220.00 L 262.00 2250.00 L 238.00 2282.00 L 258.00 2293.00 L 257.80 2303.00 L 308.80 2303.00 L 344.00 2220.00 Z" stroke-width="1" id="275-25-01" stroke="black"/>
  <path fill="none" d="M 373.00 2303.00 L 393.00 2304.00 L 513.00 2304.00 L 543.00 2221.00 L 473.00 2221.00 L 453.00 2261.00 L 433.00 2241.00 L 413.00 2220.00 L 344.00 2220.00 L 308.80 2303.00 Z" stroke-width="1" id="275-25-02" stroke="black"/>
  <path fill="none" d="M 533.00 2324.00 L 573.00 2324.00 L 593.00 2304.00 L 613.00 2305.00 L 643.00 2305.00 L 666.00 2221.00 L 543.00 2221.00 L 513.00 2304.00 Z" stroke-width="1" id="275-25-03" stroke="black"/>
  <path fill="none" d="M 813.00 2305.00 L 833.00 2306.00 L 890.00 2306.00 L 917.00 2222.00 L 713.00 2222.00 L 693.00 2221.00 L 666.00 2221.00 L 643.00 2305.00 Z" stroke-width="1" id="275-25-04" stroke="black"/>
  <path fill="none" d="M 1053.00 2306.00 L 1073.00 2307.00 L 1169.00 2307.00 L 1169.00 2223.00 L 993.00 2223.00 L 973.00 2222.00 L 917.00 2222.00 L 890.00 2306.00 Z" stroke-width="1" id="275-25-05" stroke="black"/>
  <path fill="none" d="M 1213.00 2307.00 L 1226.00 2320.00 L 1294.00 2224.00 L 1273.00 2224.00 L 1253.00 2223.00 L 1169.00 2223.00 L 1169.00 2307.00 Z" stroke-width="1" id="275-25-06" stroke="black"/>
  <path fill="none" d="M 1233.00 2327.00 L 1273.00 2327.00 L 1293.00 2308.00 L 1353.00 2308.00 L 1395.00 2224.00 L 1294.00 2224.00 L 1226.00 2320.00 Z" stroke-width="1" id="275-25-07" stroke="black"/>
  <path fill="none" d="M 1373.00 2328.00 L 1393.00 2328.00 L 1413.00 2308.00 L 1493.00 2308.00 L 1513.00 2309.00 L 1573.00 2309.00 L 1593.00 2329.00 L 1613.00 2329.00 L 1633.00 2309.00 L 1647.00 2309.00 L 1704.00 2236.00 L 1693.00 2225.00 L 1553.00 2225.00 L 1533.00 2224.00 L 1395.00 2224.00 L 1353.00 2308.00 Z" stroke-width="1" id="275-25-08" stroke="black"/>
  <path fill="none" d="M 1713.00 2309.00 L 1733.00 2310.00 L 1861.00 2310.00 L 1836.32 2226.00 L 1833.00 2226.00 L 1813.00 2225.00 L 1753.00 2225.00 L 1733.00 2245.00 L 1713.00 2245.00 L 1704.00 2236.00 L 1647.00 2309.00 Z" stroke-width="1" id="275-25-09" stroke="black"/>
  <path fill="none" d="M 1931.88 2310.00 L 1919.00 2299.00 L 1931.00 2257.00 L 1953.32 2226.00 L 1836.32 2226.00 L 1861.00 2310.00 Z" stroke-width="1" id="275-25-10" stroke="black"/>
  <path fill="none" d="M 257.80 2303.00 L 257.00 2344.00 L 238.00 2368.00 L 257.00 2381.00 L 256.56 2393.00 L 362.56 2393.00 L 376.00 2303.15 L 373.00 2303.00 Z" stroke-width="1" id="275-26-01" stroke="black"/>
  <path fill="none" d="M 453.00 2393.00 L 473.00 2394.00 L 571.00 2394.00 L 614.00 2305.00 L 613.00 2305.00 L 593.00 2304.00 L 573.00 2324.00 L 533.00 2324.00 L 513.00 2304.00 L 393.00 2304.00 L 376.00 2303.15 L 362.56 2393.00 Z" stroke-width="1" id="275-26-02" stroke="black"/>
  <path fill="none" d="M 773.00 2394.00 L 793.00 2395.00 L 824.00 2395.00 L 867.00 2306.00 L 833.00 2306.00 L 813.00 2305.00 L 614.00 2305.00 L 571.00 2394.00 Z" stroke-width="1" id="275-26-03" stroke="black"/>
  <path fill="none" d="M 973.00 2395.00 L 978.00 2400.00 L 1050.00 2306.00 L 867.00 2306.00 L 824.00 2395.00 Z" stroke-width="1" id="275-26-04" stroke="black"/>
  <path fill="none" d="M 993.00 2415.00 L 1013.00 2395.00 L 1053.00 2395.00 L 1073.00 2415.00 L 1093.00 2415.00 L 1113.00 2396.00 L 1173.00 2396.00 L 1193.00 2416.00 L 1213.00 2416.00 L 1233.00 2396.00 L 1261.00 2396.00 L 1309.00 2308.00 L 1293.00 2308.00 L 1273.00 2327.00 L 1233.00 2327.00 L 1213.00 2307.00 L 1073.00 2307.00 L 1053.00 2306.00 L 1050.00 2306.00 L 978.00 2400.00 Z" stroke-width="1" id="275-26-05" stroke="black"/>
  <path fill="none" d="M 1413.00 2396.00 L 1433.00 2397.00 L 1513.00 2397.00 L 1560.00 2309.00 L 1513.00 2309.00 L 1493.00 2308.00 L 1413.00 2308.00 L 1393.00 2328.00 L 1373.00 2328.00 L 1353.00 2308.00 L 1309.00 2308.00 L 1261.00 2396.00 Z" stroke-width="1" id="275-26-06" stroke="black"/>
  <path fill="none" d="M 1733.00 2397.00 L 1753.00 2398.00 L 1871.00 2398.00 L 1923.88 2310.00 L 1733.00 2310.00 L 1713.00 2309.00 L 1633.00 2309.00 L 1613.00 2329.00 L 1593.00 2329.00 L 1573.00 2309.00 L 1560.00 2309.00 L 1513.00 2397.00 Z" stroke-width="1" id="275-26-07" stroke="black"/>
  <path fill="none" d="M 1873.00 2398.00 L 1893.00 2418.00 L 1913.00 2398.00 L 1957.00 2398.00 L 1967.00 2340.00 L 1931.88 2310.00 L 1923.88 2310.00 L 1871.00 2398.00 Z" stroke-width="1" id="275-26-08" stroke="black"/>
  <path fill="none" d="M 256.56 2393.00 L 255.00 2436.00 L 237.00 2452.00 L 236.00 2493.00 L 258.00 2493.00 L 257.96 2494.04 L 273.00 2479.00 L 293.00 2480.00 L 363.00 2480.00 L 394.00 2393.00 Z" stroke-width="1" id="275-27-01" stroke="black"/>
  <path fill="none" d="M 373.00 2480.00 L 393.00 2460.00 L 413.00 2480.00 L 433.00 2481.00 L 533.00 2481.00 L 553.00 2482.00 L 657.00 2482.00 L 669.00 2394.00 L 473.00 2394.00 L 453.00 2393.00 L 394.00 2393.00 L 363.00 2480.00 Z" stroke-width="1" id="275-27-02" stroke="black"/>
  <path fill="none" d="M 673.00 2482.00 L 693.00 2483.00 L 807.00 2483.00 L 842.00 2395.00 L 793.00 2395.00 L 773.00 2394.00 L 669.00 2394.00 L 657.00 2482.00 Z" stroke-width="1" id="275-27-03" stroke="black"/>
  <path fill="none" d="M 813.00 2483.00 L 833.00 2484.00 L 933.00 2484.00 L 953.00 2485.00 L 993.00 2485.00 L 998.00 2490.00 L 1070.00 2412.00 L 1053.00 2395.00 L 1013.00 2395.00 L 993.00 2415.00 L 973.00 2395.00 L 842.00 2395.00 L 807.00 2483.00 Z" stroke-width="1" id="275-27-04" stroke="black"/>
  <path fill="none" d="M 1013.00 2505.00 L 1033.00 2505.00 L 1053.00 2485.00 L 1073.00 2485.00 L 1093.00 2486.00 L 1213.00 2486.00 L 1233.00 2487.00 L 1333.00 2487.00 L 1353.00 2488.00 L 1385.00 2488.00 L 1389.00 2396.00 L 1233.00 2396.00 L 1213.00 2416.00 L 1193.00 2416.00 L 1173.00 2396.00 L 1113.00 2396.00 L 1093.00 2415.00 L 1073.00 2415.00 L 1070.00 2412.00 L 998.00 2490.00 Z" stroke-width="1" id="275-27-05" stroke="black"/>
  <path fill="none" d="M 1473.00 2488.00 L 1493.00 2489.00 L 1576.00 2489.00 L 1627.00 2397.00 L 1433.00 2397.00 L 1413.00 2396.00 L 1389.00 2396.00 L 1385.00 2488.00 Z" stroke-width="1" id="275-27-06" stroke="black"/>
  <path fill="none" d="M 1613.00 2489.00 L 1633.00 2490.00 L 1644.00 2490.00 L 1679.00 2397.00 L 1627.00 2397.00 L 1576.00 2489.00 Z" stroke-width="1" id="275-27-07" stroke="black"/>
  <path fill="none" d="M 1733.00 2490.00 L 1753.00 2491.00 L 1853.00 2491.00 L 1873.00 2511.00 L 1893.00 2512.00 L 1898.00 2507.00 L 1947.00 2456.00 L 1957.00 2398.00 L 1913.00 2398.00 L 1893.00 2418.00 L 1873.00 2398.00 L 1753.00 2398.00 L 1733.00 2397.00 L 1679.00 2397.00 L 1644.00 2490.00 Z" stroke-width="1" id="275-27-08" stroke="black"/>
  <path fill="none" d="M 273.00 2479.00 L 257.96 2494.04 L 257.00 2517.00 L 237.00 2542.00 L 254.00 2551.00 L 251.54 2578.93 L 253.00 2579.00 L 273.00 2579.00 L 293.00 2559.00 L 296.00 2562.00 L 348.00 2480.00 L 293.00 2480.00 Z" stroke-width="1" id="275-28-01" stroke="black"/>
  <path fill="none" d="M 313.00 2579.00 L 333.00 2580.00 L 393.00 2580.00 L 413.00 2581.00 L 473.00 2581.00 L 493.00 2582.00 L 500.00 2582.00 L 536.00 2481.15 L 533.00 2481.00 L 433.00 2481.00 L 413.00 2480.00 L 393.00 2460.00 L 373.00 2480.00 L 348.00 2480.00 L 296.00 2562.00 Z" stroke-width="1" id="275-28-02" stroke="black"/>
  <path fill="none" d="M 553.00 2582.00 L 573.00 2583.00 L 576.00 2583.00 L 622.00 2482.00 L 553.00 2482.00 L 536.00 2481.15 L 500.00 2582.00 Z" stroke-width="1" id="275-28-03" stroke="black"/>
  <path fill="none" d="M 633.00 2583.00 L 653.00 2584.00 L 713.00 2584.00 L 733.00 2585.00 L 753.00 2565.00 L 772.00 2483.00 L 693.00 2483.00 L 673.00 2482.00 L 622.00 2482.00 L 576.00 2583.00 Z" stroke-width="1" id="275-28-04" stroke="black"/>
  <path fill="none" d="M 793.00 2565.00 L 813.00 2586.00 L 873.00 2586.00 L 893.00 2587.00 L 953.00 2587.00 L 973.00 2588.00 L 1033.00 2588.00 L 1051.00 2588.90 L 1097.00 2486.00 L 1093.00 2486.00 L 1073.00 2485.00 L 1053.00 2485.00 L 1033.00 2505.00 L 1013.00 2505.00 L 993.00 2485.00 L 953.00 2485.00 L 933.00 2484.00 L 833.00 2484.00 L 813.00 2483.00 L 772.00 2483.00 L 753.00 2565.00 Z" stroke-width="1" id="275-28-05" stroke="black"/>
  <path fill="none" d="M 1053.00 2589.00 L 1113.00 2589.00 L 1133.00 2590.00 L 1193.00 2590.00 L 1213.00 2571.00 L 1219.00 2577.00 L 1275.00 2487.00 L 1233.00 2487.00 L 1213.00 2486.00 L 1097.00 2486.00 L 1051.00 2588.90 Z" stroke-width="1" id="275-28-06" stroke="black"/>
  <path fill="none" d="M 1233.00 2591.00 L 1293.00 2591.00 L 1302.00 2591.45 L 1361.00 2488.00 L 1353.00 2488.00 L 1333.00 2487.00 L 1275.00 2487.00 L 1219.00 2577.00 Z" stroke-width="1" id="275-28-07" stroke="black"/>
  <path fill="none" d="M 1313.00 2592.00 L 1333.00 2572.00 L 1353.00 2592.00 L 1373.00 2592.00 L 1393.00 2593.00 L 1453.00 2593.00 L 1473.00 2594.00 L 1533.00 2594.00 L 1553.00 2595.00 L 1613.00 2595.00 L 1633.00 2596.00 L 1634.00 2596.00 L 1686.00 2490.00 L 1633.00 2490.00 L 1613.00 2489.00 L 1493.00 2489.00 L 1473.00 2488.00 L 1361.00 2488.00 L 1302.00 2591.45 Z" stroke-width="1" id="275-28-08" stroke="black"/>
  <path fill="none" d="M 1693.00 2596.00 L 1713.00 2597.00 L 1771.00 2597.00 L 1784.00 2491.00 L 1753.00 2491.00 L 1733.00 2490.00 L 1686.00 2490.00 L 1634.00 2596.00 Z" stroke-width="1" id="275-28-09" stroke="black"/>
  <path fill="none" d="M 1773.00 2597.00 L 1793.00 2598.00 L 1853.00 2598.00 L 1873.00 2599.00 L 1933.00 2599.00 L 1950.10 2599.86 L 1893.00 2564.00 L 1898.00 2507.00 L 1893.00 2512.00 L 1873.00 2511.00 L 1853.00 2491.00 L 1784.00 2491.00 L 1771.00 2597.00 Z" stroke-width="1" id="275-28-10" stroke="black"/>
  <path fill="none" d="M 251.54 2578.93 L 251.00 2585.00 L 252.00 2640.00 L 251.62 2653.00 L 293.00 2653.00 L 313.00 2654.00 L 373.00 2654.00 L 393.00 2655.00 L 453.00 2655.00 L 455.00 2655.10 L 462.00 2581.00 L 413.00 2581.00 L 393.00 2580.00 L 333.00 2580.00 L 313.00 2579.00 L 293.00 2559.00 L 273.00 2579.00 L 253.00 2579.00 Z" stroke-width="1" id="275-29-01" stroke="black"/>
  <path fill="none" d="M 473.00 2656.00 L 493.00 2656.00 L 513.00 2676.00 L 533.00 2657.00 L 553.00 2637.00 L 573.00 2657.00 L 593.00 2657.00 L 613.00 2658.00 L 655.00 2658.00 L 679.00 2584.00 L 653.00 2584.00 L 633.00 2583.00 L 573.00 2583.00 L 553.00 2582.00 L 493.00 2582.00 L 473.00 2581.00 L 462.00 2581.00 L 455.00 2655.10 Z" stroke-width="1" id="275-29-02" stroke="black"/>
  <path fill="none" d="M 673.00 2658.00 L 693.00 2659.00 L 753.00 2659.00 L 765.00 2659.60 L 825.00 2586.00 L 813.00 2586.00 L 793.00 2565.00 L 753.00 2565.00 L 733.00 2585.00 L 713.00 2584.00 L 679.00 2584.00 L 655.00 2658.00 Z" stroke-width="1" id="275-29-03" stroke="black"/>
  <path fill="none" d="M 773.00 2660.00 L 833.00 2660.00 L 853.00 2661.00 L 893.00 2661.00 L 913.00 2662.00 L 973.00 2662.00 L 993.00 2663.00 L 1013.00 2663.00 L 1020.00 2588.00 L 973.00 2588.00 L 953.00 2587.00 L 893.00 2587.00 L 873.00 2586.00 L 825.00 2586.00 L 765.00 2659.60 Z" stroke-width="1" id="275-29-04" stroke="black"/>
  <path fill="none" d="M 1053.00 2663.00 L 1073.00 2664.00 L 1133.00 2664.00 L 1153.00 2665.00 L 1213.00 2665.00 L 1233.00 2666.00 L 1273.00 2666.00 L 1293.00 2667.00 L 1353.00 2667.00 L 1373.00 2668.00 L 1399.00 2668.00 L 1392.00 2592.95 L 1373.00 2592.00 L 1353.00 2592.00 L 1333.00 2572.00 L 1313.00 2592.00 L 1293.00 2591.00 L 1233.00 2591.00 L 1213.00 2571.00 L 1193.00 2590.00 L 1133.00 2590.00 L 1113.00 2589.00 L 1053.00 2589.00 L 1033.00 2588.00 L 1020.00 2588.00 L 1013.00 2663.00 Z" stroke-width="1" id="275-29-05" stroke="black"/>
  <path fill="none" d="M 1433.00 2668.00 L 1453.00 2669.00 L 1513.00 2669.00 L 1533.00 2670.00 L 1553.00 2670.00 L 1557.00 2674.00 L 1604.00 2595.00 L 1553.00 2595.00 L 1533.00 2594.00 L 1473.00 2594.00 L 1453.00 2593.00 L 1393.00 2593.00 L 1392.00 2592.95 L 1399.00 2668.00 Z" stroke-width="1" id="275-29-06" stroke="black"/>
  <path fill="none" d="M 1573.00 2690.00 L 1593.00 2690.00 L 1613.00 2671.00 L 1653.00 2671.00 L 1673.00 2672.00 L 1719.00 2672.00 L 1731.00 2597.00 L 1713.00 2597.00 L 1693.00 2596.00 L 1633.00 2596.00 L 1613.00 2595.00 L 1604.00 2595.00 L 1557.00 2674.00 Z" stroke-width="1" id="275-29-07" stroke="black"/>
  <path fill="none" d="M 1733.00 2672.00 L 1753.00 2673.00 L 1813.00 2673.00 L 1833.00 2674.00 L 1890.00 2674.00 L 1912.00 2599.00 L 1873.00 2599.00 L 1853.00 2598.00 L 1793.00 2598.00 L 1773.00 2597.00 L 1731.00 2597.00 L 1719.00 2672.00 Z" stroke-width="1" id="275-29-08" stroke="black"/>
  <path fill="none" d="M 1893.00 2674.00 L 1913.00 2675.00 L 1953.00 2675.00 L 1973.00 2676.00 L 1980.71 2676.00 L 1979.00 2618.00 L 1950.10 2599.86 L 1933.00 2599.00 L 1912.00 2599.00 L 1890.00 2674.00 Z" stroke-width="1" id="275-29-09" stroke="black"/>
  <path fill="none" d="M 251.62 2653.00 L 250.00 2709.00 L 250.41 2744.00 L 273.00 2744.00 L 293.00 2745.00 L 313.00 2745.00 L 333.00 2765.00 L 353.00 2765.00 L 373.00 2746.00 L 413.00 2746.00 L 429.00 2746.80 L 469.00 2655.80 L 453.00 2655.00 L 393.00 2655.00 L 373.00 2654.00 L 313.00 2654.00 L 293.00 2653.00 Z" stroke-width="1" id="275-30-01" stroke="black"/>
  <path fill="none" d="M 433.00 2747.00 L 473.00 2747.00 L 493.00 2748.00 L 553.00 2748.00 L 573.00 2749.00 L 613.00 2749.00 L 633.00 2750.00 L 642.00 2750.00 L 657.00 2658.00 L 613.00 2658.00 L 593.00 2657.00 L 573.00 2657.00 L 553.00 2637.00 L 533.00 2657.00 L 513.00 2676.00 L 493.00 2656.00 L 473.00 2656.00 L 469.00 2655.80 L 429.00 2746.80 Z" stroke-width="1" id="275-30-02" stroke="black"/>
  <path fill="none" d="M 693.00 2750.00 L 713.00 2751.00 L 717.00 2751.00 L 729.00 2659.00 L 693.00 2659.00 L 673.00 2658.00 L 657.00 2658.00 L 642.00 2750.00 Z" stroke-width="1" id="275-30-03" stroke="black"/>
  <path fill="none" d="M 753.00 2751.00 L 773.00 2752.00 L 813.00 2752.00 L 833.00 2753.00 L 893.00 2753.00 L 913.00 2754.00 L 953.00 2754.00 L 968.00 2754.75 L 999.00 2663.00 L 993.00 2663.00 L 973.00 2662.00 L 913.00 2662.00 L 893.00 2661.00 L 853.00 2661.00 L 833.00 2660.00 L 773.00 2660.00 L 753.00 2659.00 L 729.00 2659.00 L 717.00 2751.00 Z" stroke-width="1" id="275-30-04" stroke="black"/>
  <path fill="none" d="M 973.00 2755.00 L 1033.00 2755.00 L 1041.00 2755.40 L 1104.00 2664.00 L 1073.00 2664.00 L 1053.00 2663.00 L 999.00 2663.00 L 968.00 2754.75 Z" stroke-width="1" id="275-30-05" stroke="black"/>
  <path fill="none" d="M 1053.00 2756.00 L 1093.00 2756.00 L 1113.00 2757.00 L 1147.00 2757.00 L 1200.00 2665.00 L 1153.00 2665.00 L 1133.00 2664.00 L 1104.00 2664.00 L 1041.00 2755.40 Z" stroke-width="1" id="275-30-06" stroke="black"/>
  <path fill="none" d="M 1153.00 2757.00 L 1173.00 2758.00 L 1233.00 2758.00 L 1253.00 2759.00 L 1293.00 2759.00 L 1313.00 2760.00 L 1353.00 2760.00 L 1373.00 2761.00 L 1433.00 2761.00 L 1453.00 2762.00 L 1480.00 2762.00 L 1489.00 2669.00 L 1453.00 2669.00 L 1433.00 2668.00 L 1373.00 2668.00 L 1353.00 2667.00 L 1293.00 2667.00 L 1273.00 2666.00 L 1233.00 2666.00 L 1213.00 2665.00 L 1200.00 2665.00 L 1147.00 2757.00 Z" stroke-width="1" id="275-30-07" stroke="black"/>
  <path fill="none" d="M 1493.00 2762.00 L 1513.00 2763.00 L 1573.00 2763.00 L 1593.00 2764.00 L 1633.00 2764.00 L 1648.00 2764.75 L 1714.00 2672.00 L 1673.00 2672.00 L 1653.00 2671.00 L 1613.00 2671.00 L 1593.00 2690.00 L 1573.00 2690.00 L 1553.00 2670.00 L 1533.00 2670.00 L 1513.00 2669.00 L 1489.00 2669.00 L 1480.00 2762.00 Z" stroke-width="1" id="275-30-08" stroke="black"/>
  <path fill="none" d="M 1653.00 2765.00 L 1693.00 2765.00 L 1713.00 2766.00 L 1733.00 2766.00 L 1753.00 2746.00 L 1773.00 2766.00 L 1793.00 2767.00 L 1807.00 2767.00 L 1808.00 2673.00 L 1753.00 2673.00 L 1733.00 2672.00 L 1714.00 2672.00 L 1648.00 2764.75 Z" stroke-width="1" id="275-30-09" stroke="black"/>
  <path fill="none" d="M 1833.00 2767.00 L 1853.00 2768.00 L 1913.00 2768.00 L 1933.00 2769.00 L 1973.00 2769.00 L 1979.13 2769.68 L 1982.00 2720.00 L 1980.71 2676.00 L 1973.00 2676.00 L 1953.00 2675.00 L 1913.00 2675.00 L 1893.00 2674.00 L 1833.00 2674.00 L 1813.00 2673.00 L 1808.00 2673.00 L 1807.00 2767.00 Z" stroke-width="1" id="275-30-10" stroke="black"/>
  <path fill="none" d="M 250.41 2744.00 L 251.00 2794.00 L 230.00 2821.00 L 256.00 2834.00 L 255.90 2836.00 L 273.00 2836.00 L 293.00 2837.00 L 313.00 2837.00 L 333.00 2838.00 L 353.00 2838.00 L 373.00 2839.00 L 393.00 2839.00 L 394.00 2839.50 L 433.00 2747.00 L 413.00 2746.00 L 373.00 2746.00 L 353.00 2765.00 L 333.00 2765.00 L 313.00 2745.00 L 293.00 2745.00 L 273.00 2744.00 Z" stroke-width="1" id="275-31-01" stroke="black"/>
  <path fill="none" d="M 413.00 2849.00 L 433.00 2845.00 L 453.00 2845.00 L 473.00 2843.00 L 493.00 2843.00 L 513.00 2837.00 L 533.00 2833.00 L 571.00 2833.00 L 619.00 2749.30 L 613.00 2749.00 L 573.00 2749.00 L 553.00 2748.00 L 493.00 2748.00 L 473.00 2747.00 L 433.00 2747.00 L 394.00 2839.50 Z" stroke-width="1" id="275-31-02" stroke="black"/>
  <path fill="none" d="M 573.00 2833.00 L 593.00 2831.00 L 613.00 2833.00 L 633.00 2833.00 L 653.00 2845.00 L 673.00 2846.00 L 693.00 2846.00 L 713.00 2847.00 L 753.00 2847.00 L 773.00 2848.00 L 782.00 2848.00 L 837.00 2753.00 L 833.00 2753.00 L 813.00 2752.00 L 773.00 2752.00 L 753.00 2751.00 L 713.00 2751.00 L 693.00 2750.00 L 633.00 2750.00 L 619.00 2749.30 L 571.00 2833.00 Z" stroke-width="1" id="275-31-03" stroke="black"/>
  <path fill="none" d="M 793.00 2848.00 L 813.00 2849.00 L 833.00 2849.00 L 853.00 2850.00 L 873.00 2850.00 L 893.00 2851.00 L 913.00 2851.00 L 933.00 2832.00 L 936.00 2832.00 L 1005.00 2755.00 L 973.00 2755.00 L 953.00 2754.00 L 913.00 2754.00 L 893.00 2753.00 L 837.00 2753.00 L 782.00 2848.00 Z" stroke-width="1" id="275-31-04" stroke="black"/>
  <path fill="none" d="M 953.00 2832.00 L 973.00 2853.00 L 993.00 2853.00 L 1013.00 2854.00 L 1045.00 2854.00 L 1076.00 2756.00 L 1053.00 2756.00 L 1033.00 2755.00 L 1005.00 2755.00 L 936.00 2832.00 Z" stroke-width="1" id="275-31-05" stroke="black"/>
  <path fill="none" d="M 1053.00 2854.00 L 1073.00 2855.00 L 1093.00 2855.00 L 1100.00 2855.35 L 1127.00 2757.00 L 1113.00 2757.00 L 1093.00 2756.00 L 1076.00 2756.00 L 1045.00 2854.00 Z" stroke-width="1" id="275-31-06" stroke="black"/>
  <path fill="none" d="M 1113.00 2856.00 L 1133.00 2856.00 L 1153.00 2857.00 L 1173.00 2837.00 L 1193.00 2838.00 L 1213.00 2858.00 L 1233.00 2859.00 L 1253.00 2859.00 L 1273.00 2860.00 L 1293.00 2860.00 L 1313.00 2840.00 L 1333.00 2861.00 L 1353.00 2861.00 L 1373.00 2862.00 L 1393.00 2842.00 L 1422.00 2761.00 L 1373.00 2761.00 L 1353.00 2760.00 L 1313.00 2760.00 L 1293.00 2759.00 L 1253.00 2759.00 L 1233.00 2758.00 L 1173.00 2758.00 L 1153.00 2757.00 L 1127.00 2757.00 L 1100.00 2855.35 Z" stroke-width="1" id="275-31-07" stroke="black"/>
  <path fill="none" d="M 1413.00 2863.00 L 1433.00 2863.00 L 1453.00 2864.00 L 1473.00 2864.00 L 1493.00 2865.00 L 1513.00 2845.00 L 1524.00 2856.55 L 1588.00 2763.75 L 1573.00 2763.00 L 1513.00 2763.00 L 1493.00 2762.00 L 1453.00 2762.00 L 1433.00 2761.00 L 1422.00 2761.00 L 1393.00 2842.00 Z" stroke-width="1" id="275-31-08" stroke="black"/>
  <path fill="none" d="M 1533.00 2866.00 L 1553.00 2866.00 L 1573.00 2867.00 L 1613.00 2867.00 L 1620.00 2867.35 L 1674.00 2765.00 L 1653.00 2765.00 L 1633.00 2764.00 L 1593.00 2764.00 L 1588.00 2763.75 L 1524.00 2856.55 Z" stroke-width="1" id="275-31-09" stroke="black"/>
  <path fill="none" d="M 1633.00 2868.00 L 1653.00 2868.00 L 1673.00 2869.00 L 1693.00 2869.00 L 1713.00 2870.00 L 1733.00 2870.00 L 1753.00 2871.00 L 1764.00 2871.00 L 1785.00 2766.60 L 1773.00 2766.00 L 1753.00 2746.00 L 1733.00 2766.00 L 1713.00 2766.00 L 1693.00 2765.00 L 1674.00 2765.00 L 1620.00 2867.35 Z" stroke-width="1" id="275-31-10" stroke="black"/>
  <path fill="none" d="M 1773.00 2871.00 L 1793.00 2872.00 L 1813.00 2872.00 L 1833.00 2873.00 L 1853.00 2873.00 L 1873.00 2874.00 L 1912.69 2874.00 L 1913.00 2867.00 L 1976.00 2824.00 L 1979.13 2769.68 L 1973.00 2769.00 L 1933.00 2769.00 L 1913.00 2768.00 L 1853.00 2768.00 L 1833.00 2767.00 L 1793.00 2767.00 L 1785.00 2766.60 L 1764.00 2871.00 Z" stroke-width="1" id="275-31-11" stroke="black"/>
  <path fill="none" d="M 255.90 2836.00 L 254.00 2873.00 L 242.00 2889.00 L 252.00 2893.00 L 254.30 2921.06 L 273.00 2922.00 L 293.00 2922.00 L 294.00 2923.05 L 370.00 2838.85 L 353.00 2838.00 L 333.00 2838.00 L 313.00 2837.00 L 293.00 2837.00 L 273.00 2836.00 Z" stroke-width="1" id="275-32-01" stroke="black"/>
  <path fill="none" d="M 313.00 2943.00 L 333.00 2943.00 L 353.00 2924.00 L 373.00 2925.00 L 393.00 2925.00 L 413.00 2926.00 L 433.00 2926.00 L 453.00 2927.00 L 473.00 2927.00 L 493.00 2928.00 L 537.00 2833.00 L 533.00 2833.00 L 513.00 2837.00 L 493.00 2843.00 L 473.00 2843.00 L 453.00 2845.00 L 433.00 2845.00 L 413.00 2849.00 L 393.00 2839.00 L 373.00 2839.00 L 370.00 2838.85 L 294.00 2923.05 Z" stroke-width="1" id="275-32-02" stroke="black"/>
  <path fill="none" d="M 513.00 2928.00 L 533.00 2929.00 L 553.00 2930.00 L 573.00 2930.00 L 593.00 2931.00 L 613.00 2931.00 L 633.00 2932.00 L 653.00 2932.00 L 673.00 2933.00 L 693.00 2933.00 L 713.00 2934.00 L 733.00 2934.00 L 753.00 2935.00 L 769.00 2935.80 L 808.00 2848.75 L 793.00 2848.00 L 773.00 2848.00 L 753.00 2847.00 L 713.00 2847.00 L 693.00 2846.00 L 673.00 2846.00 L 653.00 2845.00 L 633.00 2833.00 L 613.00 2833.00 L 593.00 2831.00 L 573.00 2833.00 L 537.00 2833.00 L 493.00 2928.00 Z" stroke-width="1" id="275-32-03" stroke="black"/>
  <path fill="none" d="M 773.00 2936.00 L 793.00 2936.00 L 813.00 2937.00 L 833.00 2937.00 L 853.00 2938.00 L 873.00 2938.00 L 893.00 2939.00 L 913.00 2919.00 L 933.00 2920.00 L 953.00 2941.00 L 973.00 2941.00 L 993.00 2942.00 L 1013.00 2942.00 L 1033.00 2943.00 L 1053.00 2923.00 L 1073.00 2924.00 L 1093.00 2944.00 L 1112.00 2944.95 L 1128.00 2856.00 L 1113.00 2856.00 L 1093.00 2855.00 L 1073.00 2855.00 L 1053.00 2854.00 L 1013.00 2854.00 L 993.00 2853.00 L 973.00 2853.00 L 953.00 2832.00 L 933.00 2832.00 L 913.00 2851.00 L 893.00 2851.00 L 873.00 2850.00 L 853.00 2850.00 L 833.00 2849.00 L 813.00 2849.00 L 808.00 2848.75 L 769.00 2935.80 Z" stroke-width="1" id="275-32-04" stroke="black"/>
  <path fill="none" d="M 1113.00 2945.00 L 1133.00 2946.00 L 1153.00 2946.00 L 1173.00 2947.00 L 1193.00 2947.00 L 1213.00 2948.00 L 1233.00 2928.00 L 1253.00 2949.00 L 1273.00 2949.00 L 1293.00 2950.00 L 1313.00 2950.00 L 1333.00 2951.00 L 1353.00 2952.00 L 1373.00 2952.00 L 1393.00 2953.00 L 1413.00 2953.00 L 1430.00 2953.85 L 1457.00 2864.00 L 1453.00 2864.00 L 1433.00 2863.00 L 1413.00 2863.00 L 1393.00 2842.00 L 1373.00 2862.00 L 1353.00 2861.00 L 1333.00 2861.00 L 1313.00 2840.00 L 1293.00 2860.00 L 1273.00 2860.00 L 1253.00 2859.00 L 1233.00 2859.00 L 1213.00 2858.00 L 1193.00 2838.00 L 1173.00 2837.00 L 1153.00 2857.00 L 1133.00 2856.00 L 1128.00 2856.00 L 1112.00 2944.95 Z" stroke-width="1" id="275-32-05" stroke="black"/>
  <path fill="none" d="M 1433.00 2954.00 L 1453.00 2954.00 L 1473.00 2955.00 L 1493.00 2955.00 L 1513.00 2956.00 L 1533.00 2957.00 L 1553.00 2957.00 L 1573.00 2938.00 L 1593.00 2958.00 L 1613.00 2939.00 L 1633.00 2939.00 L 1653.00 2940.00 L 1673.00 2960.00 L 1693.00 2961.00 L 1713.00 2941.00 L 1723.00 2941.50 L 1743.00 2870.50 L 1733.00 2870.00 L 1713.00 2870.00 L 1693.00 2869.00 L 1673.00 2869.00 L 1653.00 2868.00 L 1633.00 2868.00 L 1613.00 2867.00 L 1573.00 2867.00 L 1553.00 2866.00 L 1533.00 2866.00 L 1513.00 2845.00 L 1493.00 2865.00 L 1473.00 2864.00 L 1457.00 2864.00 L 1430.00 2953.85 Z" stroke-width="1" id="275-32-06" stroke="black"/>
  <path fill="none" d="M 1733.00 2942.00 L 1753.00 2963.00 L 1773.00 2963.00 L 1793.00 2964.00 L 1813.00 2964.00 L 1833.00 2965.00 L 1853.00 2965.00 L 1873.00 2966.00 L 1893.00 2966.00 L 1913.00 2967.00 L 1933.00 2968.00 L 1945.11 2968.00 L 1910.00 2935.00 L 1912.69 2874.00 L 1873.00 2874.00 L 1853.00 2873.00 L 1833.00 2873.00 L 1813.00 2872.00 L 1793.00 2872.00 L 1773.00 2871.00 L 1753.00 2871.00 L 1743.00 2870.50 L 1723.00 2941.50 Z" stroke-width="1" id="275-32-07" stroke="black"/>
  <path fill="none" d="M 254.30 2921.06 L 257.00 2954.00 L 239.00 2966.00 L 259.00 2975.00 L 259.00 3005.30 L 273.00 3006.00 L 293.00 3006.00 L 313.00 3007.00 L 333.00 3007.00 L 353.00 3008.00 L 373.00 3008.00 L 380.00 3008.35 L 408.00 2925.75 L 393.00 2925.00 L 373.00 2925.00 L 353.00 2924.00 L 333.00 2943.00 L 313.00 2943.00 L 293.00 2922.00 L 273.00 2922.00 Z" stroke-width="1" id="275-33-01" stroke="black"/>
  <path fill="none" d="M 393.00 3009.00 L 413.00 3009.00 L 433.00 3010.00 L 453.00 3010.00 L 473.00 3011.00 L 493.00 3011.00 L 513.00 3012.00 L 533.00 3012.00 L 553.00 3013.00 L 573.00 3013.00 L 583.00 3013.50 L 608.00 2931.00 L 593.00 2931.00 L 573.00 2930.00 L 553.00 2930.00 L 533.00 2929.00 L 513.00 2928.00 L 493.00 2928.00 L 473.00 2927.00 L 453.00 2927.00 L 433.00 2926.00 L 413.00 2926.00 L 408.00 2925.75 L 380.00 3008.35 Z" stroke-width="1" id="275-33-02" stroke="black"/>
  <path fill="none" d="M 593.00 3014.00 L 613.00 3014.00 L 633.00 3015.00 L 653.00 3015.00 L 672.00 3015.95 L 727.00 2934.00 L 713.00 2934.00 L 693.00 2933.00 L 673.00 2933.00 L 653.00 2932.00 L 633.00 2932.00 L 613.00 2931.00 L 608.00 2931.00 L 583.00 3013.50 Z" stroke-width="1" id="275-33-03" stroke="black"/>
  <path fill="none" d="M 673.00 3016.00 L 693.00 3036.00 L 713.00 3037.00 L 733.00 3017.00 L 753.00 3018.00 L 773.00 2998.00 L 793.00 3019.00 L 813.00 3019.00 L 828.00 3019.75 L 870.00 2938.00 L 853.00 2938.00 L 833.00 2937.00 L 813.00 2937.00 L 793.00 2936.00 L 773.00 2936.00 L 753.00 2935.00 L 733.00 2934.00 L 727.00 2934.00 L 672.00 3015.95 Z" stroke-width="1" id="275-33-04" stroke="black"/>
  <path fill="none" d="M 833.00 3020.00 L 853.00 3021.00 L 873.00 3021.00 L 893.00 3022.00 L 913.00 3022.00 L 933.00 3023.00 L 953.00 3023.00 L 963.00 3023.50 L 989.00 2941.80 L 973.00 2941.00 L 953.00 2941.00 L 933.00 2920.00 L 913.00 2919.00 L 893.00 2939.00 L 873.00 2938.00 L 870.00 2938.00 L 828.00 3019.75 Z" stroke-width="1" id="275-33-05" stroke="black"/>
  <path fill="none" d="M 973.00 3024.00 L 993.00 3024.00 L 1013.00 3025.00 L 1033.00 3025.00 L 1053.00 3026.00 L 1073.00 3026.00 L 1093.00 3027.00 L 1105.00 3027.00 L 1100.00 2944.35 L 1093.00 2944.00 L 1073.00 2924.00 L 1053.00 2923.00 L 1033.00 2943.00 L 1013.00 2942.00 L 993.00 2942.00 L 989.00 2941.80 L 963.00 3023.50 Z" stroke-width="1" id="275-33-06" stroke="black"/>
  <path fill="none" d="M 1113.00 3027.00 L 1133.00 3028.00 L 1153.00 3028.00 L 1173.00 3029.00 L 1193.00 3029.00 L 1213.00 3030.00 L 1233.00 3030.00 L 1253.00 3031.00 L 1273.00 3031.00 L 1293.00 3032.00 L 1313.00 3032.00 L 1333.00 3033.00 L 1353.00 3033.00 L 1373.00 3034.00 L 1393.00 3034.00 L 1413.00 3035.00 L 1433.00 3035.00 L 1453.00 3036.00 L 1473.00 3036.00 L 1493.00 2955.00 L 1473.00 2955.00 L 1453.00 2954.00 L 1433.00 2954.00 L 1413.00 2953.00 L 1393.00 2953.00 L 1373.00 2952.00 L 1353.00 2952.00 L 1333.00 2951.00 L 1313.00 2950.00 L 1293.00 2950.00 L 1273.00 2949.00 L 1253.00 2949.00 L 1233.00 2928.00 L 1213.00 2948.00 L 1193.00 2947.00 L 1173.00 2947.00 L 1153.00 2946.00 L 1133.00 2946.00 L 1113.00 2945.00 L 1100.00 2944.35 L 1105.00 3027.00 Z" stroke-width="1" id="275-33-07" stroke="black"/>
  <path fill="none" d="M 1493.00 3037.00 L 1513.00 3038.00 L 1520.00 3038.00 L 1586.00 2951.00 L 1573.00 2938.00 L 1553.00 2957.00 L 1533.00 2957.00 L 1513.00 2956.00 L 1493.00 2955.00 L 1473.00 3036.00 Z" stroke-width="1" id="275-33-08" stroke="black"/>
  <path fill="none" d="M 1533.00 3038.00 L 1553.00 3019.00 L 1573.00 3019.00 L 1593.00 3040.00 L 1613.00 3040.00 L 1633.00 3041.00 L 1653.00 3041.00 L 1655.00 3041.10 L 1682.00 2960.45 L 1673.00 2960.00 L 1653.00 2940.00 L 1633.00 2939.00 L 1613.00 2939.00 L 1593.00 2958.00 L 1586.00 2951.00 L 1520.00 3038.00 Z" stroke-width="1" id="275-33-09" stroke="black"/>
  <path fill="none" d="M 1673.00 3042.00 L 1693.00 3022.00 L 1713.00 3023.00 L 1733.00 3043.00 L 1753.00 3044.00 L 1773.00 3044.00 L 1793.00 3045.00 L 1813.00 3045.00 L 1833.00 3046.00 L 1853.00 3046.00 L 1873.00 3047.00 L 1893.00 3047.00 L 1913.00 3048.00 L 1933.00 3048.00 L 1953.00 3049.00 L 1963.99 3049.00 L 1960.00 2982.00 L 1945.11 2968.00 L 1933.00 2968.00 L 1913.00 2967.00 L 1893.00 2966.00 L 1873.00 2966.00 L 1853.00 2965.00 L 1833.00 2965.00 L 1813.00 2964.00 L 1793.00 2964.00 L 1773.00 2963.00 L 1753.00 2963.00 L 1733.00 2942.00 L 1713.00 2941.00 L 1693.00 2961.00 L 1682.00 2960.45 L 1655.00 3041.10 Z" stroke-width="1" id="275-33-10" stroke="black"/>
  <path fill="none" d="M 259.00 3005.30 L 259.00 3041.00 L 242.00 3056.00 L 242.00 3087.00 L 261.00 3096.00 L 260.90 3097.10 L 273.00 3085.00 L 293.00 3086.00 L 313.00 3086.00 L 333.00 3087.00 L 353.00 3088.00 L 373.00 3088.00 L 393.00 3089.00 L 413.00 3089.00 L 424.00 3089.55 L 427.00 3009.70 L 413.00 3009.00 L 393.00 3009.00 L 373.00 3008.00 L 353.00 3008.00 L 333.00 3007.00 L 313.00 3007.00 L 293.00 3006.00 L 273.00 3006.00 Z" stroke-width="1" id="275-34-01" stroke="black"/>
  <path fill="none" d="M 433.00 3090.00 L 453.00 3091.00 L 473.00 3091.00 L 493.00 3092.00 L 513.00 3093.00 L 533.00 3093.00 L 553.00 3094.00 L 573.00 3094.00 L 580.00 3094.35 L 610.00 3014.00 L 593.00 3014.00 L 573.00 3013.00 L 553.00 3013.00 L 533.00 3012.00 L 513.00 3012.00 L 493.00 3011.00 L 473.00 3011.00 L 453.00 3010.00 L 433.00 3010.00 L 427.00 3009.70 L 424.00 3089.55 Z" stroke-width="1" id="275-34-02" stroke="black"/>
  <path fill="none" d="M 593.00 3095.00 L 613.00 3096.00 L 633.00 3096.00 L 653.00 3097.00 L 693.00 3036.00 L 673.00 3016.00 L 653.00 3015.00 L 633.00 3015.00 L 613.00 3014.00 L 610.00 3014.00 L 580.00 3094.35 Z" stroke-width="1" id="275-34-03" stroke="black"/>
  <path fill="none" d="M 673.00 3097.00 L 693.00 3098.00 L 713.00 3099.00 L 733.00 3099.00 L 753.00 3100.00 L 773.00 3101.00 L 793.00 3101.00 L 813.00 3082.00 L 833.00 3082.00 L 853.00 3103.00 L 873.00 3104.00 L 893.00 3104.00 L 905.00 3104.60 L 924.00 3022.55 L 913.00 3022.00 L 893.00 3022.00 L 873.00 3021.00 L 853.00 3021.00 L 833.00 3020.00 L 813.00 3019.00 L 793.00 3019.00 L 773.00 2998.00 L 753.00 3018.00 L 733.00 3017.00 L 713.00 3037.00 L 693.00 3036.00 L 653.00 3097.00 Z" stroke-width="1" id="275-34-04" stroke="black"/>
  <path fill="none" d="M 913.00 3105.00 L 933.00 3125.00 L 953.00 3126.00 L 973.00 3107.00 L 993.00 3107.00 L 1013.00 3108.00 L 1033.00 3108.00 L 1053.00 3109.00 L 1073.00 3110.00 L 1089.00 3110.00 L 1112.00 3027.00 L 1093.00 3027.00 L 1073.00 3026.00 L 1053.00 3026.00 L 1033.00 3025.00 L 1013.00 3025.00 L 993.00 3024.00 L 973.00 3024.00 L 953.00 3023.00 L 933.00 3023.00 L 924.00 3022.55 L 905.00 3104.60 Z" stroke-width="1" id="275-34-05" stroke="black"/>
  <path fill="none" d="M 1093.00 3110.00 L 1113.00 3111.00 L 1133.00 3112.00 L 1153.00 3112.00 L 1173.00 3093.00 L 1193.00 3093.00 L 1204.00 3104.55 L 1257.00 3031.00 L 1253.00 3031.00 L 1233.00 3030.00 L 1213.00 3030.00 L 1193.00 3029.00 L 1173.00 3029.00 L 1153.00 3028.00 L 1133.00 3028.00 L 1113.00 3027.00 L 1112.00 3027.00 L 1089.00 3110.00 Z" stroke-width="1" id="275-34-06" stroke="black"/>
  <path fill="none" d="M 1213.00 3114.00 L 1233.00 3115.00 L 1253.00 3115.00 L 1273.00 3116.00 L 1293.00 3116.00 L 1313.00 3097.00 L 1370.00 3033.85 L 1353.00 3033.00 L 1333.00 3033.00 L 1313.00 3032.00 L 1293.00 3032.00 L 1273.00 3031.00 L 1257.00 3031.00 L 1204.00 3104.55 Z" stroke-width="1" id="275-34-07" stroke="black"/>
  <path fill="none" d="M 1333.00 3098.00 L 1353.00 3118.00 L 1373.00 3119.00 L 1393.00 3100.00 L 1413.00 3100.00 L 1433.00 3101.00 L 1446.00 3114.00 L 1465.00 3036.00 L 1453.00 3036.00 L 1433.00 3035.00 L 1413.00 3035.00 L 1393.00 3034.00 L 1373.00 3034.00 L 1370.00 3033.85 L 1313.00 3097.00 Z" stroke-width="1" id="275-34-08" stroke="black"/>
  <path fill="none" d="M 1453.00 3121.00 L 1473.00 3122.00 L 1493.00 3123.00 L 1513.00 3123.00 L 1533.00 3124.00 L 1553.00 3124.00 L 1573.00 3125.00 L 1593.00 3106.00 L 1613.00 3126.00 L 1619.00 3126.30 L 1644.00 3041.00 L 1633.00 3041.00 L 1613.00 3040.00 L 1593.00 3040.00 L 1573.00 3019.00 L 1553.00 3019.00 L 1533.00 3038.00 L 1513.00 3038.00 L 1493.00 3037.00 L 1473.00 3036.00 L 1465.00 3036.00 L 1446.00 3114.00 Z" stroke-width="1" id="275-34-09" stroke="black"/>
  <path fill="none" d="M 1633.00 3127.00 L 1653.00 3127.00 L 1673.00 3128.00 L 1693.00 3129.00 L 1713.00 3129.00 L 1733.00 3130.00 L 1753.00 3131.00 L 1773.00 3131.00 L 1793.00 3132.00 L 1813.00 3132.00 L 1833.00 3133.00 L 1849.00 3133.80 L 1867.00 3046.70 L 1853.00 3046.00 L 1833.00 3046.00 L 1813.00 3045.00 L 1793.00 3045.00 L 1773.00 3044.00 L 1753.00 3044.00 L 1733.00 3043.00 L 1713.00 3023.00 L 1693.00 3022.00 L 1673.00 3042.00 L 1653.00 3041.00 L 1644.00 3041.00 L 1619.00 3126.30 Z" stroke-width="1" id="275-34-10" stroke="black"/>
  <path fill="none" d="M 1853.00 3134.00 L 1873.00 3134.00 L 1893.00 3135.00 L 1913.00 3135.00 L 1933.00 3136.00 L 1953.00 3137.00 L 1956.12 3137.00 L 1965.00 3066.00 L 1963.99 3049.00 L 1953.00 3049.00 L 1933.00 3048.00 L 1913.00 3048.00 L 1893.00 3047.00 L 1873.00 3047.00 L 1867.00 3046.70 L 1849.00 3133.80 Z" stroke-width="1" id="275-34-11" stroke="black"/>
  <path fill="none" d="M 273.00 3085.00 L 260.90 3097.10 L 259.00 3119.00 L 246.00 3141.00 L 306.00 3148.00 L 308.00 3181.00 L 424.00 3180.00 L 550.00 3182.15 L 559.00 3094.00 L 553.00 3094.00 L 533.00 3093.00 L 513.00 3093.00 L 493.00 3092.00 L 473.00 3091.00 L 453.00 3091.00 L 433.00 3090.00 L 413.00 3089.00 L 393.00 3089.00 L 373.00 3088.00 L 353.00 3088.00 L 333.00 3087.00 L 313.00 3086.00 L 293.00 3086.00 Z" stroke-width="1" id="275-35-01" stroke="black"/>
  <path fill="none" d="M 607.00 3183.12 L 633.00 3096.00 L 613.00 3096.00 L 593.00 3095.00 L 573.00 3094.00 L 559.00 3094.00 L 550.00 3182.15 Z" stroke-width="1" id="275-35-02" stroke="black"/>
  <path fill="none" d="M 853.00 3187.31 L 866.00 3103.65 L 853.00 3103.00 L 833.00 3082.00 L 813.00 3082.00 L 793.00 3101.00 L 773.00 3101.00 L 753.00 3100.00 L 733.00 3099.00 L 713.00 3099.00 L 693.00 3098.00 L 673.00 3097.00 L 653.00 3097.00 L 633.00 3096.00 L 607.00 3183.12 Z" stroke-width="1" id="275-35-03" stroke="black"/>
  <path fill="none" d="M 1087.00 3191.30 L 1131.00 3111.90 L 1113.00 3111.00 L 1093.00 3110.00 L 1073.00 3110.00 L 1053.00 3109.00 L 1033.00 3108.00 L 1013.00 3108.00 L 993.00 3107.00 L 973.00 3107.00 L 953.00 3126.00 L 933.00 3125.00 L 913.00 3105.00 L 893.00 3104.00 L 873.00 3104.00 L 866.00 3103.65 L 853.00 3187.31 Z" stroke-width="1" id="275-35-04" stroke="black"/>
  <path fill="none" d="M 1128.00 3192.00 L 1210.00 3193.42 L 1234.00 3115.00 L 1233.00 3115.00 L 1213.00 3114.00 L 1193.00 3093.00 L 1173.00 3093.00 L 1153.00 3112.00 L 1133.00 3112.00 L 1131.00 3111.90 L 1087.00 3191.30 Z" stroke-width="1" id="275-35-05" stroke="black"/>
  <path fill="none" d="M 1338.00 3195.64 L 1364.00 3118.55 L 1353.00 3118.00 L 1333.00 3098.00 L 1313.00 3097.00 L 1293.00 3116.00 L 1273.00 3116.00 L 1253.00 3115.00 L 1234.00 3115.00 L 1210.00 3193.42 Z" stroke-width="1" id="275-35-06" stroke="black"/>
  <path fill="none" d="M 1704.36 3202.00 L 1712.36 3202.00 L 1710.00 3129.00 L 1693.00 3129.00 L 1673.00 3128.00 L 1653.00 3127.00 L 1633.00 3127.00 L 1613.00 3126.00 L 1593.00 3106.00 L 1573.00 3125.00 L 1553.00 3124.00 L 1533.00 3124.00 L 1513.00 3123.00 L 1493.00 3123.00 L 1473.00 3122.00 L 1453.00 3121.00 L 1433.00 3101.00 L 1413.00 3100.00 L 1393.00 3100.00 L 1373.00 3119.00 L 1364.00 3118.55 L 1338.00 3195.64 Z" stroke-width="1" id="275-35-07" stroke="black"/>
  <path fill="none" d="M 1774.73 3202.00 L 1886.73 3193.20 L 1897.00 3135.00 L 1893.00 3135.00 L 1873.00 3134.00 L 1853.00 3134.00 L 1833.00 3133.00 L 1813.00 3132.00 L 1793.00 3132.00 L 1773.00 3131.00 L 1753.00 3131.00 L 1733.00 3130.00 L 1713.00 3129.00 L 1710.00 3129.00 L 1712.36 3202.00 Z" stroke-width="1" id="275-35-08" stroke="black"/>
  <path fill="none" d="M 1953.00 3188.00 L 1955.00 3146.00 L 1956.12 3137.00 L 1953.00 3137.00 L 1933.00 3136.00 L 1913.00 3135.00 L 1897.00 3135.00 L 1886.73 3193.20 Z" stroke-width="1" id="275-35-09" stroke="black"/>
</svg>
