<?xml version="1.0" encoding="UTF-8"?>
<svg xmlns:xlink="http://www.w3.org/1999/xlink" xmlns="http://www.w3.org/2000/svg" contentScriptType="text/ecmascript" width="2077px" zoomAndPan="magnify" contentStyleType="text/css" viewBox="0 0 2077 3295" height="3295px" preserveAspectRatio="xMidYMid meet" version="1.0">
  <path fill="none" d="M 178.00 162.00 L 155.00 194.00 L 164.00 228.00 L 207.42 238.00 L 215.00 238.00 L 235.00 237.00 L 275.00 237.00 L 295.00 236.00 L 315.00 236.00 L 319.00 240.00 L 370.00 152.41 L 196.00 163.00 Z" stroke-width="1" id="276-02-01" stroke="black"/>
  <path fill="none" d="M 335.00 256.00 L 355.00 255.00 L 395.00 255.00 L 415.00 254.00 L 455.00 254.00 L 475.00 253.00 L 515.00 253.00 L 535.00 252.00 L 575.00 252.00 L 595.00 231.00 L 607.00 231.00 L 615.00 158.84 L 426.00 149.00 L 370.00 152.41 L 319.00 240.00 Z" stroke-width="1" id="276-02-02" stroke="black"/>
  <path fill="none" d="M 615.00 231.00 L 635.00 251.00 L 655.00 250.00 L 695.00 250.00 L 715.00 249.00 L 755.00 249.00 L 775.00 248.00 L 815.00 248.00 L 835.00 247.00 L 861.00 247.00 L 885.00 161.61 L 791.00 168.00 L 615.00 158.84 L 607.00 231.00 Z" stroke-width="1" id="276-02-03" stroke="black"/>
  <path fill="none" d="M 875.00 247.00 L 895.00 246.00 L 935.00 246.00 L 955.00 245.00 L 995.00 245.00 L 1015.00 244.00 L 1035.00 244.00 L 1055.00 224.00 L 1060.00 228.75 L 1116.00 145.91 L 885.00 161.61 L 861.00 247.00 Z" stroke-width="1" id="276-02-04" stroke="black"/>
  <path fill="none" d="M 1075.00 243.00 L 1115.00 243.00 L 1135.00 242.00 L 1175.00 242.00 L 1195.00 241.00 L 1235.00 241.00 L 1255.00 240.00 L 1295.00 240.00 L 1315.00 239.00 L 1355.00 239.00 L 1375.00 238.00 L 1415.00 238.00 L 1435.00 237.00 L 1475.00 237.00 L 1495.00 236.00 L 1535.00 236.00 L 1555.00 235.00 L 1595.00 235.00 L 1609.00 234.30 L 1628.00 160.33 L 1203.00 140.00 L 1116.00 145.91 L 1060.00 228.75 Z" stroke-width="1" id="276-02-05" stroke="black"/>
  <path fill="none" d="M 1615.00 234.00 L 1655.00 234.00 L 1675.00 233.00 L 1715.00 233.00 L 1735.00 232.00 L 1775.00 232.00 L 1795.00 231.00 L 1835.00 231.00 L 1841.00 230.70 L 1854.00 175.09 L 1642.00 161.00 L 1628.00 160.33 L 1609.00 234.30 Z" stroke-width="1" id="276-02-06" stroke="black"/>
  <path fill="none" d="M 1855.00 230.00 L 1895.00 230.00 L 1915.00 229.00 L 1955.00 229.00 L 1975.00 228.00 L 1984.00 228.00 L 1973.00 183.00 L 1854.00 175.09 L 1841.00 230.70 Z" stroke-width="1" id="276-02-07" stroke="black"/>
  <path fill="none" d="M 344.92 346.00 L 346.00 385.00 L 328.00 412.00 L 344.00 422.00 L 344.00 423.00 L 355.00 423.00 L 375.00 402.00 L 475.00 402.00 L 495.00 401.00 L 575.00 401.00 L 595.00 400.00 L 607.00 400.00 L 620.00 334.00 L 555.00 334.00 L 535.00 338.00 L 515.00 336.00 L 475.00 336.00 L 455.00 340.00 L 435.00 350.00 L 375.00 350.00 L 355.00 346.00 Z" stroke-width="1" id="276-04-01" stroke="black"/>
  <path fill="none" d="M 695.00 400.00 L 715.00 399.00 L 751.00 399.00 L 778.00 334.00 L 620.00 334.00 L 607.00 400.00 Z" stroke-width="1" id="276-04-02" stroke="black"/>
  <path fill="none" d="M 795.00 399.00 L 815.00 398.00 L 895.00 398.00 L 915.00 397.00 L 946.00 397.00 L 970.00 334.50 L 955.00 324.00 L 935.00 322.00 L 915.00 320.00 L 895.00 312.00 L 875.00 316.00 L 855.00 326.00 L 835.00 334.00 L 778.00 334.00 L 751.00 399.00 Z" stroke-width="1" id="276-04-03" stroke="black"/>
  <path fill="none" d="M 1015.00 397.00 L 1035.00 396.00 L 1075.00 396.00 L 1095.00 416.00 L 1115.00 416.00 L 1135.00 415.00 L 1155.00 395.00 L 1235.00 395.00 L 1255.00 394.00 L 1335.00 394.00 L 1347.00 405.40 L 1382.00 328.00 L 1295.00 328.00 L 1275.00 326.00 L 1255.00 330.00 L 1155.00 330.00 L 1135.00 328.00 L 1115.00 328.00 L 1095.00 332.00 L 1075.00 332.00 L 1055.00 336.00 L 1015.00 336.00 L 995.00 342.00 L 975.00 338.00 L 970.00 334.50 L 946.00 397.00 Z" stroke-width="1" id="276-04-04" stroke="black"/>
  <path fill="none" d="M 1355.00 413.00 L 1375.00 413.00 L 1395.00 393.00 L 1435.00 393.00 L 1455.00 392.00 L 1471.00 392.00 L 1508.00 324.00 L 1415.00 324.00 L 1395.00 328.00 L 1382.00 328.00 L 1347.00 405.40 Z" stroke-width="1" id="276-04-05" stroke="black"/>
  <path fill="none" d="M 1555.00 392.00 L 1575.00 391.00 L 1588.00 391.00 L 1596.00 318.00 L 1575.00 318.00 L 1555.00 316.00 L 1535.00 324.00 L 1508.00 324.00 L 1471.00 392.00 Z" stroke-width="1" id="276-04-06" stroke="black"/>
  <path fill="none" d="M 1655.00 391.00 L 1664.32 399.86 L 1685.05 399.95 L 1695.00 390.00 L 1775.00 390.00 L 1795.00 389.00 L 1875.00 389.00 L 1887.49 400.87 L 1917.00 401.00 L 1926.00 358.00 L 1915.15 320.01 L 1915.00 320.00 L 1735.00 320.00 L 1715.00 318.00 L 1596.00 318.00 L 1588.00 391.00 Z" stroke-width="1" id="276-04-07" stroke="black"/>
  <path fill="none" d="M 344.00 423.00 L 344.00 464.00 L 326.00 478.00 L 346.91 489.40 L 355.00 489.00 L 415.00 489.00 L 435.00 488.00 L 515.00 488.00 L 528.00 513.35 L 611.00 400.00 L 595.00 400.00 L 575.00 401.00 L 495.00 401.00 L 475.00 402.00 L 375.00 402.00 L 355.00 423.00 Z" stroke-width="1" id="276-05-01" stroke="black"/>
  <path fill="none" d="M 535.00 527.00 L 555.00 527.00 L 575.00 507.00 L 595.00 507.00 L 615.00 486.00 L 695.00 486.00 L 715.00 505.00 L 728.00 492.00 L 719.00 399.00 L 715.00 399.00 L 695.00 400.00 L 611.00 400.00 L 528.00 513.35 Z" stroke-width="1" id="276-05-02" stroke="black"/>
  <path fill="none" d="M 735.00 485.00 L 775.00 485.00 L 795.00 484.00 L 875.00 484.00 L 895.00 483.00 L 944.00 483.00 L 953.00 397.00 L 915.00 397.00 L 895.00 398.00 L 815.00 398.00 L 795.00 399.00 L 719.00 399.00 L 728.00 492.00 Z" stroke-width="1" id="276-05-03" stroke="black"/>
  <path fill="none" d="M 955.00 483.00 L 975.00 482.00 L 1055.00 482.00 L 1075.00 481.00 L 1082.00 481.00 L 1116.00 415.95 L 1115.00 416.00 L 1095.00 416.00 L 1075.00 396.00 L 1035.00 396.00 L 1015.00 397.00 L 953.00 397.00 L 944.00 483.00 Z" stroke-width="1" id="276-05-04" stroke="black"/>
  <path fill="none" d="M 1135.00 481.00 L 1155.00 480.00 L 1175.00 480.00 L 1192.00 395.00 L 1155.00 395.00 L 1135.00 415.00 L 1116.00 415.95 L 1082.00 481.00 Z" stroke-width="1" id="276-05-05" stroke="black"/>
  <path fill="none" d="M 1235.00 480.00 L 1255.00 479.00 L 1315.00 479.00 L 1335.00 478.00 L 1415.00 478.00 L 1435.00 477.00 L 1445.00 477.00 L 1453.00 392.10 L 1435.00 393.00 L 1395.00 393.00 L 1375.00 413.00 L 1355.00 413.00 L 1335.00 394.00 L 1255.00 394.00 L 1235.00 395.00 L 1192.00 395.00 L 1175.00 480.00 Z" stroke-width="1" id="276-05-06" stroke="black"/>
  <path fill="none" d="M 430.00 504.00 L 371.00 555.00 L 370.53 574.22 L 375.00 574.00 L 455.00 574.00 L 475.00 573.00 L 483.00 573.00 L 509.00 488.00 L 445.00 488.00 L 429.00 503.83 Z" stroke-width="1" id="276-06-01" stroke="black"/>
  <path fill="none" d="M 555.00 573.00 L 575.00 572.00 L 675.00 572.00 L 676.00 571.95 L 715.00 505.00 L 695.00 486.00 L 615.00 486.00 L 595.00 507.00 L 575.00 507.00 L 555.00 527.00 L 535.00 527.00 L 515.00 488.00 L 509.00 488.00 L 483.00 573.00 Z" stroke-width="1" id="276-06-02" stroke="black"/>
  <path fill="none" d="M 695.00 571.00 L 775.00 571.00 L 795.00 570.00 L 816.00 570.00 L 881.00 483.70 L 875.00 484.00 L 795.00 484.00 L 775.00 485.00 L 735.00 485.00 L 715.00 505.00 L 676.00 571.95 Z" stroke-width="1" id="276-06-03" stroke="black"/>
  <path fill="none" d="M 875.00 570.00 L 895.00 569.00 L 975.00 569.00 L 995.00 568.00 L 1084.00 568.00 L 1120.00 481.00 L 1075.00 481.00 L 1055.00 482.00 L 975.00 482.00 L 955.00 483.00 L 895.00 483.00 L 881.00 483.70 L 816.00 570.00 Z" stroke-width="1" id="276-06-04" stroke="black"/>
  <path fill="none" d="M 1095.00 568.00 L 1115.00 567.00 L 1195.00 567.00 L 1215.00 566.00 L 1295.00 566.00 L 1315.00 565.00 L 1395.00 565.00 L 1415.00 564.00 L 1433.00 564.00 L 1458.00 477.00 L 1435.00 477.00 L 1415.00 478.00 L 1335.00 478.00 L 1315.00 479.00 L 1255.00 479.00 L 1235.00 480.00 L 1155.00 480.00 L 1135.00 481.00 L 1120.00 481.00 L 1084.00 568.00 Z" stroke-width="1" id="276-06-05" stroke="black"/>
  <path fill="none" d="M 1495.00 564.00 L 1515.00 563.00 L 1615.00 563.00 L 1635.00 562.00 L 1649.00 562.00 L 1668.00 486.38 L 1533.06 476.10 L 1515.00 477.00 L 1458.00 477.00 L 1433.00 564.00 Z" stroke-width="1" id="276-06-06" stroke="black"/>
  <path fill="none" d="M 1655.00 562.00 L 1675.00 582.00 L 1695.00 582.00 L 1715.00 562.00 L 1735.00 561.00 L 1741.00 561.00 L 1752.00 492.77 L 1668.00 486.38 L 1649.00 562.00 Z" stroke-width="1" id="276-06-07" stroke="black"/>
  <path fill="none" d="M 1815.00 561.00 L 1835.00 560.00 L 1852.00 560.00 L 1831.00 513.97 L 1755.00 493.00 L 1752.00 492.77 L 1741.00 561.00 Z" stroke-width="1" id="276-06-08" stroke="black"/>
  <path fill="none" d="M 1909.82 560.00 L 1900.00 533.00 L 1831.00 513.97 L 1852.00 560.00 Z" stroke-width="1" id="276-06-09" stroke="black"/>
  <path fill="none" d="M 370.53 574.22 L 370.00 596.00 L 346.00 632.00 L 332.00 642.00 L 359.00 653.00 L 358.69 657.00 L 495.00 657.00 L 515.00 656.00 L 518.00 656.00 L 545.00 573.00 L 475.00 573.00 L 455.00 574.00 L 375.00 574.00 Z" stroke-width="1" id="276-07-01" stroke="black"/>
  <path fill="none" d="M 655.00 656.00 L 675.00 655.00 L 771.00 655.00 L 781.00 570.70 L 775.00 571.00 L 695.00 571.00 L 675.00 572.00 L 575.00 572.00 L 555.00 573.00 L 545.00 573.00 L 518.00 656.00 Z" stroke-width="1" id="276-07-02" stroke="black"/>
  <path fill="none" d="M 835.00 655.00 L 855.00 654.00 L 995.00 654.00 L 1015.00 653.00 L 1154.00 653.00 L 1174.00 567.00 L 1115.00 567.00 L 1095.00 568.00 L 995.00 568.00 L 975.00 569.00 L 895.00 569.00 L 875.00 570.00 L 795.00 570.00 L 781.00 570.70 L 771.00 655.00 Z" stroke-width="1" id="276-07-03" stroke="black"/>
  <path fill="none" d="M 1175.00 653.00 L 1195.00 652.00 L 1339.00 652.00 L 1347.00 565.00 L 1315.00 565.00 L 1295.00 566.00 L 1215.00 566.00 L 1195.00 567.00 L 1174.00 567.00 L 1154.00 653.00 Z" stroke-width="1" id="276-07-04" stroke="black"/>
  <path fill="none" d="M 1355.00 652.00 L 1375.00 651.00 L 1415.00 651.00 L 1420.00 656.00 L 1473.00 564.00 L 1415.00 564.00 L 1395.00 565.00 L 1347.00 565.00 L 1339.00 652.00 Z" stroke-width="1" id="276-07-05" stroke="black"/>
  <path fill="none" d="M 1435.00 671.00 L 1475.00 671.00 L 1495.00 651.00 L 1514.00 651.00 L 1527.00 563.00 L 1515.00 563.00 L 1495.00 564.00 L 1473.00 564.00 L 1420.00 656.00 Z" stroke-width="1" id="276-07-06" stroke="black"/>
  <path fill="none" d="M 1515.00 651.00 L 1535.00 650.00 L 1623.00 650.00 L 1664.00 571.00 L 1655.00 562.00 L 1635.00 562.00 L 1615.00 563.00 L 1527.00 563.00 L 1514.00 651.00 Z" stroke-width="1" id="276-07-07" stroke="black"/>
  <path fill="none" d="M 1688.00 650.00 L 1743.00 561.00 L 1735.00 561.00 L 1715.00 562.00 L 1695.00 582.00 L 1675.00 582.00 L 1664.00 571.00 L 1623.00 650.00 Z" stroke-width="1" id="276-07-08" stroke="black"/>
  <path fill="none" d="M 1695.00 650.00 L 1715.00 649.00 L 1756.00 649.00 L 1819.00 560.80 L 1815.00 561.00 L 1743.00 561.00 L 1688.00 650.00 Z" stroke-width="1" id="276-07-09" stroke="black"/>
  <path fill="none" d="M 1855.00 649.00 L 1875.00 648.00 L 1945.03 648.00 L 1932.00 621.00 L 1909.82 560.00 L 1835.00 560.00 L 1819.00 560.80 L 1756.00 649.00 Z" stroke-width="1" id="276-07-10" stroke="black"/>
  <path fill="none" d="M 358.69 657.00 L 355.00 704.00 L 329.00 721.00 L 351.00 738.00 L 351.38 745.00 L 455.00 745.00 L 475.00 744.00 L 555.00 744.00 L 575.00 784.00 L 587.00 760.00 L 602.00 656.00 L 515.00 656.00 L 495.00 657.00 Z" stroke-width="1" id="276-08-01" stroke="black"/>
  <path fill="none" d="M 595.00 744.00 L 615.00 744.00 L 635.00 743.00 L 644.00 743.00 L 663.00 655.60 L 655.00 656.00 L 602.00 656.00 L 587.00 760.00 Z" stroke-width="1" id="276-08-02" stroke="black"/>
  <path fill="none" d="M 686.00 743.00 L 760.00 655.00 L 675.00 655.00 L 663.00 655.60 L 644.00 743.00 Z" stroke-width="1" id="276-08-03" stroke="black"/>
  <path fill="none" d="M 775.00 743.00 L 795.00 742.00 L 909.00 742.00 L 944.00 654.00 L 855.00 654.00 L 835.00 655.00 L 760.00 655.00 L 686.00 743.00 Z" stroke-width="1" id="276-08-04" stroke="black"/>
  <path fill="none" d="M 935.00 742.00 L 955.00 741.00 L 1075.00 741.00 L 1149.00 653.00 L 1015.00 653.00 L 995.00 654.00 L 944.00 654.00 L 909.00 742.00 Z" stroke-width="1" id="276-08-05" stroke="black"/>
  <path fill="none" d="M 1095.00 761.00 L 1115.00 760.00 L 1135.00 740.00 L 1204.00 740.00 L 1235.00 652.00 L 1195.00 652.00 L 1175.00 653.00 L 1149.00 653.00 L 1075.00 741.00 Z" stroke-width="1" id="276-08-06" stroke="black"/>
  <path fill="none" d="M 1255.00 740.00 L 1275.00 739.00 L 1402.00 739.00 L 1436.00 671.00 L 1435.00 671.00 L 1415.00 651.00 L 1375.00 651.00 L 1355.00 652.00 L 1235.00 652.00 L 1204.00 740.00 Z" stroke-width="1" id="276-08-07" stroke="black"/>
  <path fill="none" d="M 1415.00 739.00 L 1435.00 738.00 L 1455.00 738.00 L 1472.00 755.00 L 1515.00 651.00 L 1495.00 651.00 L 1475.00 671.00 L 1436.00 671.00 L 1402.00 739.00 Z" stroke-width="1" id="276-08-08" stroke="black"/>
  <path fill="none" d="M 1475.00 758.00 L 1495.00 778.00 L 1515.00 758.00 L 1535.00 738.00 L 1575.00 738.00 L 1595.00 737.00 L 1624.00 737.00 L 1643.00 650.00 L 1535.00 650.00 L 1515.00 651.00 L 1472.00 755.00 Z" stroke-width="1" id="276-08-09" stroke="black"/>
  <path fill="none" d="M 1715.00 737.00 L 1735.00 736.00 L 1851.00 736.00 L 1889.03 648.00 L 1875.00 648.00 L 1855.00 649.00 L 1715.00 649.00 L 1695.00 650.00 L 1643.00 650.00 L 1624.00 737.00 Z" stroke-width="1" id="276-08-10" stroke="black"/>
  <path fill="none" d="M 1875.00 736.00 L 1895.00 735.00 L 1967.52 735.00 L 1974.00 708.00 L 1945.03 648.00 L 1889.03 648.00 L 1851.00 736.00 Z" stroke-width="1" id="276-08-11" stroke="black"/>
  <path fill="none" d="M 351.38 745.00 L 354.00 793.00 L 333.00 818.00 L 353.00 823.00 L 352.53 832.00 L 355.00 832.00 L 375.00 831.00 L 437.00 831.00 L 451.00 745.00 Z" stroke-width="1" id="276-09-01" stroke="black"/>
  <path fill="none" d="M 475.00 831.00 L 495.00 830.00 L 575.00 830.00 L 595.00 829.00 L 629.00 829.00 L 650.00 743.00 L 635.00 743.00 L 615.00 744.00 L 595.00 744.00 L 575.00 784.00 L 555.00 744.00 L 475.00 744.00 L 455.00 745.00 L 451.00 745.00 L 437.00 831.00 Z" stroke-width="1" id="276-09-02" stroke="black"/>
  <path fill="none" d="M 675.00 829.00 L 695.00 828.00 L 795.00 828.00 L 815.00 827.00 L 895.00 827.00 L 915.00 826.00 L 935.00 846.00 L 955.00 826.00 L 973.00 826.00 L 1010.00 741.00 L 955.00 741.00 L 935.00 742.00 L 795.00 742.00 L 775.00 743.00 L 650.00 743.00 L 629.00 829.00 Z" stroke-width="1" id="276-09-03" stroke="black"/>
  <path fill="none" d="M 975.00 826.00 L 995.00 846.00 L 1015.00 845.00 L 1024.00 854.00 L 1098.00 760.85 L 1095.00 761.00 L 1075.00 741.00 L 1010.00 741.00 L 973.00 826.00 Z" stroke-width="1" id="276-09-04" stroke="black"/>
  <path fill="none" d="M 1035.00 865.00 L 1075.00 865.00 L 1095.00 845.00 L 1115.00 825.00 L 1135.00 824.00 L 1215.00 824.00 L 1229.00 823.30 L 1247.00 740.00 L 1135.00 740.00 L 1115.00 760.00 L 1098.00 760.85 L 1024.00 854.00 Z" stroke-width="1" id="276-09-05" stroke="black"/>
  <path fill="none" d="M 1235.00 823.00 L 1315.00 823.00 L 1335.00 822.00 L 1418.00 822.00 L 1478.00 761.00 L 1475.00 758.00 L 1455.00 738.00 L 1435.00 738.00 L 1415.00 739.00 L 1275.00 739.00 L 1255.00 740.00 L 1247.00 740.00 L 1229.00 823.30 Z" stroke-width="1" id="276-09-06" stroke="black"/>
  <path fill="none" d="M 1435.00 822.00 L 1455.00 821.00 L 1535.00 821.00 L 1555.00 820.00 L 1615.00 820.00 L 1635.00 840.00 L 1655.00 859.00 L 1675.00 839.00 L 1695.00 839.00 L 1715.00 819.00 L 1724.00 819.00 L 1739.00 736.00 L 1735.00 736.00 L 1715.00 737.00 L 1595.00 737.00 L 1575.00 738.00 L 1535.00 738.00 L 1515.00 758.00 L 1495.00 778.00 L 1478.00 761.00 L 1418.00 822.00 Z" stroke-width="1" id="276-09-07" stroke="black"/>
  <path fill="none" d="M 1755.00 819.00 L 1775.00 818.00 L 1795.00 818.00 L 1854.00 736.00 L 1739.00 736.00 L 1724.00 819.00 Z" stroke-width="1" id="276-09-08" stroke="black"/>
  <path fill="none" d="M 1815.00 838.00 L 1835.00 818.00 L 1855.00 818.00 L 1875.00 817.00 L 1925.25 817.00 L 1950.00 808.00 L 1967.52 735.00 L 1895.00 735.00 L 1875.00 736.00 L 1854.00 736.00 L 1795.00 818.00 Z" stroke-width="1" id="276-09-09" stroke="black"/>
  <path fill="none" d="M 352.53 832.00 L 350.00 880.00 L 332.00 895.00 L 352.00 908.00 L 352.00 970.00 L 355.00 970.00 L 375.00 969.00 L 395.00 969.00 L 415.00 968.00 L 435.00 968.00 L 455.00 967.00 L 475.00 967.00 L 495.00 966.00 L 515.00 966.00 L 535.00 965.00 L 541.00 965.00 L 603.00 829.00 L 595.00 829.00 L 575.00 830.00 L 495.00 830.00 L 475.00 831.00 L 375.00 831.00 L 355.00 832.00 Z" stroke-width="1" id="276-10-01" stroke="black"/>
  <path fill="none" d="M 555.00 965.00 L 575.00 964.00 L 595.00 964.00 L 615.00 963.00 L 655.00 963.00 L 675.00 962.00 L 695.00 962.00 L 715.00 961.00 L 723.00 961.00 L 762.00 828.00 L 695.00 828.00 L 675.00 829.00 L 603.00 829.00 L 541.00 965.00 Z" stroke-width="1" id="276-10-02" stroke="black"/>
  <path fill="none" d="M 735.00 961.00 L 755.00 960.00 L 775.00 960.00 L 795.00 959.00 L 815.00 959.00 L 835.00 958.00 L 855.00 958.00 L 875.00 957.00 L 895.00 957.00 L 915.00 956.00 L 935.00 956.00 L 955.00 955.00 L 971.00 955.00 L 1031.00 861.00 L 1015.00 845.00 L 995.00 846.00 L 975.00 826.00 L 955.00 826.00 L 935.00 846.00 L 915.00 826.00 L 895.00 827.00 L 815.00 827.00 L 795.00 828.00 L 762.00 828.00 L 723.00 961.00 Z" stroke-width="1" id="276-10-03" stroke="black"/>
  <path fill="none" d="M 975.00 955.00 L 995.00 954.00 L 1015.00 934.00 L 1035.00 913.00 L 1055.00 913.00 L 1075.00 912.00 L 1095.00 912.00 L 1115.00 932.00 L 1135.00 951.00 L 1155.00 951.00 L 1175.00 950.00 L 1195.00 950.00 L 1215.00 949.00 L 1235.00 929.00 L 1255.00 928.00 L 1275.00 928.00 L 1295.00 947.00 L 1315.00 947.00 L 1325.22 946.49 L 1321.00 924.00 L 1422.00 924.00 L 1501.00 821.00 L 1455.00 821.00 L 1435.00 822.00 L 1335.00 822.00 L 1315.00 823.00 L 1235.00 823.00 L 1215.00 824.00 L 1135.00 824.00 L 1115.00 825.00 L 1095.00 845.00 L 1075.00 865.00 L 1035.00 865.00 L 1031.00 861.00 L 971.00 955.00 Z" stroke-width="1" id="276-10-04" stroke="black"/>
  <path fill="none" d="M 1564.00 924.00 L 1806.00 888.00 L 1818.00 856.00 L 1925.25 817.00 L 1875.00 817.00 L 1855.00 818.00 L 1835.00 818.00 L 1815.00 838.00 L 1795.00 818.00 L 1775.00 818.00 L 1755.00 819.00 L 1715.00 819.00 L 1695.00 839.00 L 1675.00 839.00 L 1655.00 859.00 L 1635.00 840.00 L 1615.00 820.00 L 1555.00 820.00 L 1535.00 821.00 L 1501.00 821.00 L 1422.00 924.00 Z" stroke-width="1" id="276-10-05" stroke="black"/>
  <path fill="none" d="M 975.00 1036.00 L 995.00 1038.00 L 1015.00 1028.00 L 1035.00 1026.00 L 1055.00 1018.00 L 1075.00 1010.00 L 1095.00 1006.00 L 1220.00 1006.00 L 1231.00 933.00 L 1215.00 949.00 L 1195.00 950.00 L 1175.00 950.00 L 1155.00 951.00 L 1135.00 951.00 L 1115.00 932.00 L 1095.00 912.00 L 1075.00 912.00 L 1055.00 913.00 L 1035.00 913.00 L 1015.00 934.00 L 995.00 954.00 L 961.00 1022.00 Z" stroke-width="1" id="276-11-01" stroke="black"/>
  <path fill="none" d="M 1235.00 1006.00 L 1255.00 1008.00 L 1330.00 1008.00 L 1332.42 972.03 L 1330.00 972.00 L 1325.22 946.49 L 1315.00 947.00 L 1295.00 947.00 L 1275.00 928.00 L 1255.00 928.00 L 1235.00 929.00 L 1231.00 933.00 L 1220.00 1006.00 Z" stroke-width="1" id="276-11-02" stroke="black"/>
  <path fill="none" d="M 352.00 1018.90 L 352.00 1034.00 L 336.00 1053.00 L 358.00 1075.00 L 357.82 1078.86 L 375.00 1078.00 L 395.00 1078.00 L 415.00 1077.00 L 455.00 1077.00 L 475.00 1076.00 L 495.00 1076.00 L 515.00 1075.00 L 555.00 1075.00 L 575.00 1074.00 L 595.00 1074.00 L 615.00 1073.00 L 655.00 1073.00 L 675.00 1072.00 L 712.00 1072.00 L 725.00 1008.00 L 655.00 1008.00 L 635.00 1006.00 L 595.00 1006.00 L 575.00 1004.00 L 555.00 992.00 L 535.00 994.00 L 515.00 1000.00 L 495.00 1016.00 L 475.00 1014.00 L 455.00 1010.00 L 435.00 984.00 L 415.00 984.00 L 395.00 990.00 L 375.00 998.00 L 355.00 1018.00 Z" stroke-width="1" id="276-12-01" stroke="black"/>
  <path fill="none" d="M 715.00 1072.00 L 735.00 1071.00 L 755.00 1071.00 L 775.00 1070.00 L 815.00 1070.00 L 835.00 1069.00 L 855.00 1069.00 L 875.00 1068.00 L 915.00 1068.00 L 935.00 1067.00 L 955.00 1067.00 L 975.00 1066.00 L 998.00 1066.00 L 1003.00 1034.00 L 995.00 1038.00 L 975.00 1036.00 L 955.00 1016.00 L 935.00 1002.00 L 915.00 1008.00 L 855.00 1008.00 L 835.00 1006.00 L 815.00 1006.00 L 795.00 1008.00 L 725.00 1008.00 L 712.00 1072.00 Z" stroke-width="1" id="276-12-02" stroke="black"/>
  <path fill="none" d="M 1555.00 1055.00 L 1572.15 1072.15 L 1595.00 1072.00 L 1684.80 1062.71 L 1695.00 1052.00 L 1716.47 1052.00 L 1752.00 1000.00 L 1729.00 977.00 L 1592.42 975.29 L 1575.00 984.00 L 1568.00 984.00 L 1553.00 1055.00 Z" stroke-width="1" id="276-12-03" stroke="black"/>
  <path fill="none" d="M 357.82 1078.86 L 356.00 1118.00 L 342.00 1138.00 L 356.00 1164.00 L 355.83 1168.00 L 395.00 1168.00 L 415.00 1167.00 L 448.00 1167.00 L 496.00 1075.95 L 495.00 1076.00 L 475.00 1076.00 L 455.00 1077.00 L 415.00 1077.00 L 395.00 1078.00 L 375.00 1078.00 Z" stroke-width="1" id="276-13-01" stroke="black"/>
  <path fill="none" d="M 455.00 1167.00 L 475.00 1166.00 L 515.00 1166.00 L 535.00 1165.00 L 575.00 1165.00 L 595.00 1164.00 L 628.00 1164.00 L 654.00 1073.00 L 615.00 1073.00 L 595.00 1074.00 L 575.00 1074.00 L 555.00 1075.00 L 515.00 1075.00 L 496.00 1075.95 L 448.00 1167.00 Z" stroke-width="1" id="276-13-02" stroke="black"/>
  <path fill="none" d="M 284.00 1258.00 L 265.00 1300.00 L 269.00 1330.00 L 328.00 1332.00 L 349.00 1332.13 L 366.00 1232.00 L 335.29 1232.00 L 332.00 1240.00 Z" stroke-width="1" id="276-15-01" stroke="black"/>
  <path fill="none" d="M 798.00 1335.00 L 797.37 1337.00 L 846.37 1337.00 L 849.00 1265.00 L 835.00 1265.00 L 815.00 1266.00 L 775.00 1266.00 L 755.00 1246.00 L 735.00 1247.00 L 695.00 1247.00 L 675.00 1248.00 L 615.00 1248.00 L 595.00 1236.00 L 575.00 1236.00 L 555.00 1232.00 L 535.00 1230.00 L 515.00 1228.00 L 495.00 1226.00 L 475.00 1226.00 L 455.00 1230.00 L 446.00 1230.45 L 427.00 1332.63 Z" stroke-width="1" id="276-15-02" stroke="black"/>
  <path fill="none" d="M 875.00 1337.00 L 895.00 1336.00 L 1015.00 1336.00 L 1035.00 1335.00 L 1120.00 1335.00 L 1119.00 1261.80 L 1115.00 1262.00 L 1055.00 1262.00 L 1035.00 1263.00 L 995.00 1263.00 L 975.00 1264.00 L 915.00 1264.00 L 895.00 1265.00 L 849.00 1265.00 L 846.37 1337.00 Z" stroke-width="1" id="276-15-03" stroke="black"/>
  <path fill="none" d="M 1175.00 1335.00 L 1192.00 1334.15 L 1243.54 1230.07 L 1236.00 1227.00 L 1203.42 1227.27 L 1195.00 1234.00 L 1175.00 1236.00 L 1155.00 1242.00 L 1135.00 1261.00 L 1119.00 1261.80 L 1120.00 1335.00 Z" stroke-width="1" id="276-15-04" stroke="black"/>
  <path fill="none" d="M 1195.00 1334.00 L 1315.00 1334.00 L 1335.00 1333.00 L 1348.00 1333.00 L 1367.00 1294.33 L 1366.00 1280.00 L 1314.49 1259.00 L 1295.00 1259.00 L 1275.00 1260.00 L 1263.54 1238.23 L 1243.54 1230.07 L 1192.00 1334.15 Z" stroke-width="1" id="276-15-05" stroke="black"/>
  <path fill="none" d="M 1335.00 1420.00 L 1495.00 1420.00 L 1515.00 1422.00 L 1535.00 1418.00 L 1554.00 1410.40 L 1592.00 1333.14 L 1567.00 1332.00 L 1475.00 1332.00 L 1455.00 1333.00 L 1335.00 1333.00 L 1323.00 1333.60 L 1319.00 1420.80 Z" stroke-width="1" id="276-16-01" stroke="black"/>
  <path fill="none" d="M 1555.00 1410.00 L 1575.00 1422.00 L 1595.00 1420.00 L 1615.00 1419.00 L 1675.00 1419.00 L 1695.00 1429.00 L 1715.00 1429.00 L 1735.00 1419.00 L 1875.00 1419.00 L 1895.00 1428.00 L 1915.00 1434.00 L 1935.00 1432.00 L 1955.00 1418.00 L 1979.45 1418.00 L 1993.00 1410.00 L 1998.00 1350.00 L 1721.00 1339.00 L 1592.00 1333.14 L 1554.00 1410.40 Z" stroke-width="1" id="276-16-02" stroke="black"/>
  <path fill="none" d="M 770.49 1422.00 L 761.00 1452.00 L 742.00 1494.00 L 738.62 1508.00 L 883.62 1508.00 L 907.00 1422.00 Z" stroke-width="1" id="276-17-01" stroke="black"/>
  <path fill="none" d="M 1235.00 1508.00 L 1255.00 1528.00 L 1275.00 1528.00 L 1295.00 1508.00 L 1301.00 1421.00 L 1295.00 1421.00 L 1275.00 1431.00 L 1255.00 1431.00 L 1235.00 1421.00 L 1035.00 1421.00 L 1015.00 1420.00 L 995.00 1408.00 L 975.00 1412.00 L 955.00 1422.00 L 907.00 1422.00 L 883.62 1508.00 Z" stroke-width="1" id="276-17-02" stroke="black"/>
  <path fill="none" d="M 1444.00 1508.00 L 1452.00 1420.00 L 1335.00 1420.00 L 1315.00 1421.00 L 1301.00 1421.00 L 1295.00 1508.00 Z" stroke-width="1" id="276-17-03" stroke="black"/>
  <path fill="none" d="M 1495.00 1508.00 L 1515.00 1528.00 L 1555.00 1528.00 L 1575.00 1508.00 L 1675.00 1508.00 L 1695.00 1528.00 L 1715.00 1528.00 L 1735.00 1508.00 L 1744.00 1508.00 L 1757.00 1419.00 L 1735.00 1419.00 L 1715.00 1429.00 L 1695.00 1429.00 L 1675.00 1419.00 L 1615.00 1419.00 L 1595.00 1420.00 L 1575.00 1422.00 L 1555.00 1410.00 L 1535.00 1418.00 L 1515.00 1422.00 L 1495.00 1420.00 L 1452.00 1420.00 L 1444.00 1508.00 Z" stroke-width="1" id="276-17-04" stroke="black"/>
  <path fill="none" d="M 1906.78 1508.00 L 1888.00 1472.00 L 1979.45 1418.00 L 1955.00 1418.00 L 1935.00 1432.00 L 1915.00 1434.00 L 1895.00 1428.00 L 1875.00 1419.00 L 1757.00 1419.00 L 1744.00 1508.00 Z" stroke-width="1" id="276-17-05" stroke="black"/>
  <path fill="none" d="M 342.00 1570.00 L 341.00 1583.00 L 354.00 1584.00 L 354.54 1599.00 L 395.00 1599.00 L 415.00 1619.00 L 435.00 1619.00 L 455.00 1599.00 L 635.00 1599.00 L 662.00 1521.89 L 407.00 1518.00 Z" stroke-width="1" id="276-18-01" stroke="black"/>
  <path fill="none" d="M 797.00 1599.00 L 828.00 1508.00 L 738.62 1508.00 L 735.00 1523.00 L 662.00 1521.89 L 635.00 1599.00 Z" stroke-width="1" id="276-18-02" stroke="black"/>
  <path fill="none" d="M 1211.00 1599.00 L 1226.00 1508.00 L 828.00 1508.00 L 797.00 1599.00 Z" stroke-width="1" id="276-18-03" stroke="black"/>
  <path fill="none" d="M 1378.00 1599.00 L 1386.00 1508.00 L 1295.00 1508.00 L 1275.00 1528.00 L 1255.00 1528.00 L 1235.00 1508.00 L 1226.00 1508.00 L 1211.00 1599.00 Z" stroke-width="1" id="276-18-04" stroke="black"/>
  <path fill="none" d="M 1395.00 1599.00 L 1415.00 1598.00 L 1515.00 1598.00 L 1535.00 1618.00 L 1575.00 1618.00 L 1595.00 1598.00 L 1649.00 1508.00 L 1575.00 1508.00 L 1555.00 1528.00 L 1515.00 1528.00 L 1495.00 1508.00 L 1386.00 1508.00 L 1378.00 1599.00 Z" stroke-width="1" id="276-18-05" stroke="black"/>
  <path fill="none" d="M 1752.00 1598.00 L 1827.78 1508.00 L 1735.00 1508.00 L 1715.00 1528.00 L 1695.00 1528.00 L 1683.00 1516.00 L 1614.00 1598.00 Z" stroke-width="1" id="276-18-06" stroke="black"/>
  <path fill="none" d="M 1964.23 1598.00 L 1979.00 1574.00 L 1987.00 1548.00 L 1912.00 1518.00 L 1906.78 1508.00 L 1827.78 1508.00 L 1752.00 1598.00 Z" stroke-width="1" id="276-18-07" stroke="black"/>
  <path fill="none" d="M 354.54 1599.00 L 356.00 1640.00 L 341.00 1659.00 L 357.00 1677.00 L 357.11 1683.00 L 395.00 1683.00 L 415.00 1682.00 L 475.00 1682.00 L 495.00 1702.00 L 515.00 1702.00 L 535.00 1682.00 L 543.00 1682.00 L 548.00 1599.00 L 455.00 1599.00 L 435.00 1619.00 L 415.00 1619.00 L 395.00 1599.00 Z" stroke-width="1" id="276-19-01" stroke="black"/>
  <path fill="none" d="M 635.00 1682.00 L 655.00 1681.00 L 664.00 1690.00 L 730.00 1599.00 L 548.00 1599.00 L 543.00 1682.00 Z" stroke-width="1" id="276-19-02" stroke="black"/>
  <path fill="none" d="M 675.00 1701.00 L 695.00 1721.00 L 715.00 1701.00 L 735.00 1681.00 L 895.00 1681.00 L 915.00 1680.00 L 980.00 1680.00 L 1008.00 1599.00 L 730.00 1599.00 L 664.00 1690.00 Z" stroke-width="1" id="276-19-03" stroke="black"/>
  <path fill="none" d="M 1046.00 1680.00 L 1062.00 1599.00 L 1008.00 1599.00 L 980.00 1680.00 Z" stroke-width="1" id="276-19-04" stroke="black"/>
  <path fill="none" d="M 1080.00 1680.00 L 1100.00 1599.00 L 1062.00 1599.00 L 1046.00 1680.00 Z" stroke-width="1" id="276-19-05" stroke="black"/>
  <path fill="none" d="M 1115.00 1680.00 L 1135.00 1700.00 L 1155.00 1699.00 L 1175.00 1699.00 L 1195.00 1679.00 L 1220.00 1679.00 L 1244.00 1599.00 L 1100.00 1599.00 L 1080.00 1680.00 Z" stroke-width="1" id="276-19-06" stroke="black"/>
  <path fill="none" d="M 1299.00 1679.00 L 1327.00 1599.00 L 1244.00 1599.00 L 1220.00 1679.00 Z" stroke-width="1" id="276-19-07" stroke="black"/>
  <path fill="none" d="M 1375.00 1679.00 L 1395.00 1699.00 L 1415.00 1698.00 L 1435.00 1678.00 L 1635.00 1678.00 L 1647.00 1677.40 L 1664.23 1598.00 L 1595.00 1598.00 L 1575.00 1618.00 L 1535.00 1618.00 L 1515.00 1598.00 L 1415.00 1598.00 L 1395.00 1599.00 L 1327.00 1599.00 L 1299.00 1679.00 Z" stroke-width="1" id="276-19-08" stroke="black"/>
  <path fill="none" d="M 1655.00 1677.00 L 1795.00 1677.00 L 1815.00 1697.00 L 1835.00 1697.00 L 1855.00 1677.00 L 1878.00 1677.00 L 1885.23 1598.00 L 1664.23 1598.00 L 1647.00 1677.40 Z" stroke-width="1" id="276-19-09" stroke="black"/>
  <path fill="none" d="M 1895.00 1677.00 L 1915.00 1676.00 L 1918.40 1676.00 L 1939.00 1639.00 L 1964.23 1598.00 L 1885.23 1598.00 L 1878.00 1677.00 Z" stroke-width="1" id="276-19-10" stroke="black"/>
  <path fill="none" d="M 357.11 1683.00 L 358.00 1730.00 L 341.00 1747.00 L 359.00 1759.00 L 358.93 1761.00 L 395.00 1761.00 L 415.00 1760.00 L 515.00 1760.00 L 535.00 1759.00 L 624.00 1759.00 L 638.00 1681.85 L 635.00 1682.00 L 535.00 1682.00 L 515.00 1702.00 L 495.00 1702.00 L 475.00 1682.00 L 415.00 1682.00 L 395.00 1683.00 Z" stroke-width="1" id="276-20-01" stroke="black"/>
  <path fill="none" d="M 635.00 1759.00 L 655.00 1758.00 L 716.00 1758.00 L 732.00 1684.00 L 715.00 1701.00 L 695.00 1721.00 L 675.00 1701.00 L 655.00 1681.00 L 638.00 1681.85 L 624.00 1759.00 Z" stroke-width="1" id="276-20-02" stroke="black"/>
  <path fill="none" d="M 775.00 1758.00 L 795.00 1757.00 L 895.00 1757.00 L 913.00 1756.10 L 920.00 1680.00 L 915.00 1680.00 L 895.00 1681.00 L 735.00 1681.00 L 732.00 1684.00 L 716.00 1758.00 Z" stroke-width="1" id="276-20-03" stroke="black"/>
  <path fill="none" d="M 915.00 1756.00 L 935.00 1756.00 L 955.00 1796.00 L 975.00 1776.00 L 995.00 1756.00 L 1015.00 1756.00 L 1035.00 1755.00 L 1125.00 1755.00 L 1142.00 1699.65 L 1135.00 1700.00 L 1115.00 1680.00 L 920.00 1680.00 L 913.00 1756.10 Z" stroke-width="1" id="276-20-04" stroke="black"/>
  <path fill="none" d="M 1135.00 1755.00 L 1155.00 1754.00 L 1255.00 1754.00 L 1275.00 1753.00 L 1324.00 1753.00 L 1351.00 1679.00 L 1195.00 1679.00 L 1175.00 1699.00 L 1155.00 1699.00 L 1142.00 1699.65 L 1125.00 1755.00 Z" stroke-width="1" id="276-20-05" stroke="black"/>
  <path fill="none" d="M 1395.00 1753.00 L 1415.00 1752.00 L 1481.00 1752.00 L 1501.00 1678.00 L 1435.00 1678.00 L 1415.00 1698.00 L 1395.00 1699.00 L 1375.00 1679.00 L 1351.00 1679.00 L 1324.00 1753.00 Z" stroke-width="1" id="276-20-06" stroke="black"/>
  <path fill="none" d="M 1515.00 1752.00 L 1535.00 1751.00 L 1635.00 1751.00 L 1655.00 1750.00 L 1755.00 1750.00 L 1775.00 1749.00 L 1894.35 1749.00 L 1890.00 1727.00 L 1918.40 1676.00 L 1915.00 1676.00 L 1895.00 1677.00 L 1855.00 1677.00 L 1835.00 1697.00 L 1815.00 1697.00 L 1795.00 1677.00 L 1655.00 1677.00 L 1635.00 1678.00 L 1501.00 1678.00 L 1481.00 1752.00 Z" stroke-width="1" id="276-20-07" stroke="black"/>
  <path fill="none" d="M 358.93 1761.00 L 357.00 1818.00 L 344.00 1840.00 L 358.00 1867.00 L 357.77 1870.86 L 375.00 1870.00 L 395.00 1850.00 L 414.00 1850.00 L 470.00 1760.00 L 415.00 1760.00 L 395.00 1761.00 Z" stroke-width="1" id="276-21-01" stroke="black"/>
  <path fill="none" d="M 548.00 1850.00 L 567.00 1759.00 L 535.00 1759.00 L 515.00 1760.00 L 470.00 1760.00 L 414.00 1850.00 Z" stroke-width="1" id="276-21-02" stroke="black"/>
  <path fill="none" d="M 555.00 1850.00 L 575.00 1849.00 L 755.00 1849.00 L 775.00 1848.00 L 892.00 1848.00 L 924.00 1756.00 L 915.00 1756.00 L 895.00 1757.00 L 795.00 1757.00 L 775.00 1758.00 L 655.00 1758.00 L 635.00 1759.00 L 567.00 1759.00 L 548.00 1850.00 Z" stroke-width="1" id="276-21-03" stroke="black"/>
  <path fill="none" d="M 955.00 1848.00 L 975.00 1847.00 L 1155.00 1847.00 L 1175.00 1846.00 L 1189.00 1846.00 L 1236.00 1754.00 L 1155.00 1754.00 L 1135.00 1755.00 L 1035.00 1755.00 L 1015.00 1756.00 L 995.00 1756.00 L 975.00 1776.00 L 955.00 1796.00 L 935.00 1756.00 L 924.00 1756.00 L 892.00 1848.00 Z" stroke-width="1" id="276-21-04" stroke="black"/>
  <path fill="none" d="M 1355.00 1846.00 L 1375.00 1845.00 L 1491.00 1845.00 L 1505.00 1752.00 L 1415.00 1752.00 L 1395.00 1753.00 L 1275.00 1753.00 L 1255.00 1754.00 L 1236.00 1754.00 L 1189.00 1846.00 Z" stroke-width="1" id="276-21-05" stroke="black"/>
  <path fill="none" d="M 1575.00 1845.00 L 1595.00 1844.00 L 1666.00 1844.00 L 1687.00 1750.00 L 1655.00 1750.00 L 1635.00 1751.00 L 1535.00 1751.00 L 1515.00 1752.00 L 1505.00 1752.00 L 1491.00 1845.00 Z" stroke-width="1" id="276-21-06" stroke="black"/>
  <path fill="none" d="M 1775.00 1844.00 L 1795.00 1843.00 L 1911.77 1843.00 L 1906.00 1808.00 L 1894.35 1749.00 L 1775.00 1749.00 L 1755.00 1750.00 L 1687.00 1750.00 L 1666.00 1844.00 Z" stroke-width="1" id="276-21-07" stroke="black"/>
  <path fill="none" d="M 357.77 1870.86 L 356.00 1900.00 L 338.00 1914.00 L 358.00 1934.00 L 357.88 1937.00 L 772.88 1937.00 L 809.00 1848.00 L 775.00 1848.00 L 755.00 1849.00 L 575.00 1849.00 L 555.00 1850.00 L 395.00 1850.00 L 375.00 1870.00 Z" stroke-width="1" id="276-22-01" stroke="black"/>
  <path fill="none" d="M 996.88 1937.00 L 1021.00 1847.00 L 975.00 1847.00 L 955.00 1848.00 L 809.00 1848.00 L 772.88 1937.00 Z" stroke-width="1" id="276-22-02" stroke="black"/>
  <path fill="none" d="M 1160.88 1937.00 L 1172.00 1846.15 L 1155.00 1847.00 L 1021.00 1847.00 L 996.88 1937.00 Z" stroke-width="1" id="276-22-03" stroke="black"/>
  <path fill="none" d="M 1275.00 1937.00 L 1295.00 1952.00 L 1315.00 1964.00 L 1335.00 1958.00 L 1355.00 1940.00 L 1375.00 1938.00 L 1395.00 1937.00 L 1443.00 1937.00 L 1452.00 1845.00 L 1375.00 1845.00 L 1355.00 1846.00 L 1175.00 1846.00 L 1172.00 1846.15 L 1160.88 1937.00 Z" stroke-width="1" id="276-22-04" stroke="black"/>
  <path fill="none" d="M 1535.00 1937.00 L 1555.00 1936.00 L 1639.00 1936.00 L 1665.00 1844.00 L 1595.00 1844.00 L 1575.00 1845.00 L 1452.00 1845.00 L 1443.00 1937.00 Z" stroke-width="1" id="276-22-05" stroke="black"/>
  <path fill="none" d="M 1806.00 1936.00 L 1816.77 1843.00 L 1795.00 1843.00 L 1775.00 1844.00 L 1665.00 1844.00 L 1639.00 1936.00 Z" stroke-width="1" id="276-22-06" stroke="black"/>
  <path fill="none" d="M 1905.84 1936.00 L 1921.00 1899.00 L 1911.77 1843.00 L 1816.77 1843.00 L 1806.00 1936.00 Z" stroke-width="1" id="276-22-07" stroke="black"/>
  <path fill="none" d="M 357.88 1937.00 L 356.00 1986.00 L 352.00 2003.00 L 352.66 2018.00 L 486.66 2018.00 L 510.00 1937.00 Z" stroke-width="1" id="276-23-01" stroke="black"/>
  <path fill="none" d="M 515.00 2018.00 L 535.00 2017.00 L 764.00 2017.00 L 802.00 1937.00 L 510.00 1937.00 L 486.66 2018.00 Z" stroke-width="1" id="276-23-02" stroke="black"/>
  <path fill="none" d="M 849.00 2017.00 L 895.00 1937.00 L 802.00 1937.00 L 764.00 2017.00 Z" stroke-width="1" id="276-23-03" stroke="black"/>
  <path fill="none" d="M 875.00 2017.00 L 895.00 2016.00 L 985.00 2016.00 L 1057.00 1937.00 L 895.00 1937.00 L 849.00 2017.00 Z" stroke-width="1" id="276-23-04" stroke="black"/>
  <path fill="none" d="M 1235.00 2016.00 L 1255.00 2015.00 L 1262.00 2015.00 L 1261.00 1937.00 L 1057.00 1937.00 L 985.00 2016.00 Z" stroke-width="1" id="276-23-05" stroke="black"/>
  <path fill="none" d="M 1395.00 2015.00 L 1415.00 2035.00 L 1427.00 2035.00 L 1483.00 1937.00 L 1395.00 1937.00 L 1375.00 1938.00 L 1355.00 1940.00 L 1335.00 1958.00 L 1315.00 1964.00 L 1295.00 1952.00 L 1275.00 1937.00 L 1261.00 1937.00 L 1262.00 2015.00 Z" stroke-width="1" id="276-23-06" stroke="black"/>
  <path fill="none" d="M 1435.00 2035.00 L 1455.00 2015.00 L 1595.00 2015.00 L 1615.00 2014.00 L 1635.00 2014.00 L 1642.00 2021.00 L 1713.84 1936.00 L 1555.00 1936.00 L 1535.00 1937.00 L 1483.00 1937.00 L 1427.00 2035.00 Z" stroke-width="1" id="276-23-07" stroke="black"/>
  <path fill="none" d="M 1655.00 2034.00 L 1675.00 2034.00 L 1695.00 2014.00 L 1878.38 2014.00 L 1887.00 1982.00 L 1905.84 1936.00 L 1713.84 1936.00 L 1642.00 2021.00 Z" stroke-width="1" id="276-23-08" stroke="black"/>
  <path fill="none" d="M 352.66 2018.00 L 355.00 2071.00 L 344.00 2089.00 L 357.00 2096.00 L 356.83 2107.00 L 515.00 2107.00 L 535.00 2106.00 L 607.00 2106.00 L 613.00 2017.00 L 535.00 2017.00 L 515.00 2018.00 Z" stroke-width="1" id="276-24-01" stroke="black"/>
  <path fill="none" d="M 695.00 2106.00 L 715.00 2105.00 L 735.00 2125.00 L 775.00 2125.00 L 795.00 2105.00 L 860.00 2105.00 L 898.00 2016.00 L 895.00 2016.00 L 875.00 2017.00 L 613.00 2017.00 L 607.00 2106.00 Z" stroke-width="1" id="276-24-02" stroke="black"/>
  <path fill="none" d="M 875.00 2105.00 L 895.00 2104.00 L 975.00 2104.00 L 995.00 2124.00 L 1035.00 2124.00 L 1055.00 2104.00 L 1075.00 2103.00 L 1235.00 2103.00 L 1255.00 2122.00 L 1275.00 2102.00 L 1286.00 2102.00 L 1304.00 2015.00 L 1255.00 2015.00 L 1235.00 2016.00 L 898.00 2016.00 L 860.00 2105.00 Z" stroke-width="1" id="276-24-03" stroke="black"/>
  <path fill="none" d="M 1435.00 2102.00 L 1443.00 2101.60 L 1451.00 2019.00 L 1435.00 2035.00 L 1415.00 2035.00 L 1395.00 2015.00 L 1304.00 2015.00 L 1286.00 2102.00 Z" stroke-width="1" id="276-24-04" stroke="black"/>
  <path fill="none" d="M 1455.00 2101.00 L 1572.00 2101.00 L 1608.00 2014.35 L 1595.00 2015.00 L 1455.00 2015.00 L 1451.00 2019.00 L 1443.00 2101.60 Z" stroke-width="1" id="276-24-05" stroke="black"/>
  <path fill="none" d="M 1615.00 2101.00 L 1635.00 2100.00 L 1795.00 2100.00 L 1815.00 2099.00 L 1861.20 2099.00 L 1851.00 2088.00 L 1866.00 2060.00 L 1878.38 2014.00 L 1695.00 2014.00 L 1675.00 2034.00 L 1655.00 2034.00 L 1635.00 2014.00 L 1615.00 2014.00 L 1608.00 2014.35 L 1572.00 2101.00 Z" stroke-width="1" id="276-24-06" stroke="black"/>
  <path fill="none" d="M 356.83 2107.00 L 356.00 2162.00 L 342.00 2172.00 L 357.00 2182.00 L 356.85 2190.00 L 375.00 2190.00 L 395.00 2189.00 L 415.00 2189.00 L 435.00 2169.00 L 455.00 2189.00 L 581.00 2189.00 L 636.00 2106.00 L 535.00 2106.00 L 515.00 2107.00 Z" stroke-width="1" id="276-25-01" stroke="black"/>
  <path fill="none" d="M 595.00 2189.00 L 615.00 2188.00 L 835.00 2188.00 L 855.00 2187.00 L 881.00 2187.00 L 929.00 2104.00 L 895.00 2104.00 L 875.00 2105.00 L 795.00 2105.00 L 775.00 2125.00 L 735.00 2125.00 L 715.00 2105.00 L 695.00 2106.00 L 636.00 2106.00 L 581.00 2189.00 Z" stroke-width="1" id="276-25-02" stroke="black"/>
  <path fill="none" d="M 1055.00 2187.00 L 1075.00 2186.00 L 1093.00 2186.00 L 1122.00 2103.00 L 1075.00 2103.00 L 1055.00 2104.00 L 1035.00 2124.00 L 995.00 2124.00 L 975.00 2104.00 L 929.00 2104.00 L 881.00 2187.00 Z" stroke-width="1" id="276-25-03" stroke="black"/>
  <path fill="none" d="M 1215.00 2186.00 L 1235.00 2206.00 L 1255.00 2186.00 L 1265.00 2196.00 L 1313.00 2102.00 L 1275.00 2102.00 L 1255.00 2122.00 L 1235.00 2103.00 L 1122.00 2103.00 L 1093.00 2186.00 Z" stroke-width="1" id="276-25-04" stroke="black"/>
  <path fill="none" d="M 1275.00 2206.00 L 1295.00 2186.00 L 1315.00 2185.00 L 1428.00 2185.00 L 1458.00 2101.00 L 1455.00 2101.00 L 1435.00 2102.00 L 1313.00 2102.00 L 1265.00 2196.00 Z" stroke-width="1" id="276-25-05" stroke="black"/>
  <path fill="none" d="M 1515.00 2185.00 L 1535.00 2184.00 L 1689.00 2184.00 L 1688.00 2100.00 L 1635.00 2100.00 L 1615.00 2101.00 L 1458.00 2101.00 L 1428.00 2185.00 Z" stroke-width="1" id="276-25-06" stroke="black"/>
  <path fill="none" d="M 1715.00 2184.00 L 1722.00 2191.00 L 1820.20 2099.00 L 1815.00 2099.00 L 1795.00 2100.00 L 1688.00 2100.00 L 1689.00 2184.00 Z" stroke-width="1" id="276-25-07" stroke="black"/>
  <path fill="none" d="M 1735.00 2204.00 L 1755.00 2204.00 L 1775.00 2183.00 L 1916.36 2183.00 L 1902.00 2143.00 L 1861.20 2099.00 L 1820.20 2099.00 L 1722.00 2191.00 Z" stroke-width="1" id="276-25-08" stroke="black"/>
  <path fill="none" d="M 356.85 2190.00 L 356.00 2236.00 L 343.00 2254.00 L 357.00 2268.00 L 357.15 2277.00 L 395.00 2277.00 L 415.00 2297.00 L 435.00 2277.00 L 788.00 2277.00 L 790.00 2188.00 L 615.00 2188.00 L 595.00 2189.00 L 455.00 2189.00 L 435.00 2169.00 L 415.00 2189.00 L 395.00 2189.00 L 375.00 2190.00 Z" stroke-width="1" id="276-26-01" stroke="black"/>
  <path fill="none" d="M 875.00 2277.00 L 895.00 2276.00 L 915.00 2296.00 L 975.00 2296.00 L 995.00 2276.00 L 1008.00 2276.00 L 1012.00 2187.00 L 855.00 2187.00 L 835.00 2188.00 L 790.00 2188.00 L 788.00 2277.00 Z" stroke-width="1" id="276-26-02" stroke="black"/>
  <path fill="none" d="M 1155.00 2276.00 L 1175.00 2256.00 L 1193.00 2256.00 L 1210.00 2186.00 L 1075.00 2186.00 L 1055.00 2187.00 L 1012.00 2187.00 L 1008.00 2276.00 Z" stroke-width="1" id="276-26-03" stroke="black"/>
  <path fill="none" d="M 1195.00 2256.00 L 1215.00 2276.00 L 1273.00 2276.00 L 1314.00 2185.05 L 1295.00 2186.00 L 1275.00 2206.00 L 1255.00 2186.00 L 1235.00 2206.00 L 1215.00 2186.00 L 1210.00 2186.00 L 1193.00 2256.00 Z" stroke-width="1" id="276-26-04" stroke="black"/>
  <path fill="none" d="M 1523.00 2276.00 L 1525.00 2184.50 L 1515.00 2185.00 L 1315.00 2185.00 L 1314.00 2185.05 L 1273.00 2276.00 Z" stroke-width="1" id="276-26-05" stroke="black"/>
  <path fill="none" d="M 1615.00 2276.00 L 1635.00 2275.00 L 1660.00 2184.00 L 1535.00 2184.00 L 1525.00 2184.50 L 1523.00 2276.00 Z" stroke-width="1" id="276-26-06" stroke="black"/>
  <path fill="none" d="M 1945.88 2275.00 L 1930.00 2221.00 L 1916.36 2183.00 L 1775.00 2183.00 L 1755.00 2204.00 L 1735.00 2204.00 L 1715.00 2184.00 L 1660.00 2184.00 L 1635.00 2275.00 Z" stroke-width="1" id="276-26-07" stroke="black"/>
  <path fill="none" d="M 357.15 2277.00 L 358.00 2328.00 L 342.00 2341.00 L 357.00 2354.00 L 357.15 2363.00 L 515.00 2363.00 L 527.00 2375.00 L 593.00 2277.00 L 435.00 2277.00 L 415.00 2297.00 L 395.00 2277.00 Z" stroke-width="1" id="276-27-01" stroke="black"/>
  <path fill="none" d="M 535.00 2383.00 L 575.00 2383.00 L 595.00 2363.00 L 824.00 2363.00 L 832.00 2277.00 L 593.00 2277.00 L 527.00 2375.00 Z" stroke-width="1" id="276-27-02" stroke="black"/>
  <path fill="none" d="M 1097.00 2363.00 L 1085.00 2276.00 L 995.00 2276.00 L 975.00 2296.00 L 915.00 2296.00 L 895.00 2276.00 L 875.00 2277.00 L 832.00 2277.00 L 824.00 2363.00 Z" stroke-width="1" id="276-27-03" stroke="black"/>
  <path fill="none" d="M 1518.00 2363.00 L 1546.00 2276.00 L 1215.00 2276.00 L 1195.00 2256.00 L 1175.00 2256.00 L 1155.00 2276.00 L 1085.00 2276.00 L 1097.00 2363.00 Z" stroke-width="1" id="276-27-04" stroke="black"/>
  <path fill="none" d="M 1828.00 2363.00 L 1837.88 2275.00 L 1635.00 2275.00 L 1615.00 2276.00 L 1546.00 2276.00 L 1518.00 2363.00 Z" stroke-width="1" id="276-27-05" stroke="black"/>
  <path fill="none" d="M 1951.61 2363.00 L 1955.00 2306.00 L 1945.88 2275.00 L 1837.88 2275.00 L 1828.00 2363.00 Z" stroke-width="1" id="276-27-06" stroke="black"/>
  <path fill="none" d="M 357.15 2363.00 L 358.00 2416.00 L 342.00 2431.00 L 358.00 2444.00 L 357.86 2448.00 L 468.86 2448.00 L 500.00 2363.00 Z" stroke-width="1" id="276-28-01" stroke="black"/>
  <path fill="none" d="M 495.00 2448.00 L 515.00 2488.00 L 535.00 2468.00 L 555.00 2468.00 L 575.00 2448.00 L 678.00 2448.00 L 707.61 2363.00 L 595.00 2363.00 L 575.00 2383.00 L 535.00 2383.00 L 515.00 2363.00 L 500.00 2363.00 L 468.86 2448.00 Z" stroke-width="1" id="276-28-02" stroke="black"/>
  <path fill="none" d="M 888.00 2448.00 L 910.61 2363.00 L 707.61 2363.00 L 678.00 2448.00 Z" stroke-width="1" id="276-28-03" stroke="black"/>
  <path fill="none" d="M 1079.00 2448.00 L 1121.61 2363.00 L 910.61 2363.00 L 888.00 2448.00 Z" stroke-width="1" id="276-28-04" stroke="black"/>
  <path fill="none" d="M 1215.00 2448.00 L 1235.00 2462.00 L 1255.00 2462.00 L 1274.00 2443.00 L 1282.61 2363.00 L 1121.61 2363.00 L 1079.00 2448.00 Z" stroke-width="1" id="276-28-05" stroke="black"/>
  <path fill="none" d="M 1275.00 2442.00 L 1295.00 2448.00 L 1411.00 2448.00 L 1389.61 2363.00 L 1282.61 2363.00 L 1274.00 2443.00 Z" stroke-width="1" id="276-28-06" stroke="black"/>
  <path fill="none" d="M 1415.00 2448.00 L 1424.00 2466.00 L 1539.61 2363.00 L 1389.61 2363.00 L 1411.00 2448.00 Z" stroke-width="1" id="276-28-07" stroke="black"/>
  <path fill="none" d="M 1435.00 2488.00 L 1455.00 2488.00 L 1475.00 2468.00 L 1495.00 2468.00 L 1515.00 2448.00 L 1615.00 2448.00 L 1618.00 2451.00 L 1693.61 2363.00 L 1539.61 2363.00 L 1424.00 2466.00 Z" stroke-width="1" id="276-28-08" stroke="black"/>
  <path fill="none" d="M 1635.00 2468.00 L 1655.00 2468.00 L 1675.00 2448.00 L 1739.00 2448.00 L 1749.61 2363.00 L 1693.61 2363.00 L 1618.00 2451.00 Z" stroke-width="1" id="276-28-09" stroke="black"/>
  <path fill="none" d="M 1885.00 2448.00 L 1902.61 2363.00 L 1749.61 2363.00 L 1739.00 2448.00 Z" stroke-width="1" id="276-28-10" stroke="black"/>
  <path fill="none" d="M 1946.70 2448.00 L 1949.00 2407.00 L 1951.61 2363.00 L 1902.61 2363.00 L 1885.00 2448.00 Z" stroke-width="1" id="276-28-11" stroke="black"/>
  <path fill="none" d="M 357.86 2448.00 L 356.00 2500.00 L 341.00 2520.00 L 357.00 2525.00 L 357.10 2531.00 L 375.00 2531.00 L 395.00 2571.00 L 415.00 2571.00 L 435.00 2551.00 L 455.00 2531.00 L 474.00 2531.00 L 503.00 2464.00 L 495.00 2448.00 Z" stroke-width="1" id="276-29-01" stroke="black"/>
  <path fill="none" d="M 726.00 2531.00 L 733.00 2448.00 L 575.00 2448.00 L 555.00 2468.00 L 535.00 2468.00 L 515.00 2488.00 L 503.00 2464.00 L 474.00 2531.00 Z" stroke-width="1" id="276-29-02" stroke="black"/>
  <path fill="none" d="M 836.00 2531.00 L 851.00 2448.00 L 733.00 2448.00 L 726.00 2531.00 Z" stroke-width="1" id="276-29-03" stroke="black"/>
  <path fill="none" d="M 1020.00 2531.00 L 1040.00 2448.00 L 851.00 2448.00 L 836.00 2531.00 Z" stroke-width="1" id="276-29-04" stroke="black"/>
  <path fill="none" d="M 1235.00 2531.00 L 1255.00 2532.00 L 1435.00 2532.00 L 1455.00 2552.00 L 1475.00 2552.00 L 1495.00 2532.00 L 1522.00 2532.00 L 1544.00 2448.00 L 1515.00 2448.00 L 1495.00 2468.00 L 1475.00 2468.00 L 1455.00 2488.00 L 1435.00 2488.00 L 1415.00 2448.00 L 1295.00 2448.00 L 1275.00 2442.00 L 1255.00 2462.00 L 1235.00 2462.00 L 1215.00 2448.00 L 1040.00 2448.00 L 1020.00 2531.00 Z" stroke-width="1" id="276-29-05" stroke="black"/>
  <path fill="none" d="M 1645.00 2532.00 L 1671.00 2452.00 L 1655.00 2468.00 L 1635.00 2468.00 L 1615.00 2448.00 L 1544.00 2448.00 L 1522.00 2532.00 Z" stroke-width="1" id="276-29-06" stroke="black"/>
  <path fill="none" d="M 1835.00 2532.00 L 1855.00 2552.00 L 1915.00 2552.00 L 1935.00 2532.00 L 1956.63 2532.00 L 1944.00 2496.00 L 1946.70 2448.00 L 1675.00 2448.00 L 1671.00 2452.00 L 1645.00 2532.00 Z" stroke-width="1" id="276-29-07" stroke="black"/>
  <path fill="none" d="M 357.10 2531.00 L 358.00 2586.00 L 343.00 2600.00 L 362.00 2610.00 L 361.58 2619.00 L 558.58 2619.00 L 594.00 2531.00 L 455.00 2531.00 L 435.00 2551.00 L 415.00 2571.00 L 395.00 2571.00 L 375.00 2531.00 Z" stroke-width="1" id="276-30-01" stroke="black"/>
  <path fill="none" d="M 635.00 2619.00 L 655.00 2639.00 L 675.00 2619.00 L 695.00 2612.00 L 735.00 2612.00 L 755.00 2619.00 L 874.00 2619.00 L 920.00 2531.00 L 594.00 2531.00 L 558.58 2619.00 Z" stroke-width="1" id="276-30-02" stroke="black"/>
  <path fill="none" d="M 935.00 2619.00 L 955.00 2639.00 L 1035.00 2639.00 L 1055.00 2619.00 L 1155.00 2619.00 L 1175.00 2618.00 L 1237.00 2618.00 L 1238.00 2531.15 L 1235.00 2531.00 L 920.00 2531.00 L 874.00 2619.00 Z" stroke-width="1" id="276-30-03" stroke="black"/>
  <path fill="none" d="M 1575.00 2618.00 L 1595.00 2612.00 L 1615.00 2618.00 L 1657.00 2618.00 L 1685.00 2532.00 L 1495.00 2532.00 L 1475.00 2552.00 L 1455.00 2552.00 L 1435.00 2532.00 L 1255.00 2532.00 L 1238.00 2531.15 L 1237.00 2618.00 Z" stroke-width="1" id="276-30-04" stroke="black"/>
  <path fill="none" d="M 1734.00 2618.00 L 1806.00 2532.00 L 1685.00 2532.00 L 1657.00 2618.00 Z" stroke-width="1" id="276-30-05" stroke="black"/>
  <path fill="none" d="M 1958.00 2618.00 L 1992.00 2571.47 L 1964.00 2553.00 L 1956.63 2532.00 L 1935.00 2532.00 L 1915.00 2552.00 L 1855.00 2552.00 L 1835.00 2532.00 L 1806.00 2532.00 L 1734.00 2618.00 Z" stroke-width="1" id="276-30-06" stroke="black"/>
  <path fill="none" d="M 1979.24 2618.00 L 1985.00 2604.00 L 2011.00 2584.00 L 1992.00 2571.47 L 1958.00 2618.00 Z" stroke-width="1" id="276-30-07" stroke="black"/>
  <path fill="none" d="M 361.58 2619.00 L 359.00 2674.00 L 348.00 2685.00 L 358.00 2694.00 L 358.00 2707.00 L 395.00 2707.00 L 415.00 2706.00 L 493.00 2706.00 L 502.00 2619.00 Z" stroke-width="1" id="276-31-01" stroke="black"/>
  <path fill="none" d="M 635.00 2706.00 L 642.00 2626.00 L 635.00 2619.00 L 502.00 2619.00 L 493.00 2706.00 Z" stroke-width="1" id="276-31-02" stroke="black"/>
  <path fill="none" d="M 655.00 2706.00 L 675.00 2705.00 L 755.00 2705.00 L 775.00 2725.00 L 795.00 2725.00 L 815.00 2705.00 L 828.00 2705.00 L 888.00 2619.00 L 755.00 2619.00 L 735.00 2612.00 L 695.00 2612.00 L 675.00 2619.00 L 655.00 2639.00 L 642.00 2626.00 L 635.00 2706.00 Z" stroke-width="1" id="276-31-03" stroke="black"/>
  <path fill="none" d="M 875.00 2705.00 L 895.00 2725.00 L 915.00 2725.00 L 935.00 2704.00 L 999.00 2704.00 L 1032.00 2639.00 L 955.00 2639.00 L 935.00 2619.00 L 888.00 2619.00 L 828.00 2705.00 Z" stroke-width="1" id="276-31-04" stroke="black"/>
  <path fill="none" d="M 1172.00 2704.00 L 1205.00 2618.00 L 1175.00 2618.00 L 1155.00 2619.00 L 1055.00 2619.00 L 1035.00 2639.00 L 1032.00 2639.00 L 999.00 2704.00 Z" stroke-width="1" id="276-31-05" stroke="black"/>
  <path fill="none" d="M 1175.00 2704.00 L 1195.00 2703.00 L 1235.00 2703.00 L 1255.00 2723.00 L 1295.00 2723.00 L 1315.00 2703.00 L 1435.00 2703.00 L 1455.00 2702.00 L 1511.00 2702.00 L 1528.00 2618.00 L 1205.00 2618.00 L 1172.00 2704.00 Z" stroke-width="1" id="276-31-06" stroke="black"/>
  <path fill="none" d="M 1675.00 2702.00 L 1695.00 2701.00 L 1701.00 2701.00 L 1710.24 2618.00 L 1615.00 2618.00 L 1595.00 2612.00 L 1575.00 2618.00 L 1528.00 2618.00 L 1511.00 2702.00 Z" stroke-width="1" id="276-31-07" stroke="black"/>
  <path fill="none" d="M 1779.00 2701.00 L 1788.24 2618.00 L 1710.24 2618.00 L 1701.00 2701.00 Z" stroke-width="1" id="276-31-08" stroke="black"/>
  <path fill="none" d="M 1848.00 2701.00 L 1870.24 2618.00 L 1788.24 2618.00 L 1779.00 2701.00 Z" stroke-width="1" id="276-31-09" stroke="black"/>
  <path fill="none" d="M 1935.00 2701.00 L 1950.59 2700.22 L 1957.00 2672.00 L 1979.24 2618.00 L 1870.24 2618.00 L 1848.00 2701.00 Z" stroke-width="1" id="276-31-10" stroke="black"/>
  <path fill="none" d="M 358.00 2707.00 L 358.00 2752.00 L 348.00 2772.00 L 359.10 2786.80 L 375.00 2786.00 L 513.00 2786.00 L 538.00 2706.00 L 415.00 2706.00 L 395.00 2707.00 Z" stroke-width="1" id="276-32-01" stroke="black"/>
  <path fill="none" d="M 575.00 2786.00 L 595.00 2785.00 L 606.00 2785.00 L 636.00 2706.00 L 538.00 2706.00 L 513.00 2786.00 Z" stroke-width="1" id="276-32-02" stroke="black"/>
  <path fill="none" d="M 795.00 2785.00 L 815.00 2784.00 L 818.00 2784.00 L 832.00 2705.00 L 815.00 2705.00 L 795.00 2725.00 L 775.00 2725.00 L 755.00 2705.00 L 675.00 2705.00 L 655.00 2706.00 L 636.00 2706.00 L 606.00 2785.00 Z" stroke-width="1" id="276-32-03" stroke="black"/>
  <path fill="none" d="M 855.00 2784.00 L 875.00 2804.00 L 915.00 2804.00 L 935.00 2784.00 L 1015.00 2784.00 L 1035.00 2803.00 L 1055.00 2783.00 L 1169.00 2783.00 L 1198.00 2703.00 L 1195.00 2703.00 L 1175.00 2704.00 L 935.00 2704.00 L 915.00 2725.00 L 895.00 2725.00 L 875.00 2705.00 L 832.00 2705.00 L 818.00 2784.00 Z" stroke-width="1" id="276-32-04" stroke="black"/>
  <path fill="none" d="M 1235.00 2783.00 L 1255.00 2782.00 L 1295.00 2782.00 L 1315.00 2802.00 L 1335.00 2802.00 L 1355.00 2782.00 L 1435.00 2782.00 L 1455.00 2781.00 L 1535.00 2781.00 L 1555.00 2801.00 L 1575.00 2801.00 L 1595.00 2781.00 L 1599.00 2702.00 L 1455.00 2702.00 L 1435.00 2703.00 L 1315.00 2703.00 L 1295.00 2723.00 L 1255.00 2723.00 L 1235.00 2703.00 L 1198.00 2703.00 L 1169.00 2783.00 Z" stroke-width="1" id="276-32-05" stroke="black"/>
  <path fill="none" d="M 1655.00 2781.00 L 1674.00 2780.05 L 1705.00 2701.00 L 1695.00 2701.00 L 1675.00 2702.00 L 1599.00 2702.00 L 1595.00 2781.00 Z" stroke-width="1" id="276-32-06" stroke="black"/>
  <path fill="none" d="M 1675.00 2780.00 L 1871.00 2780.00 L 1862.00 2701.00 L 1705.00 2701.00 L 1674.00 2780.05 Z" stroke-width="1" id="276-32-07" stroke="black"/>
  <path fill="none" d="M 1875.00 2780.00 L 1895.00 2779.00 L 1946.14 2779.00 L 1942.00 2738.00 L 1950.59 2700.22 L 1935.00 2701.00 L 1862.00 2701.00 L 1871.00 2780.00 Z" stroke-width="1" id="276-32-08" stroke="black"/>
  <path fill="none" d="M 359.10 2786.80 L 360.00 2788.00 L 358.00 2838.00 L 342.00 2850.00 L 359.00 2873.00 L 358.92 2878.00 L 375.00 2878.00 L 395.00 2898.00 L 415.00 2902.00 L 435.00 2896.00 L 455.00 2888.00 L 475.00 2877.00 L 483.00 2877.00 L 510.00 2786.00 L 375.00 2786.00 Z" stroke-width="1" id="276-33-01" stroke="black"/>
  <path fill="none" d="M 675.00 2877.00 L 695.00 2876.00 L 725.00 2876.00 L 763.00 2785.00 L 595.00 2785.00 L 575.00 2786.00 L 510.00 2786.00 L 483.00 2877.00 Z" stroke-width="1" id="276-33-02" stroke="black"/>
  <path fill="none" d="M 883.00 2876.00 L 886.00 2804.00 L 875.00 2804.00 L 855.00 2784.00 L 815.00 2784.00 L 795.00 2785.00 L 763.00 2785.00 L 725.00 2876.00 Z" stroke-width="1" id="276-33-03" stroke="black"/>
  <path fill="none" d="M 935.00 2876.00 L 955.00 2895.00 L 975.00 2875.00 L 1028.00 2875.00 L 1069.00 2783.00 L 1055.00 2783.00 L 1035.00 2803.00 L 1015.00 2784.00 L 935.00 2784.00 L 915.00 2804.00 L 886.00 2804.00 L 883.00 2876.00 Z" stroke-width="1" id="276-33-04" stroke="black"/>
  <path fill="none" d="M 1127.00 2875.00 L 1150.00 2783.00 L 1069.00 2783.00 L 1028.00 2875.00 Z" stroke-width="1" id="276-33-05" stroke="black"/>
  <path fill="none" d="M 1195.00 2875.00 L 1215.00 2874.00 L 1235.00 2874.00 L 1255.00 2854.00 L 1275.00 2874.00 L 1279.00 2874.00 L 1302.00 2789.00 L 1295.00 2782.00 L 1255.00 2782.00 L 1235.00 2783.00 L 1150.00 2783.00 L 1127.00 2875.00 Z" stroke-width="1" id="276-33-06" stroke="black"/>
  <path fill="none" d="M 1455.00 2874.00 L 1475.00 2893.00 L 1515.00 2893.00 L 1535.00 2873.00 L 1595.00 2873.00 L 1615.00 2893.00 L 1655.00 2893.00 L 1675.00 2873.00 L 1696.00 2873.00 L 1700.00 2780.00 L 1675.00 2780.00 L 1655.00 2781.00 L 1595.00 2781.00 L 1575.00 2801.00 L 1555.00 2801.00 L 1535.00 2781.00 L 1455.00 2781.00 L 1435.00 2782.00 L 1355.00 2782.00 L 1335.00 2802.00 L 1315.00 2802.00 L 1302.00 2789.00 L 1279.00 2874.00 Z" stroke-width="1" id="276-33-07" stroke="black"/>
  <path fill="none" d="M 1715.00 2873.00 L 1735.00 2872.00 L 1766.00 2872.00 L 1795.00 2780.00 L 1700.00 2780.00 L 1696.00 2873.00 Z" stroke-width="1" id="276-33-08" stroke="black"/>
  <path fill="none" d="M 1837.00 2872.00 L 1865.00 2780.00 L 1795.00 2780.00 L 1766.00 2872.00 Z" stroke-width="1" id="276-33-09" stroke="black"/>
  <path fill="none" d="M 1924.49 2872.00 L 1953.00 2847.00 L 1946.14 2779.00 L 1895.00 2779.00 L 1875.00 2780.00 L 1865.00 2780.00 L 1837.00 2872.00 Z" stroke-width="1" id="276-33-10" stroke="black"/>
  <path fill="none" d="M 358.92 2878.00 L 358.00 2938.00 L 357.00 2949.00 L 357.99 2971.00 L 517.99 2971.00 L 571.00 2877.00 L 475.00 2877.00 L 455.00 2888.00 L 435.00 2896.00 L 415.00 2902.00 L 395.00 2898.00 L 375.00 2878.00 Z" stroke-width="1" id="276-34-01" stroke="black"/>
  <path fill="none" d="M 575.00 2971.00 L 595.00 2951.00 L 615.00 2971.00 L 664.00 2971.00 L 723.00 2876.00 L 695.00 2876.00 L 675.00 2877.00 L 571.00 2877.00 L 517.99 2971.00 Z" stroke-width="1" id="276-34-02" stroke="black"/>
  <path fill="none" d="M 755.00 2971.00 L 775.00 2951.00 L 795.00 2971.00 L 815.00 2991.00 L 835.00 2991.00 L 855.00 2971.00 L 875.00 2971.00 L 895.00 2991.00 L 915.00 2991.00 L 935.00 2971.00 L 1077.00 2971.00 L 1095.00 2875.00 L 975.00 2875.00 L 955.00 2895.00 L 935.00 2876.00 L 723.00 2876.00 L 664.00 2971.00 Z" stroke-width="1" id="276-34-03" stroke="black"/>
  <path fill="none" d="M 1151.00 2971.00 L 1172.00 2875.00 L 1095.00 2875.00 L 1077.00 2971.00 Z" stroke-width="1" id="276-34-04" stroke="black"/>
  <path fill="none" d="M 1435.00 2971.00 L 1455.00 2991.00 L 1463.00 2991.00 L 1504.00 2893.00 L 1475.00 2893.00 L 1455.00 2874.00 L 1275.00 2874.00 L 1255.00 2854.00 L 1235.00 2874.00 L 1215.00 2874.00 L 1195.00 2875.00 L 1172.00 2875.00 L 1151.00 2971.00 Z" stroke-width="1" id="276-34-05" stroke="black"/>
  <path fill="none" d="M 1475.00 2991.00 L 1495.00 2971.00 L 1567.00 2971.00 L 1616.00 2893.00 L 1615.00 2893.00 L 1595.00 2873.00 L 1535.00 2873.00 L 1515.00 2893.00 L 1504.00 2893.00 L 1463.00 2991.00 Z" stroke-width="1" id="276-34-06" stroke="black"/>
  <path fill="none" d="M 1908.63 2971.00 L 1890.00 2952.00 L 1888.00 2904.00 L 1924.49 2872.00 L 1735.00 2872.00 L 1715.00 2873.00 L 1675.00 2873.00 L 1655.00 2893.00 L 1616.00 2893.00 L 1567.00 2971.00 Z" stroke-width="1" id="276-34-07" stroke="black"/>
  <path fill="none" d="M 357.99 2971.00 L 360.00 3016.00 L 348.00 3028.00 L 370.00 3040.00 L 390.80 3064.00 L 415.00 3064.00 L 435.00 3044.00 L 470.00 3044.00 L 482.00 2971.00 Z" stroke-width="1" id="276-35-01" stroke="black"/>
  <path fill="none" d="M 475.00 3044.00 L 495.00 3045.00 L 624.00 3045.00 L 638.00 2971.00 L 615.00 2971.00 L 595.00 2951.00 L 575.00 2971.00 L 482.00 2971.00 L 470.00 3044.00 Z" stroke-width="1" id="276-35-02" stroke="black"/>
  <path fill="none" d="M 795.00 3045.00 L 815.00 3046.00 L 957.00 3046.00 L 993.00 2971.00 L 935.00 2971.00 L 915.00 2991.00 L 895.00 2991.00 L 875.00 2971.00 L 855.00 2971.00 L 835.00 2991.00 L 815.00 2991.00 L 795.00 2971.00 L 775.00 2951.00 L 755.00 2971.00 L 638.00 2971.00 L 624.00 3045.00 Z" stroke-width="1" id="276-35-03" stroke="black"/>
  <path fill="none" d="M 1075.00 3046.00 L 1104.00 2971.00 L 993.00 2971.00 L 957.00 3046.00 Z" stroke-width="1" id="276-35-04" stroke="black"/>
  <path fill="none" d="M 1115.00 3046.00 L 1135.00 3047.00 L 1292.00 3047.00 L 1299.00 2971.00 L 1104.00 2971.00 L 1075.00 3046.00 Z" stroke-width="1" id="276-35-05" stroke="black"/>
  <path fill="none" d="M 1435.00 3047.00 L 1455.00 3048.00 L 1470.00 3048.00 L 1504.63 2971.00 L 1495.00 2971.00 L 1475.00 2991.00 L 1455.00 2991.00 L 1435.00 2971.00 L 1299.00 2971.00 L 1292.00 3047.00 Z" stroke-width="1" id="276-35-06" stroke="black"/>
  <path fill="none" d="M 1535.00 3048.00 L 1555.00 3068.00 L 1615.00 3068.00 L 1635.00 3048.00 L 1648.00 3048.00 L 1659.63 2971.00 L 1504.63 2971.00 L 1470.00 3048.00 Z" stroke-width="1" id="276-35-07" stroke="black"/>
  <path fill="none" d="M 1775.00 3048.00 L 1795.00 3049.00 L 1812.00 3049.00 L 1824.63 2971.00 L 1659.63 2971.00 L 1648.00 3048.00 Z" stroke-width="1" id="276-35-08" stroke="black"/>
  <path fill="none" d="M 1936.18 3049.00 L 1934.00 3046.00 L 1940.00 3003.00 L 1908.63 2971.00 L 1824.63 2971.00 L 1812.00 3049.00 Z" stroke-width="1" id="276-35-09" stroke="black"/>
  <path fill="none" d="M 390.80 3064.00 L 396.00 3070.00 L 398.00 3119.00 L 504.46 3127.00 L 523.46 3127.00 L 569.00 3045.00 L 495.00 3045.00 L 475.00 3044.00 L 435.00 3044.00 L 415.00 3064.00 Z" stroke-width="1" id="276-36-01" stroke="black"/>
  <path fill="none" d="M 555.00 3127.00 L 566.69 3131.68 L 571.00 3132.00 L 587.50 3135.00 L 598.14 3135.00 L 629.00 3129.00 L 630.03 3128.99 L 635.00 3127.00 L 795.00 3127.00 L 835.00 3046.00 L 815.00 3046.00 L 795.00 3045.00 L 569.00 3045.00 L 523.46 3127.00 Z" stroke-width="1" id="276-36-02" stroke="black"/>
  <path fill="none" d="M 798.30 3127.16 L 937.30 3125.66 L 961.00 3046.00 L 835.00 3046.00 L 795.00 3127.00 Z" stroke-width="1" id="276-36-03" stroke="black"/>
  <path fill="none" d="M 998.00 3125.00 L 1035.00 3124.89 L 1041.00 3046.00 L 961.00 3046.00 L 937.30 3125.66 Z" stroke-width="1" id="276-36-04" stroke="black"/>
  <path fill="none" d="M 1183.00 3124.43 L 1196.00 3047.00 L 1135.00 3047.00 L 1115.00 3046.00 L 1041.00 3046.00 L 1035.00 3124.89 Z" stroke-width="1" id="276-36-05" stroke="black"/>
  <path fill="none" d="M 1374.00 3123.84 L 1381.00 3047.00 L 1196.00 3047.00 L 1183.00 3124.43 Z" stroke-width="1" id="276-36-06" stroke="black"/>
  <path fill="none" d="M 1500.00 3123.46 L 1531.00 3048.00 L 1455.00 3048.00 L 1435.00 3047.00 L 1381.00 3047.00 L 1374.00 3123.84 Z" stroke-width="1" id="276-36-07" stroke="black"/>
  <path fill="none" d="M 1706.00 3122.82 L 1721.00 3048.00 L 1635.00 3048.00 L 1615.00 3068.00 L 1555.00 3068.00 L 1535.00 3048.00 L 1531.00 3048.00 L 1500.00 3123.46 Z" stroke-width="1" id="276-36-08" stroke="black"/>
  <path fill="none" d="M 1835.00 3122.42 L 1838.18 3049.00 L 1795.00 3049.00 L 1775.00 3048.00 L 1721.00 3048.00 L 1706.00 3122.82 Z" stroke-width="1" id="276-36-09" stroke="black"/>
  <path fill="none" d="M 1973.00 3122.00 L 1974.00 3101.00 L 1936.18 3049.00 L 1838.18 3049.00 L 1835.00 3122.42 Z" stroke-width="1" id="276-36-10" stroke="black"/>
</svg>
