<?xml version="1.0" encoding="UTF-8"?>
<svg xmlns:xlink="http://www.w3.org/1999/xlink" xmlns="http://www.w3.org/2000/svg" contentScriptType="text/ecmascript" width="2011px" zoomAndPan="magnify" contentStyleType="text/css" viewBox="0 0 2011 3271" height="3271px" preserveAspectRatio="xMidYMid meet" version="1.0">
  <path fill="none" d="M 186.00 191.00 L 184.00 216.00 L 312.00 216.00 L 332.00 215.00 L 372.00 215.00 L 392.00 235.00 L 412.00 231.00 L 432.00 231.00 L 449.00 217.40 L 448.00 140.06 L 317.08 125.00 L 292.00 125.00 L 282.13 125.49 L 258.00 135.00 L 227.00 168.00 Z" stroke-width="1" id="277-02-01" stroke="black"/>
  <path fill="none" d="M 452.00 215.00 L 492.00 215.00 L 512.00 214.00 L 672.00 214.00 L 692.00 213.00 L 701.00 213.00 L 741.00 147.85 L 604.00 158.00 L 448.00 140.06 L 449.00 217.40 Z" stroke-width="1" id="277-02-02" stroke="black"/>
  <path fill="none" d="M 712.00 213.00 L 732.00 233.00 L 792.00 233.00 L 812.00 213.00 L 832.00 233.00 L 852.00 233.00 L 872.00 212.00 L 912.00 212.00 L 948.00 132.52 L 741.00 147.85 L 701.00 213.00 Z" stroke-width="1" id="277-02-03" stroke="black"/>
  <path fill="none" d="M 932.00 232.00 L 952.00 232.00 L 972.00 212.00 L 1032.00 212.00 L 1052.00 211.00 L 1212.00 211.00 L 1232.00 210.00 L 1292.00 210.00 L 1312.00 230.00 L 1332.00 210.00 L 1352.00 230.00 L 1392.00 230.00 L 1412.00 229.00 L 1420.00 221.00 L 1413.00 149.18 L 1264.00 150.00 L 1036.00 126.00 L 948.00 132.52 L 912.00 212.00 Z" stroke-width="1" id="277-02-04" stroke="black"/>
  <path fill="none" d="M 1432.00 209.00 L 1452.00 209.00 L 1472.00 229.00 L 1512.00 229.00 L 1532.00 209.00 L 1552.00 229.00 L 1572.00 209.00 L 1592.00 208.00 L 1673.00 208.00 L 1694.00 153.85 L 1629.00 148.00 L 1413.00 149.18 L 1420.00 221.00 Z" stroke-width="1" id="277-02-05" stroke="black"/>
  <path fill="none" d="M 1692.00 208.00 L 1712.00 228.00 L 1732.00 208.00 L 1752.00 208.00 L 1772.00 231.00 L 1792.00 231.00 L 1805.00 215.40 L 1806.00 163.92 L 1694.00 153.85 L 1673.00 208.00 Z" stroke-width="1" id="277-02-06" stroke="black"/>
  <path fill="none" d="M 1812.00 207.00 L 1822.00 217.00 L 1826.00 165.72 L 1806.00 163.92 L 1805.00 215.40 Z" stroke-width="1" id="277-02-07" stroke="black"/>
  <path fill="none" d="M 1832.00 227.00 L 1912.00 227.00 L 1918.33 220.67 L 1921.00 202.00 L 1918.00 174.00 L 1826.00 165.72 L 1822.00 217.00 Z" stroke-width="1" id="277-02-08" stroke="black"/>
  <path fill="none" d="M 200.99 323.00 L 202.00 361.00 L 196.00 368.00 L 196.00 389.00 L 196.15 401.00 L 252.00 401.00 L 272.00 400.00 L 320.00 400.00 L 334.00 319.00 L 332.00 319.00 L 312.00 315.00 L 272.00 315.00 L 252.00 323.00 Z" stroke-width="1" id="277-04-01" stroke="black"/>
  <path fill="none" d="M 372.00 400.00 L 376.00 399.80 L 394.00 319.00 L 334.00 319.00 L 320.00 400.00 Z" stroke-width="1" id="277-04-02" stroke="black"/>
  <path fill="none" d="M 392.00 399.00 L 399.00 399.00 L 424.00 319.00 L 394.00 319.00 L 376.00 399.80 Z" stroke-width="1" id="277-04-03" stroke="black"/>
  <path fill="none" d="M 512.00 399.00 L 532.00 398.00 L 592.00 398.00 L 612.00 418.00 L 632.00 398.00 L 635.00 397.85 L 645.00 344.30 L 632.00 343.00 L 612.00 333.00 L 592.00 329.00 L 572.00 325.00 L 552.00 323.00 L 532.00 321.00 L 512.00 319.00 L 424.00 319.00 L 399.00 399.00 Z" stroke-width="1" id="277-04-04" stroke="black"/>
  <path fill="none" d="M 652.00 397.00 L 772.00 397.00 L 779.00 396.65 L 790.00 343.00 L 732.00 343.00 L 712.00 347.00 L 672.00 347.00 L 652.00 345.00 L 645.00 344.30 L 635.00 397.85 Z" stroke-width="1" id="277-04-05" stroke="black"/>
  <path fill="none" d="M 792.00 396.00 L 848.00 396.00 L 872.00 335.00 L 852.00 339.00 L 832.00 343.00 L 790.00 343.00 L 779.00 396.65 Z" stroke-width="1" id="277-04-06" stroke="black"/>
  <path fill="none" d="M 892.00 396.00 L 912.00 395.00 L 927.00 395.00 L 956.00 321.00 L 952.00 321.00 L 932.00 323.00 L 912.00 323.00 L 892.00 327.00 L 872.00 335.00 L 848.00 396.00 Z" stroke-width="1" id="277-04-07" stroke="black"/>
  <path fill="none" d="M 972.00 395.00 L 992.00 415.00 L 1012.00 435.00 L 1032.00 414.00 L 1057.00 414.00 L 1105.00 322.30 L 1092.00 321.00 L 956.00 321.00 L 927.00 395.00 Z" stroke-width="1" id="277-04-08" stroke="black"/>
  <path fill="none" d="M 1092.00 414.00 L 1112.00 394.00 L 1152.00 394.00 L 1172.00 393.00 L 1272.00 393.00 L 1292.00 392.00 L 1412.00 392.00 L 1419.00 391.65 L 1439.00 323.70 L 1432.00 323.00 L 1412.00 317.00 L 1372.00 317.00 L 1352.00 321.00 L 1332.00 321.00 L 1312.00 319.00 L 1272.00 319.00 L 1252.00 323.00 L 1232.00 327.00 L 1212.00 327.00 L 1192.00 325.00 L 1172.00 325.00 L 1152.00 323.00 L 1112.00 323.00 L 1105.00 322.30 L 1057.00 414.00 Z" stroke-width="1" id="277-04-09" stroke="black"/>
  <path fill="none" d="M 1432.00 391.00 L 1512.00 391.00 L 1532.00 333.00 L 1512.00 331.00 L 1492.00 329.00 L 1472.00 329.00 L 1452.00 325.00 L 1439.00 323.70 L 1419.00 391.65 Z" stroke-width="1" id="277-04-10" stroke="black"/>
  <path fill="none" d="M 1532.00 391.00 L 1552.00 390.00 L 1672.00 390.00 L 1685.00 389.35 L 1705.00 334.40 L 1692.00 337.00 L 1672.00 329.00 L 1652.00 327.00 L 1632.00 317.00 L 1612.00 317.00 L 1592.00 327.00 L 1572.00 333.00 L 1532.00 333.00 L 1512.00 391.00 Z" stroke-width="1" id="277-04-11" stroke="black"/>
  <path fill="none" d="M 1692.00 389.00 L 1792.00 389.00 L 1812.00 388.00 L 1904.90 388.00 L 1938.00 373.00 L 1940.00 348.00 L 1927.93 325.00 L 1912.00 325.00 L 1892.00 323.00 L 1772.00 323.00 L 1752.00 321.00 L 1732.00 325.00 L 1712.00 333.00 L 1705.00 334.40 L 1685.00 389.35 Z" stroke-width="1" id="277-04-12" stroke="black"/>
  <path fill="none" d="M 196.15 401.00 L 197.00 468.00 L 197.36 500.36 L 212.00 515.00 L 232.00 495.00 L 243.00 495.00 L 301.00 400.00 L 272.00 400.00 L 252.00 401.00 Z" stroke-width="1" id="277-05-01" stroke="black"/>
  <path fill="none" d="M 312.00 495.00 L 332.00 494.00 L 415.00 494.00 L 457.00 399.00 L 392.00 399.00 L 372.00 400.00 L 301.00 400.00 L 243.00 495.00 Z" stroke-width="1" id="277-05-02" stroke="black"/>
  <path fill="none" d="M 472.00 494.00 L 492.00 513.00 L 512.00 525.00 L 532.00 525.00 L 552.00 521.00 L 572.00 493.00 L 602.00 408.00 L 592.00 398.00 L 532.00 398.00 L 512.00 399.00 L 457.00 399.00 L 415.00 494.00 Z" stroke-width="1" id="277-05-03" stroke="black"/>
  <path fill="none" d="M 672.00 493.00 L 692.00 492.00 L 852.00 492.00 L 860.00 491.60 L 889.00 396.00 L 792.00 396.00 L 772.00 397.00 L 652.00 397.00 L 632.00 398.00 L 612.00 418.00 L 602.00 408.00 L 572.00 493.00 Z" stroke-width="1" id="277-05-04" stroke="black"/>
  <path fill="none" d="M 872.00 491.00 L 912.00 491.00 L 932.00 511.00 L 992.00 511.00 L 1012.00 491.00 L 1025.00 491.00 L 1056.00 414.00 L 1032.00 414.00 L 1012.00 435.00 L 992.00 415.00 L 972.00 395.00 L 912.00 395.00 L 892.00 396.00 L 889.00 396.00 L 860.00 491.60 Z" stroke-width="1" id="277-05-05" stroke="black"/>
  <path fill="none" d="M 1032.00 491.00 L 1052.00 490.00 L 1179.00 490.00 L 1216.00 393.00 L 1172.00 393.00 L 1152.00 394.00 L 1112.00 394.00 L 1092.00 414.00 L 1056.00 414.00 L 1025.00 491.00 Z" stroke-width="1" id="277-05-06" stroke="black"/>
  <path fill="none" d="M 1212.00 490.00 L 1232.00 489.00 L 1335.00 489.00 L 1360.00 392.00 L 1292.00 392.00 L 1272.00 393.00 L 1216.00 393.00 L 1179.00 490.00 Z" stroke-width="1" id="277-05-07" stroke="black"/>
  <path fill="none" d="M 1392.00 489.00 L 1412.00 488.00 L 1452.00 488.00 L 1472.00 468.00 L 1492.00 488.00 L 1592.00 488.00 L 1604.00 487.40 L 1640.00 390.00 L 1552.00 390.00 L 1532.00 391.00 L 1432.00 391.00 L 1412.00 392.00 L 1360.00 392.00 L 1335.00 489.00 Z" stroke-width="1" id="277-05-08" stroke="black"/>
  <path fill="none" d="M 1612.00 487.00 L 1772.00 487.00 L 1792.00 486.00 L 1805.00 486.00 L 1815.90 388.00 L 1812.00 388.00 L 1792.00 389.00 L 1692.00 389.00 L 1672.00 390.00 L 1640.00 390.00 L 1604.00 487.40 Z" stroke-width="1" id="277-05-09" stroke="black"/>
  <path fill="none" d="M 1876.93 486.00 L 1874.00 402.00 L 1904.90 388.00 L 1815.90 388.00 L 1805.00 486.00 Z" stroke-width="1" id="277-05-10" stroke="black"/>
  <path fill="none" d="M 197.36 500.36 L 198.00 558.00 L 198.43 576.00 L 316.43 576.00 L 326.00 494.30 L 312.00 495.00 L 232.00 495.00 L 212.00 515.00 Z" stroke-width="1" id="277-06-01" stroke="black"/>
  <path fill="none" d="M 397.43 576.00 L 423.00 494.00 L 332.00 494.00 L 326.00 494.30 L 316.43 576.00 Z" stroke-width="1" id="277-06-02" stroke="black"/>
  <path fill="none" d="M 432.00 576.00 L 452.00 596.00 L 492.00 596.00 L 512.00 576.00 L 521.00 576.00 L 533.00 524.80 L 532.00 525.00 L 512.00 525.00 L 492.00 513.00 L 472.00 494.00 L 423.00 494.00 L 397.43 576.00 Z" stroke-width="1" id="277-06-03" stroke="black"/>
  <path fill="none" d="M 572.00 576.00 L 592.00 575.00 L 692.00 575.00 L 697.00 580.00 L 762.00 492.00 L 692.00 492.00 L 672.00 493.00 L 572.00 493.00 L 552.00 521.00 L 533.00 524.80 L 521.00 576.00 Z" stroke-width="1" id="277-06-04" stroke="black"/>
  <path fill="none" d="M 712.00 595.00 L 732.00 595.00 L 752.00 575.00 L 884.00 575.00 L 891.00 491.00 L 872.00 491.00 L 852.00 492.00 L 762.00 492.00 L 697.00 580.00 Z" stroke-width="1" id="277-06-05" stroke="black"/>
  <path fill="none" d="M 1012.00 575.00 L 1030.00 574.10 L 1047.00 490.25 L 1032.00 491.00 L 1012.00 491.00 L 992.00 511.00 L 932.00 511.00 L 912.00 491.00 L 891.00 491.00 L 884.00 575.00 Z" stroke-width="1" id="277-06-06" stroke="black"/>
  <path fill="none" d="M 1032.00 574.00 L 1392.00 574.00 L 1412.00 594.00 L 1432.00 574.00 L 1461.00 574.00 L 1453.00 487.00 L 1452.00 488.00 L 1412.00 488.00 L 1392.00 489.00 L 1232.00 489.00 L 1212.00 490.00 L 1052.00 490.00 L 1047.00 490.25 L 1030.00 574.10 Z" stroke-width="1" id="277-06-07" stroke="black"/>
  <path fill="none" d="M 1472.00 574.00 L 1492.00 573.00 L 1525.00 573.00 L 1542.00 488.00 L 1492.00 488.00 L 1472.00 468.00 L 1453.00 487.00 L 1461.00 574.00 Z" stroke-width="1" id="277-06-08" stroke="black"/>
  <path fill="none" d="M 1612.00 573.00 L 1632.00 593.00 L 1652.00 593.00 L 1672.00 573.00 L 1799.00 573.00 L 1839.93 486.00 L 1792.00 486.00 L 1772.00 487.00 L 1612.00 487.00 L 1592.00 488.00 L 1542.00 488.00 L 1525.00 573.00 Z" stroke-width="1" id="277-06-09" stroke="black"/>
  <path fill="none" d="M 1907.00 573.00 L 1934.00 546.00 L 1926.00 514.00 L 1877.00 488.00 L 1876.93 486.00 L 1839.93 486.00 L 1799.00 573.00 Z" stroke-width="1" id="277-06-10" stroke="black"/>
  <path fill="none" d="M 198.43 576.00 L 200.00 642.00 L 200.49 660.00 L 352.00 660.00 L 372.00 659.00 L 472.00 659.00 L 477.00 596.00 L 452.00 596.00 L 432.00 576.00 Z" stroke-width="1" id="277-07-01" stroke="black"/>
  <path fill="none" d="M 532.00 659.00 L 552.00 679.00 L 592.00 679.00 L 612.00 658.00 L 627.00 658.00 L 657.00 575.00 L 592.00 575.00 L 572.00 576.00 L 512.00 576.00 L 492.00 596.00 L 477.00 596.00 L 472.00 659.00 Z" stroke-width="1" id="277-07-02" stroke="black"/>
  <path fill="none" d="M 762.00 658.00 L 787.00 575.00 L 752.00 575.00 L 732.00 595.00 L 712.00 595.00 L 692.00 575.00 L 657.00 575.00 L 627.00 658.00 Z" stroke-width="1" id="277-07-03" stroke="black"/>
  <path fill="none" d="M 812.00 658.00 L 832.00 657.00 L 859.00 575.00 L 787.00 575.00 L 762.00 658.00 Z" stroke-width="1" id="277-07-04" stroke="black"/>
  <path fill="none" d="M 944.00 657.00 L 962.00 575.00 L 859.00 575.00 L 832.00 657.00 Z" stroke-width="1" id="277-07-05" stroke="black"/>
  <path fill="none" d="M 1052.00 657.00 L 1072.00 656.00 L 1097.00 656.00 L 1134.00 574.00 L 1032.00 574.00 L 1012.00 575.00 L 962.00 575.00 L 944.00 657.00 Z" stroke-width="1" id="277-07-06" stroke="black"/>
  <path fill="none" d="M 1267.00 656.00 L 1293.00 574.00 L 1134.00 574.00 L 1097.00 656.00 Z" stroke-width="1" id="277-07-07" stroke="black"/>
  <path fill="none" d="M 1292.00 656.00 L 1312.00 655.00 L 1462.00 655.00 L 1489.00 573.15 L 1472.00 574.00 L 1432.00 574.00 L 1412.00 594.00 L 1392.00 574.00 L 1293.00 574.00 L 1267.00 656.00 Z" stroke-width="1" id="277-07-08" stroke="black"/>
  <path fill="none" d="M 1512.00 655.00 L 1532.00 654.00 L 1612.00 654.00 L 1632.00 674.00 L 1672.00 674.00 L 1692.00 654.00 L 1752.00 654.00 L 1772.00 653.00 L 1890.46 653.00 L 1877.00 603.00 L 1907.00 573.00 L 1672.00 573.00 L 1652.00 593.00 L 1632.00 593.00 L 1612.00 573.00 L 1492.00 573.00 L 1489.00 573.15 L 1462.00 655.00 Z" stroke-width="1" id="277-07-09" stroke="black"/>
  <path fill="none" d="M 200.49 660.00 L 202.00 716.00 L 192.00 724.00 L 204.00 734.00 L 204.00 750.00 L 293.00 750.00 L 292.00 660.00 Z" stroke-width="1" id="277-08-01" stroke="black"/>
  <path fill="none" d="M 332.00 750.00 L 352.00 749.00 L 552.00 749.00 L 584.00 679.00 L 552.00 679.00 L 532.00 659.00 L 372.00 659.00 L 352.00 660.00 L 292.00 660.00 L 293.00 750.00 Z" stroke-width="1" id="277-08-02" stroke="black"/>
  <path fill="none" d="M 572.00 779.00 L 592.00 779.00 L 612.00 763.00 L 632.00 761.00 L 643.00 753.85 L 679.00 658.00 L 612.00 658.00 L 592.00 679.00 L 584.00 679.00 L 552.00 749.00 Z" stroke-width="1" id="277-08-03" stroke="black"/>
  <path fill="none" d="M 652.00 748.00 L 772.00 748.00 L 792.00 747.00 L 796.00 751.00 L 880.00 657.00 L 832.00 657.00 L 812.00 658.00 L 679.00 658.00 L 643.00 753.85 Z" stroke-width="1" id="277-08-04" stroke="black"/>
  <path fill="none" d="M 812.00 767.00 L 832.00 767.00 L 852.00 747.00 L 992.00 747.00 L 1012.00 746.00 L 1159.00 746.00 L 1166.00 656.00 L 1072.00 656.00 L 1052.00 657.00 L 880.00 657.00 L 796.00 751.00 Z" stroke-width="1" id="277-08-05" stroke="black"/>
  <path fill="none" d="M 1212.00 746.00 L 1232.00 745.00 L 1407.00 745.00 L 1421.00 655.00 L 1312.00 655.00 L 1292.00 656.00 L 1166.00 656.00 L 1159.00 746.00 Z" stroke-width="1" id="277-08-06" stroke="black"/>
  <path fill="none" d="M 1432.00 745.00 L 1452.00 744.00 L 1624.00 744.00 L 1655.00 674.00 L 1632.00 674.00 L 1612.00 654.00 L 1532.00 654.00 L 1512.00 655.00 L 1421.00 655.00 L 1407.00 745.00 Z" stroke-width="1" id="277-08-07" stroke="black"/>
  <path fill="none" d="M 1652.00 744.00 L 1672.00 743.00 L 1754.00 743.00 L 1752.00 654.00 L 1692.00 654.00 L 1672.00 674.00 L 1655.00 674.00 L 1624.00 744.00 Z" stroke-width="1" id="277-08-08" stroke="black"/>
  <path fill="none" d="M 1852.00 743.00 L 1872.00 742.00 L 1907.60 742.00 L 1898.00 681.00 L 1890.46 653.00 L 1772.00 653.00 L 1752.00 654.00 L 1754.00 743.00 Z" stroke-width="1" id="277-08-09" stroke="black"/>
  <path fill="none" d="M 204.00 750.00 L 204.00 802.00 L 194.00 812.00 L 208.77 836.00 L 372.00 836.00 L 385.00 835.35 L 416.00 749.00 L 352.00 749.00 L 332.00 750.00 Z" stroke-width="1" id="277-09-01" stroke="black"/>
  <path fill="none" d="M 392.00 835.00 L 412.00 835.00 L 432.00 855.00 L 452.00 835.00 L 463.00 835.00 L 519.00 749.00 L 416.00 749.00 L 385.00 835.35 Z" stroke-width="1" id="277-09-02" stroke="black"/>
  <path fill="none" d="M 589.00 835.00 L 623.00 761.90 L 612.00 763.00 L 592.00 779.00 L 572.00 779.00 L 552.00 749.00 L 519.00 749.00 L 463.00 835.00 Z" stroke-width="1" id="277-09-03" stroke="black"/>
  <path fill="none" d="M 632.00 835.00 L 652.00 834.00 L 712.00 834.00 L 732.00 854.00 L 752.00 854.00 L 772.00 834.00 L 812.00 834.00 L 832.00 854.00 L 872.00 854.00 L 892.00 834.00 L 912.00 833.00 L 913.00 833.00 L 961.00 747.00 L 852.00 747.00 L 832.00 767.00 L 812.00 767.00 L 792.00 747.00 L 772.00 748.00 L 652.00 748.00 L 632.00 761.00 L 623.00 761.90 L 589.00 835.00 Z" stroke-width="1" id="277-09-04" stroke="black"/>
  <path fill="none" d="M 1045.00 833.00 L 1082.00 746.00 L 1012.00 746.00 L 992.00 747.00 L 961.00 747.00 L 913.00 833.00 Z" stroke-width="1" id="277-09-05" stroke="black"/>
  <path fill="none" d="M 1125.00 833.00 L 1136.00 746.00 L 1082.00 746.00 L 1045.00 833.00 Z" stroke-width="1" id="277-09-06" stroke="black"/>
  <path fill="none" d="M 1132.00 833.00 L 1152.00 832.00 L 1299.00 832.00 L 1322.00 745.00 L 1232.00 745.00 L 1212.00 746.00 L 1136.00 746.00 L 1125.00 833.00 Z" stroke-width="1" id="277-09-07" stroke="black"/>
  <path fill="none" d="M 1392.00 832.00 L 1412.00 811.00 L 1417.00 745.00 L 1322.00 745.00 L 1299.00 832.00 Z" stroke-width="1" id="277-09-08" stroke="black"/>
  <path fill="none" d="M 1432.00 831.00 L 1471.00 831.00 L 1486.00 744.00 L 1452.00 744.00 L 1432.00 745.00 L 1417.00 745.00 L 1412.00 811.00 Z" stroke-width="1" id="277-09-09" stroke="black"/>
  <path fill="none" d="M 1612.00 831.00 L 1632.00 851.00 L 1652.00 831.00 L 1667.00 830.25 L 1681.00 743.00 L 1672.00 743.00 L 1652.00 744.00 L 1486.00 744.00 L 1471.00 831.00 Z" stroke-width="1" id="277-09-10" stroke="black"/>
  <path fill="none" d="M 1672.00 830.00 L 1712.00 830.00 L 1732.00 850.00 L 1772.00 850.00 L 1792.00 830.00 L 1796.00 830.00 L 1812.00 743.00 L 1681.00 743.00 L 1667.00 830.25 Z" stroke-width="1" id="277-09-11" stroke="black"/>
  <path fill="none" d="M 1892.00 830.00 L 1912.00 829.00 L 1913.62 829.00 L 1915.00 789.00 L 1907.60 742.00 L 1872.00 742.00 L 1852.00 743.00 L 1812.00 743.00 L 1796.00 830.00 Z" stroke-width="1" id="277-09-12" stroke="black"/>
  <path fill="none" d="M 208.77 836.00 L 210.00 838.00 L 208.00 884.00 L 196.00 897.00 L 212.00 904.00 L 212.00 924.00 L 239.00 924.00 L 297.00 836.00 Z" stroke-width="1" id="277-10-01" stroke="black"/>
  <path fill="none" d="M 312.00 924.00 L 332.00 944.00 L 352.00 943.00 L 372.00 923.00 L 392.00 923.00 L 401.00 932.00 L 432.00 855.00 L 412.00 835.00 L 392.00 835.00 L 372.00 836.00 L 297.00 836.00 L 239.00 924.00 Z" stroke-width="1" id="277-10-02" stroke="black"/>
  <path fill="none" d="M 412.00 943.00 L 432.00 943.00 L 452.00 923.00 L 518.00 923.00 L 560.00 835.00 L 452.00 835.00 L 432.00 855.00 L 401.00 932.00 Z" stroke-width="1" id="277-10-03" stroke="black"/>
  <path fill="none" d="M 552.00 923.00 L 572.00 922.00 L 652.00 922.00 L 659.00 929.00 L 739.00 854.00 L 732.00 854.00 L 712.00 834.00 L 652.00 834.00 L 632.00 835.00 L 560.00 835.00 L 518.00 923.00 Z" stroke-width="1" id="277-10-04" stroke="black"/>
  <path fill="none" d="M 672.00 942.00 L 692.00 942.00 L 712.00 922.00 L 772.00 922.00 L 792.00 939.00 L 812.00 939.00 L 832.00 937.00 L 852.00 921.00 L 972.00 921.00 L 977.00 920.75 L 986.00 833.00 L 912.00 833.00 L 892.00 834.00 L 872.00 854.00 L 832.00 854.00 L 812.00 834.00 L 772.00 834.00 L 752.00 854.00 L 739.00 854.00 L 659.00 929.00 Z" stroke-width="1" id="277-10-05" stroke="black"/>
  <path fill="none" d="M 992.00 920.00 L 1092.00 920.00 L 1112.00 940.00 L 1152.00 940.00 L 1172.00 920.00 L 1186.00 920.00 L 1204.00 832.00 L 1152.00 832.00 L 1132.00 833.00 L 986.00 833.00 L 977.00 920.75 Z" stroke-width="1" id="277-10-06" stroke="black"/>
  <path fill="none" d="M 1192.00 920.00 L 1212.00 919.00 L 1232.00 939.00 L 1252.00 939.00 L 1272.00 919.00 L 1395.00 919.00 L 1436.00 831.00 L 1432.00 831.00 L 1412.00 811.00 L 1392.00 832.00 L 1204.00 832.00 L 1186.00 920.00 Z" stroke-width="1" id="277-10-07" stroke="black"/>
  <path fill="none" d="M 1412.00 919.00 L 1432.00 918.00 L 1473.00 918.00 L 1494.00 831.00 L 1436.00 831.00 L 1395.00 919.00 Z" stroke-width="1" id="277-10-08" stroke="black"/>
  <path fill="none" d="M 1532.00 918.00 L 1535.00 921.00 L 1601.00 831.00 L 1494.00 831.00 L 1473.00 918.00 Z" stroke-width="1" id="277-10-09" stroke="black"/>
  <path fill="none" d="M 1552.00 938.00 L 1572.00 938.00 L 1592.00 918.00 L 1612.00 918.00 L 1632.00 917.00 L 1794.00 917.00 L 1816.00 830.00 L 1792.00 830.00 L 1772.00 850.00 L 1732.00 850.00 L 1712.00 830.00 L 1672.00 830.00 L 1652.00 831.00 L 1632.00 851.00 L 1612.00 831.00 L 1601.00 831.00 L 1535.00 921.00 Z" stroke-width="1" id="277-10-10" stroke="black"/>
  <path fill="none" d="M 1832.00 917.00 L 1852.00 916.00 L 1917.71 916.00 L 1912.00 876.00 L 1913.62 829.00 L 1912.00 829.00 L 1892.00 830.00 L 1816.00 830.00 L 1794.00 917.00 Z" stroke-width="1" id="277-10-11" stroke="black"/>
  <path fill="none" d="M 212.00 924.00 L 212.00 970.00 L 208.00 984.00 L 214.00 995.00 L 214.32 1004.00 L 352.00 1004.00 L 372.00 1024.00 L 412.00 1024.00 L 432.00 1004.00 L 435.00 1004.00 L 473.00 923.00 L 452.00 923.00 L 432.00 943.00 L 412.00 943.00 L 392.00 923.00 L 372.00 923.00 L 352.00 943.00 L 332.00 944.00 L 312.00 924.00 Z" stroke-width="1" id="277-11-01" stroke="black"/>
  <path fill="none" d="M 612.00 1004.00 L 632.00 1003.00 L 639.00 1003.00 L 672.00 942.00 L 652.00 922.00 L 572.00 922.00 L 552.00 923.00 L 473.00 923.00 L 435.00 1004.00 Z" stroke-width="1" id="277-11-02" stroke="black"/>
  <path fill="none" d="M 720.00 1003.00 L 753.00 922.00 L 712.00 922.00 L 692.00 942.00 L 672.00 942.00 L 639.00 1003.00 Z" stroke-width="1" id="277-11-03" stroke="black"/>
  <path fill="none" d="M 906.00 1003.00 L 923.00 921.00 L 852.00 921.00 L 832.00 937.00 L 812.00 939.00 L 792.00 939.00 L 772.00 922.00 L 753.00 922.00 L 720.00 1003.00 Z" stroke-width="1" id="277-11-04" stroke="black"/>
  <path fill="none" d="M 1046.00 1003.00 L 1055.00 920.00 L 992.00 920.00 L 972.00 921.00 L 923.00 921.00 L 906.00 1003.00 Z" stroke-width="1" id="277-11-05" stroke="black"/>
  <path fill="none" d="M 1112.00 1003.00 L 1132.00 1002.00 L 1242.00 1002.00 L 1252.00 939.00 L 1232.00 939.00 L 1212.00 919.00 L 1192.00 920.00 L 1172.00 920.00 L 1152.00 940.00 L 1112.00 940.00 L 1092.00 920.00 L 1055.00 920.00 L 1046.00 1003.00 Z" stroke-width="1" id="277-11-06" stroke="black"/>
  <path fill="none" d="M 1339.00 1002.00 L 1345.00 919.00 L 1272.00 919.00 L 1252.00 939.00 L 1242.00 1002.00 Z" stroke-width="1" id="277-11-07" stroke="black"/>
  <path fill="none" d="M 1442.00 1002.00 L 1442.00 918.00 L 1432.00 918.00 L 1412.00 919.00 L 1345.00 919.00 L 1339.00 1002.00 Z" stroke-width="1" id="277-11-08" stroke="black"/>
  <path fill="none" d="M 1472.00 1002.00 L 1492.00 1022.00 L 1512.00 1042.00 L 1532.00 1022.00 L 1554.00 1022.00 L 1619.00 917.65 L 1612.00 918.00 L 1592.00 918.00 L 1572.00 938.00 L 1552.00 938.00 L 1532.00 918.00 L 1442.00 918.00 L 1442.00 1002.00 Z" stroke-width="1" id="277-11-09" stroke="black"/>
  <path fill="none" d="M 1592.00 1022.00 L 1612.00 1021.00 L 1632.00 1001.00 L 1754.00 1001.00 L 1762.00 917.00 L 1632.00 917.00 L 1619.00 917.65 L 1554.00 1022.00 Z" stroke-width="1" id="277-11-10" stroke="black"/>
  <path fill="none" d="M 1812.00 1001.00 L 1832.00 1021.00 L 1872.00 1021.00 L 1892.00 1001.00 L 1931.11 1001.00 L 1924.00 960.00 L 1917.71 916.00 L 1852.00 916.00 L 1832.00 917.00 L 1762.00 917.00 L 1754.00 1001.00 Z" stroke-width="1" id="277-11-11" stroke="black"/>
  <path fill="none" d="M 214.32 1004.00 L 216.00 1052.00 L 208.00 1068.00 L 213.00 1081.00 L 212.65 1104.00 L 232.00 1104.00 L 252.00 1124.00 L 272.00 1124.00 L 292.00 1104.00 L 310.00 1104.00 L 372.00 1024.00 L 352.00 1004.00 Z" stroke-width="1" id="277-12-01" stroke="black"/>
  <path fill="none" d="M 352.00 1104.00 L 372.00 1124.00 L 392.00 1124.00 L 412.00 1104.00 L 472.00 1104.00 L 492.00 1103.00 L 592.00 1103.00 L 612.00 1123.00 L 632.00 1103.00 L 677.00 1103.00 L 731.00 1003.00 L 632.00 1003.00 L 612.00 1004.00 L 432.00 1004.00 L 412.00 1024.00 L 372.00 1024.00 L 310.00 1104.00 Z" stroke-width="1" id="277-12-02" stroke="black"/>
  <path fill="none" d="M 832.00 1103.00 L 852.00 1102.00 L 865.00 1102.00 L 910.00 1003.00 L 731.00 1003.00 L 677.00 1103.00 Z" stroke-width="1" id="277-12-03" stroke="black"/>
  <path fill="none" d="M 952.00 1102.00 L 972.00 1122.00 L 992.00 1122.00 L 1012.00 1102.00 L 1032.00 1102.00 L 1055.00 1003.00 L 910.00 1003.00 L 865.00 1102.00 Z" stroke-width="1" id="277-12-04" stroke="black"/>
  <path fill="none" d="M 1112.00 1102.00 L 1132.00 1122.00 L 1152.00 1122.00 L 1172.00 1102.00 L 1192.00 1102.00 L 1212.00 1101.00 L 1228.00 1085.00 L 1245.00 1002.00 L 1132.00 1002.00 L 1112.00 1003.00 L 1055.00 1003.00 L 1032.00 1102.00 Z" stroke-width="1" id="277-12-05" stroke="black"/>
  <path fill="none" d="M 1232.00 1081.00 L 1252.00 1081.00 L 1272.00 1101.00 L 1512.00 1101.00 L 1532.00 1081.00 L 1552.00 1081.00 L 1572.00 1100.00 L 1577.00 1100.00 L 1608.00 1021.20 L 1592.00 1022.00 L 1532.00 1022.00 L 1512.00 1042.00 L 1492.00 1022.00 L 1472.00 1002.00 L 1245.00 1002.00 L 1228.00 1085.00 Z" stroke-width="1" id="277-12-06" stroke="black"/>
  <path fill="none" d="M 1632.00 1100.00 L 1652.00 1080.00 L 1672.00 1100.00 L 1774.00 1100.00 L 1800.00 1001.00 L 1632.00 1001.00 L 1612.00 1021.00 L 1608.00 1021.20 L 1577.00 1100.00 Z" stroke-width="1" id="277-12-07" stroke="black"/>
  <path fill="none" d="M 1902.44 1100.00 L 1938.00 1075.00 L 1937.00 1035.00 L 1931.11 1001.00 L 1892.00 1001.00 L 1872.00 1021.00 L 1832.00 1021.00 L 1812.00 1001.00 L 1800.00 1001.00 L 1774.00 1100.00 Z" stroke-width="1" id="277-12-08" stroke="black"/>
  <path fill="none" d="M 212.65 1104.00 L 212.00 1147.00 L 203.00 1157.00 L 212.00 1164.00 L 212.73 1177.00 L 232.00 1177.00 L 252.00 1176.00 L 352.00 1176.00 L 369.00 1175.15 L 377.00 1124.00 L 372.00 1124.00 L 352.00 1104.00 L 292.00 1104.00 L 272.00 1124.00 L 252.00 1124.00 L 232.00 1104.00 Z" stroke-width="1" id="277-13-01" stroke="black"/>
  <path fill="none" d="M 372.00 1175.00 L 472.00 1175.00 L 492.00 1174.00 L 499.00 1174.00 L 520.00 1103.00 L 492.00 1103.00 L 472.00 1104.00 L 412.00 1104.00 L 392.00 1124.00 L 377.00 1124.00 L 369.00 1175.15 Z" stroke-width="1" id="277-13-02" stroke="black"/>
  <path fill="none" d="M 532.00 1174.00 L 552.00 1199.00 L 572.00 1199.00 L 592.00 1203.00 L 612.00 1203.00 L 632.00 1193.00 L 652.00 1173.00 L 655.00 1173.00 L 661.00 1103.00 L 632.00 1103.00 L 612.00 1123.00 L 592.00 1103.00 L 520.00 1103.00 L 499.00 1174.00 Z" stroke-width="1" id="277-13-03" stroke="black"/>
  <path fill="none" d="M 712.00 1173.00 L 732.00 1172.00 L 799.00 1172.00 L 804.00 1103.00 L 661.00 1103.00 L 655.00 1173.00 Z" stroke-width="1" id="277-13-04" stroke="black"/>
  <path fill="none" d="M 832.00 1172.00 L 852.00 1171.00 L 872.00 1171.00 L 892.00 1191.00 L 932.00 1191.00 L 952.00 1170.00 L 981.00 1170.00 L 996.00 1118.00 L 992.00 1122.00 L 972.00 1122.00 L 952.00 1102.00 L 852.00 1102.00 L 832.00 1103.00 L 804.00 1103.00 L 799.00 1172.00 Z" stroke-width="1" id="277-13-05" stroke="black"/>
  <path fill="none" d="M 1052.00 1170.00 L 1072.00 1169.00 L 1112.00 1169.00 L 1132.00 1209.00 L 1152.00 1169.00 L 1172.00 1169.00 L 1192.00 1168.00 L 1292.00 1168.00 L 1312.00 1167.00 L 1334.00 1167.00 L 1378.00 1101.00 L 1272.00 1101.00 L 1252.00 1081.00 L 1232.00 1081.00 L 1212.00 1101.00 L 1192.00 1102.00 L 1172.00 1102.00 L 1152.00 1122.00 L 1132.00 1122.00 L 1112.00 1102.00 L 1012.00 1102.00 L 996.00 1118.00 L 981.00 1170.00 Z" stroke-width="1" id="277-13-06" stroke="black"/>
  <path fill="none" d="M 1412.00 1167.00 L 1432.00 1166.00 L 1532.00 1166.00 L 1552.00 1165.00 L 1561.00 1165.00 L 1581.00 1100.00 L 1572.00 1100.00 L 1552.00 1081.00 L 1532.00 1081.00 L 1512.00 1101.00 L 1378.00 1101.00 L 1334.00 1167.00 Z" stroke-width="1" id="277-13-07" stroke="black"/>
  <path fill="none" d="M 1632.00 1165.00 L 1652.00 1184.00 L 1672.00 1184.00 L 1692.00 1164.00 L 1752.00 1164.00 L 1772.00 1163.00 L 1861.71 1163.00 L 1874.00 1120.00 L 1902.44 1100.00 L 1672.00 1100.00 L 1652.00 1080.00 L 1632.00 1100.00 L 1581.00 1100.00 L 1561.00 1165.00 Z" stroke-width="1" id="277-13-08" stroke="black"/>
  <path fill="none" d="M 212.73 1177.00 L 216.00 1235.00 L 201.00 1243.00 L 217.00 1255.00 L 217.11 1262.00 L 272.00 1262.00 L 292.00 1261.00 L 412.00 1261.00 L 432.00 1280.00 L 472.00 1280.00 L 492.00 1260.00 L 552.00 1260.00 L 572.00 1259.00 L 573.00 1259.00 L 586.00 1201.80 L 572.00 1199.00 L 552.00 1199.00 L 532.00 1174.00 L 492.00 1174.00 L 472.00 1175.00 L 372.00 1175.00 L 352.00 1176.00 L 252.00 1176.00 L 232.00 1177.00 Z" stroke-width="1" id="277-14-01" stroke="black"/>
  <path fill="none" d="M 692.00 1259.00 L 712.00 1258.00 L 832.00 1258.00 L 852.00 1257.00 L 972.00 1257.00 L 992.00 1256.00 L 1010.00 1256.00 L 1067.00 1169.25 L 1052.00 1170.00 L 952.00 1170.00 L 932.00 1191.00 L 892.00 1191.00 L 872.00 1171.00 L 852.00 1171.00 L 832.00 1172.00 L 732.00 1172.00 L 712.00 1173.00 L 652.00 1173.00 L 632.00 1193.00 L 612.00 1203.00 L 592.00 1203.00 L 586.00 1201.80 L 573.00 1259.00 Z" stroke-width="1" id="277-14-02" stroke="black"/>
  <path fill="none" d="M 1132.00 1256.00 L 1152.00 1255.00 L 1272.00 1255.00 L 1292.00 1254.00 L 1314.00 1254.00 L 1314.00 1167.00 L 1312.00 1167.00 L 1292.00 1168.00 L 1192.00 1168.00 L 1172.00 1169.00 L 1152.00 1169.00 L 1132.00 1209.00 L 1112.00 1169.00 L 1072.00 1169.00 L 1067.00 1169.25 L 1010.00 1256.00 Z" stroke-width="1" id="277-14-03" stroke="black"/>
  <path fill="none" d="M 1392.00 1254.00 L 1412.00 1274.00 L 1432.00 1273.00 L 1492.00 1273.00 L 1512.00 1253.00 L 1539.00 1253.00 L 1547.00 1165.25 L 1532.00 1166.00 L 1432.00 1166.00 L 1412.00 1167.00 L 1314.00 1167.00 L 1314.00 1254.00 Z" stroke-width="1" id="277-14-04" stroke="black"/>
  <path fill="none" d="M 1552.00 1253.00 L 1572.00 1252.00 L 1684.00 1252.00 L 1687.00 1169.00 L 1672.00 1184.00 L 1652.00 1184.00 L 1632.00 1165.00 L 1552.00 1165.00 L 1547.00 1165.25 L 1539.00 1253.00 Z" stroke-width="1" id="277-14-05" stroke="black"/>
  <path fill="none" d="M 1692.00 1252.00 L 1712.00 1251.00 L 1832.00 1251.00 L 1852.00 1250.00 L 1933.94 1250.00 L 1931.00 1203.00 L 1854.00 1190.00 L 1861.71 1163.00 L 1772.00 1163.00 L 1752.00 1164.00 L 1692.00 1164.00 L 1687.00 1169.00 L 1684.00 1252.00 Z" stroke-width="1" id="277-14-06" stroke="black"/>
  <path fill="none" d="M 217.11 1262.00 L 218.00 1316.00 L 213.00 1326.00 L 220.00 1334.00 L 220.22 1341.00 L 232.00 1341.00 L 252.00 1340.00 L 352.00 1340.00 L 372.00 1339.00 L 420.00 1268.60 L 412.00 1261.00 L 292.00 1261.00 L 272.00 1262.00 Z" stroke-width="1" id="277-15-01" stroke="black"/>
  <path fill="none" d="M 452.00 1339.00 L 472.00 1338.00 L 572.00 1338.00 L 592.00 1337.00 L 672.00 1337.00 L 692.00 1357.00 L 712.00 1356.00 L 772.00 1356.00 L 792.00 1336.00 L 800.00 1258.00 L 712.00 1258.00 L 692.00 1259.00 L 572.00 1259.00 L 552.00 1260.00 L 492.00 1260.00 L 472.00 1280.00 L 432.00 1280.00 L 420.00 1268.60 L 372.00 1339.00 Z" stroke-width="1" id="277-15-02" stroke="black"/>
  <path fill="none" d="M 812.00 1335.00 L 912.00 1335.00 L 932.00 1334.00 L 956.00 1334.00 L 968.00 1257.00 L 852.00 1257.00 L 832.00 1258.00 L 800.00 1258.00 L 792.00 1336.00 Z" stroke-width="1" id="277-15-03" stroke="black"/>
  <path fill="none" d="M 1031.00 1334.00 L 1047.00 1256.00 L 992.00 1256.00 L 972.00 1257.00 L 968.00 1257.00 L 956.00 1334.00 Z" stroke-width="1" id="277-15-04" stroke="black"/>
  <path fill="none" d="M 1032.00 1334.00 L 1052.00 1333.00 L 1132.00 1333.00 L 1152.00 1332.00 L 1212.00 1332.00 L 1216.91 1336.91 L 1226.00 1336.00 L 1256.00 1367.00 L 1289.50 1353.50 L 1292.00 1351.00 L 1312.00 1331.00 L 1372.00 1331.00 L 1392.00 1330.00 L 1464.00 1330.00 L 1484.00 1273.00 L 1432.00 1273.00 L 1412.00 1274.00 L 1392.00 1254.00 L 1292.00 1254.00 L 1272.00 1255.00 L 1152.00 1255.00 L 1132.00 1256.00 L 1047.00 1256.00 L 1031.00 1334.00 Z" stroke-width="1" id="277-15-05" stroke="black"/>
  <path fill="none" d="M 1472.00 1330.00 L 1492.00 1329.00 L 1555.00 1329.00 L 1580.00 1252.00 L 1572.00 1252.00 L 1552.00 1253.00 L 1512.00 1253.00 L 1492.00 1273.00 L 1484.00 1273.00 L 1464.00 1330.00 Z" stroke-width="1" id="277-15-06" stroke="black"/>
  <path fill="none" d="M 1592.00 1329.00 L 1612.00 1328.00 L 1703.00 1328.00 L 1716.53 1327.77 L 1732.00 1327.00 L 1762.75 1327.00 L 1942.00 1324.00 L 1948.00 1308.00 L 1935.00 1267.00 L 1933.94 1250.00 L 1852.00 1250.00 L 1832.00 1251.00 L 1712.00 1251.00 L 1692.00 1252.00 L 1580.00 1252.00 L 1555.00 1329.00 Z" stroke-width="1" id="277-15-07" stroke="black"/>
  <path fill="none" d="M 220.22 1341.00 L 222.00 1398.00 L 214.00 1408.00 L 227.00 1421.00 L 291.00 1426.66 L 324.00 1340.00 L 252.00 1340.00 L 232.00 1341.00 Z" stroke-width="1" id="277-16-01" stroke="black"/>
  <path fill="none" d="M 417.00 1437.80 L 443.00 1339.00 L 372.00 1339.00 L 352.00 1340.00 L 324.00 1340.00 L 291.00 1426.66 Z" stroke-width="1" id="277-16-02" stroke="black"/>
  <path fill="none" d="M 441.90 1440.00 L 506.90 1440.00 L 560.00 1338.00 L 472.00 1338.00 L 452.00 1339.00 L 443.00 1339.00 L 417.00 1437.80 Z" stroke-width="1" id="277-16-03" stroke="black"/>
  <path fill="none" d="M 532.00 1440.00 L 541.25 1448.78 L 555.00 1450.00 L 561.20 1449.80 L 572.00 1439.00 L 613.00 1439.00 L 657.00 1337.00 L 592.00 1337.00 L 572.00 1338.00 L 560.00 1338.00 L 506.90 1440.00 Z" stroke-width="1" id="277-16-04" stroke="black"/>
  <path fill="none" d="M 652.00 1439.00 L 672.00 1438.00 L 792.00 1438.00 L 812.00 1437.00 L 932.00 1437.00 L 952.00 1436.00 L 984.62 1436.00 L 1028.62 1434.57 L 1038.00 1333.70 L 1032.00 1334.00 L 932.00 1334.00 L 912.00 1335.00 L 812.00 1335.00 L 792.00 1336.00 L 772.00 1356.00 L 712.00 1356.00 L 692.00 1357.00 L 672.00 1337.00 L 657.00 1337.00 L 613.00 1439.00 Z" stroke-width="1" id="277-16-05" stroke="black"/>
  <path fill="none" d="M 1370.00 1436.00 L 1372.00 1500.00 L 1372.97 1517.00 L 1472.00 1517.00 L 1492.00 1505.00 L 1512.00 1491.00 L 1532.00 1489.00 L 1552.00 1487.00 L 1566.17 1485.58 L 1566.00 1484.00 L 1582.00 1416.00 L 1499.00 1393.00 L 1429.00 1387.00 L 1419.56 1387.49 L 1412.00 1389.00 L 1370.00 1420.00 Z" stroke-width="1" id="277-17-01" stroke="black"/>
  <path fill="none" d="M 139.00 1627.00 L 132.00 1668.00 L 199.00 1669.23 L 241.00 1584.06 L 230.00 1584.00 L 220.00 1585.00 L 204.00 1585.00 Z" stroke-width="1" id="277-19-01" stroke="black"/>
  <path fill="none" d="M 241.00 1670.00 L 257.00 1679.00 L 290.52 1684.07 L 292.00 1684.00 L 338.00 1684.00 L 368.00 1584.78 L 241.00 1584.06 L 199.00 1669.23 Z" stroke-width="1" id="277-19-02" stroke="black"/>
  <path fill="none" d="M 352.00 1684.00 L 372.00 1683.00 L 412.00 1683.00 L 432.00 1703.00 L 435.11 1705.96 L 442.00 1707.00 L 466.61 1707.39 L 472.00 1702.00 L 492.00 1682.00 L 512.00 1682.00 L 532.00 1681.00 L 592.00 1681.00 L 612.00 1680.00 L 672.00 1680.00 L 692.00 1679.00 L 719.00 1679.00 L 763.00 1586.99 L 368.00 1584.78 L 338.00 1684.00 Z" stroke-width="1" id="277-19-03" stroke="black"/>
  <path fill="none" d="M 752.00 1679.00 L 772.00 1678.00 L 832.00 1678.00 L 852.00 1677.00 L 912.00 1677.00 L 932.00 1676.00 L 992.00 1676.00 L 1012.00 1675.00 L 1032.00 1675.00 L 1060.00 1583.00 L 908.00 1583.00 L 764.00 1587.00 L 763.00 1586.99 L 719.00 1679.00 Z" stroke-width="1" id="277-19-04" stroke="black"/>
  <path fill="none" d="M 1052.00 1695.00 L 1072.00 1715.00 L 1092.00 1714.00 L 1112.00 1694.00 L 1132.00 1674.00 L 1152.00 1674.00 L 1172.00 1673.00 L 1232.00 1673.00 L 1252.00 1672.00 L 1312.00 1672.00 L 1332.00 1671.00 L 1392.00 1671.00 L 1412.00 1670.00 L 1432.00 1670.00 L 1452.00 1690.00 L 1472.00 1690.00 L 1484.00 1689.40 L 1546.42 1583.00 L 1292.00 1583.00 L 1272.00 1581.00 L 1252.00 1579.00 L 1232.00 1579.00 L 1212.00 1575.00 L 1210.05 1574.61 L 1110.78 1577.37 L 1092.00 1583.00 L 1060.00 1583.00 L 1032.00 1675.00 Z" stroke-width="1" id="277-19-05" stroke="black"/>
  <path fill="none" d="M 1492.00 1689.00 L 1507.32 1704.32 L 1521.00 1705.00 L 1540.32 1700.68 L 1552.00 1689.00 L 1572.00 1668.00 L 1577.00 1668.00 L 1645.00 1583.57 L 1640.42 1583.00 L 1546.42 1583.00 L 1484.00 1689.40 Z" stroke-width="1" id="277-19-06" stroke="black"/>
  <path fill="none" d="M 1632.00 1668.00 L 1642.37 1677.85 L 1666.56 1672.44 L 1672.00 1667.00 L 1690.88 1667.00 L 1749.00 1654.00 L 1729.00 1594.00 L 1645.00 1583.57 L 1577.00 1668.00 Z" stroke-width="1" id="277-19-07" stroke="black"/>
  <path fill="none" d="M 505.00 1708.00 L 488.00 1754.00 L 572.00 1770.00 L 545.00 1805.00 L 565.00 1811.00 L 602.11 1796.89 L 612.00 1787.00 L 632.00 1766.00 L 732.00 1766.00 L 752.00 1765.00 L 831.00 1765.00 L 922.00 1676.50 L 912.00 1677.00 L 852.00 1677.00 L 832.00 1678.00 L 772.00 1678.00 L 752.00 1679.00 L 692.00 1679.00 L 672.00 1680.00 L 612.00 1680.00 L 592.00 1681.00 L 532.00 1681.00 L 516.00 1681.80 L 503.61 1707.98 Z" stroke-width="1" id="277-20-01" stroke="black"/>
  <path fill="none" d="M 852.00 1765.00 L 872.00 1764.00 L 892.00 1764.00 L 912.00 1815.00 L 932.00 1811.00 L 952.00 1811.00 L 972.00 1809.00 L 992.00 1799.00 L 1012.00 1785.00 L 1032.00 1767.00 L 1052.00 1757.00 L 1072.00 1763.00 L 1092.00 1763.00 L 1112.00 1762.00 L 1232.00 1762.00 L 1252.00 1761.00 L 1316.00 1761.00 L 1350.00 1727.00 L 1342.00 1702.20 L 1330.00 1671.10 L 1312.00 1672.00 L 1252.00 1672.00 L 1232.00 1673.00 L 1172.00 1673.00 L 1152.00 1674.00 L 1132.00 1674.00 L 1112.00 1694.00 L 1092.00 1714.00 L 1072.00 1715.00 L 1052.00 1695.00 L 1032.00 1675.00 L 1012.00 1675.00 L 992.00 1676.00 L 932.00 1676.00 L 922.00 1676.50 L 831.00 1765.00 Z" stroke-width="1" id="277-20-02" stroke="black"/>
  <path fill="none" d="M 800.00 1787.00 L 752.00 1833.00 L 718.91 1858.93 L 732.00 1891.00 L 752.00 1909.00 L 772.00 1895.00 L 792.00 1879.00 L 812.00 1875.00 L 832.00 1871.00 L 852.00 1845.00 L 872.00 1843.00 L 931.00 1843.00 L 944.00 1811.00 L 932.00 1811.00 L 912.00 1815.00 L 892.00 1764.00 L 872.00 1764.00 L 852.00 1765.00 L 816.00 1765.00 L 799.00 1786.98 Z" stroke-width="1" id="277-21-01" stroke="black"/>
  <path fill="none" d="M 992.00 1843.00 L 1012.00 1845.00 L 1032.00 1845.00 L 1052.00 1855.00 L 1063.00 1848.40 L 1072.00 1763.00 L 1052.00 1757.00 L 1032.00 1767.00 L 1012.00 1785.00 L 992.00 1799.00 L 972.00 1809.00 L 952.00 1811.00 L 944.00 1811.00 L 931.00 1843.00 Z" stroke-width="1" id="277-21-02" stroke="black"/>
  <path fill="none" d="M 1072.00 1843.00 L 1112.00 1843.00 L 1132.00 1845.00 L 1152.00 1849.00 L 1172.00 1849.00 L 1192.00 1877.00 L 1212.00 1889.00 L 1232.00 1889.00 L 1252.00 1877.00 L 1272.00 1867.00 L 1292.00 1857.00 L 1302.00 1857.00 L 1344.00 1766.25 L 1313.00 1764.00 L 1316.00 1761.00 L 1252.00 1761.00 L 1232.00 1762.00 L 1112.00 1762.00 L 1092.00 1763.00 L 1072.00 1763.00 L 1063.00 1848.40 Z" stroke-width="1" id="277-21-03" stroke="black"/>
  <path fill="none" d="M 1352.00 1857.00 L 1372.00 1853.00 L 1392.00 1853.00 L 1412.00 1851.00 L 1432.00 1849.00 L 1452.00 1845.00 L 1472.00 1845.00 L 1492.00 1841.00 L 1512.00 1839.00 L 1532.00 1843.00 L 1552.00 1855.00 L 1572.00 1871.00 L 1592.00 1869.00 L 1612.00 1839.00 L 1618.00 1839.00 L 1640.00 1787.69 L 1344.00 1766.25 L 1302.00 1857.00 Z" stroke-width="1" id="277-21-04" stroke="black"/>
  <path fill="none" d="M 1714.00 1839.00 L 1722.00 1793.63 L 1640.00 1787.69 L 1618.00 1839.00 Z" stroke-width="1" id="277-21-05" stroke="black"/>
  <path fill="none" d="M 1752.00 1839.00 L 1772.00 1838.00 L 1883.00 1838.00 L 1890.00 1805.80 L 1722.00 1793.63 L 1714.00 1839.00 Z" stroke-width="1" id="277-21-06" stroke="black"/>
  <path fill="none" d="M 1912.00 1838.00 L 1919.00 1845.00 L 1948.00 1836.00 L 1948.00 1810.00 L 1890.00 1805.80 L 1883.00 1838.00 Z" stroke-width="1" id="277-21-07" stroke="black"/>
  <path fill="none" d="M 214.00 1913.00 L 220.00 1920.00 L 230.00 1936.00 L 230.44 1943.00 L 321.44 1943.00 L 360.00 1852.38 L 309.00 1852.00 L 230.00 1906.00 Z" stroke-width="1" id="277-22-01" stroke="black"/>
  <path fill="none" d="M 332.00 1943.00 L 352.00 1942.00 L 552.00 1942.00 L 572.00 1941.00 L 601.00 1941.00 L 637.00 1857.57 L 574.00 1854.00 L 360.00 1852.38 L 321.44 1943.00 Z" stroke-width="1" id="277-22-02" stroke="black"/>
  <path fill="none" d="M 747.00 1941.00 L 755.00 1906.90 L 752.00 1909.00 L 732.00 1891.00 L 718.91 1858.93 L 715.00 1862.00 L 637.00 1857.57 L 601.00 1941.00 Z" stroke-width="1" id="277-22-03" stroke="black"/>
  <path fill="none" d="M 772.00 1941.00 L 792.00 1940.00 L 948.00 1940.00 L 972.00 1843.00 L 872.00 1843.00 L 852.00 1845.00 L 832.00 1871.00 L 812.00 1875.00 L 792.00 1879.00 L 772.00 1895.00 L 755.00 1906.90 L 747.00 1941.00 Z" stroke-width="1" id="277-22-04" stroke="black"/>
  <path fill="none" d="M 972.00 1940.00 L 992.00 1939.00 L 1172.00 1939.00 L 1192.00 1959.00 L 1212.00 1938.00 L 1227.00 1938.00 L 1233.00 1888.40 L 1232.00 1889.00 L 1212.00 1889.00 L 1192.00 1877.00 L 1172.00 1849.00 L 1152.00 1849.00 L 1132.00 1845.00 L 1112.00 1843.00 L 1072.00 1843.00 L 1052.00 1855.00 L 1032.00 1845.00 L 1012.00 1845.00 L 992.00 1843.00 L 972.00 1843.00 L 948.00 1940.00 Z" stroke-width="1" id="277-22-05" stroke="black"/>
  <path fill="none" d="M 1272.00 1938.00 L 1289.00 1955.00 L 1336.00 1857.00 L 1292.00 1857.00 L 1272.00 1867.00 L 1252.00 1877.00 L 1233.00 1888.40 L 1227.00 1938.00 Z" stroke-width="1" id="277-22-06" stroke="black"/>
  <path fill="none" d="M 1292.00 1958.00 L 1312.00 1978.00 L 1332.00 1958.00 L 1352.00 1938.00 L 1412.00 1938.00 L 1432.00 1937.00 L 1612.00 1937.00 L 1619.00 1936.65 L 1660.00 1839.00 L 1612.00 1839.00 L 1592.00 1869.00 L 1572.00 1871.00 L 1552.00 1855.00 L 1532.00 1843.00 L 1512.00 1839.00 L 1492.00 1841.00 L 1472.00 1845.00 L 1452.00 1845.00 L 1432.00 1849.00 L 1412.00 1851.00 L 1392.00 1853.00 L 1372.00 1853.00 L 1352.00 1857.00 L 1336.00 1857.00 L 1289.00 1955.00 Z" stroke-width="1" id="277-22-07" stroke="black"/>
  <path fill="none" d="M 1632.00 1936.00 L 1734.00 1936.00 L 1780.00 1838.00 L 1772.00 1838.00 L 1752.00 1839.00 L 1660.00 1839.00 L 1619.00 1936.65 Z" stroke-width="1" id="277-22-08" stroke="black"/>
  <path fill="none" d="M 1832.00 1936.00 L 1852.00 1935.00 L 1908.10 1935.00 L 1890.00 1887.00 L 1890.00 1854.00 L 1919.00 1845.00 L 1912.00 1838.00 L 1780.00 1838.00 L 1734.00 1936.00 Z" stroke-width="1" id="277-22-09" stroke="black"/>
  <path fill="none" d="M 230.44 1943.00 L 234.00 1999.00 L 219.00 2011.00 L 230.00 2019.00 L 230.30 2029.00 L 392.00 2029.00 L 409.00 2028.15 L 455.00 1942.00 L 352.00 1942.00 L 332.00 1943.00 Z" stroke-width="1" id="277-23-01" stroke="black"/>
  <path fill="none" d="M 412.00 2028.00 L 575.00 2028.00 L 608.00 1941.00 L 572.00 1941.00 L 552.00 1942.00 L 455.00 1942.00 L 409.00 2028.15 Z" stroke-width="1" id="277-23-02" stroke="black"/>
  <path fill="none" d="M 652.00 2028.00 L 672.00 2027.00 L 764.00 2027.00 L 783.00 1940.45 L 772.00 1941.00 L 608.00 1941.00 L 575.00 2028.00 Z" stroke-width="1" id="277-23-03" stroke="black"/>
  <path fill="none" d="M 912.00 2027.00 L 932.00 2026.00 L 992.00 2026.00 L 1012.00 2046.00 L 1052.00 2046.00 L 1072.00 2026.00 L 1192.00 2026.00 L 1208.00 2025.20 L 1230.00 1938.00 L 1212.00 1938.00 L 1192.00 1959.00 L 1172.00 1939.00 L 992.00 1939.00 L 972.00 1940.00 L 792.00 1940.00 L 783.00 1940.45 L 764.00 2027.00 Z" stroke-width="1" id="277-23-04" stroke="black"/>
  <path fill="none" d="M 1212.00 2025.00 L 1331.00 2025.00 L 1325.00 1965.00 L 1312.00 1978.00 L 1292.00 1958.00 L 1272.00 1938.00 L 1230.00 1938.00 L 1208.00 2025.20 Z" stroke-width="1" id="277-23-05" stroke="black"/>
  <path fill="none" d="M 1452.00 2025.00 L 1472.00 2024.00 L 1492.00 2024.00 L 1512.00 2044.00 L 1532.00 2024.00 L 1712.00 2024.00 L 1732.00 2023.00 L 1752.00 2023.00 L 1772.00 2045.00 L 1792.00 2049.00 L 1812.00 2043.00 L 1832.00 2023.00 L 1852.00 2023.00 L 1872.00 2043.00 L 1882.40 2043.00 L 1901.00 2012.00 L 1908.00 1990.00 L 1913.00 1948.00 L 1908.10 1935.00 L 1852.00 1935.00 L 1832.00 1936.00 L 1632.00 1936.00 L 1612.00 1937.00 L 1432.00 1937.00 L 1412.00 1938.00 L 1352.00 1938.00 L 1332.00 1958.00 L 1325.00 1965.00 L 1331.00 2025.00 Z" stroke-width="1" id="277-23-06" stroke="black"/>
  <path fill="none" d="M 230.30 2029.00 L 232.00 2086.00 L 222.00 2096.00 L 234.00 2109.00 L 234.25 2117.00 L 372.00 2117.00 L 392.00 2116.00 L 396.00 2116.00 L 450.00 2028.00 L 412.00 2028.00 L 392.00 2029.00 Z" stroke-width="1" id="277-24-01" stroke="black"/>
  <path fill="none" d="M 572.00 2116.00 L 592.00 2136.00 L 612.00 2116.00 L 616.00 2116.00 L 655.00 2027.85 L 652.00 2028.00 L 450.00 2028.00 L 396.00 2116.00 Z" stroke-width="1" id="277-24-02" stroke="black"/>
  <path fill="none" d="M 632.00 2116.00 L 652.00 2115.00 L 794.00 2115.00 L 836.00 2027.00 L 672.00 2027.00 L 655.00 2027.85 L 616.00 2116.00 Z" stroke-width="1" id="277-24-03" stroke="black"/>
  <path fill="none" d="M 872.00 2115.00 L 892.00 2114.00 L 1132.00 2114.00 L 1133.00 2113.95 L 1177.00 2026.00 L 1072.00 2026.00 L 1052.00 2046.00 L 1012.00 2046.00 L 992.00 2026.00 L 932.00 2026.00 L 912.00 2027.00 L 836.00 2027.00 L 794.00 2115.00 Z" stroke-width="1" id="277-24-04" stroke="black"/>
  <path fill="none" d="M 1152.00 2113.00 L 1349.00 2113.00 L 1387.00 2025.00 L 1212.00 2025.00 L 1192.00 2026.00 L 1177.00 2026.00 L 1133.00 2113.95 Z" stroke-width="1" id="277-24-05" stroke="black"/>
  <path fill="none" d="M 1392.00 2113.00 L 1412.00 2112.00 L 1632.00 2112.00 L 1652.00 2111.00 L 1772.00 2111.00 L 1792.00 2131.00 L 1832.00 2131.00 L 1852.00 2111.00 L 1892.00 2111.00 L 1895.86 2110.81 L 1859.00 2082.00 L 1882.40 2043.00 L 1872.00 2043.00 L 1852.00 2023.00 L 1832.00 2023.00 L 1812.00 2043.00 L 1792.00 2049.00 L 1772.00 2045.00 L 1752.00 2023.00 L 1732.00 2023.00 L 1712.00 2024.00 L 1532.00 2024.00 L 1512.00 2044.00 L 1492.00 2024.00 L 1472.00 2024.00 L 1452.00 2025.00 L 1387.00 2025.00 L 1349.00 2113.00 Z" stroke-width="1" id="277-24-06" stroke="black"/>
  <path fill="none" d="M 234.25 2117.00 L 236.00 2172.00 L 222.00 2180.00 L 235.00 2196.00 L 235.18 2204.00 L 312.00 2204.00 L 332.00 2224.00 L 352.00 2204.00 L 393.00 2204.00 L 429.00 2116.00 L 392.00 2116.00 L 372.00 2117.00 Z" stroke-width="1" id="277-25-01" stroke="black"/>
  <path fill="none" d="M 547.00 2204.00 L 583.00 2127.00 L 572.00 2116.00 L 429.00 2116.00 L 393.00 2204.00 Z" stroke-width="1" id="277-25-02" stroke="black"/>
  <path fill="none" d="M 572.00 2204.00 L 592.00 2203.00 L 882.00 2203.00 L 906.00 2114.00 L 892.00 2114.00 L 872.00 2115.00 L 652.00 2115.00 L 632.00 2116.00 L 612.00 2116.00 L 592.00 2136.00 L 583.00 2127.00 L 547.00 2204.00 Z" stroke-width="1" id="277-25-03" stroke="black"/>
  <path fill="none" d="M 952.00 2203.00 L 972.00 2223.00 L 1012.00 2223.00 L 1032.00 2202.00 L 1230.00 2202.00 L 1265.00 2113.00 L 1152.00 2113.00 L 1132.00 2114.00 L 906.00 2114.00 L 882.00 2203.00 Z" stroke-width="1" id="277-25-04" stroke="black"/>
  <path fill="none" d="M 1312.00 2202.00 L 1349.00 2113.00 L 1265.00 2113.00 L 1230.00 2202.00 Z" stroke-width="1" id="277-25-05" stroke="black"/>
  <path fill="none" d="M 1452.00 2202.00 L 1472.00 2201.00 L 1516.00 2201.00 L 1547.00 2112.00 L 1412.00 2112.00 L 1392.00 2113.00 L 1349.00 2113.00 L 1312.00 2202.00 Z" stroke-width="1" id="277-25-06" stroke="black"/>
  <path fill="none" d="M 1892.00 2201.00 L 1912.00 2200.00 L 1944.90 2200.00 L 1951.00 2184.00 L 1946.00 2150.00 L 1895.86 2110.81 L 1892.00 2111.00 L 1852.00 2111.00 L 1832.00 2131.00 L 1792.00 2131.00 L 1772.00 2111.00 L 1652.00 2111.00 L 1632.00 2112.00 L 1547.00 2112.00 L 1516.00 2201.00 Z" stroke-width="1" id="277-25-07" stroke="black"/>
  <path fill="none" d="M 235.18 2204.00 L 236.00 2240.00 L 226.00 2251.00 L 224.00 2268.00 L 240.00 2274.00 L 239.77 2288.00 L 284.77 2288.00 L 305.00 2204.00 Z" stroke-width="1" id="277-26-01" stroke="black"/>
  <path fill="none" d="M 412.00 2288.00 L 432.00 2307.00 L 452.00 2287.00 L 637.00 2287.00 L 656.00 2203.00 L 592.00 2203.00 L 572.00 2204.00 L 352.00 2204.00 L 332.00 2224.00 L 312.00 2204.00 L 305.00 2204.00 L 284.77 2288.00 Z" stroke-width="1" id="277-26-02" stroke="black"/>
  <path fill="none" d="M 712.00 2287.00 L 732.00 2286.00 L 752.00 2286.00 L 756.00 2294.00 L 806.00 2203.00 L 656.00 2203.00 L 637.00 2287.00 Z" stroke-width="1" id="277-26-03" stroke="black"/>
  <path fill="none" d="M 772.00 2326.00 L 812.00 2326.00 L 832.00 2306.00 L 852.00 2286.00 L 992.00 2286.00 L 1012.00 2285.00 L 1169.00 2285.00 L 1188.00 2202.00 L 1032.00 2202.00 L 1012.00 2223.00 L 972.00 2223.00 L 952.00 2203.00 L 806.00 2203.00 L 756.00 2294.00 Z" stroke-width="1" id="277-26-04" stroke="black"/>
  <path fill="none" d="M 1245.00 2285.00 L 1274.00 2202.00 L 1188.00 2202.00 L 1169.00 2285.00 Z" stroke-width="1" id="277-26-05" stroke="black"/>
  <path fill="none" d="M 1292.00 2285.00 L 1312.00 2284.00 L 1412.00 2284.00 L 1420.00 2300.00 L 1520.00 2201.00 L 1472.00 2201.00 L 1452.00 2202.00 L 1274.00 2202.00 L 1245.00 2285.00 Z" stroke-width="1" id="277-26-06" stroke="black"/>
  <path fill="none" d="M 1432.00 2324.00 L 1452.00 2324.00 L 1472.00 2304.00 L 1492.00 2304.00 L 1512.00 2284.00 L 1572.00 2284.00 L 1592.00 2283.00 L 1594.00 2283.00 L 1602.00 2201.00 L 1520.00 2201.00 L 1420.00 2300.00 Z" stroke-width="1" id="277-26-07" stroke="black"/>
  <path fill="none" d="M 1822.00 2283.00 L 1828.00 2201.00 L 1602.00 2201.00 L 1594.00 2283.00 Z" stroke-width="1" id="277-26-08" stroke="black"/>
  <path fill="none" d="M 1872.00 2283.00 L 1892.00 2282.00 L 1935.57 2282.00 L 1927.00 2247.00 L 1944.90 2200.00 L 1912.00 2200.00 L 1892.00 2201.00 L 1828.00 2201.00 L 1822.00 2283.00 Z" stroke-width="1" id="277-26-09" stroke="black"/>
  <path fill="none" d="M 239.77 2288.00 L 239.00 2334.00 L 226.00 2362.00 L 240.00 2372.00 L 239.86 2378.00 L 332.00 2378.00 L 352.00 2377.00 L 552.00 2377.00 L 572.00 2376.00 L 584.00 2395.80 L 653.00 2287.00 L 452.00 2287.00 L 432.00 2307.00 L 412.00 2288.00 Z" stroke-width="1" id="277-27-01" stroke="black"/>
  <path fill="none" d="M 592.00 2409.00 L 612.00 2411.00 L 632.00 2403.00 L 652.00 2393.00 L 672.00 2385.00 L 692.00 2381.00 L 712.00 2376.00 L 772.00 2376.00 L 779.00 2375.65 L 787.00 2326.00 L 772.00 2326.00 L 752.00 2286.00 L 732.00 2286.00 L 712.00 2287.00 L 653.00 2287.00 L 584.00 2395.80 Z" stroke-width="1" id="277-27-02" stroke="black"/>
  <path fill="none" d="M 792.00 2375.00 L 992.00 2375.00 L 999.00 2379.20 L 1072.00 2285.00 L 1012.00 2285.00 L 992.00 2286.00 L 852.00 2286.00 L 832.00 2306.00 L 812.00 2326.00 L 787.00 2326.00 L 779.00 2375.65 Z" stroke-width="1" id="277-27-03" stroke="black"/>
  <path fill="none" d="M 1012.00 2387.00 L 1032.00 2387.00 L 1052.00 2374.00 L 1212.00 2374.00 L 1232.00 2373.00 L 1292.00 2373.00 L 1345.00 2284.00 L 1312.00 2284.00 L 1292.00 2285.00 L 1072.00 2285.00 L 999.00 2379.20 Z" stroke-width="1" id="277-27-04" stroke="black"/>
  <path fill="none" d="M 1312.00 2393.00 L 1332.00 2393.00 L 1352.00 2373.00 L 1432.00 2373.00 L 1452.00 2372.00 L 1485.00 2372.00 L 1521.00 2284.00 L 1512.00 2284.00 L 1492.00 2304.00 L 1472.00 2304.00 L 1452.00 2324.00 L 1432.00 2324.00 L 1412.00 2284.00 L 1345.00 2284.00 L 1292.00 2373.00 Z" stroke-width="1" id="277-27-05" stroke="black"/>
  <path fill="none" d="M 1652.00 2372.00 L 1672.00 2371.00 L 1702.00 2371.00 L 1702.00 2283.00 L 1592.00 2283.00 L 1572.00 2284.00 L 1521.00 2284.00 L 1485.00 2372.00 Z" stroke-width="1" id="277-27-06" stroke="black"/>
  <path fill="none" d="M 1831.00 2371.00 L 1875.00 2282.85 L 1872.00 2283.00 L 1702.00 2283.00 L 1702.00 2371.00 Z" stroke-width="1" id="277-27-07" stroke="black"/>
  <path fill="none" d="M 1852.00 2371.00 L 1872.00 2370.00 L 1951.29 2370.00 L 1951.00 2345.00 L 1935.57 2282.00 L 1892.00 2282.00 L 1875.00 2282.85 L 1831.00 2371.00 Z" stroke-width="1" id="277-27-08" stroke="black"/>
  <path fill="none" d="M 239.86 2378.00 L 239.00 2415.00 L 236.00 2430.00 L 227.00 2443.00 L 238.00 2450.00 L 238.59 2471.00 L 292.00 2471.00 L 312.00 2491.00 L 372.00 2491.00 L 392.00 2471.00 L 412.00 2470.00 L 452.00 2470.00 L 471.00 2451.00 L 449.00 2377.00 L 352.00 2377.00 L 332.00 2378.00 Z" stroke-width="1" id="277-28-01" stroke="black"/>
  <path fill="none" d="M 472.00 2450.00 L 488.00 2498.00 L 557.00 2376.75 L 552.00 2377.00 L 449.00 2377.00 L 471.00 2451.00 Z" stroke-width="1" id="277-28-02" stroke="black"/>
  <path fill="none" d="M 492.00 2510.00 L 512.00 2510.00 L 532.00 2490.00 L 552.00 2490.00 L 572.00 2470.00 L 652.00 2470.00 L 672.00 2469.00 L 696.00 2469.00 L 709.00 2376.75 L 692.00 2381.00 L 672.00 2385.00 L 652.00 2393.00 L 632.00 2403.00 L 612.00 2411.00 L 592.00 2409.00 L 572.00 2376.00 L 557.00 2376.75 L 488.00 2498.00 Z" stroke-width="1" id="277-28-03" stroke="black"/>
  <path fill="none" d="M 858.00 2469.00 L 869.00 2375.00 L 792.00 2375.00 L 772.00 2376.00 L 712.00 2376.00 L 709.00 2376.75 L 696.00 2469.00 Z" stroke-width="1" id="277-28-04" stroke="black"/>
  <path fill="none" d="M 912.00 2469.00 L 932.00 2468.00 L 945.00 2468.00 L 966.00 2375.00 L 869.00 2375.00 L 858.00 2469.00 Z" stroke-width="1" id="277-28-05" stroke="black"/>
  <path fill="none" d="M 1052.00 2468.00 L 1058.00 2462.00 L 1085.00 2374.00 L 1052.00 2374.00 L 1032.00 2387.00 L 1012.00 2387.00 L 992.00 2375.00 L 966.00 2375.00 L 945.00 2468.00 Z" stroke-width="1" id="277-28-06" stroke="black"/>
  <path fill="none" d="M 1072.00 2448.00 L 1092.00 2468.00 L 1112.00 2468.00 L 1132.00 2493.00 L 1152.00 2495.00 L 1172.00 2495.00 L 1192.00 2497.00 L 1212.00 2483.00 L 1232.00 2477.00 L 1233.00 2476.70 L 1260.00 2373.00 L 1232.00 2373.00 L 1212.00 2374.00 L 1085.00 2374.00 L 1058.00 2462.00 Z" stroke-width="1" id="277-28-07" stroke="black"/>
  <path fill="none" d="M 1252.00 2471.00 L 1272.00 2467.00 L 1432.00 2467.00 L 1452.00 2466.00 L 1514.00 2466.00 L 1553.00 2372.00 L 1452.00 2372.00 L 1432.00 2373.00 L 1352.00 2373.00 L 1332.00 2393.00 L 1312.00 2393.00 L 1292.00 2373.00 L 1260.00 2373.00 L 1233.00 2476.70 Z" stroke-width="1" id="277-28-08" stroke="black"/>
  <path fill="none" d="M 1682.00 2466.00 L 1697.00 2371.00 L 1672.00 2371.00 L 1652.00 2372.00 L 1553.00 2372.00 L 1514.00 2466.00 Z" stroke-width="1" id="277-28-09" stroke="black"/>
  <path fill="none" d="M 1692.00 2466.00 L 1712.00 2465.00 L 1954.27 2465.00 L 1952.00 2431.00 L 1951.29 2370.00 L 1872.00 2370.00 L 1852.00 2371.00 L 1697.00 2371.00 L 1682.00 2466.00 Z" stroke-width="1" id="277-28-10" stroke="black"/>
  <path fill="none" d="M 238.59 2471.00 L 240.00 2521.00 L 223.00 2532.00 L 239.00 2542.00 L 237.11 2578.00 L 252.00 2578.00 L 272.00 2558.00 L 292.00 2558.00 L 312.00 2557.00 L 409.00 2557.00 L 433.00 2470.00 L 412.00 2470.00 L 392.00 2471.00 L 372.00 2491.00 L 312.00 2491.00 L 292.00 2471.00 Z" stroke-width="1" id="277-29-01" stroke="black"/>
  <path fill="none" d="M 452.00 2557.00 L 472.00 2536.00 L 484.00 2572.00 L 557.00 2485.00 L 552.00 2490.00 L 532.00 2490.00 L 512.00 2510.00 L 492.00 2510.00 L 472.00 2450.00 L 452.00 2470.00 L 433.00 2470.00 L 409.00 2557.00 Z" stroke-width="1" id="277-29-02" stroke="black"/>
  <path fill="none" d="M 492.00 2596.00 L 532.00 2596.00 L 552.00 2576.00 L 572.00 2556.00 L 632.00 2556.00 L 652.00 2555.00 L 741.00 2555.00 L 747.00 2469.00 L 672.00 2469.00 L 652.00 2470.00 L 572.00 2470.00 L 557.00 2485.00 L 484.00 2572.00 Z" stroke-width="1" id="277-29-03" stroke="black"/>
  <path fill="none" d="M 792.00 2555.00 L 812.00 2554.00 L 952.00 2554.00 L 972.00 2553.00 L 1091.00 2553.00 L 1132.00 2493.00 L 1112.00 2468.00 L 1092.00 2468.00 L 1072.00 2448.00 L 1052.00 2468.00 L 932.00 2468.00 L 912.00 2469.00 L 747.00 2469.00 L 741.00 2555.00 Z" stroke-width="1" id="277-29-04" stroke="black"/>
  <path fill="none" d="M 1132.00 2553.00 L 1152.00 2552.00 L 1278.00 2552.00 L 1292.00 2467.00 L 1272.00 2467.00 L 1252.00 2471.00 L 1232.00 2477.00 L 1212.00 2483.00 L 1192.00 2497.00 L 1172.00 2495.00 L 1152.00 2495.00 L 1132.00 2493.00 L 1091.00 2553.00 Z" stroke-width="1" id="277-29-05" stroke="black"/>
  <path fill="none" d="M 1292.00 2552.00 L 1312.00 2551.00 L 1424.00 2551.00 L 1428.00 2467.00 L 1292.00 2467.00 L 1278.00 2552.00 Z" stroke-width="1" id="277-29-06" stroke="black"/>
  <path fill="none" d="M 1452.00 2551.00 L 1472.00 2550.00 L 1618.00 2550.00 L 1646.00 2466.00 L 1452.00 2466.00 L 1432.00 2467.00 L 1428.00 2467.00 L 1424.00 2551.00 Z" stroke-width="1" id="277-29-07" stroke="black"/>
  <path fill="none" d="M 1632.00 2550.00 L 1652.00 2569.00 L 1672.00 2549.00 L 1792.00 2549.00 L 1793.00 2548.95 L 1819.27 2465.00 L 1712.00 2465.00 L 1692.00 2466.00 L 1646.00 2466.00 L 1618.00 2550.00 Z" stroke-width="1" id="277-29-08" stroke="black"/>
  <path fill="none" d="M 1812.00 2548.00 L 1950.80 2548.00 L 1957.00 2506.00 L 1954.27 2465.00 L 1819.27 2465.00 L 1793.00 2548.95 Z" stroke-width="1" id="277-29-09" stroke="black"/>
  <path fill="none" d="M 237.11 2578.00 L 237.00 2580.00 L 239.00 2602.00 L 236.00 2617.00 L 240.00 2624.00 L 239.91 2631.00 L 292.00 2631.00 L 312.00 2630.00 L 327.00 2630.00 L 337.00 2557.00 L 312.00 2557.00 L 292.00 2558.00 L 272.00 2558.00 L 252.00 2578.00 Z" stroke-width="1" id="277-30-01" stroke="black"/>
  <path fill="none" d="M 452.00 2630.00 L 472.00 2629.00 L 499.00 2629.00 L 512.00 2596.00 L 492.00 2596.00 L 472.00 2536.00 L 452.00 2557.00 L 337.00 2557.00 L 327.00 2630.00 Z" stroke-width="1" id="277-30-02" stroke="black"/>
  <path fill="none" d="M 612.00 2629.00 L 631.00 2628.05 L 635.00 2555.85 L 632.00 2556.00 L 572.00 2556.00 L 552.00 2576.00 L 532.00 2596.00 L 512.00 2596.00 L 499.00 2629.00 Z" stroke-width="1" id="277-30-03" stroke="black"/>
  <path fill="none" d="M 632.00 2628.00 L 692.00 2628.00 L 712.00 2655.00 L 732.00 2655.00 L 752.00 2647.00 L 772.00 2648.00 L 792.00 2627.00 L 811.00 2627.00 L 817.00 2554.00 L 812.00 2554.00 L 792.00 2555.00 L 652.00 2555.00 L 635.00 2555.85 L 631.00 2628.05 Z" stroke-width="1" id="277-30-04" stroke="black"/>
  <path fill="none" d="M 952.00 2627.00 L 972.00 2626.00 L 1112.00 2626.00 L 1124.00 2625.40 L 1163.00 2552.00 L 1152.00 2552.00 L 1132.00 2553.00 L 972.00 2553.00 L 952.00 2554.00 L 817.00 2554.00 L 811.00 2627.00 Z" stroke-width="1" id="277-30-05" stroke="black"/>
  <path fill="none" d="M 1132.00 2625.00 L 1272.00 2625.00 L 1292.00 2624.00 L 1432.00 2624.00 L 1452.00 2623.00 L 1512.00 2623.00 L 1532.00 2643.00 L 1547.00 2643.00 L 1624.00 2550.00 L 1472.00 2550.00 L 1452.00 2551.00 L 1312.00 2551.00 L 1292.00 2552.00 L 1163.00 2552.00 L 1124.00 2625.40 Z" stroke-width="1" id="277-30-06" stroke="black"/>
  <path fill="none" d="M 1592.00 2643.00 L 1612.00 2623.00 L 1632.00 2622.00 L 1772.00 2622.00 L 1792.00 2621.00 L 1877.00 2621.00 L 1911.80 2548.00 L 1812.00 2548.00 L 1792.00 2549.00 L 1672.00 2549.00 L 1652.00 2569.00 L 1632.00 2550.00 L 1624.00 2550.00 L 1547.00 2643.00 Z" stroke-width="1" id="277-30-07" stroke="black"/>
  <path fill="none" d="M 1932.00 2621.00 L 1944.29 2620.39 L 1944.00 2594.00 L 1950.80 2548.00 L 1911.80 2548.00 L 1877.00 2621.00 Z" stroke-width="1" id="277-30-08" stroke="black"/>
  <path fill="none" d="M 239.91 2631.00 L 239.00 2698.00 L 228.00 2722.00 L 244.00 2732.00 L 243.90 2734.00 L 252.00 2734.00 L 272.00 2714.00 L 332.00 2714.00 L 352.00 2713.00 L 372.00 2733.00 L 412.00 2733.00 L 432.00 2713.00 L 491.00 2713.00 L 499.00 2629.00 L 472.00 2629.00 L 452.00 2630.00 L 312.00 2630.00 L 292.00 2631.00 Z" stroke-width="1" id="277-31-01" stroke="black"/>
  <path fill="none" d="M 552.00 2713.00 L 572.00 2712.00 L 650.00 2712.00 L 667.00 2628.00 L 632.00 2628.00 L 612.00 2629.00 L 499.00 2629.00 L 491.00 2713.00 Z" stroke-width="1" id="277-31-02" stroke="black"/>
  <path fill="none" d="M 772.00 2712.00 L 792.00 2711.00 L 898.00 2711.00 L 923.00 2627.00 L 792.00 2627.00 L 772.00 2648.00 L 752.00 2647.00 L 732.00 2655.00 L 712.00 2655.00 L 692.00 2628.00 L 667.00 2628.00 L 650.00 2712.00 Z" stroke-width="1" id="277-31-03" stroke="black"/>
  <path fill="none" d="M 972.00 2711.00 L 992.00 2710.00 L 1148.00 2710.00 L 1201.00 2625.00 L 1132.00 2625.00 L 1112.00 2626.00 L 972.00 2626.00 L 952.00 2627.00 L 923.00 2627.00 L 898.00 2711.00 Z" stroke-width="1" id="277-31-04" stroke="black"/>
  <path fill="none" d="M 1192.00 2710.00 L 1212.00 2709.00 L 1272.00 2709.00 L 1276.00 2713.00 L 1346.00 2624.00 L 1292.00 2624.00 L 1272.00 2625.00 L 1201.00 2625.00 L 1148.00 2710.00 Z" stroke-width="1" id="277-31-05" stroke="black"/>
  <path fill="none" d="M 1292.00 2729.00 L 1312.00 2729.00 L 1332.00 2709.00 L 1372.00 2709.00 L 1392.00 2729.00 L 1412.00 2709.00 L 1432.00 2708.00 L 1512.00 2708.00 L 1549.00 2643.00 L 1532.00 2643.00 L 1512.00 2623.00 L 1452.00 2623.00 L 1432.00 2624.00 L 1346.00 2624.00 L 1276.00 2713.00 Z" stroke-width="1" id="277-31-06" stroke="black"/>
  <path fill="none" d="M 1612.00 2708.00 L 1632.00 2707.00 L 1719.00 2707.00 L 1734.00 2622.00 L 1632.00 2622.00 L 1612.00 2623.00 L 1592.00 2643.00 L 1549.00 2643.00 L 1512.00 2708.00 Z" stroke-width="1" id="277-31-07" stroke="black"/>
  <path fill="none" d="M 1832.00 2707.00 L 1852.00 2706.00 L 1892.00 2706.00 L 1912.00 2726.00 L 1932.00 2726.00 L 1949.50 2708.50 L 1945.00 2686.00 L 1944.29 2620.39 L 1932.00 2621.00 L 1792.00 2621.00 L 1772.00 2622.00 L 1734.00 2622.00 L 1719.00 2707.00 Z" stroke-width="1" id="277-31-08" stroke="black"/>
  <path fill="none" d="M 243.90 2734.00 L 242.00 2773.00 L 237.00 2786.00 L 244.00 2794.00 L 244.00 2799.00 L 313.00 2799.00 L 334.00 2713.90 L 332.00 2714.00 L 272.00 2714.00 L 252.00 2734.00 Z" stroke-width="1" id="277-32-01" stroke="black"/>
  <path fill="none" d="M 332.00 2799.00 L 352.00 2819.00 L 372.00 2839.00 L 392.00 2839.00 L 412.00 2818.00 L 432.00 2838.00 L 452.00 2818.00 L 472.00 2778.00 L 472.00 2713.00 L 432.00 2713.00 L 412.00 2733.00 L 372.00 2733.00 L 352.00 2713.00 L 334.00 2713.90 L 313.00 2799.00 Z" stroke-width="1" id="277-32-02" stroke="black"/>
  <path fill="none" d="M 492.00 2798.00 L 632.00 2798.00 L 652.00 2818.00 L 672.00 2817.00 L 688.00 2801.00 L 654.00 2712.00 L 572.00 2712.00 L 552.00 2713.00 L 472.00 2713.00 L 472.00 2778.00 Z" stroke-width="1" id="277-32-03" stroke="black"/>
  <path fill="none" d="M 692.00 2797.00 L 711.00 2797.00 L 717.00 2712.00 L 654.00 2712.00 L 688.00 2801.00 Z" stroke-width="1" id="277-32-04" stroke="black"/>
  <path fill="none" d="M 781.00 2797.00 L 799.00 2711.00 L 792.00 2711.00 L 772.00 2712.00 L 717.00 2712.00 L 711.00 2797.00 Z" stroke-width="1" id="277-32-05" stroke="black"/>
  <path fill="none" d="M 912.00 2797.00 L 932.00 2796.00 L 1172.00 2796.00 L 1192.00 2795.00 L 1263.00 2795.00 L 1263.00 2709.00 L 1212.00 2709.00 L 1192.00 2710.00 L 992.00 2710.00 L 972.00 2711.00 L 799.00 2711.00 L 781.00 2797.00 Z" stroke-width="1" id="277-32-06" stroke="black"/>
  <path fill="none" d="M 1370.00 2795.00 L 1362.00 2709.00 L 1332.00 2709.00 L 1312.00 2729.00 L 1292.00 2729.00 L 1272.00 2709.00 L 1263.00 2709.00 L 1263.00 2795.00 Z" stroke-width="1" id="277-32-07" stroke="black"/>
  <path fill="none" d="M 1452.00 2795.00 L 1472.00 2794.00 L 1712.00 2794.00 L 1732.00 2793.00 L 1789.00 2793.00 L 1793.00 2707.00 L 1632.00 2707.00 L 1612.00 2708.00 L 1432.00 2708.00 L 1412.00 2709.00 L 1392.00 2729.00 L 1372.00 2709.00 L 1362.00 2709.00 L 1370.00 2795.00 Z" stroke-width="1" id="277-32-08" stroke="black"/>
  <path fill="none" d="M 1952.69 2793.00 L 1962.00 2771.00 L 1949.50 2708.50 L 1932.00 2726.00 L 1912.00 2726.00 L 1892.00 2706.00 L 1852.00 2706.00 L 1832.00 2707.00 L 1793.00 2707.00 L 1789.00 2793.00 Z" stroke-width="1" id="277-32-09" stroke="black"/>
  <path fill="none" d="M 244.00 2799.00 L 244.00 2854.00 L 234.00 2866.00 L 243.00 2880.00 L 240.00 2899.00 L 242.06 2915.06 L 252.00 2925.00 L 272.00 2905.00 L 383.00 2905.00 L 392.00 2839.00 L 372.00 2839.00 L 352.00 2819.00 L 332.00 2799.00 Z" stroke-width="1" id="277-33-01" stroke="black"/>
  <path fill="none" d="M 452.00 2905.00 L 472.00 2904.00 L 559.00 2904.00 L 567.00 2798.00 L 492.00 2798.00 L 472.00 2778.00 L 452.00 2818.00 L 432.00 2838.00 L 412.00 2818.00 L 392.00 2839.00 L 383.00 2905.00 Z" stroke-width="1" id="277-33-02" stroke="black"/>
  <path fill="none" d="M 692.00 2904.00 L 712.00 2924.00 L 732.00 2924.00 L 752.00 2904.00 L 772.00 2904.00 L 792.00 2903.00 L 841.00 2903.00 L 861.00 2797.00 L 692.00 2797.00 L 672.00 2817.00 L 652.00 2818.00 L 632.00 2798.00 L 567.00 2798.00 L 559.00 2904.00 Z" stroke-width="1" id="277-33-03" stroke="black"/>
  <path fill="none" d="M 1092.00 2903.00 L 1102.28 2902.49 L 1102.00 2896.00 L 1109.00 2896.00 L 1122.00 2796.00 L 932.00 2796.00 L 912.00 2797.00 L 861.00 2797.00 L 841.00 2903.00 Z" stroke-width="1" id="277-33-04" stroke="black"/>
  <path fill="none" d="M 1260.00 2896.00 L 1293.00 2795.00 L 1192.00 2795.00 L 1172.00 2796.00 L 1122.00 2796.00 L 1109.00 2896.00 Z" stroke-width="1" id="277-33-05" stroke="black"/>
  <path fill="none" d="M 1391.00 2896.00 L 1642.00 2882.77 L 1664.00 2794.00 L 1472.00 2794.00 L 1452.00 2795.00 L 1293.00 2795.00 L 1260.00 2896.00 Z" stroke-width="1" id="277-33-06" stroke="black"/>
  <path fill="none" d="M 1716.00 2878.86 L 1722.00 2793.50 L 1712.00 2794.00 L 1664.00 2794.00 L 1642.00 2882.77 Z" stroke-width="1" id="277-33-07" stroke="black"/>
  <path fill="none" d="M 1846.00 2872.01 L 1876.69 2793.00 L 1732.00 2793.00 L 1722.00 2793.50 L 1716.00 2878.86 Z" stroke-width="1" id="277-33-08" stroke="black"/>
  <path fill="none" d="M 1960.00 2866.00 L 1965.00 2856.00 L 1951.00 2797.00 L 1952.69 2793.00 L 1876.69 2793.00 L 1846.00 2872.01 Z" stroke-width="1" id="277-33-09" stroke="black"/>
  <path fill="none" d="M 242.06 2915.06 L 245.00 2938.00 L 231.00 2944.00 L 241.00 2957.00 L 251.00 2964.00 L 521.00 2956.91 L 521.00 2904.00 L 472.00 2904.00 L 452.00 2905.00 L 272.00 2905.00 L 252.00 2925.00 Z" stroke-width="1" id="277-34-01" stroke="black"/>
  <path fill="none" d="M 761.00 3036.00 L 769.25 3080.00 L 772.00 3080.00 L 792.00 3079.00 L 881.43 3079.00 L 1010.43 3073.21 L 1034.00 2953.20 L 1032.00 2953.00 L 992.00 2953.00 L 972.00 2951.00 L 952.00 2951.00 L 932.00 2949.00 L 858.88 2949.00 Z" stroke-width="1" id="277-35-01" stroke="black"/>
  <path fill="none" d="M 1119.43 3068.32 L 1119.16 3032.92 L 1116.00 3033.00 L 1106.00 2988.00 L 1104.79 2960.28 L 1092.00 2959.00 L 1072.00 2955.00 L 1052.00 2955.00 L 1034.00 2953.20 L 1010.43 3073.21 Z" stroke-width="1" id="277-35-02" stroke="black"/>
  <path fill="none" d="M 1394.00 3056.00 L 1360.00 3090.00 L 1399.00 3128.00 L 1481.00 3130.00 L 1492.00 3130.00 L 1512.00 3116.00 L 1532.96 3116.00 L 1587.00 3042.00 L 1477.00 3024.00 L 1424.00 3025.32 L 1393.27 3056.03 Z" stroke-width="1" id="277-36-01" stroke="black"/>
</svg>
