<?xml version="1.0" encoding="UTF-8"?>
<svg xmlns:xlink="http://www.w3.org/1999/xlink" xmlns="http://www.w3.org/2000/svg" contentScriptType="text/ecmascript" width="1969px" zoomAndPan="magnify" contentStyleType="text/css" viewBox="0 0 1969 3271" height="3271px" preserveAspectRatio="xMidYMid meet" version="1.0">
  <path fill="none" d="M 100.00 150.00 L 87.00 175.00 L 104.00 196.00 L 258.00 207.13 L 282.41 136.75 L 237.00 141.00 L 123.00 143.00 Z" stroke-width="1" id="278-01-01" stroke="black"/>
  <path fill="none" d="M 270.00 208.00 L 270.00 240.00 L 327.00 240.00 L 347.00 239.00 L 367.00 219.00 L 387.00 239.00 L 407.00 239.00 L 427.00 238.00 L 447.00 218.00 L 467.00 238.00 L 487.00 218.00 L 507.00 237.00 L 547.00 237.00 L 556.00 228.00 L 553.00 135.04 L 451.40 131.00 L 447.00 131.00 L 427.00 132.00 L 387.00 132.00 L 367.00 133.00 L 327.00 133.00 L 317.41 133.48 L 282.41 136.75 L 258.00 207.13 Z" stroke-width="1" id="278-01-02" stroke="black"/>
  <path fill="none" d="M 567.00 217.00 L 587.00 236.00 L 607.00 216.00 L 627.00 236.00 L 647.00 236.00 L 667.00 235.00 L 747.00 235.00 L 767.00 234.00 L 807.00 234.00 L 827.00 214.00 L 836.00 213.55 L 853.00 148.98 L 753.00 143.00 L 553.00 135.04 L 556.00 228.00 Z" stroke-width="1" id="278-01-03" stroke="black"/>
  <path fill="none" d="M 847.00 213.00 L 867.00 233.00 L 887.00 233.00 L 907.00 213.00 L 927.00 232.00 L 947.00 212.00 L 967.00 212.00 L 987.00 232.00 L 1007.00 211.00 L 1025.00 211.00 L 1058.00 141.73 L 937.00 154.00 L 853.00 148.98 L 836.00 213.55 Z" stroke-width="1" id="278-01-04" stroke="black"/>
  <path fill="none" d="M 1027.00 211.00 L 1047.00 231.00 L 1067.00 231.00 L 1087.00 230.00 L 1147.00 230.00 L 1167.00 229.00 L 1227.00 229.00 L 1247.00 208.00 L 1267.00 228.00 L 1327.00 228.00 L 1347.00 227.00 L 1407.00 227.00 L 1427.00 226.00 L 1487.00 226.00 L 1507.00 225.00 L 1547.00 225.00 L 1567.00 224.00 L 1635.00 224.00 L 1634.00 138.53 L 1462.00 139.00 L 1154.00 132.00 L 1058.00 141.73 L 1025.00 211.00 Z" stroke-width="1" id="278-01-05" stroke="black"/>
  <path fill="none" d="M 1647.00 224.00 L 1667.00 223.00 L 1727.00 223.00 L 1747.00 222.00 L 1807.00 222.00 L 1827.00 221.00 L 1848.00 221.00 L 1864.00 151.59 L 1826.00 138.00 L 1634.00 138.53 L 1635.00 224.00 Z" stroke-width="1" id="278-01-06" stroke="black"/>
  <path fill="none" d="M 1907.00 221.00 L 1927.00 220.00 L 1939.50 220.00 L 1947.65 217.39 L 1950.96 204.17 L 1949.00 182.00 L 1864.00 151.59 L 1848.00 221.00 Z" stroke-width="1" id="278-01-07" stroke="black"/>
  <path fill="none" d="M 212.00 295.00 L 194.00 378.00 L 257.00 381.90 L 300.00 275.00 L 258.09 275.00 Z" stroke-width="1" id="278-03-01" stroke="black"/>
  <path fill="none" d="M 291.00 384.00 L 384.00 383.12 L 425.00 275.00 L 300.00 275.00 L 257.00 381.90 Z" stroke-width="1" id="278-03-02" stroke="black"/>
  <path fill="none" d="M 502.00 382.00 L 490.17 406.00 L 507.00 406.00 L 527.00 386.00 L 770.00 386.00 L 869.00 274.00 L 767.00 274.00 L 747.00 275.00 L 425.00 275.00 L 384.00 383.12 Z" stroke-width="1" id="278-03-03" stroke="black"/>
  <path fill="none" d="M 867.00 386.00 L 887.00 385.00 L 1035.00 385.00 L 1110.00 274.00 L 869.00 274.00 L 770.00 386.00 Z" stroke-width="1" id="278-03-04" stroke="black"/>
  <path fill="none" d="M 1267.00 385.00 L 1287.00 384.00 L 1347.00 384.00 L 1367.00 404.00 L 1387.00 384.00 L 1392.00 384.00 L 1463.00 273.00 L 1427.00 273.00 L 1407.00 274.00 L 1110.00 274.00 L 1035.00 385.00 Z" stroke-width="1" id="278-03-05" stroke="black"/>
  <path fill="none" d="M 1407.00 384.00 L 1427.00 404.00 L 1447.00 404.00 L 1449.95 401.05 L 1452.00 392.00 L 1459.99 391.01 L 1467.00 384.00 L 1486.00 384.00 L 1571.00 273.00 L 1463.00 273.00 L 1392.00 384.00 Z" stroke-width="1" id="278-03-06" stroke="black"/>
  <path fill="none" d="M 1516.70 384.00 L 1638.00 369.00 L 1635.00 301.00 L 1630.00 273.00 L 1571.00 273.00 L 1486.00 384.00 Z" stroke-width="1" id="278-03-07" stroke="black"/>
  <path fill="none" d="M 490.17 406.00 L 467.00 453.00 L 544.00 486.00 L 542.00 507.00 L 592.99 505.71 L 607.00 491.00 L 627.00 471.00 L 864.00 471.00 L 949.00 385.00 L 887.00 385.00 L 867.00 386.00 L 527.00 386.00 L 507.00 406.00 Z" stroke-width="1" id="278-04-01" stroke="black"/>
  <path fill="none" d="M 947.00 471.00 L 967.00 511.00 L 1007.00 511.00 L 1027.00 491.00 L 1047.00 491.00 L 1067.00 471.00 L 1107.00 471.00 L 1127.00 470.00 L 1421.03 470.00 L 1440.00 445.00 L 1449.95 401.05 L 1447.00 404.00 L 1427.00 404.00 L 1407.00 384.00 L 1387.00 384.00 L 1367.00 404.00 L 1347.00 384.00 L 1287.00 384.00 L 1267.00 385.00 L 949.00 385.00 L 864.00 471.00 Z" stroke-width="1" id="278-04-02" stroke="black"/>
  <path fill="none" d="M 700.00 503.00 L 646.14 584.79 L 647.00 586.00 L 667.00 608.00 L 687.00 600.00 L 707.00 592.00 L 727.00 588.00 L 747.00 557.00 L 865.00 557.00 L 900.00 471.00 L 721.00 471.00 L 699.99 503.00 Z" stroke-width="1" id="278-05-01" stroke="black"/>
  <path fill="none" d="M 1008.00 557.00 L 1048.00 490.00 L 1047.00 491.00 L 1027.00 491.00 L 1007.00 511.00 L 967.00 511.00 L 947.00 471.00 L 900.00 471.00 L 865.00 557.00 Z" stroke-width="1" id="278-05-02" stroke="black"/>
  <path fill="none" d="M 1187.00 557.00 L 1207.00 596.00 L 1227.00 596.00 L 1247.00 576.00 L 1267.00 576.00 L 1287.00 556.00 L 1297.00 556.00 L 1318.03 470.00 L 1127.00 470.00 L 1107.00 471.00 L 1067.00 471.00 L 1048.00 490.00 L 1008.00 557.00 Z" stroke-width="1" id="278-05-03" stroke="black"/>
  <path fill="none" d="M 1595.00 556.00 L 1620.00 477.04 L 1418.00 474.00 L 1421.03 470.00 L 1318.03 470.00 L 1297.00 556.00 Z" stroke-width="1" id="278-05-04" stroke="black"/>
  <path fill="none" d="M 1675.00 556.00 L 1686.00 478.04 L 1620.00 477.04 L 1595.00 556.00 Z" stroke-width="1" id="278-05-05" stroke="black"/>
  <path fill="none" d="M 1727.00 556.00 L 1747.00 555.00 L 1839.96 555.00 L 1838.00 532.00 L 1750.00 479.00 L 1686.00 478.04 L 1675.00 556.00 Z" stroke-width="1" id="278-05-06" stroke="black"/>
  <path fill="none" d="M 268.00 628.00 L 284.62 646.00 L 327.00 646.00 L 347.00 666.00 L 367.00 666.00 L 387.00 646.00 L 558.00 646.00 L 569.00 584.03 L 328.00 581.00 Z" stroke-width="1" id="278-06-01" stroke="black"/>
  <path fill="none" d="M 668.00 646.00 L 675.00 604.80 L 667.00 608.00 L 647.00 586.00 L 646.14 584.79 L 646.00 585.00 L 569.00 584.03 L 558.00 646.00 Z" stroke-width="1" id="278-06-02" stroke="black"/>
  <path fill="none" d="M 807.00 646.00 L 827.00 645.00 L 1192.00 645.00 L 1227.00 596.00 L 1207.00 596.00 L 1187.00 557.00 L 747.00 557.00 L 727.00 588.00 L 707.00 592.00 L 687.00 600.00 L 675.00 604.80 L 668.00 646.00 Z" stroke-width="1" id="278-06-03" stroke="black"/>
  <path fill="none" d="M 1327.00 645.00 L 1332.00 650.00 L 1393.00 556.00 L 1287.00 556.00 L 1267.00 576.00 L 1247.00 576.00 L 1227.00 596.00 L 1192.00 645.00 Z" stroke-width="1" id="278-06-04" stroke="black"/>
  <path fill="none" d="M 1347.00 665.00 L 1367.00 665.00 L 1387.00 645.00 L 1527.00 645.00 L 1575.00 556.00 L 1393.00 556.00 L 1332.00 650.00 Z" stroke-width="1" id="278-06-05" stroke="black"/>
  <path fill="none" d="M 1547.00 645.00 L 1567.00 644.00 L 1607.00 644.00 L 1627.00 664.00 L 1667.00 664.00 L 1687.00 644.00 L 1704.00 644.00 L 1743.00 555.20 L 1727.00 556.00 L 1575.00 556.00 L 1527.00 645.00 Z" stroke-width="1" id="278-06-06" stroke="black"/>
  <path fill="none" d="M 1707.00 644.00 L 1727.00 664.00 L 1747.00 664.00 L 1767.00 644.00 L 1814.34 644.00 L 1845.00 614.00 L 1839.96 555.00 L 1747.00 555.00 L 1743.00 555.20 L 1704.00 644.00 Z" stroke-width="1" id="278-06-07" stroke="black"/>
  <path fill="none" d="M 284.62 646.00 L 292.00 654.00 L 262.00 710.00 L 274.00 718.00 L 274.58 730.00 L 367.00 730.00 L 387.00 731.00 L 647.00 731.00 L 667.00 732.00 L 686.00 732.00 L 708.00 646.00 L 387.00 646.00 L 367.00 666.00 L 347.00 666.00 L 327.00 646.00 Z" stroke-width="1" id="278-07-01" stroke="black"/>
  <path fill="none" d="M 885.00 732.00 L 930.00 645.00 L 827.00 645.00 L 807.00 646.00 L 708.00 646.00 L 686.00 732.00 Z" stroke-width="1" id="278-07-02" stroke="black"/>
  <path fill="none" d="M 927.00 732.00 L 947.00 733.00 L 1035.93 733.00 L 1037.00 729.00 L 1041.00 728.95 L 1074.00 645.00 L 930.00 645.00 L 885.00 732.00 Z" stroke-width="1" id="278-07-03" stroke="black"/>
  <path fill="none" d="M 1193.00 727.03 L 1232.00 645.00 L 1074.00 645.00 L 1041.00 728.95 Z" stroke-width="1" id="278-07-04" stroke="black"/>
  <path fill="none" d="M 1410.00 724.28 L 1461.00 645.00 L 1387.00 645.00 L 1367.00 665.00 L 1347.00 665.00 L 1327.00 645.00 L 1232.00 645.00 L 1193.00 727.03 Z" stroke-width="1" id="278-07-05" stroke="black"/>
  <path fill="none" d="M 1432.00 724.00 L 1446.00 742.00 L 1478.00 726.00 L 1583.00 717.95 L 1593.00 644.00 L 1567.00 644.00 L 1547.00 645.00 L 1461.00 645.00 L 1410.00 724.28 Z" stroke-width="1" id="278-07-06" stroke="black"/>
  <path fill="none" d="M 1752.00 705.00 L 1814.34 644.00 L 1767.00 644.00 L 1747.00 664.00 L 1727.00 664.00 L 1707.00 644.00 L 1687.00 644.00 L 1667.00 664.00 L 1627.00 664.00 L 1607.00 644.00 L 1593.00 644.00 L 1583.00 717.95 Z" stroke-width="1" id="278-07-07" stroke="black"/>
  <path fill="none" d="M 274.58 730.00 L 277.00 780.00 L 264.00 800.00 L 294.00 804.00 L 481.00 803.23 L 505.00 731.00 L 387.00 731.00 L 367.00 730.00 Z" stroke-width="1" id="278-08-01" stroke="black"/>
  <path fill="none" d="M 537.00 803.00 L 500.00 853.00 L 547.56 853.44 L 567.00 834.00 L 587.00 814.00 L 603.00 814.00 L 619.00 731.00 L 505.00 731.00 L 481.00 803.23 Z" stroke-width="1" id="278-08-02" stroke="black"/>
  <path fill="none" d="M 802.00 814.00 L 841.00 732.00 L 667.00 732.00 L 647.00 731.00 L 619.00 731.00 L 603.00 814.00 Z" stroke-width="1" id="278-08-03" stroke="black"/>
  <path fill="none" d="M 887.00 814.00 L 907.00 815.00 L 1012.00 815.00 L 1025.93 733.00 L 947.00 733.00 L 927.00 732.00 L 841.00 732.00 L 802.00 814.00 Z" stroke-width="1" id="278-08-04" stroke="black"/>
  <path fill="none" d="M 650.00 924.00 L 663.00 933.00 L 678.31 930.69 L 687.00 922.00 L 707.00 922.00 L 727.00 902.00 L 867.00 902.00 L 887.00 903.00 L 921.00 903.00 L 958.00 815.00 L 907.00 815.00 L 887.00 814.00 L 740.00 814.00 L 721.00 826.14 Z" stroke-width="1" id="278-09-01" stroke="black"/>
  <path fill="none" d="M 1071.00 903.00 L 1071.00 815.00 L 958.00 815.00 L 921.00 903.00 Z" stroke-width="1" id="278-09-02" stroke="black"/>
  <path fill="none" d="M 1127.00 903.00 L 1147.00 904.00 L 1167.00 904.00 L 1187.00 884.00 L 1194.00 884.00 L 1208.00 815.00 L 1071.00 815.00 L 1071.00 903.00 Z" stroke-width="1" id="278-09-03" stroke="black"/>
  <path fill="none" d="M 1247.00 884.00 L 1267.00 904.00 L 1387.00 904.00 L 1407.00 905.00 L 1647.00 905.00 L 1647.07 905.00 L 1708.00 902.00 L 1726.00 922.00 L 1753.55 919.45 L 1767.00 906.00 L 1787.67 906.00 L 1803.00 884.00 L 1801.00 846.00 L 1723.00 816.00 L 1707.00 816.00 L 1687.00 815.00 L 1208.00 815.00 L 1194.00 884.00 Z" stroke-width="1" id="278-09-04" stroke="black"/>
  <path fill="none" d="M 680.00 964.00 L 735.00 973.00 L 1038.62 980.00 L 1087.00 980.00 L 1107.00 970.00 L 1127.00 972.00 L 1135.00 967.20 L 1140.00 903.65 L 1127.00 903.00 L 887.00 903.00 L 867.00 902.00 L 757.00 902.00 L 702.00 940.17 Z" stroke-width="1" id="278-10-01" stroke="black"/>
  <path fill="none" d="M 1147.00 960.00 L 1167.00 980.00 L 1215.00 980.00 L 1267.00 904.00 L 1247.00 884.00 L 1187.00 884.00 L 1167.00 904.00 L 1147.00 904.00 L 1140.00 903.65 L 1135.00 967.20 Z" stroke-width="1" id="278-10-02" stroke="black"/>
  <path fill="none" d="M 1409.78 980.00 L 1422.78 921.49 L 1414.00 905.00 L 1407.00 905.00 L 1387.00 904.00 L 1267.00 904.00 L 1215.00 980.00 Z" stroke-width="1" id="278-10-03" stroke="black"/>
  <path fill="none" d="M 1038.62 980.00 L 1082.00 981.00 L 1011.00 1039.00 L 1006.36 1064.00 L 1007.00 1064.00 L 1027.00 1066.00 L 1047.00 1072.00 L 1067.00 1064.00 L 1087.00 1064.00 L 1107.00 1066.00 L 1127.00 1068.00 L 1147.00 1070.00 L 1167.00 1074.00 L 1187.00 1076.00 L 1247.00 1076.00 L 1262.00 1077.50 L 1277.78 980.00 L 1167.00 980.00 L 1147.00 960.00 L 1127.00 972.00 L 1107.00 970.00 L 1087.00 980.00 Z" stroke-width="1" id="278-11-01" stroke="black"/>
  <path fill="none" d="M 1267.00 1078.00 L 1287.00 1080.00 L 1307.00 1080.00 L 1327.00 1074.00 L 1347.00 1062.00 L 1367.00 1060.00 L 1387.00 1064.00 L 1449.00 1064.00 L 1480.00 995.81 L 1408.00 988.00 L 1409.78 980.00 L 1277.78 980.00 L 1262.00 1077.50 Z" stroke-width="1" id="278-11-02" stroke="black"/>
  <path fill="none" d="M 1584.00 1064.00 L 1590.00 1004.46 L 1537.00 1002.00 L 1480.00 995.81 L 1449.00 1064.00 Z" stroke-width="1" id="278-11-03" stroke="black"/>
  <path fill="none" d="M 1707.00 1064.00 L 1727.00 1080.00 L 1747.00 1084.00 L 1767.00 1064.00 L 1819.93 1064.00 L 1819.00 1044.00 L 1796.00 1014.00 L 1590.00 1004.46 L 1584.00 1064.00 Z" stroke-width="1" id="278-11-04" stroke="black"/>
  <path fill="none" d="M 275.00 1148.00 L 275.00 1206.00 L 263.00 1220.00 L 280.00 1228.00 L 279.69 1233.00 L 424.69 1233.00 L 444.00 1148.00 Z" stroke-width="1" id="278-13-01" stroke="black"/>
  <path fill="none" d="M 507.00 1233.00 L 527.00 1273.00 L 547.00 1253.00 L 567.00 1233.00 L 667.00 1233.00 L 679.00 1261.20 L 827.00 1148.00 L 444.00 1148.00 L 424.69 1233.00 Z" stroke-width="1" id="278-13-02" stroke="black"/>
  <path fill="none" d="M 687.00 1280.00 L 727.00 1280.00 L 747.00 1278.00 L 767.00 1266.00 L 787.00 1254.00 L 807.00 1233.00 L 1067.00 1233.00 L 1087.00 1234.00 L 1094.00 1234.00 L 1104.00 1148.00 L 827.00 1148.00 L 679.00 1261.20 Z" stroke-width="1" id="278-13-03" stroke="black"/>
  <path fill="none" d="M 1307.00 1234.00 L 1343.85 1148.00 L 1267.00 1148.00 L 1247.00 1136.00 L 1227.00 1136.00 L 1207.00 1142.00 L 1187.00 1144.00 L 1147.00 1144.00 L 1127.00 1150.00 L 1107.00 1148.00 L 1104.00 1148.00 L 1094.00 1234.00 Z" stroke-width="1" id="278-13-04" stroke="black"/>
  <path fill="none" d="M 1393.00 1234.00 L 1429.85 1148.00 L 1343.85 1148.00 L 1307.00 1234.00 Z" stroke-width="1" id="278-13-05" stroke="black"/>
  <path fill="none" d="M 1745.00 1234.00 L 1763.85 1148.00 L 1429.85 1148.00 L 1393.00 1234.00 Z" stroke-width="1" id="278-13-06" stroke="black"/>
  <path fill="none" d="M 1832.40 1234.00 L 1826.00 1194.00 L 1823.85 1148.00 L 1763.85 1148.00 L 1745.00 1234.00 Z" stroke-width="1" id="278-13-07" stroke="black"/>
  <path fill="none" d="M 279.69 1233.00 L 277.00 1276.00 L 258.00 1283.00 L 261.00 1301.00 L 280.00 1312.00 L 277.10 1340.00 L 307.00 1340.00 L 327.00 1341.00 L 390.00 1341.00 L 421.00 1233.00 Z" stroke-width="1" id="278-14-01" stroke="black"/>
  <path fill="none" d="M 407.00 1341.00 L 427.00 1342.00 L 456.00 1342.00 L 520.00 1259.00 L 507.00 1233.00 L 421.00 1233.00 L 390.00 1341.00 Z" stroke-width="1" id="278-14-02" stroke="black"/>
  <path fill="none" d="M 527.00 1342.00 L 547.00 1343.00 L 564.57 1343.00 L 566.00 1321.00 L 629.00 1233.00 L 567.00 1233.00 L 547.00 1253.00 L 527.00 1273.00 L 520.00 1259.00 L 456.00 1342.00 Z" stroke-width="1" id="278-14-03" stroke="black"/>
  <path fill="none" d="M 988.00 1322.66 L 987.00 1233.00 L 807.00 1233.00 L 787.00 1254.00 L 767.00 1266.00 L 747.00 1278.00 L 727.00 1280.00 L 687.00 1280.00 L 667.00 1233.00 L 629.00 1233.00 L 566.00 1321.00 Z" stroke-width="1" id="278-14-04" stroke="black"/>
  <path fill="none" d="M 1076.00 1323.01 L 1094.40 1234.00 L 1087.00 1234.00 L 1067.00 1233.00 L 987.00 1233.00 L 988.00 1322.66 Z" stroke-width="1" id="278-14-05" stroke="black"/>
  <path fill="none" d="M 1329.00 1324.00 L 1338.00 1343.00 L 1365.00 1339.00 L 1394.00 1320.00 L 1538.00 1317.27 L 1553.40 1234.00 L 1094.40 1234.00 L 1076.00 1323.01 Z" stroke-width="1" id="278-14-06" stroke="black"/>
  <path fill="none" d="M 1655.00 1315.06 L 1694.40 1234.00 L 1553.40 1234.00 L 1538.00 1317.27 Z" stroke-width="1" id="278-14-07" stroke="black"/>
  <path fill="none" d="M 1658.00 1315.00 L 1854.00 1312.00 L 1834.00 1244.00 L 1832.40 1234.00 L 1694.40 1234.00 L 1655.00 1315.06 Z" stroke-width="1" id="278-14-08" stroke="black"/>
  <path fill="none" d="M 277.10 1340.00 L 274.00 1370.00 L 261.00 1390.00 L 272.00 1402.00 L 272.61 1413.00 L 407.00 1413.00 L 427.00 1414.00 L 559.96 1414.00 L 564.57 1343.00 L 547.00 1343.00 L 527.00 1342.00 L 427.00 1342.00 L 407.00 1341.00 L 327.00 1341.00 L 307.00 1340.00 Z" stroke-width="1" id="278-15-01" stroke="black"/>
  <path fill="none" d="M 217.00 1484.00 L 200.00 1508.00 L 180.00 1560.00 L 202.00 1571.00 L 248.00 1569.90 L 284.00 1472.00 L 245.20 1472.00 Z" stroke-width="1" id="278-17-01" stroke="black"/>
  <path fill="none" d="M 379.00 1566.77 L 417.13 1473.00 L 347.00 1473.00 L 327.00 1472.00 L 284.00 1472.00 L 248.00 1569.90 Z" stroke-width="1" id="278-17-02" stroke="black"/>
  <path fill="none" d="M 566.00 1562.30 L 633.00 1475.75 L 556.00 1475.00 L 556.13 1473.00 L 417.13 1473.00 L 379.00 1566.77 Z" stroke-width="1" id="278-17-03" stroke="black"/>
  <path fill="none" d="M 704.00 1559.00 L 676.00 1594.00 L 717.24 1598.76 L 727.00 1589.00 L 747.00 1589.00 L 767.00 1590.00 L 787.00 1570.00 L 807.00 1590.00 L 827.00 1570.00 L 836.00 1579.00 L 883.00 1478.21 L 633.00 1475.75 L 566.00 1562.30 Z" stroke-width="1" id="278-17-04" stroke="black"/>
  <path fill="none" d="M 847.00 1590.00 L 867.00 1590.00 L 887.00 1570.00 L 907.00 1571.00 L 927.00 1591.00 L 947.00 1591.00 L 967.00 1611.00 L 987.00 1591.00 L 1027.00 1591.00 L 1047.00 1592.00 L 1167.00 1592.00 L 1187.00 1593.00 L 1207.00 1573.00 L 1247.00 1573.00 L 1267.00 1593.00 L 1307.00 1593.00 L 1323.00 1593.80 L 1329.22 1567.01 L 1329.00 1567.00 L 1338.00 1525.00 L 964.00 1479.00 L 883.00 1478.21 L 836.00 1579.00 Z" stroke-width="1" id="278-17-05" stroke="black"/>
  <path fill="none" d="M 642.40 1657.00 L 727.00 1657.00 L 747.00 1658.00 L 805.00 1658.00 L 847.00 1590.00 L 827.00 1570.00 L 807.00 1590.00 L 787.00 1570.00 L 767.00 1590.00 L 747.00 1589.00 L 727.00 1589.00 L 717.24 1598.76 L 728.00 1600.00 L 688.00 1638.00 Z" stroke-width="1" id="278-18-01" stroke="black"/>
  <path fill="none" d="M 887.00 1658.00 L 907.00 1659.00 L 1067.00 1659.00 L 1087.00 1660.00 L 1125.00 1660.00 L 1140.00 1592.00 L 1047.00 1592.00 L 1027.00 1591.00 L 987.00 1591.00 L 967.00 1611.00 L 947.00 1591.00 L 927.00 1591.00 L 907.00 1571.00 L 887.00 1570.00 L 867.00 1590.00 L 847.00 1590.00 L 805.00 1658.00 Z" stroke-width="1" id="278-18-02" stroke="black"/>
  <path fill="none" d="M 1207.00 1660.00 L 1227.00 1680.00 L 1247.00 1681.00 L 1267.00 1661.00 L 1387.00 1661.00 L 1407.00 1662.00 L 1422.00 1662.00 L 1462.00 1595.00 L 1447.00 1595.00 L 1427.00 1594.00 L 1327.00 1594.00 L 1307.00 1593.00 L 1267.00 1593.00 L 1247.00 1573.00 L 1207.00 1573.00 L 1187.00 1593.00 L 1167.00 1592.00 L 1140.00 1592.00 L 1125.00 1660.00 Z" stroke-width="1" id="278-18-03" stroke="black"/>
  <path fill="none" d="M 1547.00 1662.00 L 1563.00 1662.80 L 1597.00 1596.00 L 1587.00 1596.00 L 1567.00 1595.00 L 1548.83 1576.83 L 1516.00 1576.00 L 1495.22 1575.00 L 1487.00 1575.00 L 1467.00 1595.00 L 1462.00 1595.00 L 1422.00 1662.00 Z" stroke-width="1" id="278-18-04" stroke="black"/>
  <path fill="none" d="M 1567.00 1663.00 L 1687.00 1663.00 L 1707.00 1683.00 L 1727.00 1684.00 L 1747.00 1664.00 L 1855.24 1664.00 L 1871.00 1638.00 L 1832.00 1584.00 L 1820.30 1583.70 L 1807.00 1597.00 L 1727.00 1597.00 L 1707.00 1596.00 L 1687.00 1596.00 L 1670.92 1579.92 L 1643.77 1579.23 L 1627.00 1596.00 L 1597.00 1596.00 L 1563.00 1662.80 Z" stroke-width="1" id="278-18-05" stroke="black"/>
  <path fill="none" d="M 266.00 1706.00 L 268.00 1738.00 L 267.48 1755.00 L 427.00 1755.00 L 447.00 1756.00 L 448.00 1756.00 L 479.00 1658.00 L 451.60 1656.00 L 427.00 1656.00 L 407.00 1655.00 L 367.00 1655.00 L 361.42 1649.42 L 342.00 1648.00 Z" stroke-width="1" id="278-19-01" stroke="black"/>
  <path fill="none" d="M 731.00 1756.00 L 752.00 1658.00 L 747.00 1658.00 L 727.00 1657.00 L 642.40 1657.00 L 616.00 1668.00 L 479.00 1658.00 L 448.00 1756.00 Z" stroke-width="1" id="278-19-02" stroke="black"/>
  <path fill="none" d="M 761.00 1756.00 L 852.00 1658.00 L 752.00 1658.00 L 731.00 1756.00 Z" stroke-width="1" id="278-19-03" stroke="black"/>
  <path fill="none" d="M 767.00 1756.00 L 787.00 1757.00 L 975.00 1757.00 L 1026.00 1659.00 L 907.00 1659.00 L 887.00 1658.00 L 852.00 1658.00 L 761.00 1756.00 Z" stroke-width="1" id="278-19-04" stroke="black"/>
  <path fill="none" d="M 987.00 1757.00 L 1007.00 1777.00 L 1027.00 1757.00 L 1107.00 1757.00 L 1124.00 1757.85 L 1141.00 1660.00 L 1087.00 1660.00 L 1067.00 1659.00 L 1026.00 1659.00 L 975.00 1757.00 Z" stroke-width="1" id="278-19-05" stroke="black"/>
  <path fill="none" d="M 1127.00 1758.00 L 1187.00 1758.00 L 1248.00 1680.00 L 1247.00 1681.00 L 1227.00 1680.00 L 1207.00 1660.00 L 1141.00 1660.00 L 1124.00 1757.85 Z" stroke-width="1" id="278-19-06" stroke="black"/>
  <path fill="none" d="M 1207.00 1778.00 L 1227.00 1778.00 L 1247.00 1758.00 L 1267.00 1758.00 L 1287.00 1778.00 L 1327.00 1778.00 L 1347.00 1758.00 L 1372.00 1758.00 L 1391.00 1661.20 L 1387.00 1661.00 L 1267.00 1661.00 L 1248.00 1680.00 L 1187.00 1758.00 Z" stroke-width="1" id="278-19-07" stroke="black"/>
  <path fill="none" d="M 1447.00 1758.00 L 1467.00 1759.00 L 1475.00 1759.00 L 1531.00 1662.00 L 1407.00 1662.00 L 1391.00 1661.20 L 1372.00 1758.00 Z" stroke-width="1" id="278-19-08" stroke="black"/>
  <path fill="none" d="M 1624.00 1759.00 L 1632.00 1663.00 L 1567.00 1663.00 L 1547.00 1662.00 L 1531.00 1662.00 L 1475.00 1759.00 Z" stroke-width="1" id="278-19-09" stroke="black"/>
  <path fill="none" d="M 1727.00 1759.00 L 1747.00 1779.00 L 1767.00 1759.00 L 1787.00 1759.00 L 1807.00 1760.00 L 1821.50 1760.00 L 1831.00 1704.00 L 1855.24 1664.00 L 1747.00 1664.00 L 1727.00 1684.00 L 1707.00 1683.00 L 1687.00 1663.00 L 1632.00 1663.00 L 1624.00 1759.00 Z" stroke-width="1" id="278-19-10" stroke="black"/>
  <path fill="none" d="M 267.48 1755.00 L 266.00 1804.00 L 257.00 1814.00 L 269.00 1823.00 L 268.09 1837.00 L 315.09 1837.00 L 361.00 1755.00 Z" stroke-width="1" id="278-20-01" stroke="black"/>
  <path fill="none" d="M 387.00 1837.00 L 407.00 1836.00 L 513.00 1836.00 L 532.00 1756.00 L 447.00 1756.00 L 427.00 1755.00 L 361.00 1755.00 L 315.09 1837.00 Z" stroke-width="1" id="278-20-02" stroke="black"/>
  <path fill="none" d="M 687.00 1836.00 L 706.00 1854.05 L 791.00 1757.00 L 787.00 1757.00 L 767.00 1756.00 L 532.00 1756.00 L 513.00 1836.00 Z" stroke-width="1" id="278-20-03" stroke="black"/>
  <path fill="none" d="M 707.00 1855.00 L 727.00 1875.00 L 747.00 1875.00 L 767.00 1855.00 L 787.00 1835.00 L 903.00 1835.00 L 915.00 1757.00 L 791.00 1757.00 L 706.00 1854.05 Z" stroke-width="1" id="278-20-04" stroke="black"/>
  <path fill="none" d="M 967.00 1835.00 L 977.00 1845.00 L 1061.00 1757.00 L 1027.00 1757.00 L 1007.00 1777.00 L 987.00 1757.00 L 915.00 1757.00 L 903.00 1835.00 Z" stroke-width="1" id="278-20-05" stroke="black"/>
  <path fill="none" d="M 987.00 1855.00 L 1007.00 1874.00 L 1027.00 1854.00 L 1047.00 1834.00 L 1227.00 1834.00 L 1247.00 1854.00 L 1287.00 1854.00 L 1307.00 1833.00 L 1324.00 1833.00 L 1323.00 1778.00 L 1287.00 1778.00 L 1267.00 1758.00 L 1247.00 1758.00 L 1227.00 1778.00 L 1207.00 1778.00 L 1187.00 1758.00 L 1127.00 1758.00 L 1107.00 1757.00 L 1061.00 1757.00 L 977.00 1845.00 Z" stroke-width="1" id="278-20-06" stroke="black"/>
  <path fill="none" d="M 1417.00 1833.00 L 1424.00 1758.00 L 1347.00 1758.00 L 1327.00 1778.00 L 1323.00 1778.00 L 1324.00 1833.00 Z" stroke-width="1" id="278-20-07" stroke="black"/>
  <path fill="none" d="M 1587.00 1833.00 L 1607.00 1832.00 L 1812.83 1832.00 L 1812.00 1816.00 L 1821.50 1760.00 L 1807.00 1760.00 L 1787.00 1759.00 L 1767.00 1759.00 L 1747.00 1779.00 L 1727.00 1759.00 L 1467.00 1759.00 L 1447.00 1758.00 L 1424.00 1758.00 L 1417.00 1833.00 Z" stroke-width="1" id="278-20-08" stroke="black"/>
  <path fill="none" d="M 268.09 1837.00 L 264.00 1900.00 L 264.73 1926.00 L 327.00 1926.00 L 347.00 1946.00 L 387.00 1946.00 L 407.00 1926.00 L 417.00 1926.00 L 453.00 1836.00 L 407.00 1836.00 L 387.00 1837.00 Z" stroke-width="1" id="278-21-01" stroke="black"/>
  <path fill="none" d="M 527.00 1926.00 L 531.00 1925.80 L 559.00 1836.00 L 453.00 1836.00 L 417.00 1926.00 Z" stroke-width="1" id="278-21-02" stroke="black"/>
  <path fill="none" d="M 547.00 1925.00 L 684.00 1925.00 L 722.00 1870.00 L 707.00 1855.00 L 687.00 1836.00 L 559.00 1836.00 L 531.00 1925.80 Z" stroke-width="1" id="278-21-03" stroke="black"/>
  <path fill="none" d="M 924.00 1925.00 L 938.00 1835.00 L 787.00 1835.00 L 767.00 1855.00 L 747.00 1875.00 L 727.00 1875.00 L 722.00 1870.00 L 684.00 1925.00 Z" stroke-width="1" id="278-21-04" stroke="black"/>
  <path fill="none" d="M 967.00 1925.00 L 987.00 1904.00 L 1007.00 1924.00 L 1074.00 1924.00 L 1100.00 1834.00 L 1047.00 1834.00 L 1027.00 1854.00 L 1007.00 1874.00 L 987.00 1855.00 L 967.00 1835.00 L 938.00 1835.00 L 924.00 1925.00 Z" stroke-width="1" id="278-21-05" stroke="black"/>
  <path fill="none" d="M 1118.00 1924.00 L 1190.00 1834.00 L 1100.00 1834.00 L 1074.00 1924.00 Z" stroke-width="1" id="278-21-06" stroke="black"/>
  <path fill="none" d="M 1361.00 1924.00 L 1387.00 1833.00 L 1307.00 1833.00 L 1287.00 1854.00 L 1247.00 1854.00 L 1227.00 1834.00 L 1190.00 1834.00 L 1118.00 1924.00 Z" stroke-width="1" id="278-21-07" stroke="black"/>
  <path fill="none" d="M 1407.00 1924.00 L 1427.00 1923.00 L 1443.00 1923.00 L 1477.00 1833.00 L 1387.00 1833.00 L 1361.00 1924.00 Z" stroke-width="1" id="278-21-08" stroke="black"/>
  <path fill="none" d="M 1727.00 1923.00 L 1747.00 1943.00 L 1787.00 1943.00 L 1807.00 1923.00 L 1812.70 1923.00 L 1816.00 1893.00 L 1812.83 1832.00 L 1607.00 1832.00 L 1587.00 1833.00 L 1477.00 1833.00 L 1443.00 1923.00 Z" stroke-width="1" id="278-21-09" stroke="black"/>
  <path fill="none" d="M 264.73 1926.00 L 266.00 1971.00 L 251.00 1981.00 L 271.00 1996.00 L 269.97 2003.00 L 327.00 2003.00 L 347.00 2023.00 L 367.00 2044.00 L 387.00 2024.00 L 407.00 2024.00 L 427.00 2004.00 L 487.00 2004.00 L 507.00 2044.00 L 527.00 2044.00 L 547.00 2024.00 L 567.00 2044.00 L 587.00 2024.00 L 607.00 2004.00 L 615.00 1925.00 L 547.00 1925.00 L 527.00 1926.00 L 407.00 1926.00 L 387.00 1946.00 L 347.00 1946.00 L 327.00 1926.00 Z" stroke-width="1" id="278-22-01" stroke="black"/>
  <path fill="none" d="M 627.00 2004.00 L 647.00 2005.00 L 727.00 2005.00 L 736.00 2023.45 L 854.00 1925.00 L 615.00 1925.00 L 607.00 2004.00 Z" stroke-width="1" id="278-22-02" stroke="black"/>
  <path fill="none" d="M 747.00 2046.00 L 767.00 2044.00 L 787.00 2032.00 L 807.00 2022.00 L 827.00 2005.00 L 847.00 2025.00 L 867.00 2005.00 L 907.00 2005.00 L 927.00 2006.00 L 967.00 2006.00 L 968.00 1923.95 L 967.00 1925.00 L 854.00 1925.00 L 736.00 2023.45 Z" stroke-width="1" id="278-22-03" stroke="black"/>
  <path fill="none" d="M 1167.00 2006.00 L 1187.00 2007.00 L 1260.00 2007.00 L 1278.00 1924.00 L 1007.00 1924.00 L 987.00 1904.00 L 968.00 1923.95 L 967.00 2006.00 Z" stroke-width="1" id="278-22-04" stroke="black"/>
  <path fill="none" d="M 1287.00 2007.00 L 1307.00 2027.00 L 1327.00 2007.00 L 1407.00 2007.00 L 1411.00 2011.00 L 1470.00 1923.00 L 1427.00 1923.00 L 1407.00 1924.00 L 1278.00 1924.00 L 1260.00 2007.00 Z" stroke-width="1" id="278-22-05" stroke="black"/>
  <path fill="none" d="M 1427.00 2027.00 L 1447.00 2027.00 L 1467.00 2008.00 L 1487.00 2008.00 L 1507.00 2048.00 L 1527.00 2028.00 L 1547.00 2028.00 L 1567.00 2008.00 L 1587.00 2028.00 L 1627.00 2028.00 L 1647.00 2008.00 L 1668.00 2008.00 L 1709.00 1923.00 L 1470.00 1923.00 L 1411.00 2011.00 Z" stroke-width="1" id="278-22-06" stroke="black"/>
  <path fill="none" d="M 1727.00 2008.00 L 1747.00 2009.00 L 1806.33 2009.00 L 1804.00 2002.00 L 1812.70 1923.00 L 1807.00 1923.00 L 1787.00 1943.00 L 1747.00 1943.00 L 1727.00 1923.00 L 1709.00 1923.00 L 1668.00 2008.00 Z" stroke-width="1" id="278-22-07" stroke="black"/>
  <path fill="none" d="M 269.97 2003.00 L 266.00 2030.00 L 255.00 2048.00 L 265.00 2061.00 L 263.00 2082.00 L 263.50 2088.00 L 267.00 2088.00 L 287.00 2089.00 L 347.00 2089.00 L 367.00 2109.00 L 407.00 2109.00 L 427.00 2089.00 L 467.00 2089.00 L 475.00 2089.40 L 507.00 2044.00 L 487.00 2004.00 L 427.00 2004.00 L 407.00 2024.00 L 387.00 2024.00 L 367.00 2044.00 L 347.00 2023.00 L 327.00 2003.00 Z" stroke-width="1" id="278-23-01" stroke="black"/>
  <path fill="none" d="M 487.00 2090.00 L 567.00 2090.00 L 571.00 2098.00 L 655.00 2005.00 L 647.00 2005.00 L 627.00 2004.00 L 607.00 2004.00 L 587.00 2024.00 L 567.00 2044.00 L 547.00 2024.00 L 527.00 2044.00 L 507.00 2044.00 L 475.00 2089.40 Z" stroke-width="1" id="278-23-02" stroke="black"/>
  <path fill="none" d="M 587.00 2130.00 L 607.00 2130.00 L 627.00 2110.00 L 647.00 2110.00 L 667.00 2091.00 L 847.00 2091.00 L 867.00 2092.00 L 887.00 2112.00 L 906.00 2112.00 L 945.00 2006.00 L 927.00 2006.00 L 907.00 2005.00 L 867.00 2005.00 L 847.00 2025.00 L 827.00 2005.00 L 807.00 2022.00 L 787.00 2032.00 L 767.00 2044.00 L 747.00 2046.00 L 727.00 2005.00 L 655.00 2005.00 L 571.00 2098.00 Z" stroke-width="1" id="278-23-03" stroke="black"/>
  <path fill="none" d="M 947.00 2112.00 L 967.00 2092.00 L 1027.00 2092.00 L 1034.00 2092.35 L 1047.00 2006.00 L 945.00 2006.00 L 906.00 2112.00 Z" stroke-width="1" id="278-23-04" stroke="black"/>
  <path fill="none" d="M 1047.00 2093.00 L 1212.00 2093.00 L 1221.00 2007.00 L 1187.00 2007.00 L 1167.00 2006.00 L 1047.00 2006.00 L 1034.00 2092.35 Z" stroke-width="1" id="278-23-05" stroke="black"/>
  <path fill="none" d="M 1227.00 2093.00 L 1247.00 2094.00 L 1327.00 2094.00 L 1347.00 2134.00 L 1387.00 2134.00 L 1407.00 2114.00 L 1427.00 2095.00 L 1547.00 2095.00 L 1567.00 2115.00 L 1587.00 2095.00 L 1607.00 2095.00 L 1621.00 2095.70 L 1628.00 2027.00 L 1627.00 2028.00 L 1587.00 2028.00 L 1567.00 2008.00 L 1547.00 2028.00 L 1527.00 2028.00 L 1507.00 2048.00 L 1487.00 2008.00 L 1467.00 2008.00 L 1447.00 2027.00 L 1427.00 2027.00 L 1407.00 2007.00 L 1327.00 2007.00 L 1307.00 2027.00 L 1287.00 2007.00 L 1221.00 2007.00 L 1212.00 2093.00 Z" stroke-width="1" id="278-23-06" stroke="black"/>
  <path fill="none" d="M 1627.00 2096.00 L 1647.00 2096.00 L 1653.00 2102.00 L 1733.00 2008.30 L 1727.00 2008.00 L 1647.00 2008.00 L 1628.00 2027.00 L 1621.00 2095.70 Z" stroke-width="1" id="278-23-07" stroke="black"/>
  <path fill="none" d="M 1667.00 2116.00 L 1687.00 2096.00 L 1747.00 2096.00 L 1767.00 2116.00 L 1787.00 2096.00 L 1807.00 2097.00 L 1808.33 2097.00 L 1822.00 2056.00 L 1806.33 2009.00 L 1747.00 2009.00 L 1733.00 2008.30 L 1653.00 2102.00 Z" stroke-width="1" id="278-23-08" stroke="black"/>
  <path fill="none" d="M 263.50 2088.00 L 268.00 2142.00 L 254.00 2157.00 L 265.00 2168.00 L 261.00 2186.00 L 261.00 2195.00 L 267.00 2201.00 L 307.00 2201.00 L 327.00 2181.00 L 382.00 2109.00 L 367.00 2109.00 L 347.00 2089.00 L 287.00 2089.00 L 267.00 2088.00 Z" stroke-width="1" id="278-24-01" stroke="black"/>
  <path fill="none" d="M 347.00 2182.00 L 427.00 2182.00 L 447.00 2202.00 L 467.00 2182.00 L 587.00 2182.00 L 607.00 2183.00 L 673.00 2183.00 L 700.00 2091.00 L 667.00 2091.00 L 647.00 2110.00 L 627.00 2110.00 L 607.00 2130.00 L 587.00 2130.00 L 567.00 2090.00 L 487.00 2090.00 L 467.00 2089.00 L 427.00 2089.00 L 407.00 2109.00 L 382.00 2109.00 L 327.00 2181.00 Z" stroke-width="1" id="278-24-02" stroke="black"/>
  <path fill="none" d="M 747.00 2183.00 L 767.00 2203.00 L 787.00 2203.00 L 807.00 2183.00 L 827.00 2223.00 L 847.00 2183.00 L 867.00 2184.00 L 903.00 2184.00 L 924.00 2112.00 L 887.00 2112.00 L 867.00 2092.00 L 847.00 2091.00 L 700.00 2091.00 L 673.00 2183.00 Z" stroke-width="1" id="278-24-03" stroke="black"/>
  <path fill="none" d="M 1047.00 2184.00 L 1067.00 2204.00 L 1087.00 2204.00 L 1107.00 2184.00 L 1127.00 2185.00 L 1187.00 2185.00 L 1207.00 2225.00 L 1227.00 2205.00 L 1247.00 2205.00 L 1267.00 2185.00 L 1307.00 2185.00 L 1309.00 2094.00 L 1247.00 2094.00 L 1227.00 2093.00 L 1047.00 2093.00 L 1027.00 2092.00 L 967.00 2092.00 L 947.00 2112.00 L 924.00 2112.00 L 903.00 2184.00 Z" stroke-width="1" id="278-24-04" stroke="black"/>
  <path fill="none" d="M 1367.00 2185.00 L 1387.00 2186.00 L 1555.00 2186.00 L 1567.00 2115.00 L 1547.00 2095.00 L 1427.00 2095.00 L 1407.00 2114.00 L 1387.00 2134.00 L 1347.00 2134.00 L 1327.00 2094.00 L 1309.00 2094.00 L 1307.00 2185.00 Z" stroke-width="1" id="278-24-05" stroke="black"/>
  <path fill="none" d="M 1607.00 2186.00 L 1627.00 2166.00 L 1632.00 2166.25 L 1667.00 2116.00 L 1647.00 2096.00 L 1627.00 2096.00 L 1607.00 2095.00 L 1587.00 2095.00 L 1567.00 2115.00 L 1555.00 2186.00 Z" stroke-width="1" id="278-24-06" stroke="black"/>
  <path fill="none" d="M 1647.00 2167.00 L 1667.00 2187.00 L 1816.70 2187.00 L 1788.00 2166.00 L 1796.00 2134.00 L 1808.33 2097.00 L 1807.00 2097.00 L 1787.00 2096.00 L 1767.00 2116.00 L 1747.00 2096.00 L 1687.00 2096.00 L 1667.00 2116.00 L 1632.00 2166.25 Z" stroke-width="1" id="278-24-07" stroke="black"/>
  <path fill="none" d="M 261.00 2195.00 L 261.00 2224.00 L 248.00 2236.00 L 262.00 2246.00 L 261.81 2252.00 L 327.00 2252.00 L 347.00 2253.00 L 367.00 2293.00 L 387.00 2273.00 L 407.00 2253.00 L 547.00 2253.00 L 567.00 2273.00 L 587.00 2254.00 L 607.00 2254.00 L 620.00 2183.00 L 607.00 2183.00 L 587.00 2182.00 L 467.00 2182.00 L 447.00 2202.00 L 427.00 2182.00 L 347.00 2182.00 L 327.00 2181.00 L 307.00 2201.00 L 267.00 2201.00 Z" stroke-width="1" id="278-25-01" stroke="black"/>
  <path fill="none" d="M 687.00 2254.00 L 707.00 2250.00 L 727.00 2256.00 L 747.00 2256.00 L 767.00 2274.00 L 787.00 2276.00 L 807.00 2278.00 L 846.00 2278.00 L 920.00 2184.00 L 867.00 2184.00 L 847.00 2183.00 L 827.00 2223.00 L 807.00 2183.00 L 787.00 2203.00 L 767.00 2203.00 L 747.00 2183.00 L 620.00 2183.00 L 607.00 2254.00 Z" stroke-width="1" id="278-25-02" stroke="black"/>
  <path fill="none" d="M 847.00 2278.00 L 867.00 2302.00 L 887.00 2302.00 L 907.00 2292.00 L 927.00 2275.00 L 947.00 2255.00 L 1067.00 2255.00 L 1077.00 2255.50 L 1084.00 2204.00 L 1067.00 2204.00 L 1047.00 2184.00 L 920.00 2184.00 L 846.00 2278.00 Z" stroke-width="1" id="278-25-03" stroke="black"/>
  <path fill="none" d="M 1087.00 2256.00 L 1283.00 2256.00 L 1295.00 2185.00 L 1267.00 2185.00 L 1247.00 2205.00 L 1227.00 2205.00 L 1207.00 2225.00 L 1187.00 2185.00 L 1127.00 2185.00 L 1107.00 2184.00 L 1087.00 2204.00 L 1084.00 2204.00 L 1077.00 2255.50 Z" stroke-width="1" id="278-25-04" stroke="black"/>
  <path fill="none" d="M 1307.00 2256.00 L 1327.00 2257.00 L 1521.00 2257.00 L 1536.00 2186.00 L 1387.00 2186.00 L 1367.00 2185.00 L 1295.00 2185.00 L 1283.00 2256.00 Z" stroke-width="1" id="278-25-05" stroke="black"/>
  <path fill="none" d="M 1547.00 2257.00 L 1567.00 2258.00 L 1654.00 2258.00 L 1667.00 2187.00 L 1647.00 2167.00 L 1627.00 2166.00 L 1607.00 2186.00 L 1536.00 2186.00 L 1521.00 2257.00 Z" stroke-width="1" id="278-25-06" stroke="black"/>
  <path fill="none" d="M 1767.00 2258.00 L 1787.00 2278.00 L 1807.00 2278.00 L 1827.00 2279.00 L 1847.00 2279.00 L 1859.32 2266.68 L 1870.00 2226.00 L 1816.70 2187.00 L 1667.00 2187.00 L 1654.00 2258.00 Z" stroke-width="1" id="278-25-07" stroke="black"/>
  <path fill="none" d="M 261.81 2252.00 L 260.00 2308.00 L 246.00 2320.00 L 264.00 2332.00 L 257.00 2356.00 L 257.23 2365.00 L 287.00 2365.00 L 307.00 2345.00 L 318.00 2345.00 L 360.00 2279.00 L 347.00 2253.00 L 327.00 2252.00 Z" stroke-width="1" id="278-26-01" stroke="black"/>
  <path fill="none" d="M 488.00 2345.00 L 557.00 2263.00 L 547.00 2253.00 L 407.00 2253.00 L 387.00 2273.00 L 367.00 2293.00 L 360.00 2279.00 L 318.00 2345.00 Z" stroke-width="1" id="278-26-02" stroke="black"/>
  <path fill="none" d="M 656.00 2345.00 L 716.00 2252.70 L 707.00 2250.00 L 687.00 2254.00 L 587.00 2254.00 L 567.00 2273.00 L 557.00 2263.00 L 488.00 2345.00 Z" stroke-width="1" id="278-26-03" stroke="black"/>
  <path fill="none" d="M 1047.00 2345.00 L 1067.00 2365.00 L 1087.00 2345.00 L 1092.00 2345.00 L 1104.00 2256.00 L 1087.00 2256.00 L 1067.00 2255.00 L 947.00 2255.00 L 927.00 2275.00 L 907.00 2292.00 L 887.00 2302.00 L 867.00 2302.00 L 847.00 2278.00 L 807.00 2278.00 L 787.00 2276.00 L 767.00 2274.00 L 747.00 2256.00 L 727.00 2256.00 L 716.00 2252.70 L 656.00 2345.00 Z" stroke-width="1" id="278-26-04" stroke="black"/>
  <path fill="none" d="M 1193.00 2345.00 L 1201.00 2256.00 L 1104.00 2256.00 L 1092.00 2345.00 Z" stroke-width="1" id="278-26-05" stroke="black"/>
  <path fill="none" d="M 1419.00 2345.00 L 1450.00 2257.00 L 1327.00 2257.00 L 1307.00 2256.00 L 1201.00 2256.00 L 1193.00 2345.00 Z" stroke-width="1" id="278-26-06" stroke="black"/>
  <path fill="none" d="M 1487.00 2345.00 L 1507.00 2365.00 L 1527.00 2365.00 L 1547.00 2345.00 L 1597.00 2345.00 L 1629.00 2258.00 L 1567.00 2258.00 L 1547.00 2257.00 L 1450.00 2257.00 L 1419.00 2345.00 Z" stroke-width="1" id="278-26-07" stroke="black"/>
  <path fill="none" d="M 1824.28 2345.00 L 1849.00 2306.00 L 1859.32 2266.68 L 1847.00 2279.00 L 1827.00 2279.00 L 1807.00 2278.00 L 1787.00 2278.00 L 1767.00 2258.00 L 1629.00 2258.00 L 1597.00 2345.00 Z" stroke-width="1" id="278-26-08" stroke="black"/>
  <path fill="none" d="M 257.23 2365.00 L 258.00 2396.00 L 248.00 2408.00 L 245.00 2440.00 L 256.33 2454.67 L 267.00 2444.00 L 287.00 2424.00 L 426.00 2424.00 L 434.00 2345.00 L 307.00 2345.00 L 287.00 2365.00 Z" stroke-width="1" id="278-27-01" stroke="black"/>
  <path fill="none" d="M 684.00 2424.00 L 686.00 2345.00 L 434.00 2345.00 L 426.00 2424.00 Z" stroke-width="1" id="278-27-02" stroke="black"/>
  <path fill="none" d="M 1241.00 2423.00 L 1264.00 2345.00 L 1106.00 2345.00 L 1101.00 2423.00 Z" stroke-width="1" id="278-27-03" stroke="black"/>
  <path fill="none" d="M 1487.00 2423.00 L 1507.00 2443.00 L 1527.00 2423.00 L 1558.00 2423.00 L 1590.28 2345.00 L 1547.00 2345.00 L 1527.00 2365.00 L 1507.00 2365.00 L 1487.00 2345.00 L 1264.00 2345.00 L 1241.00 2423.00 Z" stroke-width="1" id="278-27-04" stroke="black"/>
  <path fill="none" d="M 1656.00 2423.00 L 1643.28 2345.00 L 1590.28 2345.00 L 1558.00 2423.00 Z" stroke-width="1" id="278-27-05" stroke="black"/>
  <path fill="none" d="M 1822.06 2423.00 L 1804.00 2377.00 L 1824.28 2345.00 L 1643.28 2345.00 L 1656.00 2423.00 Z" stroke-width="1" id="278-27-06" stroke="black"/>
  <path fill="none" d="M 287.00 2424.00 L 267.00 2444.00 L 256.33 2454.67 L 262.00 2462.00 L 255.00 2480.00 L 245.00 2498.00 L 259.00 2510.00 L 258.78 2516.00 L 720.78 2516.00 L 752.00 2424.00 Z" stroke-width="1" id="278-28-01" stroke="black"/>
  <path fill="none" d="M 872.78 2516.00 L 881.00 2424.00 L 752.00 2424.00 L 720.78 2516.00 Z" stroke-width="1" id="278-28-02" stroke="black"/>
  <path fill="none" d="M 987.00 2516.00 L 995.00 2524.00 L 1062.00 2423.00 L 1007.00 2423.00 L 987.00 2424.00 L 881.00 2424.00 L 872.78 2516.00 Z" stroke-width="1" id="278-28-03" stroke="black"/>
  <path fill="none" d="M 1007.00 2536.00 L 1027.00 2536.00 L 1047.00 2516.00 L 1205.00 2516.00 L 1234.00 2423.00 L 1062.00 2423.00 L 995.00 2524.00 Z" stroke-width="1" id="278-28-04" stroke="black"/>
  <path fill="none" d="M 1227.00 2516.00 L 1247.00 2535.00 L 1267.00 2515.00 L 1287.00 2535.00 L 1307.00 2515.00 L 1331.00 2515.00 L 1371.00 2423.00 L 1234.00 2423.00 L 1205.00 2516.00 Z" stroke-width="1" id="278-28-05" stroke="black"/>
  <path fill="none" d="M 1436.00 2515.00 L 1459.00 2423.00 L 1371.00 2423.00 L 1331.00 2515.00 Z" stroke-width="1" id="278-28-06" stroke="black"/>
  <path fill="none" d="M 1567.00 2515.00 L 1604.06 2423.00 L 1527.00 2423.00 L 1507.00 2443.00 L 1487.00 2423.00 L 1459.00 2423.00 L 1436.00 2515.00 Z" stroke-width="1" id="278-28-07" stroke="black"/>
  <path fill="none" d="M 1651.00 2515.00 L 1715.06 2423.00 L 1604.06 2423.00 L 1567.00 2515.00 Z" stroke-width="1" id="278-28-08" stroke="black"/>
  <path fill="none" d="M 1667.00 2515.00 L 1687.00 2535.00 L 1707.00 2535.00 L 1727.00 2515.00 L 1734.00 2515.00 L 1785.06 2423.00 L 1715.06 2423.00 L 1651.00 2515.00 Z" stroke-width="1" id="278-28-09" stroke="black"/>
  <path fill="none" d="M 1863.97 2515.00 L 1846.00 2484.00 L 1822.06 2423.00 L 1785.06 2423.00 L 1734.00 2515.00 Z" stroke-width="1" id="278-28-10" stroke="black"/>
  <path fill="none" d="M 258.78 2516.00 L 257.00 2565.00 L 246.00 2581.00 L 259.00 2588.00 L 258.28 2604.00 L 416.28 2604.00 L 436.00 2516.00 Z" stroke-width="1" id="278-29-01" stroke="black"/>
  <path fill="none" d="M 467.00 2604.00 L 487.00 2624.00 L 494.00 2624.00 L 569.00 2516.00 L 436.00 2516.00 L 416.28 2604.00 Z" stroke-width="1" id="278-29-02" stroke="black"/>
  <path fill="none" d="M 507.00 2624.00 L 527.00 2644.00 L 547.00 2604.00 L 800.00 2604.00 L 827.00 2516.00 L 569.00 2516.00 L 494.00 2624.00 Z" stroke-width="1" id="278-29-03" stroke="black"/>
  <path fill="none" d="M 1007.00 2604.00 L 1027.00 2624.00 L 1047.00 2604.00 L 1057.00 2604.00 L 1063.00 2516.00 L 1047.00 2516.00 L 1027.00 2536.00 L 1007.00 2536.00 L 987.00 2516.00 L 827.00 2516.00 L 800.00 2604.00 Z" stroke-width="1" id="278-29-04" stroke="black"/>
  <path fill="none" d="M 1251.00 2604.00 L 1284.00 2532.00 L 1267.00 2515.00 L 1247.00 2535.00 L 1227.00 2516.00 L 1063.00 2516.00 L 1057.00 2604.00 Z" stroke-width="1" id="278-29-05" stroke="black"/>
  <path fill="none" d="M 1367.00 2604.00 L 1387.00 2644.00 L 1427.00 2644.00 L 1447.00 2624.00 L 1467.00 2604.00 L 1487.00 2604.00 L 1497.00 2603.50 L 1508.00 2515.00 L 1307.00 2515.00 L 1287.00 2535.00 L 1284.00 2532.00 L 1251.00 2604.00 Z" stroke-width="1" id="278-29-06" stroke="black"/>
  <path fill="none" d="M 1507.00 2603.00 L 1608.00 2603.00 L 1619.00 2515.00 L 1508.00 2515.00 L 1497.00 2603.50 Z" stroke-width="1" id="278-29-07" stroke="black"/>
  <path fill="none" d="M 1870.74 2603.00 L 1897.00 2572.00 L 1863.97 2515.00 L 1727.00 2515.00 L 1707.00 2535.00 L 1687.00 2535.00 L 1667.00 2515.00 L 1619.00 2515.00 L 1608.00 2603.00 Z" stroke-width="1" id="278-29-08" stroke="black"/>
  <path fill="none" d="M 258.28 2604.00 L 256.00 2655.00 L 250.00 2670.00 L 251.79 2687.00 L 402.79 2687.00 L 434.00 2604.00 Z" stroke-width="1" id="278-30-01" stroke="black"/>
  <path fill="none" d="M 487.00 2687.00 L 507.00 2667.00 L 527.00 2687.00 L 694.00 2687.00 L 713.00 2604.00 L 547.00 2604.00 L 527.00 2644.00 L 507.00 2624.00 L 487.00 2624.00 L 467.00 2604.00 L 434.00 2604.00 L 402.79 2687.00 Z" stroke-width="1" id="278-30-02" stroke="black"/>
  <path fill="none" d="M 1043.00 2687.00 L 1084.00 2604.00 L 1047.00 2604.00 L 1027.00 2624.00 L 1007.00 2604.00 L 713.00 2604.00 L 694.00 2687.00 Z" stroke-width="1" id="278-30-03" stroke="black"/>
  <path fill="none" d="M 1227.00 2687.00 L 1247.00 2688.00 L 1273.00 2688.00 L 1290.00 2604.00 L 1084.00 2604.00 L 1043.00 2687.00 Z" stroke-width="1" id="278-30-04" stroke="black"/>
  <path fill="none" d="M 1436.00 2688.00 L 1447.00 2624.00 L 1427.00 2644.00 L 1387.00 2644.00 L 1367.00 2604.00 L 1290.00 2604.00 L 1273.00 2688.00 Z" stroke-width="1" id="278-30-05" stroke="black"/>
  <path fill="none" d="M 1527.00 2688.00 L 1547.00 2728.00 L 1587.00 2728.00 L 1607.00 2708.00 L 1627.00 2688.00 L 1767.00 2688.00 L 1787.00 2708.00 L 1807.00 2688.00 L 1823.96 2688.00 L 1836.00 2644.00 L 1870.74 2603.00 L 1507.00 2603.00 L 1487.00 2604.00 L 1467.00 2604.00 L 1447.00 2624.00 L 1436.00 2688.00 Z" stroke-width="1" id="278-30-06" stroke="black"/>
  <path fill="none" d="M 251.79 2687.00 L 256.00 2727.00 L 250.00 2743.00 L 258.00 2756.00 L 349.88 2771.00 L 420.88 2771.00 L 433.00 2687.00 Z" stroke-width="1" id="278-31-01" stroke="black"/>
  <path fill="none" d="M 487.00 2771.00 L 507.00 2772.00 L 627.00 2772.00 L 647.00 2812.00 L 667.00 2792.00 L 687.00 2772.00 L 697.00 2792.00 L 741.00 2687.00 L 527.00 2687.00 L 507.00 2667.00 L 487.00 2687.00 L 433.00 2687.00 L 420.88 2771.00 Z" stroke-width="1" id="278-31-02" stroke="black"/>
  <path fill="none" d="M 707.00 2812.00 L 727.00 2812.00 L 747.00 2792.00 L 767.00 2772.00 L 787.00 2752.00 L 807.00 2772.00 L 843.00 2772.00 L 925.00 2687.00 L 741.00 2687.00 L 697.00 2792.00 Z" stroke-width="1" id="278-31-03" stroke="black"/>
  <path fill="none" d="M 907.00 2772.00 L 927.00 2773.00 L 1025.00 2773.00 L 1098.00 2687.00 L 925.00 2687.00 L 843.00 2772.00 Z" stroke-width="1" id="278-31-04" stroke="black"/>
  <path fill="none" d="M 1067.00 2773.00 L 1087.00 2813.00 L 1107.00 2813.00 L 1127.00 2793.00 L 1147.00 2793.00 L 1167.00 2773.00 L 1307.00 2773.00 L 1327.00 2814.00 L 1347.00 2814.00 L 1367.00 2794.00 L 1387.00 2794.00 L 1407.00 2774.00 L 1419.00 2774.00 L 1463.00 2688.00 L 1247.00 2688.00 L 1227.00 2687.00 L 1098.00 2687.00 L 1025.00 2773.00 Z" stroke-width="1" id="278-31-05" stroke="black"/>
  <path fill="none" d="M 1447.00 2774.00 L 1467.00 2794.00 L 1527.00 2794.00 L 1547.00 2774.00 L 1727.00 2774.00 L 1747.00 2775.00 L 1822.80 2775.00 L 1810.00 2739.00 L 1823.96 2688.00 L 1807.00 2688.00 L 1787.00 2708.00 L 1767.00 2688.00 L 1627.00 2688.00 L 1607.00 2708.00 L 1587.00 2728.00 L 1547.00 2728.00 L 1527.00 2688.00 L 1463.00 2688.00 L 1419.00 2774.00 Z" stroke-width="1" id="278-31-06" stroke="black"/>
  <path fill="none" d="M 282.00 2838.00 L 275.81 2860.00 L 527.00 2860.00 L 547.00 2861.00 L 661.00 2861.00 L 657.00 2802.00 L 647.00 2812.00 L 627.00 2772.00 L 507.00 2772.00 L 487.00 2771.00 L 349.88 2771.00 L 356.00 2772.00 Z" stroke-width="1" id="278-32-01" stroke="black"/>
  <path fill="none" d="M 767.00 2861.00 L 787.00 2881.00 L 807.00 2881.00 L 827.00 2861.00 L 847.00 2861.00 L 867.00 2841.00 L 887.00 2861.00 L 967.00 2861.00 L 987.00 2862.00 L 996.00 2862.00 L 1054.00 2773.00 L 927.00 2773.00 L 907.00 2772.00 L 807.00 2772.00 L 787.00 2752.00 L 767.00 2772.00 L 747.00 2792.00 L 727.00 2812.00 L 707.00 2812.00 L 687.00 2772.00 L 667.00 2792.00 L 657.00 2802.00 L 661.00 2861.00 Z" stroke-width="1" id="278-32-02" stroke="black"/>
  <path fill="none" d="M 1047.00 2862.00 L 1067.00 2842.00 L 1087.00 2862.00 L 1167.00 2862.00 L 1178.00 2884.00 L 1298.00 2773.00 L 1167.00 2773.00 L 1147.00 2793.00 L 1127.00 2793.00 L 1107.00 2813.00 L 1087.00 2813.00 L 1067.00 2773.00 L 1054.00 2773.00 L 996.00 2862.00 Z" stroke-width="1" id="278-32-03" stroke="black"/>
  <path fill="none" d="M 1187.00 2902.00 L 1227.00 2902.00 L 1247.00 2882.00 L 1267.00 2882.00 L 1287.00 2862.00 L 1387.00 2862.00 L 1459.00 2786.00 L 1447.00 2774.00 L 1407.00 2774.00 L 1387.00 2794.00 L 1367.00 2794.00 L 1347.00 2814.00 L 1327.00 2814.00 L 1307.00 2773.00 L 1298.00 2773.00 L 1178.00 2884.00 Z" stroke-width="1" id="278-32-04" stroke="black"/>
  <path fill="none" d="M 1407.00 2902.00 L 1427.00 2882.00 L 1447.00 2883.00 L 1467.00 2863.00 L 1577.00 2863.00 L 1591.00 2774.00 L 1547.00 2774.00 L 1527.00 2794.00 L 1467.00 2794.00 L 1459.00 2786.00 L 1387.00 2862.00 Z" stroke-width="1" id="278-32-05" stroke="black"/>
  <path fill="none" d="M 1702.00 2863.00 L 1715.00 2774.00 L 1591.00 2774.00 L 1577.00 2863.00 Z" stroke-width="1" id="278-32-06" stroke="black"/>
  <path fill="none" d="M 1806.32 2863.00 L 1842.00 2829.00 L 1822.80 2775.00 L 1747.00 2775.00 L 1727.00 2774.00 L 1715.00 2774.00 L 1702.00 2863.00 Z" stroke-width="1" id="278-32-07" stroke="black"/>
  <path fill="none" d="M 275.81 2860.00 L 264.00 2902.00 L 247.00 2912.00 L 243.00 2920.00 L 257.00 2936.00 L 305.00 2942.00 L 301.53 2945.73 L 307.00 2946.00 L 327.00 2926.00 L 347.00 2946.00 L 466.00 2946.00 L 527.00 2860.00 Z" stroke-width="1" id="278-33-01" stroke="black"/>
  <path fill="none" d="M 467.00 2946.00 L 487.00 2966.00 L 507.00 2967.00 L 527.00 2967.00 L 547.00 2947.00 L 565.00 2947.00 L 614.00 2861.00 L 547.00 2861.00 L 527.00 2860.00 L 466.00 2946.00 Z" stroke-width="1" id="278-33-02" stroke="black"/>
  <path fill="none" d="M 647.00 2947.00 L 667.00 2927.00 L 687.00 2947.00 L 707.00 2947.00 L 727.00 2948.00 L 824.00 2948.00 L 815.00 2873.00 L 807.00 2881.00 L 787.00 2881.00 L 767.00 2861.00 L 614.00 2861.00 L 565.00 2947.00 Z" stroke-width="1" id="278-33-03" stroke="black"/>
  <path fill="none" d="M 907.00 2948.00 L 927.00 2949.00 L 963.00 2949.00 L 970.00 2861.15 L 967.00 2861.00 L 887.00 2861.00 L 867.00 2841.00 L 847.00 2861.00 L 827.00 2861.00 L 815.00 2873.00 L 824.00 2948.00 Z" stroke-width="1" id="278-33-04" stroke="black"/>
  <path fill="none" d="M 1067.00 2949.00 L 1077.00 2959.00 L 1160.00 2862.00 L 1087.00 2862.00 L 1067.00 2842.00 L 1047.00 2862.00 L 987.00 2862.00 L 970.00 2861.15 L 963.00 2949.00 Z" stroke-width="1" id="278-33-05" stroke="black"/>
  <path fill="none" d="M 1087.00 2969.00 L 1107.00 2969.00 L 1127.00 2950.00 L 1187.00 2950.00 L 1207.00 2930.00 L 1227.00 2950.00 L 1327.00 2950.00 L 1347.00 2931.00 L 1348.00 2931.00 L 1360.00 2862.00 L 1287.00 2862.00 L 1267.00 2882.00 L 1247.00 2882.00 L 1227.00 2902.00 L 1187.00 2902.00 L 1167.00 2862.00 L 1160.00 2862.00 L 1077.00 2959.00 Z" stroke-width="1" id="278-33-06" stroke="black"/>
  <path fill="none" d="M 1367.00 2931.00 L 1387.00 2951.00 L 1407.00 2931.00 L 1427.00 2951.00 L 1488.00 2951.00 L 1521.32 2863.00 L 1467.00 2863.00 L 1447.00 2883.00 L 1427.00 2882.00 L 1407.00 2902.00 L 1387.00 2862.00 L 1360.00 2862.00 L 1348.00 2931.00 Z" stroke-width="1" id="278-33-07" stroke="black"/>
  <path fill="none" d="M 1527.00 2951.00 L 1547.00 2952.00 L 1649.00 2952.00 L 1668.32 2863.00 L 1521.32 2863.00 L 1488.00 2951.00 Z" stroke-width="1" id="278-33-08" stroke="black"/>
  <path fill="none" d="M 1727.00 2952.00 L 1747.00 2953.00 L 1766.02 2953.00 L 1757.00 2910.00 L 1806.32 2863.00 L 1668.32 2863.00 L 1649.00 2952.00 Z" stroke-width="1" id="278-33-09" stroke="black"/>
  <path fill="none" d="M 301.53 2945.73 L 250.00 3001.00 L 255.00 3024.00 L 254.32 3029.00 L 267.00 3029.00 L 287.00 3049.00 L 307.00 3049.00 L 327.00 3029.00 L 360.00 3029.00 L 380.00 2946.00 L 347.00 2946.00 L 327.00 2926.00 L 307.00 2946.00 Z" stroke-width="1" id="278-34-01" stroke="black"/>
  <path fill="none" d="M 367.00 3029.00 L 387.00 3030.00 L 407.00 3030.00 L 427.00 3010.00 L 447.00 3070.00 L 487.00 3070.00 L 507.00 3030.00 L 558.00 3030.00 L 540.00 2954.00 L 527.00 2967.00 L 507.00 2967.00 L 487.00 2966.00 L 467.00 2946.00 L 380.00 2946.00 L 360.00 3029.00 Z" stroke-width="1" id="278-34-02" stroke="black"/>
  <path fill="none" d="M 647.00 3030.00 L 667.00 3031.00 L 764.00 3031.00 L 773.00 2948.00 L 727.00 2948.00 L 707.00 2947.00 L 687.00 2947.00 L 667.00 2927.00 L 647.00 2947.00 L 547.00 2947.00 L 540.00 2954.00 L 558.00 3030.00 Z" stroke-width="1" id="278-34-03" stroke="black"/>
  <path fill="none" d="M 927.00 3031.00 L 947.00 3032.00 L 1096.00 3032.00 L 1143.00 2950.00 L 1127.00 2950.00 L 1107.00 2969.00 L 1087.00 2969.00 L 1067.00 2949.00 L 927.00 2949.00 L 907.00 2948.00 L 773.00 2948.00 L 764.00 3031.00 Z" stroke-width="1" id="278-34-04" stroke="black"/>
  <path fill="none" d="M 1207.00 3032.00 L 1227.00 3064.00 L 1247.00 3064.00 L 1267.00 3060.00 L 1287.00 3054.00 L 1307.00 3033.00 L 1487.00 3033.00 L 1491.00 3037.20 L 1572.00 2952.00 L 1547.00 2952.00 L 1527.00 2951.00 L 1427.00 2951.00 L 1407.00 2931.00 L 1387.00 2951.00 L 1367.00 2931.00 L 1347.00 2931.00 L 1327.00 2950.00 L 1227.00 2950.00 L 1207.00 2930.00 L 1187.00 2950.00 L 1143.00 2950.00 L 1096.00 3032.00 Z" stroke-width="1" id="278-34-05" stroke="black"/>
  <path fill="none" d="M 1507.00 3054.00 L 1527.00 3054.00 L 1547.00 3034.00 L 1587.00 3034.00 L 1607.00 3054.00 L 1627.00 3054.00 L 1647.00 3034.00 L 1677.00 3034.00 L 1676.00 2952.00 L 1572.00 2952.00 L 1491.00 3037.20 Z" stroke-width="1" id="278-34-06" stroke="black"/>
  <path fill="none" d="M 1787.00 3034.00 L 1807.00 3035.00 L 1814.67 3035.00 L 1768.00 3010.00 L 1774.00 2991.00 L 1766.02 2953.00 L 1747.00 2953.00 L 1727.00 2952.00 L 1676.00 2952.00 L 1677.00 3034.00 Z" stroke-width="1" id="278-34-07" stroke="black"/>
  <path fill="none" d="M 254.32 3029.00 L 246.00 3090.00 L 258.00 3106.00 L 446.00 3105.40 L 471.00 3070.00 L 447.00 3070.00 L 427.00 3010.00 L 407.00 3030.00 L 387.00 3030.00 L 367.00 3029.00 L 327.00 3029.00 L 307.00 3049.00 L 287.00 3049.00 L 267.00 3029.00 Z" stroke-width="1" id="278-35-01" stroke="black"/>
  <path fill="none" d="M 562.00 3105.02 L 590.00 3030.00 L 507.00 3030.00 L 487.00 3070.00 L 471.00 3070.00 L 446.00 3105.40 Z" stroke-width="1" id="278-35-02" stroke="black"/>
  <path fill="none" d="M 880.00 3104.00 L 961.00 3103.45 L 970.00 3032.00 L 947.00 3032.00 L 927.00 3031.00 L 667.00 3031.00 L 647.00 3030.00 L 590.00 3030.00 L 562.00 3105.02 Z" stroke-width="1" id="278-35-03" stroke="black"/>
  <path fill="none" d="M 1170.00 3102.04 L 1215.00 3044.80 L 1207.00 3032.00 L 970.00 3032.00 L 961.00 3103.45 Z" stroke-width="1" id="278-35-04" stroke="black"/>
  <path fill="none" d="M 1176.00 3102.00 L 1176.00 3120.20 L 1178.44 3122.15 L 1212.91 3124.27 L 1227.00 3113.00 L 1267.00 3113.00 L 1286.77 3128.82 L 1289.75 3129.00 L 1307.00 3129.00 L 1327.00 3113.00 L 1352.90 3113.00 L 1386.00 3101.00 L 1606.00 3102.83 L 1627.00 3054.00 L 1607.00 3054.00 L 1587.00 3034.00 L 1547.00 3034.00 L 1527.00 3054.00 L 1507.00 3054.00 L 1487.00 3033.00 L 1307.00 3033.00 L 1287.00 3054.00 L 1267.00 3060.00 L 1247.00 3064.00 L 1227.00 3064.00 L 1215.00 3044.80 L 1170.00 3102.04 Z" stroke-width="1" id="278-35-05" stroke="black"/>
  <path fill="none" d="M 1718.00 3103.77 L 1751.00 3034.00 L 1647.00 3034.00 L 1627.00 3054.00 L 1606.00 3102.83 Z" stroke-width="1" id="278-35-06" stroke="black"/>
  <path fill="none" d="M 1866.00 3105.00 L 1866.00 3069.00 L 1824.00 3040.00 L 1814.67 3035.00 L 1807.00 3035.00 L 1787.00 3034.00 L 1751.00 3034.00 L 1718.00 3103.77 Z" stroke-width="1" id="278-35-07" stroke="black"/>
</svg>
