<?xml version="1.0" encoding="UTF-8"?>
<svg xmlns:xlink="http://www.w3.org/1999/xlink" xmlns="http://www.w3.org/2000/svg" contentScriptType="text/ecmascript" width="2029px" zoomAndPan="magnify" contentStyleType="text/css" viewBox="0 0 2029 3283" height="3283px" preserveAspectRatio="xMidYMid meet" version="1.0">
  <path fill="none" d="M 209.00 156.00 L 203.00 191.00 L 201.35 205.00 L 220.00 205.00 L 240.00 206.00 L 280.00 206.00 L 300.00 207.00 L 360.00 207.00 L 380.00 208.00 L 420.00 208.00 L 440.00 218.00 L 460.00 212.00 L 471.00 214.20 L 480.00 125.68 L 434.42 120.00 L 420.00 120.00 L 400.00 119.00 L 340.00 119.00 L 322.79 106.09 L 306.00 104.00 L 254.00 128.00 Z" stroke-width="1" id="279-01-01" stroke="black"/>
  <path fill="none" d="M 480.00 216.00 L 500.00 209.00 L 520.00 210.00 L 580.00 210.00 L 600.00 211.00 L 640.00 211.00 L 660.00 212.00 L 711.00 212.00 L 730.60 136.12 L 611.00 142.00 L 480.00 125.68 L 471.00 214.20 Z" stroke-width="1" id="279-01-02" stroke="black"/>
  <path fill="none" d="M 720.00 212.00 L 740.00 213.00 L 780.00 213.00 L 800.00 214.00 L 860.00 214.00 L 880.00 215.00 L 906.00 215.00 L 938.00 126.00 L 936.60 126.00 L 730.60 136.12 L 711.00 212.00 Z" stroke-width="1" id="279-01-03" stroke="black"/>
  <path fill="none" d="M 920.00 215.00 L 940.00 216.00 L 1000.00 216.00 L 1020.00 217.00 L 1080.00 217.00 L 1100.00 218.00 L 1140.00 218.00 L 1160.00 219.00 L 1220.00 219.00 L 1240.00 220.00 L 1280.00 220.00 L 1300.00 221.00 L 1360.00 221.00 L 1380.00 222.00 L 1420.00 222.00 L 1422.00 222.10 L 1427.00 140.28 L 1303.00 136.00 L 1160.50 129.00 L 1160.00 129.00 L 1140.00 128.00 L 1080.00 128.00 L 1060.00 127.00 L 1056.91 123.91 L 1024.67 122.33 L 1020.00 127.00 L 1000.00 127.00 L 980.00 126.00 L 938.00 126.00 L 906.00 215.00 Z" stroke-width="1" id="279-01-04" stroke="black"/>
  <path fill="none" d="M 1440.00 223.00 L 1500.00 223.00 L 1520.00 224.00 L 1580.00 224.00 L 1600.00 225.00 L 1640.00 225.00 L 1660.00 226.00 L 1720.00 226.00 L 1740.00 227.00 L 1765.00 227.00 L 1775.00 154.54 L 1724.00 146.00 L 1535.00 144.00 L 1427.00 140.28 L 1422.00 222.10 Z" stroke-width="1" id="279-01-05" stroke="black"/>
  <path fill="none" d="M 1780.00 227.00 L 1800.00 228.00 L 1860.00 228.00 L 1880.00 229.00 L 1920.00 229.00 L 1940.00 230.00 L 1954.21 230.00 L 1959.00 215.00 L 1957.00 185.00 L 1775.00 154.54 L 1765.00 227.00 Z" stroke-width="1" id="279-01-06" stroke="black"/>
  <path fill="none" d="M 214.30 324.00 L 216.00 335.00 L 204.00 361.00 L 210.67 381.00 L 240.00 381.00 L 260.00 380.00 L 280.00 380.00 L 284.00 384.00 L 331.00 324.00 Z" stroke-width="1" id="279-03-01" stroke="black"/>
  <path fill="none" d="M 297.00 397.00 L 357.00 324.00 L 331.00 324.00 L 284.00 384.00 Z" stroke-width="1" id="279-03-02" stroke="black"/>
  <path fill="none" d="M 300.00 400.00 L 320.00 399.00 L 340.00 379.00 L 360.00 379.00 L 380.00 378.00 L 420.00 378.00 L 440.00 377.00 L 460.00 377.00 L 474.00 391.00 L 521.00 324.00 L 357.00 324.00 L 297.00 397.00 Z" stroke-width="1" id="279-03-03" stroke="black"/>
  <path fill="none" d="M 480.00 397.00 L 500.00 396.00 L 520.00 396.00 L 540.00 376.00 L 560.00 375.00 L 580.00 375.00 L 600.00 374.00 L 629.00 374.00 L 632.00 324.00 L 521.00 324.00 L 474.00 391.00 Z" stroke-width="1" id="279-03-04" stroke="black"/>
  <path fill="none" d="M 640.00 374.00 L 660.00 373.00 L 700.00 373.00 L 720.00 372.00 L 760.00 372.00 L 780.00 371.00 L 820.00 371.00 L 840.00 390.00 L 869.00 390.00 L 903.00 288.00 L 900.00 288.00 L 880.00 290.00 L 860.00 302.00 L 840.00 316.00 L 820.00 320.00 L 800.00 320.00 L 780.00 322.00 L 760.00 324.00 L 632.00 324.00 L 629.00 374.00 Z" stroke-width="1" id="279-03-05" stroke="black"/>
  <path fill="none" d="M 880.00 390.00 L 900.00 389.00 L 920.00 389.00 L 940.00 369.00 L 960.00 368.00 L 1000.00 368.00 L 1020.00 367.00 L 1060.00 367.00 L 1080.00 366.00 L 1084.00 366.00 L 1093.00 292.00 L 1020.00 292.00 L 1000.00 290.00 L 940.00 290.00 L 920.00 288.00 L 903.00 288.00 L 869.00 390.00 Z" stroke-width="1" id="279-03-06" stroke="black"/>
  <path fill="none" d="M 1100.00 366.00 L 1120.00 365.00 L 1160.00 365.00 L 1180.00 364.00 L 1220.00 364.00 L 1240.00 363.00 L 1261.00 363.00 L 1299.00 288.00 L 1220.00 288.00 L 1200.00 292.00 L 1093.00 292.00 L 1084.00 366.00 Z" stroke-width="1" id="279-03-07" stroke="black"/>
  <path fill="none" d="M 1280.00 363.00 L 1300.00 362.00 L 1340.00 362.00 L 1360.00 361.00 L 1400.00 361.00 L 1420.00 360.00 L 1430.00 360.00 L 1434.00 290.00 L 1360.00 290.00 L 1340.00 288.00 L 1299.00 288.00 L 1261.00 363.00 Z" stroke-width="1" id="279-03-08" stroke="black"/>
  <path fill="none" d="M 1454.00 360.00 L 1466.00 290.00 L 1434.00 290.00 L 1430.00 360.00 Z" stroke-width="1" id="279-03-09" stroke="black"/>
  <path fill="none" d="M 1460.00 360.00 L 1480.00 359.00 L 1520.00 359.00 L 1540.00 358.00 L 1580.00 358.00 L 1600.00 357.00 L 1620.00 357.00 L 1640.00 356.00 L 1660.00 396.00 L 1680.00 396.00 L 1700.00 395.00 L 1720.00 375.00 L 1740.00 355.00 L 1760.00 354.00 L 1800.00 354.00 L 1820.00 353.00 L 1860.00 353.00 L 1880.00 352.00 L 1920.00 352.00 L 1933.93 351.30 L 1928.00 312.00 L 1936.31 286.00 L 1880.00 286.00 L 1860.00 284.00 L 1760.00 284.00 L 1740.00 288.00 L 1720.00 292.00 L 1620.00 292.00 L 1600.00 290.00 L 1466.00 290.00 L 1454.00 360.00 Z" stroke-width="1" id="279-03-10" stroke="black"/>
  <path fill="none" d="M 210.67 381.00 L 212.00 385.00 L 207.00 448.00 L 208.33 473.33 L 220.00 485.00 L 240.00 484.00 L 260.00 484.00 L 280.00 464.00 L 300.00 464.00 L 320.00 463.00 L 380.00 463.00 L 400.00 462.00 L 421.00 462.00 L 435.00 377.25 L 420.00 378.00 L 380.00 378.00 L 360.00 379.00 L 340.00 379.00 L 320.00 399.00 L 300.00 400.00 L 280.00 380.00 L 260.00 380.00 L 240.00 381.00 Z" stroke-width="1" id="279-04-01" stroke="black"/>
  <path fill="none" d="M 460.00 462.00 L 480.00 461.00 L 540.00 461.00 L 560.00 460.00 L 590.00 460.00 L 606.00 374.00 L 600.00 374.00 L 580.00 375.00 L 560.00 375.00 L 540.00 376.00 L 520.00 396.00 L 500.00 396.00 L 480.00 397.00 L 460.00 377.00 L 440.00 377.00 L 435.00 377.25 L 421.00 462.00 Z" stroke-width="1" id="279-04-02" stroke="black"/>
  <path fill="none" d="M 620.00 460.00 L 640.00 459.00 L 700.00 459.00 L 720.00 458.00 L 780.00 458.00 L 800.00 457.00 L 840.00 457.00 L 855.00 472.00 L 909.00 389.00 L 900.00 389.00 L 880.00 390.00 L 840.00 390.00 L 820.00 371.00 L 780.00 371.00 L 760.00 372.00 L 720.00 372.00 L 700.00 373.00 L 660.00 373.00 L 640.00 374.00 L 606.00 374.00 L 590.00 460.00 Z" stroke-width="1" id="279-04-03" stroke="black"/>
  <path fill="none" d="M 860.00 477.00 L 880.00 476.00 L 900.00 456.00 L 940.00 456.00 L 960.00 475.00 L 966.00 475.00 L 1016.00 367.20 L 1000.00 368.00 L 960.00 368.00 L 940.00 369.00 L 920.00 389.00 L 909.00 389.00 L 855.00 472.00 Z" stroke-width="1" id="279-04-04" stroke="black"/>
  <path fill="none" d="M 1000.00 475.00 L 1020.00 455.00 L 1040.00 454.00 L 1080.00 454.00 L 1100.00 453.00 L 1160.00 453.00 L 1180.00 452.00 L 1240.00 452.00 L 1260.00 451.00 L 1300.00 451.00 L 1320.00 471.00 L 1340.00 490.00 L 1360.00 470.00 L 1380.00 450.00 L 1400.00 450.00 L 1411.00 449.45 L 1456.00 360.00 L 1420.00 360.00 L 1400.00 361.00 L 1360.00 361.00 L 1340.00 362.00 L 1300.00 362.00 L 1280.00 363.00 L 1240.00 363.00 L 1220.00 364.00 L 1180.00 364.00 L 1160.00 365.00 L 1120.00 365.00 L 1100.00 366.00 L 1080.00 366.00 L 1060.00 367.00 L 1020.00 367.00 L 1016.00 367.20 L 966.00 475.00 Z" stroke-width="1" id="279-04-05" stroke="black"/>
  <path fill="none" d="M 1420.00 449.00 L 1480.00 449.00 L 1500.00 448.00 L 1560.00 448.00 L 1580.00 447.00 L 1640.00 447.00 L 1660.00 446.00 L 1720.00 446.00 L 1740.00 445.00 L 1800.00 445.00 L 1820.00 444.00 L 1875.00 444.00 L 1893.00 352.00 L 1880.00 352.00 L 1860.00 353.00 L 1820.00 353.00 L 1800.00 354.00 L 1760.00 354.00 L 1740.00 355.00 L 1720.00 375.00 L 1700.00 395.00 L 1680.00 396.00 L 1660.00 396.00 L 1640.00 356.00 L 1620.00 357.00 L 1600.00 357.00 L 1580.00 358.00 L 1540.00 358.00 L 1520.00 359.00 L 1480.00 359.00 L 1460.00 360.00 L 1456.00 360.00 L 1411.00 449.45 Z" stroke-width="1" id="279-04-06" stroke="black"/>
  <path fill="none" d="M 1880.00 444.00 L 1900.00 443.00 L 1941.73 443.00 L 1944.00 418.00 L 1933.93 351.30 L 1920.00 352.00 L 1893.00 352.00 L 1875.00 444.00 Z" stroke-width="1" id="279-04-07" stroke="black"/>
  <path fill="none" d="M 208.33 473.33 L 211.00 524.00 L 202.00 537.00 L 210.00 543.00 L 210.00 560.00 L 240.00 560.00 L 260.00 559.00 L 320.00 559.00 L 323.00 558.85 L 348.00 463.00 L 320.00 463.00 L 300.00 464.00 L 280.00 464.00 L 260.00 484.00 L 240.00 484.00 L 220.00 485.00 Z" stroke-width="1" id="279-05-01" stroke="black"/>
  <path fill="none" d="M 340.00 558.00 L 400.00 558.00 L 412.00 557.40 L 424.00 462.00 L 400.00 462.00 L 380.00 463.00 L 348.00 463.00 L 323.00 558.85 Z" stroke-width="1" id="279-05-02" stroke="black"/>
  <path fill="none" d="M 420.00 557.00 L 480.00 557.00 L 493.00 556.35 L 514.00 461.00 L 480.00 461.00 L 460.00 462.00 L 424.00 462.00 L 412.00 557.40 Z" stroke-width="1" id="279-05-03" stroke="black"/>
  <path fill="none" d="M 500.00 556.00 L 560.00 556.00 L 565.00 560.75 L 681.00 459.00 L 640.00 459.00 L 620.00 460.00 L 560.00 460.00 L 540.00 461.00 L 514.00 461.00 L 493.00 556.35 Z" stroke-width="1" id="279-05-04" stroke="black"/>
  <path fill="none" d="M 580.00 575.00 L 600.00 575.00 L 620.00 555.00 L 640.00 555.00 L 660.00 554.00 L 720.00 554.00 L 740.00 553.00 L 800.00 553.00 L 801.00 552.95 L 860.00 477.00 L 840.00 457.00 L 800.00 457.00 L 780.00 458.00 L 720.00 458.00 L 700.00 459.00 L 681.00 459.00 L 565.00 560.75 Z" stroke-width="1" id="279-05-05" stroke="black"/>
  <path fill="none" d="M 820.00 552.00 L 880.00 552.00 L 893.00 551.35 L 957.00 472.15 L 940.00 456.00 L 900.00 456.00 L 880.00 476.00 L 860.00 477.00 L 801.00 552.95 Z" stroke-width="1" id="279-05-06" stroke="black"/>
  <path fill="none" d="M 900.00 551.00 L 980.00 551.00 L 1000.00 550.00 L 1047.00 550.00 L 1057.00 454.00 L 1040.00 454.00 L 1020.00 455.00 L 1000.00 475.00 L 960.00 475.00 L 957.00 472.15 L 893.00 551.35 Z" stroke-width="1" id="279-05-07" stroke="black"/>
  <path fill="none" d="M 1060.00 550.00 L 1080.00 549.00 L 1120.00 549.00 L 1140.00 569.00 L 1160.00 568.00 L 1180.00 548.00 L 1220.00 548.00 L 1240.00 547.00 L 1300.00 547.00 L 1320.00 546.00 L 1335.00 546.00 L 1340.00 490.00 L 1320.00 471.00 L 1300.00 451.00 L 1260.00 451.00 L 1240.00 452.00 L 1180.00 452.00 L 1160.00 453.00 L 1100.00 453.00 L 1080.00 454.00 L 1057.00 454.00 L 1047.00 550.00 Z" stroke-width="1" id="279-05-08" stroke="black"/>
  <path fill="none" d="M 1380.00 546.00 L 1400.00 545.00 L 1460.00 545.00 L 1480.00 544.00 L 1540.00 544.00 L 1560.00 543.00 L 1620.00 543.00 L 1640.00 562.00 L 1660.00 562.00 L 1680.00 542.00 L 1700.00 542.00 L 1720.00 541.00 L 1725.00 541.00 L 1737.00 445.15 L 1720.00 446.00 L 1660.00 446.00 L 1640.00 447.00 L 1580.00 447.00 L 1560.00 448.00 L 1500.00 448.00 L 1480.00 449.00 L 1420.00 449.00 L 1400.00 450.00 L 1380.00 450.00 L 1360.00 470.00 L 1340.00 490.00 L 1335.00 546.00 Z" stroke-width="1" id="279-05-09" stroke="black"/>
  <path fill="none" d="M 1760.00 541.00 L 1780.00 521.00 L 1800.00 520.00 L 1820.00 540.00 L 1880.00 540.00 L 1890.00 539.50 L 1893.00 443.35 L 1880.00 444.00 L 1820.00 444.00 L 1800.00 445.00 L 1740.00 445.00 L 1737.00 445.15 L 1725.00 541.00 Z" stroke-width="1" id="279-05-10" stroke="black"/>
  <path fill="none" d="M 1900.00 539.00 L 1949.12 539.00 L 1938.00 484.00 L 1941.73 443.00 L 1900.00 443.00 L 1893.00 443.35 L 1890.00 539.50 Z" stroke-width="1" id="279-05-11" stroke="black"/>
  <path fill="none" d="M 210.00 560.00 L 210.00 619.00 L 210.54 639.00 L 220.00 639.00 L 240.00 638.00 L 280.00 638.00 L 300.00 637.00 L 324.00 637.00 L 349.00 558.00 L 340.00 558.00 L 320.00 559.00 L 260.00 559.00 L 240.00 560.00 Z" stroke-width="1" id="279-06-01" stroke="black"/>
  <path fill="none" d="M 360.00 637.00 L 380.00 636.00 L 420.00 636.00 L 430.00 656.00 L 453.00 557.00 L 420.00 557.00 L 400.00 558.00 L 349.00 558.00 L 324.00 637.00 Z" stroke-width="1" id="279-06-02" stroke="black"/>
  <path fill="none" d="M 433.00 662.00 L 504.00 556.00 L 500.00 556.00 L 480.00 557.00 L 453.00 557.00 L 430.00 656.00 Z" stroke-width="1" id="279-06-03" stroke="black"/>
  <path fill="none" d="M 440.00 676.00 L 460.00 655.00 L 480.00 635.00 L 500.00 635.00 L 520.00 634.00 L 580.00 634.00 L 600.00 633.00 L 620.00 653.00 L 627.00 653.00 L 672.00 554.00 L 660.00 554.00 L 640.00 555.00 L 620.00 555.00 L 600.00 575.00 L 580.00 575.00 L 560.00 556.00 L 504.00 556.00 L 433.00 662.00 Z" stroke-width="1" id="279-06-04" stroke="black"/>
  <path fill="none" d="M 660.00 653.00 L 680.00 632.00 L 720.00 632.00 L 740.00 631.00 L 771.00 631.00 L 779.00 553.00 L 740.00 553.00 L 720.00 554.00 L 672.00 554.00 L 627.00 653.00 Z" stroke-width="1" id="279-06-05" stroke="black"/>
  <path fill="none" d="M 800.00 631.00 L 820.00 630.00 L 880.00 630.00 L 900.00 629.00 L 940.00 629.00 L 960.00 628.00 L 1020.00 628.00 L 1040.00 627.00 L 1052.00 627.00 L 1090.00 549.00 L 1080.00 549.00 L 1060.00 550.00 L 1000.00 550.00 L 980.00 551.00 L 900.00 551.00 L 880.00 552.00 L 820.00 552.00 L 800.00 553.00 L 779.00 553.00 L 771.00 631.00 Z" stroke-width="1" id="279-06-06" stroke="black"/>
  <path fill="none" d="M 1100.00 627.00 L 1120.00 626.00 L 1134.00 626.00 L 1156.00 568.20 L 1140.00 569.00 L 1120.00 549.00 L 1090.00 549.00 L 1052.00 627.00 Z" stroke-width="1" id="279-06-07" stroke="black"/>
  <path fill="none" d="M 1160.00 626.00 L 1180.00 625.00 L 1234.00 625.00 L 1271.00 547.00 L 1240.00 547.00 L 1220.00 548.00 L 1180.00 548.00 L 1160.00 568.00 L 1156.00 568.20 L 1134.00 626.00 Z" stroke-width="1" id="279-06-08" stroke="black"/>
  <path fill="none" d="M 1240.00 625.00 L 1260.00 624.00 L 1300.00 624.00 L 1320.00 643.00 L 1380.00 643.00 L 1400.00 622.00 L 1460.00 622.00 L 1480.00 621.00 L 1543.00 543.85 L 1540.00 544.00 L 1480.00 544.00 L 1460.00 545.00 L 1400.00 545.00 L 1380.00 546.00 L 1320.00 546.00 L 1300.00 547.00 L 1271.00 547.00 L 1234.00 625.00 Z" stroke-width="1" id="279-06-09" stroke="black"/>
  <path fill="none" d="M 1500.00 641.00 L 1520.00 641.00 L 1540.00 620.00 L 1600.00 620.00 L 1620.00 619.00 L 1680.00 619.00 L 1688.00 618.60 L 1703.00 541.85 L 1700.00 542.00 L 1680.00 542.00 L 1660.00 562.00 L 1640.00 562.00 L 1620.00 543.00 L 1560.00 543.00 L 1543.00 543.85 L 1480.00 621.00 Z" stroke-width="1" id="279-06-10" stroke="black"/>
  <path fill="none" d="M 1700.00 618.00 L 1740.00 618.00 L 1760.00 617.00 L 1795.00 617.00 L 1823.00 540.00 L 1820.00 540.00 L 1800.00 520.00 L 1780.00 521.00 L 1760.00 541.00 L 1720.00 541.00 L 1703.00 541.85 L 1688.00 618.60 Z" stroke-width="1" id="279-06-11" stroke="black"/>
  <path fill="none" d="M 1820.00 617.00 L 1840.00 616.00 L 1900.00 616.00 L 1920.00 615.00 L 1956.09 615.00 L 1964.00 592.00 L 1956.00 573.00 L 1949.12 539.00 L 1900.00 539.00 L 1880.00 540.00 L 1823.00 540.00 L 1795.00 617.00 Z" stroke-width="1" id="279-06-12" stroke="black"/>
  <path fill="none" d="M 210.54 639.00 L 212.00 693.00 L 205.00 704.00 L 216.00 712.00 L 215.55 723.00 L 240.00 723.00 L 260.00 722.00 L 320.00 722.00 L 340.00 741.00 L 360.00 741.00 L 379.00 722.00 L 390.00 636.00 L 380.00 636.00 L 360.00 637.00 L 300.00 637.00 L 280.00 638.00 L 240.00 638.00 L 220.00 639.00 Z" stroke-width="1" id="279-07-01" stroke="black"/>
  <path fill="none" d="M 380.00 721.00 L 400.00 721.00 L 420.00 720.00 L 445.00 720.00 L 510.00 634.50 L 500.00 635.00 L 480.00 635.00 L 460.00 655.00 L 440.00 676.00 L 420.00 636.00 L 390.00 636.00 L 379.00 722.00 Z" stroke-width="1" id="279-07-02" stroke="black"/>
  <path fill="none" d="M 480.00 720.00 L 500.00 719.00 L 540.00 719.00 L 543.00 722.00 L 611.00 644.00 L 600.00 633.00 L 580.00 634.00 L 520.00 634.00 L 510.00 634.50 L 445.00 720.00 Z" stroke-width="1" id="279-07-03" stroke="black"/>
  <path fill="none" d="M 560.00 739.00 L 580.00 738.00 L 600.00 718.00 L 660.00 718.00 L 680.00 717.00 L 729.00 717.00 L 751.00 631.00 L 740.00 631.00 L 720.00 632.00 L 680.00 632.00 L 660.00 653.00 L 620.00 653.00 L 611.00 644.00 L 543.00 722.00 Z" stroke-width="1" id="279-07-04" stroke="black"/>
  <path fill="none" d="M 740.00 717.00 L 760.00 716.00 L 813.00 716.00 L 840.00 630.00 L 820.00 630.00 L 800.00 631.00 L 751.00 631.00 L 729.00 717.00 Z" stroke-width="1" id="279-07-05" stroke="black"/>
  <path fill="none" d="M 820.00 716.00 L 840.00 715.00 L 900.00 715.00 L 920.00 714.00 L 926.00 714.00 L 956.00 628.20 L 940.00 629.00 L 900.00 629.00 L 880.00 630.00 L 840.00 630.00 L 813.00 716.00 Z" stroke-width="1" id="279-07-06" stroke="black"/>
  <path fill="none" d="M 980.00 714.00 L 1000.00 713.00 L 1060.00 713.00 L 1080.00 712.00 L 1153.00 712.00 L 1147.00 626.00 L 1120.00 626.00 L 1100.00 627.00 L 1040.00 627.00 L 1020.00 628.00 L 960.00 628.00 L 956.00 628.20 L 926.00 714.00 Z" stroke-width="1" id="279-07-07" stroke="black"/>
  <path fill="none" d="M 1160.00 712.00 L 1180.00 711.00 L 1169.00 625.55 L 1160.00 626.00 L 1147.00 626.00 L 1153.00 712.00 Z" stroke-width="1" id="279-07-08" stroke="black"/>
  <path fill="none" d="M 1240.00 711.00 L 1260.00 750.00 L 1280.00 730.00 L 1300.00 730.00 L 1320.00 710.00 L 1340.00 709.00 L 1395.00 709.00 L 1445.00 622.00 L 1400.00 622.00 L 1380.00 643.00 L 1320.00 643.00 L 1300.00 624.00 L 1260.00 624.00 L 1240.00 625.00 L 1180.00 625.00 L 1169.00 625.55 L 1180.00 711.00 Z" stroke-width="1" id="279-07-09" stroke="black"/>
  <path fill="none" d="M 1400.00 709.00 L 1420.00 728.00 L 1440.00 708.00 L 1480.00 708.00 L 1500.00 707.00 L 1514.00 707.00 L 1551.00 620.00 L 1540.00 620.00 L 1520.00 641.00 L 1500.00 641.00 L 1480.00 621.00 L 1460.00 622.00 L 1445.00 622.00 L 1395.00 709.00 Z" stroke-width="1" id="279-07-10" stroke="black"/>
  <path fill="none" d="M 1560.00 707.00 L 1580.00 706.00 L 1660.00 706.00 L 1680.00 705.00 L 1700.00 705.00 L 1720.00 725.00 L 1740.00 745.00 L 1760.00 744.00 L 1780.00 724.00 L 1800.00 704.00 L 1809.00 704.00 L 1862.00 616.00 L 1840.00 616.00 L 1820.00 617.00 L 1760.00 617.00 L 1740.00 618.00 L 1700.00 618.00 L 1680.00 619.00 L 1620.00 619.00 L 1600.00 620.00 L 1551.00 620.00 L 1514.00 707.00 Z" stroke-width="1" id="279-07-11" stroke="black"/>
  <path fill="none" d="M 1820.00 704.00 L 1840.00 703.00 L 1900.00 703.00 L 1920.00 702.00 L 1953.45 702.00 L 1960.00 674.00 L 1953.00 624.00 L 1956.09 615.00 L 1920.00 615.00 L 1900.00 616.00 L 1862.00 616.00 L 1809.00 704.00 Z" stroke-width="1" id="279-07-12" stroke="black"/>
  <path fill="none" d="M 215.55 723.00 L 213.00 786.00 L 202.00 794.00 L 212.00 802.00 L 212.76 813.36 L 220.00 813.00 L 260.00 813.00 L 280.00 812.00 L 327.00 812.00 L 360.00 741.00 L 340.00 741.00 L 320.00 722.00 L 260.00 722.00 L 240.00 723.00 Z" stroke-width="1" id="279-08-01" stroke="black"/>
  <path fill="none" d="M 340.00 812.00 L 360.00 811.00 L 380.00 831.00 L 400.00 831.00 L 420.00 810.00 L 460.00 810.00 L 480.00 809.00 L 520.00 809.00 L 540.00 829.00 L 560.00 828.00 L 600.00 828.00 L 620.00 807.00 L 631.00 807.00 L 676.00 717.20 L 660.00 718.00 L 600.00 718.00 L 580.00 738.00 L 560.00 739.00 L 540.00 719.00 L 500.00 719.00 L 480.00 720.00 L 420.00 720.00 L 400.00 721.00 L 380.00 721.00 L 360.00 741.00 L 327.00 812.00 Z" stroke-width="1" id="279-08-02" stroke="black"/>
  <path fill="none" d="M 660.00 807.00 L 680.00 806.00 L 738.00 806.00 L 770.00 716.00 L 760.00 716.00 L 740.00 717.00 L 680.00 717.00 L 676.00 717.20 L 631.00 807.00 Z" stroke-width="1" id="279-08-03" stroke="black"/>
  <path fill="none" d="M 740.00 806.00 L 760.00 805.00 L 800.00 805.00 L 820.00 804.00 L 860.00 804.00 L 880.00 803.00 L 940.00 803.00 L 960.00 802.00 L 1000.00 802.00 L 1020.00 801.00 L 1025.00 801.00 L 1025.00 713.00 L 1000.00 713.00 L 980.00 714.00 L 920.00 714.00 L 900.00 715.00 L 840.00 715.00 L 820.00 716.00 L 770.00 716.00 L 738.00 806.00 Z" stroke-width="1" id="279-08-04" stroke="black"/>
  <path fill="none" d="M 1060.00 801.00 L 1080.00 800.00 L 1107.00 800.00 L 1117.00 712.00 L 1080.00 712.00 L 1060.00 713.00 L 1025.00 713.00 L 1025.00 801.00 Z" stroke-width="1" id="279-08-05" stroke="black"/>
  <path fill="none" d="M 1140.00 800.00 L 1160.00 799.00 L 1200.00 799.00 L 1220.00 798.00 L 1260.00 798.00 L 1280.00 797.00 L 1337.00 797.00 L 1348.00 709.00 L 1340.00 709.00 L 1320.00 710.00 L 1300.00 730.00 L 1280.00 730.00 L 1260.00 750.00 L 1240.00 711.00 L 1180.00 711.00 L 1160.00 712.00 L 1117.00 712.00 L 1107.00 800.00 Z" stroke-width="1" id="279-08-06" stroke="black"/>
  <path fill="none" d="M 1340.00 797.00 L 1360.00 796.00 L 1400.00 796.00 L 1420.00 795.00 L 1460.00 795.00 L 1480.00 794.00 L 1540.00 794.00 L 1560.00 793.00 L 1600.00 793.00 L 1620.00 792.00 L 1660.00 792.00 L 1680.00 791.00 L 1691.00 802.00 L 1733.00 738.00 L 1720.00 725.00 L 1700.00 705.00 L 1680.00 705.00 L 1660.00 706.00 L 1580.00 706.00 L 1560.00 707.00 L 1500.00 707.00 L 1480.00 708.00 L 1440.00 708.00 L 1420.00 728.00 L 1400.00 709.00 L 1348.00 709.00 L 1337.00 797.00 Z" stroke-width="1" id="279-08-07" stroke="black"/>
  <path fill="none" d="M 1700.00 811.00 L 1740.00 811.00 L 1760.00 790.00 L 1800.00 790.00 L 1820.00 789.00 L 1853.00 789.00 L 1902.00 702.90 L 1900.00 703.00 L 1840.00 703.00 L 1820.00 704.00 L 1800.00 704.00 L 1780.00 724.00 L 1760.00 744.00 L 1740.00 745.00 L 1733.00 738.00 L 1691.00 802.00 Z" stroke-width="1" id="279-08-08" stroke="black"/>
  <path fill="none" d="M 1860.00 789.00 L 1880.00 788.00 L 1940.00 788.00 L 1954.68 787.27 L 1960.00 764.00 L 1949.00 721.00 L 1953.45 702.00 L 1920.00 702.00 L 1902.00 702.90 L 1853.00 789.00 Z" stroke-width="1" id="279-08-09" stroke="black"/>
  <path fill="none" d="M 212.76 813.36 L 216.00 862.00 L 203.00 876.00 L 220.00 890.00 L 219.95 892.00 L 220.00 892.00 L 240.00 891.00 L 280.00 891.00 L 300.00 890.00 L 320.00 890.00 L 340.00 930.00 L 360.00 930.00 L 380.00 909.00 L 400.00 909.00 L 420.00 889.00 L 424.00 888.80 L 462.00 809.90 L 460.00 810.00 L 420.00 810.00 L 400.00 831.00 L 380.00 831.00 L 360.00 811.00 L 340.00 812.00 L 280.00 812.00 L 260.00 813.00 L 220.00 813.00 Z" stroke-width="1" id="279-09-01" stroke="black"/>
  <path fill="none" d="M 440.00 888.00 L 500.00 888.00 L 520.00 887.00 L 560.00 887.00 L 580.00 886.00 L 640.00 886.00 L 660.00 885.00 L 686.00 885.00 L 712.00 806.00 L 680.00 806.00 L 660.00 807.00 L 620.00 807.00 L 600.00 828.00 L 560.00 828.00 L 540.00 829.00 L 520.00 809.00 L 480.00 809.00 L 462.00 809.90 L 424.00 888.80 Z" stroke-width="1" id="279-09-02" stroke="black"/>
  <path fill="none" d="M 720.00 885.00 L 740.00 884.00 L 777.00 884.00 L 803.00 804.85 L 800.00 805.00 L 760.00 805.00 L 740.00 806.00 L 712.00 806.00 L 686.00 885.00 Z" stroke-width="1" id="279-09-03" stroke="black"/>
  <path fill="none" d="M 780.00 884.00 L 800.00 883.00 L 860.00 883.00 L 880.00 882.00 L 920.00 882.00 L 940.00 881.00 L 1000.00 881.00 L 1008.00 880.60 L 1032.00 801.00 L 1020.00 801.00 L 1000.00 802.00 L 960.00 802.00 L 940.00 803.00 L 880.00 803.00 L 860.00 804.00 L 820.00 804.00 L 803.00 804.85 L 777.00 884.00 Z" stroke-width="1" id="279-09-04" stroke="black"/>
  <path fill="none" d="M 1020.00 880.00 L 1060.00 880.00 L 1080.00 879.00 L 1140.00 879.00 L 1160.00 898.00 L 1162.00 900.00 L 1240.00 798.00 L 1220.00 798.00 L 1200.00 799.00 L 1160.00 799.00 L 1140.00 800.00 L 1080.00 800.00 L 1060.00 801.00 L 1032.00 801.00 L 1008.00 880.60 Z" stroke-width="1" id="279-09-05" stroke="black"/>
  <path fill="none" d="M 1180.00 918.00 L 1200.00 898.00 L 1220.00 878.00 L 1240.00 877.00 L 1260.00 917.00 L 1280.00 917.00 L 1300.00 876.00 L 1306.00 876.00 L 1311.00 797.00 L 1280.00 797.00 L 1260.00 798.00 L 1240.00 798.00 L 1162.00 900.00 Z" stroke-width="1" id="279-09-06" stroke="black"/>
  <path fill="none" d="M 1341.00 876.00 L 1353.00 796.35 L 1340.00 797.00 L 1311.00 797.00 L 1306.00 876.00 Z" stroke-width="1" id="279-09-07" stroke="black"/>
  <path fill="none" d="M 1360.00 876.00 L 1380.00 875.00 L 1400.00 915.00 L 1420.00 915.00 L 1440.00 894.00 L 1460.00 894.00 L 1480.00 874.00 L 1491.00 874.00 L 1501.00 794.00 L 1480.00 794.00 L 1460.00 795.00 L 1420.00 795.00 L 1400.00 796.00 L 1360.00 796.00 L 1353.00 796.35 L 1341.00 876.00 Z" stroke-width="1" id="279-09-08" stroke="black"/>
  <path fill="none" d="M 1500.00 874.00 L 1520.00 873.00 L 1560.00 873.00 L 1580.00 872.00 L 1620.00 872.00 L 1640.00 904.00 L 1660.00 900.00 L 1680.00 886.00 L 1700.00 871.00 L 1720.00 871.00 L 1739.00 870.05 L 1743.00 807.85 L 1740.00 811.00 L 1700.00 811.00 L 1680.00 791.00 L 1660.00 792.00 L 1620.00 792.00 L 1600.00 793.00 L 1560.00 793.00 L 1540.00 794.00 L 1501.00 794.00 L 1491.00 874.00 Z" stroke-width="1" id="279-09-09" stroke="black"/>
  <path fill="none" d="M 1740.00 870.00 L 1780.00 870.00 L 1800.00 869.00 L 1860.00 869.00 L 1880.00 868.00 L 1920.00 868.00 L 1940.00 867.00 L 1942.50 867.00 L 1944.00 834.00 L 1954.68 787.27 L 1940.00 788.00 L 1880.00 788.00 L 1860.00 789.00 L 1820.00 789.00 L 1800.00 790.00 L 1760.00 790.00 L 1743.00 807.85 L 1739.00 870.05 Z" stroke-width="1" id="279-09-10" stroke="black"/>
  <path fill="none" d="M 219.95 892.00 L 218.00 966.00 L 218.89 980.00 L 240.00 980.00 L 260.00 979.00 L 320.00 979.00 L 340.00 978.00 L 400.00 978.00 L 420.00 977.00 L 480.00 977.00 L 500.00 976.00 L 560.00 976.00 L 568.00 991.60 L 631.00 886.00 L 580.00 886.00 L 560.00 887.00 L 520.00 887.00 L 500.00 888.00 L 440.00 888.00 L 420.00 889.00 L 400.00 909.00 L 380.00 909.00 L 360.00 930.00 L 340.00 930.00 L 320.00 890.00 L 300.00 890.00 L 280.00 891.00 L 240.00 891.00 L 220.00 892.00 Z" stroke-width="1" id="279-10-01" stroke="black"/>
  <path fill="none" d="M 580.00 1015.00 L 620.00 1015.00 L 640.00 995.00 L 660.00 974.00 L 677.00 974.00 L 714.00 885.00 L 660.00 885.00 L 640.00 886.00 L 631.00 886.00 L 568.00 991.60 Z" stroke-width="1" id="279-10-02" stroke="black"/>
  <path fill="none" d="M 740.00 974.00 L 760.00 973.00 L 774.00 993.30 L 867.00 882.65 L 860.00 883.00 L 800.00 883.00 L 780.00 884.00 L 740.00 884.00 L 720.00 885.00 L 714.00 885.00 L 677.00 974.00 Z" stroke-width="1" id="279-10-03" stroke="black"/>
  <path fill="none" d="M 780.00 1002.00 L 800.00 1000.00 L 820.00 1004.00 L 840.00 992.00 L 860.00 972.00 L 900.00 972.00 L 920.00 971.00 L 980.00 971.00 L 1000.00 970.00 L 1060.00 970.00 L 1080.00 969.00 L 1134.00 969.00 L 1169.00 907.00 L 1160.00 898.00 L 1140.00 879.00 L 1080.00 879.00 L 1060.00 880.00 L 1020.00 880.00 L 1000.00 881.00 L 940.00 881.00 L 920.00 882.00 L 880.00 882.00 L 867.00 882.65 L 774.00 993.30 Z" stroke-width="1" id="279-10-04" stroke="black"/>
  <path fill="none" d="M 1140.00 969.00 L 1160.00 968.00 L 1209.00 968.00 L 1249.00 895.00 L 1240.00 877.00 L 1220.00 878.00 L 1200.00 898.00 L 1180.00 918.00 L 1169.00 907.00 L 1134.00 969.00 Z" stroke-width="1" id="279-10-05" stroke="black"/>
  <path fill="none" d="M 1220.00 968.00 L 1240.00 967.00 L 1260.00 967.00 L 1280.00 1007.00 L 1300.00 1007.00 L 1320.00 987.00 L 1340.00 966.00 L 1400.00 966.00 L 1420.00 985.00 L 1440.00 985.00 L 1460.00 965.00 L 1480.00 965.00 L 1500.00 964.00 L 1515.00 964.00 L 1517.00 873.15 L 1500.00 874.00 L 1480.00 874.00 L 1460.00 894.00 L 1440.00 894.00 L 1420.00 915.00 L 1400.00 915.00 L 1380.00 875.00 L 1360.00 876.00 L 1300.00 876.00 L 1280.00 917.00 L 1260.00 917.00 L 1249.00 895.00 L 1209.00 968.00 Z" stroke-width="1" id="279-10-06" stroke="black"/>
  <path fill="none" d="M 1620.00 963.00 L 1640.00 983.00 L 1660.00 982.00 L 1680.00 962.00 L 1696.00 962.00 L 1750.00 870.00 L 1740.00 870.00 L 1720.00 871.00 L 1700.00 871.00 L 1680.00 886.00 L 1660.00 900.00 L 1640.00 904.00 L 1638.00 900.80 L 1602.00 963.00 Z" stroke-width="1" id="279-10-07" stroke="black"/>
  <path fill="none" d="M 1720.00 962.00 L 1740.00 961.00 L 1760.00 1001.00 L 1800.00 1001.00 L 1820.00 980.00 L 1840.00 960.00 L 1849.00 960.00 L 1856.00 869.00 L 1800.00 869.00 L 1780.00 870.00 L 1750.00 870.00 L 1696.00 962.00 Z" stroke-width="1" id="279-10-08" stroke="black"/>
  <path fill="none" d="M 1882.41 960.00 L 1883.00 957.00 L 1959.00 946.00 L 1965.00 931.00 L 1941.00 900.00 L 1942.50 867.00 L 1940.00 867.00 L 1920.00 868.00 L 1880.00 868.00 L 1860.00 869.00 L 1856.00 869.00 L 1849.00 960.00 Z" stroke-width="1" id="279-10-09" stroke="black"/>
  <path fill="none" d="M 218.89 980.00 L 222.00 1029.00 L 211.00 1045.00 L 220.00 1057.00 L 220.27 1065.00 L 340.00 1065.00 L 360.00 1064.00 L 380.00 1096.00 L 400.00 1100.00 L 420.00 1092.00 L 440.00 1082.00 L 460.00 1082.00 L 480.00 1064.00 L 500.00 1063.00 L 600.00 1063.00 L 620.00 1062.00 L 670.00 1062.00 L 717.00 974.00 L 660.00 974.00 L 640.00 995.00 L 620.00 1015.00 L 580.00 1015.00 L 560.00 976.00 L 500.00 976.00 L 480.00 977.00 L 420.00 977.00 L 400.00 978.00 L 340.00 978.00 L 320.00 979.00 L 260.00 979.00 L 240.00 980.00 Z" stroke-width="1" id="279-11-01" stroke="black"/>
  <path fill="none" d="M 680.00 1062.00 L 700.00 1082.00 L 740.00 1082.00 L 760.00 1061.00 L 880.00 1061.00 L 896.00 1060.20 L 906.00 971.70 L 900.00 972.00 L 860.00 972.00 L 840.00 992.00 L 820.00 1004.00 L 800.00 1000.00 L 780.00 1002.00 L 760.00 973.00 L 740.00 974.00 L 717.00 974.00 L 670.00 1062.00 Z" stroke-width="1" id="279-11-02" stroke="black"/>
  <path fill="none" d="M 900.00 1060.00 L 978.00 1060.00 L 992.00 970.40 L 980.00 971.00 L 920.00 971.00 L 906.00 971.70 L 896.00 1060.20 Z" stroke-width="1" id="279-11-03" stroke="black"/>
  <path fill="none" d="M 1000.00 1060.00 L 1020.00 1059.00 L 1140.00 1059.00 L 1160.00 1058.00 L 1233.00 1058.00 L 1270.00 987.00 L 1260.00 967.00 L 1240.00 967.00 L 1220.00 968.00 L 1160.00 968.00 L 1140.00 969.00 L 1080.00 969.00 L 1060.00 970.00 L 1000.00 970.00 L 992.00 970.40 L 978.00 1060.00 Z" stroke-width="1" id="279-11-04" stroke="black"/>
  <path fill="none" d="M 1280.00 1058.00 L 1300.00 1057.00 L 1400.00 1057.00 L 1420.00 1056.00 L 1524.00 1056.00 L 1575.00 963.25 L 1560.00 964.00 L 1500.00 964.00 L 1480.00 965.00 L 1460.00 965.00 L 1440.00 985.00 L 1420.00 985.00 L 1400.00 966.00 L 1340.00 966.00 L 1320.00 987.00 L 1300.00 1007.00 L 1280.00 1007.00 L 1270.00 987.00 L 1233.00 1058.00 Z" stroke-width="1" id="279-11-05" stroke="black"/>
  <path fill="none" d="M 1540.00 1056.00 L 1560.00 1055.00 L 1600.00 1055.00 L 1620.00 1075.00 L 1640.00 1075.00 L 1660.00 1055.00 L 1680.00 1075.00 L 1700.00 1054.00 L 1800.00 1054.00 L 1805.00 1053.75 L 1801.00 999.95 L 1800.00 1001.00 L 1760.00 1001.00 L 1740.00 961.00 L 1720.00 962.00 L 1680.00 962.00 L 1660.00 982.00 L 1640.00 983.00 L 1620.00 963.00 L 1580.00 963.00 L 1575.00 963.25 L 1524.00 1056.00 Z" stroke-width="1" id="279-11-06" stroke="black"/>
  <path fill="none" d="M 1820.00 1053.00 L 1905.50 1053.00 L 1867.00 1039.00 L 1882.41 960.00 L 1840.00 960.00 L 1820.00 980.00 L 1801.00 999.95 L 1805.00 1053.75 Z" stroke-width="1" id="279-11-07" stroke="black"/>
  <path fill="none" d="M 220.27 1065.00 L 222.00 1117.00 L 213.00 1132.00 L 222.00 1142.00 L 221.86 1147.00 L 280.00 1147.00 L 300.00 1166.00 L 320.00 1166.00 L 330.00 1156.00 L 338.00 1065.00 Z" stroke-width="1" id="279-12-01" stroke="black"/>
  <path fill="none" d="M 340.00 1146.00 L 380.00 1146.00 L 400.00 1145.00 L 473.00 1145.00 L 498.00 1063.10 L 480.00 1064.00 L 460.00 1082.00 L 440.00 1082.00 L 420.00 1092.00 L 400.00 1100.00 L 380.00 1096.00 L 360.00 1064.00 L 340.00 1065.00 L 338.00 1065.00 L 330.00 1156.00 Z" stroke-width="1" id="279-12-02" stroke="black"/>
  <path fill="none" d="M 500.00 1145.00 L 520.00 1144.00 L 596.00 1144.00 L 609.00 1062.55 L 600.00 1063.00 L 500.00 1063.00 L 498.00 1063.10 L 473.00 1145.00 Z" stroke-width="1" id="279-12-03" stroke="black"/>
  <path fill="none" d="M 600.00 1144.00 L 620.00 1143.00 L 679.00 1143.00 L 709.00 1082.00 L 700.00 1082.00 L 680.00 1062.00 L 620.00 1062.00 L 609.00 1062.55 L 596.00 1144.00 Z" stroke-width="1" id="279-12-04" stroke="black"/>
  <path fill="none" d="M 700.00 1143.00 L 720.00 1142.00 L 793.00 1142.00 L 826.00 1061.00 L 760.00 1061.00 L 740.00 1082.00 L 709.00 1082.00 L 679.00 1143.00 Z" stroke-width="1" id="279-12-05" stroke="black"/>
  <path fill="none" d="M 820.00 1142.00 L 840.00 1141.00 L 920.00 1141.00 L 940.00 1140.00 L 1020.00 1140.00 L 1040.00 1139.00 L 1140.00 1139.00 L 1143.00 1138.85 L 1159.00 1058.05 L 1140.00 1059.00 L 1020.00 1059.00 L 1000.00 1060.00 L 900.00 1060.00 L 880.00 1061.00 L 826.00 1061.00 L 793.00 1142.00 Z" stroke-width="1" id="279-12-06" stroke="black"/>
  <path fill="none" d="M 1160.00 1138.00 L 1240.00 1138.00 L 1259.00 1137.05 L 1267.00 1058.00 L 1160.00 1058.00 L 1159.00 1058.05 L 1143.00 1138.85 Z" stroke-width="1" id="279-12-07" stroke="black"/>
  <path fill="none" d="M 1260.00 1137.00 L 1340.00 1137.00 L 1360.00 1136.00 L 1369.00 1145.00 L 1423.00 1056.00 L 1420.00 1056.00 L 1400.00 1057.00 L 1300.00 1057.00 L 1280.00 1058.00 L 1267.00 1058.00 L 1259.00 1137.05 Z" stroke-width="1" id="279-12-08" stroke="black"/>
  <path fill="none" d="M 1380.00 1156.00 L 1400.00 1156.00 L 1420.00 1136.00 L 1440.00 1136.00 L 1460.00 1176.00 L 1480.00 1155.00 L 1500.00 1175.00 L 1520.00 1135.00 L 1527.00 1135.00 L 1542.00 1055.90 L 1540.00 1056.00 L 1423.00 1056.00 L 1369.00 1145.00 Z" stroke-width="1" id="279-12-09" stroke="black"/>
  <path fill="none" d="M 1580.00 1134.00 L 1660.00 1134.00 L 1680.00 1133.00 L 1722.00 1133.00 L 1756.00 1054.00 L 1700.00 1054.00 L 1680.00 1075.00 L 1660.00 1055.00 L 1640.00 1075.00 L 1620.00 1075.00 L 1600.00 1055.00 L 1576.00 1055.00 L 1571.00 1134.45 Z" stroke-width="1" id="279-12-10" stroke="black"/>
  <path fill="none" d="M 1760.00 1133.00 L 1780.00 1132.00 L 1791.00 1132.00 L 1821.50 1053.00 L 1820.00 1053.00 L 1800.00 1054.00 L 1756.00 1054.00 L 1722.00 1133.00 Z" stroke-width="1" id="279-12-11" stroke="black"/>
  <path fill="none" d="M 1860.00 1132.00 L 1870.00 1142.00 L 1904.50 1053.00 L 1821.50 1053.00 L 1791.00 1132.00 Z" stroke-width="1" id="279-12-12" stroke="black"/>
  <path fill="none" d="M 1880.00 1152.00 L 1900.00 1151.00 L 1920.00 1151.00 L 1940.00 1131.00 L 1945.91 1131.00 L 1960.00 1111.00 L 1955.00 1071.00 L 1905.50 1053.00 L 1904.50 1053.00 L 1870.00 1142.00 Z" stroke-width="1" id="279-12-13" stroke="black"/>
  <path fill="none" d="M 221.86 1147.00 L 220.00 1212.00 L 209.00 1224.00 L 209.00 1254.00 L 240.00 1254.00 L 260.00 1234.00 L 459.00 1234.00 L 469.00 1145.00 L 400.00 1145.00 L 380.00 1146.00 L 340.00 1146.00 L 320.00 1166.00 L 300.00 1166.00 L 280.00 1147.00 Z" stroke-width="1" id="279-13-01" stroke="black"/>
  <path fill="none" d="M 645.00 1234.00 L 681.00 1143.00 L 620.00 1143.00 L 600.00 1144.00 L 520.00 1144.00 L 500.00 1145.00 L 469.00 1145.00 L 459.00 1234.00 Z" stroke-width="1" id="279-13-02" stroke="black"/>
  <path fill="none" d="M 740.00 1234.00 L 760.00 1235.00 L 774.00 1235.00 L 830.00 1141.50 L 820.00 1142.00 L 720.00 1142.00 L 700.00 1143.00 L 681.00 1143.00 L 645.00 1234.00 Z" stroke-width="1" id="279-13-03" stroke="black"/>
  <path fill="none" d="M 800.00 1235.00 L 820.00 1215.00 L 840.00 1215.00 L 860.00 1235.00 L 1018.00 1235.00 L 1035.00 1139.25 L 1020.00 1140.00 L 940.00 1140.00 L 920.00 1141.00 L 840.00 1141.00 L 830.00 1141.50 L 774.00 1235.00 Z" stroke-width="1" id="279-13-04" stroke="black"/>
  <path fill="none" d="M 1060.00 1235.00 L 1072.06 1247.06 L 1113.48 1241.52 L 1120.00 1235.00 L 1162.28 1235.00 L 1223.28 1226.85 L 1257.00 1137.15 L 1240.00 1138.00 L 1160.00 1138.00 L 1140.00 1139.00 L 1075.00 1139.00 L 1045.00 1235.00 Z" stroke-width="1" id="279-13-05" stroke="black"/>
  <path fill="none" d="M 1282.00 1219.00 L 1317.00 1241.00 L 1335.61 1239.39 L 1340.00 1235.00 L 1386.50 1235.00 L 1421.50 1231.98 L 1447.00 1150.00 L 1440.00 1136.00 L 1420.00 1136.00 L 1400.00 1156.00 L 1380.00 1156.00 L 1360.00 1136.00 L 1340.00 1137.00 L 1260.00 1137.00 L 1257.00 1137.15 L 1223.28 1226.85 Z" stroke-width="1" id="279-13-06" stroke="black"/>
  <path fill="none" d="M 1456.00 1229.00 L 1492.00 1230.29 L 1547.00 1135.00 L 1520.00 1135.00 L 1500.00 1175.00 L 1480.00 1155.00 L 1460.00 1176.00 L 1447.00 1150.00 L 1421.50 1231.98 Z" stroke-width="1" id="279-13-07" stroke="black"/>
  <path fill="none" d="M 1540.00 1232.00 L 1593.93 1242.07 L 1600.00 1236.00 L 1640.90 1236.00 L 1648.90 1232.91 L 1678.00 1133.10 L 1660.00 1134.00 L 1580.00 1134.00 L 1560.00 1135.00 L 1547.00 1135.00 L 1492.00 1230.29 Z" stroke-width="1" id="279-13-08" stroke="black"/>
  <path fill="none" d="M 1716.00 1207.00 L 1778.00 1204.27 L 1771.00 1132.45 L 1760.00 1133.00 L 1680.00 1133.00 L 1678.00 1133.10 L 1648.90 1232.91 Z" stroke-width="1" id="279-13-09" stroke="black"/>
  <path fill="none" d="M 1898.00 1199.00 L 1945.91 1131.00 L 1940.00 1131.00 L 1920.00 1151.00 L 1900.00 1151.00 L 1880.00 1152.00 L 1860.00 1132.00 L 1780.00 1132.00 L 1771.00 1132.45 L 1778.00 1204.27 Z" stroke-width="1" id="279-13-10" stroke="black"/>
  <path fill="none" d="M 209.00 1254.00 L 220.00 1256.00 L 222.00 1291.00 L 206.00 1306.00 L 226.00 1330.00 L 416.90 1329.09 L 420.00 1328.00 L 448.00 1328.00 L 438.00 1234.00 L 260.00 1234.00 L 240.00 1254.00 Z" stroke-width="1" id="279-14-01" stroke="black"/>
  <path fill="none" d="M 480.00 1328.00 L 500.00 1326.00 L 520.00 1320.00 L 545.00 1320.00 L 552.00 1234.00 L 438.00 1234.00 L 448.00 1328.00 Z" stroke-width="1" id="279-14-02" stroke="black"/>
  <path fill="none" d="M 740.00 1322.00 L 766.00 1322.00 L 852.00 1227.00 L 840.00 1215.00 L 820.00 1215.00 L 800.00 1235.00 L 760.00 1235.00 L 740.00 1234.00 L 739.00 1234.00 L 734.00 1321.40 Z" stroke-width="1" id="279-14-03" stroke="black"/>
  <path fill="none" d="M 780.00 1322.00 L 800.00 1318.00 L 971.00 1318.00 L 956.00 1235.00 L 860.00 1235.00 L 852.00 1227.00 L 766.00 1322.00 Z" stroke-width="1" id="279-14-04" stroke="black"/>
  <path fill="none" d="M 1055.00 1318.00 L 1057.00 1235.00 L 956.00 1235.00 L 971.00 1318.00 Z" stroke-width="1" id="279-14-05" stroke="black"/>
  <path fill="none" d="M 144.00 1520.00 L 142.00 1583.00 L 211.00 1582.22 L 234.00 1472.00 L 200.00 1472.00 L 190.89 1473.82 Z" stroke-width="1" id="279-16-01" stroke="black"/>
  <path fill="none" d="M 230.00 1582.00 L 334.00 1578.21 L 382.00 1472.90 L 380.00 1473.00 L 360.00 1478.00 L 260.00 1478.00 L 240.00 1472.00 L 234.00 1472.00 L 211.00 1582.22 Z" stroke-width="1" id="279-16-02" stroke="black"/>
  <path fill="none" d="M 532.00 1571.00 L 541.00 1609.00 L 582.61 1607.39 L 600.00 1590.00 L 620.00 1589.00 L 660.00 1589.00 L 674.82 1603.82 L 722.00 1602.00 L 718.15 1608.09 L 720.00 1608.00 L 740.00 1588.00 L 760.00 1588.00 L 778.00 1469.00 L 720.00 1469.00 L 700.00 1470.00 L 620.00 1470.00 L 600.00 1471.00 L 520.00 1471.00 L 500.00 1472.00 L 400.00 1472.00 L 382.00 1472.90 L 334.00 1578.21 Z" stroke-width="1" id="279-16-03" stroke="black"/>
  <path fill="none" d="M 800.00 1588.00 L 820.00 1587.00 L 900.00 1587.00 L 920.00 1586.00 L 973.00 1586.00 L 985.00 1464.00 L 920.00 1464.00 L 900.00 1462.00 L 880.00 1456.00 L 860.00 1458.00 L 840.00 1468.00 L 820.00 1468.00 L 800.00 1469.00 L 778.00 1469.00 L 760.00 1588.00 Z" stroke-width="1" id="279-16-04" stroke="black"/>
  <path fill="none" d="M 1000.00 1586.00 L 1020.00 1585.00 L 1054.00 1585.00 L 1074.00 1467.40 L 1060.00 1466.00 L 1040.00 1466.00 L 1020.00 1464.00 L 985.00 1464.00 L 973.00 1586.00 Z" stroke-width="1" id="279-16-05" stroke="black"/>
  <path fill="none" d="M 1080.00 1585.00 L 1100.00 1565.00 L 1120.00 1565.00 L 1140.00 1564.00 L 1159.00 1564.00 L 1182.00 1470.00 L 1140.00 1470.00 L 1120.00 1468.00 L 1080.00 1468.00 L 1074.00 1467.40 L 1054.00 1585.00 Z" stroke-width="1" id="279-16-06" stroke="black"/>
  <path fill="none" d="M 1160.00 1564.00 L 1180.00 1584.00 L 1200.00 1584.00 L 1220.00 1564.00 L 1227.00 1563.65 L 1300.00 1476.00 L 1260.00 1476.00 L 1240.00 1472.00 L 1220.00 1470.00 L 1182.00 1470.00 L 1159.00 1564.00 Z" stroke-width="1" id="279-16-07" stroke="black"/>
  <path fill="none" d="M 1240.00 1563.00 L 1260.00 1583.00 L 1320.00 1583.00 L 1340.00 1602.00 L 1360.00 1602.00 L 1380.00 1582.00 L 1420.00 1582.00 L 1440.00 1581.00 L 1479.00 1581.00 L 1486.00 1476.00 L 1300.00 1476.00 L 1227.00 1563.65 Z" stroke-width="1" id="279-16-08" stroke="black"/>
  <path fill="none" d="M 1520.00 1581.00 L 1540.00 1580.00 L 1640.00 1580.00 L 1660.00 1579.00 L 1740.00 1579.00 L 1760.00 1578.00 L 1840.00 1578.00 L 1841.37 1577.93 L 1806.00 1567.00 L 1766.00 1522.00 L 1658.00 1476.00 L 1558.00 1480.00 L 1486.00 1476.00 L 1479.00 1581.00 Z" stroke-width="1" id="279-16-09" stroke="black"/>
  <path fill="none" d="M 629.28 1684.73 L 640.00 1726.00 L 660.00 1724.00 L 680.00 1712.00 L 700.00 1690.00 L 720.00 1674.00 L 740.00 1674.00 L 760.00 1647.00 L 780.00 1647.00 L 800.00 1646.00 L 860.00 1646.00 L 880.00 1645.00 L 883.00 1645.00 L 891.00 1587.00 L 820.00 1587.00 L 800.00 1588.00 L 740.00 1588.00 L 720.00 1608.00 L 718.15 1608.09 L 698.00 1640.00 L 659.00 1687.00 Z" stroke-width="1" id="279-17-01" stroke="black"/>
  <path fill="none" d="M 920.00 1645.00 L 940.00 1644.00 L 1000.00 1644.00 L 1017.00 1643.15 L 1073.00 1585.00 L 1020.00 1585.00 L 1000.00 1586.00 L 920.00 1586.00 L 900.00 1587.00 L 891.00 1587.00 L 883.00 1645.00 Z" stroke-width="1" id="279-17-02" stroke="black"/>
  <path fill="none" d="M 1020.00 1643.00 L 1060.00 1643.00 L 1080.00 1642.00 L 1140.00 1642.00 L 1160.00 1641.00 L 1180.00 1688.00 L 1200.00 1688.00 L 1220.00 1684.00 L 1240.00 1666.00 L 1260.00 1646.00 L 1280.00 1640.00 L 1287.00 1639.65 L 1310.00 1583.00 L 1260.00 1583.00 L 1240.00 1563.00 L 1220.00 1564.00 L 1200.00 1584.00 L 1180.00 1584.00 L 1160.00 1564.00 L 1140.00 1564.00 L 1120.00 1565.00 L 1100.00 1565.00 L 1080.00 1585.00 L 1073.00 1585.00 L 1017.00 1643.15 Z" stroke-width="1" id="279-17-03" stroke="black"/>
  <path fill="none" d="M 1300.00 1639.00 L 1320.00 1659.00 L 1340.00 1639.00 L 1360.00 1659.00 L 1380.00 1658.00 L 1400.00 1638.00 L 1420.00 1638.00 L 1440.00 1637.00 L 1500.00 1637.00 L 1520.00 1636.00 L 1560.00 1636.00 L 1580.00 1635.00 L 1587.00 1635.00 L 1611.00 1580.00 L 1540.00 1580.00 L 1520.00 1581.00 L 1440.00 1581.00 L 1420.00 1582.00 L 1380.00 1582.00 L 1360.00 1602.00 L 1340.00 1602.00 L 1320.00 1583.00 L 1310.00 1583.00 L 1287.00 1639.65 Z" stroke-width="1" id="279-17-04" stroke="black"/>
  <path fill="none" d="M 1640.00 1635.00 L 1660.00 1634.00 L 1673.00 1634.00 L 1694.00 1579.00 L 1660.00 1579.00 L 1640.00 1580.00 L 1611.00 1580.00 L 1587.00 1635.00 Z" stroke-width="1" id="279-17-05" stroke="black"/>
  <path fill="none" d="M 1700.00 1634.00 L 1720.00 1633.00 L 1780.00 1633.00 L 1800.00 1632.00 L 1860.00 1632.00 L 1880.00 1631.00 L 1920.00 1631.00 L 1926.47 1630.68 L 1916.00 1601.00 L 1841.37 1577.93 L 1840.00 1578.00 L 1760.00 1578.00 L 1740.00 1579.00 L 1694.00 1579.00 L 1673.00 1634.00 Z" stroke-width="1" id="279-17-06" stroke="black"/>
  <path fill="none" d="M 228.00 1710.00 L 216.00 1724.00 L 234.24 1748.00 L 240.00 1748.00 L 260.00 1747.00 L 276.00 1747.00 L 279.00 1695.62 Z" stroke-width="1" id="279-18-01" stroke="black"/>
  <path fill="none" d="M 300.00 1747.00 L 320.00 1746.00 L 360.00 1746.00 L 380.00 1788.00 L 400.00 1788.00 L 420.00 1774.00 L 440.00 1762.00 L 460.00 1744.00 L 480.00 1744.00 L 500.00 1743.00 L 540.00 1743.00 L 560.00 1742.00 L 600.00 1742.00 L 620.00 1741.00 L 640.00 1741.00 L 649.00 1740.55 L 666.00 1720.40 L 660.00 1724.00 L 640.00 1726.00 L 629.28 1684.73 L 384.00 1666.00 L 279.00 1695.62 L 276.00 1747.00 Z" stroke-width="1" id="279-18-02" stroke="black"/>
  <path fill="none" d="M 660.00 1740.00 L 700.00 1740.00 L 720.00 1739.00 L 740.00 1739.00 L 760.00 1759.00 L 780.00 1778.00 L 800.00 1758.00 L 820.00 1738.00 L 840.00 1737.00 L 880.00 1737.00 L 895.00 1751.25 L 991.00 1644.00 L 940.00 1644.00 L 920.00 1645.00 L 880.00 1645.00 L 860.00 1646.00 L 800.00 1646.00 L 780.00 1647.00 L 760.00 1647.00 L 740.00 1674.00 L 720.00 1674.00 L 700.00 1690.00 L 680.00 1712.00 L 666.00 1720.40 L 649.00 1740.55 Z" stroke-width="1" id="279-18-03" stroke="black"/>
  <path fill="none" d="M 900.00 1756.00 L 920.00 1756.00 L 940.00 1736.00 L 960.00 1735.00 L 1000.00 1735.00 L 1020.00 1734.00 L 1060.00 1734.00 L 1080.00 1733.00 L 1100.00 1773.00 L 1120.00 1773.00 L 1140.00 1752.00 L 1160.00 1732.00 L 1195.00 1688.00 L 1180.00 1688.00 L 1160.00 1641.00 L 1140.00 1642.00 L 1080.00 1642.00 L 1060.00 1643.00 L 1020.00 1643.00 L 1000.00 1644.00 L 991.00 1644.00 L 895.00 1751.25 Z" stroke-width="1" id="279-18-04" stroke="black"/>
  <path fill="none" d="M 1180.00 1731.00 L 1220.00 1731.00 L 1240.00 1730.00 L 1280.00 1730.00 L 1286.00 1729.70 L 1320.00 1659.00 L 1300.00 1639.00 L 1280.00 1640.00 L 1260.00 1646.00 L 1240.00 1666.00 L 1220.00 1684.00 L 1200.00 1688.00 L 1195.00 1688.00 L 1160.00 1732.00 Z" stroke-width="1" id="279-18-05" stroke="black"/>
  <path fill="none" d="M 1300.00 1729.00 L 1340.00 1729.00 L 1360.00 1728.00 L 1400.00 1728.00 L 1420.00 1747.00 L 1440.00 1747.00 L 1460.00 1767.00 L 1480.00 1726.00 L 1520.00 1726.00 L 1540.00 1725.00 L 1548.00 1733.00 L 1611.00 1635.00 L 1580.00 1635.00 L 1560.00 1636.00 L 1520.00 1636.00 L 1500.00 1637.00 L 1440.00 1637.00 L 1420.00 1638.00 L 1400.00 1638.00 L 1380.00 1658.00 L 1360.00 1659.00 L 1340.00 1639.00 L 1320.00 1659.00 L 1286.00 1729.70 Z" stroke-width="1" id="279-18-06" stroke="black"/>
  <path fill="none" d="M 1560.00 1745.00 L 1580.00 1745.00 L 1600.00 1724.00 L 1640.00 1724.00 L 1660.00 1723.00 L 1666.00 1723.00 L 1711.00 1633.45 L 1700.00 1634.00 L 1660.00 1634.00 L 1640.00 1635.00 L 1611.00 1635.00 L 1548.00 1733.00 Z" stroke-width="1" id="279-18-07" stroke="black"/>
  <path fill="none" d="M 1680.00 1723.00 L 1700.00 1722.00 L 1740.00 1722.00 L 1760.00 1721.00 L 1771.00 1721.00 L 1810.00 1632.00 L 1800.00 1632.00 L 1780.00 1633.00 L 1720.00 1633.00 L 1711.00 1633.45 L 1666.00 1723.00 Z" stroke-width="1" id="279-18-08" stroke="black"/>
  <path fill="none" d="M 1800.00 1721.00 L 1820.00 1720.00 L 1860.00 1720.00 L 1880.00 1719.00 L 1900.00 1759.00 L 1920.00 1739.00 L 1940.00 1718.00 L 1942.08 1718.00 L 1946.00 1686.00 L 1926.47 1630.68 L 1920.00 1631.00 L 1880.00 1631.00 L 1860.00 1632.00 L 1810.00 1632.00 L 1771.00 1721.00 Z" stroke-width="1" id="279-18-09" stroke="black"/>
  <path fill="none" d="M 234.24 1748.00 L 235.00 1749.00 L 227.00 1817.00 L 213.00 1833.00 L 206.20 1860.20 L 207.19 1861.19 L 229.28 1864.72 L 240.00 1854.00 L 260.00 1833.00 L 300.00 1833.00 L 320.00 1832.00 L 324.00 1832.00 L 355.00 1746.00 L 320.00 1746.00 L 300.00 1747.00 L 260.00 1747.00 L 240.00 1748.00 Z" stroke-width="1" id="279-19-01" stroke="black"/>
  <path fill="none" d="M 360.00 1832.00 L 380.00 1831.00 L 420.00 1831.00 L 440.00 1830.00 L 473.00 1830.00 L 484.00 1743.80 L 480.00 1744.00 L 460.00 1744.00 L 440.00 1762.00 L 420.00 1774.00 L 400.00 1788.00 L 380.00 1788.00 L 360.00 1746.00 L 355.00 1746.00 L 324.00 1832.00 Z" stroke-width="1" id="279-19-02" stroke="black"/>
  <path fill="none" d="M 480.00 1830.00 L 500.00 1829.00 L 520.00 1829.00 L 540.00 1828.00 L 580.00 1828.00 L 600.00 1827.00 L 631.00 1827.00 L 686.00 1740.00 L 660.00 1740.00 L 640.00 1741.00 L 620.00 1741.00 L 600.00 1742.00 L 560.00 1742.00 L 540.00 1743.00 L 500.00 1743.00 L 484.00 1743.80 L 473.00 1830.00 Z" stroke-width="1" id="279-19-03" stroke="black"/>
  <path fill="none" d="M 640.00 1827.00 L 660.00 1846.00 L 700.00 1846.00 L 720.00 1825.00 L 763.00 1761.85 L 760.00 1759.00 L 740.00 1739.00 L 720.00 1739.00 L 700.00 1740.00 L 686.00 1740.00 L 631.00 1827.00 Z" stroke-width="1" id="279-19-04" stroke="black"/>
  <path fill="none" d="M 760.00 1825.00 L 780.00 1824.00 L 800.00 1824.00 L 820.00 1844.00 L 840.00 1863.00 L 860.00 1843.00 L 880.00 1823.00 L 900.00 1822.00 L 920.00 1822.00 L 940.00 1821.00 L 980.00 1821.00 L 1000.00 1820.00 L 1040.00 1820.00 L 1060.00 1819.00 L 1093.00 1819.00 L 1102.00 1773.00 L 1100.00 1773.00 L 1080.00 1733.00 L 1060.00 1734.00 L 1020.00 1734.00 L 1000.00 1735.00 L 960.00 1735.00 L 940.00 1736.00 L 920.00 1756.00 L 900.00 1756.00 L 880.00 1737.00 L 840.00 1737.00 L 820.00 1738.00 L 800.00 1758.00 L 780.00 1778.00 L 763.00 1761.85 L 720.00 1825.00 Z" stroke-width="1" id="279-19-05" stroke="black"/>
  <path fill="none" d="M 1100.00 1819.00 L 1120.00 1818.00 L 1160.00 1818.00 L 1180.00 1857.00 L 1220.00 1857.00 L 1240.00 1836.00 L 1260.00 1856.00 L 1280.00 1836.00 L 1300.00 1815.00 L 1340.00 1815.00 L 1342.00 1814.90 L 1380.00 1728.00 L 1360.00 1728.00 L 1340.00 1729.00 L 1300.00 1729.00 L 1280.00 1730.00 L 1240.00 1730.00 L 1220.00 1731.00 L 1180.00 1731.00 L 1160.00 1732.00 L 1140.00 1752.00 L 1120.00 1773.00 L 1102.00 1773.00 L 1093.00 1819.00 Z" stroke-width="1" id="279-19-06" stroke="black"/>
  <path fill="none" d="M 1360.00 1814.00 L 1380.00 1814.00 L 1400.00 1813.00 L 1440.00 1813.00 L 1460.00 1812.00 L 1500.00 1812.00 L 1520.00 1831.00 L 1540.00 1831.00 L 1560.00 1811.00 L 1580.00 1810.00 L 1620.00 1810.00 L 1640.00 1829.00 L 1660.00 1849.00 L 1680.00 1829.00 L 1700.00 1828.00 L 1720.00 1828.00 L 1732.00 1816.00 L 1719.00 1722.00 L 1700.00 1722.00 L 1680.00 1723.00 L 1660.00 1723.00 L 1640.00 1724.00 L 1600.00 1724.00 L 1580.00 1745.00 L 1560.00 1745.00 L 1540.00 1725.00 L 1520.00 1726.00 L 1480.00 1726.00 L 1460.00 1767.00 L 1440.00 1747.00 L 1420.00 1747.00 L 1400.00 1728.00 L 1380.00 1728.00 L 1342.00 1814.90 Z" stroke-width="1" id="279-19-07" stroke="black"/>
  <path fill="none" d="M 1740.00 1808.00 L 1760.00 1847.00 L 1780.00 1847.00 L 1800.00 1826.00 L 1820.00 1806.00 L 1840.00 1806.00 L 1860.00 1805.00 L 1900.00 1805.00 L 1920.00 1804.00 L 1924.98 1804.00 L 1934.00 1784.00 L 1942.08 1718.00 L 1940.00 1718.00 L 1920.00 1739.00 L 1900.00 1759.00 L 1880.00 1719.00 L 1860.00 1720.00 L 1820.00 1720.00 L 1800.00 1721.00 L 1760.00 1721.00 L 1740.00 1722.00 L 1719.00 1722.00 L 1732.00 1816.00 Z" stroke-width="1" id="279-19-08" stroke="black"/>
  <path fill="none" d="M 260.00 1833.00 L 240.00 1854.00 L 229.28 1864.72 L 231.00 1865.00 L 231.00 1894.00 L 223.00 1909.00 L 232.00 1924.00 L 232.00 1928.00 L 240.00 1936.00 L 260.00 1952.00 L 280.00 1952.00 L 300.00 1938.00 L 320.00 1930.00 L 340.00 1930.00 L 360.00 1914.00 L 380.00 1914.00 L 400.00 1913.00 L 440.00 1913.00 L 460.00 1912.00 L 500.00 1912.00 L 520.00 1911.00 L 560.00 1911.00 L 580.00 1910.00 L 620.00 1910.00 L 640.00 1909.00 L 680.00 1909.00 L 697.00 1908.15 L 700.00 1846.00 L 660.00 1846.00 L 640.00 1827.00 L 600.00 1827.00 L 580.00 1828.00 L 540.00 1828.00 L 520.00 1829.00 L 500.00 1829.00 L 480.00 1830.00 L 440.00 1830.00 L 420.00 1831.00 L 380.00 1831.00 L 360.00 1832.00 L 320.00 1832.00 L 300.00 1833.00 Z" stroke-width="1" id="279-20-01" stroke="black"/>
  <path fill="none" d="M 700.00 1908.00 L 740.00 1908.00 L 760.00 1907.00 L 800.00 1907.00 L 820.00 1906.00 L 860.00 1906.00 L 880.00 1925.00 L 900.00 1924.00 L 920.00 1924.00 L 929.00 1915.00 L 938.00 1821.10 L 920.00 1822.00 L 900.00 1822.00 L 880.00 1823.00 L 860.00 1843.00 L 840.00 1863.00 L 820.00 1844.00 L 800.00 1824.00 L 780.00 1824.00 L 760.00 1825.00 L 720.00 1825.00 L 700.00 1846.00 L 697.00 1908.15 Z" stroke-width="1" id="279-20-02" stroke="black"/>
  <path fill="none" d="M 940.00 1904.00 L 980.00 1904.00 L 1000.00 1903.00 L 1040.00 1903.00 L 1060.00 1902.00 L 1077.00 1902.00 L 1069.00 1819.00 L 1060.00 1819.00 L 1040.00 1820.00 L 1000.00 1820.00 L 980.00 1821.00 L 940.00 1821.00 L 938.00 1821.10 L 929.00 1915.00 Z" stroke-width="1" id="279-20-03" stroke="black"/>
  <path fill="none" d="M 1100.00 1902.00 L 1120.00 1901.00 L 1180.00 1901.00 L 1200.00 1900.00 L 1240.00 1900.00 L 1260.00 1899.00 L 1300.00 1899.00 L 1320.00 1898.00 L 1360.00 1898.00 L 1380.00 1897.00 L 1420.00 1897.00 L 1440.00 1916.00 L 1460.00 1916.00 L 1480.00 1936.00 L 1500.00 1895.00 L 1520.00 1831.00 L 1500.00 1812.00 L 1460.00 1812.00 L 1440.00 1813.00 L 1400.00 1813.00 L 1380.00 1814.00 L 1360.00 1814.00 L 1340.00 1815.00 L 1300.00 1815.00 L 1280.00 1836.00 L 1260.00 1856.00 L 1240.00 1836.00 L 1220.00 1857.00 L 1180.00 1857.00 L 1160.00 1818.00 L 1120.00 1818.00 L 1100.00 1819.00 L 1069.00 1819.00 L 1077.00 1902.00 Z" stroke-width="1" id="279-20-04" stroke="black"/>
  <path fill="none" d="M 1540.00 1895.00 L 1560.00 1894.00 L 1580.00 1914.00 L 1585.00 1919.00 L 1649.00 1838.00 L 1640.00 1829.00 L 1620.00 1810.00 L 1580.00 1810.00 L 1560.00 1811.00 L 1540.00 1831.00 L 1520.00 1831.00 L 1500.00 1895.00 Z" stroke-width="1" id="279-20-05" stroke="black"/>
  <path fill="none" d="M 1600.00 1934.00 L 1620.00 1913.00 L 1640.00 1913.00 L 1660.00 1893.00 L 1680.00 1892.00 L 1720.00 1892.00 L 1740.00 1891.00 L 1780.00 1891.00 L 1800.00 1890.00 L 1831.00 1806.00 L 1820.00 1806.00 L 1800.00 1826.00 L 1780.00 1847.00 L 1760.00 1847.00 L 1740.00 1808.00 L 1720.00 1828.00 L 1700.00 1828.00 L 1680.00 1829.00 L 1660.00 1849.00 L 1649.00 1838.00 L 1585.00 1919.00 Z" stroke-width="1" id="279-20-06" stroke="black"/>
  <path fill="none" d="M 1820.00 1910.00 L 1840.00 1910.00 L 1860.00 1909.00 L 1880.00 1889.00 L 1900.00 1889.00 L 1904.17 1888.79 L 1908.00 1874.00 L 1911.00 1835.00 L 1924.98 1804.00 L 1920.00 1804.00 L 1900.00 1805.00 L 1860.00 1805.00 L 1840.00 1806.00 L 1831.00 1806.00 L 1800.00 1890.00 Z" stroke-width="1" id="279-20-07" stroke="black"/>
  <path fill="none" d="M 232.00 1928.00 L 232.00 2001.00 L 231.94 2005.00 L 240.00 2005.00 L 260.00 2004.00 L 300.00 2004.00 L 320.00 2003.00 L 360.00 2003.00 L 380.00 2002.00 L 420.00 2002.00 L 440.00 2001.00 L 480.00 2001.00 L 500.00 2000.00 L 520.00 2030.00 L 540.00 2026.00 L 560.00 1999.00 L 574.00 1999.00 L 583.00 1910.00 L 580.00 1910.00 L 560.00 1911.00 L 520.00 1911.00 L 500.00 1912.00 L 460.00 1912.00 L 440.00 1913.00 L 400.00 1913.00 L 380.00 1914.00 L 360.00 1914.00 L 340.00 1930.00 L 320.00 1930.00 L 300.00 1938.00 L 280.00 1952.00 L 260.00 1952.00 L 240.00 1936.00 Z" stroke-width="1" id="279-21-01" stroke="black"/>
  <path fill="none" d="M 600.00 1999.00 L 620.00 1998.00 L 660.00 1998.00 L 680.00 1997.00 L 720.00 1997.00 L 740.00 1996.00 L 780.00 1996.00 L 800.00 1995.00 L 814.00 1995.00 L 832.00 1906.00 L 820.00 1906.00 L 800.00 1907.00 L 760.00 1907.00 L 740.00 1908.00 L 700.00 1908.00 L 680.00 1909.00 L 640.00 1909.00 L 620.00 1910.00 L 583.00 1910.00 L 574.00 1999.00 Z" stroke-width="1" id="279-21-02" stroke="black"/>
  <path fill="none" d="M 840.00 1995.00 L 860.00 1994.00 L 900.00 1994.00 L 920.00 1993.00 L 960.00 1993.00 L 980.00 1992.00 L 1000.00 2012.00 L 1020.00 2012.00 L 1039.00 1992.05 L 1038.00 1903.00 L 1000.00 1903.00 L 980.00 1904.00 L 940.00 1904.00 L 920.00 1924.00 L 900.00 1924.00 L 880.00 1925.00 L 860.00 1906.00 L 832.00 1906.00 L 814.00 1995.00 Z" stroke-width="1" id="279-21-03" stroke="black"/>
  <path fill="none" d="M 1040.00 1991.00 L 1080.00 1991.00 L 1100.00 1990.00 L 1140.00 1990.00 L 1160.00 1989.00 L 1200.00 1989.00 L 1220.00 1988.00 L 1260.00 1988.00 L 1280.00 1987.00 L 1320.00 1987.00 L 1302.00 1898.90 L 1300.00 1899.00 L 1260.00 1899.00 L 1240.00 1900.00 L 1200.00 1900.00 L 1180.00 1901.00 L 1120.00 1901.00 L 1100.00 1902.00 L 1060.00 1902.00 L 1040.00 1903.00 L 1038.00 1903.00 L 1039.00 1992.05 Z" stroke-width="1" id="279-21-04" stroke="black"/>
  <path fill="none" d="M 1340.00 1986.00 L 1380.00 1986.00 L 1400.00 1985.00 L 1440.00 1985.00 L 1460.00 1984.00 L 1480.00 1984.00 L 1500.00 2004.00 L 1520.00 2003.00 L 1540.00 1983.00 L 1553.00 1894.35 L 1540.00 1895.00 L 1500.00 1895.00 L 1480.00 1936.00 L 1460.00 1916.00 L 1440.00 1916.00 L 1420.00 1897.00 L 1380.00 1897.00 L 1360.00 1898.00 L 1320.00 1898.00 L 1302.00 1898.90 L 1320.00 1987.00 Z" stroke-width="1" id="279-21-05" stroke="black"/>
  <path fill="none" d="M 1560.00 1983.00 L 1580.00 1982.00 L 1620.00 1982.00 L 1640.00 1981.00 L 1641.00 1981.00 L 1643.00 1910.00 L 1640.00 1913.00 L 1620.00 1913.00 L 1600.00 1934.00 L 1580.00 1914.00 L 1560.00 1894.00 L 1553.00 1894.35 L 1540.00 1983.00 Z" stroke-width="1" id="279-21-06" stroke="black"/>
  <path fill="none" d="M 1680.00 1981.00 L 1700.00 1980.00 L 1740.00 1980.00 L 1760.00 1979.00 L 1780.00 1979.00 L 1800.00 2019.00 L 1820.00 2018.00 L 1840.00 2018.00 L 1860.00 1998.00 L 1880.00 1977.00 L 1905.31 1977.00 L 1893.00 1932.00 L 1904.17 1888.79 L 1900.00 1889.00 L 1880.00 1889.00 L 1860.00 1909.00 L 1840.00 1910.00 L 1820.00 1910.00 L 1800.00 1890.00 L 1780.00 1891.00 L 1740.00 1891.00 L 1720.00 1892.00 L 1680.00 1892.00 L 1660.00 1893.00 L 1643.00 1910.00 L 1641.00 1981.00 Z" stroke-width="1" id="279-21-07" stroke="black"/>
  <path fill="none" d="M 231.94 2005.00 L 231.00 2067.00 L 215.00 2104.00 L 234.00 2114.00 L 234.07 2116.30 L 240.00 2116.00 L 260.00 2096.00 L 280.00 2095.00 L 320.00 2095.00 L 340.00 2094.00 L 360.00 2094.00 L 380.00 2093.00 L 385.00 2093.00 L 415.00 2002.00 L 380.00 2002.00 L 360.00 2003.00 L 320.00 2003.00 L 300.00 2004.00 L 260.00 2004.00 L 240.00 2005.00 Z" stroke-width="1" id="279-22-01" stroke="black"/>
  <path fill="none" d="M 400.00 2093.00 L 420.00 2113.00 L 440.00 2112.00 L 460.00 2092.00 L 474.00 2091.30 L 520.00 2030.00 L 500.00 2000.00 L 480.00 2001.00 L 440.00 2001.00 L 420.00 2002.00 L 415.00 2002.00 L 385.00 2093.00 Z" stroke-width="1" id="279-22-02" stroke="black"/>
  <path fill="none" d="M 480.00 2091.00 L 520.00 2091.00 L 540.00 2090.00 L 560.00 2090.00 L 580.00 2089.00 L 620.00 2089.00 L 640.00 2088.00 L 660.00 2088.00 L 680.00 2087.00 L 700.00 2087.00 L 720.00 2086.00 L 740.00 2126.00 L 760.00 2126.00 L 780.00 2125.00 L 800.00 2105.00 L 820.00 2104.00 L 860.00 2104.00 L 880.00 2083.00 L 863.00 1994.00 L 860.00 1994.00 L 840.00 1995.00 L 800.00 1995.00 L 780.00 1996.00 L 740.00 1996.00 L 720.00 1997.00 L 680.00 1997.00 L 660.00 1998.00 L 620.00 1998.00 L 600.00 1999.00 L 560.00 1999.00 L 540.00 2026.00 L 520.00 2030.00 L 474.00 2091.30 Z" stroke-width="1" id="279-22-03" stroke="black"/>
  <path fill="none" d="M 900.00 2083.00 L 920.00 2082.00 L 960.00 2082.00 L 980.00 2081.00 L 1000.00 2081.00 L 1020.00 2080.00 L 1040.00 2080.00 L 1052.00 1991.00 L 1040.00 1991.00 L 1020.00 2012.00 L 1000.00 2012.00 L 980.00 1992.00 L 960.00 1993.00 L 920.00 1993.00 L 900.00 1994.00 L 863.00 1994.00 L 880.00 2083.00 Z" stroke-width="1" id="279-22-04" stroke="black"/>
  <path fill="none" d="M 1060.00 2080.00 L 1080.00 2079.00 L 1100.00 2079.00 L 1120.00 2078.00 L 1160.00 2078.00 L 1180.00 2077.00 L 1182.00 2077.00 L 1224.00 1988.00 L 1220.00 1988.00 L 1200.00 1989.00 L 1160.00 1989.00 L 1140.00 1990.00 L 1100.00 1990.00 L 1080.00 1991.00 L 1052.00 1991.00 L 1040.00 2080.00 Z" stroke-width="1" id="279-22-05" stroke="black"/>
  <path fill="none" d="M 1200.00 2077.00 L 1220.00 2076.00 L 1260.00 2076.00 L 1280.00 2075.00 L 1300.00 2075.00 L 1320.00 2074.00 L 1340.00 2074.00 L 1360.00 2073.00 L 1400.00 2073.00 L 1420.00 2072.00 L 1466.00 1984.00 L 1460.00 1984.00 L 1440.00 1985.00 L 1400.00 1985.00 L 1380.00 1986.00 L 1340.00 1986.00 L 1320.00 1987.00 L 1280.00 1987.00 L 1260.00 1988.00 L 1224.00 1988.00 L 1182.00 2077.00 Z" stroke-width="1" id="279-22-06" stroke="black"/>
  <path fill="none" d="M 1440.00 2112.00 L 1460.00 2091.00 L 1480.00 2091.00 L 1500.00 2071.00 L 1520.00 2070.00 L 1540.00 2070.00 L 1560.00 2069.00 L 1600.00 2069.00 L 1620.00 2068.00 L 1640.00 2068.00 L 1660.00 2067.00 L 1700.00 2067.00 L 1720.00 2106.00 L 1740.00 2086.00 L 1760.00 2085.00 L 1780.00 2065.00 L 1787.00 2065.00 L 1784.00 1987.00 L 1780.00 1979.00 L 1760.00 1979.00 L 1740.00 1980.00 L 1700.00 1980.00 L 1680.00 1981.00 L 1640.00 1981.00 L 1620.00 1982.00 L 1580.00 1982.00 L 1560.00 1983.00 L 1540.00 1983.00 L 1520.00 2003.00 L 1500.00 2004.00 L 1480.00 1984.00 L 1466.00 1984.00 L 1420.00 2072.00 Z" stroke-width="1" id="279-22-07" stroke="black"/>
  <path fill="none" d="M 1800.00 2065.00 L 1820.00 2084.00 L 1840.00 2064.00 L 1860.00 2063.00 L 1880.33 2063.00 L 1922.00 2038.00 L 1905.31 1977.00 L 1880.00 1977.00 L 1860.00 1998.00 L 1840.00 2018.00 L 1820.00 2018.00 L 1800.00 2019.00 L 1784.00 1987.00 L 1787.00 2065.00 Z" stroke-width="1" id="279-22-08" stroke="black"/>
  <path fill="none" d="M 234.07 2116.30 L 235.00 2149.00 L 222.00 2167.00 L 233.12 2175.34 L 240.00 2175.00 L 260.00 2175.00 L 280.00 2174.00 L 320.00 2174.00 L 340.00 2173.00 L 360.00 2173.00 L 380.00 2172.00 L 420.00 2172.00 L 430.00 2171.50 L 427.00 2112.65 L 420.00 2113.00 L 400.00 2093.00 L 380.00 2093.00 L 360.00 2094.00 L 340.00 2094.00 L 320.00 2095.00 L 280.00 2095.00 L 260.00 2096.00 L 240.00 2116.00 Z" stroke-width="1" id="279-23-01" stroke="black"/>
  <path fill="none" d="M 440.00 2171.00 L 455.00 2222.75 L 568.00 2089.60 L 560.00 2090.00 L 540.00 2090.00 L 520.00 2091.00 L 480.00 2091.00 L 460.00 2092.00 L 440.00 2112.00 L 427.00 2112.65 L 430.00 2171.50 Z" stroke-width="1" id="279-23-02" stroke="black"/>
  <path fill="none" d="M 460.00 2240.00 L 480.00 2244.00 L 500.00 2232.00 L 520.00 2218.00 L 540.00 2196.00 L 560.00 2180.00 L 580.00 2168.00 L 620.00 2168.00 L 640.00 2167.00 L 660.00 2167.00 L 680.00 2166.00 L 693.00 2166.00 L 725.00 2096.00 L 720.00 2086.00 L 700.00 2087.00 L 680.00 2087.00 L 660.00 2088.00 L 640.00 2088.00 L 620.00 2089.00 L 580.00 2089.00 L 568.00 2089.60 L 455.00 2222.75 Z" stroke-width="1" id="279-23-03" stroke="black"/>
  <path fill="none" d="M 720.00 2166.00 L 740.00 2165.00 L 760.00 2165.00 L 780.00 2164.00 L 820.00 2164.00 L 840.00 2163.00 L 860.00 2163.00 L 871.00 2162.45 L 864.00 2099.80 L 860.00 2104.00 L 820.00 2104.00 L 800.00 2105.00 L 780.00 2125.00 L 760.00 2126.00 L 740.00 2126.00 L 725.00 2096.00 L 693.00 2166.00 Z" stroke-width="1" id="279-23-04" stroke="black"/>
  <path fill="none" d="M 880.00 2162.00 L 920.00 2162.00 L 940.00 2161.00 L 960.00 2161.00 L 980.00 2160.00 L 1000.00 2160.00 L 1020.00 2159.00 L 1026.00 2159.00 L 1074.00 2079.30 L 1060.00 2080.00 L 1020.00 2080.00 L 1000.00 2081.00 L 980.00 2081.00 L 960.00 2082.00 L 920.00 2082.00 L 900.00 2083.00 L 880.00 2083.00 L 864.00 2099.80 L 871.00 2162.45 Z" stroke-width="1" id="279-23-05" stroke="black"/>
  <path fill="none" d="M 1060.00 2159.00 L 1080.00 2158.00 L 1100.00 2158.00 L 1120.00 2157.00 L 1134.00 2157.00 L 1146.00 2078.00 L 1120.00 2078.00 L 1100.00 2079.00 L 1080.00 2079.00 L 1074.00 2079.30 L 1026.00 2159.00 Z" stroke-width="1" id="279-23-06" stroke="black"/>
  <path fill="none" d="M 1160.00 2157.00 L 1180.00 2156.00 L 1200.00 2156.00 L 1220.00 2155.00 L 1260.00 2155.00 L 1280.00 2154.00 L 1300.00 2154.00 L 1320.00 2153.00 L 1360.00 2153.00 L 1380.00 2152.00 L 1400.00 2152.00 L 1406.00 2151.70 L 1411.00 2072.45 L 1400.00 2073.00 L 1360.00 2073.00 L 1340.00 2074.00 L 1320.00 2074.00 L 1300.00 2075.00 L 1280.00 2075.00 L 1260.00 2076.00 L 1220.00 2076.00 L 1200.00 2077.00 L 1180.00 2077.00 L 1160.00 2078.00 L 1146.00 2078.00 L 1134.00 2157.00 Z" stroke-width="1" id="279-23-07" stroke="black"/>
  <path fill="none" d="M 1420.00 2151.00 L 1460.00 2151.00 L 1480.00 2150.00 L 1499.00 2150.00 L 1544.00 2069.80 L 1540.00 2070.00 L 1520.00 2070.00 L 1500.00 2071.00 L 1480.00 2091.00 L 1460.00 2091.00 L 1440.00 2112.00 L 1420.00 2072.00 L 1411.00 2072.45 L 1406.00 2151.70 Z" stroke-width="1" id="279-23-08" stroke="black"/>
  <path fill="none" d="M 1500.00 2150.00 L 1520.00 2149.00 L 1560.00 2149.00 L 1580.00 2148.00 L 1600.00 2148.00 L 1620.00 2147.00 L 1634.00 2147.00 L 1659.00 2067.05 L 1640.00 2068.00 L 1620.00 2068.00 L 1600.00 2069.00 L 1560.00 2069.00 L 1544.00 2069.80 L 1499.00 2150.00 Z" stroke-width="1" id="279-23-09" stroke="black"/>
  <path fill="none" d="M 1660.00 2147.00 L 1680.00 2146.00 L 1700.00 2146.00 L 1720.00 2145.00 L 1760.00 2145.00 L 1780.00 2144.00 L 1800.00 2144.00 L 1820.00 2143.00 L 1840.00 2143.00 L 1860.00 2142.00 L 1857.00 2077.00 L 1880.33 2063.00 L 1860.00 2063.00 L 1840.00 2064.00 L 1820.00 2084.00 L 1800.00 2065.00 L 1780.00 2065.00 L 1760.00 2085.00 L 1740.00 2086.00 L 1720.00 2106.00 L 1700.00 2067.00 L 1660.00 2067.00 L 1659.00 2067.05 L 1634.00 2147.00 Z" stroke-width="1" id="279-23-10" stroke="black"/>
  <path fill="none" d="M 233.12 2175.34 L 238.00 2179.00 L 236.00 2226.00 L 222.00 2249.00 L 241.00 2258.00 L 240.42 2263.00 L 280.00 2263.00 L 300.00 2262.00 L 320.00 2282.00 L 340.00 2282.00 L 360.00 2261.00 L 380.00 2261.00 L 400.00 2260.00 L 420.00 2260.00 L 440.00 2280.00 L 460.00 2259.00 L 463.00 2262.00 L 480.00 2244.00 L 460.00 2240.00 L 440.00 2171.00 L 420.00 2172.00 L 380.00 2172.00 L 360.00 2173.00 L 340.00 2173.00 L 320.00 2174.00 L 280.00 2174.00 L 260.00 2175.00 L 240.00 2175.00 Z" stroke-width="1" id="279-24-01" stroke="black"/>
  <path fill="none" d="M 480.00 2279.00 L 500.00 2279.00 L 520.00 2258.00 L 540.00 2258.00 L 560.00 2257.00 L 600.00 2257.00 L 615.00 2256.25 L 625.00 2167.75 L 620.00 2168.00 L 580.00 2168.00 L 560.00 2180.00 L 540.00 2196.00 L 520.00 2218.00 L 500.00 2232.00 L 480.00 2244.00 L 463.00 2262.00 Z" stroke-width="1" id="279-24-02" stroke="black"/>
  <path fill="none" d="M 620.00 2256.00 L 660.00 2256.00 L 680.00 2255.00 L 700.00 2255.00 L 720.00 2254.00 L 758.00 2254.00 L 790.00 2164.00 L 780.00 2164.00 L 760.00 2165.00 L 740.00 2165.00 L 720.00 2166.00 L 680.00 2166.00 L 660.00 2167.00 L 640.00 2167.00 L 625.00 2167.75 L 615.00 2256.25 Z" stroke-width="1" id="279-24-03" stroke="black"/>
  <path fill="none" d="M 760.00 2254.00 L 780.00 2253.00 L 820.00 2253.00 L 840.00 2252.00 L 860.00 2252.00 L 880.00 2251.00 L 920.00 2251.00 L 930.00 2161.50 L 920.00 2162.00 L 880.00 2162.00 L 860.00 2163.00 L 840.00 2163.00 L 820.00 2164.00 L 790.00 2164.00 L 758.00 2254.00 Z" stroke-width="1" id="279-24-04" stroke="black"/>
  <path fill="none" d="M 940.00 2270.00 L 960.00 2270.00 L 980.00 2250.00 L 1000.00 2249.00 L 1001.00 2249.00 L 1052.00 2159.00 L 1020.00 2159.00 L 1000.00 2160.00 L 980.00 2160.00 L 960.00 2161.00 L 940.00 2161.00 L 930.00 2161.50 L 920.00 2251.00 Z" stroke-width="1" id="279-24-05" stroke="black"/>
  <path fill="none" d="M 1020.00 2249.00 L 1040.00 2248.00 L 1080.00 2248.00 L 1100.00 2247.00 L 1134.00 2247.00 L 1161.00 2156.95 L 1160.00 2157.00 L 1120.00 2157.00 L 1100.00 2158.00 L 1080.00 2158.00 L 1060.00 2159.00 L 1052.00 2159.00 L 1001.00 2249.00 Z" stroke-width="1" id="279-24-06" stroke="black"/>
  <path fill="none" d="M 1140.00 2247.00 L 1160.00 2246.00 L 1180.00 2246.00 L 1200.00 2245.00 L 1240.00 2245.00 L 1260.00 2244.00 L 1300.00 2244.00 L 1318.00 2243.10 L 1340.00 2153.00 L 1320.00 2153.00 L 1300.00 2154.00 L 1280.00 2154.00 L 1260.00 2155.00 L 1220.00 2155.00 L 1200.00 2156.00 L 1180.00 2156.00 L 1161.00 2156.95 L 1134.00 2247.00 Z" stroke-width="1" id="279-24-07" stroke="black"/>
  <path fill="none" d="M 1320.00 2243.00 L 1340.00 2243.00 L 1360.00 2242.00 L 1400.00 2242.00 L 1420.00 2241.00 L 1440.00 2241.00 L 1460.00 2260.00 L 1480.00 2260.00 L 1500.00 2240.00 L 1520.00 2239.00 L 1560.00 2239.00 L 1580.00 2258.00 L 1600.00 2258.00 L 1620.00 2257.00 L 1660.00 2257.00 L 1672.00 2244.40 L 1639.00 2147.00 L 1620.00 2147.00 L 1600.00 2148.00 L 1580.00 2148.00 L 1560.00 2149.00 L 1520.00 2149.00 L 1500.00 2150.00 L 1480.00 2150.00 L 1460.00 2151.00 L 1420.00 2151.00 L 1400.00 2152.00 L 1380.00 2152.00 L 1360.00 2153.00 L 1340.00 2153.00 L 1318.00 2243.10 Z" stroke-width="1" id="279-24-08" stroke="black"/>
  <path fill="none" d="M 1680.00 2236.00 L 1698.00 2236.00 L 1700.00 2146.00 L 1680.00 2146.00 L 1660.00 2147.00 L 1639.00 2147.00 L 1672.00 2244.40 Z" stroke-width="1" id="279-24-09" stroke="black"/>
  <path fill="none" d="M 1720.00 2236.00 L 1740.00 2235.00 L 1760.00 2235.00 L 1780.00 2234.00 L 1820.00 2234.00 L 1840.00 2233.00 L 1880.00 2233.00 L 1900.00 2232.00 L 1920.00 2232.00 L 1934.13 2231.29 L 1944.00 2208.00 L 1860.00 2142.00 L 1840.00 2143.00 L 1820.00 2143.00 L 1800.00 2144.00 L 1780.00 2144.00 L 1760.00 2145.00 L 1720.00 2145.00 L 1700.00 2146.00 L 1698.00 2236.00 Z" stroke-width="1" id="279-24-10" stroke="black"/>
  <path fill="none" d="M 240.42 2263.00 L 234.00 2318.00 L 222.00 2325.00 L 234.00 2333.00 L 234.29 2344.00 L 240.00 2344.00 L 260.00 2343.00 L 300.00 2343.00 L 320.00 2342.00 L 340.00 2342.00 L 360.00 2361.00 L 380.00 2381.00 L 400.00 2381.00 L 420.00 2360.00 L 440.00 2340.00 L 460.00 2340.00 L 480.00 2339.00 L 520.00 2339.00 L 540.00 2358.00 L 580.00 2358.00 L 600.00 2337.00 L 576.00 2257.00 L 560.00 2257.00 L 540.00 2258.00 L 520.00 2258.00 L 500.00 2279.00 L 480.00 2279.00 L 460.00 2259.00 L 440.00 2280.00 L 420.00 2260.00 L 400.00 2260.00 L 380.00 2261.00 L 360.00 2261.00 L 340.00 2282.00 L 320.00 2282.00 L 300.00 2262.00 L 280.00 2263.00 Z" stroke-width="1" id="279-25-01" stroke="black"/>
  <path fill="none" d="M 620.00 2337.00 L 640.00 2336.00 L 680.00 2336.00 L 700.00 2335.00 L 720.00 2335.00 L 740.00 2355.00 L 760.00 2374.00 L 800.00 2374.00 L 820.00 2353.00 L 840.00 2333.00 L 857.00 2333.00 L 875.00 2251.25 L 860.00 2252.00 L 840.00 2252.00 L 820.00 2253.00 L 780.00 2253.00 L 760.00 2254.00 L 720.00 2254.00 L 700.00 2255.00 L 680.00 2255.00 L 660.00 2256.00 L 620.00 2256.00 L 600.00 2257.00 L 576.00 2257.00 L 600.00 2337.00 Z" stroke-width="1" id="279-25-02" stroke="black"/>
  <path fill="none" d="M 860.00 2333.00 L 880.00 2332.00 L 900.00 2332.00 L 920.00 2331.00 L 940.00 2351.00 L 960.00 2371.00 L 980.00 2370.00 L 1000.00 2370.00 L 1020.00 2350.00 L 1040.00 2329.00 L 1080.00 2329.00 L 1100.00 2328.00 L 1120.00 2328.00 L 1140.00 2327.00 L 1180.00 2327.00 L 1200.00 2354.00 L 1220.00 2354.00 L 1240.00 2326.00 L 1238.00 2245.00 L 1200.00 2245.00 L 1180.00 2246.00 L 1160.00 2246.00 L 1140.00 2247.00 L 1100.00 2247.00 L 1080.00 2248.00 L 1040.00 2248.00 L 1020.00 2249.00 L 1000.00 2249.00 L 980.00 2250.00 L 960.00 2270.00 L 940.00 2270.00 L 920.00 2251.00 L 880.00 2251.00 L 875.00 2251.25 L 857.00 2333.00 Z" stroke-width="1" id="279-25-03" stroke="black"/>
  <path fill="none" d="M 1260.00 2325.00 L 1300.00 2325.00 L 1320.00 2324.00 L 1360.00 2324.00 L 1380.00 2323.00 L 1387.00 2242.00 L 1360.00 2242.00 L 1340.00 2243.00 L 1320.00 2243.00 L 1300.00 2244.00 L 1260.00 2244.00 L 1240.00 2245.00 L 1238.00 2245.00 L 1240.00 2326.00 Z" stroke-width="1" id="279-25-04" stroke="black"/>
  <path fill="none" d="M 1400.00 2323.00 L 1420.00 2322.00 L 1460.00 2322.00 L 1480.00 2321.00 L 1520.00 2321.00 L 1534.00 2320.30 L 1551.00 2239.00 L 1520.00 2239.00 L 1500.00 2240.00 L 1480.00 2260.00 L 1460.00 2260.00 L 1440.00 2241.00 L 1420.00 2241.00 L 1400.00 2242.00 L 1387.00 2242.00 L 1380.00 2323.00 Z" stroke-width="1" id="279-25-05" stroke="black"/>
  <path fill="none" d="M 1540.00 2320.00 L 1580.00 2320.00 L 1600.00 2319.00 L 1640.00 2319.00 L 1660.00 2318.00 L 1680.00 2318.00 L 1700.00 2317.00 L 1740.00 2317.00 L 1760.00 2316.00 L 1774.40 2316.00 L 1905.00 2300.00 L 1934.13 2231.29 L 1920.00 2232.00 L 1900.00 2232.00 L 1880.00 2233.00 L 1840.00 2233.00 L 1820.00 2234.00 L 1780.00 2234.00 L 1760.00 2235.00 L 1740.00 2235.00 L 1720.00 2236.00 L 1680.00 2236.00 L 1660.00 2257.00 L 1620.00 2257.00 L 1600.00 2258.00 L 1580.00 2258.00 L 1560.00 2239.00 L 1551.00 2239.00 L 1534.00 2320.30 Z" stroke-width="1" id="279-25-06" stroke="black"/>
  <path fill="none" d="M 234.29 2344.00 L 236.00 2409.00 L 225.00 2422.00 L 236.00 2430.00 L 422.00 2444.00 L 437.23 2444.14 L 440.00 2444.00 L 450.00 2444.00 L 462.00 2339.90 L 460.00 2340.00 L 440.00 2340.00 L 420.00 2360.00 L 400.00 2381.00 L 380.00 2381.00 L 360.00 2361.00 L 340.00 2342.00 L 320.00 2342.00 L 300.00 2343.00 L 260.00 2343.00 L 240.00 2344.00 Z" stroke-width="1" id="279-26-01" stroke="black"/>
  <path fill="none" d="M 480.00 2444.00 L 500.00 2443.00 L 520.00 2443.00 L 540.00 2442.00 L 580.00 2442.00 L 599.00 2441.05 L 640.00 2336.00 L 620.00 2337.00 L 600.00 2337.00 L 580.00 2358.00 L 540.00 2358.00 L 520.00 2339.00 L 480.00 2339.00 L 462.00 2339.90 L 450.00 2444.00 Z" stroke-width="1" id="279-26-02" stroke="black"/>
  <path fill="none" d="M 600.00 2441.00 L 620.00 2441.00 L 625.10 2445.85 L 642.00 2446.00 L 674.65 2445.35 L 680.00 2440.00 L 700.00 2439.00 L 709.00 2439.00 L 747.00 2361.65 L 740.00 2355.00 L 720.00 2335.00 L 700.00 2335.00 L 680.00 2336.00 L 640.00 2336.00 L 599.00 2441.05 Z" stroke-width="1" id="279-26-03" stroke="black"/>
  <path fill="none" d="M 720.00 2439.00 L 740.00 2438.00 L 780.00 2438.00 L 800.00 2437.00 L 840.00 2437.00 L 860.00 2436.00 L 880.00 2436.00 L 900.00 2435.00 L 914.00 2435.00 L 944.00 2355.00 L 940.00 2351.00 L 920.00 2331.00 L 900.00 2332.00 L 880.00 2332.00 L 860.00 2333.00 L 840.00 2333.00 L 820.00 2353.00 L 800.00 2374.00 L 760.00 2374.00 L 747.00 2361.65 L 709.00 2439.00 Z" stroke-width="1" id="279-26-04" stroke="black"/>
  <path fill="none" d="M 940.00 2435.00 L 960.00 2434.00 L 980.00 2434.00 L 1000.00 2433.00 L 1040.00 2433.00 L 1060.00 2432.00 L 1080.00 2432.00 L 1100.00 2431.00 L 1140.00 2431.00 L 1151.00 2430.45 L 1160.00 2327.00 L 1140.00 2327.00 L 1120.00 2328.00 L 1100.00 2328.00 L 1080.00 2329.00 L 1040.00 2329.00 L 1020.00 2350.00 L 1000.00 2370.00 L 980.00 2370.00 L 960.00 2371.00 L 944.00 2355.00 L 914.00 2435.00 Z" stroke-width="1" id="279-26-05" stroke="black"/>
  <path fill="none" d="M 1160.00 2430.00 L 1180.00 2430.00 L 1200.00 2429.00 L 1240.00 2429.00 L 1260.00 2428.00 L 1280.00 2428.00 L 1300.00 2427.00 L 1310.00 2427.00 L 1316.00 2324.20 L 1300.00 2325.00 L 1260.00 2325.00 L 1240.00 2326.00 L 1220.00 2354.00 L 1200.00 2354.00 L 1180.00 2327.00 L 1160.00 2327.00 L 1151.00 2430.45 Z" stroke-width="1" id="279-26-06" stroke="black"/>
  <path fill="none" d="M 1340.00 2427.00 L 1360.00 2426.00 L 1380.00 2426.00 L 1400.00 2425.00 L 1412.00 2425.00 L 1416.00 2322.20 L 1400.00 2323.00 L 1380.00 2323.00 L 1360.00 2324.00 L 1320.00 2324.00 L 1316.00 2324.20 L 1310.00 2427.00 Z" stroke-width="1" id="279-26-07" stroke="black"/>
  <path fill="none" d="M 1440.00 2425.00 L 1460.00 2424.00 L 1480.00 2424.00 L 1500.00 2423.00 L 1520.00 2423.00 L 1540.00 2403.00 L 1560.00 2402.00 L 1580.00 2402.00 L 1600.00 2422.00 L 1620.00 2401.00 L 1640.00 2421.00 L 1660.00 2420.00 L 1680.00 2400.00 L 1700.00 2400.00 L 1720.00 2399.00 L 1727.24 2399.00 L 1727.00 2398.00 L 1628.00 2397.00 L 1554.00 2343.00 L 1774.40 2316.00 L 1760.00 2316.00 L 1740.00 2317.00 L 1700.00 2317.00 L 1680.00 2318.00 L 1660.00 2318.00 L 1640.00 2319.00 L 1600.00 2319.00 L 1580.00 2320.00 L 1540.00 2320.00 L 1520.00 2321.00 L 1480.00 2321.00 L 1460.00 2322.00 L 1420.00 2322.00 L 1416.00 2322.20 L 1412.00 2425.00 Z" stroke-width="1" id="279-26-08" stroke="black"/>
  <path fill="none" d="M 1498.00 2467.00 L 1499.94 2501.00 L 1500.00 2501.00 L 1520.00 2500.00 L 1580.00 2500.00 L 1600.00 2502.00 L 1620.00 2500.00 L 1640.00 2498.00 L 1652.33 2498.00 L 1664.00 2458.00 L 1736.00 2435.00 L 1727.24 2399.00 L 1720.00 2399.00 L 1700.00 2400.00 L 1680.00 2400.00 L 1660.00 2420.00 L 1640.00 2421.00 L 1620.00 2401.00 L 1600.00 2422.00 L 1580.00 2402.00 L 1560.00 2402.00 L 1540.00 2403.00 L 1523.00 2420.00 L 1505.00 2441.33 Z" stroke-width="1" id="279-27-01" stroke="black"/>
  <path fill="none" d="M 270.00 2540.00 L 239.00 2572.00 L 243.18 2619.82 L 260.00 2603.00 L 280.00 2603.00 L 300.00 2602.00 L 320.00 2602.00 L 340.00 2601.00 L 380.00 2601.00 L 388.00 2600.60 L 397.00 2534.60 Z" stroke-width="1" id="279-28-01" stroke="black"/>
  <path fill="none" d="M 440.00 2599.00 L 480.00 2599.00 L 500.00 2598.00 L 540.00 2598.00 L 560.00 2597.00 L 575.00 2597.00 L 599.00 2528.16 L 552.00 2528.00 L 435.00 2532.98 L 425.00 2599.75 Z" stroke-width="1" id="279-28-02" stroke="black"/>
  <path fill="none" d="M 580.00 2597.00 L 600.00 2596.00 L 640.00 2596.00 L 660.00 2595.00 L 680.00 2640.00 L 700.00 2634.00 L 720.00 2620.00 L 740.00 2614.00 L 760.00 2593.00 L 780.00 2593.00 L 800.00 2592.00 L 840.00 2592.00 L 860.00 2591.00 L 880.00 2600.00 L 900.00 2598.00 L 920.00 2598.00 L 940.00 2594.00 L 950.00 2591.50 L 967.00 2523.07 L 844.00 2529.00 L 599.00 2528.16 L 575.00 2597.00 Z" stroke-width="1" id="279-28-03" stroke="black"/>
  <path fill="none" d="M 960.00 2589.00 L 1000.00 2589.00 L 1020.00 2588.00 L 1040.00 2588.00 L 1060.00 2587.00 L 1100.00 2587.00 L 1120.00 2586.00 L 1140.00 2586.00 L 1160.00 2585.00 L 1167.00 2585.00 L 1217.00 2511.02 L 967.00 2523.07 L 950.00 2591.50 Z" stroke-width="1" id="279-28-04" stroke="black"/>
  <path fill="none" d="M 1200.00 2585.00 L 1220.00 2584.00 L 1240.00 2584.00 L 1260.00 2583.00 L 1279.00 2583.00 L 1299.00 2507.84 L 1259.00 2509.00 L 1217.00 2511.02 L 1167.00 2585.00 Z" stroke-width="1" id="279-28-05" stroke="black"/>
  <path fill="none" d="M 1300.00 2583.00 L 1320.00 2582.00 L 1360.00 2582.00 L 1380.00 2581.00 L 1400.00 2581.00 L 1420.00 2580.00 L 1460.00 2580.00 L 1480.00 2579.00 L 1500.00 2579.00 L 1520.00 2578.00 L 1560.00 2578.00 L 1580.00 2577.00 L 1600.00 2577.00 L 1610.00 2576.50 L 1616.00 2500.40 L 1600.00 2502.00 L 1580.00 2500.00 L 1520.00 2500.00 L 1500.00 2501.00 L 1499.94 2501.00 L 1500.00 2502.00 L 1299.00 2507.84 L 1279.00 2583.00 Z" stroke-width="1" id="279-28-06" stroke="black"/>
  <path fill="none" d="M 1620.00 2576.00 L 1660.00 2576.00 L 1680.00 2575.00 L 1720.00 2575.00 L 1740.00 2574.00 L 1751.00 2574.00 L 1791.00 2504.42 L 1650.00 2506.00 L 1652.33 2498.00 L 1640.00 2498.00 L 1620.00 2500.00 L 1616.00 2500.40 L 1610.00 2576.50 Z" stroke-width="1" id="279-28-07" stroke="black"/>
  <path fill="none" d="M 1760.00 2574.00 L 1780.00 2593.00 L 1800.00 2593.00 L 1820.00 2573.00 L 1823.00 2572.85 L 1876.00 2503.46 L 1791.00 2504.42 L 1751.00 2574.00 Z" stroke-width="1" id="279-28-08" stroke="black"/>
  <path fill="none" d="M 1840.00 2572.00 L 1860.00 2572.00 L 1880.00 2571.00 L 1920.00 2571.00 L 1940.00 2570.00 L 1960.00 2570.00 L 1964.64 2569.58 L 1963.00 2546.00 L 1917.00 2503.00 L 1876.00 2503.46 L 1823.00 2572.85 Z" stroke-width="1" id="279-28-09" stroke="black"/>
  <path fill="none" d="M 260.00 2603.00 L 243.18 2619.82 L 246.00 2652.00 L 232.00 2676.00 L 232.74 2686.00 L 240.00 2686.00 L 260.00 2685.00 L 300.00 2685.00 L 320.00 2684.00 L 340.00 2684.00 L 360.00 2683.00 L 399.00 2683.00 L 424.00 2599.80 L 420.00 2600.00 L 400.00 2600.00 L 380.00 2601.00 L 340.00 2601.00 L 320.00 2602.00 L 300.00 2602.00 L 280.00 2603.00 Z" stroke-width="1" id="279-29-01" stroke="black"/>
  <path fill="none" d="M 400.00 2683.00 L 420.00 2682.00 L 460.00 2682.00 L 480.00 2681.00 L 520.00 2681.00 L 540.00 2680.00 L 560.00 2680.00 L 563.00 2679.85 L 554.00 2597.30 L 540.00 2598.00 L 500.00 2598.00 L 480.00 2599.00 L 440.00 2599.00 L 424.00 2599.80 L 399.00 2683.00 Z" stroke-width="1" id="279-29-02" stroke="black"/>
  <path fill="none" d="M 580.00 2679.00 L 620.00 2679.00 L 640.00 2678.00 L 669.00 2678.00 L 680.00 2640.00 L 660.00 2595.00 L 640.00 2596.00 L 600.00 2596.00 L 580.00 2597.00 L 560.00 2597.00 L 554.00 2597.30 L 563.00 2679.85 Z" stroke-width="1" id="279-29-03" stroke="black"/>
  <path fill="none" d="M 680.00 2678.00 L 700.00 2677.00 L 740.00 2677.00 L 760.00 2676.00 L 780.00 2676.00 L 800.00 2675.00 L 818.00 2675.00 L 844.00 2591.80 L 840.00 2592.00 L 800.00 2592.00 L 780.00 2593.00 L 760.00 2593.00 L 740.00 2614.00 L 720.00 2620.00 L 700.00 2634.00 L 680.00 2640.00 L 669.00 2678.00 Z" stroke-width="1" id="279-29-04" stroke="black"/>
  <path fill="none" d="M 840.00 2675.00 L 860.00 2674.00 L 900.00 2674.00 L 920.00 2673.00 L 960.00 2673.00 L 980.00 2672.00 L 1000.00 2672.00 L 1020.00 2671.00 L 1033.00 2700.25 L 1103.00 2586.85 L 1100.00 2587.00 L 1060.00 2587.00 L 1040.00 2588.00 L 1020.00 2588.00 L 1000.00 2589.00 L 960.00 2589.00 L 940.00 2594.00 L 920.00 2598.00 L 900.00 2598.00 L 880.00 2600.00 L 860.00 2591.00 L 844.00 2591.80 L 818.00 2675.00 Z" stroke-width="1" id="279-29-05" stroke="black"/>
  <path fill="none" d="M 1040.00 2716.00 L 1060.00 2718.00 L 1079.97 2714.01 L 1080.00 2713.00 L 1117.65 2691.88 L 1120.00 2690.00 L 1140.00 2669.00 L 1158.43 2669.00 L 1162.00 2667.00 L 1241.00 2666.63 L 1248.00 2583.60 L 1240.00 2584.00 L 1220.00 2584.00 L 1200.00 2585.00 L 1160.00 2585.00 L 1140.00 2586.00 L 1120.00 2586.00 L 1103.00 2586.85 L 1033.00 2700.25 Z" stroke-width="1" id="279-29-06" stroke="black"/>
  <path fill="none" d="M 1292.29 2666.39 L 1300.00 2666.00 L 1340.00 2666.00 L 1360.00 2665.00 L 1385.00 2665.00 L 1416.00 2580.20 L 1400.00 2581.00 L 1380.00 2581.00 L 1360.00 2582.00 L 1320.00 2582.00 L 1300.00 2583.00 L 1260.00 2583.00 L 1248.00 2583.60 L 1241.00 2666.63 Z" stroke-width="1" id="279-29-07" stroke="black"/>
  <path fill="none" d="M 1400.00 2665.00 L 1420.00 2664.00 L 1440.00 2664.00 L 1460.00 2663.00 L 1500.00 2663.00 L 1520.00 2662.00 L 1541.00 2662.00 L 1558.00 2578.00 L 1520.00 2578.00 L 1500.00 2579.00 L 1480.00 2579.00 L 1460.00 2580.00 L 1420.00 2580.00 L 1416.00 2580.20 L 1385.00 2665.00 Z" stroke-width="1" id="279-29-08" stroke="black"/>
  <path fill="none" d="M 1560.00 2662.00 L 1580.00 2661.00 L 1620.00 2661.00 L 1640.00 2660.00 L 1660.00 2660.00 L 1680.00 2659.00 L 1720.00 2659.00 L 1740.00 2658.00 L 1780.00 2658.00 L 1800.00 2657.00 L 1808.00 2657.00 L 1802.00 2591.00 L 1800.00 2593.00 L 1780.00 2593.00 L 1760.00 2574.00 L 1740.00 2574.00 L 1720.00 2575.00 L 1680.00 2575.00 L 1660.00 2576.00 L 1620.00 2576.00 L 1600.00 2577.00 L 1580.00 2577.00 L 1560.00 2578.00 L 1558.00 2578.00 L 1541.00 2662.00 Z" stroke-width="1" id="279-29-09" stroke="black"/>
  <path fill="none" d="M 1840.00 2657.00 L 1860.00 2656.00 L 1860.91 2656.00 L 1872.91 2654.47 L 1877.00 2571.15 L 1860.00 2572.00 L 1840.00 2572.00 L 1820.00 2573.00 L 1802.00 2591.00 L 1808.00 2657.00 Z" stroke-width="1" id="279-29-10" stroke="black"/>
  <path fill="none" d="M 1971.00 2642.00 L 1969.00 2632.00 L 1964.64 2569.58 L 1960.00 2570.00 L 1940.00 2570.00 L 1920.00 2571.00 L 1880.00 2571.00 L 1877.00 2571.15 L 1872.91 2654.47 Z" stroke-width="1" id="279-29-11" stroke="black"/>
  <path fill="none" d="M 232.74 2686.00 L 237.00 2744.00 L 227.00 2760.00 L 246.00 2774.00 L 400.00 2771.42 L 418.00 2682.10 L 400.00 2683.00 L 360.00 2683.00 L 340.00 2684.00 L 320.00 2684.00 L 300.00 2685.00 L 260.00 2685.00 L 240.00 2686.00 Z" stroke-width="1" id="279-30-01" stroke="black"/>
  <path fill="none" d="M 604.00 2768.00 L 585.38 2798.38 L 600.00 2813.00 L 620.00 2793.00 L 640.00 2792.00 L 660.00 2772.00 L 680.00 2772.00 L 685.00 2771.75 L 712.00 2677.00 L 700.00 2677.00 L 680.00 2678.00 L 640.00 2678.00 L 620.00 2679.00 L 580.00 2679.00 L 560.00 2680.00 L 540.00 2680.00 L 520.00 2681.00 L 480.00 2681.00 L 460.00 2682.00 L 420.00 2682.00 L 418.00 2682.10 L 400.00 2771.42 Z" stroke-width="1" id="279-30-02" stroke="black"/>
  <path fill="none" d="M 700.00 2771.00 L 740.00 2771.00 L 760.00 2770.00 L 780.00 2770.00 L 800.00 2769.00 L 840.00 2769.00 L 860.00 2768.00 L 900.00 2768.00 L 920.00 2767.00 L 960.00 2767.00 L 980.00 2766.00 L 1000.00 2766.00 L 1020.00 2765.00 L 1060.00 2765.00 L 1078.28 2764.09 L 1079.97 2714.01 L 1060.00 2718.00 L 1040.00 2716.00 L 1020.00 2671.00 L 1000.00 2672.00 L 980.00 2672.00 L 960.00 2673.00 L 920.00 2673.00 L 900.00 2674.00 L 860.00 2674.00 L 840.00 2675.00 L 800.00 2675.00 L 780.00 2676.00 L 760.00 2676.00 L 740.00 2677.00 L 712.00 2677.00 L 685.00 2771.75 Z" stroke-width="1" id="279-30-03" stroke="black"/>
  <path fill="none" d="M 80.00 2900.00 L 80.00 2938.00 L 142.00 2943.46 L 167.00 2870.77 Z" stroke-width="1" id="279-32-01" stroke="black"/>
  <path fill="none" d="M 193.57 2948.00 L 200.00 2948.00 L 200.62 2948.62 L 217.62 2950.12 L 252.00 2855.58 L 208.00 2857.00 L 167.00 2870.77 L 142.00 2943.46 Z" stroke-width="1" id="279-32-02" stroke="black"/>
  <path fill="none" d="M 239.00 2952.00 L 254.37 2952.63 L 260.00 2947.00 L 280.00 2947.00 L 300.00 2946.00 L 349.00 2946.00 L 378.00 2851.52 L 252.00 2855.58 L 217.62 2950.12 Z" stroke-width="1" id="279-32-03" stroke="black"/>
  <path fill="none" d="M 360.00 2946.00 L 380.00 2945.00 L 420.00 2945.00 L 440.00 2985.00 L 460.00 2984.00 L 480.00 2984.00 L 500.00 2964.00 L 520.00 2963.00 L 540.00 2943.00 L 580.00 2943.00 L 600.00 2942.00 L 660.00 2942.00 L 680.00 2941.00 L 720.00 2941.00 L 740.00 2940.00 L 761.00 2840.00 L 700.00 2840.00 L 680.00 2844.00 L 526.00 2844.00 L 456.00 2849.00 L 378.00 2851.52 L 349.00 2946.00 Z" stroke-width="1" id="279-32-04" stroke="black"/>
  <path fill="none" d="M 800.00 2940.00 L 820.00 2939.00 L 880.00 2939.00 L 900.00 2938.00 L 940.00 2938.00 L 960.00 2937.00 L 1005.71 2937.00 L 1063.71 2933.47 L 1101.00 2841.80 L 1100.00 2842.00 L 1020.00 2842.00 L 1000.00 2840.00 L 761.00 2840.00 L 740.00 2940.00 Z" stroke-width="1" id="279-32-05" stroke="black"/>
  <path fill="none" d="M 1170.00 2927.00 L 1171.96 2954.40 L 1180.00 2954.00 L 1200.00 2954.00 L 1220.00 2934.00 L 1240.00 2934.00 L 1260.00 2933.00 L 1283.62 2933.00 L 1318.00 2923.00 L 1330.00 2942.00 L 1349.49 2942.51 L 1359.49 2932.51 L 1389.00 2852.90 L 1380.00 2852.00 L 1360.00 2850.00 L 1300.00 2850.00 L 1280.00 2848.00 L 1260.00 2846.00 L 1240.00 2840.00 L 1220.00 2836.00 L 1160.00 2836.00 L 1140.00 2838.00 L 1120.00 2838.00 L 1101.00 2841.80 L 1063.71 2933.47 Z" stroke-width="1" id="279-32-06" stroke="black"/>
  <path fill="none" d="M 1360.00 2932.00 L 1371.08 2943.08 L 1406.97 2944.03 L 1420.00 2931.00 L 1433.73 2944.73 L 1444.00 2945.00 L 1447.00 2945.07 L 1496.00 2852.40 L 1480.00 2854.00 L 1400.00 2854.00 L 1389.00 2852.90 L 1359.49 2932.51 Z" stroke-width="1" id="279-32-07" stroke="black"/>
  <path fill="none" d="M 1465.25 2945.49 L 1480.00 2930.00 L 1540.00 2930.00 L 1560.00 2929.00 L 1600.00 2929.00 L 1614.00 2928.30 L 1634.00 2837.40 L 1620.00 2836.00 L 1560.00 2836.00 L 1540.00 2842.00 L 1520.00 2850.00 L 1500.00 2852.00 L 1496.00 2852.40 L 1447.00 2945.07 Z" stroke-width="1" id="279-32-08" stroke="black"/>
  <path fill="none" d="M 1620.00 2928.00 L 1660.00 2928.00 L 1680.00 2948.00 L 1682.62 2950.49 L 1705.00 2951.00 L 1718.68 2948.32 L 1720.00 2947.00 L 1725.43 2947.00 L 1743.54 2943.46 L 1760.00 2927.00 L 1780.00 2926.00 L 1820.00 2926.00 L 1837.08 2925.15 L 1940.00 2905.00 L 1949.00 2886.00 L 1910.00 2850.00 L 1718.60 2838.00 L 1640.00 2838.00 L 1634.00 2837.40 L 1614.00 2928.30 Z" stroke-width="1" id="279-32-09" stroke="black"/>
  <path fill="none" d="M 273.00 3023.00 L 287.03 3032.00 L 300.00 3032.00 L 320.00 3051.00 L 326.00 3057.00 L 362.61 3068.26 L 380.00 3050.00 L 400.00 3030.00 L 420.00 3030.00 L 440.00 3029.00 L 480.00 3029.00 L 500.00 3028.00 L 540.00 3028.00 L 560.00 3027.00 L 600.00 3027.00 L 620.00 3026.00 L 660.00 3026.00 L 680.00 3025.00 L 701.00 3025.00 L 703.00 2941.00 L 680.00 2941.00 L 660.00 2942.00 L 600.00 2942.00 L 580.00 2943.00 L 540.00 2943.00 L 520.00 2963.00 L 500.00 2964.00 L 480.00 2984.00 L 460.00 2984.00 L 440.00 2985.00 L 420.00 2945.00 L 380.00 2945.00 L 360.00 2946.00 L 329.00 2946.00 L 309.00 2960.23 Z" stroke-width="1" id="279-33-01" stroke="black"/>
</svg>
