<?xml version="1.0" encoding="UTF-8"?>
<svg xmlns:xlink="http://www.w3.org/1999/xlink" xmlns="http://www.w3.org/2000/svg" contentScriptType="text/ecmascript" width="2059px" zoomAndPan="magnify" contentStyleType="text/css" viewBox="0 0 2059 3283" height="3283px" preserveAspectRatio="xMidYMid meet" version="1.0">
  <path fill="none" d="M 121.00 138.00 L 84.00 178.00 L 84.00 214.00 L 93.44 214.28 L 104.00 209.00 L 204.00 209.00 L 224.00 210.00 L 243.00 210.00 L 265.25 126.69 Z" stroke-width="1" id="300-02-01" stroke="black"/>
  <path fill="none" d="M 244.00 210.00 L 264.00 217.00 L 284.00 217.00 L 304.00 210.00 L 324.00 210.00 L 344.00 211.00 L 464.00 211.00 L 484.00 212.00 L 504.00 219.00 L 524.00 217.00 L 544.00 212.00 L 567.00 127.50 L 496.67 124.00 L 424.00 124.00 L 404.00 123.00 L 397.99 119.09 L 376.00 118.00 L 348.36 120.17 L 344.00 123.00 L 312.25 123.00 L 265.25 126.69 L 243.00 210.00 Z" stroke-width="1" id="300-02-02" stroke="black"/>
  <path fill="none" d="M 584.00 212.00 L 604.00 213.00 L 724.00 213.00 L 744.00 214.00 L 806.00 214.00 L 852.00 132.34 L 738.00 136.00 L 567.00 127.50 L 544.00 212.00 Z" stroke-width="1" id="300-02-03" stroke="black"/>
  <path fill="none" d="M 844.00 214.00 L 864.00 215.00 L 984.00 215.00 L 1004.00 216.00 L 1007.00 216.00 L 1044.00 125.00 L 996.21 125.00 L 956.00 129.00 L 852.00 132.34 L 806.00 214.00 Z" stroke-width="1" id="300-02-04" stroke="black"/>
  <path fill="none" d="M 1104.00 216.00 L 1124.00 217.00 L 1244.00 217.00 L 1264.00 218.00 L 1364.00 218.00 L 1384.00 219.00 L 1504.00 219.00 L 1524.00 220.00 L 1553.00 220.00 L 1572.00 139.76 L 1492.00 138.00 L 1344.14 126.00 L 1184.00 126.00 L 1165.92 111.54 L 1147.00 110.00 L 1143.57 110.34 L 1124.00 126.00 L 1084.00 126.00 L 1064.00 125.00 L 1044.00 125.00 L 1007.00 216.00 Z" stroke-width="1" id="300-02-05" stroke="black"/>
  <path fill="none" d="M 1624.00 220.00 L 1644.00 221.00 L 1764.00 221.00 L 1784.00 222.00 L 1873.00 222.00 L 1879.00 154.20 L 1856.00 146.00 L 1572.00 139.76 L 1553.00 220.00 Z" stroke-width="1" id="300-02-06" stroke="black"/>
  <path fill="none" d="M 1884.00 222.00 L 1904.00 223.00 L 1944.00 223.00 L 1947.00 226.00 L 1964.00 226.00 L 1985.00 192.00 L 1879.00 154.20 L 1873.00 222.00 Z" stroke-width="1" id="300-02-07" stroke="black"/>
  <path fill="none" d="M 281.12 305.00 L 283.00 324.00 L 270.00 380.00 L 337.00 406.00 L 366.00 420.00 L 473.00 393.42 L 515.00 308.10 L 504.00 307.00 L 484.00 305.00 L 384.00 305.00 L 364.00 301.00 L 344.00 301.00 L 324.00 305.00 Z" stroke-width="1" id="300-04-01" stroke="black"/>
  <path fill="none" d="M 519.00 382.00 L 655.00 407.00 L 656.12 424.00 L 664.00 424.00 L 684.00 404.00 L 744.00 404.00 L 764.00 425.00 L 891.00 425.00 L 934.00 321.00 L 784.00 321.00 L 764.00 319.00 L 644.00 319.00 L 624.00 317.00 L 604.00 317.00 L 584.00 315.00 L 564.00 309.00 L 524.00 309.00 L 515.00 308.10 L 473.00 393.42 Z" stroke-width="1" id="300-04-02" stroke="black"/>
  <path fill="none" d="M 904.00 425.00 L 924.00 426.00 L 990.00 426.00 L 1073.00 303.90 L 1064.00 303.00 L 1044.00 303.00 L 1024.00 309.00 L 1004.00 313.00 L 984.00 317.00 L 964.00 319.00 L 944.00 321.00 L 934.00 321.00 L 891.00 425.00 Z" stroke-width="1" id="300-04-03" stroke="black"/>
  <path fill="none" d="M 1064.00 426.00 L 1084.00 427.00 L 1104.00 427.00 L 1124.00 447.00 L 1144.00 427.00 L 1164.00 407.00 L 1183.00 407.00 L 1231.00 305.00 L 1084.00 305.00 L 1073.00 303.90 L 990.00 426.00 Z" stroke-width="1" id="300-04-04" stroke="black"/>
  <path fill="none" d="M 1184.00 407.00 L 1204.00 427.00 L 1244.00 427.00 L 1264.00 428.00 L 1404.00 428.00 L 1424.00 429.00 L 1444.00 409.00 L 1464.00 429.00 L 1564.00 429.00 L 1584.00 430.00 L 1586.00 430.00 L 1654.00 326.00 L 1644.00 325.00 L 1484.00 325.00 L 1464.00 327.00 L 1444.00 307.00 L 1284.00 307.00 L 1264.00 305.00 L 1231.00 305.00 L 1183.00 407.00 Z" stroke-width="1" id="300-04-05" stroke="black"/>
  <path fill="none" d="M 1664.00 430.00 L 1684.00 410.00 L 1704.00 430.00 L 1744.00 430.00 L 1764.00 431.00 L 1822.14 431.00 L 1808.00 367.00 L 1766.62 329.00 L 1724.00 329.00 L 1704.00 327.00 L 1664.00 327.00 L 1654.00 326.00 L 1586.00 430.00 Z" stroke-width="1" id="300-04-06" stroke="black"/>
  <path fill="none" d="M 656.12 424.00 L 660.00 483.00 L 637.97 502.97 L 644.00 509.00 L 684.00 509.00 L 704.00 489.00 L 744.00 489.00 L 764.00 490.00 L 839.00 490.00 L 852.00 425.00 L 764.00 425.00 L 744.00 404.00 L 684.00 404.00 L 664.00 424.00 Z" stroke-width="1" id="300-05-01" stroke="black"/>
  <path fill="none" d="M 904.00 490.00 L 924.00 491.00 L 984.00 491.00 L 1009.00 426.00 L 924.00 426.00 L 904.00 425.00 L 852.00 425.00 L 839.00 490.00 Z" stroke-width="1" id="300-05-02" stroke="black"/>
  <path fill="none" d="M 1064.00 491.00 L 1084.00 492.00 L 1095.00 492.00 L 1125.00 446.00 L 1124.00 447.00 L 1104.00 427.00 L 1084.00 427.00 L 1064.00 426.00 L 1009.00 426.00 L 984.00 491.00 Z" stroke-width="1" id="300-05-03" stroke="black"/>
  <path fill="none" d="M 1184.00 492.00 L 1189.00 497.00 L 1251.00 427.35 L 1244.00 427.00 L 1204.00 427.00 L 1184.00 407.00 L 1164.00 407.00 L 1144.00 427.00 L 1125.00 446.00 L 1095.00 492.00 Z" stroke-width="1" id="300-05-04" stroke="black"/>
  <path fill="none" d="M 1204.00 512.00 L 1224.00 512.00 L 1244.00 492.00 L 1264.00 493.00 L 1404.00 493.00 L 1424.00 494.00 L 1564.00 494.00 L 1584.00 495.00 L 1604.00 495.00 L 1624.00 507.00 L 1644.00 505.00 L 1664.00 495.00 L 1697.00 495.00 L 1708.00 430.00 L 1704.00 430.00 L 1684.00 410.00 L 1664.00 430.00 L 1584.00 430.00 L 1564.00 429.00 L 1464.00 429.00 L 1444.00 409.00 L 1424.00 429.00 L 1404.00 428.00 L 1264.00 428.00 L 1251.00 427.35 L 1189.00 497.00 Z" stroke-width="1" id="300-05-05" stroke="black"/>
  <path fill="none" d="M 1744.00 495.00 L 1764.00 496.00 L 1829.23 496.00 L 1827.00 453.00 L 1822.14 431.00 L 1764.00 431.00 L 1744.00 430.00 L 1708.00 430.00 L 1697.00 495.00 Z" stroke-width="1" id="300-05-06" stroke="black"/>
  <path fill="none" d="M 268.00 535.00 L 259.00 552.00 L 273.00 560.00 L 272.67 568.00 L 304.00 568.00 L 324.00 569.00 L 396.00 569.00 L 441.00 504.75 L 396.00 503.00 Z" stroke-width="1" id="300-06-01" stroke="black"/>
  <path fill="none" d="M 544.00 569.00 L 564.00 570.00 L 591.00 570.00 L 602.00 510.99 L 441.00 504.75 L 396.00 569.00 Z" stroke-width="1" id="300-06-02" stroke="black"/>
  <path fill="none" d="M 744.00 570.00 L 764.00 590.00 L 784.00 571.00 L 922.00 571.00 L 954.00 491.00 L 924.00 491.00 L 904.00 490.00 L 764.00 490.00 L 744.00 489.00 L 704.00 489.00 L 684.00 509.00 L 644.00 509.00 L 637.97 502.97 L 628.00 512.00 L 602.00 510.99 L 591.00 570.00 Z" stroke-width="1" id="300-06-03" stroke="black"/>
  <path fill="none" d="M 1004.00 571.00 L 1024.00 572.00 L 1035.00 572.00 L 1039.00 491.00 L 954.00 491.00 L 922.00 571.00 Z" stroke-width="1" id="300-06-04" stroke="black"/>
  <path fill="none" d="M 1224.00 572.00 L 1233.00 581.00 L 1321.00 493.00 L 1264.00 493.00 L 1244.00 492.00 L 1224.00 512.00 L 1204.00 512.00 L 1184.00 492.00 L 1084.00 492.00 L 1064.00 491.00 L 1039.00 491.00 L 1035.00 572.00 Z" stroke-width="1" id="300-06-05" stroke="black"/>
  <path fill="none" d="M 1244.00 592.00 L 1264.00 593.00 L 1284.00 573.00 L 1324.00 573.00 L 1344.00 593.00 L 1384.00 593.00 L 1404.00 573.00 L 1464.00 573.00 L 1484.00 574.00 L 1667.00 574.00 L 1689.00 495.00 L 1664.00 495.00 L 1644.00 505.00 L 1624.00 507.00 L 1604.00 495.00 L 1584.00 495.00 L 1564.00 494.00 L 1424.00 494.00 L 1404.00 493.00 L 1321.00 493.00 L 1233.00 581.00 Z" stroke-width="1" id="300-06-06" stroke="black"/>
  <path fill="none" d="M 1704.00 574.00 L 1724.00 575.00 L 1827.82 575.00 L 1831.00 530.00 L 1829.23 496.00 L 1764.00 496.00 L 1744.00 495.00 L 1689.00 495.00 L 1667.00 574.00 Z" stroke-width="1" id="300-06-07" stroke="black"/>
  <path fill="none" d="M 272.67 568.00 L 271.00 608.00 L 258.00 632.00 L 268.00 640.00 L 266.96 654.00 L 284.00 654.00 L 304.00 673.00 L 324.00 667.00 L 344.00 663.00 L 364.00 654.00 L 380.00 654.00 L 400.00 569.00 L 324.00 569.00 L 304.00 568.00 Z" stroke-width="1" id="300-07-01" stroke="black"/>
  <path fill="none" d="M 524.00 654.00 L 544.00 655.00 L 585.00 655.00 L 617.00 570.00 L 564.00 570.00 L 544.00 569.00 L 400.00 569.00 L 380.00 654.00 Z" stroke-width="1" id="300-07-02" stroke="black"/>
  <path fill="none" d="M 794.00 655.00 L 816.00 571.00 L 784.00 571.00 L 764.00 590.00 L 744.00 570.00 L 617.00 570.00 L 585.00 655.00 Z" stroke-width="1" id="300-07-03" stroke="black"/>
  <path fill="none" d="M 883.00 655.00 L 904.00 571.00 L 816.00 571.00 L 794.00 655.00 Z" stroke-width="1" id="300-07-04" stroke="black"/>
  <path fill="none" d="M 884.00 655.00 L 904.00 675.00 L 924.00 655.00 L 984.00 655.00 L 998.00 655.70 L 1026.00 572.00 L 1024.00 572.00 L 1004.00 571.00 L 904.00 571.00 L 883.00 655.00 Z" stroke-width="1" id="300-07-05" stroke="black"/>
  <path fill="none" d="M 1004.00 656.00 L 1164.00 656.00 L 1184.00 669.00 L 1204.00 657.00 L 1224.00 656.00 L 1444.00 656.00 L 1464.00 657.00 L 1567.00 657.00 L 1576.00 574.00 L 1484.00 574.00 L 1464.00 573.00 L 1404.00 573.00 L 1384.00 593.00 L 1344.00 593.00 L 1324.00 573.00 L 1284.00 573.00 L 1264.00 593.00 L 1244.00 592.00 L 1224.00 572.00 L 1026.00 572.00 L 998.00 655.70 Z" stroke-width="1" id="300-07-06" stroke="black"/>
  <path fill="none" d="M 1799.30 657.00 L 1825.00 615.00 L 1827.82 575.00 L 1724.00 575.00 L 1704.00 574.00 L 1576.00 574.00 L 1567.00 657.00 Z" stroke-width="1" id="300-07-07" stroke="black"/>
  <path fill="none" d="M 266.96 654.00 L 264.00 694.00 L 252.00 700.00 L 251.00 721.00 L 270.00 728.00 L 269.68 733.00 L 380.68 733.00 L 406.00 654.00 L 364.00 654.00 L 344.00 663.00 L 324.00 667.00 L 304.00 673.00 L 284.00 654.00 Z" stroke-width="1" id="300-08-01" stroke="black"/>
  <path fill="none" d="M 664.00 733.00 L 684.00 753.00 L 704.00 733.00 L 709.00 733.00 L 720.00 655.00 L 544.00 655.00 L 524.00 654.00 L 406.00 654.00 L 380.68 733.00 Z" stroke-width="1" id="300-08-02" stroke="black"/>
  <path fill="none" d="M 844.00 733.00 L 864.00 753.00 L 868.00 757.00 L 989.00 655.25 L 984.00 655.00 L 924.00 655.00 L 904.00 675.00 L 884.00 655.00 L 720.00 655.00 L 709.00 733.00 Z" stroke-width="1" id="300-08-03" stroke="black"/>
  <path fill="none" d="M 884.00 773.00 L 924.00 773.00 L 944.00 753.00 L 964.00 733.00 L 1124.00 733.00 L 1123.00 656.00 L 1004.00 656.00 L 989.00 655.25 L 868.00 757.00 Z" stroke-width="1" id="300-08-04" stroke="black"/>
  <path fill="none" d="M 1184.00 733.00 L 1204.00 753.00 L 1244.00 753.00 L 1264.00 733.00 L 1464.00 733.00 L 1484.00 753.00 L 1502.00 735.00 L 1531.30 657.00 L 1464.00 657.00 L 1444.00 656.00 L 1224.00 656.00 L 1204.00 657.00 L 1184.00 669.00 L 1164.00 656.00 L 1123.00 656.00 L 1124.00 733.00 Z" stroke-width="1" id="300-08-05" stroke="black"/>
  <path fill="none" d="M 1504.00 733.00 L 1583.00 733.00 L 1600.30 657.00 L 1531.30 657.00 L 1502.00 735.00 Z" stroke-width="1" id="300-08-06" stroke="black"/>
  <path fill="none" d="M 1724.00 733.00 L 1744.00 734.00 L 1809.60 734.00 L 1784.00 682.00 L 1799.30 657.00 L 1600.30 657.00 L 1583.00 733.00 Z" stroke-width="1" id="300-08-07" stroke="black"/>
  <path fill="none" d="M 269.68 733.00 L 266.00 790.00 L 250.00 800.00 L 265.00 810.00 L 266.71 820.00 L 422.71 820.00 L 463.00 733.00 Z" stroke-width="1" id="300-09-01" stroke="black"/>
  <path fill="none" d="M 464.00 820.00 L 484.00 819.00 L 551.00 819.00 L 574.00 733.00 L 463.00 733.00 L 422.71 820.00 Z" stroke-width="1" id="300-09-02" stroke="black"/>
  <path fill="none" d="M 764.00 819.00 L 784.00 799.00 L 804.00 799.00 L 820.00 733.00 L 704.00 733.00 L 684.00 753.00 L 664.00 733.00 L 574.00 733.00 L 551.00 819.00 Z" stroke-width="1" id="300-09-03" stroke="black"/>
  <path fill="none" d="M 824.00 819.00 L 864.00 819.00 L 884.00 818.00 L 1244.00 818.00 L 1264.00 817.00 L 1345.00 817.00 L 1388.00 733.00 L 1264.00 733.00 L 1244.00 753.00 L 1204.00 753.00 L 1184.00 733.00 L 964.00 733.00 L 944.00 753.00 L 924.00 773.00 L 884.00 773.00 L 864.00 753.00 L 844.00 733.00 L 820.00 733.00 L 804.00 799.00 Z" stroke-width="1" id="300-09-04" stroke="black"/>
  <path fill="none" d="M 1501.00 817.00 L 1540.00 733.00 L 1504.00 733.00 L 1484.00 753.00 L 1464.00 733.00 L 1388.00 733.00 L 1345.00 817.00 Z" stroke-width="1" id="300-09-05" stroke="black"/>
  <path fill="none" d="M 1576.00 817.00 L 1620.00 733.00 L 1540.00 733.00 L 1501.00 817.00 Z" stroke-width="1" id="300-09-06" stroke="black"/>
  <path fill="none" d="M 1644.00 817.00 L 1664.00 816.00 L 1724.00 816.00 L 1727.61 819.61 L 1780.01 819.99 L 1784.00 816.00 L 1788.67 816.00 L 1837.00 787.00 L 1816.00 747.00 L 1809.60 734.00 L 1744.00 734.00 L 1724.00 733.00 L 1620.00 733.00 L 1576.00 817.00 Z" stroke-width="1" id="300-09-07" stroke="black"/>
  <path fill="none" d="M 266.71 820.00 L 272.00 851.00 L 260.00 862.00 L 262.00 894.00 L 376.00 894.24 L 379.00 820.00 Z" stroke-width="1" id="300-10-01" stroke="black"/>
  <path fill="none" d="M 746.00 895.00 L 747.00 895.00 L 814.00 809.00 L 804.00 799.00 L 784.00 799.00 L 764.00 819.00 L 682.00 819.00 L 676.00 894.86 Z" stroke-width="1" id="300-10-02" stroke="black"/>
  <path fill="none" d="M 938.00 895.34 L 947.00 818.00 L 884.00 818.00 L 864.00 819.00 L 824.00 819.00 L 814.00 809.00 L 747.00 895.00 Z" stroke-width="1" id="300-10-03" stroke="black"/>
  <path fill="none" d="M 1079.00 895.59 L 1080.00 876.00 L 1070.00 818.00 L 947.00 818.00 L 938.00 895.34 Z" stroke-width="1" id="300-10-04" stroke="black"/>
  <path fill="none" d="M 1309.20 904.00 L 1294.00 936.00 L 1300.00 980.00 L 1297.23 988.32 L 1304.00 989.00 L 1324.00 993.00 L 1344.00 993.00 L 1364.00 995.00 L 1404.00 995.00 L 1424.00 997.00 L 1484.00 997.00 L 1504.00 993.00 L 1514.25 993.00 L 1498.00 973.00 L 1484.00 889.00 L 1422.59 883.00 L 1344.00 883.00 L 1324.00 904.00 Z" stroke-width="1" id="300-11-01" stroke="black"/>
  <path fill="none" d="M 263.00 1043.00 L 261.00 1064.00 L 260.11 1081.00 L 504.00 1081.00 L 524.00 1082.00 L 840.00 1082.00 L 880.00 995.44 L 391.00 983.00 Z" stroke-width="1" id="300-12-01" stroke="black"/>
  <path fill="none" d="M 944.00 1082.00 L 964.00 1083.00 L 1277.00 1083.00 L 1286.00 1003.60 L 1172.00 996.00 L 902.00 996.00 L 880.00 995.44 L 840.00 1082.00 Z" stroke-width="1" id="300-12-02" stroke="black"/>
  <path fill="none" d="M 1341.00 1083.00 L 1352.00 993.80 L 1344.00 993.00 L 1324.00 993.00 L 1304.00 989.00 L 1297.23 988.32 L 1292.00 1004.00 L 1286.00 1003.60 L 1277.00 1083.00 Z" stroke-width="1" id="300-12-03" stroke="black"/>
  <path fill="none" d="M 1364.00 1083.00 L 1384.00 1084.00 L 1515.54 1084.00 L 1537.00 1021.00 L 1514.25 993.00 L 1504.00 993.00 L 1484.00 997.00 L 1424.00 997.00 L 1404.00 995.00 L 1364.00 995.00 L 1352.00 993.80 L 1341.00 1083.00 Z" stroke-width="1" id="300-12-04" stroke="black"/>
  <path fill="none" d="M 187.00 1153.00 L 169.00 1223.00 L 246.00 1233.41 L 285.00 1145.00 L 284.00 1145.00 L 264.00 1139.00 L 244.00 1133.00 L 235.20 1128.60 L 219.00 1134.00 Z" stroke-width="1" id="300-14-01" stroke="black"/>
  <path fill="none" d="M 280.00 1238.00 L 360.00 1249.00 L 359.94 1251.00 L 364.00 1251.00 L 384.00 1231.00 L 408.00 1147.00 L 404.00 1147.00 L 384.00 1145.00 L 285.00 1145.00 L 246.00 1233.41 Z" stroke-width="1" id="300-14-02" stroke="black"/>
  <path fill="none" d="M 404.00 1231.00 L 424.00 1251.00 L 444.00 1252.00 L 495.00 1252.00 L 529.00 1149.00 L 464.00 1149.00 L 444.00 1147.00 L 408.00 1147.00 L 384.00 1231.00 Z" stroke-width="1" id="300-14-03" stroke="black"/>
  <path fill="none" d="M 544.00 1252.00 L 564.00 1253.00 L 664.00 1253.00 L 684.00 1254.00 L 784.00 1254.00 L 804.00 1255.00 L 824.00 1255.00 L 844.00 1235.00 L 864.00 1255.00 L 904.00 1255.00 L 924.00 1256.00 L 1024.00 1256.00 L 1070.00 1162.00 L 1004.00 1162.00 L 984.00 1161.00 L 944.00 1161.00 L 924.00 1157.00 L 844.00 1157.00 L 824.00 1155.00 L 804.00 1153.00 L 684.00 1153.00 L 664.00 1151.00 L 604.00 1151.00 L 584.00 1149.00 L 529.00 1149.00 L 495.00 1252.00 Z" stroke-width="1" id="300-14-04" stroke="black"/>
  <path fill="none" d="M 1044.00 1257.00 L 1144.00 1257.00 L 1164.00 1258.00 L 1264.00 1258.00 L 1269.83 1258.29 L 1273.00 1248.00 L 1330.00 1248.67 L 1360.00 1164.00 L 1304.00 1164.00 L 1284.00 1163.00 L 1164.00 1163.00 L 1144.00 1162.00 L 1070.00 1162.00 L 1024.00 1256.00 Z" stroke-width="1" id="300-14-05" stroke="black"/>
  <path fill="none" d="M 1786.00 1254.00 L 1796.00 1167.00 L 1764.00 1167.00 L 1744.00 1166.00 L 1604.00 1166.00 L 1584.00 1165.00 L 1464.00 1165.00 L 1444.00 1164.00 L 1360.00 1164.00 L 1330.00 1248.67 Z" stroke-width="1" id="300-14-06" stroke="black"/>
  <path fill="none" d="M 359.94 1251.00 L 358.00 1316.00 L 456.00 1340.00 L 476.00 1360.00 L 720.00 1378.63 L 766.00 1254.00 L 684.00 1254.00 L 664.00 1253.00 L 564.00 1253.00 L 544.00 1252.00 L 444.00 1252.00 L 424.00 1251.00 L 404.00 1231.00 L 384.00 1231.00 L 364.00 1251.00 Z" stroke-width="1" id="300-15-01" stroke="black"/>
  <path fill="none" d="M 738.00 1380.00 L 736.02 1383.00 L 744.00 1383.00 L 764.00 1384.00 L 824.00 1384.00 L 844.00 1385.00 L 924.00 1385.00 L 944.00 1386.00 L 1024.00 1386.00 L 1044.00 1387.00 L 1124.00 1387.00 L 1144.00 1388.00 L 1204.00 1388.00 L 1224.00 1389.00 L 1255.79 1389.00 L 1236.00 1368.00 L 1269.83 1258.29 L 1264.00 1258.00 L 1164.00 1258.00 L 1144.00 1257.00 L 1044.00 1257.00 L 1024.00 1256.00 L 924.00 1256.00 L 904.00 1255.00 L 864.00 1255.00 L 844.00 1235.00 L 824.00 1255.00 L 804.00 1255.00 L 784.00 1254.00 L 766.00 1254.00 L 720.00 1378.63 Z" stroke-width="1" id="300-15-02" stroke="black"/>
  <path fill="none" d="M 535.20 1499.00 L 604.00 1499.00 L 624.00 1500.00 L 718.00 1500.00 L 815.00 1384.00 L 764.00 1384.00 L 744.00 1383.00 L 736.02 1383.00 L 699.00 1439.00 L 672.00 1490.00 Z" stroke-width="1" id="300-16-01" stroke="black"/>
  <path fill="none" d="M 724.00 1500.00 L 744.00 1501.00 L 864.00 1501.00 L 884.00 1502.00 L 946.00 1502.00 L 988.00 1386.00 L 944.00 1386.00 L 924.00 1385.00 L 844.00 1385.00 L 824.00 1384.00 L 815.00 1384.00 L 718.00 1500.00 Z" stroke-width="1" id="300-16-02" stroke="black"/>
  <path fill="none" d="M 984.00 1502.00 L 1004.00 1503.00 L 1124.00 1503.00 L 1144.00 1504.00 L 1158.00 1504.00 L 1201.00 1388.00 L 1144.00 1388.00 L 1124.00 1387.00 L 1044.00 1387.00 L 1024.00 1386.00 L 988.00 1386.00 L 946.00 1502.00 Z" stroke-width="1" id="300-16-03" stroke="black"/>
  <path fill="none" d="M 1244.00 1504.00 L 1264.00 1505.00 L 1300.00 1505.00 L 1324.00 1421.67 L 1285.00 1420.00 L 1255.79 1389.00 L 1224.00 1389.00 L 1204.00 1388.00 L 1201.00 1388.00 L 1158.00 1504.00 Z" stroke-width="1" id="300-16-04" stroke="black"/>
  <path fill="none" d="M 1384.00 1505.00 L 1404.00 1506.00 L 1504.00 1506.00 L 1524.00 1507.00 L 1602.00 1507.00 L 1599.00 1433.45 L 1324.00 1421.67 L 1300.00 1505.00 Z" stroke-width="1" id="300-16-05" stroke="black"/>
  <path fill="none" d="M 1644.00 1507.00 L 1664.00 1508.00 L 1684.00 1508.00 L 1704.00 1528.00 L 1724.00 1528.00 L 1744.00 1508.00 L 1784.00 1508.00 L 1804.00 1509.00 L 1823.59 1509.00 L 1818.00 1479.00 L 1682.00 1437.00 L 1599.00 1433.45 L 1602.00 1507.00 Z" stroke-width="1" id="300-16-06" stroke="black"/>
  <path fill="none" d="M 250.00 1547.00 L 236.00 1564.00 L 256.00 1573.00 L 254.78 1585.00 L 264.00 1585.00 L 284.00 1586.00 L 344.00 1586.00 L 360.00 1606.00 L 497.00 1501.67 L 286.00 1517.00 Z" stroke-width="1" id="300-17-01" stroke="black"/>
  <path fill="none" d="M 364.00 1611.00 L 384.00 1613.00 L 404.00 1609.00 L 424.00 1605.00 L 464.00 1605.00 L 484.00 1587.00 L 659.00 1587.00 L 689.00 1500.00 L 624.00 1500.00 L 604.00 1499.00 L 535.20 1499.00 L 520.00 1500.00 L 497.00 1501.67 L 360.00 1606.00 Z" stroke-width="1" id="300-17-02" stroke="black"/>
  <path fill="none" d="M 664.00 1587.00 L 684.00 1588.00 L 864.00 1588.00 L 884.00 1589.00 L 1034.00 1589.00 L 1078.00 1503.00 L 1004.00 1503.00 L 984.00 1502.00 L 884.00 1502.00 L 864.00 1501.00 L 744.00 1501.00 L 724.00 1500.00 L 689.00 1500.00 L 659.00 1587.00 Z" stroke-width="1" id="300-17-03" stroke="black"/>
  <path fill="none" d="M 1064.00 1589.00 L 1084.00 1590.00 L 1226.00 1590.00 L 1269.00 1505.00 L 1264.00 1505.00 L 1244.00 1504.00 L 1144.00 1504.00 L 1124.00 1503.00 L 1078.00 1503.00 L 1034.00 1589.00 Z" stroke-width="1" id="300-17-04" stroke="black"/>
  <path fill="none" d="M 1244.00 1590.00 L 1264.00 1591.00 L 1391.00 1591.00 L 1397.00 1505.65 L 1384.00 1505.00 L 1269.00 1505.00 L 1226.00 1590.00 Z" stroke-width="1" id="300-17-05" stroke="black"/>
  <path fill="none" d="M 1444.00 1591.00 L 1464.00 1592.00 L 1604.00 1592.00 L 1624.00 1612.00 L 1644.00 1592.00 L 1664.00 1593.00 L 1735.00 1593.00 L 1754.00 1508.00 L 1744.00 1508.00 L 1724.00 1528.00 L 1704.00 1528.00 L 1684.00 1508.00 L 1664.00 1508.00 L 1644.00 1507.00 L 1524.00 1507.00 L 1504.00 1506.00 L 1404.00 1506.00 L 1397.00 1505.65 L 1391.00 1591.00 Z" stroke-width="1" id="300-17-06" stroke="black"/>
  <path fill="none" d="M 1837.66 1593.00 L 1829.00 1538.00 L 1823.59 1509.00 L 1804.00 1509.00 L 1784.00 1508.00 L 1754.00 1508.00 L 1735.00 1593.00 Z" stroke-width="1" id="300-17-07" stroke="black"/>
  <path fill="none" d="M 254.78 1585.00 L 250.00 1632.00 L 230.00 1649.00 L 250.00 1663.00 L 249.85 1671.00 L 444.00 1671.00 L 454.00 1671.50 L 478.00 1592.40 L 464.00 1605.00 L 424.00 1605.00 L 404.00 1609.00 L 384.00 1613.00 L 364.00 1611.00 L 344.00 1586.00 L 284.00 1586.00 L 264.00 1585.00 Z" stroke-width="1" id="300-18-01" stroke="black"/>
  <path fill="none" d="M 464.00 1672.00 L 673.00 1672.00 L 720.00 1588.00 L 684.00 1588.00 L 664.00 1587.00 L 484.00 1587.00 L 478.00 1592.40 L 454.00 1671.50 Z" stroke-width="1" id="300-18-02" stroke="black"/>
  <path fill="none" d="M 821.00 1672.00 L 838.00 1588.00 L 720.00 1588.00 L 673.00 1672.00 Z" stroke-width="1" id="300-18-03" stroke="black"/>
  <path fill="none" d="M 824.00 1672.00 L 844.00 1673.00 L 1184.00 1673.00 L 1204.00 1674.00 L 1224.00 1674.00 L 1244.00 1694.00 L 1284.00 1694.00 L 1304.00 1674.00 L 1324.00 1674.00 L 1339.00 1591.00 L 1264.00 1591.00 L 1244.00 1590.00 L 1084.00 1590.00 L 1064.00 1589.00 L 884.00 1589.00 L 864.00 1588.00 L 838.00 1588.00 L 821.00 1672.00 Z" stroke-width="1" id="300-18-04" stroke="black"/>
  <path fill="none" d="M 1405.00 1674.00 L 1433.00 1591.00 L 1339.00 1591.00 L 1324.00 1674.00 Z" stroke-width="1" id="300-18-05" stroke="black"/>
  <path fill="none" d="M 1544.00 1674.00 L 1556.00 1592.00 L 1464.00 1592.00 L 1444.00 1591.00 L 1433.00 1591.00 L 1405.00 1674.00 Z" stroke-width="1" id="300-18-06" stroke="black"/>
  <path fill="none" d="M 1564.00 1674.00 L 1584.00 1675.00 L 1827.30 1675.00 L 1846.00 1646.00 L 1837.66 1593.00 L 1664.00 1593.00 L 1644.00 1592.00 L 1624.00 1612.00 L 1604.00 1592.00 L 1556.00 1592.00 L 1544.00 1674.00 Z" stroke-width="1" id="300-18-07" stroke="black"/>
  <path fill="none" d="M 249.85 1671.00 L 249.00 1716.00 L 230.00 1737.00 L 249.00 1744.00 L 247.77 1769.00 L 304.00 1769.00 L 324.00 1770.00 L 328.00 1770.00 L 387.00 1671.00 Z" stroke-width="1" id="300-19-01" stroke="black"/>
  <path fill="none" d="M 469.00 1770.00 L 506.00 1672.00 L 464.00 1672.00 L 444.00 1671.00 L 387.00 1671.00 L 328.00 1770.00 Z" stroke-width="1" id="300-19-02" stroke="black"/>
  <path fill="none" d="M 544.00 1770.00 L 564.00 1771.00 L 635.00 1771.00 L 648.00 1672.00 L 506.00 1672.00 L 469.00 1770.00 Z" stroke-width="1" id="300-19-03" stroke="black"/>
  <path fill="none" d="M 784.00 1771.00 L 804.00 1772.00 L 981.00 1772.00 L 1012.00 1673.00 L 844.00 1673.00 L 824.00 1672.00 L 648.00 1672.00 L 635.00 1771.00 Z" stroke-width="1" id="300-19-04" stroke="black"/>
  <path fill="none" d="M 1024.00 1772.00 L 1044.00 1773.00 L 1065.00 1773.00 L 1136.00 1673.00 L 1012.00 1673.00 L 981.00 1772.00 Z" stroke-width="1" id="300-19-05" stroke="black"/>
  <path fill="none" d="M 1264.00 1773.00 L 1284.00 1774.00 L 1289.00 1774.00 L 1285.00 1693.00 L 1284.00 1694.00 L 1244.00 1694.00 L 1224.00 1674.00 L 1204.00 1674.00 L 1184.00 1673.00 L 1136.00 1673.00 L 1065.00 1773.00 Z" stroke-width="1" id="300-19-06" stroke="black"/>
  <path fill="none" d="M 1430.00 1774.00 L 1462.00 1674.00 L 1304.00 1674.00 L 1285.00 1693.00 L 1289.00 1774.00 Z" stroke-width="1" id="300-19-07" stroke="black"/>
  <path fill="none" d="M 1504.00 1774.00 L 1524.00 1775.00 L 1544.00 1755.00 L 1564.00 1775.00 L 1744.00 1775.00 L 1764.00 1776.00 L 1786.80 1776.00 L 1797.00 1722.00 L 1827.30 1675.00 L 1584.00 1675.00 L 1564.00 1674.00 L 1462.00 1674.00 L 1430.00 1774.00 Z" stroke-width="1" id="300-19-08" stroke="black"/>
  <path fill="none" d="M 247.77 1769.00 L 246.00 1805.00 L 226.00 1834.00 L 226.00 1858.00 L 242.00 1859.00 L 241.48 1867.00 L 244.00 1867.00 L 264.00 1848.00 L 404.00 1848.00 L 424.00 1849.00 L 536.00 1849.00 L 550.00 1770.30 L 544.00 1770.00 L 324.00 1770.00 L 304.00 1769.00 Z" stroke-width="1" id="300-20-01" stroke="black"/>
  <path fill="none" d="M 584.00 1849.00 L 604.00 1850.00 L 704.00 1850.00 L 728.00 1771.00 L 564.00 1771.00 L 550.00 1770.30 L 536.00 1849.00 Z" stroke-width="1" id="300-20-02" stroke="black"/>
  <path fill="none" d="M 744.00 1850.00 L 764.00 1851.00 L 820.00 1851.00 L 836.00 1772.00 L 804.00 1772.00 L 784.00 1771.00 L 728.00 1771.00 L 704.00 1850.00 Z" stroke-width="1" id="300-20-03" stroke="black"/>
  <path fill="none" d="M 884.00 1851.00 L 904.00 1871.00 L 924.00 1872.00 L 944.00 1852.00 L 1024.00 1852.00 L 1044.00 1832.00 L 1064.00 1832.00 L 1084.00 1852.00 L 1104.00 1853.00 L 1184.00 1853.00 L 1194.00 1873.00 L 1296.00 1774.00 L 1284.00 1774.00 L 1264.00 1773.00 L 1044.00 1773.00 L 1024.00 1772.00 L 836.00 1772.00 L 820.00 1851.00 Z" stroke-width="1" id="300-20-04" stroke="black"/>
  <path fill="none" d="M 1204.00 1893.00 L 1244.00 1893.00 L 1264.00 1874.00 L 1284.00 1874.00 L 1304.00 1854.00 L 1424.00 1854.00 L 1444.00 1855.00 L 1450.00 1855.00 L 1479.00 1774.00 L 1296.00 1774.00 L 1194.00 1873.00 Z" stroke-width="1" id="300-20-05" stroke="black"/>
  <path fill="none" d="M 1584.00 1855.00 L 1604.00 1856.00 L 1704.00 1856.00 L 1724.00 1876.00 L 1744.00 1856.00 L 1764.00 1857.00 L 1798.28 1857.00 L 1780.00 1812.00 L 1786.80 1776.00 L 1764.00 1776.00 L 1744.00 1775.00 L 1564.00 1775.00 L 1544.00 1755.00 L 1524.00 1775.00 L 1504.00 1774.00 L 1479.00 1774.00 L 1450.00 1855.00 Z" stroke-width="1" id="300-20-06" stroke="black"/>
  <path fill="none" d="M 241.48 1867.00 L 240.00 1890.00 L 228.00 1909.00 L 243.00 1917.00 L 243.00 1929.00 L 344.00 1929.00 L 364.00 1930.00 L 402.00 1930.00 L 442.00 1849.00 L 424.00 1849.00 L 404.00 1848.00 L 264.00 1848.00 L 244.00 1867.00 Z" stroke-width="1" id="300-21-01" stroke="black"/>
  <path fill="none" d="M 624.00 1930.00 L 644.00 1931.00 L 664.00 1941.00 L 684.00 1943.00 L 704.00 1943.00 L 724.00 1939.00 L 742.00 1931.80 L 783.00 1851.00 L 764.00 1851.00 L 744.00 1850.00 L 604.00 1850.00 L 584.00 1849.00 L 442.00 1849.00 L 402.00 1930.00 Z" stroke-width="1" id="300-21-02" stroke="black"/>
  <path fill="none" d="M 744.00 1931.00 L 884.00 1931.00 L 904.00 1932.00 L 956.00 1932.00 L 1001.00 1852.00 L 944.00 1852.00 L 924.00 1872.00 L 904.00 1871.00 L 884.00 1851.00 L 783.00 1851.00 L 742.00 1931.80 Z" stroke-width="1" id="300-21-03" stroke="black"/>
  <path fill="none" d="M 1164.00 1932.00 L 1184.00 1933.00 L 1258.00 1933.00 L 1271.00 1874.00 L 1264.00 1874.00 L 1244.00 1893.00 L 1204.00 1893.00 L 1184.00 1853.00 L 1104.00 1853.00 L 1084.00 1852.00 L 1064.00 1832.00 L 1044.00 1832.00 L 1024.00 1852.00 L 1001.00 1852.00 L 956.00 1932.00 Z" stroke-width="1" id="300-21-04" stroke="black"/>
  <path fill="none" d="M 1378.00 1933.00 L 1384.00 1854.00 L 1304.00 1854.00 L 1284.00 1874.00 L 1271.00 1874.00 L 1258.00 1933.00 Z" stroke-width="1" id="300-21-05" stroke="black"/>
  <path fill="none" d="M 1424.00 1933.00 L 1444.00 1934.00 L 1704.00 1934.00 L 1724.00 1935.00 L 1804.59 1935.00 L 1832.00 1909.00 L 1806.00 1876.00 L 1798.28 1857.00 L 1764.00 1857.00 L 1744.00 1856.00 L 1724.00 1876.00 L 1704.00 1856.00 L 1604.00 1856.00 L 1584.00 1855.00 L 1444.00 1855.00 L 1424.00 1854.00 L 1384.00 1854.00 L 1378.00 1933.00 Z" stroke-width="1" id="300-21-06" stroke="black"/>
  <path fill="none" d="M 243.00 1929.00 L 243.00 1970.00 L 225.00 1991.00 L 238.00 2004.00 L 238.72 2017.00 L 284.00 2017.00 L 304.00 2039.00 L 344.00 2039.00 L 364.00 2041.00 L 384.00 2037.00 L 424.00 2037.00 L 444.00 2033.00 L 464.00 2033.00 L 478.00 2030.20 L 506.00 1930.00 L 364.00 1930.00 L 344.00 1929.00 Z" stroke-width="1" id="300-22-01" stroke="black"/>
  <path fill="none" d="M 484.00 2029.00 L 504.00 2021.00 L 524.00 2017.00 L 544.00 2018.00 L 580.00 2018.00 L 592.00 1930.00 L 506.00 1930.00 L 478.00 2030.20 Z" stroke-width="1" id="300-22-02" stroke="black"/>
  <path fill="none" d="M 604.00 2018.00 L 619.00 2018.75 L 687.00 1943.00 L 684.00 1943.00 L 664.00 1941.00 L 644.00 1931.00 L 624.00 1930.00 L 592.00 1930.00 L 580.00 2018.00 Z" stroke-width="1" id="300-22-03" stroke="black"/>
  <path fill="none" d="M 624.00 2019.00 L 864.00 2019.00 L 884.00 2020.00 L 1004.00 2020.00 L 1010.00 2026.00 L 1066.00 1932.00 L 904.00 1932.00 L 884.00 1931.00 L 744.00 1931.00 L 724.00 1939.00 L 704.00 1943.00 L 687.00 1943.00 L 619.00 2018.75 Z" stroke-width="1" id="300-22-04" stroke="black"/>
  <path fill="none" d="M 1024.00 2040.00 L 1044.00 2040.00 L 1064.00 2020.00 L 1124.00 2020.00 L 1144.00 2021.00 L 1236.00 2021.00 L 1224.00 1933.00 L 1184.00 1933.00 L 1164.00 1932.00 L 1066.00 1932.00 L 1010.00 2026.00 Z" stroke-width="1" id="300-22-05" stroke="black"/>
  <path fill="none" d="M 1384.00 2021.00 L 1404.00 2022.00 L 1604.00 2022.00 L 1624.00 2002.00 L 1644.00 2042.00 L 1664.00 2043.00 L 1684.00 2023.00 L 1704.00 2043.00 L 1724.00 2023.00 L 1779.00 2023.00 L 1793.00 1946.00 L 1804.59 1935.00 L 1724.00 1935.00 L 1704.00 1934.00 L 1444.00 1934.00 L 1424.00 1933.00 L 1224.00 1933.00 L 1236.00 2021.00 Z" stroke-width="1" id="300-22-06" stroke="black"/>
  <path fill="none" d="M 238.72 2017.00 L 241.00 2058.00 L 222.00 2080.00 L 241.00 2091.00 L 240.12 2105.00 L 244.00 2105.00 L 264.00 2125.00 L 284.00 2126.00 L 304.00 2106.00 L 444.00 2106.00 L 464.00 2107.00 L 524.00 2107.00 L 544.00 2127.00 L 564.00 2127.00 L 584.00 2107.00 L 617.00 2107.00 L 660.00 2019.00 L 624.00 2019.00 L 604.00 2018.00 L 544.00 2018.00 L 524.00 2017.00 L 504.00 2021.00 L 484.00 2029.00 L 464.00 2033.00 L 444.00 2033.00 L 424.00 2037.00 L 384.00 2037.00 L 364.00 2041.00 L 344.00 2039.00 L 304.00 2039.00 L 284.00 2017.00 Z" stroke-width="1" id="300-23-01" stroke="black"/>
  <path fill="none" d="M 644.00 2107.00 L 664.00 2108.00 L 804.00 2108.00 L 813.00 2019.00 L 660.00 2019.00 L 617.00 2107.00 Z" stroke-width="1" id="300-23-02" stroke="black"/>
  <path fill="none" d="M 824.00 2108.00 L 844.00 2109.00 L 1023.00 2109.00 L 1044.00 2040.00 L 1024.00 2040.00 L 1004.00 2020.00 L 884.00 2020.00 L 864.00 2019.00 L 813.00 2019.00 L 804.00 2108.00 Z" stroke-width="1" id="300-23-03" stroke="black"/>
  <path fill="none" d="M 1024.00 2109.00 L 1044.00 2110.00 L 1179.00 2110.00 L 1205.00 2021.00 L 1144.00 2021.00 L 1124.00 2020.00 L 1064.00 2020.00 L 1044.00 2040.00 L 1023.00 2109.00 Z" stroke-width="1" id="300-23-04" stroke="black"/>
  <path fill="none" d="M 1204.00 2110.00 L 1224.00 2111.00 L 1331.00 2111.00 L 1396.00 2021.60 L 1384.00 2021.00 L 1205.00 2021.00 L 1179.00 2110.00 Z" stroke-width="1" id="300-23-05" stroke="black"/>
  <path fill="none" d="M 1404.00 2111.00 L 1424.00 2112.00 L 1584.00 2112.00 L 1604.00 2113.00 L 1784.00 2113.00 L 1797.28 2113.66 L 1771.00 2067.00 L 1779.00 2023.00 L 1724.00 2023.00 L 1704.00 2043.00 L 1684.00 2023.00 L 1664.00 2043.00 L 1644.00 2042.00 L 1624.00 2002.00 L 1604.00 2022.00 L 1404.00 2022.00 L 1396.00 2021.60 L 1331.00 2111.00 Z" stroke-width="1" id="300-23-06" stroke="black"/>
  <path fill="none" d="M 240.12 2105.00 L 238.00 2139.00 L 224.00 2156.00 L 234.00 2172.00 L 234.00 2184.00 L 384.00 2184.00 L 404.00 2204.00 L 424.00 2184.00 L 465.00 2184.00 L 450.00 2106.30 L 444.00 2106.00 L 304.00 2106.00 L 284.00 2126.00 L 264.00 2125.00 L 244.00 2105.00 Z" stroke-width="1" id="300-24-01" stroke="black"/>
  <path fill="none" d="M 484.00 2184.00 L 504.00 2185.00 L 649.00 2185.00 L 656.00 2107.60 L 644.00 2107.00 L 584.00 2107.00 L 564.00 2127.00 L 544.00 2127.00 L 524.00 2107.00 L 464.00 2107.00 L 450.00 2106.30 L 465.00 2184.00 Z" stroke-width="1" id="300-24-02" stroke="black"/>
  <path fill="none" d="M 864.00 2185.00 L 916.00 2109.00 L 844.00 2109.00 L 824.00 2108.00 L 664.00 2108.00 L 656.00 2107.60 L 649.00 2185.00 Z" stroke-width="1" id="300-24-03" stroke="black"/>
  <path fill="none" d="M 884.00 2185.00 L 904.00 2186.00 L 1164.00 2186.00 L 1184.00 2226.00 L 1204.00 2206.00 L 1224.00 2226.00 L 1244.00 2186.00 L 1280.00 2186.00 L 1284.00 2111.00 L 1224.00 2111.00 L 1204.00 2110.00 L 1044.00 2110.00 L 1024.00 2109.00 L 916.00 2109.00 L 864.00 2185.00 Z" stroke-width="1" id="300-24-04" stroke="black"/>
  <path fill="none" d="M 1284.00 2186.00 L 1304.00 2187.00 L 1364.00 2187.00 L 1384.00 2167.00 L 1404.00 2187.00 L 1424.00 2207.00 L 1444.00 2187.00 L 1451.00 2187.00 L 1459.00 2112.00 L 1424.00 2112.00 L 1404.00 2111.00 L 1284.00 2111.00 L 1280.00 2186.00 Z" stroke-width="1" id="300-24-05" stroke="black"/>
  <path fill="none" d="M 1546.00 2187.00 L 1561.00 2112.00 L 1459.00 2112.00 L 1451.00 2187.00 Z" stroke-width="1" id="300-24-06" stroke="black"/>
  <path fill="none" d="M 1684.00 2187.00 L 1704.00 2188.00 L 1807.91 2188.00 L 1820.00 2154.00 L 1797.28 2113.66 L 1784.00 2113.00 L 1604.00 2113.00 L 1584.00 2112.00 L 1561.00 2112.00 L 1546.00 2187.00 Z" stroke-width="1" id="300-24-07" stroke="black"/>
  <path fill="none" d="M 234.00 2184.00 L 234.00 2226.00 L 219.00 2248.00 L 218.00 2256.00 L 229.00 2257.00 L 229.26 2272.00 L 284.00 2272.00 L 304.00 2292.00 L 324.00 2272.00 L 364.00 2272.00 L 384.00 2273.00 L 404.00 2273.00 L 424.00 2313.00 L 444.00 2293.00 L 464.00 2293.00 L 484.00 2273.00 L 525.00 2273.00 L 557.00 2185.00 L 504.00 2185.00 L 484.00 2184.00 L 424.00 2184.00 L 404.00 2204.00 L 384.00 2184.00 Z" stroke-width="1" id="300-25-01" stroke="black"/>
  <path fill="none" d="M 664.00 2273.00 L 684.00 2274.00 L 764.00 2274.00 L 784.00 2294.00 L 844.00 2294.00 L 864.00 2274.00 L 884.00 2274.00 L 944.00 2186.00 L 904.00 2186.00 L 884.00 2185.00 L 557.00 2185.00 L 525.00 2273.00 Z" stroke-width="1" id="300-25-02" stroke="black"/>
  <path fill="none" d="M 964.00 2274.00 L 984.00 2275.00 L 1022.00 2275.00 L 1070.00 2186.00 L 944.00 2186.00 L 884.00 2274.00 Z" stroke-width="1" id="300-25-03" stroke="black"/>
  <path fill="none" d="M 1264.00 2275.00 L 1284.00 2276.00 L 1290.00 2276.00 L 1315.00 2187.00 L 1304.00 2187.00 L 1284.00 2186.00 L 1244.00 2186.00 L 1224.00 2226.00 L 1204.00 2206.00 L 1184.00 2226.00 L 1164.00 2186.00 L 1070.00 2186.00 L 1022.00 2275.00 Z" stroke-width="1" id="300-25-04" stroke="black"/>
  <path fill="none" d="M 1324.00 2276.00 L 1333.00 2282.75 L 1424.00 2207.00 L 1404.00 2187.00 L 1384.00 2167.00 L 1364.00 2187.00 L 1315.00 2187.00 L 1290.00 2276.00 Z" stroke-width="1" id="300-25-05" stroke="black"/>
  <path fill="none" d="M 1344.00 2291.00 L 1364.00 2316.00 L 1384.00 2296.00 L 1404.00 2276.00 L 1502.00 2276.00 L 1520.00 2187.00 L 1444.00 2187.00 L 1424.00 2207.00 L 1333.00 2282.75 Z" stroke-width="1" id="300-25-06" stroke="black"/>
  <path fill="none" d="M 1564.00 2276.00 L 1584.00 2277.00 L 1711.00 2277.00 L 1737.91 2188.00 L 1704.00 2188.00 L 1684.00 2187.00 L 1520.00 2187.00 L 1502.00 2276.00 Z" stroke-width="1" id="300-25-07" stroke="black"/>
  <path fill="none" d="M 1747.81 2277.00 L 1804.00 2199.00 L 1807.91 2188.00 L 1737.91 2188.00 L 1711.00 2277.00 Z" stroke-width="1" id="300-25-08" stroke="black"/>
  <path fill="none" d="M 229.26 2272.00 L 230.00 2314.00 L 223.00 2332.00 L 229.00 2346.00 L 228.08 2362.00 L 264.00 2362.00 L 284.00 2342.00 L 304.00 2362.00 L 344.00 2362.00 L 364.00 2363.00 L 476.00 2363.00 L 496.00 2273.00 L 484.00 2273.00 L 464.00 2293.00 L 444.00 2293.00 L 424.00 2313.00 L 404.00 2273.00 L 384.00 2273.00 L 364.00 2272.00 L 324.00 2272.00 L 304.00 2292.00 L 284.00 2272.00 Z" stroke-width="1" id="300-26-01" stroke="black"/>
  <path fill="none" d="M 594.00 2363.00 L 616.00 2273.00 L 496.00 2273.00 L 476.00 2363.00 Z" stroke-width="1" id="300-26-02" stroke="black"/>
  <path fill="none" d="M 604.00 2363.00 L 624.00 2364.00 L 782.00 2364.00 L 832.00 2294.00 L 784.00 2294.00 L 764.00 2274.00 L 684.00 2274.00 L 664.00 2273.00 L 616.00 2273.00 L 594.00 2363.00 Z" stroke-width="1" id="300-26-03" stroke="black"/>
  <path fill="none" d="M 784.00 2364.00 L 804.00 2384.00 L 824.00 2364.00 L 864.00 2364.00 L 884.00 2365.00 L 1060.00 2365.00 L 1090.00 2275.00 L 984.00 2275.00 L 964.00 2274.00 L 864.00 2274.00 L 844.00 2294.00 L 832.00 2294.00 L 782.00 2364.00 Z" stroke-width="1" id="300-26-04" stroke="black"/>
  <path fill="none" d="M 1144.00 2365.00 L 1164.00 2366.00 L 1242.00 2366.00 L 1257.00 2275.00 L 1090.00 2275.00 L 1060.00 2365.00 Z" stroke-width="1" id="300-26-05" stroke="black"/>
  <path fill="none" d="M 1404.00 2366.00 L 1424.00 2367.00 L 1591.00 2367.00 L 1612.81 2277.00 L 1584.00 2277.00 L 1564.00 2276.00 L 1404.00 2276.00 L 1384.00 2296.00 L 1364.00 2316.00 L 1344.00 2291.00 L 1324.00 2276.00 L 1284.00 2276.00 L 1264.00 2275.00 L 1257.00 2275.00 L 1242.00 2366.00 Z" stroke-width="1" id="300-26-06" stroke="black"/>
  <path fill="none" d="M 1664.00 2367.00 L 1684.00 2368.00 L 1831.72 2368.00 L 1826.00 2365.00 L 1731.00 2348.00 L 1737.00 2292.00 L 1747.81 2277.00 L 1612.81 2277.00 L 1591.00 2367.00 Z" stroke-width="1" id="300-26-07" stroke="black"/>
  <path fill="none" d="M 228.08 2362.00 L 226.00 2398.00 L 212.00 2417.00 L 222.00 2430.00 L 222.36 2451.00 L 376.36 2451.00 L 383.00 2363.00 L 364.00 2363.00 L 344.00 2362.00 L 304.00 2362.00 L 284.00 2342.00 L 264.00 2362.00 Z" stroke-width="1" id="300-27-01" stroke="black"/>
  <path fill="none" d="M 473.36 2451.00 L 510.00 2363.00 L 383.00 2363.00 L 376.36 2451.00 Z" stroke-width="1" id="300-27-02" stroke="black"/>
  <path fill="none" d="M 524.00 2451.00 L 544.00 2452.00 L 564.00 2472.00 L 604.00 2472.00 L 624.00 2452.00 L 644.00 2452.00 L 664.00 2432.00 L 684.00 2472.00 L 724.00 2472.00 L 744.00 2452.00 L 828.00 2452.00 L 842.00 2364.00 L 824.00 2364.00 L 804.00 2384.00 L 784.00 2364.00 L 624.00 2364.00 L 604.00 2363.00 L 510.00 2363.00 L 473.36 2451.00 Z" stroke-width="1" id="300-27-03" stroke="black"/>
  <path fill="none" d="M 984.00 2452.00 L 1004.00 2453.00 L 1088.00 2453.00 L 1093.00 2365.00 L 884.00 2365.00 L 864.00 2364.00 L 842.00 2364.00 L 828.00 2452.00 Z" stroke-width="1" id="300-27-04" stroke="black"/>
  <path fill="none" d="M 1131.00 2453.00 L 1140.00 2365.00 L 1093.00 2365.00 L 1088.00 2453.00 Z" stroke-width="1" id="300-27-05" stroke="black"/>
  <path fill="none" d="M 1202.00 2453.00 L 1221.00 2366.00 L 1164.00 2366.00 L 1144.00 2365.00 L 1140.00 2365.00 L 1131.00 2453.00 Z" stroke-width="1" id="300-27-06" stroke="black"/>
  <path fill="none" d="M 1444.00 2453.00 L 1464.00 2454.00 L 1465.00 2454.00 L 1476.00 2367.00 L 1424.00 2367.00 L 1404.00 2366.00 L 1221.00 2366.00 L 1202.00 2453.00 Z" stroke-width="1" id="300-27-07" stroke="black"/>
  <path fill="none" d="M 1604.00 2454.00 L 1627.00 2367.00 L 1476.00 2367.00 L 1465.00 2454.00 Z" stroke-width="1" id="300-27-08" stroke="black"/>
  <path fill="none" d="M 1644.00 2454.00 L 1664.00 2434.00 L 1684.00 2454.00 L 1704.00 2434.00 L 1724.00 2454.00 L 1860.39 2454.00 L 1880.00 2425.00 L 1887.00 2397.00 L 1831.72 2368.00 L 1684.00 2368.00 L 1664.00 2367.00 L 1627.00 2367.00 L 1604.00 2454.00 Z" stroke-width="1" id="300-27-09" stroke="black"/>
  <path fill="none" d="M 222.36 2451.00 L 223.00 2488.00 L 212.00 2504.00 L 221.00 2516.00 L 220.80 2527.00 L 388.80 2527.00 L 433.00 2451.00 Z" stroke-width="1" id="300-28-01" stroke="black"/>
  <path fill="none" d="M 609.80 2527.00 L 611.00 2465.00 L 604.00 2472.00 L 564.00 2472.00 L 544.00 2452.00 L 524.00 2451.00 L 433.00 2451.00 L 388.80 2527.00 Z" stroke-width="1" id="300-28-02" stroke="black"/>
  <path fill="none" d="M 644.00 2527.00 L 664.00 2547.00 L 684.00 2547.00 L 704.00 2527.00 L 950.00 2527.00 L 960.00 2452.00 L 744.00 2452.00 L 724.00 2472.00 L 684.00 2472.00 L 664.00 2432.00 L 644.00 2452.00 L 624.00 2452.00 L 611.00 2465.00 L 609.80 2527.00 Z" stroke-width="1" id="300-28-03" stroke="black"/>
  <path fill="none" d="M 1004.00 2527.00 L 1024.00 2547.00 L 1044.00 2547.00 L 1064.00 2527.00 L 1078.00 2527.00 L 1100.00 2453.00 L 1004.00 2453.00 L 984.00 2452.00 L 960.00 2452.00 L 950.00 2527.00 Z" stroke-width="1" id="300-28-04" stroke="black"/>
  <path fill="none" d="M 1268.00 2527.00 L 1299.00 2453.00 L 1100.00 2453.00 L 1078.00 2527.00 Z" stroke-width="1" id="300-28-05" stroke="black"/>
  <path fill="none" d="M 1367.00 2527.00 L 1389.00 2453.00 L 1299.00 2453.00 L 1268.00 2527.00 Z" stroke-width="1" id="300-28-06" stroke="black"/>
  <path fill="none" d="M 1584.00 2527.00 L 1619.00 2454.00 L 1464.00 2454.00 L 1444.00 2453.00 L 1389.00 2453.00 L 1367.00 2527.00 Z" stroke-width="1" id="300-28-07" stroke="black"/>
  <path fill="none" d="M 1709.00 2527.00 L 1752.39 2454.00 L 1724.00 2454.00 L 1704.00 2434.00 L 1684.00 2454.00 L 1664.00 2434.00 L 1644.00 2454.00 L 1619.00 2454.00 L 1584.00 2527.00 Z" stroke-width="1" id="300-28-08" stroke="black"/>
  <path fill="none" d="M 1846.49 2527.00 L 1832.00 2496.00 L 1860.39 2454.00 L 1752.39 2454.00 L 1709.00 2527.00 Z" stroke-width="1" id="300-28-09" stroke="black"/>
  <path fill="none" d="M 220.80 2527.00 L 220.00 2570.00 L 208.00 2590.00 L 218.00 2598.00 L 218.00 2612.00 L 415.00 2612.00 L 432.00 2527.00 Z" stroke-width="1" id="300-29-01" stroke="black"/>
  <path fill="none" d="M 424.00 2612.00 L 444.00 2633.00 L 464.00 2613.00 L 516.00 2613.00 L 552.00 2527.00 L 432.00 2527.00 L 415.00 2612.00 Z" stroke-width="1" id="300-29-02" stroke="black"/>
  <path fill="none" d="M 658.00 2613.00 L 684.00 2547.00 L 664.00 2547.00 L 644.00 2527.00 L 552.00 2527.00 L 516.00 2613.00 Z" stroke-width="1" id="300-29-03" stroke="black"/>
  <path fill="none" d="M 704.00 2613.00 L 724.00 2653.00 L 744.00 2653.00 L 764.00 2633.00 L 784.00 2613.00 L 804.00 2614.00 L 929.00 2614.00 L 973.00 2527.00 L 704.00 2527.00 L 684.00 2547.00 L 658.00 2613.00 Z" stroke-width="1" id="300-29-04" stroke="black"/>
  <path fill="none" d="M 1138.00 2614.00 L 1160.49 2527.00 L 1064.00 2527.00 L 1044.00 2547.00 L 1024.00 2547.00 L 1004.00 2527.00 L 973.00 2527.00 L 929.00 2614.00 Z" stroke-width="1" id="300-29-05" stroke="black"/>
  <path fill="none" d="M 1144.00 2614.00 L 1164.00 2615.00 L 1324.00 2615.00 L 1344.00 2635.00 L 1364.00 2615.00 L 1383.49 2527.00 L 1160.49 2527.00 L 1138.00 2614.00 Z" stroke-width="1" id="300-29-06" stroke="black"/>
  <path fill="none" d="M 1464.00 2615.00 L 1527.49 2527.00 L 1383.49 2527.00 L 1364.00 2615.00 Z" stroke-width="1" id="300-29-07" stroke="black"/>
  <path fill="none" d="M 1484.00 2635.00 L 1504.00 2636.00 L 1524.00 2616.00 L 1677.00 2616.00 L 1689.49 2527.00 L 1527.49 2527.00 L 1464.00 2615.00 Z" stroke-width="1" id="300-29-08" stroke="black"/>
  <path fill="none" d="M 1811.00 2616.00 L 1877.00 2602.00 L 1868.00 2573.00 L 1846.49 2527.00 L 1689.49 2527.00 L 1677.00 2616.00 Z" stroke-width="1" id="300-29-09" stroke="black"/>
  <path fill="none" d="M 218.00 2612.00 L 218.00 2654.00 L 202.00 2672.00 L 219.00 2688.00 L 218.38 2696.00 L 244.00 2696.00 L 264.00 2697.00 L 364.00 2697.00 L 384.00 2717.00 L 404.00 2717.00 L 422.00 2699.90 L 444.00 2633.00 L 424.00 2612.00 Z" stroke-width="1" id="300-30-01" stroke="black"/>
  <path fill="none" d="M 424.00 2698.00 L 529.00 2698.00 L 564.00 2613.00 L 464.00 2613.00 L 444.00 2633.00 L 422.00 2699.90 Z" stroke-width="1" id="300-30-02" stroke="black"/>
  <path fill="none" d="M 564.00 2698.00 L 584.00 2699.00 L 744.00 2699.00 L 764.00 2700.00 L 766.00 2700.00 L 764.00 2633.00 L 744.00 2653.00 L 724.00 2653.00 L 704.00 2613.00 L 564.00 2613.00 L 529.00 2698.00 Z" stroke-width="1" id="300-30-03" stroke="black"/>
  <path fill="none" d="M 842.00 2700.00 L 899.00 2614.00 L 804.00 2614.00 L 784.00 2613.00 L 764.00 2633.00 L 766.00 2700.00 Z" stroke-width="1" id="300-30-04" stroke="black"/>
  <path fill="none" d="M 844.00 2700.00 L 864.00 2720.00 L 884.00 2700.00 L 904.00 2700.00 L 924.00 2701.00 L 1064.00 2701.00 L 1084.00 2702.00 L 1202.00 2702.00 L 1253.00 2615.00 L 1164.00 2615.00 L 1144.00 2614.00 L 899.00 2614.00 L 842.00 2700.00 Z" stroke-width="1" id="300-30-05" stroke="black"/>
  <path fill="none" d="M 1224.00 2702.00 L 1244.00 2682.00 L 1264.00 2703.00 L 1404.00 2703.00 L 1424.00 2704.00 L 1433.00 2704.00 L 1484.00 2635.00 L 1464.00 2615.00 L 1364.00 2615.00 L 1344.00 2635.00 L 1324.00 2615.00 L 1253.00 2615.00 L 1202.00 2702.00 Z" stroke-width="1" id="300-30-06" stroke="black"/>
  <path fill="none" d="M 1564.00 2704.00 L 1581.00 2704.85 L 1626.00 2616.00 L 1524.00 2616.00 L 1504.00 2636.00 L 1484.00 2635.00 L 1433.00 2704.00 Z" stroke-width="1" id="300-30-07" stroke="black"/>
  <path fill="none" d="M 1584.00 2705.00 L 1744.00 2705.00 L 1764.00 2706.00 L 1791.50 2706.00 L 1761.00 2684.00 L 1778.00 2623.00 L 1811.00 2616.00 L 1626.00 2616.00 L 1581.00 2704.85 Z" stroke-width="1" id="300-30-08" stroke="black"/>
  <path fill="none" d="M 218.38 2696.00 L 215.00 2740.00 L 208.00 2758.00 L 214.00 2774.00 L 213.12 2799.00 L 244.00 2799.00 L 264.00 2800.00 L 303.00 2800.00 L 381.00 2714.00 L 364.00 2697.00 L 264.00 2697.00 L 244.00 2696.00 Z" stroke-width="1" id="300-31-01" stroke="black"/>
  <path fill="none" d="M 304.00 2800.00 L 324.00 2820.00 L 384.00 2820.00 L 404.00 2800.00 L 424.00 2801.00 L 504.00 2801.00 L 524.00 2781.00 L 544.00 2801.00 L 564.00 2801.00 L 584.00 2802.00 L 630.00 2802.00 L 693.00 2699.00 L 584.00 2699.00 L 564.00 2698.00 L 424.00 2698.00 L 404.00 2717.00 L 384.00 2717.00 L 381.00 2714.00 L 303.00 2800.00 Z" stroke-width="1" id="300-31-02" stroke="black"/>
  <path fill="none" d="M 681.71 2802.00 L 678.00 2793.00 L 756.00 2781.00 L 749.52 2802.28 L 764.00 2803.00 L 765.50 2803.00 L 782.00 2802.00 L 852.00 2774.00 L 1057.00 2776.99 L 1061.00 2701.00 L 924.00 2701.00 L 904.00 2700.00 L 884.00 2700.00 L 864.00 2720.00 L 844.00 2700.00 L 764.00 2700.00 L 744.00 2699.00 L 693.00 2699.00 L 630.00 2802.00 Z" stroke-width="1" id="300-31-03" stroke="black"/>
  <path fill="none" d="M 1217.00 2779.32 L 1268.00 2703.00 L 1264.00 2703.00 L 1244.00 2682.00 L 1224.00 2702.00 L 1084.00 2702.00 L 1064.00 2701.00 L 1061.00 2701.00 L 1057.00 2776.99 Z" stroke-width="1" id="300-31-04" stroke="black"/>
  <path fill="none" d="M 1264.00 2780.00 L 1262.27 2805.91 L 1264.00 2806.00 L 1280.67 2806.00 L 1318.00 2798.00 L 1340.00 2778.00 L 1469.00 2777.64 L 1493.00 2704.00 L 1424.00 2704.00 L 1404.00 2703.00 L 1268.00 2703.00 L 1217.00 2779.32 Z" stroke-width="1" id="300-31-05" stroke="black"/>
  <path fill="none" d="M 1543.00 2777.43 L 1559.00 2704.00 L 1493.00 2704.00 L 1469.00 2777.64 Z" stroke-width="1" id="300-31-06" stroke="black"/>
  <path fill="none" d="M 1679.00 2777.05 L 1718.00 2705.00 L 1584.00 2705.00 L 1564.00 2704.00 L 1559.00 2704.00 L 1543.00 2777.43 Z" stroke-width="1" id="300-31-07" stroke="black"/>
  <path fill="none" d="M 1695.00 2777.00 L 1688.00 2794.00 L 1737.00 2792.00 L 1845.00 2756.00 L 1822.00 2728.00 L 1791.50 2706.00 L 1764.00 2706.00 L 1744.00 2705.00 L 1718.00 2705.00 L 1679.00 2777.05 Z" stroke-width="1" id="300-31-08" stroke="black"/>
  <path fill="none" d="M 213.12 2799.00 L 212.00 2831.00 L 204.00 2848.00 L 213.00 2856.00 L 528.00 2864.91 L 513.00 2792.00 L 504.00 2801.00 L 424.00 2801.00 L 404.00 2800.00 L 384.00 2820.00 L 324.00 2820.00 L 304.00 2800.00 L 264.00 2800.00 L 244.00 2799.00 Z" stroke-width="1" id="300-32-01" stroke="black"/>
  <path fill="none" d="M 568.89 2866.07 L 584.00 2857.00 L 684.00 2857.00 L 704.00 2853.00 L 710.87 2844.76 L 699.00 2844.00 L 681.71 2802.00 L 584.00 2802.00 L 564.00 2801.00 L 544.00 2801.00 L 524.00 2781.00 L 513.00 2792.00 L 528.00 2864.91 Z" stroke-width="1" id="300-32-02" stroke="black"/>
  <path fill="none" d="M 612.94 2952.00 L 664.00 2952.00 L 684.00 2953.00 L 688.00 2953.00 L 823.00 2855.00 L 764.00 2855.00 L 744.00 2859.00 L 724.00 2867.00 L 704.00 2877.00 L 701.13 2879.30 L 674.00 2916.00 L 668.00 2939.00 Z" stroke-width="1" id="300-33-01" stroke="black"/>
  <path fill="none" d="M 864.00 2953.00 L 884.00 2954.00 L 960.00 2954.00 L 971.00 2869.61 L 846.75 2854.73 L 844.00 2855.00 L 823.00 2855.00 L 688.00 2953.00 Z" stroke-width="1" id="300-33-02" stroke="black"/>
  <path fill="none" d="M 1024.00 2954.00 L 1044.00 2974.00 L 1064.00 2994.00 L 1084.00 2975.00 L 1104.00 2955.00 L 1264.00 2955.00 L 1284.00 2956.00 L 1384.00 2956.00 L 1404.00 2996.00 L 1424.00 2996.00 L 1444.00 2976.00 L 1464.00 2957.00 L 1481.00 2957.00 L 1502.00 2876.69 L 1454.00 2874.00 L 1016.00 2875.00 L 971.00 2869.61 L 960.00 2954.00 Z" stroke-width="1" id="300-33-03" stroke="black"/>
  <path fill="none" d="M 1544.00 2957.00 L 1564.00 2977.00 L 1584.00 2977.00 L 1604.00 2957.00 L 1644.00 2957.00 L 1664.00 2958.00 L 1785.49 2958.00 L 1798.00 2917.00 L 1740.00 2890.00 L 1502.00 2876.69 L 1481.00 2957.00 Z" stroke-width="1" id="300-33-04" stroke="black"/>
  <path fill="none" d="M 206.00 2996.00 L 196.00 3011.00 L 208.00 3020.00 L 208.00 3035.00 L 258.00 3035.00 L 303.00 2961.76 L 230.00 2976.00 Z" stroke-width="1" id="300-34-01" stroke="black"/>
  <path fill="none" d="M 304.00 3035.00 L 324.00 3036.00 L 481.00 3036.00 L 516.00 2954.68 L 353.00 2952.00 L 303.00 2961.76 L 258.00 3035.00 Z" stroke-width="1" id="300-34-02" stroke="black"/>
  <path fill="none" d="M 524.00 3036.00 L 544.00 3037.00 L 633.00 3037.00 L 654.00 2952.00 L 612.94 2952.00 L 596.00 2956.00 L 516.00 2954.68 L 481.00 3036.00 Z" stroke-width="1" id="300-34-03" stroke="black"/>
  <path fill="none" d="M 744.00 3037.00 L 764.00 3038.00 L 921.00 3038.00 L 930.00 2954.00 L 884.00 2954.00 L 864.00 2953.00 L 684.00 2953.00 L 664.00 2952.00 L 654.00 2952.00 L 633.00 3037.00 Z" stroke-width="1" id="300-34-04" stroke="black"/>
  <path fill="none" d="M 924.00 3038.00 L 944.00 3058.00 L 964.00 3058.00 L 984.00 3039.00 L 999.00 3054.00 L 1053.00 2983.00 L 1044.00 2974.00 L 1024.00 2954.00 L 930.00 2954.00 L 921.00 3038.00 Z" stroke-width="1" id="300-34-05" stroke="black"/>
  <path fill="none" d="M 1004.00 3059.00 L 1024.00 3079.00 L 1044.00 3059.00 L 1064.00 3059.00 L 1084.00 3039.00 L 1184.00 3039.00 L 1204.00 3040.00 L 1222.00 3040.00 L 1247.00 2955.00 L 1104.00 2955.00 L 1084.00 2975.00 L 1064.00 2994.00 L 1053.00 2983.00 L 999.00 3054.00 Z" stroke-width="1" id="300-34-06" stroke="black"/>
  <path fill="none" d="M 1404.00 3040.00 L 1424.00 3041.00 L 1583.00 3041.00 L 1587.00 2974.00 L 1584.00 2977.00 L 1564.00 2977.00 L 1544.00 2957.00 L 1464.00 2957.00 L 1444.00 2976.00 L 1424.00 2996.00 L 1404.00 2996.00 L 1384.00 2956.00 L 1284.00 2956.00 L 1264.00 2955.00 L 1247.00 2955.00 L 1222.00 3040.00 Z" stroke-width="1" id="300-34-07" stroke="black"/>
  <path fill="none" d="M 1624.00 3041.00 L 1644.00 3042.00 L 1792.29 3042.00 L 1791.00 3024.00 L 1780.00 2976.00 L 1785.49 2958.00 L 1664.00 2958.00 L 1644.00 2957.00 L 1604.00 2957.00 L 1587.00 2974.00 L 1583.00 3041.00 Z" stroke-width="1" id="300-34-08" stroke="black"/>
  <path fill="none" d="M 208.00 3035.00 L 208.00 3072.00 L 190.00 3085.00 L 194.00 3100.00 L 205.00 3114.00 L 221.12 3120.00 L 263.12 3120.00 L 288.00 3035.00 Z" stroke-width="1" id="300-35-01" stroke="black"/>
  <path fill="none" d="M 264.00 3120.00 L 284.00 3140.00 L 304.00 3140.00 L 324.00 3121.00 L 524.00 3121.00 L 544.00 3122.00 L 614.00 3122.00 L 663.00 3037.00 L 544.00 3037.00 L 524.00 3036.00 L 324.00 3036.00 L 304.00 3035.00 L 288.00 3035.00 L 263.12 3120.00 Z" stroke-width="1" id="300-35-02" stroke="black"/>
  <path fill="none" d="M 639.86 3122.00 L 698.00 3118.00 L 715.38 3122.00 L 744.00 3122.00 L 764.00 3123.00 L 784.00 3123.00 L 803.22 3142.22 L 806.62 3143.00 L 902.18 3143.00 L 904.10 3142.90 L 924.00 3123.00 L 938.00 3123.00 L 947.00 3058.00 L 944.00 3058.00 L 924.00 3038.00 L 764.00 3038.00 L 744.00 3037.00 L 663.00 3037.00 L 614.00 3122.00 Z" stroke-width="1" id="300-35-03" stroke="black"/>
  <path fill="none" d="M 964.00 3123.00 L 984.00 3124.00 L 1130.00 3124.00 L 1141.00 3039.00 L 1084.00 3039.00 L 1064.00 3059.00 L 1044.00 3059.00 L 1024.00 3079.00 L 1004.00 3059.00 L 984.00 3039.00 L 964.00 3058.00 L 947.00 3058.00 L 938.00 3123.00 Z" stroke-width="1" id="300-35-04" stroke="black"/>
  <path fill="none" d="M 1184.00 3124.00 L 1204.00 3125.00 L 1326.00 3125.00 L 1359.00 3040.00 L 1204.00 3040.00 L 1184.00 3039.00 L 1141.00 3039.00 L 1130.00 3124.00 Z" stroke-width="1" id="300-35-05" stroke="black"/>
  <path fill="none" d="M 1404.00 3125.00 L 1421.14 3125.86 L 1527.14 3122.98 L 1546.00 3041.00 L 1424.00 3041.00 L 1404.00 3040.00 L 1359.00 3040.00 L 1326.00 3125.00 Z" stroke-width="1" id="300-35-06" stroke="black"/>
  <path fill="none" d="M 1637.00 3120.00 L 1651.00 3119.10 L 1661.29 3042.00 L 1644.00 3042.00 L 1624.00 3041.00 L 1546.00 3041.00 L 1527.14 3122.98 Z" stroke-width="1" id="300-35-07" stroke="black"/>
  <path fill="none" d="M 1793.00 3110.00 L 1796.00 3094.00 L 1792.29 3042.00 L 1661.29 3042.00 L 1651.00 3119.10 Z" stroke-width="1" id="300-35-08" stroke="black"/>
</svg>
