<?xml version="1.0" encoding="UTF-8"?>
<svg xmlns:xlink="http://www.w3.org/1999/xlink" xmlns="http://www.w3.org/2000/svg" contentScriptType="text/ecmascript" width="2077px" zoomAndPan="magnify" contentStyleType="text/css" viewBox="0 0 2077 3271" height="3271px" preserveAspectRatio="xMidYMid meet" version="1.0">
  <path fill="none" d="M 284.00 198.00 L 284.53 208.89 L 304.00 205.00 L 404.00 205.00 L 424.00 207.00 L 444.00 211.00 L 464.00 211.00 L 484.00 213.00 L 504.00 216.00 L 544.00 216.00 L 546.00 216.10 L 577.00 126.30 L 564.00 125.00 L 544.00 123.00 L 484.00 123.00 L 464.00 119.00 L 444.00 115.00 L 433.13 112.83 L 410.43 111.00 L 404.00 111.00 L 399.67 110.13 L 398.00 110.00 L 373.00 114.00 Z" stroke-width="1" id="301-03-01" stroke="black"/>
  <path fill="none" d="M 564.00 217.00 L 624.00 217.00 L 644.00 218.00 L 684.00 218.00 L 704.00 219.00 L 744.00 219.00 L 764.00 220.00 L 824.00 220.00 L 831.00 220.35 L 866.00 136.56 L 746.00 138.00 L 609.29 127.00 L 584.00 127.00 L 577.00 126.30 L 546.00 216.10 Z" stroke-width="1" id="301-03-02" stroke="black"/>
  <path fill="none" d="M 844.00 221.00 L 884.00 221.00 L 904.00 222.00 L 964.00 222.00 L 984.00 223.00 L 1024.00 223.00 L 1032.00 223.40 L 1087.00 127.42 L 996.00 135.00 L 866.00 136.56 L 831.00 220.35 Z" stroke-width="1" id="301-03-03" stroke="black"/>
  <path fill="none" d="M 1044.00 224.00 L 1104.00 224.00 L 1124.00 225.00 L 1164.00 225.00 L 1184.00 226.00 L 1224.00 226.00 L 1244.00 227.00 L 1304.00 227.00 L 1324.00 228.00 L 1364.00 228.00 L 1384.00 229.00 L 1444.00 229.00 L 1464.00 230.00 L 1504.00 230.00 L 1524.00 231.00 L 1584.00 231.00 L 1604.00 232.00 L 1608.00 232.00 L 1612.00 145.00 L 1276.00 127.00 L 1224.00 127.00 L 1204.98 123.20 L 1164.00 121.00 L 1087.00 127.42 L 1032.00 223.40 Z" stroke-width="1" id="301-03-04" stroke="black"/>
  <path fill="none" d="M 1644.00 232.00 L 1664.00 233.00 L 1704.00 233.00 L 1724.00 234.00 L 1784.00 234.00 L 1804.00 235.00 L 1844.00 235.00 L 1864.00 236.00 L 1924.00 236.00 L 1944.00 237.00 L 1949.00 237.00 L 1964.00 139.00 L 1944.00 129.00 L 1924.00 129.00 L 1904.00 131.00 L 1864.00 131.00 L 1844.00 149.00 L 1824.00 145.00 L 1800.23 145.00 L 1796.00 155.00 L 1668.00 148.00 L 1612.00 145.00 L 1608.00 232.00 Z" stroke-width="1" id="301-03-05" stroke="black"/>
  <path fill="none" d="M 1984.00 237.00 L 2004.00 238.00 L 2032.45 238.00 L 2035.00 223.00 L 2036.00 203.00 L 2017.33 137.67 L 2004.00 139.00 L 1964.00 139.00 L 1949.00 237.00 Z" stroke-width="1" id="301-03-06" stroke="black"/>
  <path fill="none" d="M 313.44 311.00 L 305.00 355.00 L 290.00 375.00 L 318.00 392.00 L 313.38 405.38 L 324.00 416.00 L 364.00 416.00 L 384.00 396.00 L 404.00 397.00 L 432.00 397.00 L 468.00 311.00 Z" stroke-width="1" id="301-05-01" stroke="black"/>
  <path fill="none" d="M 504.00 397.00 L 524.00 398.00 L 544.00 398.00 L 564.00 438.00 L 584.00 418.00 L 604.00 418.00 L 624.00 399.00 L 648.00 399.00 L 661.00 311.00 L 468.00 311.00 L 432.00 397.00 Z" stroke-width="1" id="301-05-02" stroke="black"/>
  <path fill="none" d="M 724.00 399.00 L 744.00 400.00 L 784.00 400.00 L 789.00 410.00 L 871.00 311.00 L 661.00 311.00 L 648.00 399.00 Z" stroke-width="1" id="301-05-03" stroke="black"/>
  <path fill="none" d="M 804.00 440.00 L 824.00 420.00 L 844.00 401.00 L 944.00 401.00 L 964.00 402.00 L 1036.00 402.00 L 1076.00 315.00 L 984.00 315.00 L 964.00 313.00 L 924.00 313.00 L 904.00 311.00 L 871.00 311.00 L 789.00 410.00 Z" stroke-width="1" id="301-05-04" stroke="black"/>
  <path fill="none" d="M 1044.00 402.00 L 1064.00 403.00 L 1164.00 403.00 L 1184.00 404.00 L 1264.00 404.00 L 1284.00 405.00 L 1384.00 405.00 L 1404.00 406.00 L 1419.00 406.00 L 1437.00 312.40 L 1424.00 315.00 L 1076.00 315.00 L 1036.00 402.00 Z" stroke-width="1" id="301-05-05" stroke="black"/>
  <path fill="none" d="M 1484.00 406.00 L 1504.00 407.00 L 1562.00 407.00 L 1587.00 313.00 L 1564.00 313.00 L 1544.00 311.00 L 1444.00 311.00 L 1437.00 312.40 L 1419.00 406.00 Z" stroke-width="1" id="301-05-06" stroke="black"/>
  <path fill="none" d="M 1604.00 407.00 L 1624.00 408.00 L 1704.00 408.00 L 1724.00 409.00 L 1745.00 409.00 L 1786.00 313.20 L 1784.00 313.00 L 1587.00 313.00 L 1562.00 407.00 Z" stroke-width="1" id="301-05-07" stroke="black"/>
  <path fill="none" d="M 1824.00 409.00 L 1844.00 410.00 L 1884.00 410.00 L 1904.00 430.00 L 1924.00 410.00 L 1936.00 410.60 L 1923.36 315.00 L 1804.00 315.00 L 1786.00 313.20 L 1745.00 409.00 Z" stroke-width="1" id="301-05-08" stroke="black"/>
  <path fill="none" d="M 1944.00 411.00 L 2014.20 411.00 L 2018.00 323.00 L 2019.36 315.00 L 1923.36 315.00 L 1936.00 410.60 Z" stroke-width="1" id="301-05-09" stroke="black"/>
  <path fill="none" d="M 313.38 405.38 L 299.00 447.00 L 284.00 460.00 L 302.00 478.00 L 302.00 485.00 L 304.00 484.00 L 364.00 484.00 L 384.00 485.00 L 444.00 485.00 L 464.00 486.00 L 495.00 486.00 L 538.00 398.00 L 524.00 398.00 L 504.00 397.00 L 404.00 397.00 L 384.00 396.00 L 364.00 416.00 L 324.00 416.00 Z" stroke-width="1" id="301-06-01" stroke="black"/>
  <path fill="none" d="M 524.00 486.00 L 544.00 487.00 L 604.00 487.00 L 624.00 488.00 L 670.00 488.00 L 713.00 399.00 L 624.00 399.00 L 604.00 418.00 L 584.00 418.00 L 564.00 438.00 L 544.00 398.00 L 538.00 398.00 L 495.00 486.00 Z" stroke-width="1" id="301-06-02" stroke="black"/>
  <path fill="none" d="M 684.00 488.00 L 704.00 489.00 L 764.00 489.00 L 784.00 490.00 L 824.00 490.00 L 844.00 470.00 L 864.00 491.00 L 875.00 491.00 L 920.00 401.00 L 844.00 401.00 L 824.00 420.00 L 804.00 440.00 L 784.00 400.00 L 744.00 400.00 L 724.00 399.00 L 713.00 399.00 L 670.00 488.00 Z" stroke-width="1" id="301-06-03" stroke="black"/>
  <path fill="none" d="M 924.00 491.00 L 944.00 492.00 L 1004.00 492.00 L 1024.00 493.00 L 1062.00 493.00 L 1095.00 403.00 L 1064.00 403.00 L 1044.00 402.00 L 964.00 402.00 L 944.00 401.00 L 920.00 401.00 L 875.00 491.00 Z" stroke-width="1" id="301-06-04" stroke="black"/>
  <path fill="none" d="M 1084.00 493.00 L 1104.00 494.00 L 1142.00 494.00 L 1190.00 404.00 L 1184.00 404.00 L 1164.00 403.00 L 1095.00 403.00 L 1062.00 493.00 Z" stroke-width="1" id="301-06-05" stroke="black"/>
  <path fill="none" d="M 1164.00 494.00 L 1184.00 495.00 L 1244.00 495.00 L 1264.00 496.00 L 1322.00 496.00 L 1375.00 405.00 L 1284.00 405.00 L 1264.00 404.00 L 1190.00 404.00 L 1142.00 494.00 Z" stroke-width="1" id="301-06-06" stroke="black"/>
  <path fill="none" d="M 1324.00 496.00 L 1344.00 517.00 L 1364.00 497.00 L 1404.00 497.00 L 1424.00 498.00 L 1484.00 498.00 L 1492.00 498.40 L 1522.00 407.00 L 1504.00 407.00 L 1484.00 406.00 L 1404.00 406.00 L 1384.00 405.00 L 1375.00 405.00 L 1322.00 496.00 Z" stroke-width="1" id="301-06-07" stroke="black"/>
  <path fill="none" d="M 1504.00 499.00 L 1543.00 499.00 L 1631.00 408.00 L 1624.00 408.00 L 1604.00 407.00 L 1522.00 407.00 L 1492.00 498.40 Z" stroke-width="1" id="301-06-08" stroke="black"/>
  <path fill="none" d="M 1564.00 499.00 L 1584.00 500.00 L 1644.00 500.00 L 1664.00 501.00 L 1724.00 501.00 L 1744.00 502.00 L 1765.00 502.00 L 1784.00 409.00 L 1724.00 409.00 L 1704.00 408.00 L 1631.00 408.00 L 1543.00 499.00 Z" stroke-width="1" id="301-06-09" stroke="black"/>
  <path fill="none" d="M 1804.00 502.00 L 1824.00 503.00 L 1884.00 503.00 L 1904.00 484.00 L 1924.00 484.00 L 1944.00 504.00 L 1964.00 504.00 L 1984.00 505.00 L 2022.75 505.00 L 2012.00 462.00 L 2014.20 411.00 L 1944.00 411.00 L 1924.00 410.00 L 1904.00 430.00 L 1884.00 410.00 L 1844.00 410.00 L 1824.00 409.00 L 1784.00 409.00 L 1765.00 502.00 Z" stroke-width="1" id="301-06-10" stroke="black"/>
  <path fill="none" d="M 302.00 485.00 L 302.00 536.00 L 294.00 548.00 L 303.00 554.00 L 303.00 571.50 L 304.00 571.00 L 344.00 571.00 L 364.00 572.00 L 404.00 572.00 L 424.00 573.00 L 464.00 573.00 L 484.00 574.00 L 504.00 574.00 L 524.00 554.00 L 544.00 575.00 L 589.00 575.00 L 632.00 488.00 L 624.00 488.00 L 604.00 487.00 L 544.00 487.00 L 524.00 486.00 L 464.00 486.00 L 444.00 485.00 L 384.00 485.00 L 364.00 484.00 L 304.00 484.00 Z" stroke-width="1" id="301-07-01" stroke="black"/>
  <path fill="none" d="M 604.00 575.00 L 624.00 576.00 L 664.00 576.00 L 684.00 577.00 L 696.00 577.00 L 750.00 489.00 L 704.00 489.00 L 684.00 488.00 L 632.00 488.00 L 589.00 575.00 Z" stroke-width="1" id="301-07-02" stroke="black"/>
  <path fill="none" d="M 724.00 577.00 L 744.00 578.00 L 784.00 578.00 L 804.00 579.00 L 855.00 579.00 L 887.00 491.00 L 864.00 491.00 L 844.00 470.00 L 824.00 490.00 L 784.00 490.00 L 764.00 489.00 L 750.00 489.00 L 696.00 577.00 Z" stroke-width="1" id="301-07-03" stroke="black"/>
  <path fill="none" d="M 864.00 579.00 L 884.00 580.00 L 924.00 580.00 L 944.00 581.00 L 984.00 581.00 L 1004.00 582.00 L 1044.00 582.00 L 1064.00 583.00 L 1084.00 583.00 L 1104.00 563.00 L 1124.00 564.00 L 1144.00 584.00 L 1184.00 584.00 L 1204.00 585.00 L 1244.00 585.00 L 1264.00 586.00 L 1304.00 586.00 L 1324.00 587.00 L 1344.00 567.00 L 1388.00 497.00 L 1364.00 497.00 L 1344.00 517.00 L 1324.00 496.00 L 1264.00 496.00 L 1244.00 495.00 L 1184.00 495.00 L 1164.00 494.00 L 1104.00 494.00 L 1084.00 493.00 L 1024.00 493.00 L 1004.00 492.00 L 944.00 492.00 L 924.00 491.00 L 887.00 491.00 L 855.00 579.00 Z" stroke-width="1" id="301-07-04" stroke="black"/>
  <path fill="none" d="M 1364.00 567.00 L 1384.00 588.00 L 1444.00 588.00 L 1454.00 588.50 L 1511.00 499.00 L 1504.00 499.00 L 1484.00 498.00 L 1424.00 498.00 L 1404.00 497.00 L 1388.00 497.00 L 1344.00 567.00 Z" stroke-width="1" id="301-07-05" stroke="black"/>
  <path fill="none" d="M 1464.00 589.00 L 1504.00 589.00 L 1524.00 590.00 L 1564.00 590.00 L 1584.00 611.00 L 1604.00 591.00 L 1624.00 591.00 L 1644.00 592.00 L 1684.00 592.00 L 1704.00 593.00 L 1764.00 593.00 L 1784.00 594.00 L 1824.00 594.00 L 1835.00 594.55 L 1849.00 503.00 L 1824.00 503.00 L 1804.00 502.00 L 1744.00 502.00 L 1724.00 501.00 L 1664.00 501.00 L 1644.00 500.00 L 1584.00 500.00 L 1564.00 499.00 L 1511.00 499.00 L 1454.00 588.50 Z" stroke-width="1" id="301-07-06" stroke="black"/>
  <path fill="none" d="M 1844.00 595.00 L 1884.00 595.00 L 1904.00 596.00 L 1944.00 596.00 L 1964.00 617.00 L 1984.00 597.00 L 2004.00 577.00 L 2024.00 597.00 L 2024.06 597.00 L 2025.00 581.00 L 2036.00 558.00 L 2022.75 505.00 L 1984.00 505.00 L 1964.00 504.00 L 1944.00 504.00 L 1924.00 484.00 L 1904.00 484.00 L 1884.00 503.00 L 1849.00 503.00 L 1835.00 594.55 Z" stroke-width="1" id="301-07-07" stroke="black"/>
  <path fill="none" d="M 303.00 571.50 L 303.00 616.00 L 291.00 626.00 L 305.00 642.00 L 304.72 657.00 L 344.00 657.00 L 364.00 658.00 L 404.00 658.00 L 424.00 659.00 L 444.00 659.00 L 464.00 679.00 L 484.00 679.00 L 504.00 680.00 L 544.00 680.00 L 564.00 661.00 L 577.00 661.00 L 591.00 575.00 L 544.00 575.00 L 524.00 554.00 L 504.00 574.00 L 484.00 574.00 L 464.00 573.00 L 424.00 573.00 L 404.00 572.00 L 364.00 572.00 L 344.00 571.00 L 304.00 571.00 Z" stroke-width="1" id="301-08-01" stroke="black"/>
  <path fill="none" d="M 624.00 661.00 L 644.00 662.00 L 684.00 662.00 L 704.00 663.00 L 764.00 663.00 L 774.00 683.50 L 890.00 580.00 L 884.00 580.00 L 864.00 579.00 L 804.00 579.00 L 784.00 578.00 L 744.00 578.00 L 724.00 577.00 L 684.00 577.00 L 664.00 576.00 L 624.00 576.00 L 604.00 575.00 L 591.00 575.00 L 577.00 661.00 Z" stroke-width="1" id="301-08-02" stroke="black"/>
  <path fill="none" d="M 784.00 704.00 L 824.00 704.00 L 844.00 705.00 L 864.00 685.00 L 884.00 665.00 L 904.00 665.00 L 924.00 666.00 L 964.00 666.00 L 971.00 666.35 L 1084.00 583.00 L 1064.00 583.00 L 1044.00 582.00 L 1004.00 582.00 L 984.00 581.00 L 944.00 581.00 L 924.00 580.00 L 890.00 580.00 L 774.00 683.50 Z" stroke-width="1" id="301-08-03" stroke="black"/>
  <path fill="none" d="M 984.00 667.00 L 1044.00 667.00 L 1064.00 668.00 L 1104.00 668.00 L 1124.00 669.00 L 1164.00 669.00 L 1184.00 670.00 L 1221.00 670.00 L 1316.00 586.60 L 1304.00 586.00 L 1264.00 586.00 L 1244.00 585.00 L 1204.00 585.00 L 1184.00 584.00 L 1144.00 584.00 L 1124.00 564.00 L 1104.00 563.00 L 1084.00 583.00 L 971.00 666.35 Z" stroke-width="1" id="301-08-04" stroke="black"/>
  <path fill="none" d="M 1244.00 670.00 L 1264.00 651.00 L 1284.00 671.00 L 1304.00 671.00 L 1324.00 652.00 L 1344.00 672.00 L 1384.00 672.00 L 1404.00 673.00 L 1444.00 673.00 L 1464.00 674.00 L 1524.00 674.00 L 1544.00 675.00 L 1584.00 675.00 L 1604.00 676.00 L 1624.00 676.00 L 1644.00 656.00 L 1664.00 656.00 L 1684.00 657.00 L 1699.00 657.00 L 1740.00 593.00 L 1704.00 593.00 L 1684.00 592.00 L 1644.00 592.00 L 1624.00 591.00 L 1604.00 591.00 L 1584.00 611.00 L 1564.00 590.00 L 1524.00 590.00 L 1504.00 589.00 L 1464.00 589.00 L 1444.00 588.00 L 1384.00 588.00 L 1364.00 567.00 L 1344.00 567.00 L 1324.00 587.00 L 1316.00 586.60 L 1221.00 670.00 Z" stroke-width="1" id="301-08-05" stroke="black"/>
  <path fill="none" d="M 1704.00 657.00 L 1724.00 677.00 L 1744.00 678.00 L 1804.00 678.00 L 1824.00 679.00 L 1841.00 679.00 L 1846.00 595.00 L 1844.00 595.00 L 1824.00 594.00 L 1784.00 594.00 L 1764.00 593.00 L 1740.00 593.00 L 1699.00 657.00 Z" stroke-width="1" id="301-08-06" stroke="black"/>
  <path fill="none" d="M 1864.00 679.00 L 1884.00 680.00 L 1944.00 680.00 L 1964.00 681.00 L 2002.27 681.00 L 2022.00 632.00 L 2024.06 597.00 L 2024.00 597.00 L 2004.00 577.00 L 1984.00 597.00 L 1964.00 617.00 L 1944.00 596.00 L 1904.00 596.00 L 1884.00 595.00 L 1846.00 595.00 L 1841.00 679.00 Z" stroke-width="1" id="301-08-07" stroke="black"/>
  <path fill="none" d="M 304.72 657.00 L 304.00 696.00 L 292.00 714.00 L 306.00 729.00 L 306.52 741.00 L 404.00 741.00 L 424.00 742.00 L 428.00 742.00 L 465.00 679.00 L 464.00 679.00 L 444.00 659.00 L 424.00 659.00 L 404.00 658.00 L 364.00 658.00 L 344.00 657.00 Z" stroke-width="1" id="301-09-01" stroke="black"/>
  <path fill="none" d="M 544.00 742.00 L 564.00 743.00 L 684.00 743.00 L 704.00 744.00 L 804.00 744.00 L 824.00 745.00 L 935.00 745.00 L 936.00 666.00 L 924.00 666.00 L 904.00 665.00 L 884.00 665.00 L 864.00 685.00 L 844.00 705.00 L 824.00 704.00 L 784.00 704.00 L 764.00 663.00 L 704.00 663.00 L 684.00 662.00 L 644.00 662.00 L 624.00 661.00 L 564.00 661.00 L 544.00 680.00 L 504.00 680.00 L 484.00 679.00 L 465.00 679.00 L 428.00 742.00 Z" stroke-width="1" id="301-09-02" stroke="black"/>
  <path fill="none" d="M 944.00 745.00 L 964.00 766.00 L 984.00 746.00 L 1020.00 746.00 L 1070.00 668.00 L 1064.00 668.00 L 1044.00 667.00 L 984.00 667.00 L 964.00 666.00 L 936.00 666.00 L 935.00 745.00 Z" stroke-width="1" id="301-09-03" stroke="black"/>
  <path fill="none" d="M 1084.00 746.00 L 1104.00 747.00 L 1199.00 747.00 L 1197.00 670.00 L 1184.00 670.00 L 1164.00 669.00 L 1124.00 669.00 L 1104.00 668.00 L 1070.00 668.00 L 1020.00 746.00 Z" stroke-width="1" id="301-09-04" stroke="black"/>
  <path fill="none" d="M 1204.00 747.00 L 1224.00 748.00 L 1264.00 748.00 L 1284.00 728.00 L 1304.00 788.00 L 1324.00 788.00 L 1344.00 768.00 L 1364.00 749.00 L 1484.00 749.00 L 1504.00 750.00 L 1590.00 750.00 L 1616.00 676.00 L 1604.00 676.00 L 1584.00 675.00 L 1544.00 675.00 L 1524.00 674.00 L 1464.00 674.00 L 1444.00 673.00 L 1404.00 673.00 L 1384.00 672.00 L 1344.00 672.00 L 1324.00 652.00 L 1304.00 671.00 L 1284.00 671.00 L 1264.00 651.00 L 1244.00 670.00 L 1197.00 670.00 L 1199.00 747.00 Z" stroke-width="1" id="301-09-05" stroke="black"/>
  <path fill="none" d="M 1624.00 750.00 L 1644.00 751.00 L 1664.00 751.00 L 1684.00 771.00 L 1724.00 771.00 L 1744.00 751.00 L 1764.00 752.00 L 1884.00 752.00 L 1904.00 753.00 L 2012.74 753.00 L 1991.00 709.00 L 2002.27 681.00 L 1964.00 681.00 L 1944.00 680.00 L 1884.00 680.00 L 1864.00 679.00 L 1824.00 679.00 L 1804.00 678.00 L 1744.00 678.00 L 1724.00 677.00 L 1704.00 657.00 L 1684.00 657.00 L 1664.00 656.00 L 1644.00 656.00 L 1624.00 676.00 L 1616.00 676.00 L 1590.00 750.00 Z" stroke-width="1" id="301-09-06" stroke="black"/>
  <path fill="none" d="M 306.52 741.00 L 309.96 820.00 L 364.00 820.00 L 384.00 821.00 L 423.00 821.00 L 425.00 742.00 L 424.00 742.00 L 404.00 741.00 Z" stroke-width="1" id="301-10-01" stroke="black"/>
  <path fill="none" d="M 844.00 825.00 L 864.00 826.00 L 924.00 826.00 L 931.00 826.35 L 964.00 766.00 L 944.00 745.00 L 824.00 745.00 L 811.00 744.35 L 809.00 825.00 Z" stroke-width="1" id="301-10-02" stroke="black"/>
  <path fill="none" d="M 944.00 827.00 L 1024.00 827.00 L 1044.00 828.00 L 1104.00 828.00 L 1124.00 848.00 L 1144.00 849.00 L 1164.00 849.00 L 1184.00 829.00 L 1200.00 829.00 L 1248.00 748.00 L 1224.00 748.00 L 1204.00 747.00 L 1104.00 747.00 L 1084.00 746.00 L 984.00 746.00 L 964.00 766.00 L 931.00 826.35 Z" stroke-width="1" id="301-10-03" stroke="black"/>
  <path fill="none" d="M 1204.00 829.00 L 1224.00 830.00 L 1304.00 830.00 L 1324.00 831.00 L 1325.00 831.00 L 1362.00 750.90 L 1344.00 768.00 L 1324.00 788.00 L 1304.00 788.00 L 1284.00 728.00 L 1264.00 748.00 L 1248.00 748.00 L 1200.00 829.00 Z" stroke-width="1" id="301-10-04" stroke="black"/>
  <path fill="none" d="M 1404.00 831.00 L 1424.00 832.00 L 1504.00 832.00 L 1524.00 833.00 L 1584.00 833.00 L 1604.00 834.00 L 1633.00 834.00 L 1675.00 762.00 L 1664.00 751.00 L 1644.00 751.00 L 1624.00 750.00 L 1504.00 750.00 L 1484.00 749.00 L 1364.00 749.00 L 1362.00 750.90 L 1325.00 831.00 Z" stroke-width="1" id="301-10-05" stroke="black"/>
  <path fill="none" d="M 1684.00 834.00 L 1704.00 835.00 L 1784.00 835.00 L 1804.00 836.00 L 1864.00 836.00 L 1884.00 837.00 L 1964.00 837.00 L 1984.00 838.00 L 2032.33 838.00 L 2033.00 794.00 L 2012.74 753.00 L 1904.00 753.00 L 1884.00 752.00 L 1764.00 752.00 L 1744.00 751.00 L 1724.00 771.00 L 1684.00 771.00 L 1675.00 762.00 L 1633.00 834.00 Z" stroke-width="1" id="301-10-06" stroke="black"/>
  <path fill="none" d="M 309.96 820.00 L 311.00 844.00 L 310.00 870.00 L 298.00 886.00 L 322.00 895.00 L 313.00 918.00 L 344.00 918.00 L 364.00 919.00 L 424.00 919.00 L 442.00 919.90 L 480.00 821.80 L 464.00 821.00 L 384.00 821.00 L 364.00 820.00 Z" stroke-width="1" id="301-11-01" stroke="black"/>
  <path fill="none" d="M 444.00 920.00 L 464.00 920.00 L 484.00 940.00 L 504.00 941.00 L 524.00 921.00 L 564.00 921.00 L 569.00 921.25 L 586.00 823.00 L 584.00 823.00 L 564.00 822.00 L 484.00 822.00 L 480.00 821.80 L 442.00 919.90 Z" stroke-width="1" id="301-11-02" stroke="black"/>
  <path fill="none" d="M 584.00 922.00 L 644.00 922.00 L 664.00 923.00 L 684.00 923.00 L 704.00 943.00 L 724.00 924.00 L 784.00 924.00 L 804.00 925.00 L 844.00 925.00 L 864.00 926.00 L 884.00 906.00 L 893.00 826.00 L 864.00 826.00 L 844.00 825.00 L 764.00 825.00 L 744.00 824.00 L 664.00 824.00 L 644.00 823.00 L 586.00 823.00 L 569.00 921.25 Z" stroke-width="1" id="301-11-03" stroke="black"/>
  <path fill="none" d="M 904.00 926.00 L 924.00 926.00 L 944.00 927.00 L 998.00 927.00 L 1026.00 827.10 L 1024.00 827.00 L 944.00 827.00 L 924.00 826.00 L 893.00 826.00 L 884.00 906.00 Z" stroke-width="1" id="301-11-04" stroke="black"/>
  <path fill="none" d="M 1004.00 927.00 L 1024.00 928.00 L 1064.00 928.00 L 1084.00 929.00 L 1144.00 929.00 L 1164.00 930.00 L 1224.00 930.00 L 1244.00 931.00 L 1284.00 931.00 L 1304.00 932.00 L 1364.00 932.00 L 1384.00 933.00 L 1424.00 933.00 L 1444.00 934.00 L 1445.00 934.00 L 1459.00 832.00 L 1424.00 832.00 L 1404.00 831.00 L 1324.00 831.00 L 1304.00 830.00 L 1224.00 830.00 L 1204.00 829.00 L 1184.00 829.00 L 1164.00 849.00 L 1144.00 849.00 L 1124.00 848.00 L 1104.00 828.00 L 1044.00 828.00 L 1026.00 827.10 L 998.00 927.00 Z" stroke-width="1" id="301-11-05" stroke="black"/>
  <path fill="none" d="M 1504.00 934.00 L 1524.00 935.00 L 1547.00 935.00 L 1572.00 833.00 L 1524.00 833.00 L 1504.00 832.00 L 1459.00 832.00 L 1445.00 934.00 Z" stroke-width="1" id="301-11-06" stroke="black"/>
  <path fill="none" d="M 1584.00 935.00 L 1604.00 936.00 L 1644.00 936.00 L 1664.00 937.00 L 1724.00 937.00 L 1744.00 938.00 L 1784.00 938.00 L 1804.00 939.00 L 1864.00 939.00 L 1884.00 940.00 L 1944.00 940.00 L 1964.00 941.00 L 1984.00 921.00 L 2004.00 941.00 L 2024.00 942.00 L 2034.91 942.00 L 2034.00 932.00 L 2032.00 860.00 L 2032.33 838.00 L 1984.00 838.00 L 1964.00 837.00 L 1884.00 837.00 L 1864.00 836.00 L 1804.00 836.00 L 1784.00 835.00 L 1704.00 835.00 L 1684.00 834.00 L 1604.00 834.00 L 1584.00 833.00 L 1572.00 833.00 L 1547.00 935.00 Z" stroke-width="1" id="301-11-07" stroke="black"/>
  <path fill="none" d="M 313.00 918.00 L 312.00 954.00 L 302.00 962.00 L 316.00 982.00 L 314.83 999.00 L 384.00 999.00 L 404.00 1000.00 L 444.00 1000.00 L 464.00 1020.00 L 484.00 1020.00 L 504.00 1001.00 L 534.00 1001.00 L 573.00 921.45 L 564.00 921.00 L 524.00 921.00 L 504.00 941.00 L 484.00 940.00 L 464.00 920.00 L 444.00 920.00 L 424.00 919.00 L 364.00 919.00 L 344.00 918.00 Z" stroke-width="1" id="301-12-01" stroke="black"/>
  <path fill="none" d="M 544.00 1001.00 L 564.00 1021.00 L 584.00 1021.00 L 604.00 1002.00 L 635.00 1002.00 L 678.00 923.00 L 664.00 923.00 L 644.00 922.00 L 584.00 922.00 L 573.00 921.45 L 534.00 1001.00 Z" stroke-width="1" id="301-12-02" stroke="black"/>
  <path fill="none" d="M 684.00 1002.00 L 704.00 1003.00 L 774.00 1003.00 L 788.00 924.20 L 784.00 924.00 L 724.00 924.00 L 704.00 943.00 L 684.00 923.00 L 678.00 923.00 L 635.00 1002.00 Z" stroke-width="1" id="301-12-03" stroke="black"/>
  <path fill="none" d="M 804.00 1003.00 L 824.00 1004.00 L 904.00 1004.00 L 924.00 1005.00 L 1004.00 1005.00 L 1024.00 1006.00 L 1104.00 1006.00 L 1120.00 1006.80 L 1126.00 929.00 L 1084.00 929.00 L 1064.00 928.00 L 1024.00 928.00 L 1004.00 927.00 L 944.00 927.00 L 924.00 926.00 L 904.00 926.00 L 884.00 906.00 L 864.00 926.00 L 844.00 925.00 L 804.00 925.00 L 788.00 924.20 L 774.00 1003.00 Z" stroke-width="1" id="301-12-04" stroke="black"/>
  <path fill="none" d="M 1124.00 1007.00 L 1204.00 1007.00 L 1224.00 1008.00 L 1324.00 1008.00 L 1344.00 1009.00 L 1354.00 1009.00 L 1363.00 932.00 L 1304.00 932.00 L 1284.00 931.00 L 1244.00 931.00 L 1224.00 930.00 L 1164.00 930.00 L 1144.00 929.00 L 1126.00 929.00 L 1120.00 1006.80 Z" stroke-width="1" id="301-12-05" stroke="black"/>
  <path fill="none" d="M 1424.00 1009.00 L 1444.00 1010.00 L 1478.00 1010.00 L 1481.00 934.00 L 1444.00 934.00 L 1424.00 933.00 L 1384.00 933.00 L 1364.00 932.00 L 1363.00 932.00 L 1354.00 1009.00 Z" stroke-width="1" id="301-12-06" stroke="black"/>
  <path fill="none" d="M 1524.00 1010.00 L 1544.00 1011.00 L 1624.00 1011.00 L 1644.00 1012.00 L 1676.00 1012.00 L 1692.00 937.00 L 1664.00 937.00 L 1644.00 936.00 L 1604.00 936.00 L 1584.00 935.00 L 1524.00 935.00 L 1504.00 934.00 L 1481.00 934.00 L 1478.00 1010.00 Z" stroke-width="1" id="301-12-07" stroke="black"/>
  <path fill="none" d="M 1744.00 1012.00 L 1764.00 1013.00 L 1824.00 1013.00 L 1844.00 1033.00 L 1864.00 1034.00 L 1884.00 1014.00 L 1939.00 1014.00 L 1999.00 936.00 L 1984.00 921.00 L 1964.00 941.00 L 1944.00 940.00 L 1884.00 940.00 L 1864.00 939.00 L 1804.00 939.00 L 1784.00 938.00 L 1744.00 938.00 L 1724.00 937.00 L 1692.00 937.00 L 1676.00 1012.00 Z" stroke-width="1" id="301-12-08" stroke="black"/>
  <path fill="none" d="M 1944.00 1014.00 L 1964.00 1015.00 L 2018.34 1015.00 L 2039.00 987.00 L 2034.91 942.00 L 2024.00 942.00 L 2004.00 941.00 L 1999.00 936.00 L 1939.00 1014.00 Z" stroke-width="1" id="301-12-09" stroke="black"/>
  <path fill="none" d="M 314.83 999.00 L 312.00 1040.00 L 298.00 1052.00 L 313.00 1063.00 L 313.62 1082.00 L 404.00 1082.00 L 424.00 1083.00 L 483.00 1083.00 L 555.00 1012.00 L 544.00 1001.00 L 504.00 1001.00 L 484.00 1020.00 L 464.00 1020.00 L 444.00 1000.00 L 404.00 1000.00 L 384.00 999.00 Z" stroke-width="1" id="301-13-01" stroke="black"/>
  <path fill="none" d="M 484.00 1083.00 L 504.00 1103.00 L 524.00 1103.00 L 544.00 1084.00 L 644.00 1084.00 L 664.00 1099.00 L 684.00 1103.00 L 704.00 1097.00 L 724.00 1097.00 L 744.00 1085.00 L 764.00 1085.00 L 784.00 1086.00 L 788.00 1086.00 L 816.00 1003.60 L 804.00 1003.00 L 704.00 1003.00 L 684.00 1002.00 L 604.00 1002.00 L 584.00 1021.00 L 564.00 1021.00 L 555.00 1012.00 L 483.00 1083.00 Z" stroke-width="1" id="301-13-02" stroke="black"/>
  <path fill="none" d="M 884.00 1086.00 L 904.00 1087.00 L 924.00 1067.00 L 944.00 1067.00 L 968.00 1005.00 L 924.00 1005.00 L 904.00 1004.00 L 824.00 1004.00 L 816.00 1003.60 L 788.00 1086.00 Z" stroke-width="1" id="301-13-03" stroke="black"/>
  <path fill="none" d="M 964.00 1087.00 L 1004.00 1087.00 L 1024.00 1088.00 L 1089.00 1088.00 L 1102.00 1006.00 L 1024.00 1006.00 L 1004.00 1005.00 L 968.00 1005.00 L 944.00 1067.00 Z" stroke-width="1" id="301-13-04" stroke="black"/>
  <path fill="none" d="M 1124.00 1088.00 L 1144.00 1089.00 L 1244.00 1089.00 L 1264.00 1090.00 L 1268.00 1094.00 L 1328.00 1008.20 L 1324.00 1008.00 L 1224.00 1008.00 L 1204.00 1007.00 L 1124.00 1007.00 L 1104.00 1006.00 L 1102.00 1006.00 L 1089.00 1088.00 Z" stroke-width="1" id="301-13-05" stroke="black"/>
  <path fill="none" d="M 1284.00 1110.00 L 1304.00 1090.00 L 1364.00 1090.00 L 1384.00 1091.00 L 1446.00 1091.00 L 1501.00 1010.00 L 1444.00 1010.00 L 1424.00 1009.00 L 1344.00 1009.00 L 1328.00 1008.20 L 1268.00 1094.00 Z" stroke-width="1" id="301-13-06" stroke="black"/>
  <path fill="none" d="M 1484.00 1091.00 L 1504.00 1092.00 L 1519.00 1092.00 L 1579.00 1011.00 L 1544.00 1011.00 L 1524.00 1010.00 L 1501.00 1010.00 L 1446.00 1091.00 Z" stroke-width="1" id="301-13-07" stroke="black"/>
  <path fill="none" d="M 1604.00 1092.00 L 1624.00 1093.00 L 1721.00 1093.00 L 1726.00 1012.00 L 1644.00 1012.00 L 1624.00 1011.00 L 1579.00 1011.00 L 1519.00 1092.00 Z" stroke-width="1" id="301-13-08" stroke="black"/>
  <path fill="none" d="M 1724.00 1093.00 L 1744.00 1094.00 L 1793.00 1094.00 L 1844.00 1033.00 L 1824.00 1013.00 L 1764.00 1013.00 L 1744.00 1012.00 L 1726.00 1012.00 L 1721.00 1093.00 Z" stroke-width="1" id="301-13-09" stroke="black"/>
  <path fill="none" d="M 1844.00 1094.00 L 1864.00 1095.00 L 1964.00 1095.00 L 1984.00 1096.00 L 2013.10 1096.00 L 1994.00 1048.00 L 2018.34 1015.00 L 1964.00 1015.00 L 1944.00 1014.00 L 1884.00 1014.00 L 1864.00 1034.00 L 1844.00 1033.00 L 1793.00 1094.00 Z" stroke-width="1" id="301-13-10" stroke="black"/>
  <path fill="none" d="M 313.62 1082.00 L 315.00 1124.00 L 309.00 1143.00 L 319.64 1161.00 L 382.64 1161.00 L 392.00 1082.00 Z" stroke-width="1" id="301-14-01" stroke="black"/>
  <path fill="none" d="M 424.00 1161.00 L 444.00 1162.00 L 504.00 1162.00 L 524.00 1202.00 L 544.00 1202.00 L 564.00 1182.00 L 584.00 1183.00 L 604.00 1163.00 L 704.00 1163.00 L 724.00 1164.00 L 778.00 1164.00 L 785.00 1086.00 L 784.00 1086.00 L 764.00 1085.00 L 744.00 1085.00 L 724.00 1097.00 L 704.00 1097.00 L 684.00 1103.00 L 664.00 1099.00 L 644.00 1084.00 L 544.00 1084.00 L 524.00 1103.00 L 504.00 1103.00 L 484.00 1083.00 L 424.00 1083.00 L 404.00 1082.00 L 392.00 1082.00 L 382.64 1161.00 Z" stroke-width="1" id="301-14-02" stroke="black"/>
  <path fill="none" d="M 864.00 1164.00 L 884.00 1165.00 L 962.00 1165.00 L 993.00 1087.00 L 964.00 1087.00 L 944.00 1067.00 L 924.00 1067.00 L 904.00 1087.00 L 884.00 1086.00 L 861.00 1086.00 L 857.00 1164.00 Z" stroke-width="1" id="301-14-03" stroke="black"/>
  <path fill="none" d="M 1004.00 1165.00 L 1024.00 1166.00 L 1104.00 1166.00 L 1108.00 1088.00 L 1024.00 1088.00 L 1004.00 1087.00 L 993.00 1087.00 L 962.00 1165.00 Z" stroke-width="1" id="301-14-04" stroke="black"/>
  <path fill="none" d="M 1144.00 1166.00 L 1164.00 1167.00 L 1208.00 1167.00 L 1220.00 1089.00 L 1144.00 1089.00 L 1124.00 1088.00 L 1108.00 1088.00 L 1104.00 1166.00 Z" stroke-width="1" id="301-14-05" stroke="black"/>
  <path fill="none" d="M 1270.00 1167.00 L 1284.00 1110.00 L 1264.00 1090.00 L 1244.00 1089.00 L 1220.00 1089.00 L 1208.00 1167.00 Z" stroke-width="1" id="301-14-06" stroke="black"/>
  <path fill="none" d="M 1284.00 1167.00 L 1304.00 1187.00 L 1324.00 1188.00 L 1344.00 1188.00 L 1364.00 1168.00 L 1387.00 1168.00 L 1420.00 1091.00 L 1384.00 1091.00 L 1364.00 1090.00 L 1304.00 1090.00 L 1284.00 1110.00 L 1270.00 1167.00 Z" stroke-width="1" id="301-14-07" stroke="black"/>
  <path fill="none" d="M 1444.00 1168.00 L 1464.00 1169.00 L 1535.00 1169.00 L 1535.00 1092.00 L 1504.00 1092.00 L 1484.00 1091.00 L 1420.00 1091.00 L 1387.00 1168.00 Z" stroke-width="1" id="301-14-08" stroke="black"/>
  <path fill="none" d="M 1584.00 1169.00 L 1604.00 1170.00 L 1620.00 1170.00 L 1656.00 1093.00 L 1624.00 1093.00 L 1604.00 1092.00 L 1535.00 1092.00 L 1535.00 1169.00 Z" stroke-width="1" id="301-14-09" stroke="black"/>
  <path fill="none" d="M 1684.00 1170.00 L 1704.00 1177.00 L 1724.00 1173.00 L 1744.00 1175.00 L 1750.00 1173.80 L 1764.00 1094.00 L 1744.00 1094.00 L 1724.00 1093.00 L 1656.00 1093.00 L 1620.00 1170.00 Z" stroke-width="1" id="301-14-10" stroke="black"/>
  <path fill="none" d="M 1764.00 1171.00 L 1850.00 1171.00 L 1873.00 1095.00 L 1864.00 1095.00 L 1844.00 1094.00 L 1764.00 1094.00 L 1750.00 1173.80 Z" stroke-width="1" id="301-14-11" stroke="black"/>
  <path fill="none" d="M 1884.00 1171.00 L 1904.00 1172.00 L 2015.76 1172.00 L 2031.00 1141.00 L 2013.10 1096.00 L 1984.00 1096.00 L 1964.00 1095.00 L 1873.00 1095.00 L 1850.00 1171.00 Z" stroke-width="1" id="301-14-12" stroke="black"/>
  <path fill="none" d="M 319.64 1161.00 L 322.00 1165.00 L 316.00 1212.00 L 304.00 1224.00 L 315.00 1234.00 L 314.55 1258.55 L 324.00 1268.00 L 344.00 1248.00 L 364.00 1248.00 L 378.00 1248.70 L 413.00 1161.00 Z" stroke-width="1" id="301-15-01" stroke="black"/>
  <path fill="none" d="M 384.00 1249.00 L 444.00 1249.00 L 464.00 1250.00 L 499.00 1250.00 L 524.00 1202.00 L 504.00 1162.00 L 444.00 1162.00 L 424.00 1161.00 L 413.00 1161.00 L 378.00 1248.70 Z" stroke-width="1" id="301-15-02" stroke="black"/>
  <path fill="none" d="M 524.00 1250.00 L 544.00 1251.00 L 564.00 1231.00 L 584.00 1251.00 L 624.00 1251.00 L 644.00 1252.00 L 704.00 1252.00 L 724.00 1253.00 L 744.00 1253.00 L 764.00 1273.00 L 784.00 1273.00 L 804.00 1254.00 L 841.00 1254.00 L 866.00 1164.10 L 864.00 1164.00 L 724.00 1164.00 L 704.00 1163.00 L 604.00 1163.00 L 584.00 1183.00 L 564.00 1182.00 L 544.00 1202.00 L 524.00 1202.00 L 499.00 1250.00 Z" stroke-width="1" id="301-15-03" stroke="black"/>
  <path fill="none" d="M 864.00 1254.00 L 884.00 1255.00 L 964.00 1255.00 L 984.00 1256.00 L 1044.00 1256.00 L 1064.00 1257.00 L 1070.00 1257.00 L 1089.00 1166.00 L 1024.00 1166.00 L 1004.00 1165.00 L 884.00 1165.00 L 866.00 1164.10 L 841.00 1254.00 Z" stroke-width="1" id="301-15-04" stroke="black"/>
  <path fill="none" d="M 1124.00 1257.00 L 1144.00 1258.00 L 1224.00 1258.00 L 1244.00 1259.00 L 1255.00 1259.00 L 1290.00 1173.00 L 1284.00 1167.00 L 1164.00 1167.00 L 1144.00 1166.00 L 1089.00 1166.00 L 1070.00 1257.00 Z" stroke-width="1" id="301-15-05" stroke="black"/>
  <path fill="none" d="M 1304.00 1259.00 L 1324.00 1260.00 L 1384.00 1260.00 L 1404.00 1261.00 L 1464.00 1261.00 L 1484.00 1262.00 L 1516.00 1262.00 L 1554.00 1169.00 L 1464.00 1169.00 L 1444.00 1168.00 L 1364.00 1168.00 L 1344.00 1188.00 L 1324.00 1188.00 L 1304.00 1187.00 L 1290.00 1173.00 L 1255.00 1259.00 Z" stroke-width="1" id="301-15-06" stroke="black"/>
  <path fill="none" d="M 1564.00 1262.00 L 1584.00 1263.00 L 1626.00 1263.00 L 1639.00 1170.00 L 1604.00 1170.00 L 1584.00 1169.00 L 1554.00 1169.00 L 1516.00 1262.00 Z" stroke-width="1" id="301-15-07" stroke="black"/>
  <path fill="none" d="M 1644.00 1263.00 L 1664.00 1264.00 L 1704.00 1264.00 L 1724.00 1284.00 L 1744.00 1285.00 L 1764.00 1265.00 L 1804.00 1265.00 L 1824.00 1266.00 L 1887.00 1266.00 L 1903.00 1171.95 L 1884.00 1171.00 L 1764.00 1171.00 L 1744.00 1175.00 L 1724.00 1173.00 L 1704.00 1177.00 L 1684.00 1170.00 L 1639.00 1170.00 L 1626.00 1263.00 Z" stroke-width="1" id="301-15-08" stroke="black"/>
  <path fill="none" d="M 1904.00 1266.00 L 1924.00 1267.00 L 1984.00 1267.00 L 2004.00 1268.00 L 2029.51 1268.00 L 2002.00 1200.00 L 2015.76 1172.00 L 1904.00 1172.00 L 1903.00 1171.95 L 1887.00 1266.00 Z" stroke-width="1" id="301-15-09" stroke="black"/>
  <path fill="none" d="M 314.55 1258.55 L 314.00 1289.00 L 300.00 1302.00 L 316.00 1306.00 L 314.00 1320.00 L 301.00 1333.00 L 302.00 1346.00 L 322.00 1340.00 L 321.36 1354.00 L 324.00 1354.00 L 344.00 1334.00 L 364.00 1335.00 L 424.00 1335.00 L 444.00 1336.00 L 451.00 1336.00 L 494.00 1250.00 L 464.00 1250.00 L 444.00 1249.00 L 384.00 1249.00 L 364.00 1248.00 L 344.00 1248.00 L 324.00 1268.00 Z" stroke-width="1" id="301-16-01" stroke="black"/>
  <path fill="none" d="M 504.00 1336.00 L 524.00 1337.00 L 564.00 1337.00 L 584.00 1338.00 L 644.00 1338.00 L 664.00 1339.00 L 724.00 1339.00 L 744.00 1340.00 L 802.00 1340.00 L 792.00 1265.40 L 784.00 1273.00 L 764.00 1273.00 L 744.00 1253.00 L 724.00 1253.00 L 704.00 1252.00 L 644.00 1252.00 L 624.00 1251.00 L 584.00 1251.00 L 564.00 1231.00 L 544.00 1251.00 L 524.00 1250.00 L 494.00 1250.00 L 451.00 1336.00 Z" stroke-width="1" id="301-16-02" stroke="black"/>
  <path fill="none" d="M 804.00 1340.00 L 824.00 1341.00 L 858.00 1341.00 L 898.00 1255.00 L 884.00 1255.00 L 864.00 1254.00 L 804.00 1254.00 L 792.00 1265.40 L 802.00 1340.00 Z" stroke-width="1" id="301-16-03" stroke="black"/>
  <path fill="none" d="M 864.00 1341.00 L 884.00 1342.00 L 944.00 1342.00 L 964.00 1343.00 L 1024.00 1343.00 L 1044.00 1344.00 L 1064.00 1344.00 L 1104.00 1257.00 L 1064.00 1257.00 L 1044.00 1256.00 L 984.00 1256.00 L 964.00 1255.00 L 898.00 1255.00 L 858.00 1341.00 Z" stroke-width="1" id="301-16-04" stroke="black"/>
  <path fill="none" d="M 1084.00 1344.00 L 1104.00 1345.00 L 1164.00 1345.00 L 1184.00 1346.00 L 1204.00 1366.00 L 1224.00 1346.00 L 1244.00 1346.00 L 1249.00 1346.25 L 1292.00 1259.00 L 1244.00 1259.00 L 1224.00 1258.00 L 1144.00 1258.00 L 1124.00 1257.00 L 1104.00 1257.00 L 1064.00 1344.00 Z" stroke-width="1" id="301-16-05" stroke="black"/>
  <path fill="none" d="M 1264.00 1347.00 L 1324.00 1347.00 L 1344.00 1348.00 L 1354.00 1348.00 L 1377.00 1260.00 L 1324.00 1260.00 L 1304.00 1259.00 L 1292.00 1259.00 L 1249.00 1346.25 Z" stroke-width="1" id="301-16-06" stroke="black"/>
  <path fill="none" d="M 1384.00 1348.00 L 1404.00 1349.00 L 1464.00 1349.00 L 1474.00 1349.50 L 1492.00 1262.00 L 1484.00 1262.00 L 1464.00 1261.00 L 1404.00 1261.00 L 1384.00 1260.00 L 1377.00 1260.00 L 1354.00 1348.00 Z" stroke-width="1" id="301-16-07" stroke="black"/>
  <path fill="none" d="M 1484.00 1350.00 L 1544.00 1350.00 L 1564.00 1351.00 L 1604.00 1351.00 L 1624.00 1352.00 L 1684.00 1352.00 L 1704.00 1353.00 L 1764.00 1353.00 L 1784.00 1354.00 L 1807.00 1354.00 L 1878.00 1266.00 L 1824.00 1266.00 L 1804.00 1265.00 L 1764.00 1265.00 L 1744.00 1285.00 L 1724.00 1284.00 L 1704.00 1264.00 L 1664.00 1264.00 L 1644.00 1263.00 L 1584.00 1263.00 L 1564.00 1262.00 L 1492.00 1262.00 L 1474.00 1349.50 Z" stroke-width="1" id="301-16-08" stroke="black"/>
  <path fill="none" d="M 1844.00 1354.00 L 1864.00 1355.00 L 1904.00 1355.00 L 1924.00 1356.00 L 1984.00 1356.00 L 2004.00 1357.00 L 2004.80 1357.00 L 2036.00 1333.00 L 2038.00 1289.00 L 2029.51 1268.00 L 2004.00 1268.00 L 1984.00 1267.00 L 1924.00 1267.00 L 1904.00 1266.00 L 1878.00 1266.00 L 1807.00 1354.00 Z" stroke-width="1" id="301-16-09" stroke="black"/>
  <path fill="none" d="M 321.36 1354.00 L 320.00 1384.00 L 316.00 1396.00 L 318.00 1404.00 L 318.00 1420.00 L 324.00 1420.00 L 344.00 1421.00 L 384.00 1421.00 L 404.00 1422.00 L 444.00 1422.00 L 464.00 1423.00 L 473.00 1423.00 L 502.00 1336.00 L 444.00 1336.00 L 424.00 1335.00 L 364.00 1335.00 L 344.00 1334.00 L 324.00 1354.00 Z" stroke-width="1" id="301-17-01" stroke="black"/>
  <path fill="none" d="M 504.00 1423.00 L 524.00 1424.00 L 564.00 1424.00 L 584.00 1425.00 L 624.00 1425.00 L 644.00 1426.00 L 663.00 1426.00 L 684.00 1339.00 L 664.00 1339.00 L 644.00 1338.00 L 584.00 1338.00 L 564.00 1337.00 L 524.00 1337.00 L 504.00 1336.00 L 502.00 1336.00 L 473.00 1423.00 Z" stroke-width="1" id="301-17-02" stroke="black"/>
  <path fill="none" d="M 664.00 1426.00 L 684.00 1446.00 L 704.00 1447.00 L 724.00 1447.00 L 744.00 1428.00 L 759.00 1428.00 L 790.00 1340.00 L 744.00 1340.00 L 724.00 1339.00 L 684.00 1339.00 L 663.00 1426.00 Z" stroke-width="1" id="301-17-03" stroke="black"/>
  <path fill="none" d="M 784.00 1428.00 L 804.00 1429.00 L 844.00 1429.00 L 864.00 1430.00 L 904.00 1430.00 L 908.00 1430.20 L 932.00 1342.00 L 884.00 1342.00 L 864.00 1341.00 L 824.00 1341.00 L 804.00 1340.00 L 790.00 1340.00 L 759.00 1428.00 Z" stroke-width="1" id="301-17-04" stroke="black"/>
  <path fill="none" d="M 924.00 1431.00 L 964.00 1431.00 L 984.00 1432.00 L 1024.00 1432.00 L 1044.00 1433.00 L 1084.00 1433.00 L 1104.00 1434.00 L 1144.00 1434.00 L 1164.00 1435.00 L 1184.00 1435.00 L 1204.00 1436.00 L 1244.00 1436.00 L 1215.00 1355.00 L 1204.00 1366.00 L 1184.00 1346.00 L 1164.00 1345.00 L 1104.00 1345.00 L 1084.00 1344.00 L 1044.00 1344.00 L 1024.00 1343.00 L 964.00 1343.00 L 944.00 1342.00 L 932.00 1342.00 L 908.00 1430.20 Z" stroke-width="1" id="301-17-05" stroke="black"/>
  <path fill="none" d="M 1264.00 1437.00 L 1304.00 1437.00 L 1324.00 1438.00 L 1364.00 1438.00 L 1384.00 1439.00 L 1424.00 1439.00 L 1444.00 1440.00 L 1474.00 1440.00 L 1474.00 1349.50 L 1464.00 1349.00 L 1404.00 1349.00 L 1384.00 1348.00 L 1344.00 1348.00 L 1324.00 1347.00 L 1264.00 1347.00 L 1244.00 1346.00 L 1224.00 1346.00 L 1215.00 1355.00 L 1244.00 1436.00 Z" stroke-width="1" id="301-17-06" stroke="black"/>
  <path fill="none" d="M 1484.00 1440.00 L 1504.00 1441.00 L 1544.00 1441.00 L 1548.00 1441.20 L 1559.00 1350.75 L 1544.00 1350.00 L 1484.00 1350.00 L 1474.00 1349.50 L 1474.00 1440.00 Z" stroke-width="1" id="301-17-07" stroke="black"/>
  <path fill="none" d="M 1564.00 1442.00 L 1584.00 1442.00 L 1604.00 1422.00 L 1621.00 1422.85 L 1618.00 1351.70 L 1604.00 1351.00 L 1564.00 1351.00 L 1559.00 1350.75 L 1548.00 1441.20 Z" stroke-width="1" id="301-17-08" stroke="black"/>
  <path fill="none" d="M 1624.00 1423.00 L 1644.00 1443.00 L 1664.00 1444.00 L 1704.00 1444.00 L 1724.00 1445.00 L 1764.00 1445.00 L 1784.00 1446.00 L 1824.00 1446.00 L 1844.00 1447.00 L 1853.00 1447.00 L 1867.00 1355.00 L 1864.00 1355.00 L 1844.00 1354.00 L 1784.00 1354.00 L 1764.00 1353.00 L 1704.00 1353.00 L 1684.00 1352.00 L 1624.00 1352.00 L 1618.00 1351.70 L 1621.00 1422.85 Z" stroke-width="1" id="301-17-09" stroke="black"/>
  <path fill="none" d="M 1884.00 1447.00 L 1904.00 1448.00 L 1944.00 1448.00 L 1964.00 1449.00 L 1984.00 1449.00 L 1997.45 1435.55 L 1958.00 1393.00 L 2004.80 1357.00 L 2004.00 1357.00 L 1984.00 1356.00 L 1924.00 1356.00 L 1904.00 1355.00 L 1867.00 1355.00 L 1853.00 1447.00 Z" stroke-width="1" id="301-17-10" stroke="black"/>
  <path fill="none" d="M 318.00 1420.00 L 318.00 1456.00 L 304.00 1464.00 L 303.00 1471.00 L 318.00 1474.00 L 322.00 1499.00 L 321.51 1507.00 L 344.00 1507.00 L 364.00 1508.00 L 404.00 1508.00 L 424.00 1509.00 L 464.00 1509.00 L 478.00 1509.70 L 523.00 1423.95 L 504.00 1423.00 L 464.00 1423.00 L 444.00 1422.00 L 404.00 1422.00 L 384.00 1421.00 L 344.00 1421.00 L 324.00 1420.00 Z" stroke-width="1" id="301-18-01" stroke="black"/>
  <path fill="none" d="M 484.00 1510.00 L 524.00 1510.00 L 544.00 1511.00 L 584.00 1511.00 L 604.00 1512.00 L 644.00 1512.00 L 664.00 1513.00 L 685.00 1513.00 L 697.00 1446.65 L 684.00 1446.00 L 664.00 1426.00 L 644.00 1426.00 L 624.00 1425.00 L 584.00 1425.00 L 564.00 1424.00 L 524.00 1424.00 L 523.00 1423.95 L 478.00 1509.70 Z" stroke-width="1" id="301-18-02" stroke="black"/>
  <path fill="none" d="M 704.00 1513.00 L 724.00 1514.00 L 764.00 1514.00 L 784.00 1515.00 L 824.00 1515.00 L 844.00 1516.00 L 884.00 1516.00 L 904.00 1517.00 L 923.00 1517.00 L 973.00 1431.45 L 964.00 1431.00 L 924.00 1431.00 L 904.00 1430.00 L 864.00 1430.00 L 844.00 1429.00 L 804.00 1429.00 L 784.00 1428.00 L 744.00 1428.00 L 724.00 1447.00 L 704.00 1447.00 L 697.00 1446.65 L 685.00 1513.00 Z" stroke-width="1" id="301-18-03" stroke="black"/>
  <path fill="none" d="M 944.00 1517.00 L 964.00 1518.00 L 984.00 1518.00 L 989.00 1528.00 L 1085.00 1433.05 L 1084.00 1433.00 L 1044.00 1433.00 L 1024.00 1432.00 L 984.00 1432.00 L 973.00 1431.45 L 923.00 1517.00 Z" stroke-width="1" id="301-18-04" stroke="black"/>
  <path fill="none" d="M 1004.00 1558.00 L 1024.00 1559.00 L 1044.00 1539.00 L 1064.00 1539.00 L 1084.00 1520.00 L 1124.00 1520.00 L 1144.00 1521.00 L 1184.00 1521.00 L 1196.00 1521.60 L 1204.00 1436.00 L 1184.00 1435.00 L 1164.00 1435.00 L 1144.00 1434.00 L 1104.00 1434.00 L 1085.00 1433.05 L 989.00 1528.00 Z" stroke-width="1" id="301-18-05" stroke="black"/>
  <path fill="none" d="M 1204.00 1522.00 L 1244.00 1522.00 L 1264.00 1523.00 L 1324.00 1523.00 L 1344.00 1524.00 L 1347.00 1524.00 L 1371.00 1438.35 L 1364.00 1438.00 L 1324.00 1438.00 L 1304.00 1437.00 L 1264.00 1437.00 L 1244.00 1436.00 L 1204.00 1436.00 L 1196.00 1521.60 Z" stroke-width="1" id="301-18-06" stroke="black"/>
  <path fill="none" d="M 1384.00 1524.00 L 1404.00 1525.00 L 1444.00 1525.00 L 1464.00 1526.00 L 1502.00 1526.00 L 1543.00 1441.00 L 1504.00 1441.00 L 1484.00 1440.00 L 1444.00 1440.00 L 1424.00 1439.00 L 1384.00 1439.00 L 1371.00 1438.35 L 1347.00 1524.00 Z" stroke-width="1" id="301-18-07" stroke="black"/>
  <path fill="none" d="M 1504.00 1526.00 L 1524.00 1527.00 L 1564.00 1527.00 L 1584.00 1528.00 L 1624.00 1528.00 L 1644.00 1529.00 L 1684.00 1529.00 L 1704.00 1530.00 L 1711.00 1530.00 L 1731.00 1445.00 L 1724.00 1445.00 L 1704.00 1444.00 L 1664.00 1444.00 L 1644.00 1443.00 L 1624.00 1423.00 L 1604.00 1422.00 L 1584.00 1442.00 L 1564.00 1442.00 L 1544.00 1441.00 L 1543.00 1441.00 L 1502.00 1526.00 Z" stroke-width="1" id="301-18-08" stroke="black"/>
  <path fill="none" d="M 1744.00 1530.00 L 1764.00 1531.00 L 1804.00 1531.00 L 1824.00 1532.00 L 1844.00 1531.00 L 1864.00 1527.00 L 1884.00 1553.00 L 1904.00 1553.00 L 1924.00 1533.00 L 1944.00 1534.00 L 1984.00 1534.00 L 2004.00 1535.00 L 2024.33 1535.00 L 2007.00 1496.00 L 2009.00 1448.00 L 1997.45 1435.55 L 1984.00 1449.00 L 1964.00 1449.00 L 1944.00 1448.00 L 1904.00 1448.00 L 1884.00 1447.00 L 1844.00 1447.00 L 1824.00 1446.00 L 1784.00 1446.00 L 1764.00 1445.00 L 1731.00 1445.00 L 1711.00 1530.00 Z" stroke-width="1" id="301-18-09" stroke="black"/>
  <path fill="none" d="M 321.51 1507.00 L 318.00 1564.00 L 320.13 1591.00 L 344.00 1591.00 L 364.00 1592.00 L 381.00 1592.00 L 410.00 1508.30 L 404.00 1508.00 L 364.00 1508.00 L 344.00 1507.00 Z" stroke-width="1" id="301-19-01" stroke="black"/>
  <path fill="none" d="M 424.00 1592.00 L 444.00 1593.00 L 484.00 1593.00 L 504.00 1594.00 L 564.00 1594.00 L 584.00 1595.00 L 624.00 1595.00 L 644.00 1596.00 L 685.00 1596.00 L 705.00 1513.05 L 704.00 1513.00 L 664.00 1513.00 L 644.00 1512.00 L 604.00 1512.00 L 584.00 1511.00 L 544.00 1511.00 L 524.00 1510.00 L 484.00 1510.00 L 464.00 1509.00 L 424.00 1509.00 L 410.00 1508.30 L 381.00 1592.00 Z" stroke-width="1" id="301-19-02" stroke="black"/>
  <path fill="none" d="M 704.00 1596.00 L 724.00 1597.00 L 764.00 1597.00 L 784.00 1598.00 L 844.00 1598.00 L 850.00 1604.30 L 922.00 1517.00 L 904.00 1517.00 L 884.00 1516.00 L 844.00 1516.00 L 824.00 1515.00 L 784.00 1515.00 L 764.00 1514.00 L 724.00 1514.00 L 705.00 1513.05 L 685.00 1596.00 Z" stroke-width="1" id="301-19-03" stroke="black"/>
  <path fill="none" d="M 864.00 1619.00 L 904.00 1619.00 L 924.00 1600.00 L 984.00 1600.00 L 1004.00 1601.00 L 1044.00 1601.00 L 1064.00 1602.00 L 1124.00 1602.00 L 1144.00 1603.00 L 1184.00 1603.00 L 1203.00 1521.95 L 1184.00 1521.00 L 1144.00 1521.00 L 1124.00 1520.00 L 1084.00 1520.00 L 1064.00 1539.00 L 1044.00 1539.00 L 1024.00 1559.00 L 1004.00 1558.00 L 984.00 1518.00 L 964.00 1518.00 L 944.00 1517.00 L 922.00 1517.00 L 850.00 1604.30 Z" stroke-width="1" id="301-19-04" stroke="black"/>
  <path fill="none" d="M 1204.00 1604.00 L 1264.00 1604.00 L 1284.00 1605.00 L 1324.00 1605.00 L 1344.00 1606.00 L 1384.00 1606.00 L 1404.00 1626.00 L 1424.00 1627.00 L 1444.00 1607.00 L 1472.00 1607.00 L 1497.00 1526.00 L 1464.00 1526.00 L 1444.00 1525.00 L 1404.00 1525.00 L 1384.00 1524.00 L 1344.00 1524.00 L 1324.00 1523.00 L 1264.00 1523.00 L 1244.00 1522.00 L 1204.00 1522.00 L 1203.00 1521.95 L 1184.00 1603.00 Z" stroke-width="1" id="301-19-05" stroke="black"/>
  <path fill="none" d="M 1484.00 1607.00 L 1504.00 1608.00 L 1544.00 1608.00 L 1564.00 1609.00 L 1584.00 1609.00 L 1588.00 1613.00 L 1667.00 1529.00 L 1644.00 1529.00 L 1624.00 1528.00 L 1584.00 1528.00 L 1564.00 1527.00 L 1524.00 1527.00 L 1504.00 1526.00 L 1497.00 1526.00 L 1472.00 1607.00 Z" stroke-width="1" id="301-19-06" stroke="black"/>
  <path fill="none" d="M 1604.00 1629.00 L 1624.00 1629.00 L 1644.00 1610.00 L 1684.00 1610.00 L 1704.00 1611.00 L 1764.00 1611.00 L 1784.00 1612.00 L 1808.00 1612.00 L 1829.00 1531.75 L 1824.00 1532.00 L 1804.00 1531.00 L 1764.00 1531.00 L 1744.00 1530.00 L 1704.00 1530.00 L 1684.00 1529.00 L 1667.00 1529.00 L 1588.00 1613.00 Z" stroke-width="1" id="301-19-07" stroke="black"/>
  <path fill="none" d="M 1824.00 1612.00 L 1844.00 1613.00 L 1904.00 1613.00 L 1924.00 1614.00 L 1944.00 1594.00 L 1964.00 1614.00 L 1984.00 1615.00 L 2034.63 1615.00 L 2039.00 1568.00 L 2024.33 1535.00 L 2004.00 1535.00 L 1984.00 1534.00 L 1944.00 1534.00 L 1924.00 1533.00 L 1904.00 1553.00 L 1884.00 1553.00 L 1864.00 1527.00 L 1844.00 1531.00 L 1829.00 1531.75 L 1808.00 1612.00 Z" stroke-width="1" id="301-19-08" stroke="black"/>
  <path fill="none" d="M 320.13 1591.00 L 324.00 1640.00 L 316.00 1655.00 L 322.15 1675.00 L 344.00 1675.00 L 364.00 1676.00 L 424.00 1676.00 L 444.00 1677.00 L 477.00 1677.00 L 505.00 1594.00 L 504.00 1594.00 L 484.00 1593.00 L 444.00 1593.00 L 424.00 1592.00 L 364.00 1592.00 L 344.00 1591.00 Z" stroke-width="1" id="301-20-01" stroke="black"/>
  <path fill="none" d="M 504.00 1677.00 L 524.00 1698.00 L 544.00 1678.00 L 572.00 1678.00 L 615.00 1595.00 L 584.00 1595.00 L 564.00 1594.00 L 505.00 1594.00 L 477.00 1677.00 Z" stroke-width="1" id="301-20-02" stroke="black"/>
  <path fill="none" d="M 584.00 1678.00 L 604.00 1679.00 L 664.00 1679.00 L 684.00 1680.00 L 693.00 1680.00 L 722.00 1596.90 L 704.00 1596.00 L 644.00 1596.00 L 624.00 1595.00 L 615.00 1595.00 L 572.00 1678.00 Z" stroke-width="1" id="301-20-03" stroke="black"/>
  <path fill="none" d="M 744.00 1680.00 L 764.00 1681.00 L 824.00 1681.00 L 844.00 1682.00 L 865.00 1682.00 L 892.00 1619.00 L 864.00 1619.00 L 844.00 1598.00 L 784.00 1598.00 L 764.00 1597.00 L 724.00 1597.00 L 722.00 1596.90 L 693.00 1680.00 Z" stroke-width="1" id="301-20-04" stroke="black"/>
  <path fill="none" d="M 904.00 1682.00 L 924.00 1683.00 L 984.00 1683.00 L 1004.00 1684.00 L 1024.00 1704.00 L 1044.00 1704.00 L 1064.00 1684.00 L 1084.00 1665.00 L 1104.00 1685.00 L 1124.00 1665.00 L 1144.00 1685.00 L 1164.00 1686.00 L 1184.00 1706.00 L 1204.00 1686.00 L 1224.00 1686.00 L 1234.00 1686.50 L 1271.00 1604.35 L 1264.00 1604.00 L 1204.00 1604.00 L 1184.00 1603.00 L 1144.00 1603.00 L 1124.00 1602.00 L 1064.00 1602.00 L 1044.00 1601.00 L 1004.00 1601.00 L 984.00 1600.00 L 924.00 1600.00 L 904.00 1619.00 L 892.00 1619.00 L 865.00 1682.00 Z" stroke-width="1" id="301-20-05" stroke="black"/>
  <path fill="none" d="M 1244.00 1687.00 L 1304.00 1687.00 L 1324.00 1688.00 L 1364.00 1688.00 L 1384.00 1689.00 L 1393.00 1689.00 L 1410.00 1626.30 L 1404.00 1626.00 L 1384.00 1606.00 L 1344.00 1606.00 L 1324.00 1605.00 L 1284.00 1605.00 L 1271.00 1604.35 L 1234.00 1686.50 Z" stroke-width="1" id="301-20-06" stroke="black"/>
  <path fill="none" d="M 1444.00 1689.00 L 1464.00 1690.00 L 1524.00 1690.00 L 1544.00 1691.00 L 1604.00 1691.00 L 1624.00 1672.00 L 1644.00 1692.00 L 1684.00 1692.00 L 1704.00 1693.00 L 1764.00 1693.00 L 1772.00 1693.40 L 1777.00 1611.65 L 1764.00 1611.00 L 1704.00 1611.00 L 1684.00 1610.00 L 1644.00 1610.00 L 1624.00 1629.00 L 1604.00 1629.00 L 1584.00 1609.00 L 1564.00 1609.00 L 1544.00 1608.00 L 1504.00 1608.00 L 1484.00 1607.00 L 1444.00 1607.00 L 1424.00 1627.00 L 1410.00 1626.30 L 1393.00 1689.00 Z" stroke-width="1" id="301-20-07" stroke="black"/>
  <path fill="none" d="M 1784.00 1694.00 L 1844.00 1694.00 L 1854.00 1694.50 L 1879.00 1613.00 L 1844.00 1613.00 L 1824.00 1612.00 L 1784.00 1612.00 L 1777.00 1611.65 L 1772.00 1693.40 Z" stroke-width="1" id="301-20-08" stroke="black"/>
  <path fill="none" d="M 1864.00 1695.00 L 1924.00 1695.00 L 1944.00 1696.00 L 2004.00 1696.00 L 2024.00 1697.00 L 2030.51 1697.00 L 2031.00 1654.00 L 2034.63 1615.00 L 1984.00 1615.00 L 1964.00 1614.00 L 1944.00 1594.00 L 1924.00 1614.00 L 1904.00 1613.00 L 1879.00 1613.00 L 1854.00 1694.50 Z" stroke-width="1" id="301-20-09" stroke="black"/>
  <path fill="none" d="M 322.15 1675.00 L 324.00 1681.00 L 317.00 1736.00 L 317.44 1754.00 L 384.00 1754.00 L 404.00 1755.00 L 484.00 1755.00 L 504.00 1775.00 L 523.00 1756.95 L 530.00 1692.00 L 524.00 1698.00 L 504.00 1677.00 L 444.00 1677.00 L 424.00 1676.00 L 364.00 1676.00 L 344.00 1675.00 Z" stroke-width="1" id="301-21-01" stroke="black"/>
  <path fill="none" d="M 524.00 1756.00 L 624.00 1756.00 L 644.00 1757.00 L 704.00 1757.00 L 717.00 1783.00 L 822.00 1681.00 L 764.00 1681.00 L 744.00 1680.00 L 684.00 1680.00 L 664.00 1679.00 L 604.00 1679.00 L 584.00 1678.00 L 544.00 1678.00 L 530.00 1692.00 L 523.00 1756.95 Z" stroke-width="1" id="301-21-02" stroke="black"/>
  <path fill="none" d="M 724.00 1797.00 L 744.00 1798.00 L 764.00 1798.00 L 784.00 1779.00 L 804.00 1767.00 L 824.00 1765.00 L 844.00 1758.00 L 864.00 1759.00 L 964.00 1759.00 L 974.00 1759.50 L 995.00 1683.55 L 984.00 1683.00 L 924.00 1683.00 L 904.00 1682.00 L 844.00 1682.00 L 824.00 1681.00 L 822.00 1681.00 L 717.00 1783.00 Z" stroke-width="1" id="301-21-03" stroke="black"/>
  <path fill="none" d="M 984.00 1760.00 L 1064.00 1760.00 L 1084.00 1761.00 L 1184.00 1761.00 L 1204.00 1762.00 L 1304.00 1762.00 L 1324.00 1763.00 L 1335.00 1688.00 L 1324.00 1688.00 L 1304.00 1687.00 L 1244.00 1687.00 L 1224.00 1686.00 L 1204.00 1686.00 L 1184.00 1706.00 L 1164.00 1686.00 L 1144.00 1685.00 L 1124.00 1665.00 L 1104.00 1685.00 L 1084.00 1665.00 L 1064.00 1684.00 L 1044.00 1704.00 L 1024.00 1704.00 L 1004.00 1684.00 L 995.00 1683.55 L 974.00 1759.50 Z" stroke-width="1" id="301-21-04" stroke="black"/>
  <path fill="none" d="M 1404.00 1763.00 L 1424.00 1764.00 L 1524.00 1764.00 L 1544.00 1765.00 L 1563.00 1691.00 L 1544.00 1691.00 L 1524.00 1690.00 L 1464.00 1690.00 L 1444.00 1689.00 L 1384.00 1689.00 L 1364.00 1688.00 L 1335.00 1688.00 L 1324.00 1763.00 Z" stroke-width="1" id="301-21-05" stroke="black"/>
  <path fill="none" d="M 1644.00 1765.00 L 1646.00 1765.10 L 1675.00 1692.00 L 1644.00 1692.00 L 1624.00 1672.00 L 1604.00 1691.00 L 1563.00 1691.00 L 1544.00 1765.00 Z" stroke-width="1" id="301-21-06" stroke="black"/>
  <path fill="none" d="M 1664.00 1766.00 L 1744.00 1766.00 L 1764.00 1767.00 L 1864.00 1767.00 L 1884.00 1768.00 L 1898.00 1695.00 L 1864.00 1695.00 L 1844.00 1694.00 L 1784.00 1694.00 L 1764.00 1693.00 L 1704.00 1693.00 L 1684.00 1692.00 L 1675.00 1692.00 L 1646.00 1765.10 Z" stroke-width="1" id="301-21-07" stroke="black"/>
  <path fill="none" d="M 1984.00 1768.00 L 1994.94 1768.55 L 2030.00 1741.00 L 2030.51 1697.00 L 2024.00 1697.00 L 2004.00 1696.00 L 1944.00 1696.00 L 1924.00 1695.00 L 1898.00 1695.00 L 1884.00 1768.00 Z" stroke-width="1" id="301-21-08" stroke="black"/>
  <path fill="none" d="M 317.44 1754.00 L 319.00 1818.00 L 320.00 1856.00 L 329.40 1855.60 L 344.00 1841.00 L 504.00 1841.00 L 524.00 1842.00 L 657.00 1842.00 L 706.00 1761.00 L 704.00 1757.00 L 644.00 1757.00 L 624.00 1756.00 L 524.00 1756.00 L 504.00 1775.00 L 484.00 1755.00 L 404.00 1755.00 L 384.00 1754.00 Z" stroke-width="1" id="301-22-01" stroke="black"/>
  <path fill="none" d="M 744.00 1842.00 L 764.00 1843.00 L 875.00 1843.00 L 912.00 1759.00 L 864.00 1759.00 L 844.00 1758.00 L 824.00 1765.00 L 804.00 1767.00 L 784.00 1779.00 L 764.00 1798.00 L 744.00 1798.00 L 724.00 1797.00 L 706.00 1761.00 L 657.00 1842.00 Z" stroke-width="1" id="301-22-02" stroke="black"/>
  <path fill="none" d="M 984.00 1843.00 L 993.00 1852.45 L 1069.00 1760.25 L 1064.00 1760.00 L 984.00 1760.00 L 964.00 1759.00 L 912.00 1759.00 L 875.00 1843.00 Z" stroke-width="1" id="301-22-03" stroke="black"/>
  <path fill="none" d="M 1004.00 1864.00 L 1044.00 1864.00 L 1064.00 1844.00 L 1204.00 1844.00 L 1224.00 1845.00 L 1384.00 1845.00 L 1404.00 1885.00 L 1424.00 1865.00 L 1444.00 1865.00 L 1464.00 1846.00 L 1512.00 1846.00 L 1532.00 1764.40 L 1524.00 1764.00 L 1424.00 1764.00 L 1404.00 1763.00 L 1324.00 1763.00 L 1304.00 1762.00 L 1204.00 1762.00 L 1184.00 1761.00 L 1084.00 1761.00 L 1069.00 1760.25 L 993.00 1852.45 Z" stroke-width="1" id="301-22-04" stroke="black"/>
  <path fill="none" d="M 1524.00 1846.00 L 1544.00 1866.00 L 1564.00 1866.00 L 1584.00 1846.00 L 1599.00 1846.00 L 1660.00 1765.80 L 1644.00 1765.00 L 1544.00 1765.00 L 1532.00 1764.40 L 1512.00 1846.00 Z" stroke-width="1" id="301-22-05" stroke="black"/>
  <path fill="none" d="M 1684.00 1846.00 L 1704.00 1847.00 L 1724.00 1847.00 L 1748.00 1766.20 L 1744.00 1766.00 L 1664.00 1766.00 L 1660.00 1765.80 L 1599.00 1846.00 Z" stroke-width="1" id="301-22-06" stroke="black"/>
  <path fill="none" d="M 1924.00 1847.00 L 1944.00 1848.00 L 1968.56 1848.00 L 1946.00 1836.00 L 1960.00 1796.00 L 1994.94 1768.55 L 1984.00 1768.00 L 1884.00 1768.00 L 1864.00 1767.00 L 1764.00 1767.00 L 1748.00 1766.20 L 1724.00 1847.00 Z" stroke-width="1" id="301-22-07" stroke="black"/>
  <path fill="none" d="M 646.00 1842.00 L 834.00 1846.00 L 794.00 1879.00 L 794.00 1931.00 L 904.00 1931.00 L 924.00 1951.00 L 944.00 1931.00 L 964.00 1952.00 L 983.00 1933.00 L 992.00 1851.40 L 984.00 1843.00 L 764.00 1843.00 L 744.00 1842.00 Z" stroke-width="1" id="301-23-01" stroke="black"/>
  <path fill="none" d="M 984.00 1932.00 L 1084.00 1932.00 L 1129.00 1844.00 L 1064.00 1844.00 L 1044.00 1864.00 L 1004.00 1864.00 L 992.00 1851.40 L 983.00 1933.00 Z" stroke-width="1" id="301-23-02" stroke="black"/>
  <path fill="none" d="M 1164.00 1932.00 L 1184.00 1933.00 L 1295.00 1933.00 L 1325.00 1845.00 L 1224.00 1845.00 L 1204.00 1844.00 L 1129.00 1844.00 L 1084.00 1932.00 Z" stroke-width="1" id="301-23-03" stroke="black"/>
  <path fill="none" d="M 1384.00 1933.00 L 1404.00 1934.00 L 1516.00 1934.00 L 1544.00 1866.00 L 1524.00 1846.00 L 1464.00 1846.00 L 1444.00 1865.00 L 1424.00 1865.00 L 1404.00 1885.00 L 1384.00 1845.00 L 1325.00 1845.00 L 1295.00 1933.00 Z" stroke-width="1" id="301-23-04" stroke="black"/>
  <path fill="none" d="M 1624.00 1934.00 L 1644.00 1935.00 L 1713.00 1935.00 L 1724.00 1847.00 L 1704.00 1847.00 L 1684.00 1846.00 L 1584.00 1846.00 L 1564.00 1866.00 L 1544.00 1866.00 L 1516.00 1934.00 Z" stroke-width="1" id="301-23-05" stroke="black"/>
  <path fill="none" d="M 1766.00 1935.00 L 1800.00 1847.00 L 1724.00 1847.00 L 1713.00 1935.00 Z" stroke-width="1" id="301-23-06" stroke="black"/>
  <path fill="none" d="M 1844.00 1935.00 L 1857.00 1948.65 L 1949.56 1848.00 L 1944.00 1848.00 L 1924.00 1847.00 L 1800.00 1847.00 L 1766.00 1935.00 Z" stroke-width="1" id="301-23-07" stroke="black"/>
  <path fill="none" d="M 1864.00 1956.00 L 1904.00 1956.00 L 1924.00 1936.00 L 2038.95 1936.00 L 2041.00 1912.00 L 2040.00 1886.00 L 1968.56 1848.00 L 1949.56 1848.00 L 1857.00 1948.65 Z" stroke-width="1" id="301-23-08" stroke="black"/>
  <path fill="none" d="M 334.00 1970.00 L 325.00 1987.00 L 326.78 2014.00 L 419.78 2014.00 L 452.00 1947.01 L 415.00 1948.00 Z" stroke-width="1" id="301-24-01" stroke="black"/>
  <path fill="none" d="M 464.00 2014.00 L 484.00 2015.00 L 644.00 2015.00 L 664.00 2016.00 L 741.00 2016.00 L 774.00 1950.14 L 676.00 1941.00 L 452.00 1947.01 L 419.78 2014.00 Z" stroke-width="1" id="301-24-02" stroke="black"/>
  <path fill="none" d="M 744.00 2016.00 L 764.00 2036.00 L 784.00 2016.00 L 824.00 2016.00 L 844.00 2017.00 L 874.00 2017.00 L 913.00 1940.00 L 904.00 1931.00 L 794.00 1931.00 L 794.00 1952.00 L 774.00 1950.14 L 741.00 2016.00 Z" stroke-width="1" id="301-24-03" stroke="black"/>
  <path fill="none" d="M 944.00 2017.00 L 964.00 2037.00 L 984.00 2037.00 L 1004.00 2017.00 L 1024.00 2018.00 L 1124.00 2018.00 L 1144.00 2038.00 L 1164.00 2038.00 L 1184.00 2018.00 L 1204.00 2019.00 L 1300.00 2019.00 L 1318.00 1933.00 L 1184.00 1933.00 L 1164.00 1932.00 L 984.00 1932.00 L 964.00 1952.00 L 944.00 1931.00 L 924.00 1951.00 L 913.00 1940.00 L 874.00 2017.00 Z" stroke-width="1" id="301-24-04" stroke="black"/>
  <path fill="none" d="M 1364.00 2019.00 L 1384.00 2020.00 L 1476.00 2020.00 L 1512.00 1934.00 L 1404.00 1934.00 L 1384.00 1933.00 L 1318.00 1933.00 L 1300.00 2019.00 Z" stroke-width="1" id="301-24-05" stroke="black"/>
  <path fill="none" d="M 1544.00 2020.00 L 1564.00 2021.00 L 1593.00 2021.00 L 1599.00 1934.00 L 1512.00 1934.00 L 1476.00 2020.00 Z" stroke-width="1" id="301-24-06" stroke="black"/>
  <path fill="none" d="M 1724.00 2021.00 L 1744.00 2022.00 L 1804.00 2022.00 L 1824.00 2042.00 L 1864.00 2042.00 L 1884.00 2022.00 L 1904.00 2022.00 L 1907.00 2022.15 L 1914.00 1946.00 L 1904.00 1956.00 L 1864.00 1956.00 L 1844.00 1935.00 L 1644.00 1935.00 L 1624.00 1934.00 L 1599.00 1934.00 L 1593.00 2021.00 Z" stroke-width="1" id="301-24-07" stroke="black"/>
  <path fill="none" d="M 1924.00 2023.00 L 2027.31 2023.00 L 2034.00 1994.00 L 2038.95 1936.00 L 1924.00 1936.00 L 1914.00 1946.00 L 1907.00 2022.15 Z" stroke-width="1" id="301-24-08" stroke="black"/>
  <path fill="none" d="M 326.78 2014.00 L 330.00 2063.00 L 320.00 2102.00 L 323.00 2106.00 L 364.00 2106.00 L 384.00 2126.00 L 404.00 2126.00 L 424.00 2107.00 L 524.00 2107.00 L 544.00 2108.00 L 602.00 2108.00 L 637.00 2015.00 L 484.00 2015.00 L 464.00 2014.00 Z" stroke-width="1" id="301-25-01" stroke="black"/>
  <path fill="none" d="M 604.00 2108.00 L 624.00 2128.00 L 644.00 2108.00 L 664.00 2109.00 L 686.00 2109.00 L 752.00 2024.00 L 744.00 2016.00 L 664.00 2016.00 L 644.00 2015.00 L 637.00 2015.00 L 602.00 2108.00 Z" stroke-width="1" id="301-25-02" stroke="black"/>
  <path fill="none" d="M 764.00 2109.00 L 784.00 2110.00 L 884.00 2110.00 L 904.00 2111.00 L 952.00 2111.00 L 974.00 2037.00 L 964.00 2037.00 L 944.00 2017.00 L 844.00 2017.00 L 824.00 2016.00 L 784.00 2016.00 L 764.00 2036.00 L 752.00 2024.00 L 686.00 2109.00 Z" stroke-width="1" id="301-25-03" stroke="black"/>
  <path fill="none" d="M 1004.00 2111.00 L 1024.00 2112.00 L 1124.00 2112.00 L 1144.00 2113.00 L 1192.00 2113.00 L 1218.00 2019.00 L 1204.00 2019.00 L 1184.00 2018.00 L 1164.00 2038.00 L 1144.00 2038.00 L 1124.00 2018.00 L 1024.00 2018.00 L 1004.00 2017.00 L 984.00 2037.00 L 974.00 2037.00 L 952.00 2111.00 Z" stroke-width="1" id="301-25-04" stroke="black"/>
  <path fill="none" d="M 1244.00 2113.00 L 1264.00 2114.00 L 1319.00 2114.00 L 1337.00 2019.00 L 1218.00 2019.00 L 1192.00 2113.00 Z" stroke-width="1" id="301-25-05" stroke="black"/>
  <path fill="none" d="M 1364.00 2114.00 L 1384.00 2115.00 L 1457.00 2115.00 L 1475.00 2020.00 L 1384.00 2020.00 L 1364.00 2019.00 L 1337.00 2019.00 L 1319.00 2114.00 Z" stroke-width="1" id="301-25-06" stroke="black"/>
  <path fill="none" d="M 1484.00 2115.00 L 1504.00 2116.00 L 1579.00 2116.00 L 1593.00 2021.00 L 1564.00 2021.00 L 1544.00 2020.00 L 1475.00 2020.00 L 1457.00 2115.00 Z" stroke-width="1" id="301-25-07" stroke="black"/>
  <path fill="none" d="M 1604.00 2116.00 L 1624.00 2117.00 L 1719.00 2117.00 L 1730.00 2021.30 L 1724.00 2021.00 L 1593.00 2021.00 L 1579.00 2116.00 Z" stroke-width="1" id="301-25-08" stroke="black"/>
  <path fill="none" d="M 1724.00 2117.00 L 1744.00 2118.00 L 1844.00 2118.00 L 1864.00 2119.00 L 1964.00 2119.00 L 1984.00 2120.00 L 2026.73 2120.00 L 2016.00 2072.00 L 2027.31 2023.00 L 1924.00 2023.00 L 1904.00 2022.00 L 1884.00 2022.00 L 1864.00 2042.00 L 1824.00 2042.00 L 1804.00 2022.00 L 1744.00 2022.00 L 1730.00 2021.30 L 1719.00 2117.00 Z" stroke-width="1" id="301-25-09" stroke="black"/>
  <path fill="none" d="M 323.00 2106.00 L 326.00 2110.00 L 326.00 2172.00 L 314.00 2191.00 L 326.00 2199.00 L 326.14 2205.86 L 344.00 2188.00 L 364.00 2188.00 L 384.00 2189.00 L 444.00 2189.00 L 464.00 2190.00 L 484.00 2190.00 L 504.00 2210.00 L 524.00 2190.00 L 544.00 2190.00 L 564.00 2191.00 L 588.00 2191.00 L 624.00 2128.00 L 604.00 2108.00 L 544.00 2108.00 L 524.00 2107.00 L 424.00 2107.00 L 404.00 2126.00 L 384.00 2126.00 L 364.00 2106.00 Z" stroke-width="1" id="301-26-01" stroke="black"/>
  <path fill="none" d="M 624.00 2191.00 L 644.00 2192.00 L 704.00 2192.00 L 724.00 2193.00 L 804.00 2193.00 L 818.00 2193.70 L 826.00 2110.00 L 784.00 2110.00 L 764.00 2109.00 L 664.00 2109.00 L 644.00 2108.00 L 624.00 2128.00 L 588.00 2191.00 Z" stroke-width="1" id="301-26-02" stroke="black"/>
  <path fill="none" d="M 824.00 2194.00 L 884.00 2194.00 L 904.00 2195.00 L 963.00 2195.00 L 974.00 2111.00 L 904.00 2111.00 L 884.00 2110.00 L 826.00 2110.00 L 818.00 2193.70 Z" stroke-width="1" id="301-26-03" stroke="black"/>
  <path fill="none" d="M 984.00 2195.00 L 1004.00 2196.00 L 1064.00 2196.00 L 1084.00 2197.00 L 1144.00 2197.00 L 1149.00 2197.25 L 1167.00 2113.00 L 1144.00 2113.00 L 1124.00 2112.00 L 1024.00 2112.00 L 1004.00 2111.00 L 974.00 2111.00 L 963.00 2195.00 Z" stroke-width="1" id="301-26-04" stroke="black"/>
  <path fill="none" d="M 1164.00 2198.00 L 1244.00 2198.00 L 1264.00 2199.00 L 1324.00 2199.00 L 1344.00 2200.00 L 1362.00 2200.00 L 1379.00 2114.75 L 1364.00 2114.00 L 1264.00 2114.00 L 1244.00 2113.00 L 1167.00 2113.00 L 1149.00 2197.25 Z" stroke-width="1" id="301-26-05" stroke="black"/>
  <path fill="none" d="M 1424.00 2200.00 L 1444.00 2201.00 L 1504.00 2201.00 L 1524.00 2202.00 L 1562.00 2202.00 L 1582.00 2116.00 L 1504.00 2116.00 L 1484.00 2115.00 L 1384.00 2115.00 L 1379.00 2114.75 L 1362.00 2200.00 Z" stroke-width="1" id="301-26-06" stroke="black"/>
  <path fill="none" d="M 1584.00 2202.00 L 1604.00 2203.00 L 1683.00 2203.00 L 1732.00 2117.40 L 1724.00 2117.00 L 1624.00 2117.00 L 1604.00 2116.00 L 1582.00 2116.00 L 1562.00 2202.00 Z" stroke-width="1" id="301-26-07" stroke="black"/>
  <path fill="none" d="M 1684.00 2203.00 L 1704.00 2204.00 L 1764.00 2204.00 L 1784.00 2205.00 L 1864.00 2205.00 L 1875.00 2205.55 L 1938.00 2119.00 L 1864.00 2119.00 L 1844.00 2118.00 L 1744.00 2118.00 L 1732.00 2117.40 L 1683.00 2203.00 Z" stroke-width="1" id="301-26-08" stroke="black"/>
  <path fill="none" d="M 1884.00 2206.00 L 1944.00 2206.00 L 1964.00 2207.00 L 1984.00 2207.00 L 2004.00 2187.00 L 2024.00 2187.00 L 2032.62 2196.05 L 2035.00 2157.00 L 2026.73 2120.00 L 1984.00 2120.00 L 1964.00 2119.00 L 1938.00 2119.00 L 1875.00 2205.55 Z" stroke-width="1" id="301-26-09" stroke="black"/>
  <path fill="none" d="M 344.00 2188.00 L 326.14 2205.86 L 327.00 2248.00 L 326.50 2287.00 L 384.00 2287.00 L 404.00 2288.00 L 432.00 2288.00 L 439.00 2189.00 L 384.00 2189.00 L 364.00 2188.00 Z" stroke-width="1" id="301-27-01" stroke="black"/>
  <path fill="none" d="M 484.00 2288.00 L 504.00 2289.00 L 564.00 2289.00 L 568.00 2293.00 L 648.00 2192.00 L 644.00 2192.00 L 624.00 2191.00 L 564.00 2191.00 L 544.00 2190.00 L 524.00 2190.00 L 504.00 2210.00 L 484.00 2190.00 L 464.00 2190.00 L 444.00 2189.00 L 439.00 2189.00 L 432.00 2288.00 Z" stroke-width="1" id="301-27-02" stroke="black"/>
  <path fill="none" d="M 584.00 2309.00 L 604.00 2290.00 L 644.00 2290.00 L 664.00 2310.00 L 684.00 2310.00 L 704.00 2291.00 L 763.00 2291.00 L 791.00 2193.00 L 724.00 2193.00 L 704.00 2192.00 L 648.00 2192.00 L 568.00 2293.00 Z" stroke-width="1" id="301-27-03" stroke="black"/>
  <path fill="none" d="M 784.00 2291.00 L 804.00 2272.00 L 824.00 2272.00 L 844.00 2292.00 L 884.00 2292.00 L 904.00 2293.00 L 949.00 2293.00 L 1003.00 2195.95 L 984.00 2195.00 L 904.00 2195.00 L 884.00 2194.00 L 824.00 2194.00 L 804.00 2193.00 L 791.00 2193.00 L 763.00 2291.00 Z" stroke-width="1" id="301-27-04" stroke="black"/>
  <path fill="none" d="M 984.00 2293.00 L 1004.00 2294.00 L 1084.00 2294.00 L 1104.00 2295.00 L 1124.00 2315.00 L 1144.00 2295.00 L 1184.00 2295.00 L 1204.00 2296.00 L 1218.00 2296.00 L 1244.00 2198.00 L 1164.00 2198.00 L 1144.00 2197.00 L 1084.00 2197.00 L 1064.00 2196.00 L 1004.00 2196.00 L 1003.00 2195.95 L 949.00 2293.00 Z" stroke-width="1" id="301-27-05" stroke="black"/>
  <path fill="none" d="M 1284.00 2296.00 L 1304.00 2297.00 L 1339.00 2297.00 L 1353.00 2200.00 L 1344.00 2200.00 L 1324.00 2199.00 L 1264.00 2199.00 L 1244.00 2198.00 L 1218.00 2296.00 Z" stroke-width="1" id="301-27-06" stroke="black"/>
  <path fill="none" d="M 1384.00 2297.00 L 1404.00 2298.00 L 1473.00 2298.00 L 1508.00 2201.20 L 1504.00 2201.00 L 1444.00 2201.00 L 1424.00 2200.00 L 1353.00 2200.00 L 1339.00 2297.00 Z" stroke-width="1" id="301-27-07" stroke="black"/>
  <path fill="none" d="M 1484.00 2298.00 L 1504.00 2299.00 L 1584.00 2299.00 L 1604.00 2300.00 L 1672.00 2300.00 L 1701.00 2203.85 L 1684.00 2203.00 L 1604.00 2203.00 L 1584.00 2202.00 L 1524.00 2202.00 L 1508.00 2201.20 L 1473.00 2298.00 Z" stroke-width="1" id="301-27-08" stroke="black"/>
  <path fill="none" d="M 1684.00 2300.00 L 1704.00 2301.00 L 1738.00 2301.00 L 1811.00 2205.00 L 1784.00 2205.00 L 1764.00 2204.00 L 1704.00 2204.00 L 1701.00 2203.85 L 1672.00 2300.00 Z" stroke-width="1" id="301-27-09" stroke="black"/>
  <path fill="none" d="M 1784.00 2301.00 L 1804.00 2302.00 L 1824.00 2302.00 L 1844.00 2282.00 L 1864.00 2302.00 L 1884.00 2302.00 L 1904.00 2303.00 L 1959.00 2303.00 L 1969.00 2207.00 L 1964.00 2207.00 L 1944.00 2206.00 L 1884.00 2206.00 L 1864.00 2205.00 L 1811.00 2205.00 L 1738.00 2301.00 Z" stroke-width="1" id="301-27-10" stroke="black"/>
  <path fill="none" d="M 1984.00 2303.00 L 2004.00 2304.00 L 2040.46 2304.00 L 2030.00 2239.00 L 2032.62 2196.05 L 2024.00 2187.00 L 2004.00 2187.00 L 1984.00 2207.00 L 1969.00 2207.00 L 1959.00 2303.00 Z" stroke-width="1" id="301-27-11" stroke="black"/>
  <path fill="none" d="M 326.50 2287.00 L 326.00 2326.00 L 322.00 2344.00 L 328.00 2352.00 L 328.25 2359.00 L 384.00 2359.00 L 404.00 2360.00 L 484.00 2360.00 L 504.00 2361.00 L 584.00 2361.00 L 604.00 2362.00 L 612.00 2362.00 L 652.00 2298.00 L 644.00 2290.00 L 604.00 2290.00 L 584.00 2309.00 L 564.00 2289.00 L 504.00 2289.00 L 484.00 2288.00 L 404.00 2288.00 L 384.00 2287.00 Z" stroke-width="1" id="301-28-01" stroke="black"/>
  <path fill="none" d="M 684.00 2362.00 L 704.00 2363.00 L 764.00 2363.00 L 777.00 2382.50 L 854.00 2292.00 L 844.00 2292.00 L 824.00 2272.00 L 804.00 2272.00 L 784.00 2291.00 L 704.00 2291.00 L 684.00 2310.00 L 664.00 2310.00 L 652.00 2298.00 L 612.00 2362.00 Z" stroke-width="1" id="301-28-02" stroke="black"/>
  <path fill="none" d="M 784.00 2393.00 L 804.00 2389.00 L 824.00 2377.00 L 844.00 2369.00 L 864.00 2369.00 L 884.00 2365.00 L 984.00 2365.00 L 1004.00 2366.00 L 1052.00 2366.00 L 1058.00 2294.00 L 1004.00 2294.00 L 984.00 2293.00 L 904.00 2293.00 L 884.00 2292.00 L 854.00 2292.00 L 777.00 2382.50 Z" stroke-width="1" id="301-28-03" stroke="black"/>
  <path fill="none" d="M 1084.00 2366.00 L 1104.00 2387.00 L 1124.00 2387.00 L 1144.00 2367.00 L 1184.00 2367.00 L 1204.00 2368.00 L 1284.00 2368.00 L 1304.00 2369.00 L 1324.00 2389.00 L 1344.00 2369.00 L 1361.00 2369.00 L 1383.00 2297.00 L 1304.00 2297.00 L 1284.00 2296.00 L 1204.00 2296.00 L 1184.00 2295.00 L 1144.00 2295.00 L 1124.00 2315.00 L 1104.00 2295.00 L 1084.00 2294.00 L 1058.00 2294.00 L 1052.00 2366.00 Z" stroke-width="1" id="301-28-04" stroke="black"/>
  <path fill="none" d="M 1384.00 2369.00 L 1404.00 2370.00 L 1484.00 2370.00 L 1504.00 2371.00 L 1584.00 2371.00 L 1604.00 2372.00 L 1640.00 2372.00 L 1670.00 2300.00 L 1604.00 2300.00 L 1584.00 2299.00 L 1504.00 2299.00 L 1484.00 2298.00 L 1404.00 2298.00 L 1384.00 2297.00 L 1383.00 2297.00 L 1361.00 2369.00 Z" stroke-width="1" id="301-28-05" stroke="black"/>
  <path fill="none" d="M 1684.00 2372.00 L 1704.00 2373.00 L 1776.00 2373.00 L 1795.00 2301.55 L 1784.00 2301.00 L 1704.00 2301.00 L 1684.00 2300.00 L 1670.00 2300.00 L 1640.00 2372.00 Z" stroke-width="1" id="301-28-06" stroke="black"/>
  <path fill="none" d="M 1784.00 2373.00 L 1804.00 2374.00 L 1884.00 2374.00 L 1904.00 2375.00 L 1984.00 2375.00 L 2004.00 2376.00 L 2037.83 2376.00 L 2044.00 2326.00 L 2040.46 2304.00 L 2004.00 2304.00 L 1984.00 2303.00 L 1904.00 2303.00 L 1884.00 2302.00 L 1864.00 2302.00 L 1844.00 2282.00 L 1824.00 2302.00 L 1804.00 2302.00 L 1795.00 2301.55 L 1776.00 2373.00 Z" stroke-width="1" id="301-28-07" stroke="black"/>
  <path fill="none" d="M 328.25 2359.00 L 330.00 2408.00 L 318.00 2425.00 L 329.00 2432.00 L 329.00 2447.00 L 344.00 2447.00 L 364.00 2448.00 L 404.00 2448.00 L 424.00 2449.00 L 444.00 2449.00 L 464.00 2469.00 L 484.00 2470.00 L 504.00 2470.00 L 524.00 2450.00 L 544.00 2451.00 L 584.00 2451.00 L 589.00 2451.25 L 610.00 2362.00 L 604.00 2362.00 L 584.00 2361.00 L 504.00 2361.00 L 484.00 2360.00 L 404.00 2360.00 L 384.00 2359.00 Z" stroke-width="1" id="301-29-01" stroke="black"/>
  <path fill="none" d="M 604.00 2452.00 L 644.00 2452.00 L 664.00 2453.00 L 684.00 2433.00 L 704.00 2433.00 L 724.00 2453.00 L 744.00 2454.00 L 747.00 2454.00 L 784.00 2393.00 L 764.00 2363.00 L 704.00 2363.00 L 684.00 2362.00 L 610.00 2362.00 L 589.00 2451.25 Z" stroke-width="1" id="301-29-02" stroke="black"/>
  <path fill="none" d="M 784.00 2454.00 L 804.00 2455.00 L 806.00 2455.00 L 883.00 2365.20 L 864.00 2369.00 L 844.00 2369.00 L 824.00 2377.00 L 804.00 2389.00 L 784.00 2393.00 L 747.00 2454.00 Z" stroke-width="1" id="301-29-03" stroke="black"/>
  <path fill="none" d="M 844.00 2455.00 L 864.00 2456.00 L 884.00 2456.00 L 904.00 2476.00 L 924.00 2457.00 L 964.00 2457.00 L 984.00 2458.00 L 1024.00 2458.00 L 1044.00 2459.00 L 1104.00 2459.00 L 1124.00 2460.00 L 1164.00 2460.00 L 1184.00 2461.00 L 1224.00 2461.00 L 1244.00 2462.00 L 1269.00 2462.00 L 1298.00 2368.70 L 1284.00 2368.00 L 1204.00 2368.00 L 1184.00 2367.00 L 1144.00 2367.00 L 1124.00 2387.00 L 1104.00 2387.00 L 1084.00 2366.00 L 1004.00 2366.00 L 984.00 2365.00 L 884.00 2365.00 L 883.00 2365.20 L 806.00 2455.00 Z" stroke-width="1" id="301-29-04" stroke="black"/>
  <path fill="none" d="M 1284.00 2462.00 L 1304.00 2463.00 L 1344.00 2463.00 L 1364.00 2464.00 L 1368.00 2464.00 L 1379.00 2369.00 L 1344.00 2369.00 L 1324.00 2389.00 L 1304.00 2369.00 L 1298.00 2368.70 L 1269.00 2462.00 Z" stroke-width="1" id="301-29-05" stroke="black"/>
  <path fill="none" d="M 1404.00 2464.00 L 1424.00 2465.00 L 1484.00 2465.00 L 1504.00 2466.00 L 1544.00 2466.00 L 1564.00 2467.00 L 1604.00 2467.00 L 1624.00 2468.00 L 1664.00 2468.00 L 1675.00 2468.55 L 1717.00 2373.00 L 1704.00 2373.00 L 1684.00 2372.00 L 1604.00 2372.00 L 1584.00 2371.00 L 1504.00 2371.00 L 1484.00 2370.00 L 1404.00 2370.00 L 1384.00 2369.00 L 1379.00 2369.00 L 1368.00 2464.00 Z" stroke-width="1" id="301-29-06" stroke="black"/>
  <path fill="none" d="M 1684.00 2469.00 L 1724.00 2469.00 L 1744.00 2470.00 L 1784.00 2470.00 L 1804.00 2471.00 L 1864.00 2471.00 L 1884.00 2472.00 L 1906.00 2472.00 L 1936.00 2375.00 L 1904.00 2375.00 L 1884.00 2374.00 L 1804.00 2374.00 L 1784.00 2373.00 L 1717.00 2373.00 L 1675.00 2468.55 Z" stroke-width="1" id="301-29-07" stroke="black"/>
  <path fill="none" d="M 1924.00 2472.00 L 1944.00 2473.00 L 1984.00 2473.00 L 2004.00 2474.00 L 2024.00 2454.00 L 2032.30 2462.30 L 2034.00 2407.00 L 2037.83 2376.00 L 2004.00 2376.00 L 1984.00 2375.00 L 1936.00 2375.00 L 1906.00 2472.00 Z" stroke-width="1" id="301-29-08" stroke="black"/>
  <path fill="none" d="M 329.00 2447.00 L 329.00 2495.00 L 328.00 2506.00 L 320.00 2515.00 L 336.00 2523.00 L 335.18 2533.00 L 364.00 2533.00 L 384.00 2534.00 L 444.00 2534.00 L 464.00 2535.00 L 522.00 2535.00 L 545.00 2451.00 L 544.00 2451.00 L 524.00 2450.00 L 504.00 2470.00 L 484.00 2470.00 L 464.00 2469.00 L 444.00 2449.00 L 424.00 2449.00 L 404.00 2448.00 L 364.00 2448.00 L 344.00 2447.00 Z" stroke-width="1" id="301-30-01" stroke="black"/>
  <path fill="none" d="M 524.00 2535.00 L 544.00 2536.00 L 604.00 2536.00 L 624.00 2537.00 L 684.00 2537.00 L 704.00 2538.00 L 715.00 2549.00 L 775.00 2454.00 L 744.00 2454.00 L 724.00 2453.00 L 704.00 2433.00 L 684.00 2433.00 L 664.00 2453.00 L 644.00 2452.00 L 604.00 2452.00 L 584.00 2451.00 L 545.00 2451.00 L 522.00 2535.00 Z" stroke-width="1" id="301-30-02" stroke="black"/>
  <path fill="none" d="M 724.00 2558.00 L 744.00 2578.00 L 764.00 2558.00 L 784.00 2559.00 L 804.00 2539.00 L 844.00 2539.00 L 864.00 2540.00 L 924.00 2540.00 L 944.00 2541.00 L 1004.00 2541.00 L 1024.00 2542.00 L 1084.00 2542.00 L 1104.00 2543.00 L 1162.00 2543.00 L 1235.00 2461.55 L 1224.00 2461.00 L 1184.00 2461.00 L 1164.00 2460.00 L 1124.00 2460.00 L 1104.00 2459.00 L 1044.00 2459.00 L 1024.00 2458.00 L 984.00 2458.00 L 964.00 2457.00 L 924.00 2457.00 L 904.00 2476.00 L 884.00 2456.00 L 864.00 2456.00 L 844.00 2455.00 L 804.00 2455.00 L 784.00 2454.00 L 775.00 2454.00 L 715.00 2549.00 Z" stroke-width="1" id="301-30-03" stroke="black"/>
  <path fill="none" d="M 1164.00 2543.00 L 1184.00 2544.00 L 1264.00 2544.00 L 1271.00 2544.35 L 1318.00 2463.00 L 1304.00 2463.00 L 1284.00 2462.00 L 1244.00 2462.00 L 1235.00 2461.55 L 1162.00 2543.00 Z" stroke-width="1" id="301-30-04" stroke="black"/>
  <path fill="none" d="M 1284.00 2545.00 L 1344.00 2545.00 L 1364.00 2546.00 L 1424.00 2546.00 L 1438.00 2546.70 L 1447.00 2465.00 L 1424.00 2465.00 L 1404.00 2464.00 L 1364.00 2464.00 L 1344.00 2463.00 L 1318.00 2463.00 L 1271.00 2544.35 Z" stroke-width="1" id="301-30-05" stroke="black"/>
  <path fill="none" d="M 1444.00 2547.00 L 1504.00 2547.00 L 1524.00 2548.00 L 1584.00 2548.00 L 1604.00 2549.00 L 1664.00 2549.00 L 1684.00 2550.00 L 1744.00 2550.00 L 1756.00 2550.60 L 1777.00 2470.00 L 1744.00 2470.00 L 1724.00 2469.00 L 1684.00 2469.00 L 1664.00 2468.00 L 1624.00 2468.00 L 1604.00 2467.00 L 1564.00 2467.00 L 1544.00 2466.00 L 1504.00 2466.00 L 1484.00 2465.00 L 1447.00 2465.00 L 1438.00 2546.70 Z" stroke-width="1" id="301-30-06" stroke="black"/>
  <path fill="none" d="M 1764.00 2551.00 L 1824.00 2551.00 L 1844.00 2552.00 L 1904.00 2552.00 L 1924.00 2553.00 L 1965.00 2553.00 L 1962.00 2473.00 L 1944.00 2473.00 L 1924.00 2472.00 L 1884.00 2472.00 L 1864.00 2471.00 L 1804.00 2471.00 L 1784.00 2470.00 L 1777.00 2470.00 L 1756.00 2550.60 Z" stroke-width="1" id="301-30-07" stroke="black"/>
  <path fill="none" d="M 1984.00 2553.00 L 2004.00 2554.00 L 2009.04 2554.00 L 2032.00 2472.00 L 2032.30 2462.30 L 2024.00 2454.00 L 2004.00 2474.00 L 1984.00 2473.00 L 1962.00 2473.00 L 1965.00 2553.00 Z" stroke-width="1" id="301-30-08" stroke="black"/>
  <path fill="none" d="M 335.18 2533.00 L 330.00 2596.00 L 330.23 2614.00 L 463.23 2614.00 L 478.00 2535.00 L 464.00 2535.00 L 444.00 2534.00 L 384.00 2534.00 L 364.00 2533.00 Z" stroke-width="1" id="301-31-01" stroke="black"/>
  <path fill="none" d="M 504.00 2614.00 L 524.00 2615.00 L 664.00 2615.00 L 684.00 2635.00 L 704.00 2635.00 L 724.00 2615.00 L 744.00 2616.00 L 753.00 2616.00 L 746.00 2576.00 L 744.00 2578.00 L 724.00 2558.00 L 704.00 2538.00 L 684.00 2537.00 L 624.00 2537.00 L 604.00 2536.00 L 544.00 2536.00 L 524.00 2535.00 L 478.00 2535.00 L 463.23 2614.00 Z" stroke-width="1" id="301-31-02" stroke="black"/>
  <path fill="none" d="M 942.00 2616.00 L 953.00 2541.00 L 944.00 2541.00 L 924.00 2540.00 L 864.00 2540.00 L 844.00 2539.00 L 804.00 2539.00 L 784.00 2559.00 L 764.00 2558.00 L 746.00 2576.00 L 753.00 2616.00 Z" stroke-width="1" id="301-31-03" stroke="black"/>
  <path fill="none" d="M 944.00 2616.00 L 964.00 2617.00 L 1159.00 2617.00 L 1195.00 2544.00 L 1184.00 2544.00 L 1164.00 2543.00 L 1104.00 2543.00 L 1084.00 2542.00 L 1024.00 2542.00 L 1004.00 2541.00 L 953.00 2541.00 L 942.00 2616.00 Z" stroke-width="1" id="301-31-04" stroke="black"/>
  <path fill="none" d="M 1164.00 2617.00 L 1184.00 2618.00 L 1342.00 2618.00 L 1362.00 2545.90 L 1344.00 2545.00 L 1284.00 2545.00 L 1264.00 2544.00 L 1195.00 2544.00 L 1159.00 2617.00 Z" stroke-width="1" id="301-31-05" stroke="black"/>
  <path fill="none" d="M 1384.00 2618.00 L 1404.00 2619.00 L 1546.00 2619.00 L 1569.00 2548.00 L 1524.00 2548.00 L 1504.00 2547.00 L 1444.00 2547.00 L 1424.00 2546.00 L 1364.00 2546.00 L 1362.00 2545.90 L 1342.00 2618.00 Z" stroke-width="1" id="301-31-06" stroke="black"/>
  <path fill="none" d="M 1584.00 2619.00 L 1604.00 2659.00 L 1624.00 2660.00 L 1644.00 2640.00 L 1664.00 2620.00 L 1824.00 2620.00 L 1844.00 2621.00 L 1910.00 2621.00 L 1915.00 2552.55 L 1904.00 2552.00 L 1844.00 2552.00 L 1824.00 2551.00 L 1764.00 2551.00 L 1744.00 2550.00 L 1684.00 2550.00 L 1664.00 2549.00 L 1604.00 2549.00 L 1584.00 2548.00 L 1569.00 2548.00 L 1546.00 2619.00 Z" stroke-width="1" id="301-31-07" stroke="black"/>
  <path fill="none" d="M 2015.74 2621.00 L 2004.00 2572.00 L 2009.04 2554.00 L 2004.00 2554.00 L 1984.00 2553.00 L 1924.00 2553.00 L 1915.00 2552.55 L 1910.00 2621.00 Z" stroke-width="1" id="301-31-08" stroke="black"/>
  <path fill="none" d="M 330.23 2614.00 L 331.00 2676.00 L 331.77 2698.00 L 404.00 2698.00 L 424.00 2699.00 L 447.00 2699.00 L 491.00 2614.00 Z" stroke-width="1" id="301-32-01" stroke="black"/>
  <path fill="none" d="M 524.00 2699.00 L 544.00 2700.00 L 644.00 2700.00 L 655.00 2700.55 L 681.00 2632.00 L 664.00 2615.00 L 524.00 2615.00 L 504.00 2614.00 L 491.00 2614.00 L 447.00 2699.00 Z" stroke-width="1" id="301-32-02" stroke="black"/>
  <path fill="none" d="M 664.00 2701.00 L 764.00 2701.00 L 784.00 2702.00 L 884.00 2702.00 L 904.00 2703.00 L 977.00 2703.00 L 997.00 2617.00 L 964.00 2617.00 L 944.00 2616.00 L 744.00 2616.00 L 724.00 2615.00 L 704.00 2635.00 L 684.00 2635.00 L 681.00 2632.00 L 655.00 2700.55 Z" stroke-width="1" id="301-32-03" stroke="black"/>
  <path fill="none" d="M 1004.00 2703.00 L 1024.00 2704.00 L 1103.00 2704.00 L 1130.00 2617.00 L 997.00 2617.00 L 977.00 2703.00 Z" stroke-width="1" id="301-32-04" stroke="black"/>
  <path fill="none" d="M 1144.00 2704.00 L 1164.00 2705.00 L 1264.00 2705.00 L 1284.00 2706.00 L 1384.00 2706.00 L 1404.00 2707.00 L 1444.00 2707.00 L 1464.00 2727.00 L 1484.00 2707.00 L 1529.00 2619.00 L 1404.00 2619.00 L 1384.00 2618.00 L 1184.00 2618.00 L 1164.00 2617.00 L 1130.00 2617.00 L 1103.00 2704.00 Z" stroke-width="1" id="301-32-05" stroke="black"/>
  <path fill="none" d="M 1504.00 2727.00 L 1524.00 2748.00 L 1544.00 2728.00 L 1564.00 2728.00 L 1584.00 2708.00 L 1604.00 2708.00 L 1613.00 2659.45 L 1604.00 2659.00 L 1584.00 2619.00 L 1529.00 2619.00 L 1484.00 2707.00 Z" stroke-width="1" id="301-32-06" stroke="black"/>
  <path fill="none" d="M 1624.00 2728.00 L 1644.00 2729.00 L 1664.00 2709.00 L 1744.00 2709.00 L 1764.00 2710.00 L 1826.00 2710.00 L 1820.00 2620.00 L 1664.00 2620.00 L 1644.00 2640.00 L 1624.00 2660.00 L 1613.00 2659.45 L 1604.00 2708.00 Z" stroke-width="1" id="301-32-07" stroke="black"/>
  <path fill="none" d="M 1864.00 2710.00 L 1884.00 2711.00 L 2004.00 2711.00 L 2024.00 2712.00 L 2036.43 2712.00 L 2027.00 2668.00 L 2015.74 2621.00 L 1844.00 2621.00 L 1824.00 2620.00 L 1820.00 2620.00 L 1826.00 2710.00 Z" stroke-width="1" id="301-32-08" stroke="black"/>
  <path fill="none" d="M 331.77 2698.00 L 334.00 2762.00 L 333.19 2785.00 L 344.00 2785.00 L 364.00 2786.00 L 424.00 2786.00 L 444.00 2787.00 L 452.00 2803.00 L 538.00 2699.70 L 524.00 2699.00 L 424.00 2699.00 L 404.00 2698.00 Z" stroke-width="1" id="301-33-01" stroke="black"/>
  <path fill="none" d="M 464.00 2827.00 L 484.00 2827.00 L 504.00 2808.00 L 524.00 2808.00 L 544.00 2788.00 L 564.00 2788.00 L 584.00 2789.00 L 624.00 2789.00 L 644.00 2790.00 L 664.00 2790.00 L 684.00 2810.00 L 704.00 2810.00 L 724.00 2791.00 L 764.00 2791.00 L 767.00 2791.15 L 776.00 2701.60 L 764.00 2701.00 L 664.00 2701.00 L 644.00 2700.00 L 544.00 2700.00 L 538.00 2699.70 L 452.00 2803.00 Z" stroke-width="1" id="301-33-02" stroke="black"/>
  <path fill="none" d="M 784.00 2792.00 L 844.00 2792.00 L 864.00 2793.00 L 884.00 2773.00 L 904.00 2793.00 L 924.00 2794.00 L 984.00 2794.00 L 1004.00 2795.00 L 1064.00 2795.00 L 1084.00 2796.00 L 1134.00 2704.00 L 1024.00 2704.00 L 1004.00 2703.00 L 904.00 2703.00 L 884.00 2702.00 L 784.00 2702.00 L 776.00 2701.60 L 767.00 2791.15 Z" stroke-width="1" id="301-33-03" stroke="black"/>
  <path fill="none" d="M 1124.00 2796.00 L 1144.00 2797.00 L 1204.00 2797.00 L 1224.00 2798.00 L 1264.00 2798.00 L 1284.00 2799.00 L 1344.00 2799.00 L 1364.00 2800.00 L 1404.00 2800.00 L 1424.00 2801.00 L 1484.00 2801.00 L 1519.00 2742.75 L 1504.00 2727.00 L 1484.00 2707.00 L 1464.00 2727.00 L 1444.00 2707.00 L 1404.00 2707.00 L 1384.00 2706.00 L 1284.00 2706.00 L 1264.00 2705.00 L 1164.00 2705.00 L 1144.00 2704.00 L 1134.00 2704.00 L 1084.00 2796.00 Z" stroke-width="1" id="301-33-04" stroke="black"/>
  <path fill="none" d="M 1504.00 2802.00 L 1544.00 2802.00 L 1564.00 2803.00 L 1581.00 2803.00 L 1624.00 2728.00 L 1604.00 2708.00 L 1584.00 2708.00 L 1564.00 2728.00 L 1544.00 2728.00 L 1524.00 2748.00 L 1519.00 2742.75 L 1484.00 2801.00 Z" stroke-width="1" id="301-33-05" stroke="black"/>
  <path fill="none" d="M 1624.00 2803.00 L 1644.00 2804.00 L 1688.00 2804.00 L 1745.00 2709.05 L 1744.00 2709.00 L 1664.00 2709.00 L 1644.00 2729.00 L 1624.00 2728.00 L 1581.00 2803.00 Z" stroke-width="1" id="301-33-06" stroke="black"/>
  <path fill="none" d="M 1704.00 2804.00 L 1724.00 2805.00 L 1764.00 2805.00 L 1784.00 2806.00 L 1844.00 2806.00 L 1864.00 2807.00 L 1904.00 2807.00 L 1923.00 2807.95 L 1959.00 2711.00 L 1884.00 2711.00 L 1864.00 2710.00 L 1764.00 2710.00 L 1745.00 2709.05 L 1688.00 2804.00 Z" stroke-width="1" id="301-33-07" stroke="black"/>
  <path fill="none" d="M 1924.00 2808.00 L 1984.00 2808.00 L 2004.00 2809.00 L 2035.15 2809.00 L 2035.00 2808.00 L 2045.00 2752.00 L 2036.43 2712.00 L 2024.00 2712.00 L 2004.00 2711.00 L 1959.00 2711.00 L 1923.00 2807.95 Z" stroke-width="1" id="301-33-08" stroke="black"/>
  <path fill="none" d="M 333.19 2785.00 L 331.00 2847.00 L 331.37 2869.00 L 344.00 2869.00 L 364.00 2870.00 L 404.00 2870.00 L 408.00 2870.20 L 418.00 2786.00 L 364.00 2786.00 L 344.00 2785.00 Z" stroke-width="1" id="301-34-01" stroke="black"/>
  <path fill="none" d="M 424.00 2871.00 L 464.00 2871.00 L 484.00 2872.00 L 524.00 2872.00 L 544.00 2873.00 L 584.00 2873.00 L 604.00 2874.00 L 644.00 2874.00 L 664.00 2875.00 L 704.00 2875.00 L 724.00 2876.00 L 736.00 2876.00 L 789.00 2792.00 L 784.00 2792.00 L 764.00 2791.00 L 724.00 2791.00 L 704.00 2810.00 L 684.00 2810.00 L 664.00 2790.00 L 644.00 2790.00 L 624.00 2789.00 L 584.00 2789.00 L 564.00 2788.00 L 544.00 2788.00 L 524.00 2808.00 L 504.00 2808.00 L 484.00 2827.00 L 464.00 2827.00 L 444.00 2787.00 L 424.00 2786.00 L 418.00 2786.00 L 408.00 2870.20 Z" stroke-width="1" id="301-34-02" stroke="black"/>
  <path fill="none" d="M 764.00 2876.00 L 784.00 2877.00 L 824.00 2877.00 L 844.00 2878.00 L 884.00 2878.00 L 904.00 2879.00 L 944.00 2879.00 L 964.00 2880.00 L 984.00 2860.00 L 1004.00 2880.00 L 1024.00 2881.00 L 1054.00 2881.00 L 1115.00 2796.00 L 1084.00 2796.00 L 1064.00 2795.00 L 1004.00 2795.00 L 984.00 2794.00 L 924.00 2794.00 L 904.00 2793.00 L 884.00 2773.00 L 864.00 2793.00 L 844.00 2792.00 L 789.00 2792.00 L 736.00 2876.00 Z" stroke-width="1" id="301-34-03" stroke="black"/>
  <path fill="none" d="M 1084.00 2881.00 L 1104.00 2882.00 L 1124.00 2862.00 L 1144.00 2902.00 L 1164.00 2903.00 L 1184.00 2883.00 L 1204.00 2883.00 L 1224.00 2884.00 L 1264.00 2884.00 L 1284.00 2885.00 L 1324.00 2885.00 L 1344.00 2886.00 L 1384.00 2886.00 L 1391.00 2886.35 L 1405.00 2800.05 L 1404.00 2800.00 L 1364.00 2800.00 L 1344.00 2799.00 L 1284.00 2799.00 L 1264.00 2798.00 L 1224.00 2798.00 L 1204.00 2797.00 L 1144.00 2797.00 L 1124.00 2796.00 L 1115.00 2796.00 L 1054.00 2881.00 Z" stroke-width="1" id="301-34-04" stroke="black"/>
  <path fill="none" d="M 1404.00 2887.00 L 1444.00 2887.00 L 1464.00 2888.00 L 1504.00 2888.00 L 1524.00 2889.00 L 1557.00 2889.00 L 1598.00 2803.00 L 1564.00 2803.00 L 1544.00 2802.00 L 1504.00 2802.00 L 1484.00 2801.00 L 1424.00 2801.00 L 1405.00 2800.05 L 1391.00 2886.35 Z" stroke-width="1" id="301-34-05" stroke="black"/>
  <path fill="none" d="M 1564.00 2889.00 L 1584.00 2890.00 L 1624.00 2890.00 L 1644.00 2891.00 L 1684.00 2891.00 L 1704.00 2892.00 L 1744.00 2892.00 L 1764.00 2893.00 L 1804.00 2893.00 L 1824.00 2894.00 L 1841.00 2894.00 L 1865.00 2807.00 L 1864.00 2807.00 L 1844.00 2806.00 L 1784.00 2806.00 L 1764.00 2805.00 L 1724.00 2805.00 L 1704.00 2804.00 L 1644.00 2804.00 L 1624.00 2803.00 L 1598.00 2803.00 L 1557.00 2889.00 Z" stroke-width="1" id="301-34-06" stroke="black"/>
  <path fill="none" d="M 1884.00 2894.00 L 1904.00 2895.00 L 1944.00 2895.00 L 1964.00 2896.00 L 2004.00 2896.00 L 2017.97 2896.70 L 2042.00 2855.00 L 2035.15 2809.00 L 2004.00 2809.00 L 1984.00 2808.00 L 1924.00 2808.00 L 1904.00 2807.00 L 1865.00 2807.00 L 1841.00 2894.00 Z" stroke-width="1" id="301-34-07" stroke="black"/>
  <path fill="none" d="M 331.37 2869.00 L 332.00 2907.00 L 333.00 2930.00 L 339.00 2960.00 L 339.01 2960.75 L 344.00 2961.00 L 384.00 2961.00 L 404.00 2962.00 L 424.00 2962.00 L 444.00 2963.00 L 464.00 2983.00 L 484.00 2983.00 L 504.00 2964.00 L 532.00 2964.00 L 579.00 2873.00 L 544.00 2873.00 L 524.00 2872.00 L 484.00 2872.00 L 464.00 2871.00 L 424.00 2871.00 L 404.00 2870.00 L 364.00 2870.00 L 344.00 2869.00 Z" stroke-width="1" id="301-35-01" stroke="black"/>
  <path fill="none" d="M 544.00 2964.00 L 564.00 2965.00 L 584.00 2965.00 L 604.00 2966.00 L 644.00 2966.00 L 664.00 2967.00 L 704.00 2967.00 L 724.00 2968.00 L 744.00 2968.00 L 764.00 2989.00 L 804.00 2989.00 L 824.00 2970.00 L 843.00 2970.00 L 868.00 2878.00 L 844.00 2878.00 L 824.00 2877.00 L 784.00 2877.00 L 764.00 2876.00 L 724.00 2876.00 L 704.00 2875.00 L 664.00 2875.00 L 644.00 2874.00 L 604.00 2874.00 L 584.00 2873.00 L 579.00 2873.00 L 532.00 2964.00 Z" stroke-width="1" id="301-35-02" stroke="black"/>
  <path fill="none" d="M 864.00 2970.00 L 884.00 2971.00 L 904.00 2971.00 L 924.00 2972.00 L 964.00 2972.00 L 984.00 2973.00 L 1004.00 2973.00 L 1012.00 2965.40 L 1007.00 2880.15 L 1004.00 2880.00 L 984.00 2860.00 L 964.00 2880.00 L 944.00 2879.00 L 904.00 2879.00 L 884.00 2878.00 L 868.00 2878.00 L 843.00 2970.00 Z" stroke-width="1" id="301-35-03" stroke="black"/>
  <path fill="none" d="M 1024.00 2954.00 L 1044.00 2954.00 L 1064.00 2974.00 L 1084.00 2975.00 L 1124.00 2975.00 L 1144.00 2976.00 L 1164.00 2976.00 L 1184.00 2977.00 L 1224.00 2977.00 L 1225.00 2977.05 L 1248.00 2884.00 L 1224.00 2884.00 L 1204.00 2883.00 L 1184.00 2883.00 L 1164.00 2903.00 L 1144.00 2902.00 L 1124.00 2862.00 L 1104.00 2882.00 L 1084.00 2881.00 L 1024.00 2881.00 L 1007.00 2880.15 L 1012.00 2965.40 Z" stroke-width="1" id="301-35-04" stroke="black"/>
  <path fill="none" d="M 1244.00 2978.00 L 1265.14 2978.00 L 1265.00 2968.00 L 1477.00 2972.53 L 1485.00 2888.00 L 1464.00 2888.00 L 1444.00 2887.00 L 1404.00 2887.00 L 1384.00 2886.00 L 1344.00 2886.00 L 1324.00 2885.00 L 1284.00 2885.00 L 1264.00 2884.00 L 1248.00 2884.00 L 1225.00 2977.05 Z" stroke-width="1" id="301-35-05" stroke="black"/>
  <path fill="none" d="M 1499.00 2973.00 L 1635.00 2973.00 L 1703.00 2891.95 L 1684.00 2891.00 L 1644.00 2891.00 L 1624.00 2890.00 L 1584.00 2890.00 L 1564.00 2889.00 L 1524.00 2889.00 L 1504.00 2888.00 L 1485.00 2888.00 L 1477.00 2972.53 Z" stroke-width="1" id="301-35-06" stroke="black"/>
  <path fill="none" d="M 1763.00 2973.00 L 1803.00 2975.64 L 1873.00 2894.00 L 1824.00 2894.00 L 1804.00 2893.00 L 1764.00 2893.00 L 1744.00 2892.00 L 1704.00 2892.00 L 1703.00 2891.95 L 1635.00 2973.00 Z" stroke-width="1" id="301-35-07" stroke="black"/>
  <path fill="none" d="M 1945.00 2985.00 L 2030.00 2950.00 L 2008.00 2914.00 L 2017.97 2896.70 L 2004.00 2896.00 L 1964.00 2896.00 L 1944.00 2895.00 L 1904.00 2895.00 L 1884.00 2894.00 L 1873.00 2894.00 L 1803.00 2975.64 Z" stroke-width="1" id="301-35-08" stroke="black"/>
  <path fill="none" d="M 339.01 2960.75 L 340.00 3020.00 L 346.00 3033.00 L 408.00 3034.79 L 460.00 2979.00 L 444.00 2963.00 L 424.00 2962.00 L 404.00 2962.00 L 384.00 2961.00 L 344.00 2961.00 Z" stroke-width="1" id="301-36-01" stroke="black"/>
  <path fill="none" d="M 622.00 3040.97 L 675.00 2967.00 L 664.00 2967.00 L 644.00 2966.00 L 604.00 2966.00 L 584.00 2965.00 L 564.00 2965.00 L 544.00 2964.00 L 504.00 2964.00 L 484.00 2983.00 L 464.00 2983.00 L 460.00 2979.00 L 408.00 3034.79 Z" stroke-width="1" id="301-36-02" stroke="black"/>
  <path fill="none" d="M 623.00 3041.00 L 658.39 3054.61 L 664.00 3049.00 L 684.00 3050.00 L 704.00 3050.00 L 724.00 3051.00 L 764.00 3051.00 L 778.04 3051.70 L 824.00 3050.00 L 823.70 3052.00 L 824.00 3052.00 L 844.00 3033.00 L 884.00 3033.00 L 904.00 3054.00 L 911.00 3054.00 L 924.00 2972.00 L 904.00 2971.00 L 884.00 2971.00 L 864.00 2970.00 L 824.00 2970.00 L 804.00 2989.00 L 764.00 2989.00 L 744.00 2968.00 L 724.00 2968.00 L 704.00 2967.00 L 675.00 2967.00 L 622.00 3040.97 Z" stroke-width="1" id="301-36-03" stroke="black"/>
  <path fill="none" d="M 924.00 3054.00 L 944.00 3055.00 L 984.00 3055.00 L 1004.00 3056.00 L 1044.00 3056.00 L 1064.00 3057.00 L 1104.00 3057.00 L 1124.00 3058.00 L 1144.00 3058.00 L 1164.00 3059.00 L 1204.00 3059.00 L 1224.00 3060.00 L 1253.00 3060.00 L 1266.00 3040.00 L 1265.14 2978.00 L 1244.00 2978.00 L 1224.00 2977.00 L 1184.00 2977.00 L 1164.00 2976.00 L 1144.00 2976.00 L 1124.00 2975.00 L 1084.00 2975.00 L 1064.00 2974.00 L 1044.00 2954.00 L 1024.00 2954.00 L 1004.00 2973.00 L 984.00 2973.00 L 964.00 2972.00 L 924.00 2972.00 L 911.00 3054.00 Z" stroke-width="1" id="301-36-04" stroke="black"/>
  <path fill="none" d="M 823.70 3052.00 L 814.00 3117.00 L 916.00 3128.54 L 971.00 3055.00 L 944.00 3055.00 L 924.00 3054.00 L 904.00 3054.00 L 884.00 3033.00 L 844.00 3033.00 L 824.00 3052.00 Z" stroke-width="1" id="301-37-01" stroke="black"/>
  <path fill="none" d="M 990.80 3137.00 L 1004.00 3137.00 L 1005.59 3138.67 L 1035.00 3142.00 L 1079.07 3142.93 L 1084.00 3138.00 L 1104.00 3139.00 L 1144.00 3139.00 L 1164.00 3140.00 L 1182.00 3140.00 L 1214.00 3059.50 L 1204.00 3059.00 L 1164.00 3059.00 L 1144.00 3058.00 L 1124.00 3058.00 L 1104.00 3057.00 L 1064.00 3057.00 L 1044.00 3056.00 L 1004.00 3056.00 L 984.00 3055.00 L 971.00 3055.00 L 916.00 3128.54 Z" stroke-width="1" id="301-37-02" stroke="black"/>
  <path fill="none" d="M 1184.00 3140.00 L 1189.84 3145.26 L 1225.00 3146.00 L 1237.29 3146.70 L 1244.00 3141.00 L 1264.00 3141.00 L 1284.00 3142.00 L 1324.00 3142.00 L 1344.00 3143.00 L 1384.00 3143.00 L 1404.00 3144.00 L 1423.06 3157.34 L 1424.80 3157.44 L 1444.00 3144.00 L 1464.00 3145.00 L 1506.00 3065.00 L 1504.00 3065.00 L 1484.00 3064.00 L 1444.00 3064.00 L 1424.00 3063.00 L 1384.00 3063.00 L 1364.00 3062.00 L 1344.00 3062.00 L 1324.00 3061.00 L 1284.00 3061.00 L 1264.00 3060.00 L 1224.00 3060.00 L 1214.00 3059.50 L 1182.00 3140.00 Z" stroke-width="1" id="301-37-03" stroke="black"/>
  <path fill="none" d="M 1482.77 3157.20 L 1485.47 3157.04 L 1504.00 3145.00 L 1524.00 3146.00 L 1564.00 3146.00 L 1584.00 3147.00 L 1589.00 3147.00 L 1617.00 3067.00 L 1604.00 3067.00 L 1584.00 3066.00 L 1564.00 3066.00 L 1544.00 3065.00 L 1506.00 3065.00 L 1464.00 3145.00 Z" stroke-width="1" id="301-37-04" stroke="black"/>
  <path fill="none" d="M 1624.00 3147.00 L 1644.00 3148.00 L 1684.00 3148.00 L 1704.00 3149.00 L 1744.00 3149.00 L 1764.00 3150.00 L 1784.00 3130.00 L 1804.00 3150.00 L 1816.00 3150.60 L 1838.00 3071.00 L 1824.00 3071.00 L 1804.00 3070.00 L 1784.00 3070.00 L 1764.00 3069.00 L 1724.00 3069.00 L 1704.00 3068.00 L 1664.00 3068.00 L 1644.00 3067.00 L 1617.00 3067.00 L 1589.00 3147.00 Z" stroke-width="1" id="301-37-05" stroke="black"/>
  <path fill="none" d="M 1824.00 3151.00 L 1865.00 3151.00 L 1922.00 3072.00 L 1884.00 3072.00 L 1864.00 3071.00 L 1838.00 3071.00 L 1816.00 3150.60 Z" stroke-width="1" id="301-37-06" stroke="black"/>
  <path fill="none" d="M 1884.00 3151.00 L 1887.52 3151.18 L 2036.00 3129.00 L 2034.00 3114.00 L 1952.98 3073.00 L 1944.00 3073.00 L 1924.00 3072.00 L 1922.00 3072.00 L 1865.00 3151.00 Z" stroke-width="1" id="301-37-07" stroke="black"/>
</svg>
