<?xml version="1.0" encoding="UTF-8"?>
<svg xmlns:xlink="http://www.w3.org/1999/xlink" xmlns="http://www.w3.org/2000/svg" contentScriptType="text/ecmascript" width="2077px" zoomAndPan="magnify" contentStyleType="text/css" viewBox="0 0 2077 3283" height="3283px" preserveAspectRatio="xMidYMid meet" version="1.0">
  <path fill="none" d="M 135.00 151.00 L 107.00 191.00 L 118.00 215.00 L 260.00 217.45 L 277.87 128.22 L 257.84 130.16 L 247.00 141.00 L 207.00 141.00 L 187.00 140.00 L 170.54 140.00 Z" stroke-width="1" id="302-01-01" stroke="black"/>
  <path fill="none" d="M 292.00 218.00 L 290.60 225.00 L 327.00 225.00 L 347.00 226.00 L 387.00 226.00 L 407.00 227.00 L 467.00 227.00 L 487.00 228.00 L 507.00 228.00 L 527.00 248.00 L 547.00 228.00 L 554.00 228.35 L 571.00 145.00 L 527.00 145.00 L 507.00 144.00 L 447.00 144.00 L 427.00 143.00 L 407.00 123.00 L 367.00 123.00 L 347.00 122.00 L 327.00 142.00 L 307.00 142.00 L 291.87 126.87 L 277.87 128.22 L 260.00 217.45 Z" stroke-width="1" id="302-01-02" stroke="black"/>
  <path fill="none" d="M 567.00 229.00 L 607.00 229.00 L 627.00 230.00 L 687.00 230.00 L 707.00 231.00 L 767.00 231.00 L 787.00 232.00 L 800.00 232.00 L 841.00 148.70 L 827.00 148.00 L 767.00 148.00 L 747.00 147.00 L 687.00 147.00 L 667.00 146.00 L 607.00 146.00 L 587.00 145.00 L 571.00 145.00 L 554.00 228.35 Z" stroke-width="1" id="302-01-03" stroke="black"/>
  <path fill="none" d="M 847.00 232.00 L 867.00 233.00 L 907.00 233.00 L 927.00 234.00 L 984.00 234.00 L 1032.00 151.00 L 1027.00 151.00 L 1007.00 150.00 L 947.00 150.00 L 927.00 149.00 L 847.00 149.00 L 841.00 148.70 L 800.00 232.00 Z" stroke-width="1" id="302-01-04" stroke="black"/>
  <path fill="none" d="M 987.00 234.00 L 1007.00 235.00 L 1067.00 235.00 L 1087.00 236.00 L 1127.00 236.00 L 1147.00 237.00 L 1207.00 237.00 L 1227.00 238.00 L 1287.00 238.00 L 1307.00 239.00 L 1367.00 239.00 L 1387.00 240.00 L 1427.00 240.00 L 1447.00 241.00 L 1507.00 241.00 L 1527.00 242.00 L 1551.00 242.00 L 1555.00 157.00 L 1507.00 157.00 L 1487.00 156.00 L 1447.00 156.00 L 1427.00 136.00 L 1407.00 135.00 L 1387.00 135.00 L 1367.00 155.00 L 1347.00 155.00 L 1327.00 154.00 L 1267.00 154.00 L 1247.00 153.00 L 1187.00 153.00 L 1167.00 152.00 L 1147.00 132.00 L 1107.00 132.00 L 1087.00 151.00 L 1032.00 151.00 L 984.00 234.00 Z" stroke-width="1" id="302-01-05" stroke="black"/>
  <path fill="none" d="M 1587.00 242.00 L 1607.00 243.00 L 1647.00 243.00 L 1667.00 244.00 L 1727.00 244.00 L 1747.00 245.00 L 1793.29 245.00 L 1796.00 226.00 L 1866.00 224.48 L 1871.83 161.00 L 1867.00 161.00 L 1862.24 156.24 L 1836.25 151.21 L 1827.00 160.00 L 1767.00 160.00 L 1753.75 146.09 L 1740.59 145.41 L 1727.00 159.00 L 1687.00 159.00 L 1667.00 158.00 L 1649.76 140.76 L 1606.46 138.54 L 1587.00 158.00 L 1567.00 157.00 L 1555.00 157.00 L 1551.00 242.00 Z" stroke-width="1" id="302-01-06" stroke="black"/>
  <path fill="none" d="M 1980.00 222.00 L 1985.00 180.00 L 1886.83 161.00 L 1871.83 161.00 L 1866.00 224.48 Z" stroke-width="1" id="302-01-07" stroke="black"/>
  <path fill="none" d="M 285.09 310.00 L 280.00 370.00 L 279.21 401.00 L 327.00 401.00 L 347.00 402.00 L 427.00 402.00 L 447.00 403.00 L 521.00 403.00 L 545.00 316.00 L 527.00 316.00 L 507.00 314.00 L 407.00 314.00 L 387.00 312.00 L 367.00 310.00 Z" stroke-width="1" id="302-03-01" stroke="black"/>
  <path fill="none" d="M 547.00 403.00 L 567.00 404.00 L 667.00 404.00 L 687.00 405.00 L 726.00 405.00 L 742.00 318.00 L 627.00 318.00 L 607.00 316.00 L 545.00 316.00 L 521.00 403.00 Z" stroke-width="1" id="302-03-02" stroke="black"/>
  <path fill="none" d="M 767.00 405.00 L 787.00 406.00 L 887.00 406.00 L 898.00 406.55 L 945.00 327.80 L 927.00 326.00 L 907.00 326.00 L 887.00 324.00 L 847.00 324.00 L 827.00 322.00 L 807.00 320.00 L 787.00 320.00 L 767.00 318.00 L 742.00 318.00 L 726.00 405.00 Z" stroke-width="1" id="302-03-03" stroke="black"/>
  <path fill="none" d="M 907.00 407.00 L 1007.00 407.00 L 1027.00 408.00 L 1088.00 408.00 L 1134.00 314.00 L 1107.00 314.00 L 1087.00 318.00 L 1067.00 320.00 L 1047.00 326.00 L 967.00 326.00 L 947.00 328.00 L 945.00 327.80 L 898.00 406.55 Z" stroke-width="1" id="302-03-04" stroke="black"/>
  <path fill="none" d="M 1107.00 408.00 L 1127.00 409.00 L 1227.00 409.00 L 1247.00 410.00 L 1282.00 410.00 L 1316.00 314.90 L 1307.00 314.00 L 1227.00 314.00 L 1207.00 312.00 L 1187.00 314.00 L 1167.00 316.00 L 1147.00 314.00 L 1134.00 314.00 L 1088.00 408.00 Z" stroke-width="1" id="302-03-05" stroke="black"/>
  <path fill="none" d="M 1347.00 410.00 L 1367.00 411.00 L 1427.00 411.00 L 1447.00 431.00 L 1467.00 412.00 L 1500.00 412.00 L 1514.00 329.90 L 1507.00 332.00 L 1487.00 340.00 L 1467.00 334.00 L 1447.00 328.00 L 1427.00 320.00 L 1407.00 318.00 L 1387.00 316.00 L 1327.00 316.00 L 1316.00 314.90 L 1282.00 410.00 Z" stroke-width="1" id="302-03-06" stroke="black"/>
  <path fill="none" d="M 1567.00 412.00 L 1587.00 413.00 L 1655.00 413.00 L 1648.70 328.00 L 1547.00 328.00 L 1527.00 326.00 L 1514.00 329.90 L 1500.00 412.00 Z" stroke-width="1" id="302-03-07" stroke="black"/>
  <path fill="none" d="M 1687.00 413.00 L 1707.00 414.00 L 1769.00 414.00 L 1782.70 328.00 L 1648.70 328.00 L 1655.00 413.00 Z" stroke-width="1" id="302-03-08" stroke="black"/>
  <path fill="none" d="M 1787.00 414.00 L 1807.00 415.00 L 1835.13 415.00 L 1845.00 370.00 L 1844.00 336.00 L 1835.70 328.00 L 1782.70 328.00 L 1769.00 414.00 Z" stroke-width="1" id="302-03-09" stroke="black"/>
  <path fill="none" d="M 279.21 401.00 L 278.00 448.00 L 263.00 465.00 L 278.00 473.00 L 278.00 485.00 L 287.00 485.00 L 307.00 486.00 L 487.00 486.00 L 507.00 487.00 L 511.00 487.00 L 546.00 403.00 L 447.00 403.00 L 427.00 402.00 L 347.00 402.00 L 327.00 401.00 Z" stroke-width="1" id="302-04-01" stroke="black"/>
  <path fill="none" d="M 667.00 487.00 L 687.00 488.00 L 867.00 488.00 L 878.00 488.55 L 898.00 406.55 L 887.00 406.00 L 787.00 406.00 L 767.00 405.00 L 687.00 405.00 L 667.00 404.00 L 567.00 404.00 L 547.00 403.00 L 546.00 403.00 L 511.00 487.00 Z" stroke-width="1" id="302-04-02" stroke="black"/>
  <path fill="none" d="M 887.00 489.00 L 987.00 489.00 L 1010.00 407.15 L 1007.00 407.00 L 907.00 407.00 L 898.00 406.55 L 878.00 488.55 Z" stroke-width="1" id="302-04-03" stroke="black"/>
  <path fill="none" d="M 1047.00 489.00 L 1067.00 490.00 L 1186.00 490.00 L 1208.00 409.00 L 1127.00 409.00 L 1107.00 408.00 L 1027.00 408.00 L 1010.00 407.15 L 987.00 489.00 Z" stroke-width="1" id="302-04-04" stroke="black"/>
  <path fill="none" d="M 1247.00 490.00 L 1267.00 491.00 L 1343.00 491.00 L 1345.00 410.00 L 1247.00 410.00 L 1227.00 409.00 L 1208.00 409.00 L 1186.00 490.00 Z" stroke-width="1" id="302-04-05" stroke="black"/>
  <path fill="none" d="M 1415.00 491.00 L 1443.00 427.00 L 1427.00 411.00 L 1367.00 411.00 L 1347.00 410.00 L 1345.00 410.00 L 1343.00 491.00 Z" stroke-width="1" id="302-04-06" stroke="black"/>
  <path fill="none" d="M 1427.00 491.00 L 1447.00 511.00 L 1467.00 492.00 L 1499.00 492.00 L 1508.00 412.00 L 1467.00 412.00 L 1447.00 431.00 L 1443.00 427.00 L 1415.00 491.00 Z" stroke-width="1" id="302-04-07" stroke="black"/>
  <path fill="none" d="M 1627.00 492.00 L 1647.00 493.00 L 1659.00 493.00 L 1668.00 413.00 L 1587.00 413.00 L 1567.00 412.00 L 1508.00 412.00 L 1499.00 492.00 Z" stroke-width="1" id="302-04-08" stroke="black"/>
  <path fill="none" d="M 1826.75 493.00 L 1820.00 484.00 L 1835.13 415.00 L 1807.00 415.00 L 1787.00 414.00 L 1707.00 414.00 L 1687.00 413.00 L 1668.00 413.00 L 1659.00 493.00 Z" stroke-width="1" id="302-04-09" stroke="black"/>
  <path fill="none" d="M 278.00 485.00 L 278.00 528.00 L 262.00 549.00 L 276.00 565.00 L 276.00 574.45 L 287.00 575.00 L 427.00 575.00 L 447.00 576.00 L 492.00 576.00 L 509.00 487.00 L 507.00 487.00 L 487.00 486.00 L 307.00 486.00 L 287.00 485.00 Z" stroke-width="1" id="302-05-01" stroke="black"/>
  <path fill="none" d="M 587.00 576.00 L 603.00 487.00 L 509.00 487.00 L 492.00 576.00 Z" stroke-width="1" id="302-05-02" stroke="black"/>
  <path fill="none" d="M 607.00 577.00 L 747.00 577.00 L 767.00 578.00 L 840.00 578.00 L 881.00 488.70 L 867.00 488.00 L 687.00 488.00 L 667.00 487.00 L 603.00 487.00 L 587.00 576.00 Z" stroke-width="1" id="302-05-03" stroke="black"/>
  <path fill="none" d="M 907.00 578.00 L 927.00 579.00 L 970.00 579.00 L 986.00 489.00 L 887.00 489.00 L 881.00 488.70 L 840.00 578.00 Z" stroke-width="1" id="302-05-04" stroke="black"/>
  <path fill="none" d="M 1087.00 579.00 L 1107.00 580.00 L 1179.00 580.00 L 1214.00 490.00 L 1067.00 490.00 L 1047.00 489.00 L 986.00 489.00 L 970.00 579.00 Z" stroke-width="1" id="302-05-05" stroke="black"/>
  <path fill="none" d="M 1247.00 580.00 L 1267.00 581.00 L 1282.00 581.00 L 1326.00 491.00 L 1267.00 491.00 L 1247.00 490.00 L 1214.00 490.00 L 1179.00 580.00 Z" stroke-width="1" id="302-05-06" stroke="black"/>
  <path fill="none" d="M 1407.00 581.00 L 1427.00 582.00 L 1507.00 582.00 L 1527.00 602.00 L 1547.00 582.00 L 1567.00 582.00 L 1587.00 583.00 L 1624.00 583.00 L 1627.00 492.00 L 1467.00 492.00 L 1447.00 511.00 L 1427.00 491.00 L 1326.00 491.00 L 1282.00 581.00 Z" stroke-width="1" id="302-05-07" stroke="black"/>
  <path fill="none" d="M 1727.00 583.00 L 1747.00 584.00 L 1865.00 584.00 L 1856.00 532.00 L 1826.75 493.00 L 1647.00 493.00 L 1627.00 492.00 L 1624.00 583.00 Z" stroke-width="1" id="302-05-08" stroke="black"/>
  <path fill="none" d="M 276.00 574.45 L 276.00 608.00 L 263.00 628.00 L 277.00 637.00 L 276.18 652.00 L 327.00 652.00 L 347.00 653.00 L 390.00 653.00 L 467.00 576.00 L 447.00 576.00 L 427.00 575.00 L 287.00 575.00 Z" stroke-width="1" id="302-06-01" stroke="black"/>
  <path fill="none" d="M 447.00 653.00 L 467.00 654.00 L 479.00 666.00 L 581.00 576.00 L 467.00 576.00 L 390.00 653.00 Z" stroke-width="1" id="302-06-02" stroke="black"/>
  <path fill="none" d="M 487.00 674.00 L 507.00 678.00 L 527.00 670.00 L 547.00 670.00 L 567.00 654.00 L 587.00 655.00 L 651.00 655.00 L 700.00 577.00 L 607.00 577.00 L 587.00 576.00 L 581.00 576.00 L 479.00 666.00 Z" stroke-width="1" id="302-06-03" stroke="black"/>
  <path fill="none" d="M 687.00 655.00 L 707.00 656.00 L 756.00 656.00 L 806.00 578.00 L 767.00 578.00 L 747.00 577.00 L 700.00 577.00 L 651.00 655.00 Z" stroke-width="1" id="302-06-04" stroke="black"/>
  <path fill="none" d="M 807.00 656.00 L 827.00 657.00 L 927.00 657.00 L 947.00 658.00 L 967.00 658.00 L 1044.00 579.00 L 927.00 579.00 L 907.00 578.00 L 806.00 578.00 L 756.00 656.00 Z" stroke-width="1" id="302-06-05" stroke="black"/>
  <path fill="none" d="M 987.00 678.00 L 1007.00 678.00 L 1027.00 658.00 L 1047.00 658.00 L 1067.00 659.00 L 1167.00 659.00 L 1187.00 660.00 L 1212.00 660.00 L 1240.00 580.00 L 1107.00 580.00 L 1087.00 579.00 L 1044.00 579.00 L 967.00 658.00 Z" stroke-width="1" id="302-06-06" stroke="black"/>
  <path fill="none" d="M 1227.00 660.00 L 1247.00 640.00 L 1267.00 660.00 L 1287.00 661.00 L 1387.00 661.00 L 1407.00 662.00 L 1428.00 662.00 L 1445.00 582.00 L 1427.00 582.00 L 1407.00 581.00 L 1267.00 581.00 L 1247.00 580.00 L 1240.00 580.00 L 1212.00 660.00 Z" stroke-width="1" id="302-06-07" stroke="black"/>
  <path fill="none" d="M 1507.00 662.00 L 1527.00 663.00 L 1627.00 663.00 L 1647.00 664.00 L 1661.00 664.00 L 1691.00 583.00 L 1587.00 583.00 L 1567.00 582.00 L 1547.00 582.00 L 1527.00 602.00 L 1507.00 582.00 L 1445.00 582.00 L 1428.00 662.00 Z" stroke-width="1" id="302-06-08" stroke="black"/>
  <path fill="none" d="M 1727.00 664.00 L 1747.00 684.00 L 1767.00 685.00 L 1787.00 685.00 L 1807.00 665.00 L 1840.05 665.00 L 1874.00 636.00 L 1865.00 584.00 L 1747.00 584.00 L 1727.00 583.00 L 1691.00 583.00 L 1661.00 664.00 Z" stroke-width="1" id="302-06-09" stroke="black"/>
  <path fill="none" d="M 276.18 652.00 L 274.00 692.00 L 261.00 704.00 L 276.00 720.00 L 275.26 740.00 L 307.00 740.00 L 327.00 741.00 L 367.00 741.00 L 387.00 761.00 L 407.00 761.00 L 427.00 762.00 L 447.00 742.00 L 507.00 742.00 L 527.00 743.00 L 567.00 743.00 L 589.00 655.00 L 587.00 655.00 L 567.00 654.00 L 547.00 670.00 L 527.00 670.00 L 507.00 678.00 L 487.00 674.00 L 467.00 654.00 L 447.00 653.00 L 347.00 653.00 L 327.00 652.00 Z" stroke-width="1" id="302-07-01" stroke="black"/>
  <path fill="none" d="M 607.00 743.00 L 627.00 744.00 L 707.00 744.00 L 727.00 745.00 L 739.00 745.00 L 777.00 656.00 L 707.00 656.00 L 687.00 655.00 L 589.00 655.00 L 567.00 743.00 Z" stroke-width="1" id="302-07-02" stroke="black"/>
  <path fill="none" d="M 807.00 745.00 L 827.00 746.00 L 907.00 746.00 L 927.00 747.00 L 1007.00 747.00 L 1027.00 748.00 L 1042.00 748.00 L 1052.00 658.25 L 1047.00 658.00 L 1027.00 658.00 L 1007.00 678.00 L 987.00 678.00 L 967.00 658.00 L 947.00 658.00 L 927.00 657.00 L 827.00 657.00 L 807.00 656.00 L 777.00 656.00 L 739.00 745.00 Z" stroke-width="1" id="302-07-03" stroke="black"/>
  <path fill="none" d="M 1107.00 748.00 L 1127.00 749.00 L 1207.00 749.00 L 1227.00 750.00 L 1247.00 730.00 L 1287.00 730.00 L 1307.00 750.00 L 1327.00 751.00 L 1407.00 751.00 L 1427.00 752.00 L 1467.00 752.00 L 1471.00 662.00 L 1407.00 662.00 L 1387.00 661.00 L 1287.00 661.00 L 1267.00 660.00 L 1247.00 640.00 L 1227.00 660.00 L 1187.00 660.00 L 1167.00 659.00 L 1067.00 659.00 L 1052.00 658.25 L 1042.00 748.00 Z" stroke-width="1" id="302-07-04" stroke="black"/>
  <path fill="none" d="M 1507.00 752.00 L 1516.00 752.45 L 1588.00 663.00 L 1527.00 663.00 L 1507.00 662.00 L 1471.00 662.00 L 1467.00 752.00 Z" stroke-width="1" id="302-07-05" stroke="black"/>
  <path fill="none" d="M 1527.00 753.00 L 1607.00 753.00 L 1627.00 754.00 L 1647.00 734.00 L 1667.00 754.00 L 1707.00 754.00 L 1727.00 755.00 L 1807.00 755.00 L 1827.00 756.00 L 1828.39 756.00 L 1808.00 745.00 L 1826.00 677.00 L 1840.05 665.00 L 1807.00 665.00 L 1787.00 685.00 L 1767.00 685.00 L 1747.00 684.00 L 1727.00 664.00 L 1647.00 664.00 L 1627.00 663.00 L 1588.00 663.00 L 1516.00 752.45 Z" stroke-width="1" id="302-07-06" stroke="black"/>
  <path fill="none" d="M 275.26 740.00 L 274.00 774.00 L 260.00 788.00 L 276.00 800.00 L 273.90 833.00 L 327.00 833.00 L 347.00 834.00 L 372.00 834.00 L 403.00 761.00 L 387.00 761.00 L 367.00 741.00 L 327.00 741.00 L 307.00 740.00 Z" stroke-width="1" id="302-08-01" stroke="black"/>
  <path fill="none" d="M 447.00 834.00 L 467.00 815.00 L 487.00 835.00 L 532.00 835.00 L 538.00 743.00 L 527.00 743.00 L 507.00 742.00 L 447.00 742.00 L 427.00 762.00 L 407.00 761.00 L 403.00 761.00 L 372.00 834.00 Z" stroke-width="1" id="302-08-02" stroke="black"/>
  <path fill="none" d="M 567.00 835.00 L 587.00 836.00 L 667.00 836.00 L 687.00 837.00 L 787.00 837.00 L 807.00 838.00 L 907.00 838.00 L 927.00 839.00 L 993.00 839.00 L 1041.00 748.00 L 1027.00 748.00 L 1007.00 747.00 L 927.00 747.00 L 907.00 746.00 L 827.00 746.00 L 807.00 745.00 L 727.00 745.00 L 707.00 744.00 L 627.00 744.00 L 607.00 743.00 L 538.00 743.00 L 532.00 835.00 Z" stroke-width="1" id="302-08-03" stroke="black"/>
  <path fill="none" d="M 1027.00 839.00 L 1047.00 840.00 L 1127.00 840.00 L 1142.00 840.75 L 1158.00 749.00 L 1127.00 749.00 L 1107.00 748.00 L 1041.00 748.00 L 993.00 839.00 Z" stroke-width="1" id="302-08-04" stroke="black"/>
  <path fill="none" d="M 1147.00 841.00 L 1247.00 841.00 L 1267.00 842.00 L 1346.00 842.00 L 1388.00 751.00 L 1327.00 751.00 L 1307.00 750.00 L 1287.00 730.00 L 1247.00 730.00 L 1227.00 750.00 L 1207.00 749.00 L 1158.00 749.00 L 1142.00 840.75 Z" stroke-width="1" id="302-08-05" stroke="black"/>
  <path fill="none" d="M 1367.00 842.00 L 1387.00 843.00 L 1487.00 843.00 L 1507.00 844.00 L 1555.00 844.00 L 1562.00 753.00 L 1527.00 753.00 L 1507.00 752.00 L 1427.00 752.00 L 1407.00 751.00 L 1388.00 751.00 L 1346.00 842.00 Z" stroke-width="1" id="302-08-06" stroke="black"/>
  <path fill="none" d="M 1587.00 844.00 L 1607.00 845.00 L 1707.00 845.00 L 1727.00 846.00 L 1827.00 846.00 L 1847.00 847.00 L 1884.64 847.00 L 1884.00 786.00 L 1828.39 756.00 L 1827.00 756.00 L 1807.00 755.00 L 1727.00 755.00 L 1707.00 754.00 L 1667.00 754.00 L 1647.00 734.00 L 1627.00 754.00 L 1607.00 753.00 L 1562.00 753.00 L 1555.00 844.00 Z" stroke-width="1" id="302-08-07" stroke="black"/>
  <path fill="none" d="M 273.90 833.00 L 272.00 863.00 L 255.00 876.00 L 276.00 897.00 L 274.92 906.40 L 287.00 907.00 L 372.00 907.00 L 383.00 834.00 L 347.00 834.00 L 327.00 833.00 Z" stroke-width="1" id="302-09-01" stroke="black"/>
  <path fill="none" d="M 427.00 907.00 L 447.00 888.00 L 467.00 908.00 L 547.00 908.00 L 567.00 928.00 L 587.00 908.00 L 593.00 836.00 L 587.00 836.00 L 567.00 835.00 L 487.00 835.00 L 467.00 815.00 L 447.00 834.00 L 383.00 834.00 L 372.00 907.00 Z" stroke-width="1" id="302-09-02" stroke="black"/>
  <path fill="none" d="M 607.00 909.00 L 747.00 909.00 L 763.00 909.80 L 800.00 837.65 L 787.00 837.00 L 687.00 837.00 L 667.00 836.00 L 593.00 836.00 L 587.00 908.00 Z" stroke-width="1" id="302-09-03" stroke="black"/>
  <path fill="none" d="M 767.00 910.00 L 887.00 910.00 L 907.00 914.00 L 914.00 921.00 L 995.00 839.00 L 927.00 839.00 L 907.00 838.00 L 807.00 838.00 L 800.00 837.65 L 763.00 909.80 Z" stroke-width="1" id="302-09-04" stroke="black"/>
  <path fill="none" d="M 927.00 934.00 L 967.00 934.00 L 987.00 911.00 L 1084.00 911.00 L 1102.00 840.00 L 1047.00 840.00 L 1027.00 839.00 L 995.00 839.00 L 914.00 921.00 Z" stroke-width="1" id="302-09-05" stroke="black"/>
  <path fill="none" d="M 1087.00 911.00 L 1107.00 912.00 L 1247.00 912.00 L 1267.00 913.00 L 1308.00 913.00 L 1324.00 842.00 L 1267.00 842.00 L 1247.00 841.00 L 1147.00 841.00 L 1127.00 840.00 L 1102.00 840.00 L 1084.00 911.00 Z" stroke-width="1" id="302-09-06" stroke="black"/>
  <path fill="none" d="M 1407.00 913.00 L 1412.00 913.25 L 1453.00 843.00 L 1387.00 843.00 L 1367.00 842.00 L 1324.00 842.00 L 1308.00 913.00 Z" stroke-width="1" id="302-09-07" stroke="black"/>
  <path fill="none" d="M 1427.00 914.00 L 1567.00 914.00 L 1587.00 915.00 L 1736.00 915.00 L 1750.00 846.00 L 1727.00 846.00 L 1707.00 845.00 L 1607.00 845.00 L 1587.00 844.00 L 1507.00 844.00 L 1487.00 843.00 L 1453.00 843.00 L 1412.00 913.25 Z" stroke-width="1" id="302-09-08" stroke="black"/>
  <path fill="none" d="M 1747.00 915.00 L 1767.00 916.00 L 1843.00 916.00 L 1885.00 881.00 L 1884.64 847.00 L 1847.00 847.00 L 1827.00 846.00 L 1750.00 846.00 L 1736.00 915.00 Z" stroke-width="1" id="302-09-09" stroke="black"/>
  <path fill="none" d="M 274.92 906.40 L 270.00 949.00 L 255.00 958.00 L 271.00 972.00 L 270.10 990.00 L 347.00 990.00 L 367.00 991.00 L 467.00 991.00 L 487.00 1011.00 L 507.00 1012.00 L 527.00 992.00 L 561.00 992.00 L 571.00 924.00 L 567.00 928.00 L 547.00 908.00 L 467.00 908.00 L 447.00 888.00 L 427.00 907.00 L 287.00 907.00 Z" stroke-width="1" id="302-10-01" stroke="black"/>
  <path fill="none" d="M 607.00 992.00 L 627.00 993.00 L 747.00 993.00 L 750.00 993.15 L 784.00 910.00 L 767.00 910.00 L 747.00 909.00 L 607.00 909.00 L 587.00 908.00 L 571.00 924.00 L 561.00 992.00 Z" stroke-width="1" id="302-10-02" stroke="black"/>
  <path fill="none" d="M 767.00 994.00 L 798.00 994.00 L 891.00 910.80 L 887.00 910.00 L 784.00 910.00 L 750.00 993.15 Z" stroke-width="1" id="302-10-03" stroke="black"/>
  <path fill="none" d="M 867.00 994.00 L 887.00 995.00 L 987.00 995.00 L 1007.00 996.00 L 1075.00 996.00 L 1123.00 912.00 L 1107.00 912.00 L 1087.00 911.00 L 987.00 911.00 L 967.00 934.00 L 927.00 934.00 L 907.00 914.00 L 891.00 910.80 L 798.00 994.00 Z" stroke-width="1" id="302-10-04" stroke="black"/>
  <path fill="none" d="M 1127.00 996.00 L 1147.00 997.00 L 1152.00 1002.00 L 1271.00 913.00 L 1267.00 913.00 L 1247.00 912.00 L 1123.00 912.00 L 1075.00 996.00 Z" stroke-width="1" id="302-10-05" stroke="black"/>
  <path fill="none" d="M 1167.00 1017.00 L 1207.00 1017.00 L 1227.00 997.00 L 1247.00 997.00 L 1267.00 998.00 L 1347.00 998.00 L 1353.00 1010.00 L 1469.00 914.00 L 1427.00 914.00 L 1407.00 913.00 L 1271.00 913.00 L 1152.00 1002.00 Z" stroke-width="1" id="302-10-06" stroke="black"/>
  <path fill="none" d="M 1367.00 1038.00 L 1387.00 1038.00 L 1407.00 1019.00 L 1427.00 1019.00 L 1447.00 999.00 L 1507.00 999.00 L 1527.00 1000.00 L 1583.00 1000.00 L 1601.00 915.00 L 1587.00 915.00 L 1567.00 914.00 L 1469.00 914.00 L 1353.00 1010.00 Z" stroke-width="1" id="302-10-07" stroke="black"/>
  <path fill="none" d="M 1627.00 1000.00 L 1647.00 1001.00 L 1767.00 1001.00 L 1787.00 1002.00 L 1852.36 1002.00 L 1835.00 964.00 L 1831.00 926.00 L 1843.00 916.00 L 1767.00 916.00 L 1747.00 915.00 L 1601.00 915.00 L 1583.00 1000.00 Z" stroke-width="1" id="302-10-08" stroke="black"/>
  <path fill="none" d="M 270.10 990.00 L 268.00 1032.00 L 257.00 1041.00 L 266.00 1055.00 L 266.00 1073.00 L 347.00 1073.00 L 367.00 1074.00 L 467.00 1074.00 L 487.00 1075.00 L 519.00 1075.00 L 541.00 992.00 L 527.00 992.00 L 507.00 1012.00 L 487.00 1011.00 L 467.00 991.00 L 367.00 991.00 L 347.00 990.00 Z" stroke-width="1" id="302-11-01" stroke="black"/>
  <path fill="none" d="M 587.00 1075.00 L 607.00 1076.00 L 707.00 1076.00 L 727.00 1077.00 L 775.00 1077.00 L 791.00 994.00 L 767.00 994.00 L 747.00 993.00 L 627.00 993.00 L 607.00 992.00 L 541.00 992.00 L 519.00 1075.00 Z" stroke-width="1" id="302-11-02" stroke="black"/>
  <path fill="none" d="M 827.00 1077.00 L 847.00 1078.00 L 947.00 1078.00 L 967.00 1079.00 L 998.00 1079.00 L 1040.00 996.00 L 1007.00 996.00 L 987.00 995.00 L 887.00 995.00 L 867.00 994.00 L 791.00 994.00 L 775.00 1077.00 Z" stroke-width="1" id="302-11-03" stroke="black"/>
  <path fill="none" d="M 1067.00 1079.00 L 1076.00 1079.45 L 1113.00 996.00 L 1040.00 996.00 L 998.00 1079.00 Z" stroke-width="1" id="302-11-04" stroke="black"/>
  <path fill="none" d="M 1087.00 1080.00 L 1169.00 1080.00 L 1196.00 1017.00 L 1167.00 1017.00 L 1147.00 997.00 L 1127.00 996.00 L 1113.00 996.00 L 1076.00 1079.45 Z" stroke-width="1" id="302-11-05" stroke="black"/>
  <path fill="none" d="M 1187.00 1080.00 L 1207.00 1081.00 L 1273.00 1081.00 L 1307.00 998.00 L 1267.00 998.00 L 1247.00 997.00 L 1227.00 997.00 L 1207.00 1017.00 L 1196.00 1017.00 L 1169.00 1080.00 Z" stroke-width="1" id="302-11-06" stroke="black"/>
  <path fill="none" d="M 1307.00 1081.00 L 1327.00 1082.00 L 1427.00 1082.00 L 1447.00 1083.00 L 1470.00 1083.00 L 1494.00 999.00 L 1447.00 999.00 L 1427.00 1019.00 L 1407.00 1019.00 L 1387.00 1038.00 L 1367.00 1038.00 L 1347.00 998.00 L 1307.00 998.00 L 1273.00 1081.00 Z" stroke-width="1" id="302-11-07" stroke="black"/>
  <path fill="none" d="M 1547.00 1083.00 L 1567.00 1084.00 L 1584.00 1084.00 L 1588.00 1000.00 L 1527.00 1000.00 L 1507.00 999.00 L 1494.00 999.00 L 1470.00 1083.00 Z" stroke-width="1" id="302-11-08" stroke="black"/>
  <path fill="none" d="M 1667.00 1084.00 L 1687.00 1085.00 L 1768.00 1085.00 L 1748.00 1001.00 L 1647.00 1001.00 L 1627.00 1000.00 L 1588.00 1000.00 L 1584.00 1084.00 Z" stroke-width="1" id="302-11-09" stroke="black"/>
  <path fill="none" d="M 1787.00 1085.00 L 1807.00 1086.00 L 1865.93 1086.00 L 1872.00 1045.00 L 1852.36 1002.00 L 1787.00 1002.00 L 1767.00 1001.00 L 1748.00 1001.00 L 1768.00 1085.00 Z" stroke-width="1" id="302-11-10" stroke="black"/>
  <path fill="none" d="M 266.00 1073.00 L 266.00 1118.00 L 252.00 1129.00 L 251.00 1143.00 L 268.00 1138.00 L 267.39 1157.00 L 367.00 1157.00 L 371.00 1157.20 L 391.00 1074.00 L 367.00 1074.00 L 347.00 1073.00 Z" stroke-width="1" id="302-12-01" stroke="black"/>
  <path fill="none" d="M 387.00 1158.00 L 487.00 1158.00 L 507.00 1159.00 L 571.00 1159.00 L 589.00 1075.10 L 587.00 1075.00 L 487.00 1075.00 L 467.00 1074.00 L 391.00 1074.00 L 371.00 1157.20 Z" stroke-width="1" id="302-12-02" stroke="black"/>
  <path fill="none" d="M 627.00 1159.00 L 647.00 1160.00 L 707.00 1160.00 L 721.00 1188.00 L 829.00 1077.10 L 827.00 1077.00 L 727.00 1077.00 L 707.00 1076.00 L 607.00 1076.00 L 589.00 1075.10 L 571.00 1159.00 Z" stroke-width="1" id="302-12-03" stroke="black"/>
  <path fill="none" d="M 727.00 1200.00 L 747.00 1200.00 L 767.00 1201.00 L 787.00 1181.00 L 807.00 1181.00 L 827.00 1161.00 L 887.00 1161.00 L 907.00 1162.00 L 947.00 1162.00 L 960.00 1078.65 L 947.00 1078.00 L 847.00 1078.00 L 829.00 1077.10 L 721.00 1188.00 Z" stroke-width="1" id="302-12-04" stroke="black"/>
  <path fill="none" d="M 1007.00 1162.00 L 1027.00 1163.00 L 1147.00 1163.00 L 1167.00 1164.00 L 1189.00 1164.00 L 1229.00 1081.00 L 1207.00 1081.00 L 1187.00 1080.00 L 1087.00 1080.00 L 1067.00 1079.00 L 967.00 1079.00 L 960.00 1078.65 L 947.00 1162.00 Z" stroke-width="1" id="302-12-05" stroke="black"/>
  <path fill="none" d="M 1287.00 1164.00 L 1291.00 1164.20 L 1319.00 1081.60 L 1307.00 1081.00 L 1229.00 1081.00 L 1189.00 1164.00 Z" stroke-width="1" id="302-12-06" stroke="black"/>
  <path fill="none" d="M 1307.00 1165.00 L 1407.00 1165.00 L 1427.00 1166.00 L 1500.00 1166.00 L 1534.00 1083.00 L 1447.00 1083.00 L 1427.00 1082.00 L 1327.00 1082.00 L 1319.00 1081.60 L 1291.00 1164.20 Z" stroke-width="1" id="302-12-07" stroke="black"/>
  <path fill="none" d="M 1547.00 1166.00 L 1567.00 1167.00 L 1647.00 1167.00 L 1667.00 1187.00 L 1687.00 1188.00 L 1707.00 1168.00 L 1760.00 1168.00 L 1807.00 1086.00 L 1787.00 1085.00 L 1687.00 1085.00 L 1667.00 1084.00 L 1567.00 1084.00 L 1547.00 1083.00 L 1534.00 1083.00 L 1500.00 1166.00 Z" stroke-width="1" id="302-12-08" stroke="black"/>
  <path fill="none" d="M 1807.00 1168.00 L 1827.00 1169.00 L 1850.21 1169.00 L 1860.00 1126.00 L 1865.93 1086.00 L 1807.00 1086.00 L 1760.00 1168.00 Z" stroke-width="1" id="302-12-09" stroke="black"/>
  <path fill="none" d="M 267.39 1157.00 L 266.00 1200.00 L 255.00 1213.00 L 265.00 1224.00 L 263.73 1249.00 L 307.00 1249.00 L 327.00 1250.00 L 427.00 1250.00 L 447.00 1251.00 L 452.00 1251.00 L 459.00 1158.00 L 387.00 1158.00 L 367.00 1157.00 Z" stroke-width="1" id="302-13-01" stroke="black"/>
  <path fill="none" d="M 527.00 1251.00 L 547.00 1252.00 L 598.00 1252.00 L 607.00 1159.00 L 507.00 1159.00 L 487.00 1158.00 L 459.00 1158.00 L 452.00 1251.00 Z" stroke-width="1" id="302-13-02" stroke="black"/>
  <path fill="none" d="M 647.00 1252.00 L 667.00 1253.00 L 747.00 1253.00 L 767.00 1254.00 L 847.00 1254.00 L 867.00 1255.00 L 954.00 1255.00 L 967.00 1162.00 L 907.00 1162.00 L 887.00 1161.00 L 827.00 1161.00 L 807.00 1181.00 L 787.00 1181.00 L 767.00 1201.00 L 747.00 1200.00 L 727.00 1200.00 L 707.00 1160.00 L 647.00 1160.00 L 627.00 1159.00 L 607.00 1159.00 L 598.00 1252.00 Z" stroke-width="1" id="302-13-03" stroke="black"/>
  <path fill="none" d="M 967.00 1255.00 L 987.00 1256.00 L 1044.00 1256.00 L 1056.00 1163.00 L 1027.00 1163.00 L 1007.00 1162.00 L 967.00 1162.00 L 954.00 1255.00 Z" stroke-width="1" id="302-13-04" stroke="black"/>
  <path fill="none" d="M 1067.00 1256.00 L 1087.00 1257.00 L 1187.00 1257.00 L 1207.00 1258.00 L 1253.00 1258.00 L 1295.00 1164.40 L 1287.00 1164.00 L 1167.00 1164.00 L 1147.00 1163.00 L 1056.00 1163.00 L 1044.00 1256.00 Z" stroke-width="1" id="302-13-05" stroke="black"/>
  <path fill="none" d="M 1287.00 1258.00 L 1307.00 1259.00 L 1407.00 1259.00 L 1427.00 1260.00 L 1428.00 1260.00 L 1509.00 1166.00 L 1427.00 1166.00 L 1407.00 1165.00 L 1307.00 1165.00 L 1295.00 1164.40 L 1253.00 1258.00 Z" stroke-width="1" id="302-13-06" stroke="black"/>
  <path fill="none" d="M 1507.00 1260.00 L 1527.00 1261.00 L 1607.00 1261.00 L 1627.00 1262.00 L 1640.00 1249.00 L 1667.00 1187.00 L 1647.00 1167.00 L 1567.00 1167.00 L 1547.00 1166.00 L 1509.00 1166.00 L 1428.00 1260.00 Z" stroke-width="1" id="302-13-07" stroke="black"/>
  <path fill="none" d="M 1647.00 1242.00 L 1667.00 1262.00 L 1693.00 1262.00 L 1757.00 1168.00 L 1707.00 1168.00 L 1687.00 1188.00 L 1667.00 1187.00 L 1640.00 1249.00 Z" stroke-width="1" id="302-13-08" stroke="black"/>
  <path fill="none" d="M 1727.00 1262.00 L 1747.00 1263.00 L 1827.00 1263.00 L 1844.09 1263.85 L 1837.00 1227.00 L 1850.21 1169.00 L 1827.00 1169.00 L 1807.00 1168.00 L 1757.00 1168.00 L 1693.00 1262.00 Z" stroke-width="1" id="302-13-09" stroke="black"/>
  <path fill="none" d="M 263.73 1249.00 L 262.00 1283.00 L 248.00 1297.00 L 270.00 1308.00 L 268.40 1332.07 L 287.00 1333.00 L 347.00 1333.00 L 367.00 1334.00 L 407.00 1334.00 L 427.00 1338.00 L 447.00 1332.00 L 467.00 1335.00 L 507.00 1335.00 L 520.00 1251.00 L 447.00 1251.00 L 427.00 1250.00 L 327.00 1250.00 L 307.00 1249.00 Z" stroke-width="1" id="302-14-01" stroke="black"/>
  <path fill="none" d="M 527.00 1336.00 L 567.00 1336.00 L 581.00 1340.20 L 634.00 1252.00 L 547.00 1252.00 L 527.00 1251.00 L 520.00 1251.00 L 507.00 1335.00 Z" stroke-width="1" id="302-14-02" stroke="black"/>
  <path fill="none" d="M 587.00 1342.00 L 607.00 1348.00 L 627.00 1346.00 L 647.00 1357.00 L 667.00 1337.00 L 687.00 1338.00 L 747.00 1338.00 L 767.00 1339.00 L 805.00 1339.00 L 847.00 1254.00 L 767.00 1254.00 L 747.00 1253.00 L 667.00 1253.00 L 647.00 1252.00 L 634.00 1252.00 L 581.00 1340.20 Z" stroke-width="1" id="302-14-03" stroke="black"/>
  <path fill="none" d="M 827.00 1339.00 L 847.00 1340.00 L 907.00 1340.00 L 927.00 1341.00 L 987.00 1341.00 L 997.00 1341.50 L 1022.00 1256.00 L 987.00 1256.00 L 967.00 1255.00 L 867.00 1255.00 L 847.00 1254.00 L 805.00 1339.00 Z" stroke-width="1" id="302-14-04" stroke="black"/>
  <path fill="none" d="M 1007.00 1342.00 L 1067.00 1342.00 L 1087.00 1343.00 L 1147.00 1343.00 L 1167.00 1344.00 L 1227.00 1344.00 L 1245.00 1344.90 L 1268.00 1258.00 L 1207.00 1258.00 L 1187.00 1257.00 L 1087.00 1257.00 L 1067.00 1256.00 L 1022.00 1256.00 L 997.00 1341.50 Z" stroke-width="1" id="302-14-05" stroke="black"/>
  <path fill="none" d="M 1247.00 1345.00 L 1327.00 1345.00 L 1347.00 1346.00 L 1407.00 1346.00 L 1427.00 1347.00 L 1429.00 1347.00 L 1491.00 1260.00 L 1427.00 1260.00 L 1407.00 1259.00 L 1307.00 1259.00 L 1287.00 1258.00 L 1268.00 1258.00 L 1245.00 1344.90 Z" stroke-width="1" id="302-14-06" stroke="black"/>
  <path fill="none" d="M 1487.00 1347.00 L 1507.00 1348.00 L 1567.00 1348.00 L 1577.00 1348.50 L 1588.00 1261.00 L 1527.00 1261.00 L 1507.00 1260.00 L 1491.00 1260.00 L 1429.00 1347.00 Z" stroke-width="1" id="302-14-07" stroke="black"/>
  <path fill="none" d="M 1587.00 1349.00 L 1647.00 1349.00 L 1667.00 1350.00 L 1727.00 1350.00 L 1747.00 1351.00 L 1751.00 1351.00 L 1761.00 1263.00 L 1747.00 1263.00 L 1727.00 1262.00 L 1667.00 1262.00 L 1647.00 1242.00 L 1627.00 1262.00 L 1607.00 1261.00 L 1588.00 1261.00 L 1577.00 1348.50 Z" stroke-width="1" id="302-14-08" stroke="black"/>
  <path fill="none" d="M 1807.00 1351.00 L 1827.00 1352.00 L 1855.44 1352.00 L 1852.00 1305.00 L 1844.09 1263.85 L 1827.00 1263.00 L 1761.00 1263.00 L 1751.00 1351.00 Z" stroke-width="1" id="302-14-09" stroke="black"/>
  <path fill="none" d="M 268.40 1332.07 L 266.00 1368.00 L 253.00 1380.00 L 264.00 1394.00 L 264.00 1426.00 L 267.00 1426.00 L 287.00 1427.00 L 347.00 1427.00 L 367.00 1428.00 L 447.00 1428.00 L 467.00 1429.00 L 468.00 1429.00 L 525.00 1335.90 L 507.00 1335.00 L 467.00 1335.00 L 447.00 1332.00 L 427.00 1338.00 L 407.00 1334.00 L 367.00 1334.00 L 347.00 1333.00 L 287.00 1333.00 Z" stroke-width="1" id="302-15-01" stroke="black"/>
  <path fill="none" d="M 527.00 1429.00 L 547.00 1430.00 L 607.00 1430.00 L 627.00 1431.00 L 647.00 1411.00 L 654.00 1425.00 L 746.00 1338.00 L 687.00 1338.00 L 667.00 1337.00 L 647.00 1357.00 L 627.00 1346.00 L 607.00 1348.00 L 587.00 1342.00 L 567.00 1336.00 L 527.00 1336.00 L 525.00 1335.90 L 468.00 1429.00 Z" stroke-width="1" id="302-15-02" stroke="black"/>
  <path fill="none" d="M 667.00 1451.00 L 687.00 1451.00 L 707.00 1431.00 L 727.00 1432.00 L 787.00 1432.00 L 803.00 1432.80 L 848.00 1340.00 L 847.00 1340.00 L 827.00 1339.00 L 767.00 1339.00 L 747.00 1338.00 L 746.00 1338.00 L 654.00 1425.00 Z" stroke-width="1" id="302-15-03" stroke="black"/>
  <path fill="none" d="M 807.00 1433.00 L 867.00 1433.00 L 887.00 1434.00 L 967.00 1434.00 L 987.00 1435.00 L 1007.00 1435.00 L 1027.00 1415.00 L 1047.00 1415.00 L 1067.00 1436.00 L 1127.00 1436.00 L 1147.00 1437.00 L 1206.00 1437.00 L 1249.00 1345.00 L 1247.00 1345.00 L 1227.00 1344.00 L 1167.00 1344.00 L 1147.00 1343.00 L 1087.00 1343.00 L 1067.00 1342.00 L 1007.00 1342.00 L 987.00 1341.00 L 927.00 1341.00 L 907.00 1340.00 L 848.00 1340.00 L 803.00 1432.80 Z" stroke-width="1" id="302-15-04" stroke="black"/>
  <path fill="none" d="M 1207.00 1437.00 L 1227.00 1438.00 L 1287.00 1438.00 L 1307.00 1418.00 L 1327.00 1439.00 L 1346.00 1439.00 L 1350.00 1346.00 L 1347.00 1346.00 L 1327.00 1345.00 L 1249.00 1345.00 L 1206.00 1437.00 Z" stroke-width="1" id="302-15-05" stroke="black"/>
  <path fill="none" d="M 1387.00 1439.00 L 1407.00 1440.00 L 1467.00 1440.00 L 1482.00 1440.75 L 1518.00 1348.00 L 1507.00 1348.00 L 1487.00 1347.00 L 1427.00 1347.00 L 1407.00 1346.00 L 1350.00 1346.00 L 1346.00 1439.00 Z" stroke-width="1" id="302-15-06" stroke="black"/>
  <path fill="none" d="M 1487.00 1441.00 L 1567.00 1441.00 L 1587.00 1442.00 L 1647.00 1442.00 L 1667.00 1443.00 L 1727.00 1443.00 L 1747.00 1444.00 L 1827.00 1444.00 L 1847.00 1445.00 L 1850.90 1445.00 L 1858.00 1387.00 L 1855.44 1352.00 L 1827.00 1352.00 L 1807.00 1351.00 L 1747.00 1351.00 L 1727.00 1350.00 L 1667.00 1350.00 L 1647.00 1349.00 L 1587.00 1349.00 L 1567.00 1348.00 L 1518.00 1348.00 L 1482.00 1440.75 Z" stroke-width="1" id="302-15-07" stroke="black"/>
  <path fill="none" d="M 264.00 1426.00 L 264.00 1458.00 L 256.00 1474.00 L 259.88 1502.64 L 267.00 1503.00 L 327.00 1503.00 L 338.00 1503.55 L 350.00 1427.15 L 347.00 1427.00 L 287.00 1427.00 L 267.00 1426.00 Z" stroke-width="1" id="302-16-01" stroke="black"/>
  <path fill="none" d="M 347.00 1504.00 L 387.00 1504.00 L 407.00 1505.00 L 467.00 1505.00 L 487.00 1506.00 L 507.00 1506.00 L 527.00 1526.00 L 547.00 1526.00 L 567.00 1507.00 L 627.00 1507.00 L 647.00 1508.00 L 687.00 1508.00 L 707.00 1509.00 L 767.00 1509.00 L 787.00 1510.00 L 801.00 1510.00 L 880.00 1433.65 L 867.00 1433.00 L 807.00 1433.00 L 787.00 1432.00 L 727.00 1432.00 L 707.00 1431.00 L 687.00 1451.00 L 667.00 1451.00 L 647.00 1411.00 L 627.00 1431.00 L 607.00 1430.00 L 547.00 1430.00 L 527.00 1429.00 L 467.00 1429.00 L 447.00 1428.00 L 367.00 1428.00 L 350.00 1427.15 L 338.00 1503.55 Z" stroke-width="1" id="302-16-02" stroke="black"/>
  <path fill="none" d="M 847.00 1510.00 L 867.00 1511.00 L 907.00 1511.00 L 927.00 1512.00 L 943.00 1512.00 L 932.00 1434.00 L 887.00 1434.00 L 880.00 1433.65 L 801.00 1510.00 Z" stroke-width="1" id="302-16-03" stroke="black"/>
  <path fill="none" d="M 967.00 1512.00 L 987.00 1492.00 L 1007.00 1513.00 L 1067.00 1513.00 L 1087.00 1514.00 L 1127.00 1514.00 L 1147.00 1534.00 L 1167.00 1535.00 L 1207.00 1535.00 L 1227.00 1516.00 L 1287.00 1516.00 L 1307.00 1517.00 L 1367.00 1517.00 L 1387.00 1518.00 L 1427.00 1518.00 L 1447.00 1519.00 L 1507.00 1519.00 L 1517.00 1519.50 L 1565.00 1441.00 L 1487.00 1441.00 L 1467.00 1440.00 L 1407.00 1440.00 L 1387.00 1439.00 L 1327.00 1439.00 L 1307.00 1418.00 L 1287.00 1438.00 L 1227.00 1438.00 L 1207.00 1437.00 L 1147.00 1437.00 L 1127.00 1436.00 L 1067.00 1436.00 L 1047.00 1415.00 L 1027.00 1415.00 L 1007.00 1435.00 L 987.00 1435.00 L 967.00 1434.00 L 932.00 1434.00 L 943.00 1512.00 Z" stroke-width="1" id="302-16-04" stroke="black"/>
  <path fill="none" d="M 1527.00 1520.00 L 1587.00 1520.00 L 1607.00 1521.00 L 1667.00 1521.00 L 1687.00 1522.00 L 1721.00 1522.00 L 1739.00 1443.60 L 1727.00 1443.00 L 1667.00 1443.00 L 1647.00 1442.00 L 1587.00 1442.00 L 1567.00 1441.00 L 1565.00 1441.00 L 1517.00 1519.50 Z" stroke-width="1" id="302-16-05" stroke="black"/>
  <path fill="none" d="M 1727.00 1522.00 L 1747.00 1523.00 L 1787.00 1523.00 L 1807.00 1543.00 L 1827.00 1524.00 L 1853.41 1524.00 L 1846.00 1485.00 L 1850.90 1445.00 L 1847.00 1445.00 L 1827.00 1444.00 L 1747.00 1444.00 L 1739.00 1443.60 L 1721.00 1522.00 Z" stroke-width="1" id="302-16-06" stroke="black"/>
  <path fill="none" d="M 259.88 1502.64 L 264.00 1533.00 L 254.00 1547.00 L 245.00 1554.00 L 260.00 1565.00 L 258.65 1583.58 L 267.00 1584.00 L 327.00 1584.00 L 347.00 1585.00 L 404.00 1585.00 L 416.00 1505.00 L 407.00 1505.00 L 387.00 1504.00 L 347.00 1504.00 L 327.00 1503.00 L 267.00 1503.00 Z" stroke-width="1" id="302-17-01" stroke="black"/>
  <path fill="none" d="M 407.00 1585.00 L 427.00 1586.00 L 487.00 1586.00 L 507.00 1587.00 L 547.00 1587.00 L 610.00 1507.00 L 567.00 1507.00 L 547.00 1526.00 L 527.00 1526.00 L 507.00 1506.00 L 487.00 1506.00 L 467.00 1505.00 L 416.00 1505.00 L 404.00 1585.00 Z" stroke-width="1" id="302-17-02" stroke="black"/>
  <path fill="none" d="M 567.00 1588.00 L 627.00 1588.00 L 647.00 1589.00 L 683.00 1589.00 L 709.00 1509.00 L 707.00 1509.00 L 687.00 1508.00 L 647.00 1508.00 L 627.00 1507.00 L 610.00 1507.00 L 547.00 1587.00 Z" stroke-width="1" id="302-17-03" stroke="black"/>
  <path fill="none" d="M 707.00 1589.00 L 727.00 1590.00 L 787.00 1590.00 L 807.00 1591.00 L 867.00 1591.00 L 870.00 1591.15 L 920.00 1511.65 L 907.00 1511.00 L 867.00 1511.00 L 847.00 1510.00 L 787.00 1510.00 L 767.00 1509.00 L 709.00 1509.00 L 683.00 1589.00 Z" stroke-width="1" id="302-17-04" stroke="black"/>
  <path fill="none" d="M 887.00 1592.00 L 927.00 1592.00 L 947.00 1593.00 L 1007.00 1593.00 L 1027.00 1594.00 L 1087.00 1594.00 L 1096.00 1594.45 L 1110.00 1514.00 L 1087.00 1514.00 L 1067.00 1513.00 L 1007.00 1513.00 L 987.00 1492.00 L 967.00 1512.00 L 927.00 1512.00 L 920.00 1511.65 L 870.00 1591.15 Z" stroke-width="1" id="302-17-05" stroke="black"/>
  <path fill="none" d="M 1107.00 1595.00 L 1167.00 1595.00 L 1187.00 1596.00 L 1247.00 1596.00 L 1267.00 1597.00 L 1277.00 1597.00 L 1321.00 1517.00 L 1307.00 1517.00 L 1287.00 1516.00 L 1227.00 1516.00 L 1207.00 1535.00 L 1167.00 1535.00 L 1147.00 1534.00 L 1127.00 1514.00 L 1110.00 1514.00 L 1096.00 1594.45 Z" stroke-width="1" id="302-17-06" stroke="black"/>
  <path fill="none" d="M 1307.00 1597.00 L 1327.00 1598.00 L 1387.00 1598.00 L 1407.00 1599.00 L 1462.00 1599.00 L 1497.00 1519.00 L 1447.00 1519.00 L 1427.00 1518.00 L 1387.00 1518.00 L 1367.00 1517.00 L 1321.00 1517.00 L 1277.00 1597.00 Z" stroke-width="1" id="302-17-07" stroke="black"/>
  <path fill="none" d="M 1467.00 1599.00 L 1487.00 1600.00 L 1547.00 1600.00 L 1567.00 1601.00 L 1619.00 1601.00 L 1633.00 1521.00 L 1607.00 1521.00 L 1587.00 1520.00 L 1527.00 1520.00 L 1507.00 1519.00 L 1497.00 1519.00 L 1462.00 1599.00 Z" stroke-width="1" id="302-17-08" stroke="black"/>
  <path fill="none" d="M 1627.00 1601.00 L 1647.00 1602.00 L 1687.00 1602.00 L 1707.00 1603.00 L 1767.00 1603.00 L 1787.00 1604.00 L 1807.00 1604.00 L 1827.00 1624.00 L 1847.00 1604.00 L 1855.94 1604.45 L 1861.00 1564.00 L 1853.41 1524.00 L 1827.00 1524.00 L 1807.00 1543.00 L 1787.00 1523.00 L 1747.00 1523.00 L 1727.00 1522.00 L 1687.00 1522.00 L 1667.00 1521.00 L 1633.00 1521.00 L 1619.00 1601.00 Z" stroke-width="1" id="302-17-09" stroke="black"/>
  <path fill="none" d="M 258.65 1583.58 L 255.00 1634.00 L 257.00 1656.00 L 309.00 1659.46 L 347.00 1585.00 L 327.00 1584.00 L 267.00 1584.00 Z" stroke-width="1" id="302-18-01" stroke="black"/>
  <path fill="none" d="M 391.00 1664.91 L 423.00 1585.80 L 407.00 1585.00 L 347.00 1585.00 L 309.00 1659.46 Z" stroke-width="1" id="302-18-02" stroke="black"/>
  <path fill="none" d="M 470.00 1670.16 L 494.00 1586.35 L 487.00 1586.00 L 427.00 1586.00 L 423.00 1585.80 L 391.00 1664.91 Z" stroke-width="1" id="302-18-03" stroke="black"/>
  <path fill="none" d="M 572.95 1677.00 L 627.00 1677.00 L 647.00 1678.00 L 707.00 1678.00 L 727.00 1658.00 L 747.00 1678.00 L 767.00 1658.00 L 787.00 1679.00 L 871.00 1679.00 L 891.00 1592.00 L 887.00 1592.00 L 867.00 1591.00 L 807.00 1591.00 L 787.00 1590.00 L 727.00 1590.00 L 707.00 1589.00 L 647.00 1589.00 L 627.00 1588.00 L 567.00 1588.00 L 547.00 1587.00 L 507.00 1587.00 L 494.00 1586.35 L 470.00 1670.16 Z" stroke-width="1" id="302-18-04" stroke="black"/>
  <path fill="none" d="M 907.00 1679.00 L 927.00 1680.00 L 1007.00 1680.00 L 1013.00 1686.00 L 1089.00 1594.10 L 1087.00 1594.00 L 1027.00 1594.00 L 1007.00 1593.00 L 947.00 1593.00 L 927.00 1592.00 L 891.00 1592.00 L 871.00 1679.00 Z" stroke-width="1" id="302-18-05" stroke="black"/>
  <path fill="none" d="M 1027.00 1700.00 L 1047.00 1701.00 L 1067.00 1681.00 L 1087.00 1661.00 L 1107.00 1696.00 L 1127.00 1700.00 L 1147.00 1702.00 L 1167.00 1701.00 L 1187.00 1682.00 L 1267.00 1682.00 L 1277.00 1672.00 L 1285.00 1597.00 L 1267.00 1597.00 L 1247.00 1596.00 L 1187.00 1596.00 L 1167.00 1595.00 L 1107.00 1595.00 L 1089.00 1594.10 L 1013.00 1686.00 Z" stroke-width="1" id="302-18-06" stroke="black"/>
  <path fill="none" d="M 1287.00 1662.00 L 1307.00 1662.00 L 1327.00 1683.00 L 1407.00 1683.00 L 1412.00 1688.00 L 1478.00 1599.55 L 1467.00 1599.00 L 1407.00 1599.00 L 1387.00 1598.00 L 1327.00 1598.00 L 1307.00 1597.00 L 1285.00 1597.00 L 1277.00 1672.00 Z" stroke-width="1" id="302-18-07" stroke="black"/>
  <path fill="none" d="M 1427.00 1703.00 L 1447.00 1704.00 L 1467.00 1684.00 L 1487.00 1684.00 L 1507.00 1704.00 L 1527.00 1704.00 L 1547.00 1684.00 L 1567.00 1684.00 L 1587.00 1685.00 L 1627.00 1685.00 L 1647.00 1705.00 L 1667.00 1705.00 L 1687.00 1685.00 L 1698.00 1685.00 L 1743.00 1603.00 L 1707.00 1603.00 L 1687.00 1602.00 L 1647.00 1602.00 L 1627.00 1601.00 L 1567.00 1601.00 L 1547.00 1600.00 L 1487.00 1600.00 L 1478.00 1599.55 L 1412.00 1688.00 Z" stroke-width="1" id="302-18-08" stroke="black"/>
  <path fill="none" d="M 1707.00 1685.00 L 1727.00 1686.00 L 1847.00 1686.00 L 1866.00 1686.95 L 1866.00 1653.00 L 1855.00 1612.00 L 1855.94 1604.45 L 1847.00 1604.00 L 1827.00 1624.00 L 1807.00 1604.00 L 1787.00 1604.00 L 1767.00 1603.00 L 1743.00 1603.00 L 1698.00 1685.00 Z" stroke-width="1" id="302-18-09" stroke="black"/>
  <path fill="none" d="M 572.95 1677.00 L 588.00 1678.00 L 698.00 1680.00 L 680.00 1702.00 L 675.00 1753.00 L 654.64 1757.00 L 687.00 1757.00 L 707.00 1758.00 L 787.00 1758.00 L 807.00 1759.00 L 814.00 1759.00 L 846.00 1679.00 L 787.00 1679.00 L 767.00 1658.00 L 747.00 1678.00 L 727.00 1658.00 L 707.00 1678.00 L 647.00 1678.00 L 627.00 1677.00 Z" stroke-width="1" id="302-19-01" stroke="black"/>
  <path fill="none" d="M 887.00 1759.00 L 907.00 1760.00 L 987.00 1760.00 L 1007.00 1761.00 L 1087.00 1761.00 L 1107.00 1768.00 L 1127.00 1768.00 L 1147.00 1762.00 L 1177.00 1762.00 L 1223.00 1682.00 L 1187.00 1682.00 L 1167.00 1701.00 L 1147.00 1702.00 L 1127.00 1700.00 L 1107.00 1696.00 L 1087.00 1661.00 L 1067.00 1681.00 L 1047.00 1701.00 L 1027.00 1700.00 L 1007.00 1680.00 L 927.00 1680.00 L 907.00 1679.00 L 846.00 1679.00 L 814.00 1759.00 Z" stroke-width="1" id="302-19-02" stroke="black"/>
  <path fill="none" d="M 1187.00 1762.00 L 1207.00 1763.00 L 1287.00 1763.00 L 1307.00 1764.00 L 1387.00 1764.00 L 1407.00 1765.00 L 1427.00 1765.00 L 1437.00 1775.00 L 1520.00 1704.00 L 1507.00 1704.00 L 1487.00 1684.00 L 1467.00 1684.00 L 1447.00 1704.00 L 1427.00 1703.00 L 1407.00 1683.00 L 1327.00 1683.00 L 1307.00 1662.00 L 1287.00 1662.00 L 1267.00 1682.00 L 1223.00 1682.00 L 1177.00 1762.00 Z" stroke-width="1" id="302-19-03" stroke="black"/>
  <path fill="none" d="M 1447.00 1785.00 L 1487.00 1785.00 L 1507.00 1786.00 L 1527.00 1766.00 L 1587.00 1766.00 L 1607.00 1767.00 L 1630.00 1767.00 L 1652.00 1705.00 L 1647.00 1705.00 L 1627.00 1685.00 L 1587.00 1685.00 L 1567.00 1684.00 L 1547.00 1684.00 L 1527.00 1704.00 L 1520.00 1704.00 L 1437.00 1775.00 Z" stroke-width="1" id="302-19-04" stroke="black"/>
  <path fill="none" d="M 1687.00 1767.00 L 1707.00 1768.00 L 1727.00 1768.00 L 1747.00 1748.00 L 1751.00 1686.00 L 1727.00 1686.00 L 1707.00 1685.00 L 1687.00 1685.00 L 1667.00 1705.00 L 1652.00 1705.00 L 1630.00 1767.00 Z" stroke-width="1" id="302-19-05" stroke="black"/>
  <path fill="none" d="M 1767.00 1768.00 L 1787.00 1768.00 L 1807.00 1769.00 L 1846.88 1769.00 L 1866.00 1742.00 L 1866.00 1686.95 L 1847.00 1686.00 L 1751.00 1686.00 L 1747.00 1748.00 Z" stroke-width="1" id="302-19-06" stroke="black"/>
  <path fill="none" d="M 253.00 1788.00 L 242.00 1810.00 L 257.00 1822.00 L 255.10 1852.41 L 267.00 1853.00 L 287.00 1833.00 L 307.00 1833.00 L 327.00 1854.00 L 407.00 1854.00 L 427.00 1860.00 L 447.00 1852.00 L 467.00 1848.00 L 522.00 1764.00 L 471.00 1764.00 L 279.00 1771.00 Z" stroke-width="1" id="302-20-01" stroke="black"/>
  <path fill="none" d="M 487.00 1856.00 L 527.00 1856.00 L 547.00 1857.00 L 607.00 1857.00 L 627.00 1858.00 L 667.00 1858.00 L 731.00 1758.00 L 707.00 1758.00 L 687.00 1757.00 L 654.64 1757.00 L 619.00 1764.00 L 522.00 1764.00 L 467.00 1848.00 Z" stroke-width="1" id="302-20-02" stroke="black"/>
  <path fill="none" d="M 687.00 1878.00 L 707.00 1879.00 L 727.00 1879.00 L 747.00 1859.00 L 767.00 1860.00 L 827.00 1860.00 L 847.00 1861.00 L 907.00 1861.00 L 927.00 1862.00 L 967.00 1862.00 L 987.00 1863.00 L 1023.00 1863.00 L 1071.00 1761.00 L 1007.00 1761.00 L 987.00 1760.00 L 907.00 1760.00 L 887.00 1759.00 L 807.00 1759.00 L 787.00 1758.00 L 731.00 1758.00 L 667.00 1858.00 Z" stroke-width="1" id="302-20-03" stroke="black"/>
  <path fill="none" d="M 1047.00 1863.00 L 1067.00 1864.00 L 1127.00 1864.00 L 1147.00 1865.00 L 1167.00 1885.00 L 1187.00 1865.00 L 1207.00 1866.00 L 1231.00 1866.00 L 1260.00 1763.00 L 1207.00 1763.00 L 1187.00 1762.00 L 1147.00 1762.00 L 1127.00 1768.00 L 1107.00 1768.00 L 1087.00 1761.00 L 1071.00 1761.00 L 1023.00 1863.00 Z" stroke-width="1" id="302-20-04" stroke="black"/>
  <path fill="none" d="M 1267.00 1866.00 L 1287.00 1867.00 L 1319.00 1867.00 L 1341.00 1764.00 L 1307.00 1764.00 L 1287.00 1763.00 L 1260.00 1763.00 L 1231.00 1866.00 Z" stroke-width="1" id="302-20-05" stroke="black"/>
  <path fill="none" d="M 1347.00 1867.00 L 1367.00 1868.00 L 1407.00 1868.00 L 1427.00 1869.00 L 1480.00 1869.00 L 1500.00 1785.65 L 1487.00 1785.00 L 1447.00 1785.00 L 1427.00 1765.00 L 1407.00 1765.00 L 1387.00 1764.00 L 1341.00 1764.00 L 1319.00 1867.00 Z" stroke-width="1" id="302-20-06" stroke="black"/>
  <path fill="none" d="M 1487.00 1869.00 L 1507.00 1870.00 L 1547.00 1870.00 L 1567.00 1871.00 L 1627.00 1871.00 L 1647.00 1872.00 L 1707.00 1872.00 L 1727.00 1873.00 L 1767.00 1873.00 L 1787.00 1874.00 L 1843.48 1874.00 L 1840.00 1823.00 L 1832.00 1790.00 L 1846.88 1769.00 L 1807.00 1769.00 L 1787.00 1768.00 L 1767.00 1768.00 L 1747.00 1748.00 L 1727.00 1768.00 L 1707.00 1768.00 L 1687.00 1767.00 L 1607.00 1767.00 L 1587.00 1766.00 L 1527.00 1766.00 L 1507.00 1786.00 L 1500.00 1785.65 L 1480.00 1869.00 Z" stroke-width="1" id="302-20-07" stroke="black"/>
  <path fill="none" d="M 255.10 1852.41 L 253.00 1886.00 L 234.00 1926.00 L 252.00 1932.00 L 251.94 1933.25 L 267.00 1934.00 L 307.00 1934.00 L 327.00 1935.00 L 338.00 1935.00 L 366.00 1854.00 L 327.00 1854.00 L 307.00 1833.00 L 287.00 1833.00 L 267.00 1853.00 Z" stroke-width="1" id="302-21-01" stroke="black"/>
  <path fill="none" d="M 387.00 1935.00 L 407.00 1936.00 L 467.00 1936.00 L 487.00 1937.00 L 527.00 1937.00 L 547.00 1938.00 L 567.00 1938.00 L 587.00 1958.00 L 607.00 1958.00 L 627.00 1939.00 L 687.00 1939.00 L 707.00 1940.00 L 747.00 1940.00 L 767.00 1941.00 L 827.00 1941.00 L 847.00 1962.00 L 867.00 1942.00 L 907.00 1942.00 L 914.00 1942.35 L 929.00 1862.00 L 927.00 1862.00 L 907.00 1861.00 L 847.00 1861.00 L 827.00 1860.00 L 767.00 1860.00 L 747.00 1859.00 L 727.00 1879.00 L 707.00 1879.00 L 687.00 1878.00 L 667.00 1858.00 L 627.00 1858.00 L 607.00 1857.00 L 547.00 1857.00 L 527.00 1856.00 L 487.00 1856.00 L 467.00 1848.00 L 447.00 1852.00 L 427.00 1860.00 L 407.00 1854.00 L 366.00 1854.00 L 338.00 1935.00 Z" stroke-width="1" id="302-21-02" stroke="black"/>
  <path fill="none" d="M 927.00 1943.00 L 967.00 1943.00 L 987.00 1944.00 L 1018.00 1944.00 L 1047.00 1863.00 L 987.00 1863.00 L 967.00 1862.00 L 929.00 1862.00 L 914.00 1942.35 Z" stroke-width="1" id="302-21-03" stroke="black"/>
  <path fill="none" d="M 1047.00 1944.00 L 1067.00 1945.00 L 1127.00 1945.00 L 1145.00 1945.90 L 1211.00 1866.00 L 1207.00 1866.00 L 1187.00 1865.00 L 1167.00 1885.00 L 1147.00 1865.00 L 1127.00 1864.00 L 1067.00 1864.00 L 1047.00 1863.00 L 1018.00 1944.00 Z" stroke-width="1" id="302-21-04" stroke="black"/>
  <path fill="none" d="M 1147.00 1946.00 L 1187.00 1946.00 L 1207.00 1947.00 L 1267.00 1947.00 L 1287.00 1948.00 L 1347.00 1948.00 L 1367.00 1949.00 L 1386.00 1949.00 L 1393.00 1868.00 L 1367.00 1868.00 L 1347.00 1867.00 L 1287.00 1867.00 L 1267.00 1866.00 L 1211.00 1866.00 L 1145.00 1945.90 Z" stroke-width="1" id="302-21-05" stroke="black"/>
  <path fill="none" d="M 1407.00 1949.00 L 1427.00 1950.00 L 1487.00 1950.00 L 1507.00 1951.00 L 1547.00 1951.00 L 1567.00 1932.00 L 1576.00 1932.00 L 1584.00 1871.00 L 1567.00 1871.00 L 1547.00 1870.00 L 1507.00 1870.00 L 1487.00 1869.00 L 1427.00 1869.00 L 1407.00 1868.00 L 1393.00 1868.00 L 1386.00 1949.00 Z" stroke-width="1" id="302-21-06" stroke="black"/>
  <path fill="none" d="M 1607.00 1932.00 L 1627.00 1952.00 L 1647.00 1953.00 L 1667.00 1933.00 L 1687.00 1953.00 L 1707.00 1953.00 L 1727.00 1954.00 L 1763.00 1954.00 L 1770.00 1873.15 L 1767.00 1873.00 L 1727.00 1873.00 L 1707.00 1872.00 L 1647.00 1872.00 L 1627.00 1871.00 L 1584.00 1871.00 L 1576.00 1932.00 Z" stroke-width="1" id="302-21-07" stroke="black"/>
  <path fill="none" d="M 1767.00 1954.00 L 1787.00 1955.00 L 1829.40 1955.00 L 1846.00 1911.00 L 1843.48 1874.00 L 1787.00 1874.00 L 1770.00 1873.15 L 1763.00 1954.00 Z" stroke-width="1" id="302-21-08" stroke="black"/>
  <path fill="none" d="M 251.94 1933.25 L 250.00 1975.00 L 243.00 1986.00 L 249.00 1995.00 L 249.45 2021.12 L 267.00 2022.00 L 307.00 2022.00 L 327.00 2023.00 L 346.00 2023.00 L 377.00 1935.00 L 327.00 1935.00 L 307.00 1934.00 L 267.00 1934.00 Z" stroke-width="1" id="302-22-01" stroke="black"/>
  <path fill="none" d="M 387.00 2023.00 L 407.00 2024.00 L 427.00 2024.00 L 447.00 2044.00 L 467.00 2024.00 L 487.00 2025.00 L 507.00 2025.00 L 527.00 2005.00 L 547.00 2026.00 L 596.00 2026.00 L 638.00 1939.00 L 627.00 1939.00 L 607.00 1958.00 L 587.00 1958.00 L 567.00 1938.00 L 547.00 1938.00 L 527.00 1937.00 L 487.00 1937.00 L 467.00 1936.00 L 407.00 1936.00 L 387.00 1935.00 L 377.00 1935.00 L 346.00 2023.00 Z" stroke-width="1" id="302-22-02" stroke="black"/>
  <path fill="none" d="M 607.00 2026.00 L 627.00 2027.00 L 687.00 2027.00 L 707.00 2028.00 L 747.00 2028.00 L 767.00 2029.00 L 787.00 2029.00 L 835.00 1949.40 L 827.00 1941.00 L 767.00 1941.00 L 747.00 1940.00 L 707.00 1940.00 L 687.00 1939.00 L 638.00 1939.00 L 596.00 2026.00 Z" stroke-width="1" id="302-22-03" stroke="black"/>
  <path fill="none" d="M 827.00 2029.00 L 847.00 2030.00 L 907.00 2030.00 L 927.00 2031.00 L 947.00 2031.00 L 967.00 2051.00 L 987.00 2052.00 L 1007.00 2032.00 L 1046.00 2032.00 L 1077.00 1945.00 L 1067.00 1945.00 L 1047.00 1944.00 L 987.00 1944.00 L 967.00 1943.00 L 927.00 1943.00 L 907.00 1942.00 L 867.00 1942.00 L 847.00 1962.00 L 835.00 1949.40 L 787.00 2029.00 Z" stroke-width="1" id="302-22-04" stroke="black"/>
  <path fill="none" d="M 1047.00 2032.00 L 1067.00 2033.00 L 1127.00 2033.00 L 1147.00 2034.00 L 1187.00 2034.00 L 1207.00 2035.00 L 1267.00 2035.00 L 1268.00 2035.05 L 1274.00 1947.35 L 1267.00 1947.00 L 1207.00 1947.00 L 1187.00 1946.00 L 1147.00 1946.00 L 1127.00 1945.00 L 1077.00 1945.00 L 1046.00 2032.00 Z" stroke-width="1" id="302-22-05" stroke="black"/>
  <path fill="none" d="M 1287.00 2036.00 L 1347.00 2036.00 L 1367.00 2057.00 L 1387.00 2037.00 L 1407.00 2037.00 L 1427.00 2038.00 L 1461.00 2038.00 L 1466.00 1950.00 L 1427.00 1950.00 L 1407.00 1949.00 L 1367.00 1949.00 L 1347.00 1948.00 L 1287.00 1948.00 L 1274.00 1947.35 L 1268.00 2035.05 Z" stroke-width="1" id="302-22-06" stroke="black"/>
  <path fill="none" d="M 1487.00 2038.00 L 1507.00 2039.00 L 1547.00 2039.00 L 1555.00 2039.40 L 1627.00 1952.00 L 1607.00 1932.00 L 1567.00 1932.00 L 1547.00 1951.00 L 1507.00 1951.00 L 1487.00 1950.00 L 1466.00 1950.00 L 1461.00 2038.00 Z" stroke-width="1" id="302-22-07" stroke="black"/>
  <path fill="none" d="M 1567.00 2040.00 L 1620.00 2040.00 L 1683.00 1949.00 L 1667.00 1933.00 L 1647.00 1953.00 L 1627.00 1952.00 L 1555.00 2039.40 Z" stroke-width="1" id="302-22-08" stroke="black"/>
  <path fill="none" d="M 1627.00 2040.00 L 1647.00 2041.00 L 1707.00 2041.00 L 1727.00 2042.00 L 1767.00 2042.00 L 1787.00 2043.00 L 1841.70 2043.00 L 1825.00 1994.00 L 1826.00 1964.00 L 1829.40 1955.00 L 1787.00 1955.00 L 1767.00 1954.00 L 1727.00 1954.00 L 1707.00 1953.00 L 1687.00 1953.00 L 1683.00 1949.00 L 1620.00 2040.00 Z" stroke-width="1" id="302-22-09" stroke="black"/>
  <path fill="none" d="M 249.45 2021.12 L 250.00 2053.00 L 235.00 2075.00 L 248.00 2080.00 L 246.76 2105.99 L 247.00 2106.00 L 267.00 2106.00 L 287.00 2126.00 L 307.00 2126.00 L 327.00 2127.00 L 347.00 2107.00 L 367.00 2107.00 L 384.00 2107.85 L 393.00 2023.30 L 387.00 2023.00 L 327.00 2023.00 L 307.00 2022.00 L 267.00 2022.00 Z" stroke-width="1" id="302-23-01" stroke="black"/>
  <path fill="none" d="M 387.00 2108.00 L 447.00 2108.00 L 467.00 2109.00 L 507.00 2109.00 L 527.00 2110.00 L 547.00 2090.00 L 567.00 2090.00 L 572.00 2095.00 L 621.00 2026.70 L 607.00 2026.00 L 547.00 2026.00 L 527.00 2005.00 L 507.00 2025.00 L 487.00 2025.00 L 467.00 2024.00 L 447.00 2044.00 L 427.00 2024.00 L 407.00 2024.00 L 393.00 2023.30 L 384.00 2107.85 Z" stroke-width="1" id="302-23-02" stroke="black"/>
  <path fill="none" d="M 587.00 2110.00 L 607.00 2111.00 L 647.00 2111.00 L 667.00 2112.00 L 687.00 2094.00 L 707.00 2084.00 L 727.00 2084.00 L 747.00 2113.00 L 760.00 2113.00 L 820.00 2029.00 L 767.00 2029.00 L 747.00 2028.00 L 707.00 2028.00 L 687.00 2027.00 L 627.00 2027.00 L 621.00 2026.70 L 572.00 2095.00 Z" stroke-width="1" id="302-23-03" stroke="black"/>
  <path fill="none" d="M 787.00 2113.00 L 807.00 2114.00 L 847.00 2114.00 L 867.00 2124.00 L 887.00 2116.00 L 907.00 2115.00 L 927.00 2115.00 L 947.00 2116.00 L 1007.00 2116.00 L 1009.00 2116.10 L 1030.00 2032.00 L 1007.00 2032.00 L 987.00 2052.00 L 967.00 2051.00 L 947.00 2031.00 L 927.00 2031.00 L 907.00 2030.00 L 847.00 2030.00 L 827.00 2029.00 L 820.00 2029.00 L 760.00 2113.00 Z" stroke-width="1" id="302-23-04" stroke="black"/>
  <path fill="none" d="M 1027.00 2117.00 L 1067.00 2117.00 L 1087.00 2118.00 L 1127.00 2118.00 L 1147.00 2119.00 L 1207.00 2119.00 L 1227.00 2120.00 L 1267.00 2120.00 L 1287.00 2121.00 L 1298.00 2121.00 L 1311.00 2036.00 L 1287.00 2036.00 L 1267.00 2035.00 L 1207.00 2035.00 L 1187.00 2034.00 L 1147.00 2034.00 L 1127.00 2033.00 L 1067.00 2033.00 L 1047.00 2032.00 L 1030.00 2032.00 L 1009.00 2116.10 Z" stroke-width="1" id="302-23-05" stroke="black"/>
  <path fill="none" d="M 1347.00 2121.00 L 1367.00 2102.00 L 1387.00 2102.00 L 1407.00 2122.00 L 1427.00 2123.00 L 1459.00 2123.00 L 1520.00 2039.00 L 1507.00 2039.00 L 1487.00 2038.00 L 1427.00 2038.00 L 1407.00 2037.00 L 1387.00 2037.00 L 1367.00 2057.00 L 1347.00 2036.00 L 1311.00 2036.00 L 1298.00 2121.00 Z" stroke-width="1" id="302-23-06" stroke="black"/>
  <path fill="none" d="M 1487.00 2123.00 L 1507.00 2124.00 L 1547.00 2124.00 L 1567.00 2125.00 L 1627.00 2125.00 L 1644.00 2125.85 L 1659.00 2041.00 L 1647.00 2041.00 L 1627.00 2040.00 L 1567.00 2040.00 L 1547.00 2039.00 L 1520.00 2039.00 L 1459.00 2123.00 Z" stroke-width="1" id="302-23-07" stroke="black"/>
  <path fill="none" d="M 1647.00 2126.00 L 1687.00 2126.00 L 1707.00 2127.00 L 1767.00 2127.00 L 1787.00 2108.00 L 1807.00 2128.00 L 1827.00 2128.00 L 1838.74 2128.59 L 1838.00 2110.00 L 1855.00 2082.00 L 1841.70 2043.00 L 1787.00 2043.00 L 1767.00 2042.00 L 1727.00 2042.00 L 1707.00 2041.00 L 1659.00 2041.00 L 1644.00 2125.85 Z" stroke-width="1" id="302-23-08" stroke="black"/>
  <path fill="none" d="M 246.76 2105.99 L 245.00 2143.00 L 233.00 2150.00 L 244.00 2164.00 L 244.00 2181.00 L 247.00 2181.00 L 267.00 2182.00 L 327.00 2182.00 L 347.00 2183.00 L 382.00 2183.00 L 415.00 2108.00 L 387.00 2108.00 L 367.00 2107.00 L 347.00 2107.00 L 327.00 2127.00 L 307.00 2126.00 L 287.00 2126.00 L 267.00 2106.00 L 247.00 2106.00 Z" stroke-width="1" id="302-24-01" stroke="black"/>
  <path fill="none" d="M 387.00 2183.00 L 407.00 2184.00 L 427.00 2204.00 L 447.00 2204.00 L 467.00 2184.00 L 472.00 2184.25 L 527.00 2110.00 L 507.00 2109.00 L 467.00 2109.00 L 447.00 2108.00 L 415.00 2108.00 L 382.00 2183.00 Z" stroke-width="1" id="302-24-02" stroke="black"/>
  <path fill="none" d="M 487.00 2185.00 L 527.00 2185.00 L 547.00 2205.00 L 567.00 2186.00 L 591.00 2186.00 L 626.00 2111.00 L 607.00 2111.00 L 587.00 2110.00 L 567.00 2090.00 L 547.00 2090.00 L 527.00 2110.00 L 472.00 2184.25 Z" stroke-width="1" id="302-24-03" stroke="black"/>
  <path fill="none" d="M 627.00 2186.00 L 647.00 2187.00 L 673.00 2187.00 L 735.00 2095.60 L 727.00 2084.00 L 707.00 2084.00 L 687.00 2094.00 L 667.00 2112.00 L 647.00 2111.00 L 626.00 2111.00 L 591.00 2186.00 Z" stroke-width="1" id="302-24-04" stroke="black"/>
  <path fill="none" d="M 687.00 2187.00 L 707.00 2188.00 L 767.00 2188.00 L 787.00 2189.00 L 847.00 2189.00 L 867.00 2190.00 L 927.00 2190.00 L 947.00 2191.00 L 957.00 2191.00 L 967.00 2116.00 L 947.00 2116.00 L 927.00 2115.00 L 907.00 2115.00 L 887.00 2116.00 L 867.00 2124.00 L 847.00 2114.00 L 807.00 2114.00 L 787.00 2113.00 L 747.00 2113.00 L 735.00 2095.60 L 673.00 2187.00 Z" stroke-width="1" id="302-24-05" stroke="black"/>
  <path fill="none" d="M 987.00 2191.00 L 1007.00 2192.00 L 1067.00 2192.00 L 1087.00 2193.00 L 1147.00 2193.00 L 1167.00 2174.00 L 1187.00 2194.00 L 1191.00 2194.00 L 1207.00 2119.00 L 1147.00 2119.00 L 1127.00 2118.00 L 1087.00 2118.00 L 1067.00 2117.00 L 1027.00 2117.00 L 1007.00 2116.00 L 967.00 2116.00 L 957.00 2191.00 Z" stroke-width="1" id="302-24-06" stroke="black"/>
  <path fill="none" d="M 1207.00 2194.00 L 1227.00 2195.00 L 1274.00 2195.00 L 1289.00 2121.00 L 1287.00 2121.00 L 1267.00 2120.00 L 1227.00 2120.00 L 1207.00 2119.00 L 1191.00 2194.00 Z" stroke-width="1" id="302-24-07" stroke="black"/>
  <path fill="none" d="M 1287.00 2195.00 L 1307.00 2196.00 L 1367.00 2196.00 L 1387.00 2197.00 L 1427.00 2197.00 L 1447.00 2177.00 L 1467.00 2198.00 L 1487.00 2218.00 L 1507.00 2218.00 L 1527.00 2219.00 L 1547.00 2199.00 L 1587.00 2199.00 L 1607.00 2200.00 L 1667.00 2200.00 L 1687.00 2201.00 L 1747.00 2201.00 L 1767.00 2202.00 L 1807.00 2202.00 L 1827.00 2203.00 L 1858.50 2203.00 L 1855.00 2199.00 L 1840.00 2160.00 L 1838.74 2128.59 L 1827.00 2128.00 L 1807.00 2128.00 L 1787.00 2108.00 L 1767.00 2127.00 L 1707.00 2127.00 L 1687.00 2126.00 L 1647.00 2126.00 L 1627.00 2125.00 L 1567.00 2125.00 L 1547.00 2124.00 L 1507.00 2124.00 L 1487.00 2123.00 L 1427.00 2123.00 L 1407.00 2122.00 L 1387.00 2102.00 L 1367.00 2102.00 L 1347.00 2121.00 L 1289.00 2121.00 L 1274.00 2195.00 Z" stroke-width="1" id="302-24-08" stroke="black"/>
  <path fill="none" d="M 244.00 2181.00 L 244.00 2226.00 L 230.00 2242.00 L 248.00 2252.00 L 246.50 2267.00 L 267.00 2267.00 L 287.00 2268.00 L 367.00 2268.00 L 386.00 2249.95 L 415.00 2192.00 L 407.00 2184.00 L 387.00 2183.00 L 347.00 2183.00 L 327.00 2182.00 L 267.00 2182.00 L 247.00 2181.00 Z" stroke-width="1" id="302-25-01" stroke="black"/>
  <path fill="none" d="M 387.00 2249.00 L 407.00 2269.00 L 447.00 2269.00 L 467.00 2270.00 L 522.00 2270.00 L 547.00 2205.00 L 527.00 2185.00 L 487.00 2185.00 L 467.00 2184.00 L 447.00 2204.00 L 427.00 2204.00 L 415.00 2192.00 L 386.00 2249.95 Z" stroke-width="1" id="302-25-02" stroke="black"/>
  <path fill="none" d="M 547.00 2270.00 L 567.00 2271.00 L 627.00 2271.00 L 647.00 2272.00 L 727.00 2272.00 L 747.00 2273.00 L 807.00 2273.00 L 827.00 2254.00 L 856.00 2189.45 L 847.00 2189.00 L 787.00 2189.00 L 767.00 2188.00 L 707.00 2188.00 L 687.00 2187.00 L 647.00 2187.00 L 627.00 2186.00 L 567.00 2186.00 L 547.00 2205.00 L 522.00 2270.00 Z" stroke-width="1" id="302-25-03" stroke="black"/>
  <path fill="none" d="M 847.00 2254.00 L 867.00 2314.00 L 887.00 2274.00 L 907.00 2275.00 L 909.00 2275.00 L 978.00 2191.00 L 947.00 2191.00 L 927.00 2190.00 L 867.00 2190.00 L 856.00 2189.45 L 827.00 2254.00 Z" stroke-width="1" id="302-25-04" stroke="black"/>
  <path fill="none" d="M 987.00 2275.00 L 1007.00 2276.00 L 1067.00 2276.00 L 1087.00 2277.00 L 1167.00 2277.00 L 1187.00 2278.00 L 1247.00 2278.00 L 1267.00 2279.00 L 1347.00 2279.00 L 1367.00 2280.00 L 1390.00 2197.00 L 1387.00 2197.00 L 1367.00 2196.00 L 1307.00 2196.00 L 1287.00 2195.00 L 1227.00 2195.00 L 1207.00 2194.00 L 1187.00 2194.00 L 1167.00 2174.00 L 1147.00 2193.00 L 1087.00 2193.00 L 1067.00 2192.00 L 1007.00 2192.00 L 987.00 2191.00 L 978.00 2191.00 L 909.00 2275.00 Z" stroke-width="1" id="302-25-05" stroke="black"/>
  <path fill="none" d="M 1418.00 2280.00 L 1475.00 2206.00 L 1467.00 2198.00 L 1447.00 2177.00 L 1427.00 2197.00 L 1390.00 2197.00 L 1367.00 2280.00 Z" stroke-width="1" id="302-25-06" stroke="black"/>
  <path fill="none" d="M 1427.00 2280.00 L 1447.00 2281.00 L 1507.00 2281.00 L 1527.00 2282.00 L 1574.00 2282.00 L 1583.00 2199.00 L 1547.00 2199.00 L 1527.00 2219.00 L 1507.00 2218.00 L 1487.00 2218.00 L 1475.00 2206.00 L 1418.00 2280.00 Z" stroke-width="1" id="302-25-07" stroke="black"/>
  <path fill="none" d="M 1607.00 2282.00 L 1627.00 2283.00 L 1687.00 2283.00 L 1707.00 2284.00 L 1787.00 2284.00 L 1807.00 2285.00 L 1865.11 2285.00 L 1874.00 2268.00 L 1897.00 2247.00 L 1858.50 2203.00 L 1827.00 2203.00 L 1807.00 2202.00 L 1767.00 2202.00 L 1747.00 2201.00 L 1687.00 2201.00 L 1667.00 2200.00 L 1607.00 2200.00 L 1587.00 2199.00 L 1583.00 2199.00 L 1574.00 2282.00 Z" stroke-width="1" id="302-25-08" stroke="black"/>
  <path fill="none" d="M 246.50 2267.00 L 242.00 2312.00 L 230.00 2324.00 L 245.00 2344.00 L 243.30 2367.00 L 267.00 2367.00 L 287.00 2368.00 L 347.00 2368.00 L 367.00 2369.00 L 427.00 2369.00 L 435.00 2369.40 L 435.00 2269.00 L 407.00 2269.00 L 387.00 2249.00 L 367.00 2268.00 L 287.00 2268.00 L 267.00 2267.00 Z" stroke-width="1" id="302-26-01" stroke="black"/>
  <path fill="none" d="M 447.00 2370.00 L 467.00 2370.00 L 487.00 2354.00 L 507.00 2346.00 L 527.00 2346.00 L 547.00 2391.00 L 567.00 2391.00 L 587.00 2371.00 L 607.00 2371.00 L 627.00 2372.00 L 687.00 2372.00 L 707.00 2373.00 L 723.00 2373.00 L 788.00 2273.00 L 747.00 2273.00 L 727.00 2272.00 L 647.00 2272.00 L 627.00 2271.00 L 567.00 2271.00 L 547.00 2270.00 L 467.00 2270.00 L 447.00 2269.00 L 435.00 2269.00 L 435.00 2369.40 Z" stroke-width="1" id="302-26-02" stroke="black"/>
  <path fill="none" d="M 767.00 2373.00 L 787.00 2374.00 L 807.00 2374.00 L 827.00 2354.00 L 847.00 2374.00 L 852.00 2374.25 L 867.00 2314.00 L 847.00 2254.00 L 827.00 2254.00 L 807.00 2273.00 L 788.00 2273.00 L 723.00 2373.00 Z" stroke-width="1" id="302-26-03" stroke="black"/>
  <path fill="none" d="M 867.00 2375.00 L 927.00 2375.00 L 947.00 2376.00 L 1027.00 2376.00 L 1042.00 2376.75 L 1101.00 2277.00 L 1087.00 2277.00 L 1067.00 2276.00 L 1007.00 2276.00 L 987.00 2275.00 L 907.00 2275.00 L 887.00 2274.00 L 867.00 2314.00 L 852.00 2374.25 Z" stroke-width="1" id="302-26-04" stroke="black"/>
  <path fill="none" d="M 1047.00 2377.00 L 1107.00 2377.00 L 1127.00 2378.00 L 1187.00 2378.00 L 1207.00 2379.00 L 1267.00 2379.00 L 1287.00 2380.00 L 1291.00 2380.00 L 1309.00 2279.00 L 1267.00 2279.00 L 1247.00 2278.00 L 1187.00 2278.00 L 1167.00 2277.00 L 1101.00 2277.00 L 1042.00 2376.75 Z" stroke-width="1" id="302-26-05" stroke="black"/>
  <path fill="none" d="M 1367.00 2381.00 L 1387.00 2401.00 L 1407.00 2381.00 L 1447.00 2381.00 L 1467.00 2382.00 L 1527.00 2382.00 L 1547.00 2383.00 L 1570.00 2383.00 L 1600.00 2282.00 L 1527.00 2282.00 L 1507.00 2281.00 L 1447.00 2281.00 L 1427.00 2280.00 L 1391.00 2280.00 L 1354.00 2380.35 Z" stroke-width="1" id="302-26-06" stroke="black"/>
  <path fill="none" d="M 1607.00 2383.00 L 1627.00 2384.00 L 1687.00 2384.00 L 1707.00 2385.00 L 1727.00 2385.00 L 1747.00 2365.00 L 1767.00 2385.00 L 1787.00 2386.00 L 1863.09 2386.00 L 1848.00 2366.00 L 1851.00 2312.00 L 1865.11 2285.00 L 1807.00 2285.00 L 1787.00 2284.00 L 1707.00 2284.00 L 1687.00 2283.00 L 1627.00 2283.00 L 1607.00 2282.00 L 1600.00 2282.00 L 1570.00 2383.00 Z" stroke-width="1" id="302-26-07" stroke="black"/>
  <path fill="none" d="M 243.30 2367.00 L 241.00 2398.00 L 220.00 2408.00 L 220.00 2416.00 L 238.00 2421.00 L 238.92 2441.00 L 267.00 2441.00 L 287.00 2442.00 L 367.00 2442.00 L 387.00 2443.00 L 396.00 2443.00 L 454.00 2370.00 L 447.00 2370.00 L 427.00 2369.00 L 367.00 2369.00 L 347.00 2368.00 L 287.00 2368.00 L 267.00 2367.00 Z" stroke-width="1" id="302-27-01" stroke="black"/>
  <path fill="none" d="M 447.00 2443.00 L 467.00 2444.00 L 547.00 2444.00 L 567.00 2445.00 L 607.00 2445.00 L 627.00 2465.00 L 647.00 2466.00 L 667.00 2446.00 L 684.00 2451.10 L 724.00 2373.00 L 707.00 2373.00 L 687.00 2372.00 L 627.00 2372.00 L 607.00 2371.00 L 587.00 2371.00 L 567.00 2391.00 L 547.00 2391.00 L 527.00 2346.00 L 507.00 2346.00 L 487.00 2354.00 L 467.00 2370.00 L 454.00 2370.00 L 396.00 2443.00 Z" stroke-width="1" id="302-27-02" stroke="black"/>
  <path fill="none" d="M 687.00 2452.00 L 707.00 2456.00 L 767.00 2456.00 L 787.00 2454.00 L 807.00 2447.00 L 827.00 2448.00 L 907.00 2448.00 L 921.00 2448.70 L 951.00 2376.00 L 947.00 2376.00 L 927.00 2375.00 L 867.00 2375.00 L 847.00 2374.00 L 827.00 2354.00 L 807.00 2374.00 L 787.00 2374.00 L 767.00 2373.00 L 724.00 2373.00 L 684.00 2451.10 Z" stroke-width="1" id="302-27-03" stroke="black"/>
  <path fill="none" d="M 927.00 2449.00 L 987.00 2449.00 L 1007.00 2450.00 L 1027.00 2470.00 L 1047.00 2470.00 L 1067.00 2460.00 L 1087.00 2450.00 L 1089.00 2452.10 L 1158.00 2378.00 L 1127.00 2378.00 L 1107.00 2377.00 L 1047.00 2377.00 L 1027.00 2376.00 L 951.00 2376.00 L 921.00 2448.70 Z" stroke-width="1" id="302-27-04" stroke="black"/>
  <path fill="none" d="M 1107.00 2471.00 L 1127.00 2471.00 L 1147.00 2451.00 L 1167.00 2451.00 L 1187.00 2452.00 L 1227.00 2452.00 L 1247.00 2432.00 L 1267.00 2432.00 L 1287.00 2433.00 L 1307.00 2453.00 L 1347.00 2453.00 L 1367.00 2434.00 L 1387.00 2454.00 L 1447.00 2454.00 L 1467.00 2455.00 L 1527.00 2455.00 L 1547.00 2456.00 L 1585.00 2456.00 L 1634.00 2384.00 L 1627.00 2384.00 L 1607.00 2383.00 L 1547.00 2383.00 L 1527.00 2382.00 L 1467.00 2382.00 L 1447.00 2381.00 L 1407.00 2381.00 L 1387.00 2401.00 L 1367.00 2381.00 L 1347.00 2380.00 L 1287.00 2380.00 L 1267.00 2379.00 L 1207.00 2379.00 L 1187.00 2378.00 L 1158.00 2378.00 L 1089.00 2452.10 Z" stroke-width="1" id="302-27-05" stroke="black"/>
  <path fill="none" d="M 1627.00 2456.00 L 1647.00 2457.00 L 1667.00 2457.00 L 1687.00 2437.00 L 1707.00 2457.00 L 1727.00 2458.00 L 1807.00 2458.00 L 1827.00 2459.00 L 1887.00 2459.00 L 1889.52 2459.13 L 1888.00 2419.00 L 1863.09 2386.00 L 1787.00 2386.00 L 1767.00 2385.00 L 1747.00 2365.00 L 1727.00 2385.00 L 1707.00 2385.00 L 1687.00 2384.00 L 1634.00 2384.00 L 1585.00 2456.00 Z" stroke-width="1" id="302-27-06" stroke="black"/>
  <path fill="none" d="M 238.92 2441.00 L 241.00 2486.00 L 232.00 2501.00 L 239.00 2527.00 L 267.00 2527.00 L 287.00 2508.00 L 307.00 2528.00 L 341.00 2528.00 L 355.00 2442.00 L 287.00 2442.00 L 267.00 2441.00 Z" stroke-width="1" id="302-28-01" stroke="black"/>
  <path fill="none" d="M 347.00 2528.00 L 367.00 2529.00 L 447.00 2529.00 L 467.00 2530.00 L 527.00 2530.00 L 547.00 2531.00 L 585.00 2531.00 L 627.00 2465.00 L 607.00 2445.00 L 567.00 2445.00 L 547.00 2444.00 L 467.00 2444.00 L 447.00 2443.00 L 387.00 2443.00 L 367.00 2442.00 L 355.00 2442.00 L 341.00 2528.00 Z" stroke-width="1" id="302-28-02" stroke="black"/>
  <path fill="none" d="M 607.00 2531.00 L 627.00 2512.00 L 647.00 2532.00 L 707.00 2532.00 L 727.00 2533.00 L 751.00 2533.00 L 764.00 2456.00 L 707.00 2456.00 L 687.00 2452.00 L 667.00 2446.00 L 647.00 2466.00 L 627.00 2465.00 L 585.00 2531.00 Z" stroke-width="1" id="302-28-03" stroke="black"/>
  <path fill="none" d="M 787.00 2533.00 L 807.00 2534.00 L 867.00 2534.00 L 887.00 2535.00 L 967.00 2535.00 L 987.00 2536.00 L 1047.00 2536.00 L 1067.00 2537.00 L 1127.00 2537.00 L 1147.00 2538.00 L 1152.00 2538.00 L 1172.00 2451.25 L 1167.00 2451.00 L 1147.00 2451.00 L 1127.00 2471.00 L 1107.00 2471.00 L 1087.00 2450.00 L 1067.00 2460.00 L 1047.00 2470.00 L 1027.00 2470.00 L 1007.00 2450.00 L 987.00 2449.00 L 927.00 2449.00 L 907.00 2448.00 L 827.00 2448.00 L 807.00 2447.00 L 787.00 2454.00 L 767.00 2456.00 L 764.00 2456.00 L 751.00 2533.00 Z" stroke-width="1" id="302-28-04" stroke="black"/>
  <path fill="none" d="M 1211.00 2538.00 L 1295.00 2441.00 L 1287.00 2433.00 L 1267.00 2432.00 L 1247.00 2432.00 L 1227.00 2452.00 L 1187.00 2452.00 L 1172.00 2451.25 L 1152.00 2538.00 Z" stroke-width="1" id="302-28-05" stroke="black"/>
  <path fill="none" d="M 1227.00 2538.00 L 1247.00 2539.00 L 1307.00 2539.00 L 1327.00 2540.00 L 1387.00 2540.00 L 1407.00 2541.00 L 1467.00 2541.00 L 1487.00 2542.00 L 1533.00 2542.00 L 1562.00 2456.00 L 1547.00 2456.00 L 1527.00 2455.00 L 1467.00 2455.00 L 1447.00 2454.00 L 1387.00 2454.00 L 1367.00 2434.00 L 1347.00 2453.00 L 1307.00 2453.00 L 1295.00 2441.00 L 1211.00 2538.00 Z" stroke-width="1" id="302-28-06" stroke="black"/>
  <path fill="none" d="M 1567.00 2542.00 L 1587.00 2543.00 L 1605.00 2543.00 L 1697.00 2447.00 L 1687.00 2437.00 L 1667.00 2457.00 L 1647.00 2457.00 L 1627.00 2456.00 L 1562.00 2456.00 L 1533.00 2542.00 Z" stroke-width="1" id="302-28-07" stroke="black"/>
  <path fill="none" d="M 1607.00 2543.00 L 1627.00 2563.00 L 1647.00 2543.00 L 1667.00 2544.00 L 1727.00 2544.00 L 1747.00 2545.00 L 1787.00 2545.00 L 1855.00 2459.00 L 1827.00 2459.00 L 1807.00 2458.00 L 1727.00 2458.00 L 1707.00 2457.00 L 1697.00 2447.00 L 1605.00 2543.00 Z" stroke-width="1" id="302-28-08" stroke="black"/>
  <path fill="none" d="M 1827.00 2545.00 L 1835.96 2545.45 L 1891.00 2498.00 L 1889.52 2459.13 L 1887.00 2459.00 L 1855.00 2459.00 L 1787.00 2545.00 Z" stroke-width="1" id="302-28-09" stroke="black"/>
  <path fill="none" d="M 239.00 2527.00 L 238.00 2568.00 L 222.00 2580.00 L 235.00 2591.00 L 234.43 2608.00 L 247.00 2608.00 L 267.00 2609.00 L 307.00 2609.00 L 327.00 2610.00 L 387.00 2610.00 L 407.00 2611.00 L 432.00 2611.00 L 444.00 2529.00 L 367.00 2529.00 L 347.00 2528.00 L 307.00 2528.00 L 287.00 2508.00 L 267.00 2527.00 Z" stroke-width="1" id="302-29-01" stroke="black"/>
  <path fill="none" d="M 467.00 2611.00 L 487.00 2612.00 L 527.00 2612.00 L 547.00 2613.00 L 607.00 2613.00 L 627.00 2614.00 L 647.00 2604.00 L 667.00 2614.00 L 679.00 2638.00 L 783.00 2533.00 L 727.00 2533.00 L 707.00 2532.00 L 647.00 2532.00 L 627.00 2512.00 L 607.00 2531.00 L 547.00 2531.00 L 527.00 2530.00 L 467.00 2530.00 L 447.00 2529.00 L 444.00 2529.00 L 432.00 2611.00 Z" stroke-width="1" id="302-29-02" stroke="black"/>
  <path fill="none" d="M 687.00 2654.00 L 707.00 2650.00 L 727.00 2638.00 L 747.00 2626.00 L 767.00 2622.00 L 787.00 2618.00 L 827.00 2618.00 L 847.00 2617.00 L 907.00 2617.00 L 925.00 2535.00 L 887.00 2535.00 L 867.00 2534.00 L 807.00 2534.00 L 787.00 2533.00 L 783.00 2533.00 L 679.00 2638.00 Z" stroke-width="1" id="302-29-03" stroke="black"/>
  <path fill="none" d="M 927.00 2618.00 L 967.00 2618.00 L 987.00 2619.00 L 1047.00 2619.00 L 1067.00 2620.00 L 1127.00 2620.00 L 1147.00 2621.00 L 1149.00 2621.00 L 1179.00 2538.00 L 1147.00 2538.00 L 1127.00 2537.00 L 1067.00 2537.00 L 1047.00 2536.00 L 987.00 2536.00 L 967.00 2535.00 L 925.00 2535.00 L 907.00 2617.00 Z" stroke-width="1" id="302-29-04" stroke="black"/>
  <path fill="none" d="M 1187.00 2621.00 L 1207.00 2622.00 L 1267.00 2622.00 L 1287.00 2623.00 L 1347.00 2623.00 L 1367.00 2624.00 L 1372.00 2624.00 L 1385.00 2540.00 L 1327.00 2540.00 L 1307.00 2539.00 L 1247.00 2539.00 L 1227.00 2538.00 L 1179.00 2538.00 L 1149.00 2621.00 Z" stroke-width="1" id="302-29-05" stroke="black"/>
  <path fill="none" d="M 1407.00 2624.00 L 1427.00 2625.00 L 1487.00 2625.00 L 1507.00 2626.00 L 1547.00 2626.00 L 1566.00 2626.95 L 1618.00 2554.00 L 1607.00 2543.00 L 1587.00 2543.00 L 1567.00 2542.00 L 1487.00 2542.00 L 1467.00 2541.00 L 1407.00 2541.00 L 1387.00 2540.00 L 1385.00 2540.00 L 1372.00 2624.00 Z" stroke-width="1" id="302-29-06" stroke="black"/>
  <path fill="none" d="M 1567.00 2627.00 L 1627.00 2627.00 L 1647.00 2628.00 L 1707.00 2628.00 L 1727.00 2629.00 L 1742.00 2629.00 L 1759.00 2545.00 L 1747.00 2545.00 L 1727.00 2544.00 L 1667.00 2544.00 L 1647.00 2543.00 L 1627.00 2563.00 L 1618.00 2554.00 L 1566.00 2626.95 Z" stroke-width="1" id="302-29-07" stroke="black"/>
  <path fill="none" d="M 1767.00 2629.00 L 1787.00 2630.00 L 1847.00 2630.00 L 1859.62 2630.63 L 1831.00 2606.00 L 1833.00 2548.00 L 1835.96 2545.45 L 1827.00 2545.00 L 1759.00 2545.00 L 1742.00 2629.00 Z" stroke-width="1" id="302-29-08" stroke="black"/>
  <path fill="none" d="M 234.43 2608.00 L 233.00 2651.00 L 226.00 2672.00 L 232.77 2694.00 L 287.00 2694.00 L 307.00 2695.00 L 367.00 2695.00 L 387.00 2676.00 L 399.00 2688.00 L 464.00 2611.00 L 407.00 2611.00 L 387.00 2610.00 L 327.00 2610.00 L 307.00 2609.00 L 267.00 2609.00 L 247.00 2608.00 Z" stroke-width="1" id="302-30-01" stroke="black"/>
  <path fill="none" d="M 407.00 2696.00 L 467.00 2696.00 L 487.00 2677.00 L 527.00 2677.00 L 547.00 2697.00 L 567.00 2698.00 L 622.00 2698.00 L 659.00 2610.00 L 647.00 2604.00 L 627.00 2614.00 L 607.00 2613.00 L 547.00 2613.00 L 527.00 2612.00 L 487.00 2612.00 L 467.00 2611.00 L 464.00 2611.00 L 399.00 2688.00 Z" stroke-width="1" id="302-30-02" stroke="black"/>
  <path fill="none" d="M 647.00 2698.00 L 667.00 2699.00 L 727.00 2699.00 L 747.00 2700.00 L 798.00 2700.00 L 852.00 2617.00 L 847.00 2617.00 L 827.00 2618.00 L 787.00 2618.00 L 767.00 2622.00 L 747.00 2626.00 L 727.00 2638.00 L 707.00 2650.00 L 687.00 2654.00 L 667.00 2614.00 L 659.00 2610.00 L 622.00 2698.00 Z" stroke-width="1" id="302-30-03" stroke="black"/>
  <path fill="none" d="M 827.00 2700.00 L 847.00 2701.00 L 907.00 2701.00 L 927.00 2702.00 L 947.00 2702.00 L 967.00 2682.00 L 987.00 2702.00 L 1007.00 2702.00 L 1017.00 2712.50 L 1086.00 2620.00 L 1067.00 2620.00 L 1047.00 2619.00 L 987.00 2619.00 L 967.00 2618.00 L 927.00 2618.00 L 907.00 2617.00 L 852.00 2617.00 L 798.00 2700.00 Z" stroke-width="1" id="302-30-04" stroke="black"/>
  <path fill="none" d="M 1027.00 2723.00 L 1047.00 2723.00 L 1067.00 2703.00 L 1087.00 2703.00 L 1107.00 2704.00 L 1180.00 2704.00 L 1190.00 2621.15 L 1187.00 2621.00 L 1147.00 2621.00 L 1127.00 2620.00 L 1086.00 2620.00 L 1017.00 2712.50 Z" stroke-width="1" id="302-30-05" stroke="black"/>
  <path fill="none" d="M 1187.00 2704.00 L 1207.00 2705.00 L 1247.00 2705.00 L 1267.00 2685.00 L 1287.00 2686.00 L 1307.00 2706.00 L 1367.00 2706.00 L 1387.00 2687.00 L 1407.00 2707.00 L 1415.00 2707.00 L 1429.00 2625.00 L 1427.00 2625.00 L 1407.00 2624.00 L 1367.00 2624.00 L 1347.00 2623.00 L 1287.00 2623.00 L 1267.00 2622.00 L 1207.00 2622.00 L 1190.00 2621.15 L 1180.00 2704.00 Z" stroke-width="1" id="302-30-06" stroke="black"/>
  <path fill="none" d="M 1447.00 2707.00 L 1467.00 2708.00 L 1487.00 2688.00 L 1507.00 2708.00 L 1547.00 2708.00 L 1567.00 2709.00 L 1568.00 2709.00 L 1734.00 2708.50 L 1790.00 2630.00 L 1787.00 2630.00 L 1767.00 2629.00 L 1727.00 2629.00 L 1707.00 2628.00 L 1647.00 2628.00 L 1627.00 2627.00 L 1567.00 2627.00 L 1547.00 2626.00 L 1507.00 2626.00 L 1487.00 2625.00 L 1429.00 2625.00 L 1415.00 2707.00 Z" stroke-width="1" id="302-30-07" stroke="black"/>
  <path fill="none" d="M 1900.00 2708.00 L 1910.00 2674.00 L 1859.62 2630.63 L 1847.00 2630.00 L 1790.00 2630.00 L 1734.00 2708.50 Z" stroke-width="1" id="302-30-08" stroke="black"/>
  <path fill="none" d="M 232.77 2694.00 L 234.00 2698.00 L 231.00 2733.00 L 217.00 2752.00 L 233.00 2765.00 L 362.00 2768.32 L 417.00 2696.00 L 407.00 2696.00 L 387.00 2676.00 L 367.00 2695.00 L 307.00 2695.00 L 287.00 2694.00 Z" stroke-width="1" id="302-31-01" stroke="black"/>
  <path fill="none" d="M 430.00 2770.07 L 523.00 2677.00 L 487.00 2677.00 L 467.00 2696.00 L 417.00 2696.00 L 362.00 2768.32 Z" stroke-width="1" id="302-31-02" stroke="black"/>
  <path fill="none" d="M 544.00 2773.00 L 569.00 2805.00 L 608.00 2803.14 L 684.00 2699.00 L 667.00 2699.00 L 647.00 2698.00 L 567.00 2698.00 L 547.00 2697.00 L 527.00 2677.00 L 523.00 2677.00 L 430.00 2770.07 Z" stroke-width="1" id="302-31-03" stroke="black"/>
  <path fill="none" d="M 674.00 2800.00 L 716.00 2788.00 L 703.67 2806.00 L 707.00 2806.00 L 727.00 2807.00 L 747.00 2807.00 L 767.00 2787.00 L 787.00 2778.00 L 807.00 2768.00 L 832.00 2768.00 L 846.00 2700.95 L 827.00 2700.00 L 747.00 2700.00 L 727.00 2699.00 L 684.00 2699.00 L 608.00 2803.14 Z" stroke-width="1" id="302-31-04" stroke="black"/>
  <path fill="none" d="M 867.00 2768.00 L 887.00 2769.00 L 907.00 2769.00 L 927.00 2809.00 L 947.00 2809.00 L 967.00 2810.00 L 1047.00 2810.00 L 1062.00 2810.75 L 1104.00 2703.85 L 1087.00 2703.00 L 1067.00 2703.00 L 1047.00 2723.00 L 1027.00 2723.00 L 1007.00 2702.00 L 987.00 2702.00 L 967.00 2682.00 L 947.00 2702.00 L 927.00 2702.00 L 907.00 2701.00 L 847.00 2701.00 L 846.00 2700.95 L 832.00 2768.00 Z" stroke-width="1" id="302-31-05" stroke="black"/>
  <path fill="none" d="M 1067.00 2811.00 L 1127.00 2811.00 L 1147.00 2812.00 L 1207.00 2812.00 L 1227.00 2813.00 L 1307.00 2813.00 L 1327.00 2814.00 L 1387.00 2814.00 L 1407.00 2815.00 L 1467.00 2815.00 L 1487.00 2816.00 L 1548.00 2816.00 L 1559.00 2774.27 L 1556.00 2774.00 L 1568.00 2709.00 L 1567.00 2709.00 L 1547.00 2708.00 L 1507.00 2708.00 L 1487.00 2688.00 L 1467.00 2708.00 L 1447.00 2707.00 L 1407.00 2707.00 L 1387.00 2687.00 L 1367.00 2706.00 L 1307.00 2706.00 L 1287.00 2686.00 L 1267.00 2685.00 L 1247.00 2705.00 L 1207.00 2705.00 L 1187.00 2704.00 L 1107.00 2704.00 L 1104.00 2703.85 L 1062.00 2810.75 Z" stroke-width="1" id="302-31-06" stroke="black"/>
  <path fill="none" d="M 703.67 2806.00 L 679.00 2842.00 L 676.40 2876.47 L 687.00 2877.00 L 727.00 2877.00 L 747.00 2878.00 L 787.00 2878.00 L 829.00 2768.00 L 807.00 2768.00 L 787.00 2778.00 L 767.00 2787.00 L 747.00 2807.00 L 727.00 2807.00 L 707.00 2806.00 Z" stroke-width="1" id="302-32-01" stroke="black"/>
  <path fill="none" d="M 807.00 2879.00 L 847.00 2879.00 L 850.00 2879.15 L 910.00 2775.00 L 907.00 2769.00 L 887.00 2769.00 L 867.00 2768.00 L 829.00 2768.00 L 787.00 2878.00 Z" stroke-width="1" id="302-32-02" stroke="black"/>
  <path fill="none" d="M 867.00 2880.00 L 887.00 2860.00 L 907.00 2860.00 L 927.00 2861.00 L 947.00 2881.00 L 967.00 2881.00 L 987.00 2882.00 L 1028.00 2882.00 L 1042.00 2810.00 L 967.00 2810.00 L 947.00 2809.00 L 927.00 2809.00 L 910.00 2775.00 L 850.00 2879.15 Z" stroke-width="1" id="302-32-03" stroke="black"/>
  <path fill="none" d="M 1047.00 2882.00 L 1067.00 2883.00 L 1107.00 2883.00 L 1127.00 2884.00 L 1153.00 2884.00 L 1201.00 2812.00 L 1147.00 2812.00 L 1127.00 2811.00 L 1067.00 2811.00 L 1047.00 2810.00 L 1042.00 2810.00 L 1028.00 2882.00 Z" stroke-width="1" id="302-32-04" stroke="black"/>
  <path fill="none" d="M 1167.00 2884.00 L 1187.00 2865.00 L 1207.00 2885.00 L 1227.00 2885.00 L 1247.00 2886.00 L 1287.00 2886.00 L 1307.00 2887.00 L 1341.00 2887.00 L 1361.00 2814.00 L 1327.00 2814.00 L 1307.00 2813.00 L 1227.00 2813.00 L 1207.00 2812.00 L 1201.00 2812.00 L 1153.00 2884.00 Z" stroke-width="1" id="302-32-05" stroke="black"/>
  <path fill="none" d="M 1347.00 2887.00 L 1367.00 2888.00 L 1407.00 2888.00 L 1427.00 2889.00 L 1467.00 2889.00 L 1487.00 2890.00 L 1507.00 2870.00 L 1527.00 2890.00 L 1547.00 2890.00 L 1567.00 2891.00 L 1607.00 2891.00 L 1627.00 2892.00 L 1667.00 2892.00 L 1677.00 2892.50 L 1680.00 2818.00 L 1667.00 2818.00 L 1647.00 2837.00 L 1627.00 2817.00 L 1607.00 2817.00 L 1587.00 2797.00 L 1567.00 2816.00 L 1487.00 2816.00 L 1467.00 2815.00 L 1407.00 2815.00 L 1387.00 2814.00 L 1361.00 2814.00 L 1341.00 2887.00 Z" stroke-width="1" id="302-32-06" stroke="black"/>
  <path fill="none" d="M 1687.00 2893.00 L 1727.00 2893.00 L 1747.00 2894.00 L 1787.00 2894.00 L 1807.00 2895.00 L 1834.89 2895.00 L 1847.00 2848.00 L 1811.85 2819.24 L 1807.00 2819.00 L 1787.00 2799.00 L 1767.00 2799.00 L 1747.00 2819.00 L 1727.00 2818.00 L 1680.00 2818.00 L 1677.00 2892.50 Z" stroke-width="1" id="302-32-07" stroke="black"/>
  <path fill="none" d="M 216.00 2923.00 L 224.00 2936.00 L 223.52 2944.17 L 227.00 2944.00 L 247.00 2946.00 L 267.00 2952.00 L 287.00 2976.00 L 307.00 2970.00 L 327.00 2968.00 L 347.00 2947.00 L 353.00 2959.00 L 410.00 2896.68 L 238.00 2906.00 Z" stroke-width="1" id="302-33-01" stroke="black"/>
  <path fill="none" d="M 367.00 2987.00 L 387.00 2987.00 L 407.00 2968.00 L 427.00 2948.00 L 447.00 2948.00 L 467.00 2949.00 L 527.00 2949.00 L 547.00 2950.00 L 587.00 2950.00 L 606.00 2950.95 L 643.00 2890.76 L 607.00 2886.00 L 410.00 2896.68 L 353.00 2959.00 Z" stroke-width="1" id="302-33-02" stroke="black"/>
  <path fill="none" d="M 607.00 2951.00 L 667.00 2951.00 L 687.00 2952.00 L 727.00 2952.00 L 747.00 2993.00 L 767.00 2973.00 L 807.00 2973.00 L 827.00 2954.00 L 867.00 2954.00 L 887.00 2955.00 L 913.00 2955.00 L 947.00 2881.00 L 927.00 2861.00 L 907.00 2860.00 L 887.00 2860.00 L 867.00 2880.00 L 847.00 2879.00 L 807.00 2879.00 L 787.00 2878.00 L 747.00 2878.00 L 727.00 2877.00 L 687.00 2877.00 L 676.40 2876.47 L 675.00 2895.00 L 643.00 2890.76 L 606.00 2950.95 Z" stroke-width="1" id="302-33-03" stroke="black"/>
  <path fill="none" d="M 947.00 2955.00 L 967.00 2956.00 L 1007.00 2956.00 L 1027.00 2957.00 L 1087.00 2957.00 L 1103.00 2957.80 L 1116.00 2883.45 L 1107.00 2883.00 L 1067.00 2883.00 L 1047.00 2882.00 L 987.00 2882.00 L 967.00 2881.00 L 947.00 2881.00 L 913.00 2955.00 Z" stroke-width="1" id="302-33-04" stroke="black"/>
  <path fill="none" d="M 1107.00 2958.00 L 1147.00 2958.00 L 1167.00 2959.00 L 1222.00 2959.00 L 1246.00 2885.95 L 1227.00 2885.00 L 1207.00 2885.00 L 1187.00 2865.00 L 1167.00 2884.00 L 1127.00 2884.00 L 1116.00 2883.45 L 1103.00 2957.80 Z" stroke-width="1" id="302-33-05" stroke="black"/>
  <path fill="none" d="M 1227.00 2959.00 L 1247.00 2960.00 L 1267.00 2980.00 L 1287.00 2980.00 L 1307.00 2981.00 L 1327.00 2961.00 L 1367.00 2961.00 L 1387.00 2962.00 L 1407.00 2942.00 L 1427.00 2962.00 L 1447.00 2963.00 L 1507.00 2963.00 L 1527.00 2964.00 L 1567.00 2964.00 L 1587.00 2965.00 L 1647.00 2965.00 L 1667.00 2966.00 L 1707.00 2966.00 L 1717.00 2966.50 L 1748.00 2894.00 L 1747.00 2894.00 L 1727.00 2893.00 L 1687.00 2893.00 L 1667.00 2892.00 L 1627.00 2892.00 L 1607.00 2891.00 L 1567.00 2891.00 L 1547.00 2890.00 L 1527.00 2890.00 L 1507.00 2870.00 L 1487.00 2890.00 L 1467.00 2889.00 L 1427.00 2889.00 L 1407.00 2888.00 L 1367.00 2888.00 L 1347.00 2887.00 L 1307.00 2887.00 L 1287.00 2886.00 L 1247.00 2886.00 L 1246.00 2885.95 L 1222.00 2959.00 Z" stroke-width="1" id="302-33-06" stroke="black"/>
  <path fill="none" d="M 1727.00 2967.00 L 1787.00 2967.00 L 1807.00 2968.00 L 1847.00 2968.00 L 1851.40 2968.22 L 1830.00 2914.00 L 1834.89 2895.00 L 1807.00 2895.00 L 1787.00 2894.00 L 1748.00 2894.00 L 1717.00 2966.50 Z" stroke-width="1" id="302-33-07" stroke="black"/>
  <path fill="none" d="M 223.52 2944.17 L 222.00 2970.00 L 214.00 2988.00 L 213.00 3014.00 L 223.00 3020.00 L 223.00 3032.00 L 247.00 3032.00 L 267.00 3033.00 L 307.00 3033.00 L 327.00 3034.00 L 364.00 3034.00 L 387.00 2987.00 L 367.00 2987.00 L 347.00 2947.00 L 327.00 2968.00 L 307.00 2970.00 L 287.00 2976.00 L 267.00 2952.00 L 247.00 2946.00 L 227.00 2944.00 Z" stroke-width="1" id="302-34-01" stroke="black"/>
  <path fill="none" d="M 367.00 3034.00 L 387.00 3054.00 L 407.00 3035.00 L 467.00 3035.00 L 487.00 3036.00 L 527.00 3036.00 L 547.00 3037.00 L 607.00 3037.00 L 627.00 3038.00 L 687.00 3038.00 L 707.00 3039.00 L 747.00 3039.00 L 767.00 3040.00 L 827.00 3040.00 L 847.00 3041.00 L 866.00 2954.00 L 827.00 2954.00 L 807.00 2973.00 L 767.00 2973.00 L 747.00 2993.00 L 727.00 2952.00 L 687.00 2952.00 L 667.00 2951.00 L 607.00 2951.00 L 587.00 2950.00 L 547.00 2950.00 L 527.00 2949.00 L 467.00 2949.00 L 447.00 2948.00 L 427.00 2948.00 L 407.00 2968.00 L 387.00 2987.00 L 364.00 3034.00 Z" stroke-width="1" id="302-34-02" stroke="black"/>
  <path fill="none" d="M 907.00 3041.00 L 927.00 3042.00 L 967.00 3042.00 L 987.00 3043.00 L 1002.00 3043.00 L 1029.00 2957.00 L 1027.00 2957.00 L 1007.00 2956.00 L 967.00 2956.00 L 947.00 2955.00 L 887.00 2955.00 L 867.00 2954.00 L 866.00 2954.00 L 847.00 3041.00 Z" stroke-width="1" id="302-34-03" stroke="black"/>
  <path fill="none" d="M 1047.00 3043.00 L 1067.00 3044.00 L 1127.00 3044.00 L 1147.00 3045.00 L 1187.00 3045.00 L 1207.00 3046.00 L 1267.00 3046.00 L 1287.00 3047.00 L 1309.00 3047.00 L 1338.00 2961.00 L 1327.00 2961.00 L 1307.00 2981.00 L 1287.00 2980.00 L 1267.00 2980.00 L 1247.00 2960.00 L 1227.00 2959.00 L 1167.00 2959.00 L 1147.00 2958.00 L 1107.00 2958.00 L 1087.00 2957.00 L 1029.00 2957.00 L 1002.00 3043.00 Z" stroke-width="1" id="302-34-04" stroke="black"/>
  <path fill="none" d="M 1347.00 3047.00 L 1367.00 3048.00 L 1372.00 3048.00 L 1427.00 2962.00 L 1407.00 2942.00 L 1387.00 2962.00 L 1367.00 2961.00 L 1338.00 2961.00 L 1309.00 3047.00 Z" stroke-width="1" id="302-34-05" stroke="black"/>
  <path fill="none" d="M 1407.00 3048.00 L 1427.00 3049.00 L 1487.00 3049.00 L 1507.00 3050.00 L 1547.00 3050.00 L 1567.00 3051.00 L 1578.00 2964.55 L 1567.00 2964.00 L 1527.00 2964.00 L 1507.00 2963.00 L 1447.00 2963.00 L 1427.00 2962.00 L 1372.00 3048.00 Z" stroke-width="1" id="302-34-06" stroke="black"/>
  <path fill="none" d="M 1627.00 3051.00 L 1647.00 3052.00 L 1707.00 3052.00 L 1727.00 3053.00 L 1767.00 3053.00 L 1787.00 3054.00 L 1847.00 3054.00 L 1867.00 3055.00 L 1867.03 3055.00 L 1860.00 2990.00 L 1851.40 2968.22 L 1847.00 2968.00 L 1807.00 2968.00 L 1787.00 2967.00 L 1727.00 2967.00 L 1707.00 2966.00 L 1667.00 2966.00 L 1647.00 2965.00 L 1587.00 2965.00 L 1578.00 2964.55 L 1567.00 3051.00 Z" stroke-width="1" id="302-34-07" stroke="black"/>
  <path fill="none" d="M 223.00 3032.00 L 223.00 3076.00 L 209.00 3096.00 L 225.00 3106.00 L 363.00 3108.92 L 418.00 3035.00 L 407.00 3035.00 L 387.00 3054.00 L 367.00 3034.00 L 327.00 3034.00 L 307.00 3033.00 L 267.00 3033.00 L 247.00 3032.00 Z" stroke-width="1" id="302-35-01" stroke="black"/>
  <path fill="none" d="M 461.00 3111.00 L 464.85 3137.00 L 467.36 3137.00 L 491.00 3127.00 L 497.95 3126.60 L 507.00 3118.00 L 527.00 3118.00 L 534.00 3118.35 L 576.00 3037.00 L 547.00 3037.00 L 527.00 3036.00 L 487.00 3036.00 L 467.00 3035.00 L 418.00 3035.00 L 363.00 3108.92 Z" stroke-width="1" id="302-35-02" stroke="black"/>
  <path fill="none" d="M 547.00 3119.00 L 607.00 3119.00 L 619.35 3119.62 L 717.00 3114.00 L 836.00 3109.00 L 923.00 3111.38 L 953.00 3042.00 L 927.00 3042.00 L 907.00 3041.00 L 847.00 3041.00 L 827.00 3040.00 L 767.00 3040.00 L 747.00 3039.00 L 707.00 3039.00 L 687.00 3038.00 L 627.00 3038.00 L 607.00 3037.00 L 576.00 3037.00 L 534.00 3118.35 Z" stroke-width="1" id="302-35-03" stroke="black"/>
  <path fill="none" d="M 1373.00 3123.66 L 1421.00 3048.70 L 1407.00 3048.00 L 1367.00 3048.00 L 1347.00 3047.00 L 1287.00 3047.00 L 1267.00 3046.00 L 1207.00 3046.00 L 1187.00 3045.00 L 1147.00 3045.00 L 1127.00 3044.00 L 1067.00 3044.00 L 1047.00 3043.00 L 987.00 3043.00 L 967.00 3042.00 L 953.00 3042.00 L 923.00 3111.38 Z" stroke-width="1" id="302-35-04" stroke="black"/>
  <path fill="none" d="M 1532.00 3128.00 L 1545.33 3132.00 L 1547.00 3132.00 L 1567.00 3133.00 L 1581.65 3133.00 L 1593.65 3130.56 L 1630.00 3051.15 L 1627.00 3051.00 L 1567.00 3051.00 L 1547.00 3050.00 L 1507.00 3050.00 L 1487.00 3049.00 L 1427.00 3049.00 L 1421.00 3048.70 L 1373.00 3123.66 Z" stroke-width="1" id="302-35-05" stroke="black"/>
  <path fill="none" d="M 1675.00 3114.00 L 1755.00 3116.13 L 1758.00 3053.00 L 1727.00 3053.00 L 1707.00 3052.00 L 1647.00 3052.00 L 1630.00 3051.15 L 1593.65 3130.56 Z" stroke-width="1" id="302-35-06" stroke="black"/>
  <path fill="none" d="M 1825.00 3118.00 L 1884.00 3110.00 L 1868.00 3064.00 L 1867.03 3055.00 L 1867.00 3055.00 L 1847.00 3054.00 L 1787.00 3054.00 L 1767.00 3053.00 L 1758.00 3053.00 L 1755.00 3116.13 Z" stroke-width="1" id="302-35-07" stroke="black"/>
</svg>
