<?xml version="1.0" encoding="UTF-8"?>
<svg xmlns:xlink="http://www.w3.org/1999/xlink" xmlns="http://www.w3.org/2000/svg" contentScriptType="text/ecmascript" width="2011px" zoomAndPan="magnify" contentStyleType="text/css" viewBox="0 0 2011 3289" height="3289px" preserveAspectRatio="xMidYMid meet" version="1.0">
  <path fill="none" d="M 221.00 211.00 L 219.45 233.28 L 230.00 228.00 L 250.00 228.00 L 270.00 229.00 L 290.00 229.00 L 310.00 230.00 L 330.00 230.00 L 350.00 231.00 L 390.00 231.00 L 410.00 232.00 L 430.00 232.00 L 450.00 233.00 L 470.00 233.00 L 479.00 233.45 L 509.00 150.49 L 345.00 123.00 L 317.00 126.00 L 307.00 134.00 Z" stroke-width="1" id="303-02-01" stroke="black"/>
  <path fill="none" d="M 490.00 234.00 L 530.00 234.00 L 550.00 235.00 L 570.00 235.00 L 590.00 236.00 L 610.00 236.00 L 630.00 237.00 L 670.00 237.00 L 690.00 238.00 L 710.00 238.00 L 730.00 239.00 L 738.00 239.00 L 769.00 150.39 L 654.00 153.00 L 524.00 153.00 L 509.00 150.49 L 479.00 233.45 Z" stroke-width="1" id="303-02-02" stroke="black"/>
  <path fill="none" d="M 750.00 239.00 L 770.00 240.00 L 790.00 240.00 L 810.00 241.00 L 850.00 241.00 L 870.00 242.00 L 890.00 242.00 L 910.00 243.00 L 923.00 243.00 L 984.00 145.52 L 769.00 150.39 L 738.00 239.00 Z" stroke-width="1" id="303-02-03" stroke="black"/>
  <path fill="none" d="M 930.00 243.00 L 950.00 244.00 L 990.00 244.00 L 1010.00 245.00 L 1030.00 245.00 L 1050.00 246.00 L 1070.00 246.00 L 1090.00 247.00 L 1130.00 247.00 L 1150.00 248.00 L 1170.00 248.00 L 1190.00 249.00 L 1210.00 249.00 L 1230.00 250.00 L 1250.00 250.00 L 1270.00 251.00 L 1310.00 251.00 L 1330.00 252.00 L 1350.00 252.00 L 1370.00 253.00 L 1390.00 253.00 L 1410.00 254.00 L 1450.00 254.00 L 1470.00 255.00 L 1488.00 255.00 L 1490.00 167.49 L 1314.00 166.00 L 1051.00 144.00 L 984.00 145.52 L 923.00 243.00 Z" stroke-width="1" id="303-02-04" stroke="black"/>
  <path fill="none" d="M 1490.00 255.00 L 1510.00 256.00 L 1530.00 256.00 L 1550.00 257.00 L 1590.00 257.00 L 1610.00 258.00 L 1630.00 258.00 L 1650.00 259.00 L 1670.00 259.00 L 1690.00 260.00 L 1710.00 260.00 L 1730.00 261.00 L 1770.00 261.00 L 1790.00 262.00 L 1810.00 262.00 L 1812.00 262.10 L 1857.00 152.00 L 1850.00 152.00 L 1830.00 154.00 L 1810.00 158.00 L 1790.00 160.00 L 1750.00 160.00 L 1748.21 160.18 L 1748.00 162.00 L 1551.00 168.00 L 1490.00 167.49 L 1488.00 255.00 Z" stroke-width="1" id="303-02-05" stroke="black"/>
  <path fill="none" d="M 1830.00 263.00 L 1850.00 263.00 L 1870.00 264.00 L 1910.00 264.00 L 1930.00 265.00 L 1950.00 265.00 L 1965.12 265.76 L 1968.00 238.00 L 1966.00 207.00 L 1955.90 150.00 L 1890.00 150.00 L 1870.00 152.00 L 1857.00 152.00 L 1812.00 262.10 Z" stroke-width="1" id="303-02-06" stroke="black"/>
  <path fill="none" d="M 232.62 312.26 L 231.00 364.00 L 218.00 376.00 L 227.00 386.00 L 227.78 404.11 L 230.00 403.00 L 290.00 403.00 L 339.00 314.00 L 250.00 314.00 Z" stroke-width="1" id="303-04-01" stroke="black"/>
  <path fill="none" d="M 350.00 403.00 L 370.00 404.00 L 379.00 404.00 L 406.00 314.00 L 339.00 314.00 L 290.00 403.00 Z" stroke-width="1" id="303-04-02" stroke="black"/>
  <path fill="none" d="M 510.00 404.00 L 530.00 405.00 L 650.00 405.00 L 670.00 406.00 L 795.00 406.00 L 836.00 314.00 L 830.00 314.00 L 810.00 318.00 L 670.00 318.00 L 650.00 314.00 L 406.00 314.00 L 379.00 404.00 Z" stroke-width="1" id="303-04-03" stroke="black"/>
  <path fill="none" d="M 810.00 406.00 L 830.00 407.00 L 875.00 407.00 L 901.00 311.80 L 890.00 314.00 L 836.00 314.00 L 795.00 406.00 Z" stroke-width="1" id="303-04-04" stroke="black"/>
  <path fill="none" d="M 950.00 407.00 L 970.00 408.00 L 1030.00 408.00 L 1050.00 428.00 L 1070.00 428.00 L 1090.00 408.00 L 1110.00 408.00 L 1113.00 411.15 L 1181.00 322.00 L 1170.00 322.00 L 1150.00 320.00 L 1130.00 320.00 L 1110.00 324.00 L 1030.00 324.00 L 1010.00 322.00 L 990.00 320.00 L 970.00 316.00 L 950.00 314.00 L 930.00 312.00 L 910.00 310.00 L 901.00 311.80 L 875.00 407.00 Z" stroke-width="1" id="303-04-05" stroke="black"/>
  <path fill="none" d="M 1130.00 429.00 L 1150.00 429.00 L 1170.00 409.00 L 1250.00 409.00 L 1270.00 410.00 L 1290.00 410.00 L 1292.00 412.00 L 1365.00 330.00 L 1290.00 330.00 L 1270.00 328.00 L 1250.00 326.00 L 1230.00 324.00 L 1210.00 322.00 L 1181.00 322.00 L 1113.00 411.15 Z" stroke-width="1" id="303-04-06" stroke="black"/>
  <path fill="none" d="M 1310.00 430.00 L 1330.00 430.00 L 1350.00 410.00 L 1410.00 410.00 L 1430.00 411.00 L 1550.00 411.00 L 1551.00 411.05 L 1554.00 370.00 L 1550.00 370.00 L 1530.00 348.00 L 1510.00 342.00 L 1490.00 340.00 L 1470.00 340.00 L 1450.00 338.00 L 1430.00 336.00 L 1410.00 334.00 L 1390.00 332.00 L 1370.00 330.00 L 1365.00 330.00 L 1292.00 412.00 Z" stroke-width="1" id="303-04-07" stroke="black"/>
  <path fill="none" d="M 1570.00 412.00 L 1710.00 412.00 L 1730.00 413.00 L 1810.00 413.00 L 1830.00 433.00 L 1850.00 413.00 L 1867.00 413.85 L 1876.00 326.80 L 1870.00 328.00 L 1770.00 328.00 L 1750.00 336.00 L 1730.00 348.00 L 1710.00 362.00 L 1690.00 366.00 L 1670.00 362.00 L 1650.00 364.00 L 1630.00 364.00 L 1610.00 366.00 L 1590.00 370.00 L 1554.00 370.00 L 1551.00 411.05 Z" stroke-width="1" id="303-04-08" stroke="black"/>
  <path fill="none" d="M 1870.00 414.00 L 1978.69 414.00 L 1985.00 373.00 L 1963.02 322.00 L 1950.00 322.00 L 1930.00 320.00 L 1910.00 324.00 L 1890.00 324.00 L 1876.00 326.80 L 1867.00 413.85 Z" stroke-width="1" id="303-04-09" stroke="black"/>
  <path fill="none" d="M 227.78 404.11 L 230.00 456.00 L 214.00 476.00 L 218.00 499.00 L 220.21 498.89 L 230.00 494.00 L 290.00 494.00 L 310.00 515.00 L 330.00 495.00 L 370.00 495.00 L 390.00 496.00 L 418.00 496.00 L 443.00 404.00 L 370.00 404.00 L 350.00 403.00 L 230.00 403.00 Z" stroke-width="1" id="303-05-01" stroke="black"/>
  <path fill="none" d="M 450.00 496.00 L 470.00 497.00 L 530.00 497.00 L 550.00 518.00 L 570.00 518.00 L 590.00 498.00 L 610.00 498.00 L 630.00 499.00 L 710.00 499.00 L 730.00 500.00 L 790.00 500.00 L 810.00 501.00 L 870.00 501.00 L 890.00 502.00 L 907.00 502.00 L 912.00 407.00 L 830.00 407.00 L 810.00 406.00 L 670.00 406.00 L 650.00 405.00 L 530.00 405.00 L 510.00 404.00 L 443.00 404.00 L 418.00 496.00 Z" stroke-width="1" id="303-05-02" stroke="black"/>
  <path fill="none" d="M 950.00 502.00 L 970.00 503.00 L 1030.00 503.00 L 1050.00 504.00 L 1082.00 504.00 L 1130.00 429.00 L 1110.00 408.00 L 1090.00 408.00 L 1070.00 428.00 L 1050.00 428.00 L 1030.00 408.00 L 970.00 408.00 L 950.00 407.00 L 912.00 407.00 L 907.00 502.00 Z" stroke-width="1" id="303-05-03" stroke="black"/>
  <path fill="none" d="M 1110.00 504.00 L 1130.00 505.00 L 1210.00 505.00 L 1230.00 506.00 L 1250.00 506.00 L 1270.00 486.00 L 1290.00 486.00 L 1310.00 527.00 L 1330.00 507.00 L 1370.00 507.00 L 1390.00 508.00 L 1393.00 505.00 L 1389.00 410.00 L 1350.00 410.00 L 1330.00 430.00 L 1310.00 430.00 L 1290.00 410.00 L 1270.00 410.00 L 1250.00 409.00 L 1170.00 409.00 L 1150.00 429.00 L 1130.00 429.00 L 1082.00 504.00 Z" stroke-width="1" id="303-05-04" stroke="black"/>
  <path fill="none" d="M 1410.00 488.00 L 1430.00 508.00 L 1450.00 508.00 L 1470.00 509.00 L 1530.00 509.00 L 1550.00 510.00 L 1559.00 510.00 L 1600.00 412.00 L 1570.00 412.00 L 1550.00 411.00 L 1430.00 411.00 L 1410.00 410.00 L 1389.00 410.00 L 1393.00 505.00 Z" stroke-width="1" id="303-05-05" stroke="black"/>
  <path fill="none" d="M 1630.00 510.00 L 1650.00 511.00 L 1696.00 511.00 L 1727.00 412.85 L 1710.00 412.00 L 1600.00 412.00 L 1559.00 510.00 Z" stroke-width="1" id="303-05-06" stroke="black"/>
  <path fill="none" d="M 1710.00 511.00 L 1730.00 512.00 L 1770.00 512.00 L 1790.00 492.00 L 1810.00 493.00 L 1830.00 493.00 L 1830.00 433.00 L 1810.00 413.00 L 1730.00 413.00 L 1727.00 412.85 L 1696.00 511.00 Z" stroke-width="1" id="303-05-07" stroke="black"/>
  <path fill="none" d="M 1850.00 513.00 L 1870.00 493.00 L 1890.00 514.00 L 1950.00 514.00 L 1970.00 515.00 L 1979.84 515.00 L 1988.00 472.00 L 1977.00 425.00 L 1978.69 414.00 L 1870.00 414.00 L 1850.00 413.00 L 1830.00 433.00 L 1830.00 493.00 Z" stroke-width="1" id="303-05-08" stroke="black"/>
  <path fill="none" d="M 220.21 498.89 L 239.00 498.00 L 230.00 536.00 L 218.00 552.00 L 233.00 564.00 L 232.17 575.00 L 290.00 575.00 L 310.00 576.00 L 390.00 576.00 L 396.00 576.30 L 422.00 496.00 L 390.00 496.00 L 370.00 495.00 L 330.00 495.00 L 310.00 515.00 L 290.00 494.00 L 230.00 494.00 Z" stroke-width="1" id="303-06-01" stroke="black"/>
  <path fill="none" d="M 410.00 577.00 L 470.00 577.00 L 490.00 578.00 L 529.00 578.00 L 553.00 518.00 L 550.00 518.00 L 530.00 497.00 L 470.00 497.00 L 450.00 496.00 L 422.00 496.00 L 396.00 576.30 Z" stroke-width="1" id="303-06-02" stroke="black"/>
  <path fill="none" d="M 530.00 578.00 L 550.00 598.00 L 570.00 598.00 L 590.00 579.00 L 670.00 579.00 L 690.00 580.00 L 750.00 580.00 L 770.00 581.00 L 850.00 581.00 L 870.00 582.00 L 913.00 582.00 L 997.00 503.00 L 970.00 503.00 L 950.00 502.00 L 890.00 502.00 L 870.00 501.00 L 810.00 501.00 L 790.00 500.00 L 730.00 500.00 L 710.00 499.00 L 630.00 499.00 L 610.00 498.00 L 590.00 498.00 L 570.00 518.00 L 553.00 518.00 L 529.00 578.00 Z" stroke-width="1" id="303-06-03" stroke="black"/>
  <path fill="none" d="M 950.00 582.00 L 970.00 583.00 L 990.00 583.00 L 1010.00 603.00 L 1030.00 583.00 L 1050.00 584.00 L 1068.00 584.00 L 1119.00 504.45 L 1110.00 504.00 L 1050.00 504.00 L 1030.00 503.00 L 997.00 503.00 L 913.00 582.00 Z" stroke-width="1" id="303-06-04" stroke="black"/>
  <path fill="none" d="M 1130.00 584.00 L 1150.00 585.00 L 1230.00 585.00 L 1250.00 586.00 L 1281.00 586.00 L 1310.00 527.00 L 1290.00 486.00 L 1270.00 486.00 L 1250.00 506.00 L 1230.00 506.00 L 1210.00 505.00 L 1130.00 505.00 L 1119.00 504.45 L 1068.00 584.00 Z" stroke-width="1" id="303-06-05" stroke="black"/>
  <path fill="none" d="M 1310.00 586.00 L 1330.00 587.00 L 1370.00 587.00 L 1390.00 607.00 L 1410.00 607.00 L 1430.00 588.00 L 1510.00 588.00 L 1530.00 589.00 L 1590.00 589.00 L 1610.00 590.00 L 1654.00 590.00 L 1661.00 511.00 L 1650.00 511.00 L 1630.00 510.00 L 1550.00 510.00 L 1530.00 509.00 L 1470.00 509.00 L 1450.00 508.00 L 1430.00 508.00 L 1410.00 488.00 L 1390.00 508.00 L 1370.00 507.00 L 1330.00 507.00 L 1310.00 527.00 L 1281.00 586.00 Z" stroke-width="1" id="303-06-06" stroke="black"/>
  <path fill="none" d="M 1710.00 591.00 L 1741.00 591.00 L 1828.00 493.00 L 1810.00 493.00 L 1790.00 492.00 L 1770.00 512.00 L 1730.00 512.00 L 1710.00 511.00 L 1707.00 511.00 L 1702.00 590.60 Z" stroke-width="1" id="303-06-07" stroke="black"/>
  <path fill="none" d="M 1790.00 591.00 L 1810.00 592.00 L 1870.00 592.00 L 1890.00 593.00 L 1961.20 593.00 L 1973.00 551.00 L 1979.84 515.00 L 1970.00 515.00 L 1950.00 514.00 L 1890.00 514.00 L 1870.00 493.00 L 1850.00 513.00 L 1830.00 493.00 L 1828.00 493.00 L 1741.00 591.00 Z" stroke-width="1" id="303-06-08" stroke="black"/>
  <path fill="none" d="M 232.17 575.00 L 228.00 630.00 L 217.00 643.00 L 210.00 672.00 L 238.06 673.94 L 250.00 662.00 L 270.00 682.00 L 290.00 662.00 L 340.00 662.00 L 352.00 576.00 L 310.00 576.00 L 290.00 575.00 Z" stroke-width="1" id="303-07-01" stroke="black"/>
  <path fill="none" d="M 390.00 662.00 L 410.00 663.00 L 570.00 663.00 L 590.00 664.00 L 607.00 664.00 L 616.00 579.00 L 590.00 579.00 L 570.00 598.00 L 550.00 598.00 L 530.00 578.00 L 490.00 578.00 L 470.00 577.00 L 410.00 577.00 L 390.00 576.00 L 352.00 576.00 L 340.00 662.00 Z" stroke-width="1" id="303-07-02" stroke="black"/>
  <path fill="none" d="M 750.00 664.00 L 758.00 664.40 L 795.00 581.00 L 770.00 581.00 L 750.00 580.00 L 690.00 580.00 L 683.00 579.65 L 673.00 664.00 Z" stroke-width="1" id="303-07-03" stroke="black"/>
  <path fill="none" d="M 770.00 665.00 L 930.00 665.00 L 950.00 666.00 L 1110.00 666.00 L 1130.00 667.00 L 1131.00 667.00 L 1127.00 584.00 L 1050.00 584.00 L 1030.00 583.00 L 1010.00 603.00 L 990.00 583.00 L 970.00 583.00 L 950.00 582.00 L 870.00 582.00 L 850.00 581.00 L 795.00 581.00 L 758.00 664.40 Z" stroke-width="1" id="303-07-04" stroke="black"/>
  <path fill="none" d="M 1206.00 667.00 L 1246.00 585.80 L 1230.00 585.00 L 1150.00 585.00 L 1130.00 584.00 L 1127.00 584.00 L 1131.00 667.00 Z" stroke-width="1" id="303-07-05" stroke="black"/>
  <path fill="none" d="M 1230.00 667.00 L 1250.00 687.00 L 1290.00 687.00 L 1310.00 668.00 L 1390.00 668.00 L 1410.00 674.00 L 1417.00 686.60 L 1524.00 588.70 L 1510.00 588.00 L 1430.00 588.00 L 1410.00 607.00 L 1390.00 607.00 L 1370.00 587.00 L 1330.00 587.00 L 1310.00 586.00 L 1250.00 586.00 L 1246.00 585.80 L 1206.00 667.00 Z" stroke-width="1" id="303-07-06" stroke="black"/>
  <path fill="none" d="M 1430.00 710.00 L 1450.00 712.00 L 1470.00 696.00 L 1490.00 686.00 L 1510.00 689.00 L 1530.00 669.00 L 1650.00 669.00 L 1651.00 669.05 L 1664.00 590.00 L 1610.00 590.00 L 1590.00 589.00 L 1530.00 589.00 L 1524.00 588.70 L 1417.00 686.60 Z" stroke-width="1" id="303-07-07" stroke="black"/>
  <path fill="none" d="M 1670.00 670.00 L 1790.00 670.00 L 1810.00 650.00 L 1830.00 670.00 L 1850.00 671.00 L 1959.10 671.00 L 1948.00 640.00 L 1961.20 593.00 L 1890.00 593.00 L 1870.00 592.00 L 1810.00 592.00 L 1790.00 591.00 L 1710.00 591.00 L 1690.00 590.00 L 1664.00 590.00 L 1651.00 669.05 Z" stroke-width="1" id="303-07-08" stroke="black"/>
  <path fill="none" d="M 250.00 662.00 L 238.06 673.94 L 239.00 674.00 L 227.00 727.00 L 250.87 770.13 L 269.87 751.13 L 323.00 662.00 L 290.00 662.00 L 270.00 682.00 Z" stroke-width="1" id="303-08-01" stroke="black"/>
  <path fill="none" d="M 270.00 751.00 L 350.00 751.00 L 352.00 749.00 L 367.00 662.00 L 323.00 662.00 L 269.87 751.13 Z" stroke-width="1" id="303-08-02" stroke="black"/>
  <path fill="none" d="M 370.00 731.00 L 390.00 751.00 L 410.00 751.00 L 430.00 772.00 L 450.00 772.00 L 470.00 752.00 L 490.00 752.00 L 510.00 772.00 L 530.00 772.00 L 550.00 752.00 L 571.00 752.00 L 609.00 664.00 L 590.00 664.00 L 570.00 663.00 L 410.00 663.00 L 390.00 662.00 L 367.00 662.00 L 352.00 749.00 Z" stroke-width="1" id="303-08-03" stroke="black"/>
  <path fill="none" d="M 610.00 752.00 L 630.00 753.00 L 727.00 753.00 L 776.00 665.00 L 770.00 665.00 L 750.00 664.00 L 609.00 664.00 L 571.00 752.00 Z" stroke-width="1" id="303-08-04" stroke="black"/>
  <path fill="none" d="M 798.00 753.00 L 840.00 665.00 L 776.00 665.00 L 727.00 753.00 Z" stroke-width="1" id="303-08-05" stroke="black"/>
  <path fill="none" d="M 830.00 753.00 L 850.00 754.00 L 870.00 754.00 L 890.00 734.00 L 910.00 754.00 L 940.00 754.00 L 982.00 666.00 L 950.00 666.00 L 930.00 665.00 L 840.00 665.00 L 798.00 753.00 Z" stroke-width="1" id="303-08-06" stroke="black"/>
  <path fill="none" d="M 1010.00 754.00 L 1030.00 734.00 L 1050.00 755.00 L 1090.00 755.00 L 1110.00 775.00 L 1130.00 755.00 L 1150.00 735.00 L 1170.00 735.00 L 1190.00 755.00 L 1230.00 755.00 L 1250.00 756.00 L 1261.00 756.00 L 1328.00 668.00 L 1310.00 668.00 L 1290.00 687.00 L 1250.00 687.00 L 1230.00 667.00 L 1130.00 667.00 L 1110.00 666.00 L 982.00 666.00 L 940.00 754.00 Z" stroke-width="1" id="303-08-07" stroke="black"/>
  <path fill="none" d="M 1370.00 756.00 L 1379.00 765.00 L 1433.00 710.30 L 1430.00 710.00 L 1410.00 674.00 L 1390.00 668.00 L 1328.00 668.00 L 1261.00 756.00 Z" stroke-width="1" id="303-08-08" stroke="black"/>
  <path fill="none" d="M 1390.00 776.00 L 1430.00 776.00 L 1450.00 756.00 L 1470.00 757.00 L 1589.00 757.00 L 1599.00 669.00 L 1530.00 669.00 L 1510.00 689.00 L 1490.00 686.00 L 1470.00 696.00 L 1450.00 712.00 L 1433.00 710.30 L 1379.00 765.00 Z" stroke-width="1" id="303-08-09" stroke="black"/>
  <path fill="none" d="M 1650.00 757.00 L 1670.00 758.00 L 1710.00 758.00 L 1729.00 739.00 L 1730.00 670.00 L 1670.00 670.00 L 1650.00 669.00 L 1599.00 669.00 L 1589.00 757.00 Z" stroke-width="1" id="303-08-10" stroke="black"/>
  <path fill="none" d="M 1730.00 738.00 L 1750.00 778.00 L 1770.00 758.00 L 1850.00 758.00 L 1870.00 759.00 L 1970.42 759.00 L 1972.00 707.00 L 1959.10 671.00 L 1850.00 671.00 L 1830.00 670.00 L 1810.00 650.00 L 1790.00 670.00 L 1730.00 670.00 L 1729.00 739.00 Z" stroke-width="1" id="303-08-11" stroke="black"/>
  <path fill="none" d="M 286.00 812.00 L 272.76 830.00 L 309.76 830.00 L 388.00 749.00 L 370.00 731.00 L 350.00 751.00 L 333.00 751.00 L 308.00 766.00 Z" stroke-width="1" id="303-09-01" stroke="black"/>
  <path fill="none" d="M 310.00 830.00 L 330.00 850.00 L 350.00 830.00 L 370.00 830.00 L 390.00 851.00 L 410.00 851.00 L 430.00 831.00 L 493.00 831.00 L 517.00 772.00 L 510.00 772.00 L 490.00 752.00 L 470.00 752.00 L 450.00 772.00 L 430.00 772.00 L 410.00 751.00 L 390.00 751.00 L 388.00 749.00 L 309.76 830.00 Z" stroke-width="1" id="303-09-02" stroke="black"/>
  <path fill="none" d="M 550.00 831.00 L 570.00 832.00 L 575.00 832.00 L 603.00 752.00 L 550.00 752.00 L 530.00 772.00 L 517.00 772.00 L 493.00 831.00 Z" stroke-width="1" id="303-09-03" stroke="black"/>
  <path fill="none" d="M 730.00 832.00 L 750.00 833.00 L 869.00 833.00 L 910.00 754.00 L 890.00 734.00 L 870.00 754.00 L 850.00 754.00 L 830.00 753.00 L 630.00 753.00 L 610.00 752.00 L 603.00 752.00 L 575.00 832.00 Z" stroke-width="1" id="303-09-04" stroke="black"/>
  <path fill="none" d="M 890.00 833.00 L 910.00 834.00 L 1070.00 834.00 L 1087.00 834.85 L 1110.00 775.00 L 1090.00 755.00 L 1050.00 755.00 L 1030.00 734.00 L 1010.00 754.00 L 910.00 754.00 L 869.00 833.00 Z" stroke-width="1" id="303-09-05" stroke="black"/>
  <path fill="none" d="M 1090.00 835.00 L 1127.00 835.00 L 1191.00 755.00 L 1190.00 755.00 L 1170.00 735.00 L 1150.00 735.00 L 1130.00 755.00 L 1110.00 775.00 L 1087.00 834.85 Z" stroke-width="1" id="303-09-06" stroke="black"/>
  <path fill="none" d="M 1250.00 835.00 L 1270.00 836.00 L 1275.00 836.00 L 1300.00 756.00 L 1250.00 756.00 L 1230.00 755.00 L 1191.00 755.00 L 1127.00 835.00 Z" stroke-width="1" id="303-09-07" stroke="black"/>
  <path fill="none" d="M 1430.00 836.00 L 1450.00 837.00 L 1477.00 837.00 L 1486.00 757.00 L 1470.00 757.00 L 1450.00 756.00 L 1430.00 776.00 L 1390.00 776.00 L 1370.00 756.00 L 1300.00 756.00 L 1275.00 836.00 Z" stroke-width="1" id="303-09-08" stroke="black"/>
  <path fill="none" d="M 1590.00 837.00 L 1610.00 838.00 L 1628.00 838.00 L 1633.00 757.00 L 1486.00 757.00 L 1477.00 837.00 Z" stroke-width="1" id="303-09-09" stroke="black"/>
  <path fill="none" d="M 1755.00 838.00 L 1798.00 758.00 L 1770.00 758.00 L 1750.00 778.00 L 1730.00 738.00 L 1710.00 758.00 L 1670.00 758.00 L 1650.00 757.00 L 1633.00 757.00 L 1628.00 838.00 Z" stroke-width="1" id="303-09-10" stroke="black"/>
  <path fill="none" d="M 1770.00 838.00 L 1790.00 839.00 L 1870.00 839.00 L 1890.00 859.00 L 1910.00 839.00 L 1950.00 839.00 L 1966.88 839.84 L 1969.00 806.00 L 1970.42 759.00 L 1870.00 759.00 L 1850.00 758.00 L 1798.00 758.00 L 1755.00 838.00 Z" stroke-width="1" id="303-09-11" stroke="black"/>
  <path fill="none" d="M 272.76 830.00 L 236.00 880.00 L 221.00 895.00 L 236.00 907.00 L 236.34 916.00 L 330.00 916.00 L 350.00 936.00 L 369.00 917.00 L 391.00 851.00 L 390.00 851.00 L 370.00 830.00 L 350.00 830.00 L 330.00 850.00 L 310.00 830.00 Z" stroke-width="1" id="303-10-01" stroke="black"/>
  <path fill="none" d="M 370.00 916.00 L 410.00 916.00 L 430.00 917.00 L 493.00 917.00 L 518.00 831.00 L 430.00 831.00 L 410.00 851.00 L 391.00 851.00 L 369.00 917.00 Z" stroke-width="1" id="303-10-02" stroke="black"/>
  <path fill="none" d="M 630.00 917.00 L 635.00 917.25 L 681.00 832.00 L 570.00 832.00 L 550.00 831.00 L 518.00 831.00 L 493.00 917.00 Z" stroke-width="1" id="303-10-03" stroke="black"/>
  <path fill="none" d="M 650.00 918.00 L 672.00 918.00 L 702.00 832.00 L 681.00 832.00 L 635.00 917.25 Z" stroke-width="1" id="303-10-04" stroke="black"/>
  <path fill="none" d="M 710.00 918.00 L 730.00 898.00 L 750.00 920.00 L 770.00 930.00 L 790.00 938.00 L 810.00 938.00 L 830.00 918.00 L 850.00 918.00 L 870.00 919.00 L 909.00 919.00 L 904.00 833.70 L 890.00 833.00 L 750.00 833.00 L 730.00 832.00 L 702.00 832.00 L 672.00 918.00 Z" stroke-width="1" id="303-10-05" stroke="black"/>
  <path fill="none" d="M 1052.00 919.00 L 1090.00 835.00 L 1070.00 834.00 L 910.00 834.00 L 904.00 833.70 L 909.00 919.00 Z" stroke-width="1" id="303-10-06" stroke="black"/>
  <path fill="none" d="M 1070.00 919.00 L 1090.00 920.00 L 1110.00 940.00 L 1170.00 940.00 L 1190.00 920.00 L 1290.00 920.00 L 1310.00 921.00 L 1412.00 921.00 L 1450.00 837.00 L 1430.00 836.00 L 1270.00 836.00 L 1250.00 835.00 L 1090.00 835.00 L 1052.00 919.00 Z" stroke-width="1" id="303-10-07" stroke="black"/>
  <path fill="none" d="M 1450.00 921.00 L 1470.00 941.00 L 1510.00 941.00 L 1530.00 922.00 L 1728.00 922.00 L 1756.00 838.00 L 1610.00 838.00 L 1590.00 837.00 L 1450.00 837.00 L 1412.00 921.00 Z" stroke-width="1" id="303-10-08" stroke="black"/>
  <path fill="none" d="M 1730.00 922.00 L 1750.00 923.00 L 1809.00 923.00 L 1838.00 839.00 L 1790.00 839.00 L 1770.00 838.00 L 1756.00 838.00 L 1728.00 922.00 Z" stroke-width="1" id="303-10-09" stroke="black"/>
  <path fill="none" d="M 1950.00 923.00 L 1959.76 923.49 L 1964.00 886.00 L 1966.88 839.84 L 1950.00 839.00 L 1910.00 839.00 L 1890.00 859.00 L 1870.00 839.00 L 1838.00 839.00 L 1809.00 923.00 Z" stroke-width="1" id="303-10-10" stroke="black"/>
  <path fill="none" d="M 236.34 916.00 L 238.00 960.00 L 227.00 976.00 L 233.00 988.00 L 233.88 1003.00 L 250.00 1003.00 L 270.00 1023.00 L 290.00 1028.00 L 310.00 1028.00 L 330.00 1003.00 L 595.00 1003.00 L 614.00 917.00 L 430.00 917.00 L 410.00 916.00 L 370.00 916.00 L 350.00 936.00 L 330.00 916.00 Z" stroke-width="1" id="303-11-01" stroke="black"/>
  <path fill="none" d="M 636.00 1003.00 L 657.00 918.00 L 650.00 918.00 L 630.00 917.00 L 614.00 917.00 L 595.00 1003.00 Z" stroke-width="1" id="303-11-02" stroke="black"/>
  <path fill="none" d="M 668.00 1003.00 L 751.00 920.50 L 750.00 920.00 L 730.00 898.00 L 710.00 918.00 L 657.00 918.00 L 636.00 1003.00 Z" stroke-width="1" id="303-11-03" stroke="black"/>
  <path fill="none" d="M 867.00 1003.00 L 894.00 919.00 L 870.00 919.00 L 850.00 918.00 L 830.00 918.00 L 810.00 938.00 L 790.00 938.00 L 770.00 930.00 L 751.00 920.50 L 668.00 1003.00 Z" stroke-width="1" id="303-11-04" stroke="black"/>
  <path fill="none" d="M 870.00 1003.00 L 890.00 1023.00 L 910.00 1023.00 L 930.00 1003.00 L 947.00 1003.00 L 1004.00 919.00 L 894.00 919.00 L 867.00 1003.00 Z" stroke-width="1" id="303-11-05" stroke="black"/>
  <path fill="none" d="M 1050.00 1003.00 L 1070.00 1002.00 L 1145.00 1002.00 L 1167.00 940.00 L 1110.00 940.00 L 1090.00 920.00 L 1070.00 919.00 L 1004.00 919.00 L 947.00 1003.00 Z" stroke-width="1" id="303-11-06" stroke="black"/>
  <path fill="none" d="M 1314.00 1002.00 L 1325.00 921.00 L 1310.00 921.00 L 1290.00 920.00 L 1190.00 920.00 L 1170.00 940.00 L 1167.00 940.00 L 1145.00 1002.00 Z" stroke-width="1" id="303-11-07" stroke="black"/>
  <path fill="none" d="M 1524.00 1002.00 L 1550.00 922.00 L 1530.00 922.00 L 1510.00 941.00 L 1470.00 941.00 L 1450.00 921.00 L 1325.00 921.00 L 1314.00 1002.00 Z" stroke-width="1" id="303-11-08" stroke="black"/>
  <path fill="none" d="M 1570.00 1002.00 L 1590.00 1022.00 L 1650.00 1022.00 L 1670.00 1002.00 L 1679.00 1002.00 L 1691.00 922.00 L 1550.00 922.00 L 1524.00 1002.00 Z" stroke-width="1" id="303-11-09" stroke="black"/>
  <path fill="none" d="M 1890.00 1002.00 L 1910.00 1001.00 L 1965.40 1001.00 L 1970.00 968.00 L 1958.00 939.00 L 1959.76 923.49 L 1950.00 923.00 L 1750.00 923.00 L 1730.00 922.00 L 1691.00 922.00 L 1679.00 1002.00 Z" stroke-width="1" id="303-11-10" stroke="black"/>
  <path fill="none" d="M 233.88 1003.00 L 237.00 1056.00 L 229.00 1068.00 L 234.00 1078.00 L 234.58 1086.00 L 316.58 1086.00 L 341.00 1003.00 L 330.00 1003.00 L 310.00 1028.00 L 290.00 1028.00 L 270.00 1023.00 L 250.00 1003.00 Z" stroke-width="1" id="303-12-01" stroke="black"/>
  <path fill="none" d="M 403.58 1086.00 L 419.00 1003.00 L 341.00 1003.00 L 316.58 1086.00 Z" stroke-width="1" id="303-12-02" stroke="black"/>
  <path fill="none" d="M 650.00 1086.00 L 670.00 1105.00 L 710.00 1105.00 L 730.00 1085.00 L 759.00 1085.00 L 792.00 1003.00 L 419.00 1003.00 L 403.58 1086.00 Z" stroke-width="1" id="303-12-03" stroke="black"/>
  <path fill="none" d="M 810.00 1085.00 L 830.00 1105.00 L 850.00 1125.00 L 870.00 1105.00 L 910.00 1105.00 L 930.00 1085.00 L 936.00 1085.00 L 958.00 1003.00 L 930.00 1003.00 L 910.00 1023.00 L 890.00 1023.00 L 870.00 1003.00 L 792.00 1003.00 L 759.00 1085.00 Z" stroke-width="1" id="303-12-04" stroke="black"/>
  <path fill="none" d="M 1089.00 1085.00 L 1140.00 1002.00 L 1070.00 1002.00 L 1050.00 1003.00 L 958.00 1003.00 L 936.00 1085.00 Z" stroke-width="1" id="303-12-05" stroke="black"/>
  <path fill="none" d="M 1090.00 1085.00 L 1110.00 1102.00 L 1130.00 1084.00 L 1270.00 1084.00 L 1290.00 1104.00 L 1310.00 1084.00 L 1401.00 1084.00 L 1456.00 1002.00 L 1140.00 1002.00 L 1089.00 1085.00 Z" stroke-width="1" id="303-12-06" stroke="black"/>
  <path fill="none" d="M 1457.91 1084.00 L 1462.00 1078.00 L 1584.00 1076.00 L 1594.00 1079.57 L 1626.00 1022.00 L 1590.00 1022.00 L 1570.00 1002.00 L 1456.00 1002.00 L 1401.00 1084.00 Z" stroke-width="1" id="303-12-07" stroke="black"/>
  <path fill="none" d="M 1603.60 1083.00 L 1626.61 1083.00 L 1702.61 1067.39 L 1707.00 1002.00 L 1670.00 1002.00 L 1650.00 1022.00 L 1626.00 1022.00 L 1594.00 1079.57 Z" stroke-width="1" id="303-12-08" stroke="black"/>
  <path fill="none" d="M 1724.00 1063.00 L 1818.00 1063.90 L 1821.00 1002.00 L 1707.00 1002.00 L 1702.61 1067.39 Z" stroke-width="1" id="303-12-09" stroke="black"/>
  <path fill="none" d="M 1829.00 1064.00 L 1845.00 1083.00 L 1906.00 1070.00 L 1960.00 1078.00 L 1980.00 1071.00 L 1983.00 1043.00 L 1964.00 1011.00 L 1965.40 1001.00 L 1910.00 1001.00 L 1890.00 1002.00 L 1821.00 1002.00 L 1818.00 1063.90 Z" stroke-width="1" id="303-12-10" stroke="black"/>
  <path fill="none" d="M 234.58 1086.00 L 238.00 1133.00 L 228.00 1152.00 L 240.00 1160.00 L 314.00 1161.44 L 340.00 1086.00 Z" stroke-width="1" id="303-13-01" stroke="black"/>
  <path fill="none" d="M 445.00 1164.00 L 469.00 1160.77 L 474.00 1086.00 L 340.00 1086.00 L 314.00 1161.44 Z" stroke-width="1" id="303-13-02" stroke="black"/>
  <path fill="none" d="M 497.00 1157.00 L 486.89 1191.00 L 525.25 1191.00 L 798.25 1170.13 L 827.00 1102.00 L 810.00 1085.00 L 730.00 1085.00 L 710.00 1105.00 L 670.00 1105.00 L 650.00 1086.00 L 474.00 1086.00 L 469.00 1160.77 Z" stroke-width="1" id="303-13-03" stroke="black"/>
  <path fill="none" d="M 800.00 1170.00 L 799.16 1171.00 L 830.00 1171.00 L 850.00 1191.00 L 934.00 1191.00 L 956.00 1085.00 L 930.00 1085.00 L 910.00 1105.00 L 870.00 1105.00 L 850.00 1125.00 L 830.00 1105.00 L 827.00 1102.00 L 798.25 1170.13 Z" stroke-width="1" id="303-13-04" stroke="black"/>
  <path fill="none" d="M 1007.00 1191.00 L 1052.00 1085.00 L 956.00 1085.00 L 934.00 1191.00 Z" stroke-width="1" id="303-13-05" stroke="black"/>
  <path fill="none" d="M 1091.00 1191.00 L 1140.00 1084.00 L 1130.00 1084.00 L 1110.00 1102.00 L 1090.00 1085.00 L 1052.00 1085.00 L 1007.00 1191.00 Z" stroke-width="1" id="303-13-06" stroke="black"/>
  <path fill="none" d="M 1170.00 1191.00 L 1190.00 1171.00 L 1210.00 1191.00 L 1423.00 1191.00 L 1444.00 1155.47 L 1432.00 1122.00 L 1457.91 1084.00 L 1310.00 1084.00 L 1290.00 1104.00 L 1270.00 1084.00 L 1140.00 1084.00 L 1091.00 1191.00 Z" stroke-width="1" id="303-13-07" stroke="black"/>
  <path fill="none" d="M 700.95 1256.00 L 730.00 1256.00 L 750.00 1255.00 L 790.00 1255.00 L 810.00 1275.00 L 830.00 1275.00 L 850.00 1255.00 L 1063.00 1255.00 L 1062.00 1191.00 L 850.00 1191.00 L 830.00 1171.00 L 799.16 1171.00 L 746.00 1234.00 Z" stroke-width="1" id="303-14-01" stroke="black"/>
  <path fill="none" d="M 1250.00 1255.00 L 1270.00 1254.00 L 1310.00 1254.00 L 1315.00 1264.00 L 1374.33 1191.00 L 1210.00 1191.00 L 1190.00 1171.00 L 1170.00 1191.00 L 1062.00 1191.00 L 1063.00 1255.00 Z" stroke-width="1" id="303-14-02" stroke="black"/>
  <path fill="none" d="M 1330.00 1294.00 L 1350.00 1274.00 L 1370.00 1254.00 L 1390.00 1254.00 L 1410.00 1282.00 L 1430.00 1278.00 L 1450.00 1274.00 L 1470.00 1274.00 L 1490.00 1254.00 L 1498.33 1191.00 L 1374.33 1191.00 L 1315.00 1264.00 Z" stroke-width="1" id="303-14-03" stroke="black"/>
  <path fill="none" d="M 1579.00 1254.00 L 1587.33 1191.00 L 1498.33 1191.00 L 1490.00 1254.00 Z" stroke-width="1" id="303-14-04" stroke="black"/>
  <path fill="none" d="M 1695.00 1254.00 L 1709.00 1194.72 L 1660.33 1191.00 L 1587.33 1191.00 L 1579.00 1254.00 Z" stroke-width="1" id="303-14-05" stroke="black"/>
  <path fill="none" d="M 1777.00 1254.00 L 1790.00 1202.23 L 1765.00 1199.00 L 1709.00 1194.72 L 1695.00 1254.00 Z" stroke-width="1" id="303-14-06" stroke="black"/>
  <path fill="none" d="M 1790.00 1254.00 L 1810.00 1253.00 L 1850.00 1253.00 L 1870.00 1273.00 L 1890.00 1273.00 L 1910.00 1253.00 L 1930.00 1273.00 L 1950.00 1253.00 L 1951.16 1253.00 L 1943.00 1222.00 L 1790.00 1202.23 L 1777.00 1254.00 Z" stroke-width="1" id="303-14-07" stroke="black"/>
  <path fill="none" d="M 227.00 1318.00 L 242.00 1338.00 L 242.48 1343.00 L 409.48 1343.00 L 452.00 1284.22 L 255.00 1292.00 Z" stroke-width="1" id="303-15-01" stroke="black"/>
  <path fill="none" d="M 410.00 1343.00 L 430.00 1383.00 L 450.00 1363.00 L 470.00 1363.00 L 490.00 1343.00 L 571.00 1343.00 L 614.00 1277.82 L 452.00 1284.22 L 409.48 1343.00 Z" stroke-width="1" id="303-15-02" stroke="black"/>
  <path fill="none" d="M 750.00 1343.00 L 770.00 1363.00 L 790.00 1363.00 L 810.00 1343.00 L 870.00 1343.00 L 890.00 1363.00 L 910.00 1363.00 L 930.00 1343.00 L 933.00 1255.00 L 850.00 1255.00 L 830.00 1275.00 L 810.00 1275.00 L 790.00 1255.00 L 750.00 1255.00 L 730.00 1256.00 L 700.95 1256.00 L 660.00 1276.00 L 614.00 1277.82 L 571.00 1343.00 Z" stroke-width="1" id="303-15-03" stroke="black"/>
  <path fill="none" d="M 988.00 1343.00 L 1044.00 1255.00 L 933.00 1255.00 L 930.00 1343.00 Z" stroke-width="1" id="303-15-04" stroke="black"/>
  <path fill="none" d="M 1238.00 1343.00 L 1276.00 1254.00 L 1270.00 1254.00 L 1250.00 1255.00 L 1044.00 1255.00 L 988.00 1343.00 Z" stroke-width="1" id="303-15-05" stroke="black"/>
  <path fill="none" d="M 1290.00 1343.00 L 1301.00 1354.00 L 1384.00 1254.00 L 1370.00 1254.00 L 1350.00 1274.00 L 1330.00 1294.00 L 1310.00 1254.00 L 1276.00 1254.00 L 1238.00 1343.00 Z" stroke-width="1" id="303-15-06" stroke="black"/>
  <path fill="none" d="M 1310.00 1363.00 L 1350.00 1363.00 L 1370.00 1343.00 L 1471.00 1343.00 L 1511.00 1254.00 L 1490.00 1254.00 L 1470.00 1274.00 L 1450.00 1274.00 L 1430.00 1278.00 L 1410.00 1282.00 L 1390.00 1254.00 L 1384.00 1254.00 L 1301.00 1354.00 Z" stroke-width="1" id="303-15-07" stroke="black"/>
  <path fill="none" d="M 1490.00 1343.00 L 1510.00 1363.00 L 1530.00 1343.00 L 1541.00 1354.00 L 1601.00 1254.00 L 1511.00 1254.00 L 1471.00 1343.00 Z" stroke-width="1" id="303-15-08" stroke="black"/>
  <path fill="none" d="M 1550.00 1363.00 L 1590.00 1363.00 L 1610.00 1343.00 L 1702.00 1343.00 L 1725.00 1254.00 L 1601.00 1254.00 L 1541.00 1354.00 Z" stroke-width="1" id="303-15-09" stroke="black"/>
  <path fill="none" d="M 1956.86 1343.00 L 1963.00 1298.00 L 1951.16 1253.00 L 1950.00 1253.00 L 1930.00 1273.00 L 1910.00 1253.00 L 1890.00 1273.00 L 1870.00 1273.00 L 1850.00 1253.00 L 1810.00 1253.00 L 1790.00 1254.00 L 1725.00 1254.00 L 1702.00 1343.00 Z" stroke-width="1" id="303-15-10" stroke="black"/>
  <path fill="none" d="M 242.48 1343.00 L 246.00 1380.00 L 230.00 1404.00 L 248.00 1416.00 L 246.37 1438.00 L 410.00 1438.00 L 430.00 1439.00 L 433.00 1442.00 L 502.00 1343.00 L 490.00 1343.00 L 470.00 1363.00 L 450.00 1363.00 L 430.00 1383.00 L 410.00 1343.00 Z" stroke-width="1" id="303-16-01" stroke="black"/>
  <path fill="none" d="M 450.00 1459.00 L 470.00 1439.00 L 576.00 1439.00 L 622.00 1343.00 L 502.00 1343.00 L 433.00 1442.00 Z" stroke-width="1" id="303-16-02" stroke="black"/>
  <path fill="none" d="M 630.00 1439.00 L 650.00 1440.00 L 670.00 1420.00 L 690.00 1440.00 L 703.00 1440.00 L 742.00 1343.00 L 622.00 1343.00 L 576.00 1439.00 Z" stroke-width="1" id="303-16-03" stroke="black"/>
  <path fill="none" d="M 785.00 1440.00 L 817.00 1343.00 L 810.00 1343.00 L 790.00 1363.00 L 770.00 1363.00 L 750.00 1343.00 L 742.00 1343.00 L 703.00 1440.00 Z" stroke-width="1" id="303-16-04" stroke="black"/>
  <path fill="none" d="M 830.00 1440.00 L 845.00 1440.75 L 885.00 1358.00 L 870.00 1343.00 L 817.00 1343.00 L 785.00 1440.00 Z" stroke-width="1" id="303-16-05" stroke="black"/>
  <path fill="none" d="M 850.00 1441.00 L 870.00 1441.00 L 890.00 1421.00 L 910.00 1441.00 L 1050.00 1441.00 L 1070.00 1442.00 L 1090.00 1442.00 L 1110.00 1462.00 L 1130.00 1442.00 L 1136.00 1442.00 L 1145.00 1343.00 L 930.00 1343.00 L 910.00 1363.00 L 890.00 1363.00 L 885.00 1358.00 L 845.00 1440.75 Z" stroke-width="1" id="303-16-06" stroke="black"/>
  <path fill="none" d="M 1270.00 1442.00 L 1290.00 1443.00 L 1422.00 1443.00 L 1449.00 1343.00 L 1370.00 1343.00 L 1350.00 1363.00 L 1310.00 1363.00 L 1290.00 1343.00 L 1145.00 1343.00 L 1136.00 1442.00 Z" stroke-width="1" id="303-16-07" stroke="black"/>
  <path fill="none" d="M 1470.00 1443.00 L 1490.00 1444.00 L 1506.00 1444.00 L 1552.00 1363.00 L 1550.00 1363.00 L 1530.00 1343.00 L 1510.00 1363.00 L 1490.00 1343.00 L 1449.00 1343.00 L 1422.00 1443.00 Z" stroke-width="1" id="303-16-08" stroke="black"/>
  <path fill="none" d="M 1690.00 1444.00 L 1710.00 1445.00 L 1805.00 1445.00 L 1819.86 1343.00 L 1610.00 1343.00 L 1590.00 1363.00 L 1552.00 1363.00 L 1506.00 1444.00 Z" stroke-width="1" id="303-16-09" stroke="black"/>
  <path fill="none" d="M 1890.00 1445.00 L 1910.00 1446.00 L 1957.66 1446.00 L 1972.00 1392.00 L 1954.00 1364.00 L 1956.86 1343.00 L 1819.86 1343.00 L 1805.00 1445.00 Z" stroke-width="1" id="303-16-10" stroke="black"/>
  <path fill="none" d="M 246.37 1438.00 L 244.00 1470.00 L 230.00 1496.00 L 256.00 1510.00 L 254.43 1517.00 L 359.43 1517.00 L 385.00 1438.00 Z" stroke-width="1" id="303-17-01" stroke="black"/>
  <path fill="none" d="M 430.00 1517.00 L 442.00 1517.60 L 450.00 1459.00 L 430.00 1439.00 L 410.00 1438.00 L 385.00 1438.00 L 359.43 1517.00 Z" stroke-width="1" id="303-17-02" stroke="black"/>
  <path fill="none" d="M 450.00 1518.00 L 650.00 1518.00 L 670.00 1519.00 L 750.00 1519.00 L 770.00 1539.00 L 790.00 1519.00 L 797.00 1519.00 L 815.00 1440.00 L 690.00 1440.00 L 670.00 1420.00 L 650.00 1440.00 L 630.00 1439.00 L 470.00 1439.00 L 450.00 1459.00 L 442.00 1517.60 Z" stroke-width="1" id="303-17-03" stroke="black"/>
  <path fill="none" d="M 836.00 1519.00 L 910.00 1441.00 L 890.00 1421.00 L 870.00 1441.00 L 850.00 1441.00 L 830.00 1440.00 L 815.00 1440.00 L 797.00 1519.00 Z" stroke-width="1" id="303-17-04" stroke="black"/>
  <path fill="none" d="M 870.00 1519.00 L 890.00 1520.00 L 1110.00 1520.00 L 1130.00 1521.00 L 1176.00 1442.00 L 1130.00 1442.00 L 1110.00 1462.00 L 1090.00 1442.00 L 1070.00 1442.00 L 1050.00 1441.00 L 910.00 1441.00 L 836.00 1519.00 Z" stroke-width="1" id="303-17-05" stroke="black"/>
  <path fill="none" d="M 1230.00 1521.00 L 1242.00 1533.00 L 1307.00 1443.00 L 1290.00 1443.00 L 1270.00 1442.00 L 1176.00 1442.00 L 1130.00 1521.00 Z" stroke-width="1" id="303-17-06" stroke="black"/>
  <path fill="none" d="M 1250.00 1541.00 L 1270.00 1541.00 L 1290.00 1521.00 L 1330.00 1521.00 L 1350.00 1522.00 L 1386.00 1522.00 L 1418.00 1443.00 L 1307.00 1443.00 L 1242.00 1533.00 Z" stroke-width="1" id="303-17-07" stroke="black"/>
  <path fill="none" d="M 1550.00 1522.00 L 1570.00 1523.00 L 1640.00 1523.00 L 1648.00 1444.00 L 1490.00 1444.00 L 1470.00 1443.00 L 1418.00 1443.00 L 1386.00 1522.00 Z" stroke-width="1" id="303-17-08" stroke="black"/>
  <path fill="none" d="M 1770.00 1523.00 L 1790.00 1524.00 L 1963.00 1524.00 L 1955.00 1484.00 L 1955.00 1456.00 L 1957.66 1446.00 L 1910.00 1446.00 L 1890.00 1445.00 L 1710.00 1445.00 L 1690.00 1444.00 L 1648.00 1444.00 L 1640.00 1523.00 Z" stroke-width="1" id="303-17-09" stroke="black"/>
  <path fill="none" d="M 254.43 1517.00 L 243.00 1568.00 L 243.57 1602.00 L 295.57 1602.00 L 324.00 1517.00 Z" stroke-width="1" id="303-18-01" stroke="black"/>
  <path fill="none" d="M 350.00 1602.00 L 370.00 1603.00 L 430.00 1603.00 L 440.00 1517.50 L 430.00 1517.00 L 324.00 1517.00 L 295.57 1602.00 Z" stroke-width="1" id="303-18-02" stroke="black"/>
  <path fill="none" d="M 450.00 1603.00 L 470.00 1614.00 L 510.00 1614.00 L 530.00 1616.00 L 550.00 1604.00 L 630.00 1604.00 L 642.00 1604.60 L 670.00 1519.00 L 650.00 1518.00 L 450.00 1518.00 L 440.00 1517.50 L 430.00 1603.00 Z" stroke-width="1" id="303-18-03" stroke="black"/>
  <path fill="none" d="M 650.00 1605.00 L 710.00 1605.00 L 730.00 1585.00 L 750.00 1605.00 L 790.00 1605.00 L 810.00 1606.00 L 830.00 1606.00 L 850.00 1586.00 L 864.00 1600.00 L 886.00 1519.80 L 870.00 1519.00 L 790.00 1519.00 L 770.00 1539.00 L 750.00 1519.00 L 670.00 1519.00 L 642.00 1604.60 Z" stroke-width="1" id="303-18-04" stroke="black"/>
  <path fill="none" d="M 870.00 1606.00 L 930.00 1606.00 L 950.00 1607.00 L 1033.00 1607.00 L 1095.00 1520.00 L 890.00 1520.00 L 886.00 1519.80 L 864.00 1600.00 Z" stroke-width="1" id="303-18-05" stroke="black"/>
  <path fill="none" d="M 1070.00 1607.00 L 1090.00 1608.00 L 1110.00 1608.00 L 1130.00 1612.00 L 1150.00 1608.00 L 1170.00 1588.00 L 1190.00 1608.00 L 1230.00 1608.00 L 1250.00 1609.00 L 1272.00 1609.00 L 1318.00 1521.00 L 1290.00 1521.00 L 1270.00 1541.00 L 1250.00 1541.00 L 1230.00 1521.00 L 1130.00 1521.00 L 1110.00 1520.00 L 1095.00 1520.00 L 1033.00 1607.00 Z" stroke-width="1" id="303-18-06" stroke="black"/>
  <path fill="none" d="M 1356.00 1609.00 L 1387.00 1522.00 L 1350.00 1522.00 L 1330.00 1521.00 L 1318.00 1521.00 L 1272.00 1609.00 Z" stroke-width="1" id="303-18-07" stroke="black"/>
  <path fill="none" d="M 1370.00 1609.00 L 1390.00 1610.00 L 1510.00 1610.00 L 1530.00 1611.00 L 1552.00 1611.00 L 1563.00 1522.65 L 1550.00 1522.00 L 1387.00 1522.00 L 1356.00 1609.00 Z" stroke-width="1" id="303-18-08" stroke="black"/>
  <path fill="none" d="M 1670.00 1611.00 L 1690.00 1612.00 L 1734.00 1612.00 L 1730.00 1523.00 L 1570.00 1523.00 L 1563.00 1522.65 L 1552.00 1611.00 Z" stroke-width="1" id="303-18-09" stroke="black"/>
  <path fill="none" d="M 1810.00 1612.00 L 1830.00 1613.00 L 1950.00 1613.00 L 1966.53 1613.83 L 1968.00 1582.00 L 1984.00 1570.00 L 1969.00 1554.00 L 1963.00 1524.00 L 1790.00 1524.00 L 1770.00 1523.00 L 1730.00 1523.00 L 1734.00 1612.00 Z" stroke-width="1" id="303-18-10" stroke="black"/>
  <path fill="none" d="M 243.57 1602.00 L 244.00 1628.00 L 232.00 1646.00 L 244.00 1674.00 L 244.00 1685.00 L 310.00 1685.00 L 330.00 1686.00 L 352.00 1686.00 L 382.00 1603.00 L 370.00 1603.00 L 350.00 1602.00 Z" stroke-width="1" id="303-19-01" stroke="black"/>
  <path fill="none" d="M 410.00 1686.00 L 430.00 1687.00 L 510.00 1687.00 L 530.00 1688.00 L 550.00 1688.00 L 560.00 1604.00 L 550.00 1604.00 L 530.00 1616.00 L 510.00 1614.00 L 470.00 1614.00 L 450.00 1603.00 L 382.00 1603.00 L 352.00 1686.00 Z" stroke-width="1" id="303-19-02" stroke="black"/>
  <path fill="none" d="M 830.00 1690.00 L 850.00 1691.00 L 950.00 1691.00 L 970.00 1692.00 L 1041.00 1692.00 L 1088.00 1607.90 L 1070.00 1607.00 L 950.00 1607.00 L 930.00 1606.00 L 870.00 1606.00 L 850.00 1586.00 L 830.00 1606.00 L 810.00 1606.00 L 790.00 1605.00 L 767.00 1605.00 L 756.00 1690.00 Z" stroke-width="1" id="303-19-03" stroke="black"/>
  <path fill="none" d="M 1050.00 1692.00 L 1070.00 1693.00 L 1130.00 1693.00 L 1150.00 1713.00 L 1170.00 1694.00 L 1250.00 1694.00 L 1270.00 1695.00 L 1364.00 1695.00 L 1377.00 1609.35 L 1370.00 1609.00 L 1250.00 1609.00 L 1230.00 1608.00 L 1190.00 1608.00 L 1170.00 1588.00 L 1150.00 1608.00 L 1130.00 1612.00 L 1110.00 1608.00 L 1090.00 1608.00 L 1088.00 1607.90 L 1041.00 1692.00 Z" stroke-width="1" id="303-19-04" stroke="black"/>
  <path fill="none" d="M 1370.00 1695.00 L 1390.00 1696.00 L 1458.00 1696.00 L 1468.00 1610.00 L 1390.00 1610.00 L 1377.00 1609.35 L 1364.00 1695.00 Z" stroke-width="1" id="303-19-05" stroke="black"/>
  <path fill="none" d="M 1470.00 1696.00 L 1490.00 1697.00 L 1545.00 1697.00 L 1554.00 1611.00 L 1530.00 1611.00 L 1510.00 1610.00 L 1468.00 1610.00 L 1458.00 1696.00 Z" stroke-width="1" id="303-19-06" stroke="black"/>
  <path fill="none" d="M 1570.00 1697.00 L 1590.00 1698.00 L 1681.00 1698.00 L 1692.00 1612.00 L 1690.00 1612.00 L 1670.00 1611.00 L 1554.00 1611.00 L 1545.00 1697.00 Z" stroke-width="1" id="303-19-07" stroke="black"/>
  <path fill="none" d="M 1690.00 1698.00 L 1710.00 1699.00 L 1790.00 1699.00 L 1810.00 1700.00 L 1871.00 1700.00 L 1861.00 1613.00 L 1830.00 1613.00 L 1810.00 1612.00 L 1692.00 1612.00 L 1681.00 1698.00 Z" stroke-width="1" id="303-19-08" stroke="black"/>
  <path fill="none" d="M 1890.00 1700.00 L 1910.00 1701.00 L 1969.33 1701.00 L 1982.00 1663.00 L 1965.00 1647.00 L 1966.53 1613.83 L 1950.00 1613.00 L 1861.00 1613.00 L 1871.00 1700.00 Z" stroke-width="1" id="303-19-09" stroke="black"/>
  <path fill="none" d="M 244.00 1685.00 L 244.00 1742.00 L 244.66 1767.00 L 290.00 1767.00 L 310.00 1768.00 L 390.00 1768.00 L 410.00 1769.00 L 470.00 1769.00 L 514.00 1687.20 L 510.00 1687.00 L 430.00 1687.00 L 410.00 1686.00 L 330.00 1686.00 L 310.00 1685.00 Z" stroke-width="1" id="303-20-01" stroke="black"/>
  <path fill="none" d="M 490.00 1769.00 L 510.00 1770.00 L 590.00 1770.00 L 609.00 1770.95 L 625.00 1688.00 L 530.00 1688.00 L 514.00 1687.20 L 470.00 1769.00 Z" stroke-width="1" id="303-20-02" stroke="black"/>
  <path fill="none" d="M 610.00 1771.00 L 690.00 1771.00 L 710.00 1772.00 L 790.00 1772.00 L 810.00 1773.00 L 890.00 1773.00 L 910.00 1774.00 L 990.00 1774.00 L 1010.00 1775.00 L 1069.00 1775.00 L 1099.00 1693.00 L 1070.00 1693.00 L 1050.00 1692.00 L 970.00 1692.00 L 950.00 1691.00 L 850.00 1691.00 L 830.00 1690.00 L 750.00 1690.00 L 730.00 1689.00 L 650.00 1689.00 L 630.00 1688.00 L 625.00 1688.00 L 609.00 1770.95 Z" stroke-width="1" id="303-20-03" stroke="black"/>
  <path fill="none" d="M 1090.00 1775.00 L 1102.00 1787.60 L 1229.00 1694.00 L 1170.00 1694.00 L 1150.00 1713.00 L 1130.00 1693.00 L 1099.00 1693.00 L 1069.00 1775.00 Z" stroke-width="1" id="303-20-04" stroke="black"/>
  <path fill="none" d="M 1110.00 1796.00 L 1170.00 1796.00 L 1190.00 1776.00 L 1210.00 1777.00 L 1263.00 1777.00 L 1253.00 1694.15 L 1250.00 1694.00 L 1229.00 1694.00 L 1102.00 1787.60 Z" stroke-width="1" id="303-20-05" stroke="black"/>
  <path fill="none" d="M 1290.00 1777.00 L 1310.00 1778.00 L 1330.00 1758.00 L 1335.00 1763.00 L 1386.00 1695.80 L 1370.00 1695.00 L 1270.00 1695.00 L 1253.00 1694.15 L 1263.00 1777.00 Z" stroke-width="1" id="303-20-06" stroke="black"/>
  <path fill="none" d="M 1350.00 1778.00 L 1390.00 1778.00 L 1410.00 1779.00 L 1484.00 1779.00 L 1495.00 1697.00 L 1490.00 1697.00 L 1470.00 1696.00 L 1390.00 1696.00 L 1386.00 1695.80 L 1335.00 1763.00 Z" stroke-width="1" id="303-20-07" stroke="black"/>
  <path fill="none" d="M 1490.00 1779.00 L 1510.00 1780.00 L 1590.00 1780.00 L 1610.00 1781.00 L 1682.00 1781.00 L 1729.00 1699.00 L 1710.00 1699.00 L 1690.00 1698.00 L 1590.00 1698.00 L 1570.00 1697.00 L 1495.00 1697.00 L 1484.00 1779.00 Z" stroke-width="1" id="303-20-08" stroke="black"/>
  <path fill="none" d="M 1690.00 1781.00 L 1710.00 1782.00 L 1790.00 1782.00 L 1810.00 1783.00 L 1838.00 1783.00 L 1847.00 1700.00 L 1810.00 1700.00 L 1790.00 1699.00 L 1729.00 1699.00 L 1682.00 1781.00 Z" stroke-width="1" id="303-20-09" stroke="black"/>
  <path fill="none" d="M 1890.00 1783.00 L 1910.00 1784.00 L 1967.09 1784.00 L 1966.00 1752.00 L 1964.00 1717.00 L 1969.33 1701.00 L 1910.00 1701.00 L 1890.00 1700.00 L 1847.00 1700.00 L 1838.00 1783.00 Z" stroke-width="1" id="303-20-10" stroke="black"/>
  <path fill="none" d="M 244.66 1767.00 L 246.00 1818.00 L 236.00 1836.00 L 249.00 1842.00 L 249.00 1856.00 L 310.00 1856.00 L 330.00 1857.00 L 418.00 1857.00 L 425.00 1769.00 L 410.00 1769.00 L 390.00 1768.00 L 310.00 1768.00 L 290.00 1767.00 Z" stroke-width="1" id="303-21-01" stroke="black"/>
  <path fill="none" d="M 430.00 1857.00 L 450.00 1858.00 L 550.00 1858.00 L 570.00 1859.00 L 670.00 1859.00 L 690.00 1860.00 L 757.00 1860.00 L 797.00 1772.35 L 790.00 1772.00 L 710.00 1772.00 L 690.00 1771.00 L 610.00 1771.00 L 590.00 1770.00 L 510.00 1770.00 L 490.00 1769.00 L 425.00 1769.00 L 418.00 1857.00 Z" stroke-width="1" id="303-21-02" stroke="black"/>
  <path fill="none" d="M 790.00 1860.00 L 810.00 1861.00 L 910.00 1861.00 L 912.00 1861.10 L 931.00 1774.00 L 910.00 1774.00 L 890.00 1773.00 L 810.00 1773.00 L 797.00 1772.35 L 757.00 1860.00 Z" stroke-width="1" id="303-21-03" stroke="black"/>
  <path fill="none" d="M 930.00 1862.00 L 1030.00 1862.00 L 1050.00 1863.00 L 1150.00 1863.00 L 1170.00 1864.00 L 1205.00 1864.00 L 1231.00 1777.00 L 1210.00 1777.00 L 1190.00 1776.00 L 1170.00 1796.00 L 1110.00 1796.00 L 1090.00 1775.00 L 1010.00 1775.00 L 990.00 1774.00 L 931.00 1774.00 L 912.00 1861.10 Z" stroke-width="1" id="303-21-04" stroke="black"/>
  <path fill="none" d="M 1259.00 1864.00 L 1344.00 1772.00 L 1330.00 1758.00 L 1310.00 1778.00 L 1290.00 1777.00 L 1231.00 1777.00 L 1205.00 1864.00 Z" stroke-width="1" id="303-21-05" stroke="black"/>
  <path fill="none" d="M 1270.00 1864.00 L 1290.00 1865.00 L 1390.00 1865.00 L 1410.00 1866.00 L 1425.00 1866.00 L 1459.00 1779.00 L 1410.00 1779.00 L 1390.00 1778.00 L 1350.00 1778.00 L 1344.00 1772.00 L 1259.00 1864.00 Z" stroke-width="1" id="303-21-06" stroke="black"/>
  <path fill="none" d="M 1510.00 1866.00 L 1530.00 1867.00 L 1597.00 1867.00 L 1622.00 1781.00 L 1610.00 1781.00 L 1590.00 1780.00 L 1510.00 1780.00 L 1490.00 1779.00 L 1459.00 1779.00 L 1425.00 1866.00 Z" stroke-width="1" id="303-21-07" stroke="black"/>
  <path fill="none" d="M 1630.00 1867.00 L 1650.00 1868.00 L 1670.00 1848.00 L 1690.00 1848.00 L 1710.00 1868.00 L 1730.00 1848.00 L 1750.00 1868.00 L 1770.00 1869.00 L 1795.00 1869.00 L 1773.00 1782.00 L 1710.00 1782.00 L 1690.00 1781.00 L 1622.00 1781.00 L 1597.00 1867.00 Z" stroke-width="1" id="303-21-08" stroke="black"/>
  <path fill="none" d="M 1867.00 1869.00 L 1898.00 1783.40 L 1890.00 1783.00 L 1810.00 1783.00 L 1790.00 1782.00 L 1773.00 1782.00 L 1795.00 1869.00 Z" stroke-width="1" id="303-21-09" stroke="black"/>
  <path fill="none" d="M 1870.00 1869.00 L 1890.00 1870.00 L 1968.09 1870.00 L 1969.00 1840.00 L 1967.09 1784.00 L 1910.00 1784.00 L 1898.00 1783.40 L 1867.00 1869.00 Z" stroke-width="1" id="303-21-10" stroke="black"/>
  <path fill="none" d="M 249.00 1856.00 L 249.00 1906.00 L 232.00 1938.00 L 233.33 1946.00 L 270.00 1946.00 L 290.00 1966.00 L 310.00 1966.00 L 330.00 1946.00 L 350.00 1946.00 L 364.00 1946.70 L 374.00 1857.00 L 330.00 1857.00 L 310.00 1856.00 Z" stroke-width="1" id="303-22-01" stroke="black"/>
  <path fill="none" d="M 370.00 1947.00 L 444.00 1947.00 L 506.00 1858.00 L 450.00 1858.00 L 430.00 1857.00 L 374.00 1857.00 L 364.00 1946.70 Z" stroke-width="1" id="303-22-02" stroke="black"/>
  <path fill="none" d="M 510.00 1947.00 L 530.00 1948.00 L 585.00 1948.00 L 619.00 1859.00 L 570.00 1859.00 L 550.00 1858.00 L 506.00 1858.00 L 444.00 1947.00 Z" stroke-width="1" id="303-22-03" stroke="black"/>
  <path fill="none" d="M 670.00 1948.00 L 690.00 1949.00 L 804.00 1949.00 L 854.00 1861.00 L 810.00 1861.00 L 790.00 1860.00 L 690.00 1860.00 L 670.00 1859.00 L 619.00 1859.00 L 585.00 1948.00 Z" stroke-width="1" id="303-22-04" stroke="black"/>
  <path fill="none" d="M 830.00 1949.00 L 850.00 1950.00 L 870.00 1970.00 L 890.00 1970.00 L 910.00 1966.00 L 930.00 1964.00 L 950.00 1950.00 L 970.00 1950.00 L 978.00 1950.40 L 1002.00 1862.00 L 930.00 1862.00 L 910.00 1861.00 L 854.00 1861.00 L 804.00 1949.00 Z" stroke-width="1" id="303-22-05" stroke="black"/>
  <path fill="none" d="M 990.00 1951.00 L 1130.00 1951.00 L 1150.00 1952.00 L 1217.00 1952.00 L 1250.00 1864.00 L 1170.00 1864.00 L 1150.00 1863.00 L 1050.00 1863.00 L 1030.00 1862.00 L 1002.00 1862.00 L 978.00 1950.40 Z" stroke-width="1" id="303-22-06" stroke="black"/>
  <path fill="none" d="M 1290.00 1952.00 L 1310.00 1953.00 L 1350.00 1953.00 L 1370.00 1964.00 L 1390.00 1962.00 L 1410.00 1962.00 L 1430.00 1953.00 L 1450.00 1953.00 L 1470.00 1954.00 L 1573.00 1954.00 L 1582.00 1867.00 L 1530.00 1867.00 L 1510.00 1866.00 L 1410.00 1866.00 L 1390.00 1865.00 L 1290.00 1865.00 L 1270.00 1864.00 L 1250.00 1864.00 L 1217.00 1952.00 Z" stroke-width="1" id="303-22-07" stroke="black"/>
  <path fill="none" d="M 1590.00 1954.00 L 1596.00 1954.30 L 1703.00 1861.00 L 1690.00 1848.00 L 1670.00 1848.00 L 1650.00 1868.00 L 1630.00 1867.00 L 1582.00 1867.00 L 1573.00 1954.00 Z" stroke-width="1" id="303-22-08" stroke="black"/>
  <path fill="none" d="M 1610.00 1955.00 L 1750.00 1955.00 L 1770.00 1956.00 L 1889.00 1956.00 L 1892.09 1870.00 L 1890.00 1870.00 L 1870.00 1869.00 L 1770.00 1869.00 L 1750.00 1868.00 L 1730.00 1848.00 L 1710.00 1868.00 L 1703.00 1861.00 L 1596.00 1954.30 Z" stroke-width="1" id="303-22-09" stroke="black"/>
  <path fill="none" d="M 1910.00 1956.00 L 1930.00 1957.00 L 1969.71 1957.00 L 1975.00 1916.00 L 1968.00 1873.00 L 1968.09 1870.00 L 1892.09 1870.00 L 1889.00 1956.00 Z" stroke-width="1" id="303-22-10" stroke="black"/>
  <path fill="none" d="M 233.33 1946.00 L 234.00 1950.00 L 250.00 1948.00 L 252.00 1988.00 L 236.00 2004.00 L 254.00 2014.00 L 253.65 2030.00 L 309.65 2030.00 L 327.00 1949.00 L 310.00 1966.00 L 290.00 1966.00 L 270.00 1946.00 Z" stroke-width="1" id="303-23-01" stroke="black"/>
  <path fill="none" d="M 390.00 2030.00 L 410.00 2031.00 L 570.00 2031.00 L 580.00 2031.50 L 638.00 1948.00 L 530.00 1948.00 L 510.00 1947.00 L 370.00 1947.00 L 350.00 1946.00 L 330.00 1946.00 L 327.00 1949.00 L 309.65 2030.00 Z" stroke-width="1" id="303-23-02" stroke="black"/>
  <path fill="none" d="M 590.00 2032.00 L 689.00 2032.00 L 708.00 1949.00 L 690.00 1949.00 L 670.00 1948.00 L 638.00 1948.00 L 580.00 2031.50 Z" stroke-width="1" id="303-23-03" stroke="black"/>
  <path fill="none" d="M 750.00 2032.00 L 770.00 2033.00 L 870.00 2033.00 L 890.00 2013.00 L 910.00 2013.00 L 930.00 2053.00 L 950.00 2054.00 L 970.00 2034.00 L 990.00 2034.00 L 1010.00 2054.00 L 1030.00 2034.00 L 1035.00 2034.00 L 1055.00 1951.00 L 990.00 1951.00 L 970.00 1950.00 L 950.00 1950.00 L 930.00 1964.00 L 910.00 1966.00 L 890.00 1970.00 L 870.00 1970.00 L 850.00 1950.00 L 830.00 1949.00 L 708.00 1949.00 L 689.00 2032.00 Z" stroke-width="1" id="303-23-04" stroke="black"/>
  <path fill="none" d="M 1110.00 2034.00 L 1130.00 2035.00 L 1147.00 2035.00 L 1158.00 1952.00 L 1150.00 1952.00 L 1130.00 1951.00 L 1055.00 1951.00 L 1035.00 2034.00 Z" stroke-width="1" id="303-23-05" stroke="black"/>
  <path fill="none" d="M 1230.00 2035.00 L 1250.00 2055.00 L 1290.00 2055.00 L 1310.00 2036.00 L 1416.00 2036.00 L 1464.00 1953.70 L 1450.00 1953.00 L 1430.00 1953.00 L 1410.00 1962.00 L 1390.00 1962.00 L 1370.00 1964.00 L 1350.00 1953.00 L 1310.00 1953.00 L 1290.00 1952.00 L 1158.00 1952.00 L 1147.00 2035.00 Z" stroke-width="1" id="303-23-06" stroke="black"/>
  <path fill="none" d="M 1470.00 2036.00 L 1490.00 2037.00 L 1530.00 2037.00 L 1564.00 1954.00 L 1470.00 1954.00 L 1464.00 1953.70 L 1416.00 2036.00 Z" stroke-width="1" id="303-23-07" stroke="black"/>
  <path fill="none" d="M 1550.00 2057.00 L 1570.00 2057.00 L 1590.00 2037.00 L 1650.00 2037.00 L 1670.00 2038.00 L 1776.00 2038.00 L 1819.00 1956.00 L 1770.00 1956.00 L 1750.00 1955.00 L 1610.00 1955.00 L 1590.00 1954.00 L 1564.00 1954.00 L 1530.00 2037.00 Z" stroke-width="1" id="303-23-08" stroke="black"/>
  <path fill="none" d="M 1830.00 2038.00 L 1850.00 2039.00 L 1967.24 2039.00 L 1974.00 2014.00 L 1967.00 1978.00 L 1969.71 1957.00 L 1930.00 1957.00 L 1910.00 1956.00 L 1819.00 1956.00 L 1776.00 2038.00 Z" stroke-width="1" id="303-23-09" stroke="black"/>
  <path fill="none" d="M 253.65 2030.00 L 253.00 2060.00 L 242.00 2072.00 L 242.00 2094.00 L 258.00 2097.00 L 257.03 2112.00 L 270.00 2112.00 L 290.00 2113.00 L 350.00 2113.00 L 367.00 2113.85 L 352.00 2030.00 Z" stroke-width="1" id="303-24-01" stroke="black"/>
  <path fill="none" d="M 370.00 2114.00 L 390.00 2134.00 L 430.00 2134.00 L 450.00 2115.00 L 510.00 2115.00 L 530.00 2116.00 L 550.00 2136.00 L 570.00 2156.00 L 590.00 2136.00 L 610.00 2117.00 L 651.00 2117.00 L 655.00 2032.00 L 590.00 2032.00 L 570.00 2031.00 L 410.00 2031.00 L 390.00 2030.00 L 352.00 2030.00 L 367.00 2113.85 Z" stroke-width="1" id="303-24-02" stroke="black"/>
  <path fill="none" d="M 810.00 2119.00 L 830.00 2139.00 L 833.00 2142.15 L 930.00 2053.00 L 910.00 2013.00 L 890.00 2013.00 L 870.00 2033.00 L 788.00 2033.00 L 784.00 2119.00 Z" stroke-width="1" id="303-24-03" stroke="black"/>
  <path fill="none" d="M 850.00 2160.00 L 890.00 2160.00 L 910.00 2140.00 L 930.00 2121.00 L 990.00 2121.00 L 1010.00 2122.00 L 1070.00 2122.00 L 1075.00 2122.25 L 1095.00 2034.00 L 1030.00 2034.00 L 1010.00 2054.00 L 990.00 2034.00 L 970.00 2034.00 L 950.00 2054.00 L 930.00 2053.00 L 833.00 2142.15 Z" stroke-width="1" id="303-24-04" stroke="black"/>
  <path fill="none" d="M 1090.00 2123.00 L 1150.00 2123.00 L 1170.00 2124.00 L 1230.00 2124.00 L 1250.00 2125.00 L 1310.00 2125.00 L 1330.00 2126.00 L 1332.00 2126.00 L 1304.00 2041.70 L 1290.00 2055.00 L 1250.00 2055.00 L 1230.00 2035.00 L 1130.00 2035.00 L 1110.00 2034.00 L 1095.00 2034.00 L 1075.00 2122.25 Z" stroke-width="1" id="303-24-05" stroke="black"/>
  <path fill="none" d="M 1370.00 2126.00 L 1390.00 2127.00 L 1450.00 2127.00 L 1470.00 2128.00 L 1530.00 2128.00 L 1540.00 2128.50 L 1610.00 2037.00 L 1590.00 2037.00 L 1570.00 2057.00 L 1550.00 2057.00 L 1530.00 2037.00 L 1490.00 2037.00 L 1470.00 2036.00 L 1310.00 2036.00 L 1304.00 2041.70 L 1332.00 2126.00 Z" stroke-width="1" id="303-24-06" stroke="black"/>
  <path fill="none" d="M 1550.00 2129.00 L 1610.00 2129.00 L 1630.00 2130.00 L 1650.00 2150.00 L 1670.00 2130.00 L 1690.00 2130.00 L 1710.00 2131.00 L 1770.00 2131.00 L 1777.00 2131.35 L 1778.00 2038.00 L 1670.00 2038.00 L 1650.00 2037.00 L 1610.00 2037.00 L 1540.00 2128.50 Z" stroke-width="1" id="303-24-07" stroke="black"/>
  <path fill="none" d="M 1790.00 2132.00 L 1850.00 2132.00 L 1853.00 2132.15 L 1875.24 2039.00 L 1850.00 2039.00 L 1830.00 2038.00 L 1778.00 2038.00 L 1777.00 2131.35 Z" stroke-width="1" id="303-24-08" stroke="black"/>
  <path fill="none" d="M 1870.00 2133.00 L 1930.00 2133.00 L 1950.00 2134.00 L 1967.14 2134.00 L 1970.00 2096.00 L 1964.00 2051.00 L 1967.24 2039.00 L 1875.24 2039.00 L 1853.00 2132.15 Z" stroke-width="1" id="303-24-09" stroke="black"/>
  <path fill="none" d="M 257.03 2112.00 L 254.00 2159.00 L 240.00 2172.00 L 260.00 2184.00 L 259.18 2202.46 L 270.00 2203.00 L 310.00 2203.00 L 330.00 2204.00 L 370.00 2204.00 L 376.00 2204.30 L 390.00 2134.00 L 370.00 2114.00 L 350.00 2113.00 L 290.00 2113.00 L 270.00 2112.00 Z" stroke-width="1" id="303-25-01" stroke="black"/>
  <path fill="none" d="M 390.00 2205.00 L 430.00 2205.00 L 450.00 2206.00 L 490.00 2206.00 L 506.00 2206.80 L 553.00 2139.00 L 550.00 2136.00 L 530.00 2116.00 L 510.00 2115.00 L 450.00 2115.00 L 430.00 2134.00 L 390.00 2134.00 L 376.00 2204.30 Z" stroke-width="1" id="303-25-02" stroke="black"/>
  <path fill="none" d="M 510.00 2207.00 L 550.00 2207.00 L 570.00 2208.00 L 610.00 2208.00 L 630.00 2209.00 L 670.00 2209.00 L 690.00 2210.00 L 698.00 2210.00 L 745.00 2118.00 L 690.00 2118.00 L 670.00 2117.00 L 610.00 2117.00 L 590.00 2136.00 L 570.00 2156.00 L 553.00 2139.00 L 506.00 2206.80 Z" stroke-width="1" id="303-25-03" stroke="black"/>
  <path fill="none" d="M 730.00 2210.00 L 750.00 2211.00 L 790.00 2211.00 L 803.00 2211.65 L 844.00 2153.70 L 830.00 2139.00 L 810.00 2119.00 L 770.00 2119.00 L 750.00 2118.00 L 745.00 2118.00 L 698.00 2210.00 Z" stroke-width="1" id="303-25-04" stroke="black"/>
  <path fill="none" d="M 810.00 2212.00 L 830.00 2212.00 L 850.00 2232.00 L 870.00 2233.00 L 890.00 2233.00 L 910.00 2213.00 L 930.00 2214.00 L 970.00 2214.00 L 990.00 2215.00 L 1030.00 2215.00 L 1050.00 2216.00 L 1070.00 2216.00 L 1090.00 2236.00 L 1110.00 2237.00 L 1130.00 2217.00 L 1150.00 2217.00 L 1153.00 2217.15 L 1196.00 2124.00 L 1170.00 2124.00 L 1150.00 2123.00 L 1090.00 2123.00 L 1070.00 2122.00 L 1010.00 2122.00 L 990.00 2121.00 L 930.00 2121.00 L 910.00 2140.00 L 890.00 2160.00 L 850.00 2160.00 L 844.00 2153.70 L 803.00 2211.65 Z" stroke-width="1" id="303-25-05" stroke="black"/>
  <path fill="none" d="M 1170.00 2218.00 L 1210.00 2218.00 L 1230.00 2219.00 L 1270.00 2219.00 L 1282.00 2219.60 L 1307.00 2125.00 L 1250.00 2125.00 L 1230.00 2124.00 L 1196.00 2124.00 L 1153.00 2217.15 Z" stroke-width="1" id="303-25-06" stroke="black"/>
  <path fill="none" d="M 1290.00 2220.00 L 1330.00 2220.00 L 1350.00 2221.00 L 1390.00 2221.00 L 1410.00 2222.00 L 1450.00 2222.00 L 1470.00 2223.00 L 1510.00 2223.00 L 1530.00 2224.00 L 1570.00 2224.00 L 1590.00 2225.00 L 1630.00 2225.00 L 1650.00 2226.00 L 1690.00 2226.00 L 1710.00 2227.00 L 1741.00 2227.00 L 1756.00 2131.00 L 1710.00 2131.00 L 1690.00 2130.00 L 1670.00 2130.00 L 1650.00 2150.00 L 1630.00 2130.00 L 1610.00 2129.00 L 1550.00 2129.00 L 1530.00 2128.00 L 1470.00 2128.00 L 1450.00 2127.00 L 1390.00 2127.00 L 1370.00 2126.00 L 1330.00 2126.00 L 1310.00 2125.00 L 1307.00 2125.00 L 1282.00 2219.60 Z" stroke-width="1" id="303-25-07" stroke="black"/>
  <path fill="none" d="M 1750.00 2227.00 L 1770.00 2228.00 L 1810.00 2228.00 L 1830.00 2229.00 L 1870.00 2229.00 L 1890.00 2230.00 L 1930.00 2230.00 L 1950.00 2231.00 L 1962.16 2231.00 L 1963.00 2189.00 L 1967.14 2134.00 L 1950.00 2134.00 L 1930.00 2133.00 L 1870.00 2133.00 L 1850.00 2132.00 L 1790.00 2132.00 L 1770.00 2131.00 L 1756.00 2131.00 L 1741.00 2227.00 Z" stroke-width="1" id="303-25-08" stroke="black"/>
  <path fill="none" d="M 259.18 2202.46 L 258.00 2229.00 L 247.00 2240.00 L 254.00 2245.00 L 244.00 2260.00 L 258.00 2268.00 L 257.26 2292.00 L 270.00 2292.00 L 290.00 2293.00 L 330.00 2293.00 L 350.00 2294.00 L 352.00 2294.00 L 383.00 2204.65 L 370.00 2204.00 L 330.00 2204.00 L 310.00 2203.00 L 270.00 2203.00 Z" stroke-width="1" id="303-26-01" stroke="black"/>
  <path fill="none" d="M 390.00 2294.00 L 410.00 2295.00 L 470.00 2295.00 L 490.00 2296.00 L 510.00 2296.00 L 530.00 2276.00 L 550.00 2277.00 L 613.00 2208.15 L 610.00 2208.00 L 570.00 2208.00 L 550.00 2207.00 L 510.00 2207.00 L 490.00 2206.00 L 450.00 2206.00 L 430.00 2205.00 L 390.00 2205.00 L 383.00 2204.65 L 352.00 2294.00 Z" stroke-width="1" id="303-26-02" stroke="black"/>
  <path fill="none" d="M 570.00 2297.00 L 590.00 2297.00 L 610.00 2318.00 L 630.00 2298.00 L 650.00 2298.00 L 670.00 2299.00 L 730.00 2299.00 L 750.00 2300.00 L 790.00 2300.00 L 810.00 2301.00 L 844.00 2301.00 L 881.00 2233.00 L 870.00 2233.00 L 850.00 2232.00 L 830.00 2212.00 L 810.00 2212.00 L 790.00 2211.00 L 750.00 2211.00 L 730.00 2210.00 L 690.00 2210.00 L 670.00 2209.00 L 630.00 2209.00 L 613.00 2208.15 L 550.00 2277.00 Z" stroke-width="1" id="303-26-03" stroke="black"/>
  <path fill="none" d="M 850.00 2301.00 L 870.00 2302.00 L 930.00 2302.00 L 950.00 2303.00 L 990.00 2303.00 L 1010.00 2304.00 L 1050.00 2304.00 L 1070.00 2305.00 L 1090.00 2305.00 L 1110.00 2285.00 L 1130.00 2306.00 L 1170.00 2306.00 L 1190.00 2326.00 L 1210.00 2307.00 L 1246.00 2307.00 L 1292.00 2220.00 L 1290.00 2220.00 L 1270.00 2219.00 L 1230.00 2219.00 L 1210.00 2218.00 L 1170.00 2218.00 L 1150.00 2217.00 L 1130.00 2217.00 L 1110.00 2237.00 L 1090.00 2236.00 L 1070.00 2216.00 L 1050.00 2216.00 L 1030.00 2215.00 L 990.00 2215.00 L 970.00 2214.00 L 930.00 2214.00 L 910.00 2213.00 L 890.00 2233.00 L 881.00 2233.00 L 844.00 2301.00 Z" stroke-width="1" id="303-26-04" stroke="black"/>
  <path fill="none" d="M 1250.00 2307.00 L 1270.00 2308.00 L 1310.00 2308.00 L 1330.00 2309.00 L 1350.00 2289.00 L 1370.00 2309.00 L 1390.00 2309.00 L 1410.00 2310.00 L 1450.00 2310.00 L 1463.00 2310.65 L 1457.00 2222.35 L 1450.00 2222.00 L 1410.00 2222.00 L 1390.00 2221.00 L 1350.00 2221.00 L 1330.00 2220.00 L 1292.00 2220.00 L 1246.00 2307.00 Z" stroke-width="1" id="303-26-05" stroke="black"/>
  <path fill="none" d="M 1470.00 2311.00 L 1490.00 2291.00 L 1510.00 2311.00 L 1530.00 2312.00 L 1551.00 2312.00 L 1558.00 2224.00 L 1530.00 2224.00 L 1510.00 2223.00 L 1470.00 2223.00 L 1457.00 2222.35 L 1463.00 2310.65 Z" stroke-width="1" id="303-26-06" stroke="black"/>
  <path fill="none" d="M 1570.00 2312.00 L 1590.00 2313.00 L 1612.00 2313.00 L 1674.00 2226.00 L 1650.00 2226.00 L 1630.00 2225.00 L 1590.00 2225.00 L 1570.00 2224.00 L 1558.00 2224.00 L 1551.00 2312.00 Z" stroke-width="1" id="303-26-07" stroke="black"/>
  <path fill="none" d="M 1650.00 2313.00 L 1670.00 2314.00 L 1710.00 2314.00 L 1730.00 2315.00 L 1770.00 2315.00 L 1790.00 2316.00 L 1850.00 2316.00 L 1870.00 2317.00 L 1910.00 2317.00 L 1930.00 2318.00 L 1935.96 2318.00 L 1960.00 2269.00 L 1962.00 2239.00 L 1962.16 2231.00 L 1950.00 2231.00 L 1930.00 2230.00 L 1890.00 2230.00 L 1870.00 2229.00 L 1830.00 2229.00 L 1810.00 2228.00 L 1770.00 2228.00 L 1750.00 2227.00 L 1710.00 2227.00 L 1690.00 2226.00 L 1674.00 2226.00 L 1612.00 2313.00 Z" stroke-width="1" id="303-26-08" stroke="black"/>
  <path fill="none" d="M 257.26 2292.00 L 256.00 2333.00 L 243.00 2346.00 L 260.00 2355.00 L 258.32 2384.00 L 270.00 2384.00 L 290.00 2385.00 L 310.00 2385.00 L 330.00 2405.00 L 350.00 2406.00 L 370.00 2386.00 L 410.00 2386.00 L 422.00 2386.60 L 449.00 2295.00 L 410.00 2295.00 L 390.00 2294.00 L 350.00 2294.00 L 330.00 2293.00 L 290.00 2293.00 L 270.00 2292.00 Z" stroke-width="1" id="303-27-01" stroke="black"/>
  <path fill="none" d="M 430.00 2387.00 L 470.00 2387.00 L 490.00 2388.00 L 550.00 2388.00 L 570.00 2389.00 L 610.00 2389.00 L 630.00 2390.00 L 670.00 2390.00 L 690.00 2410.00 L 710.00 2391.00 L 750.00 2391.00 L 752.00 2391.10 L 802.00 2300.60 L 790.00 2300.00 L 750.00 2300.00 L 730.00 2299.00 L 670.00 2299.00 L 650.00 2298.00 L 630.00 2298.00 L 610.00 2318.00 L 590.00 2297.00 L 570.00 2297.00 L 550.00 2277.00 L 530.00 2276.00 L 510.00 2296.00 L 490.00 2296.00 L 470.00 2295.00 L 449.00 2295.00 L 422.00 2386.60 Z" stroke-width="1" id="303-27-02" stroke="black"/>
  <path fill="none" d="M 770.00 2392.00 L 830.00 2392.00 L 850.00 2393.00 L 868.00 2393.00 L 904.00 2302.00 L 870.00 2302.00 L 850.00 2301.00 L 810.00 2301.00 L 802.00 2300.60 L 752.00 2391.10 Z" stroke-width="1" id="303-27-03" stroke="black"/>
  <path fill="none" d="M 890.00 2393.00 L 910.00 2394.00 L 970.00 2394.00 L 990.00 2395.00 L 1030.00 2395.00 L 1050.00 2396.00 L 1070.00 2396.00 L 1148.00 2306.00 L 1130.00 2306.00 L 1110.00 2285.00 L 1090.00 2305.00 L 1070.00 2305.00 L 1050.00 2304.00 L 1010.00 2304.00 L 990.00 2303.00 L 950.00 2303.00 L 930.00 2302.00 L 904.00 2302.00 L 868.00 2393.00 Z" stroke-width="1" id="303-27-04" stroke="black"/>
  <path fill="none" d="M 1090.00 2396.00 L 1110.00 2397.00 L 1170.00 2397.00 L 1190.00 2398.00 L 1230.00 2398.00 L 1250.00 2399.00 L 1310.00 2399.00 L 1330.00 2400.00 L 1371.00 2309.00 L 1370.00 2309.00 L 1350.00 2289.00 L 1330.00 2309.00 L 1310.00 2308.00 L 1270.00 2308.00 L 1250.00 2307.00 L 1210.00 2307.00 L 1190.00 2326.00 L 1170.00 2306.00 L 1148.00 2306.00 L 1070.00 2396.00 Z" stroke-width="1" id="303-27-05" stroke="black"/>
  <path fill="none" d="M 1370.00 2400.00 L 1390.00 2401.00 L 1450.00 2401.00 L 1470.00 2402.00 L 1490.00 2402.00 L 1510.00 2382.00 L 1530.00 2383.00 L 1550.00 2403.00 L 1590.00 2403.00 L 1610.00 2404.00 L 1616.00 2404.00 L 1644.00 2313.00 L 1590.00 2313.00 L 1570.00 2312.00 L 1530.00 2312.00 L 1510.00 2311.00 L 1490.00 2291.00 L 1470.00 2311.00 L 1450.00 2310.00 L 1410.00 2310.00 L 1390.00 2309.00 L 1371.00 2309.00 L 1330.00 2400.00 Z" stroke-width="1" id="303-27-06" stroke="black"/>
  <path fill="none" d="M 1650.00 2404.00 L 1670.00 2405.00 L 1690.00 2405.00 L 1710.00 2385.00 L 1730.00 2405.00 L 1750.00 2406.00 L 1790.00 2406.00 L 1810.00 2407.00 L 1821.00 2407.00 L 1840.00 2316.00 L 1790.00 2316.00 L 1770.00 2315.00 L 1730.00 2315.00 L 1710.00 2314.00 L 1670.00 2314.00 L 1650.00 2313.00 L 1644.00 2313.00 L 1616.00 2404.00 Z" stroke-width="1" id="303-27-07" stroke="black"/>
  <path fill="none" d="M 1850.00 2407.00 L 1870.00 2408.00 L 1930.00 2408.00 L 1950.00 2409.00 L 1969.45 2409.00 L 1946.00 2363.00 L 1934.00 2322.00 L 1935.96 2318.00 L 1930.00 2318.00 L 1910.00 2317.00 L 1870.00 2317.00 L 1850.00 2316.00 L 1840.00 2316.00 L 1821.00 2407.00 Z" stroke-width="1" id="303-27-08" stroke="black"/>
  <path fill="none" d="M 258.32 2384.00 L 256.00 2424.00 L 237.00 2461.00 L 243.00 2465.00 L 250.00 2465.00 L 270.00 2466.00 L 310.00 2466.00 L 330.00 2467.00 L 370.00 2467.00 L 390.00 2468.00 L 430.00 2468.00 L 450.00 2469.00 L 460.00 2469.00 L 467.00 2387.00 L 430.00 2387.00 L 410.00 2386.00 L 370.00 2386.00 L 350.00 2406.00 L 330.00 2405.00 L 310.00 2385.00 L 290.00 2385.00 L 270.00 2384.00 Z" stroke-width="1" id="303-28-01" stroke="black"/>
  <path fill="none" d="M 490.00 2469.00 L 510.00 2470.00 L 530.00 2470.00 L 550.00 2471.00 L 590.00 2471.00 L 610.00 2472.00 L 646.00 2472.00 L 653.00 2390.00 L 630.00 2390.00 L 610.00 2389.00 L 570.00 2389.00 L 550.00 2388.00 L 490.00 2388.00 L 470.00 2387.00 L 467.00 2387.00 L 460.00 2469.00 Z" stroke-width="1" id="303-28-02" stroke="black"/>
  <path fill="none" d="M 650.00 2472.00 L 670.00 2473.00 L 710.00 2473.00 L 730.00 2474.00 L 770.00 2474.00 L 790.00 2475.00 L 830.00 2475.00 L 850.00 2476.00 L 870.00 2476.00 L 890.00 2477.00 L 919.00 2477.00 L 954.00 2394.00 L 910.00 2394.00 L 890.00 2393.00 L 850.00 2393.00 L 830.00 2392.00 L 770.00 2392.00 L 750.00 2391.00 L 710.00 2391.00 L 690.00 2410.00 L 670.00 2390.00 L 653.00 2390.00 L 646.00 2472.00 Z" stroke-width="1" id="303-28-03" stroke="black"/>
  <path fill="none" d="M 930.00 2477.00 L 950.00 2478.00 L 990.00 2478.00 L 1010.00 2479.00 L 1050.00 2479.00 L 1070.00 2480.00 L 1110.00 2480.00 L 1130.00 2481.00 L 1150.00 2481.00 L 1170.00 2482.00 L 1190.00 2482.00 L 1210.00 2462.00 L 1230.00 2463.00 L 1250.00 2483.00 L 1270.00 2463.00 L 1290.00 2484.00 L 1317.00 2484.00 L 1353.00 2400.00 L 1330.00 2400.00 L 1310.00 2399.00 L 1250.00 2399.00 L 1230.00 2398.00 L 1190.00 2398.00 L 1170.00 2397.00 L 1110.00 2397.00 L 1090.00 2396.00 L 1050.00 2396.00 L 1030.00 2395.00 L 990.00 2395.00 L 970.00 2394.00 L 954.00 2394.00 L 919.00 2477.00 Z" stroke-width="1" id="303-28-04" stroke="black"/>
  <path fill="none" d="M 1330.00 2484.00 L 1350.00 2485.00 L 1370.00 2465.00 L 1390.00 2485.00 L 1410.00 2486.00 L 1450.00 2486.00 L 1470.00 2487.00 L 1490.00 2487.00 L 1498.00 2487.40 L 1554.00 2403.00 L 1550.00 2403.00 L 1530.00 2383.00 L 1510.00 2382.00 L 1490.00 2402.00 L 1470.00 2402.00 L 1450.00 2401.00 L 1390.00 2401.00 L 1370.00 2400.00 L 1353.00 2400.00 L 1317.00 2484.00 Z" stroke-width="1" id="303-28-05" stroke="black"/>
  <path fill="none" d="M 1510.00 2488.00 L 1550.00 2488.00 L 1570.00 2489.00 L 1610.00 2489.00 L 1615.00 2489.25 L 1639.00 2404.00 L 1610.00 2404.00 L 1590.00 2403.00 L 1554.00 2403.00 L 1498.00 2487.40 Z" stroke-width="1" id="303-28-06" stroke="black"/>
  <path fill="none" d="M 1630.00 2490.00 L 1670.00 2490.00 L 1690.00 2491.00 L 1730.00 2491.00 L 1750.00 2492.00 L 1770.00 2492.00 L 1772.00 2492.10 L 1789.00 2406.00 L 1750.00 2406.00 L 1730.00 2405.00 L 1710.00 2385.00 L 1690.00 2405.00 L 1670.00 2405.00 L 1650.00 2404.00 L 1639.00 2404.00 L 1615.00 2489.25 Z" stroke-width="1" id="303-28-07" stroke="black"/>
  <path fill="none" d="M 1790.00 2493.00 L 1830.00 2493.00 L 1843.00 2493.65 L 1866.00 2407.80 L 1850.00 2407.00 L 1810.00 2407.00 L 1790.00 2406.00 L 1789.00 2406.00 L 1772.00 2492.10 Z" stroke-width="1" id="303-28-08" stroke="black"/>
  <path fill="none" d="M 1850.00 2494.00 L 1890.00 2494.00 L 1910.00 2495.00 L 1950.00 2495.00 L 1955.57 2495.28 L 1973.00 2465.00 L 1980.00 2446.00 L 1972.00 2414.00 L 1969.45 2409.00 L 1950.00 2409.00 L 1930.00 2408.00 L 1870.00 2408.00 L 1866.00 2407.80 L 1843.00 2493.65 Z" stroke-width="1" id="303-28-09" stroke="black"/>
  <path fill="none" d="M 243.00 2465.00 L 255.00 2473.00 L 256.00 2501.00 L 238.00 2520.00 L 258.00 2540.00 L 258.42 2559.00 L 270.00 2559.00 L 290.00 2560.00 L 310.00 2560.00 L 330.00 2561.00 L 350.00 2561.00 L 370.00 2562.00 L 390.00 2562.00 L 410.00 2563.00 L 415.00 2563.00 L 437.00 2468.35 L 430.00 2468.00 L 390.00 2468.00 L 370.00 2467.00 L 330.00 2467.00 L 310.00 2466.00 L 270.00 2466.00 L 250.00 2465.00 Z" stroke-width="1" id="303-29-01" stroke="black"/>
  <path fill="none" d="M 430.00 2563.00 L 450.00 2564.00 L 470.00 2564.00 L 490.00 2565.00 L 501.00 2565.00 L 512.00 2470.00 L 510.00 2470.00 L 490.00 2469.00 L 450.00 2469.00 L 437.00 2468.35 L 415.00 2563.00 Z" stroke-width="1" id="303-29-02" stroke="black"/>
  <path fill="none" d="M 510.00 2565.00 L 530.00 2566.00 L 550.00 2566.00 L 570.00 2567.00 L 590.00 2568.00 L 610.00 2588.00 L 630.00 2569.00 L 650.00 2569.00 L 652.00 2569.10 L 726.00 2473.80 L 710.00 2473.00 L 670.00 2473.00 L 650.00 2472.00 L 610.00 2472.00 L 590.00 2471.00 L 550.00 2471.00 L 530.00 2470.00 L 512.00 2470.00 L 501.00 2565.00 Z" stroke-width="1" id="303-29-03" stroke="black"/>
  <path fill="none" d="M 670.00 2570.00 L 690.00 2570.00 L 710.00 2571.00 L 730.00 2571.00 L 750.00 2572.00 L 770.00 2572.00 L 790.00 2573.00 L 810.00 2573.00 L 830.00 2554.00 L 850.00 2554.00 L 870.00 2575.00 L 881.00 2575.00 L 901.00 2477.00 L 890.00 2477.00 L 870.00 2476.00 L 850.00 2476.00 L 830.00 2475.00 L 790.00 2475.00 L 770.00 2474.00 L 730.00 2474.00 L 726.00 2473.80 L 652.00 2569.10 Z" stroke-width="1" id="303-29-04" stroke="black"/>
  <path fill="none" d="M 890.00 2575.00 L 910.00 2576.00 L 930.00 2577.00 L 950.00 2577.00 L 970.00 2578.00 L 990.00 2578.00 L 1010.00 2579.00 L 1030.00 2559.00 L 1050.00 2560.00 L 1070.00 2568.00 L 1090.00 2564.00 L 1110.00 2560.00 L 1117.00 2560.00 L 1134.00 2481.00 L 1130.00 2481.00 L 1110.00 2480.00 L 1070.00 2480.00 L 1050.00 2479.00 L 1010.00 2479.00 L 990.00 2478.00 L 950.00 2478.00 L 930.00 2477.00 L 901.00 2477.00 L 881.00 2575.00 Z" stroke-width="1" id="303-29-05" stroke="black"/>
  <path fill="none" d="M 1210.00 2560.00 L 1230.00 2562.00 L 1290.00 2562.00 L 1294.00 2562.40 L 1292.00 2484.00 L 1290.00 2484.00 L 1270.00 2463.00 L 1250.00 2483.00 L 1230.00 2463.00 L 1210.00 2462.00 L 1190.00 2482.00 L 1170.00 2482.00 L 1150.00 2481.00 L 1134.00 2481.00 L 1117.00 2560.00 Z" stroke-width="1" id="303-29-06" stroke="black"/>
  <path fill="none" d="M 1310.00 2564.00 L 1330.00 2564.00 L 1350.00 2560.00 L 1470.00 2560.00 L 1490.00 2562.00 L 1530.00 2562.00 L 1550.00 2564.00 L 1570.00 2566.00 L 1590.00 2568.00 L 1610.00 2568.00 L 1630.00 2570.00 L 1670.00 2570.00 L 1690.00 2572.00 L 1758.00 2572.00 L 1788.00 2492.90 L 1770.00 2492.00 L 1750.00 2492.00 L 1730.00 2491.00 L 1690.00 2491.00 L 1670.00 2490.00 L 1630.00 2490.00 L 1610.00 2489.00 L 1570.00 2489.00 L 1550.00 2488.00 L 1510.00 2488.00 L 1490.00 2487.00 L 1470.00 2487.00 L 1450.00 2486.00 L 1410.00 2486.00 L 1390.00 2485.00 L 1370.00 2465.00 L 1350.00 2485.00 L 1330.00 2484.00 L 1292.00 2484.00 L 1294.00 2562.40 Z" stroke-width="1" id="303-29-07" stroke="black"/>
  <path fill="none" d="M 1770.00 2572.00 L 1790.00 2576.00 L 1810.00 2578.00 L 1827.00 2579.70 L 1895.00 2494.25 L 1890.00 2494.00 L 1850.00 2494.00 L 1830.00 2493.00 L 1790.00 2493.00 L 1788.00 2492.90 L 1758.00 2572.00 Z" stroke-width="1" id="303-29-08" stroke="black"/>
  <path fill="none" d="M 1830.00 2580.00 L 1952.92 2580.00 L 1964.00 2562.00 L 1983.00 2545.00 L 1954.00 2498.00 L 1955.57 2495.28 L 1950.00 2495.00 L 1910.00 2495.00 L 1895.00 2494.25 L 1827.00 2579.70 Z" stroke-width="1" id="303-29-09" stroke="black"/>
  <path fill="none" d="M 258.42 2559.00 L 259.00 2585.00 L 246.00 2606.00 L 258.00 2616.00 L 258.55 2647.43 L 270.00 2648.00 L 290.00 2648.00 L 310.00 2629.00 L 330.00 2630.00 L 350.00 2630.00 L 370.00 2651.00 L 390.00 2652.00 L 398.00 2644.00 L 403.00 2562.65 L 390.00 2562.00 L 370.00 2562.00 L 350.00 2561.00 L 330.00 2561.00 L 310.00 2560.00 L 290.00 2560.00 L 270.00 2559.00 Z" stroke-width="1" id="303-30-01" stroke="black"/>
  <path fill="none" d="M 410.00 2632.00 L 430.00 2633.00 L 450.00 2634.00 L 470.00 2654.00 L 490.00 2655.00 L 510.00 2656.00 L 517.00 2656.35 L 540.00 2566.00 L 530.00 2566.00 L 510.00 2565.00 L 490.00 2565.00 L 470.00 2564.00 L 450.00 2564.00 L 430.00 2563.00 L 410.00 2563.00 L 403.00 2562.65 L 398.00 2644.00 Z" stroke-width="1" id="303-30-02" stroke="black"/>
  <path fill="none" d="M 530.00 2657.00 L 550.00 2657.00 L 570.00 2658.00 L 590.00 2659.00 L 610.00 2659.00 L 630.00 2660.00 L 650.00 2661.00 L 670.00 2661.00 L 690.00 2662.00 L 710.00 2663.00 L 729.00 2663.00 L 753.00 2572.00 L 750.00 2572.00 L 730.00 2571.00 L 710.00 2571.00 L 690.00 2570.00 L 670.00 2570.00 L 650.00 2569.00 L 630.00 2569.00 L 610.00 2588.00 L 590.00 2568.00 L 570.00 2567.00 L 550.00 2566.00 L 540.00 2566.00 L 517.00 2656.35 Z" stroke-width="1" id="303-30-03" stroke="black"/>
  <path fill="none" d="M 730.00 2663.00 L 750.00 2664.00 L 770.00 2665.00 L 790.00 2665.00 L 810.00 2666.00 L 830.00 2667.00 L 850.00 2668.00 L 870.00 2668.00 L 890.00 2669.00 L 910.00 2670.00 L 930.00 2670.00 L 950.00 2671.00 L 970.00 2672.00 L 990.00 2672.00 L 1010.00 2673.00 L 1030.00 2654.00 L 1080.00 2566.00 L 1070.00 2568.00 L 1050.00 2560.00 L 1030.00 2559.00 L 1010.00 2579.00 L 990.00 2578.00 L 970.00 2578.00 L 950.00 2577.00 L 930.00 2577.00 L 910.00 2576.00 L 890.00 2575.00 L 870.00 2575.00 L 850.00 2554.00 L 830.00 2554.00 L 810.00 2573.00 L 790.00 2573.00 L 770.00 2572.00 L 753.00 2572.00 L 729.00 2663.00 Z" stroke-width="1" id="303-30-04" stroke="black"/>
  <path fill="none" d="M 1050.00 2674.00 L 1070.00 2675.00 L 1090.00 2676.00 L 1110.00 2677.00 L 1130.00 2677.00 L 1150.00 2678.00 L 1170.00 2659.00 L 1190.00 2659.00 L 1210.00 2660.00 L 1230.00 2661.00 L 1250.00 2681.00 L 1270.00 2662.00 L 1290.00 2703.00 L 1310.00 2683.00 L 1330.00 2684.00 L 1350.00 2685.00 L 1370.00 2685.00 L 1390.00 2686.00 L 1396.00 2686.30 L 1449.00 2560.00 L 1350.00 2560.00 L 1330.00 2564.00 L 1310.00 2564.00 L 1290.00 2562.00 L 1230.00 2562.00 L 1210.00 2560.00 L 1110.00 2560.00 L 1090.00 2564.00 L 1080.00 2566.00 L 1030.00 2654.00 Z" stroke-width="1" id="303-30-05" stroke="black"/>
  <path fill="none" d="M 1410.00 2687.00 L 1430.00 2688.00 L 1450.00 2668.00 L 1470.00 2669.00 L 1490.00 2690.00 L 1510.00 2690.00 L 1530.00 2691.00 L 1550.00 2692.00 L 1570.00 2692.00 L 1590.00 2673.00 L 1593.00 2673.15 L 1631.00 2570.00 L 1630.00 2570.00 L 1610.00 2568.00 L 1590.00 2568.00 L 1570.00 2566.00 L 1550.00 2564.00 L 1530.00 2562.00 L 1490.00 2562.00 L 1470.00 2560.00 L 1449.00 2560.00 L 1396.00 2686.30 Z" stroke-width="1" id="303-30-06" stroke="black"/>
  <path fill="none" d="M 1610.00 2674.00 L 1630.00 2654.00 L 1650.00 2670.00 L 1810.00 2670.00 L 1830.00 2684.00 L 1837.00 2681.90 L 1901.92 2580.00 L 1830.00 2580.00 L 1810.00 2578.00 L 1790.00 2576.00 L 1770.00 2572.00 L 1690.00 2572.00 L 1670.00 2570.00 L 1631.00 2570.00 L 1593.00 2673.15 Z" stroke-width="1" id="303-30-07" stroke="black"/>
  <path fill="none" d="M 1850.00 2678.00 L 1870.00 2688.00 L 1957.59 2688.00 L 1955.00 2637.00 L 1940.00 2601.00 L 1952.92 2580.00 L 1901.92 2580.00 L 1837.00 2681.90 Z" stroke-width="1" id="303-30-08" stroke="black"/>
  <path fill="none" d="M 258.55 2647.43 L 259.00 2673.00 L 248.00 2692.00 L 261.00 2699.00 L 261.00 2718.00 L 260.92 2721.00 L 270.00 2721.00 L 290.00 2722.00 L 310.00 2723.00 L 329.00 2704.00 L 362.00 2642.60 L 350.00 2630.00 L 330.00 2630.00 L 310.00 2629.00 L 290.00 2648.00 L 270.00 2648.00 Z" stroke-width="1" id="303-31-01" stroke="black"/>
  <path fill="none" d="M 330.00 2703.00 L 350.00 2704.00 L 370.00 2725.00 L 390.00 2725.00 L 410.00 2726.00 L 430.00 2746.00 L 450.00 2727.00 L 470.00 2728.00 L 490.00 2728.00 L 509.00 2728.95 L 535.00 2657.00 L 530.00 2657.00 L 510.00 2656.00 L 490.00 2655.00 L 470.00 2654.00 L 450.00 2634.00 L 430.00 2633.00 L 410.00 2632.00 L 390.00 2652.00 L 370.00 2651.00 L 362.00 2642.60 L 329.00 2704.00 Z" stroke-width="1" id="303-31-02" stroke="black"/>
  <path fill="none" d="M 510.00 2729.00 L 530.00 2730.00 L 550.00 2730.00 L 570.00 2731.00 L 590.00 2732.00 L 610.00 2732.00 L 630.00 2733.00 L 650.00 2733.00 L 655.00 2733.25 L 690.00 2662.00 L 670.00 2661.00 L 650.00 2661.00 L 630.00 2660.00 L 610.00 2659.00 L 590.00 2659.00 L 570.00 2658.00 L 550.00 2657.00 L 535.00 2657.00 L 509.00 2728.95 Z" stroke-width="1" id="303-31-03" stroke="black"/>
  <path fill="none" d="M 670.00 2734.00 L 690.00 2735.00 L 710.00 2735.00 L 730.00 2736.00 L 750.00 2737.00 L 770.00 2737.00 L 790.00 2738.00 L 810.00 2719.00 L 830.00 2739.00 L 850.00 2740.00 L 870.00 2740.00 L 890.00 2741.00 L 910.00 2742.00 L 930.00 2742.00 L 950.00 2743.00 L 970.00 2744.00 L 990.00 2744.00 L 1010.00 2745.00 L 1030.00 2746.00 L 1050.00 2746.00 L 1070.00 2747.00 L 1083.00 2747.00 L 1107.00 2676.85 L 1090.00 2676.00 L 1070.00 2675.00 L 1050.00 2674.00 L 1030.00 2654.00 L 1010.00 2673.00 L 990.00 2672.00 L 970.00 2672.00 L 950.00 2671.00 L 930.00 2670.00 L 910.00 2670.00 L 890.00 2669.00 L 870.00 2668.00 L 850.00 2668.00 L 830.00 2667.00 L 810.00 2666.00 L 790.00 2665.00 L 770.00 2665.00 L 750.00 2664.00 L 730.00 2663.00 L 710.00 2663.00 L 690.00 2662.00 L 655.00 2733.25 Z" stroke-width="1" id="303-31-04" stroke="black"/>
  <path fill="none" d="M 1090.00 2747.00 L 1110.00 2748.00 L 1130.00 2749.00 L 1150.00 2749.00 L 1170.00 2750.00 L 1190.00 2751.00 L 1210.00 2751.00 L 1230.00 2752.00 L 1250.00 2753.00 L 1253.00 2753.00 L 1285.00 2692.75 L 1270.00 2662.00 L 1250.00 2681.00 L 1230.00 2661.00 L 1210.00 2660.00 L 1190.00 2659.00 L 1170.00 2659.00 L 1150.00 2678.00 L 1130.00 2677.00 L 1110.00 2677.00 L 1107.00 2676.85 L 1083.00 2747.00 Z" stroke-width="1" id="303-31-05" stroke="black"/>
  <path fill="none" d="M 1270.00 2753.00 L 1290.00 2754.00 L 1310.00 2754.00 L 1330.00 2755.00 L 1350.00 2756.00 L 1370.00 2756.00 L 1390.00 2757.00 L 1410.00 2758.00 L 1430.00 2738.00 L 1450.00 2759.00 L 1464.00 2745.70 L 1491.00 2690.00 L 1490.00 2690.00 L 1470.00 2669.00 L 1450.00 2668.00 L 1430.00 2688.00 L 1410.00 2687.00 L 1390.00 2686.00 L 1370.00 2685.00 L 1350.00 2685.00 L 1330.00 2684.00 L 1310.00 2683.00 L 1290.00 2703.00 L 1285.00 2692.75 L 1253.00 2753.00 Z" stroke-width="1" id="303-31-06" stroke="black"/>
  <path fill="none" d="M 1470.00 2740.00 L 1490.00 2740.00 L 1510.00 2761.00 L 1530.00 2761.00 L 1531.00 2761.05 L 1541.00 2691.55 L 1530.00 2691.00 L 1510.00 2690.00 L 1491.00 2690.00 L 1464.00 2745.70 Z" stroke-width="1" id="303-31-07" stroke="black"/>
  <path fill="none" d="M 1550.00 2762.00 L 1570.00 2763.00 L 1590.00 2763.00 L 1610.00 2764.00 L 1630.00 2765.00 L 1650.00 2765.00 L 1670.00 2766.00 L 1678.00 2766.40 L 1695.00 2670.00 L 1650.00 2670.00 L 1630.00 2654.00 L 1610.00 2674.00 L 1590.00 2673.00 L 1570.00 2692.00 L 1550.00 2692.00 L 1541.00 2691.55 L 1531.00 2761.05 Z" stroke-width="1" id="303-31-08" stroke="black"/>
  <path fill="none" d="M 1690.00 2767.00 L 1710.00 2767.00 L 1730.00 2768.00 L 1750.00 2768.00 L 1770.00 2769.00 L 1790.00 2770.00 L 1810.00 2770.00 L 1830.00 2771.00 L 1850.00 2772.00 L 1860.00 2772.00 L 1893.59 2688.00 L 1870.00 2688.00 L 1850.00 2678.00 L 1830.00 2684.00 L 1810.00 2670.00 L 1695.00 2670.00 L 1678.00 2766.40 Z" stroke-width="1" id="303-31-09" stroke="black"/>
  <path fill="none" d="M 1870.00 2772.00 L 1890.00 2773.00 L 1910.00 2754.00 L 1930.00 2754.00 L 1950.00 2755.00 L 1957.94 2755.00 L 1957.00 2752.00 L 1973.00 2720.00 L 1958.00 2696.00 L 1957.59 2688.00 L 1893.59 2688.00 L 1860.00 2772.00 Z" stroke-width="1" id="303-31-10" stroke="black"/>
  <path fill="none" d="M 260.92 2721.00 L 260.00 2756.00 L 249.00 2774.00 L 261.00 2778.00 L 261.33 2800.00 L 270.00 2800.00 L 290.00 2801.00 L 310.00 2802.00 L 330.00 2802.00 L 350.00 2803.00 L 370.00 2803.00 L 390.00 2804.00 L 410.00 2805.00 L 430.00 2805.00 L 440.00 2805.50 L 461.00 2727.55 L 450.00 2727.00 L 430.00 2746.00 L 410.00 2726.00 L 390.00 2725.00 L 370.00 2725.00 L 350.00 2704.00 L 330.00 2703.00 L 310.00 2723.00 L 290.00 2722.00 L 270.00 2721.00 Z" stroke-width="1" id="303-32-01" stroke="black"/>
  <path fill="none" d="M 450.00 2806.00 L 470.00 2807.00 L 490.00 2807.00 L 510.00 2808.00 L 515.00 2808.00 L 567.00 2730.85 L 550.00 2730.00 L 530.00 2730.00 L 510.00 2729.00 L 490.00 2728.00 L 470.00 2728.00 L 461.00 2727.55 L 440.00 2805.50 Z" stroke-width="1" id="303-32-02" stroke="black"/>
  <path fill="none" d="M 530.00 2808.00 L 550.00 2809.00 L 570.00 2810.00 L 590.00 2810.00 L 610.00 2811.00 L 630.00 2811.00 L 646.00 2811.80 L 688.00 2734.90 L 670.00 2734.00 L 650.00 2733.00 L 630.00 2733.00 L 610.00 2732.00 L 590.00 2732.00 L 570.00 2731.00 L 567.00 2730.85 L 515.00 2808.00 Z" stroke-width="1" id="303-32-03" stroke="black"/>
  <path fill="none" d="M 650.00 2812.00 L 670.00 2813.00 L 690.00 2813.00 L 710.00 2814.00 L 730.00 2815.00 L 750.00 2815.00 L 770.00 2816.00 L 790.00 2816.00 L 810.00 2817.00 L 830.00 2818.00 L 850.00 2798.00 L 870.00 2799.00 L 885.00 2740.75 L 870.00 2740.00 L 850.00 2740.00 L 830.00 2739.00 L 810.00 2719.00 L 790.00 2738.00 L 770.00 2737.00 L 750.00 2737.00 L 730.00 2736.00 L 710.00 2735.00 L 690.00 2735.00 L 688.00 2734.90 L 646.00 2811.80 Z" stroke-width="1" id="303-32-04" stroke="black"/>
  <path fill="none" d="M 890.00 2800.00 L 910.00 2800.00 L 930.00 2821.00 L 950.00 2821.00 L 970.00 2822.00 L 990.00 2823.00 L 1010.00 2823.00 L 1030.00 2824.00 L 1050.00 2824.00 L 1070.00 2825.00 L 1090.00 2826.00 L 1110.00 2826.00 L 1130.00 2827.00 L 1150.00 2828.00 L 1153.00 2828.00 L 1178.00 2750.40 L 1170.00 2750.00 L 1150.00 2749.00 L 1130.00 2749.00 L 1110.00 2748.00 L 1090.00 2747.00 L 1070.00 2747.00 L 1050.00 2746.00 L 1030.00 2746.00 L 1010.00 2745.00 L 990.00 2744.00 L 970.00 2744.00 L 950.00 2743.00 L 930.00 2742.00 L 910.00 2742.00 L 890.00 2741.00 L 885.00 2740.75 L 870.00 2799.00 Z" stroke-width="1" id="303-32-05" stroke="black"/>
  <path fill="none" d="M 1170.00 2828.00 L 1190.00 2829.00 L 1210.00 2829.00 L 1230.00 2830.00 L 1250.00 2851.00 L 1270.00 2831.00 L 1290.00 2832.00 L 1310.00 2833.00 L 1319.00 2833.00 L 1339.00 2755.45 L 1330.00 2755.00 L 1310.00 2754.00 L 1290.00 2754.00 L 1270.00 2753.00 L 1250.00 2753.00 L 1230.00 2752.00 L 1210.00 2751.00 L 1190.00 2751.00 L 1178.00 2750.40 L 1153.00 2828.00 Z" stroke-width="1" id="303-32-06" stroke="black"/>
  <path fill="none" d="M 1330.00 2833.00 L 1350.00 2834.00 L 1370.00 2834.00 L 1388.00 2834.90 L 1446.00 2754.80 L 1430.00 2738.00 L 1410.00 2758.00 L 1390.00 2757.00 L 1370.00 2756.00 L 1350.00 2756.00 L 1339.00 2755.45 L 1319.00 2833.00 Z" stroke-width="1" id="303-32-07" stroke="black"/>
  <path fill="none" d="M 1390.00 2835.00 L 1410.00 2836.00 L 1430.00 2836.00 L 1450.00 2837.00 L 1470.00 2837.00 L 1490.00 2838.00 L 1510.00 2839.00 L 1530.00 2839.00 L 1550.00 2840.00 L 1570.00 2841.00 L 1590.00 2841.00 L 1610.00 2842.00 L 1630.00 2842.00 L 1650.00 2843.00 L 1670.00 2844.00 L 1690.00 2844.00 L 1710.00 2845.00 L 1711.00 2845.00 L 1723.00 2767.65 L 1710.00 2767.00 L 1690.00 2767.00 L 1670.00 2766.00 L 1650.00 2765.00 L 1630.00 2765.00 L 1610.00 2764.00 L 1590.00 2763.00 L 1570.00 2763.00 L 1550.00 2762.00 L 1530.00 2761.00 L 1510.00 2761.00 L 1490.00 2740.00 L 1470.00 2740.00 L 1450.00 2759.00 L 1446.00 2754.80 L 1388.00 2834.90 Z" stroke-width="1" id="303-32-08" stroke="black"/>
  <path fill="none" d="M 1730.00 2845.00 L 1750.00 2826.00 L 1770.00 2827.00 L 1781.00 2838.00 L 1804.00 2770.00 L 1790.00 2770.00 L 1770.00 2769.00 L 1750.00 2768.00 L 1730.00 2768.00 L 1723.00 2767.65 L 1711.00 2845.00 Z" stroke-width="1" id="303-32-09" stroke="black"/>
  <path fill="none" d="M 1790.00 2847.00 L 1810.00 2848.00 L 1830.00 2829.00 L 1837.00 2836.00 L 1872.00 2772.10 L 1870.00 2772.00 L 1850.00 2772.00 L 1830.00 2771.00 L 1810.00 2770.00 L 1804.00 2770.00 L 1781.00 2838.00 Z" stroke-width="1" id="303-32-10" stroke="black"/>
  <path fill="none" d="M 1850.00 2849.00 L 1870.00 2850.00 L 1890.00 2850.00 L 1910.00 2851.00 L 1930.00 2852.00 L 1950.00 2852.00 L 1956.40 2852.32 L 1944.00 2839.00 L 1978.00 2802.00 L 1962.00 2768.00 L 1957.94 2755.00 L 1950.00 2755.00 L 1930.00 2754.00 L 1910.00 2754.00 L 1890.00 2773.00 L 1872.00 2772.10 L 1837.00 2836.00 Z" stroke-width="1" id="303-32-11" stroke="black"/>
  <path fill="none" d="M 261.33 2800.00 L 262.00 2844.00 L 248.00 2861.00 L 266.00 2870.00 L 266.00 2889.00 L 270.00 2889.00 L 290.00 2890.00 L 310.00 2891.00 L 330.00 2891.00 L 350.00 2892.00 L 370.00 2893.00 L 390.00 2893.00 L 410.00 2894.00 L 430.00 2895.00 L 450.00 2895.00 L 470.00 2896.00 L 490.00 2897.00 L 510.00 2897.00 L 530.00 2898.00 L 550.00 2898.00 L 570.00 2899.00 L 590.00 2900.00 L 610.00 2900.00 L 630.00 2901.00 L 650.00 2902.00 L 670.00 2902.00 L 686.00 2902.80 L 695.00 2813.25 L 690.00 2813.00 L 670.00 2813.00 L 650.00 2812.00 L 630.00 2811.00 L 610.00 2811.00 L 590.00 2810.00 L 570.00 2810.00 L 550.00 2809.00 L 530.00 2808.00 L 510.00 2808.00 L 490.00 2807.00 L 470.00 2807.00 L 450.00 2806.00 L 430.00 2805.00 L 410.00 2805.00 L 390.00 2804.00 L 370.00 2803.00 L 350.00 2803.00 L 330.00 2802.00 L 310.00 2802.00 L 290.00 2801.00 L 270.00 2800.00 Z" stroke-width="1" id="303-33-01" stroke="black"/>
  <path fill="none" d="M 750.00 2905.00 L 770.00 2906.00 L 790.00 2906.00 L 810.00 2907.00 L 830.00 2907.00 L 850.00 2888.00 L 870.00 2889.00 L 890.00 2909.00 L 910.00 2910.00 L 930.00 2891.00 L 950.00 2911.00 L 961.00 2911.55 L 1001.00 2823.00 L 990.00 2823.00 L 970.00 2822.00 L 950.00 2821.00 L 930.00 2821.00 L 910.00 2800.00 L 890.00 2800.00 L 870.00 2799.00 L 850.00 2798.00 L 830.00 2818.00 L 810.00 2817.00 L 790.00 2816.00 L 770.00 2816.00 L 750.00 2815.00 L 742.00 2815.00 L 730.00 2904.00 Z" stroke-width="1" id="303-33-02" stroke="black"/>
  <path fill="none" d="M 970.00 2912.00 L 990.00 2913.00 L 1010.00 2913.00 L 1030.00 2914.00 L 1050.00 2915.00 L 1070.00 2915.00 L 1090.00 2916.00 L 1110.00 2916.00 L 1112.00 2916.10 L 1164.00 2828.00 L 1150.00 2828.00 L 1130.00 2827.00 L 1110.00 2826.00 L 1090.00 2826.00 L 1070.00 2825.00 L 1050.00 2824.00 L 1030.00 2824.00 L 1010.00 2823.00 L 1001.00 2823.00 L 961.00 2911.55 Z" stroke-width="1" id="303-33-03" stroke="black"/>
  <path fill="none" d="M 1130.00 2917.00 L 1150.00 2918.00 L 1170.00 2918.00 L 1190.00 2919.00 L 1194.00 2919.20 L 1250.00 2851.00 L 1230.00 2830.00 L 1210.00 2829.00 L 1190.00 2829.00 L 1170.00 2828.00 L 1164.00 2828.00 L 1112.00 2916.10 Z" stroke-width="1" id="303-33-04" stroke="black"/>
  <path fill="none" d="M 1210.00 2920.00 L 1230.00 2920.00 L 1250.00 2921.00 L 1270.00 2922.00 L 1290.00 2922.00 L 1310.00 2923.00 L 1330.00 2924.00 L 1350.00 2904.00 L 1370.00 2905.00 L 1390.00 2925.00 L 1402.00 2925.60 L 1465.00 2837.00 L 1450.00 2837.00 L 1430.00 2836.00 L 1410.00 2836.00 L 1390.00 2835.00 L 1370.00 2834.00 L 1350.00 2834.00 L 1330.00 2833.00 L 1310.00 2833.00 L 1290.00 2832.00 L 1270.00 2831.00 L 1250.00 2851.00 L 1194.00 2919.20 Z" stroke-width="1" id="303-33-05" stroke="black"/>
  <path fill="none" d="M 1410.00 2926.00 L 1430.00 2927.00 L 1450.00 2927.00 L 1470.00 2928.00 L 1490.00 2929.00 L 1510.00 2929.00 L 1530.00 2930.00 L 1550.00 2931.00 L 1570.00 2931.00 L 1590.00 2932.00 L 1610.00 2933.00 L 1630.00 2933.00 L 1650.00 2934.00 L 1670.00 2934.00 L 1682.00 2844.00 L 1670.00 2844.00 L 1650.00 2843.00 L 1630.00 2842.00 L 1610.00 2842.00 L 1590.00 2841.00 L 1570.00 2841.00 L 1550.00 2840.00 L 1530.00 2839.00 L 1510.00 2839.00 L 1490.00 2838.00 L 1470.00 2837.00 L 1465.00 2837.00 L 1402.00 2925.60 Z" stroke-width="1" id="303-33-06" stroke="black"/>
  <path fill="none" d="M 1690.00 2935.00 L 1704.00 2935.70 L 1782.00 2839.00 L 1770.00 2827.00 L 1750.00 2826.00 L 1730.00 2845.00 L 1710.00 2845.00 L 1690.00 2844.00 L 1682.00 2844.00 L 1670.00 2934.00 Z" stroke-width="1" id="303-33-07" stroke="black"/>
  <path fill="none" d="M 1710.00 2936.00 L 1730.00 2936.00 L 1750.00 2937.00 L 1770.00 2938.00 L 1790.00 2938.00 L 1810.00 2939.00 L 1818.00 2939.40 L 1854.00 2849.20 L 1850.00 2849.00 L 1830.00 2829.00 L 1810.00 2848.00 L 1790.00 2847.00 L 1782.00 2839.00 L 1704.00 2935.70 Z" stroke-width="1" id="303-33-08" stroke="black"/>
  <path fill="none" d="M 1830.00 2940.00 L 1850.00 2940.00 L 1870.00 2941.00 L 1890.00 2942.00 L 1910.00 2942.00 L 1930.00 2943.00 L 1942.78 2943.00 L 1972.00 2888.00 L 1971.00 2868.00 L 1956.40 2852.32 L 1950.00 2852.00 L 1930.00 2852.00 L 1910.00 2851.00 L 1890.00 2850.00 L 1870.00 2850.00 L 1854.00 2849.20 L 1818.00 2939.40 Z" stroke-width="1" id="303-33-09" stroke="black"/>
  <path fill="none" d="M 266.00 2889.00 L 266.00 2934.00 L 262.00 2951.00 L 263.25 2963.00 L 270.00 2963.00 L 290.00 2964.00 L 310.00 2965.00 L 330.00 2965.00 L 350.00 2966.00 L 370.00 2966.00 L 390.00 2967.00 L 410.00 2968.00 L 430.00 2968.00 L 437.00 2968.35 L 460.00 2895.50 L 450.00 2895.00 L 430.00 2895.00 L 410.00 2894.00 L 390.00 2893.00 L 370.00 2893.00 L 350.00 2892.00 L 330.00 2891.00 L 310.00 2891.00 L 290.00 2890.00 L 270.00 2889.00 Z" stroke-width="1" id="303-34-01" stroke="black"/>
  <path fill="none" d="M 450.00 2969.00 L 470.00 2969.00 L 490.00 2970.00 L 510.00 2971.00 L 530.00 2971.00 L 550.00 2972.00 L 570.00 2972.00 L 584.00 2972.70 L 611.00 2900.05 L 610.00 2900.00 L 590.00 2900.00 L 570.00 2899.00 L 550.00 2898.00 L 530.00 2898.00 L 510.00 2897.00 L 490.00 2897.00 L 470.00 2896.00 L 460.00 2895.50 L 437.00 2968.35 Z" stroke-width="1" id="303-34-02" stroke="black"/>
  <path fill="none" d="M 590.00 2973.00 L 610.00 2974.00 L 630.00 2974.00 L 650.00 2975.00 L 670.00 2975.00 L 690.00 2976.00 L 710.00 2977.00 L 730.00 2977.00 L 750.00 2978.00 L 770.00 2978.00 L 772.00 2978.10 L 778.00 2906.00 L 770.00 2906.00 L 750.00 2905.00 L 730.00 2904.00 L 710.00 2904.00 L 690.00 2903.00 L 670.00 2902.00 L 650.00 2902.00 L 630.00 2901.00 L 611.00 2900.05 L 584.00 2972.70 Z" stroke-width="1" id="303-34-03" stroke="black"/>
  <path fill="none" d="M 790.00 2979.00 L 810.00 2980.00 L 830.00 2980.00 L 850.00 2981.00 L 870.00 2981.00 L 890.00 2982.00 L 910.00 2983.00 L 930.00 2983.00 L 950.00 2984.00 L 970.00 3004.00 L 990.00 2985.00 L 1010.00 2986.00 L 1025.00 2986.00 L 1047.00 2914.85 L 1030.00 2914.00 L 1010.00 2913.00 L 990.00 2913.00 L 970.00 2912.00 L 950.00 2911.00 L 930.00 2891.00 L 910.00 2910.00 L 890.00 2909.00 L 870.00 2889.00 L 850.00 2888.00 L 830.00 2907.00 L 810.00 2907.00 L 790.00 2906.00 L 778.00 2906.00 L 772.00 2978.10 Z" stroke-width="1" id="303-34-04" stroke="black"/>
  <path fill="none" d="M 1030.00 2986.00 L 1050.00 2987.00 L 1070.00 2987.00 L 1090.00 2988.00 L 1110.00 2989.00 L 1112.00 2989.00 L 1136.00 2917.30 L 1130.00 2917.00 L 1110.00 2916.00 L 1090.00 2916.00 L 1070.00 2915.00 L 1050.00 2915.00 L 1047.00 2914.85 L 1025.00 2986.00 Z" stroke-width="1" id="303-34-05" stroke="black"/>
  <path fill="none" d="M 1130.00 2989.00 L 1150.00 2990.00 L 1170.00 2990.00 L 1190.00 2991.00 L 1210.00 2992.00 L 1230.00 2992.00 L 1250.00 2993.00 L 1270.00 2993.00 L 1279.00 2993.45 L 1287.00 2922.00 L 1270.00 2922.00 L 1250.00 2921.00 L 1230.00 2920.00 L 1210.00 2920.00 L 1190.00 2919.00 L 1170.00 2918.00 L 1150.00 2918.00 L 1136.00 2917.30 L 1112.00 2989.00 Z" stroke-width="1" id="303-34-06" stroke="black"/>
  <path fill="none" d="M 1290.00 2994.00 L 1310.00 2995.00 L 1330.00 2995.00 L 1350.00 2996.00 L 1370.00 2996.00 L 1390.00 2997.00 L 1410.00 2998.00 L 1430.00 2998.00 L 1450.00 2999.00 L 1470.00 2999.00 L 1490.00 3000.00 L 1510.00 3001.00 L 1530.00 3001.00 L 1550.00 3002.00 L 1570.00 3002.00 L 1590.00 3003.00 L 1610.00 3004.00 L 1630.00 3004.00 L 1650.00 3005.00 L 1670.00 3005.00 L 1690.00 3006.00 L 1694.00 3006.20 L 1711.00 2936.00 L 1710.00 2936.00 L 1690.00 2935.00 L 1670.00 2934.00 L 1650.00 2934.00 L 1630.00 2933.00 L 1610.00 2933.00 L 1590.00 2932.00 L 1570.00 2931.00 L 1550.00 2931.00 L 1530.00 2930.00 L 1510.00 2929.00 L 1490.00 2929.00 L 1470.00 2928.00 L 1450.00 2927.00 L 1430.00 2927.00 L 1410.00 2926.00 L 1390.00 2925.00 L 1370.00 2905.00 L 1350.00 2904.00 L 1330.00 2924.00 L 1310.00 2923.00 L 1290.00 2922.00 L 1287.00 2922.00 L 1279.00 2993.45 Z" stroke-width="1" id="303-34-07" stroke="black"/>
  <path fill="none" d="M 1710.00 3007.00 L 1730.00 3007.00 L 1750.00 3008.00 L 1770.00 3009.00 L 1790.00 3009.00 L 1810.00 3010.00 L 1830.00 3010.00 L 1850.00 3011.00 L 1870.00 3012.00 L 1890.00 3012.00 L 1910.00 3013.00 L 1930.00 3013.00 L 1950.00 3014.00 L 1962.90 3014.65 L 1940.00 2978.00 L 1938.00 2952.00 L 1942.78 2943.00 L 1930.00 2943.00 L 1910.00 2942.00 L 1890.00 2942.00 L 1870.00 2941.00 L 1850.00 2940.00 L 1830.00 2940.00 L 1810.00 2939.00 L 1790.00 2938.00 L 1770.00 2938.00 L 1750.00 2937.00 L 1730.00 2936.00 L 1711.00 2936.00 L 1694.00 3006.20 Z" stroke-width="1" id="303-34-08" stroke="black"/>
  <path fill="none" d="M 263.25 2963.00 L 269.00 3018.00 L 255.00 3034.00 L 265.00 3040.00 L 258.00 3061.00 L 270.00 3066.00 L 270.48 3077.54 L 290.00 3059.00 L 310.00 3059.00 L 330.00 3060.00 L 350.00 3061.00 L 370.00 3061.00 L 390.00 3062.00 L 410.00 3062.00 L 430.00 3063.00 L 445.00 3063.75 L 465.00 2969.00 L 450.00 2969.00 L 430.00 2968.00 L 410.00 2968.00 L 390.00 2967.00 L 370.00 2966.00 L 350.00 2966.00 L 330.00 2965.00 L 310.00 2965.00 L 290.00 2964.00 L 270.00 2963.00 Z" stroke-width="1" id="303-35-01" stroke="black"/>
  <path fill="none" d="M 450.00 3064.00 L 470.00 3064.00 L 490.00 3065.00 L 510.00 3045.00 L 530.00 3046.00 L 550.00 3067.00 L 570.00 3067.00 L 590.00 3068.00 L 596.00 3068.00 L 634.00 2974.20 L 630.00 2974.00 L 610.00 2974.00 L 590.00 2973.00 L 570.00 2972.00 L 550.00 2972.00 L 530.00 2971.00 L 510.00 2971.00 L 490.00 2970.00 L 470.00 2969.00 L 465.00 2969.00 L 445.00 3063.75 Z" stroke-width="1" id="303-35-02" stroke="black"/>
  <path fill="none" d="M 610.00 3068.00 L 630.00 3069.00 L 650.00 3070.00 L 670.00 3070.00 L 690.00 3071.00 L 710.00 3071.00 L 730.00 3072.00 L 750.00 3073.00 L 770.00 3073.00 L 790.00 3074.00 L 810.00 3074.00 L 830.00 3075.00 L 850.00 3076.00 L 870.00 3076.00 L 890.00 3077.00 L 910.00 3077.00 L 930.00 3078.00 L 950.00 3079.00 L 970.00 3079.00 L 990.00 3080.00 L 998.00 3080.00 L 1054.00 2987.00 L 1050.00 2987.00 L 1030.00 2986.00 L 1010.00 2986.00 L 990.00 2985.00 L 970.00 3004.00 L 950.00 2984.00 L 930.00 2983.00 L 910.00 2983.00 L 890.00 2982.00 L 870.00 2981.00 L 850.00 2981.00 L 830.00 2980.00 L 810.00 2980.00 L 790.00 2979.00 L 770.00 2978.00 L 750.00 2978.00 L 730.00 2977.00 L 710.00 2977.00 L 690.00 2976.00 L 670.00 2975.00 L 650.00 2975.00 L 634.00 2974.20 L 596.00 3068.00 Z" stroke-width="1" id="303-35-03" stroke="black"/>
  <path fill="none" d="M 1010.00 3080.00 L 1030.00 3081.00 L 1050.00 3082.00 L 1070.00 3082.00 L 1090.00 3083.00 L 1110.00 3083.00 L 1130.00 3084.00 L 1150.00 3065.00 L 1163.00 3078.00 L 1241.00 2992.55 L 1230.00 2992.00 L 1210.00 2992.00 L 1190.00 2991.00 L 1170.00 2990.00 L 1150.00 2990.00 L 1130.00 2989.00 L 1110.00 2989.00 L 1090.00 2988.00 L 1070.00 2987.00 L 1054.00 2987.00 L 998.00 3080.00 Z" stroke-width="1" id="303-35-04" stroke="black"/>
  <path fill="none" d="M 1170.00 3085.00 L 1190.00 3086.00 L 1210.00 3086.00 L 1230.00 3087.00 L 1250.00 3087.00 L 1270.00 3068.00 L 1290.00 3069.00 L 1310.00 3089.00 L 1330.00 3090.00 L 1350.00 3090.00 L 1370.00 3091.00 L 1390.00 3092.00 L 1410.00 3092.00 L 1430.00 3093.00 L 1450.00 3093.00 L 1456.00 3093.30 L 1463.00 2999.00 L 1450.00 2999.00 L 1430.00 2998.00 L 1410.00 2998.00 L 1390.00 2997.00 L 1370.00 2996.00 L 1350.00 2996.00 L 1330.00 2995.00 L 1310.00 2995.00 L 1290.00 2994.00 L 1270.00 2993.00 L 1250.00 2993.00 L 1241.00 2992.55 L 1163.00 3078.00 Z" stroke-width="1" id="303-35-05" stroke="black"/>
  <path fill="none" d="M 1470.00 3094.00 L 1490.00 3095.00 L 1510.00 3095.00 L 1530.00 3096.00 L 1550.00 3096.00 L 1570.00 3097.00 L 1590.00 3098.00 L 1602.00 3098.00 L 1646.00 3004.80 L 1630.00 3004.00 L 1610.00 3004.00 L 1590.00 3003.00 L 1570.00 3002.00 L 1550.00 3002.00 L 1530.00 3001.00 L 1510.00 3001.00 L 1490.00 3000.00 L 1470.00 2999.00 L 1463.00 2999.00 L 1456.00 3093.30 Z" stroke-width="1" id="303-35-06" stroke="black"/>
  <path fill="none" d="M 1610.00 3098.00 L 1630.00 3099.00 L 1650.00 3099.00 L 1670.00 3100.00 L 1690.00 3101.00 L 1710.00 3101.00 L 1730.00 3082.00 L 1750.00 3102.00 L 1770.00 3103.00 L 1790.00 3104.00 L 1801.00 3104.00 L 1800.00 3009.50 L 1790.00 3009.00 L 1770.00 3009.00 L 1750.00 3008.00 L 1730.00 3007.00 L 1710.00 3007.00 L 1690.00 3006.00 L 1670.00 3005.00 L 1650.00 3005.00 L 1646.00 3004.80 L 1602.00 3098.00 Z" stroke-width="1" id="303-35-07" stroke="black"/>
  <path fill="none" d="M 1810.00 3104.00 L 1830.00 3105.00 L 1850.00 3105.00 L 1870.00 3106.00 L 1890.00 3107.00 L 1910.00 3107.00 L 1930.00 3108.00 L 1942.86 3108.00 L 1945.00 3096.00 L 1978.00 3064.00 L 1980.00 3042.00 L 1962.90 3014.65 L 1950.00 3014.00 L 1930.00 3013.00 L 1910.00 3013.00 L 1890.00 3012.00 L 1870.00 3012.00 L 1850.00 3011.00 L 1830.00 3010.00 L 1810.00 3010.00 L 1800.00 3009.50 L 1801.00 3104.00 Z" stroke-width="1" id="303-35-08" stroke="black"/>
  <path fill="none" d="M 270.48 3077.54 L 271.00 3090.00 L 256.00 3110.00 L 281.00 3120.00 L 352.00 3125.00 L 360.00 3142.00 L 398.00 3129.00 L 406.00 3129.05 L 418.00 3062.40 L 410.00 3062.00 L 390.00 3062.00 L 370.00 3061.00 L 350.00 3061.00 L 330.00 3060.00 L 310.00 3059.00 L 290.00 3059.00 Z" stroke-width="1" id="303-36-01" stroke="black"/>
  <path fill="none" d="M 573.00 3130.10 L 622.00 3068.60 L 610.00 3068.00 L 590.00 3068.00 L 570.00 3067.00 L 550.00 3067.00 L 530.00 3046.00 L 510.00 3045.00 L 490.00 3065.00 L 470.00 3064.00 L 450.00 3064.00 L 430.00 3063.00 L 418.00 3062.40 L 406.00 3129.05 Z" stroke-width="1" id="303-36-02" stroke="black"/>
  <path fill="none" d="M 875.00 3132.00 L 890.00 3077.00 L 870.00 3076.00 L 850.00 3076.00 L 830.00 3075.00 L 810.00 3074.00 L 790.00 3074.00 L 770.00 3073.00 L 750.00 3073.00 L 730.00 3072.00 L 710.00 3071.00 L 690.00 3071.00 L 670.00 3070.00 L 650.00 3070.00 L 630.00 3069.00 L 622.00 3068.60 L 573.00 3130.10 Z" stroke-width="1" id="303-36-03" stroke="black"/>
  <path fill="none" d="M 1034.00 3133.00 L 1075.00 3082.25 L 1070.00 3082.00 L 1050.00 3082.00 L 1030.00 3081.00 L 1010.00 3080.00 L 990.00 3080.00 L 970.00 3079.00 L 950.00 3079.00 L 930.00 3078.00 L 910.00 3077.00 L 890.00 3077.00 L 875.00 3132.00 Z" stroke-width="1" id="303-36-04" stroke="black"/>
  <path fill="none" d="M 1026.30 3163.81 L 1030.00 3164.00 L 1050.00 3164.00 L 1058.97 3164.45 L 1265.00 3161.00 L 1274.00 3161.21 L 1303.00 3082.00 L 1290.00 3069.00 L 1270.00 3068.00 L 1250.00 3087.00 L 1230.00 3087.00 L 1210.00 3086.00 L 1190.00 3086.00 L 1170.00 3085.00 L 1150.00 3065.00 L 1130.00 3084.00 L 1110.00 3083.00 L 1090.00 3083.00 L 1075.00 3082.25 L 1034.00 3133.00 Z" stroke-width="1" id="303-36-05" stroke="black"/>
  <path fill="none" d="M 1547.00 3167.69 L 1557.00 3096.35 L 1550.00 3096.00 L 1530.00 3096.00 L 1510.00 3095.00 L 1490.00 3095.00 L 1470.00 3094.00 L 1450.00 3093.00 L 1430.00 3093.00 L 1410.00 3092.00 L 1390.00 3092.00 L 1370.00 3091.00 L 1350.00 3090.00 L 1330.00 3090.00 L 1310.00 3089.00 L 1303.00 3082.00 L 1274.00 3161.21 Z" stroke-width="1" id="303-36-06" stroke="black"/>
  <path fill="none" d="M 1560.00 3168.00 L 1606.00 3170.04 L 1665.00 3099.75 L 1650.00 3099.00 L 1630.00 3099.00 L 1610.00 3098.00 L 1590.00 3098.00 L 1570.00 3097.00 L 1557.00 3096.35 L 1547.00 3167.69 Z" stroke-width="1" id="303-36-07" stroke="black"/>
  <path fill="none" d="M 1717.50 3175.00 L 1748.12 3175.00 L 1779.12 3171.18 L 1779.00 3103.45 L 1770.00 3103.00 L 1750.00 3102.00 L 1730.00 3082.00 L 1710.00 3101.00 L 1690.00 3101.00 L 1670.00 3100.00 L 1665.00 3099.75 L 1606.00 3170.04 Z" stroke-width="1" id="303-36-08" stroke="black"/>
  <path fill="none" d="M 1935.00 3152.00 L 1942.86 3108.00 L 1930.00 3108.00 L 1910.00 3107.00 L 1890.00 3107.00 L 1870.00 3106.00 L 1850.00 3105.00 L 1830.00 3105.00 L 1810.00 3104.00 L 1790.00 3104.00 L 1779.00 3103.45 L 1779.12 3171.18 Z" stroke-width="1" id="303-36-09" stroke="black"/>
</svg>
