<?xml version="1.0" encoding="UTF-8"?>
<svg xmlns:xlink="http://www.w3.org/1999/xlink" xmlns="http://www.w3.org/2000/svg" contentScriptType="text/ecmascript" width="2047px" zoomAndPan="magnify" contentStyleType="text/css" viewBox="0 0 2047 3253" height="3253px" preserveAspectRatio="xMidYMid meet" version="1.0">
  <path fill="none" d="M 90.00 122.00 L 56.00 156.00 L 56.00 194.00 L 84.50 197.00 L 116.00 197.00 L 119.71 200.71 L 167.29 205.71 L 176.00 197.00 L 196.00 197.00 L 201.00 202.00 L 238.15 125.02 L 192.00 137.00 Z" stroke-width="1" id="304-01-01" stroke="black"/>
  <path fill="none" d="M 209.12 210.12 L 227.00 212.00 L 224.50 217.00 L 296.00 217.00 L 316.00 197.00 L 511.00 197.00 L 522.00 131.48 L 396.95 111.00 L 356.00 111.00 L 345.46 102.57 L 342.00 102.00 L 297.60 109.72 L 296.00 111.00 L 292.15 111.00 L 238.15 125.02 L 201.00 202.00 Z" stroke-width="1" id="304-01-02" stroke="black"/>
  <path fill="none" d="M 768.00 197.00 L 804.69 123.66 L 679.00 134.00 L 574.00 140.00 L 522.00 131.48 L 511.00 197.00 Z" stroke-width="1" id="304-01-03" stroke="black"/>
  <path fill="none" d="M 956.00 197.00 L 996.00 110.00 L 970.69 110.00 L 804.69 123.66 L 768.00 197.00 Z" stroke-width="1" id="304-01-04" stroke="black"/>
  <path fill="none" d="M 1116.00 197.00 L 1136.00 196.00 L 1535.00 196.00 L 1538.00 115.84 L 1350.00 112.00 L 1318.47 110.00 L 1116.00 110.00 L 1097.29 95.97 L 1082.00 95.00 L 1060.00 110.00 L 1056.16 109.88 L 1056.00 110.00 L 996.00 110.00 L 956.00 197.00 Z" stroke-width="1" id="304-01-05" stroke="black"/>
  <path fill="none" d="M 1827.66 196.00 L 1826.00 190.00 L 1837.00 189.64 L 1844.00 122.94 L 1801.00 117.00 L 1595.00 117.00 L 1538.00 115.84 L 1535.00 196.00 Z" stroke-width="1" id="304-01-06" stroke="black"/>
  <path fill="none" d="M 1948.00 186.00 L 1953.00 138.00 L 1844.00 122.94 L 1837.00 189.64 Z" stroke-width="1" id="304-01-07" stroke="black"/>
  <path fill="none" d="M 233.02 288.00 L 231.00 337.00 L 221.00 350.00 L 230.00 365.00 L 230.00 373.00 L 309.00 373.00 L 335.00 281.90 L 316.00 280.00 L 296.00 280.00 L 276.00 282.00 L 256.00 284.00 L 236.00 288.00 Z" stroke-width="1" id="304-03-01" stroke="black"/>
  <path fill="none" d="M 396.00 373.00 L 416.00 372.00 L 485.00 372.00 L 533.00 284.00 L 416.00 284.00 L 396.00 282.00 L 336.00 282.00 L 335.00 281.90 L 309.00 373.00 Z" stroke-width="1" id="304-03-02" stroke="black"/>
  <path fill="none" d="M 496.00 372.00 L 516.00 392.00 L 536.00 392.00 L 556.00 372.00 L 581.00 372.00 L 616.00 284.00 L 596.00 282.00 L 576.00 284.00 L 556.00 286.00 L 536.00 284.00 L 533.00 284.00 L 485.00 372.00 Z" stroke-width="1" id="304-03-03" stroke="black"/>
  <path fill="none" d="M 736.00 372.00 L 756.00 371.00 L 876.00 371.00 L 896.00 391.00 L 936.00 391.00 L 956.00 371.00 L 1014.00 371.00 L 1040.00 300.00 L 996.00 300.00 L 976.00 304.00 L 916.00 304.00 L 896.00 302.00 L 756.00 302.00 L 736.00 300.00 L 716.00 290.00 L 696.00 286.00 L 676.00 284.00 L 616.00 284.00 L 581.00 372.00 Z" stroke-width="1" id="304-03-04" stroke="black"/>
  <path fill="none" d="M 1076.00 371.00 L 1096.00 390.00 L 1105.00 399.00 L 1223.00 272.00 L 1176.00 272.00 L 1156.00 276.00 L 1136.00 286.00 L 1116.00 296.00 L 1096.00 300.00 L 1040.00 300.00 L 1014.00 371.00 Z" stroke-width="1" id="304-03-05" stroke="black"/>
  <path fill="none" d="M 1116.00 410.00 L 1156.00 410.00 L 1176.00 390.00 L 1196.00 370.00 L 1333.00 370.00 L 1364.00 276.00 L 1356.00 276.00 L 1336.00 274.00 L 1276.00 274.00 L 1256.00 272.00 L 1223.00 272.00 L 1105.00 399.00 Z" stroke-width="1" id="304-03-06" stroke="black"/>
  <path fill="none" d="M 1436.00 370.00 L 1456.00 369.00 L 1591.00 369.00 L 1615.00 284.00 L 1596.00 284.00 L 1576.00 282.00 L 1496.00 282.00 L 1476.00 280.00 L 1456.00 278.00 L 1436.00 278.00 L 1416.00 276.00 L 1364.00 276.00 L 1333.00 370.00 Z" stroke-width="1" id="304-03-07" stroke="black"/>
  <path fill="none" d="M 1776.00 369.00 L 1796.00 368.00 L 1839.30 368.00 L 1852.00 321.00 L 1847.24 294.00 L 1836.00 294.00 L 1816.00 292.00 L 1756.00 292.00 L 1736.00 290.00 L 1716.00 286.00 L 1636.00 286.00 L 1616.00 284.00 L 1615.00 284.00 L 1591.00 369.00 Z" stroke-width="1" id="304-03-08" stroke="black"/>
  <path fill="none" d="M 230.00 373.00 L 230.00 420.00 L 218.00 434.00 L 235.00 448.00 L 234.52 451.00 L 276.00 451.00 L 296.00 450.00 L 307.00 450.00 L 345.00 373.00 Z" stroke-width="1" id="304-04-01" stroke="black"/>
  <path fill="none" d="M 515.00 450.00 L 607.00 372.00 L 556.00 372.00 L 536.00 392.00 L 516.00 392.00 L 496.00 372.00 L 416.00 372.00 L 396.00 373.00 L 345.00 373.00 L 307.00 450.00 Z" stroke-width="1" id="304-04-02" stroke="black"/>
  <path fill="none" d="M 516.00 450.00 L 536.00 449.00 L 676.00 449.00 L 696.00 469.00 L 716.00 489.00 L 736.00 489.00 L 756.00 468.00 L 776.00 468.00 L 796.00 448.00 L 865.00 448.00 L 896.00 391.00 L 876.00 371.00 L 756.00 371.00 L 736.00 372.00 L 607.00 372.00 L 515.00 450.00 Z" stroke-width="1" id="304-04-03" stroke="black"/>
  <path fill="none" d="M 974.00 448.00 L 994.00 371.00 L 956.00 371.00 L 936.00 391.00 L 896.00 391.00 L 865.00 448.00 Z" stroke-width="1" id="304-04-04" stroke="black"/>
  <path fill="none" d="M 976.00 448.00 L 996.00 447.00 L 1196.00 447.00 L 1216.00 446.00 L 1296.00 446.00 L 1306.00 456.00 L 1354.00 370.00 L 1196.00 370.00 L 1176.00 390.00 L 1156.00 410.00 L 1116.00 410.00 L 1096.00 390.00 L 1076.00 371.00 L 994.00 371.00 L 974.00 448.00 Z" stroke-width="1" id="304-04-05" stroke="black"/>
  <path fill="none" d="M 1316.00 466.00 L 1356.00 466.00 L 1376.00 446.00 L 1436.00 446.00 L 1453.00 445.15 L 1465.00 369.00 L 1456.00 369.00 L 1436.00 370.00 L 1354.00 370.00 L 1306.00 456.00 Z" stroke-width="1" id="304-04-06" stroke="black"/>
  <path fill="none" d="M 1456.00 445.00 L 1516.00 445.00 L 1563.00 369.00 L 1465.00 369.00 L 1453.00 445.15 Z" stroke-width="1" id="304-04-07" stroke="black"/>
  <path fill="none" d="M 1536.00 465.00 L 1576.00 465.00 L 1596.00 445.00 L 1656.00 445.00 L 1676.00 444.00 L 1836.67 444.00 L 1832.00 395.00 L 1839.30 368.00 L 1796.00 368.00 L 1776.00 369.00 L 1563.00 369.00 L 1516.00 445.00 Z" stroke-width="1" id="304-04-08" stroke="black"/>
  <path fill="none" d="M 234.52 451.00 L 228.00 492.00 L 216.00 517.00 L 237.00 525.00 L 235.77 541.00 L 356.00 541.00 L 376.00 564.00 L 416.00 564.00 L 436.00 558.00 L 456.00 541.00 L 476.00 561.00 L 494.00 543.00 L 502.00 450.00 L 296.00 450.00 L 276.00 451.00 Z" stroke-width="1" id="304-05-01" stroke="black"/>
  <path fill="none" d="M 496.00 541.00 L 584.00 541.00 L 590.00 449.00 L 536.00 449.00 L 516.00 450.00 L 502.00 450.00 L 494.00 543.00 Z" stroke-width="1" id="304-05-02" stroke="black"/>
  <path fill="none" d="M 596.00 541.00 L 616.00 540.00 L 730.00 540.00 L 733.00 489.00 L 716.00 489.00 L 696.00 469.00 L 676.00 449.00 L 590.00 449.00 L 584.00 541.00 Z" stroke-width="1" id="304-05-03" stroke="black"/>
  <path fill="none" d="M 1056.00 540.00 L 1084.00 447.00 L 996.00 447.00 L 976.00 448.00 L 796.00 448.00 L 776.00 468.00 L 756.00 468.00 L 736.00 489.00 L 733.00 489.00 L 730.00 540.00 Z" stroke-width="1" id="304-05-04" stroke="black"/>
  <path fill="none" d="M 1076.00 560.00 L 1096.00 560.00 L 1116.00 540.00 L 1136.00 540.00 L 1142.00 539.70 L 1193.00 447.00 L 1084.00 447.00 L 1056.00 540.00 Z" stroke-width="1" id="304-05-05" stroke="black"/>
  <path fill="none" d="M 1156.00 539.00 L 1356.00 539.00 L 1356.00 466.00 L 1316.00 466.00 L 1296.00 446.00 L 1216.00 446.00 L 1196.00 447.00 L 1193.00 447.00 L 1142.00 539.70 Z" stroke-width="1" id="304-05-06" stroke="black"/>
  <path fill="none" d="M 1416.00 539.00 L 1436.00 559.00 L 1456.00 559.00 L 1476.00 539.00 L 1676.00 539.00 L 1696.00 538.00 L 1715.00 538.00 L 1729.67 444.00 L 1676.00 444.00 L 1656.00 445.00 L 1596.00 445.00 L 1576.00 465.00 L 1536.00 465.00 L 1516.00 445.00 L 1456.00 445.00 L 1436.00 446.00 L 1376.00 446.00 L 1356.00 466.00 L 1356.00 539.00 Z" stroke-width="1" id="304-05-07" stroke="black"/>
  <path fill="none" d="M 1759.00 538.00 L 1763.67 444.00 L 1729.67 444.00 L 1715.00 538.00 Z" stroke-width="1" id="304-05-08" stroke="black"/>
  <path fill="none" d="M 1837.22 538.00 L 1840.00 479.00 L 1836.67 444.00 L 1763.67 444.00 L 1759.00 538.00 Z" stroke-width="1" id="304-05-09" stroke="black"/>
  <path fill="none" d="M 235.77 541.00 L 232.00 590.00 L 223.00 604.00 L 226.00 618.00 L 226.33 628.00 L 438.33 628.00 L 476.00 561.00 L 456.00 541.00 L 436.00 558.00 L 416.00 564.00 L 376.00 564.00 L 356.00 541.00 Z" stroke-width="1" id="304-06-01" stroke="black"/>
  <path fill="none" d="M 561.33 628.00 L 595.00 541.00 L 496.00 541.00 L 476.00 561.00 L 438.33 628.00 Z" stroke-width="1" id="304-06-02" stroke="black"/>
  <path fill="none" d="M 576.00 628.00 L 596.00 648.00 L 616.00 648.00 L 636.00 628.00 L 664.00 628.00 L 705.00 540.00 L 616.00 540.00 L 596.00 541.00 L 595.00 541.00 L 561.33 628.00 Z" stroke-width="1" id="304-06-03" stroke="black"/>
  <path fill="none" d="M 978.00 628.00 L 959.00 540.00 L 705.00 540.00 L 664.00 628.00 Z" stroke-width="1" id="304-06-04" stroke="black"/>
  <path fill="none" d="M 1045.00 628.00 L 1083.00 560.00 L 1076.00 560.00 L 1056.00 540.00 L 959.00 540.00 L 978.00 628.00 Z" stroke-width="1" id="304-06-05" stroke="black"/>
  <path fill="none" d="M 1185.00 628.00 L 1203.00 625.75 L 1217.00 539.00 L 1156.00 539.00 L 1136.00 540.00 L 1116.00 540.00 L 1096.00 560.00 L 1083.00 560.00 L 1045.00 628.00 Z" stroke-width="1" id="304-06-06" stroke="black"/>
  <path fill="none" d="M 1297.00 614.00 L 1531.00 613.13 L 1555.00 539.00 L 1476.00 539.00 L 1456.00 559.00 L 1436.00 559.00 L 1416.00 539.00 L 1217.00 539.00 L 1203.00 625.75 Z" stroke-width="1" id="304-06-07" stroke="black"/>
  <path fill="none" d="M 1567.00 613.00 L 1679.88 627.00 L 1702.75 627.00 L 1732.75 618.11 L 1734.22 538.00 L 1696.00 538.00 L 1676.00 539.00 L 1555.00 539.00 L 1531.00 613.13 Z" stroke-width="1" id="304-06-08" stroke="black"/>
  <path fill="none" d="M 1750.00 613.00 L 1842.00 610.00 L 1836.00 564.00 L 1837.22 538.00 L 1734.22 538.00 L 1732.75 618.11 Z" stroke-width="1" id="304-06-09" stroke="black"/>
  <path fill="none" d="M 226.33 628.00 L 228.00 678.00 L 220.00 689.00 L 226.00 700.00 L 399.00 701.23 L 427.00 628.00 Z" stroke-width="1" id="304-07-01" stroke="black"/>
  <path fill="none" d="M 565.00 702.40 L 596.00 648.00 L 576.00 628.00 L 427.00 628.00 L 399.00 701.23 Z" stroke-width="1" id="304-07-02" stroke="black"/>
  <path fill="none" d="M 790.00 704.00 L 858.00 702.65 L 862.00 628.00 L 636.00 628.00 L 616.00 648.00 L 596.00 648.00 L 565.00 702.40 Z" stroke-width="1" id="304-07-03" stroke="black"/>
  <path fill="none" d="M 1083.00 698.18 L 1091.00 628.00 L 862.00 628.00 L 858.00 702.65 Z" stroke-width="1" id="304-07-04" stroke="black"/>
  <path fill="none" d="M 1193.00 696.00 L 1213.00 696.99 L 1213.00 669.91 L 1190.00 666.00 L 1185.00 628.00 L 1091.00 628.00 L 1083.00 698.18 Z" stroke-width="1" id="304-07-05" stroke="black"/>
  <path fill="none" d="M 1276.00 800.00 L 1296.00 796.00 L 1311.66 796.00 L 1411.00 774.00 L 1458.00 708.00 L 1312.29 686.23 L 1296.00 696.00 L 1286.72 700.64 L 1294.00 701.00 L 1258.00 750.00 L 1257.00 784.00 L 1275.00 800.00 Z" stroke-width="1" id="304-08-01" stroke="black"/>
  <path fill="none" d="M 228.00 856.00 L 226.00 868.00 L 492.17 877.15 L 496.00 876.00 L 556.00 876.00 L 576.00 868.00 L 596.00 868.00 L 616.00 874.00 L 696.00 874.00 L 716.00 872.00 L 802.00 872.00 L 820.00 794.00 L 776.00 794.00 L 756.00 795.00 L 618.00 795.00 L 615.92 795.04 L 596.00 805.00 L 576.00 805.00 L 558.18 796.09 L 343.00 800.00 Z" stroke-width="1" id="304-09-01" stroke="black"/>
  <path fill="none" d="M 876.00 872.00 L 896.00 874.00 L 916.00 876.00 L 936.00 878.00 L 996.00 878.00 L 1016.00 880.00 L 1127.73 880.00 L 1122.00 838.00 L 1114.10 792.13 L 1046.00 796.00 L 893.00 790.00 L 842.15 790.92 L 836.00 794.00 L 820.00 794.00 L 802.00 872.00 Z" stroke-width="1" id="304-09-02" stroke="black"/>
  <path fill="none" d="M 492.17 877.15 L 546.00 879.00 L 508.00 916.00 L 504.60 923.72 L 516.00 926.00 L 586.00 926.00 L 616.00 874.00 L 596.00 868.00 L 576.00 868.00 L 556.00 876.00 L 496.00 876.00 Z" stroke-width="1" id="304-10-01" stroke="black"/>
  <path fill="none" d="M 616.00 926.00 L 636.00 924.00 L 794.00 924.00 L 798.00 872.00 L 716.00 872.00 L 696.00 874.00 L 616.00 874.00 L 586.00 926.00 Z" stroke-width="1" id="304-10-02" stroke="black"/>
  <path fill="none" d="M 154.00 960.00 L 135.00 980.00 L 131.00 1046.00 L 198.00 1045.48 L 245.00 946.00 L 192.11 946.00 Z" stroke-width="1" id="304-11-01" stroke="black"/>
  <path fill="none" d="M 260.00 1045.00 L 346.00 1045.77 L 425.00 947.00 L 416.00 947.00 L 400.70 940.12 L 388.00 940.00 L 343.60 940.48 L 336.00 942.00 L 316.00 946.00 L 245.00 946.00 L 198.00 1045.48 Z" stroke-width="1" id="304-11-02" stroke="black"/>
  <path fill="none" d="M 586.00 1047.92 L 695.00 948.00 L 596.00 948.00 L 576.00 947.00 L 425.00 947.00 L 346.00 1045.77 Z" stroke-width="1" id="304-11-03" stroke="black"/>
  <path fill="none" d="M 706.00 1049.00 L 700.51 1053.00 L 856.00 1053.00 L 876.00 1052.00 L 1035.00 1052.00 L 1044.00 949.00 L 876.00 949.00 L 856.00 948.00 L 695.00 948.00 L 586.00 1047.92 Z" stroke-width="1" id="304-11-04" stroke="black"/>
  <path fill="none" d="M 1116.00 1052.00 L 1136.00 1072.00 L 1156.00 1092.00 L 1176.00 1072.00 L 1196.00 1072.00 L 1216.00 1052.00 L 1336.00 1052.00 L 1356.00 1072.00 L 1376.00 1052.00 L 1393.00 1052.00 L 1407.00 952.13 L 1267.67 950.00 L 1136.00 950.00 L 1116.00 949.00 L 1044.00 949.00 L 1035.00 1052.00 Z" stroke-width="1" id="304-11-05" stroke="black"/>
  <path fill="none" d="M 1396.00 1052.00 L 1416.00 1072.00 L 1456.00 1072.00 L 1476.00 1052.00 L 1676.00 1052.00 L 1696.00 1051.00 L 1777.15 1051.00 L 1756.00 1035.00 L 1760.00 1002.00 L 1694.00 963.00 L 1529.00 954.00 L 1407.00 952.13 L 1393.00 1052.00 Z" stroke-width="1" id="304-11-06" stroke="black"/>
  <path fill="none" d="M 658.00 1084.00 L 654.00 1126.00 L 648.24 1134.00 L 756.00 1134.00 L 776.00 1133.00 L 790.00 1133.00 L 795.00 1053.00 L 700.51 1053.00 Z" stroke-width="1" id="304-12-01" stroke="black"/>
  <path fill="none" d="M 996.00 1133.00 L 1016.00 1152.00 L 1036.00 1152.00 L 1056.00 1132.00 L 1076.00 1052.00 L 876.00 1052.00 L 856.00 1053.00 L 795.00 1053.00 L 790.00 1133.00 Z" stroke-width="1" id="304-12-02" stroke="black"/>
  <path fill="none" d="M 1116.00 1132.00 L 1136.00 1152.00 L 1176.00 1152.00 L 1196.00 1132.00 L 1236.00 1132.00 L 1256.00 1131.00 L 1316.00 1131.00 L 1327.00 1153.00 L 1431.00 1072.00 L 1416.00 1072.00 L 1396.00 1052.00 L 1376.00 1052.00 L 1356.00 1072.00 L 1336.00 1052.00 L 1216.00 1052.00 L 1196.00 1072.00 L 1176.00 1072.00 L 1156.00 1092.00 L 1136.00 1072.00 L 1116.00 1052.00 L 1076.00 1052.00 L 1056.00 1132.00 Z" stroke-width="1" id="304-12-03" stroke="black"/>
  <path fill="none" d="M 1336.00 1171.00 L 1396.00 1171.00 L 1416.00 1151.00 L 1436.00 1131.00 L 1456.00 1131.00 L 1476.00 1130.00 L 1583.00 1130.00 L 1605.00 1052.00 L 1476.00 1052.00 L 1456.00 1072.00 L 1431.00 1072.00 L 1327.00 1153.00 Z" stroke-width="1" id="304-12-04" stroke="black"/>
  <path fill="none" d="M 1696.00 1130.00 L 1716.00 1129.00 L 1796.00 1129.00 L 1816.00 1149.00 L 1831.53 1133.47 L 1836.00 1110.00 L 1834.00 1094.00 L 1777.15 1051.00 L 1696.00 1051.00 L 1676.00 1052.00 L 1605.00 1052.00 L 1583.00 1130.00 Z" stroke-width="1" id="304-12-05" stroke="black"/>
  <path fill="none" d="M 206.00 1200.00 L 232.00 1217.00 L 232.00 1222.00 L 396.00 1222.00 L 416.00 1242.00 L 476.00 1242.00 L 496.00 1222.00 L 515.00 1222.00 L 528.00 1146.58 L 294.00 1137.00 Z" stroke-width="1" id="304-13-01" stroke="black"/>
  <path fill="none" d="M 516.00 1222.00 L 536.00 1221.00 L 769.00 1221.00 L 758.00 1133.90 L 756.00 1134.00 L 648.24 1134.00 L 636.00 1151.00 L 528.00 1146.58 L 515.00 1222.00 Z" stroke-width="1" id="304-13-02" stroke="black"/>
  <path fill="none" d="M 776.00 1221.00 L 796.00 1241.00 L 799.00 1244.00 L 942.00 1133.00 L 776.00 1133.00 L 758.00 1133.90 L 769.00 1221.00 Z" stroke-width="1" id="304-13-03" stroke="black"/>
  <path fill="none" d="M 816.00 1261.00 L 836.00 1261.00 L 856.00 1241.00 L 876.00 1241.00 L 896.00 1221.00 L 951.00 1221.00 L 991.00 1133.00 L 942.00 1133.00 L 799.00 1244.00 Z" stroke-width="1" id="304-13-04" stroke="black"/>
  <path fill="none" d="M 976.00 1221.00 L 996.00 1220.00 L 1190.00 1220.00 L 1221.00 1132.00 L 1196.00 1132.00 L 1176.00 1152.00 L 1136.00 1152.00 L 1116.00 1132.00 L 1056.00 1132.00 L 1036.00 1152.00 L 1016.00 1152.00 L 996.00 1133.00 L 991.00 1133.00 L 951.00 1221.00 Z" stroke-width="1" id="304-13-05" stroke="black"/>
  <path fill="none" d="M 1346.00 1220.00 L 1371.00 1171.00 L 1336.00 1171.00 L 1316.00 1131.00 L 1256.00 1131.00 L 1236.00 1132.00 L 1221.00 1132.00 L 1190.00 1220.00 Z" stroke-width="1" id="304-13-06" stroke="black"/>
  <path fill="none" d="M 1416.00 1220.00 L 1436.00 1240.00 L 1456.00 1239.00 L 1476.00 1219.00 L 1565.00 1219.00 L 1609.00 1130.00 L 1476.00 1130.00 L 1456.00 1131.00 L 1436.00 1131.00 L 1416.00 1151.00 L 1396.00 1171.00 L 1371.00 1171.00 L 1346.00 1220.00 Z" stroke-width="1" id="304-13-07" stroke="black"/>
  <path fill="none" d="M 1682.00 1219.00 L 1712.00 1129.20 L 1696.00 1130.00 L 1609.00 1130.00 L 1565.00 1219.00 Z" stroke-width="1" id="304-13-08" stroke="black"/>
  <path fill="none" d="M 1811.04 1219.00 L 1820.00 1194.00 L 1831.53 1133.47 L 1816.00 1149.00 L 1796.00 1129.00 L 1716.00 1129.00 L 1712.00 1129.20 L 1682.00 1219.00 Z" stroke-width="1" id="304-13-09" stroke="black"/>
  <path fill="none" d="M 232.00 1222.00 L 232.00 1267.00 L 217.00 1286.00 L 229.00 1296.00 L 228.76 1309.00 L 316.00 1309.00 L 336.00 1329.00 L 356.00 1329.00 L 376.00 1309.00 L 465.00 1309.00 L 473.00 1242.00 L 416.00 1242.00 L 396.00 1222.00 Z" stroke-width="1" id="304-14-01" stroke="black"/>
  <path fill="none" d="M 649.00 1309.00 L 682.00 1221.00 L 536.00 1221.00 L 516.00 1222.00 L 496.00 1222.00 L 476.00 1242.00 L 473.00 1242.00 L 465.00 1309.00 Z" stroke-width="1" id="304-14-02" stroke="black"/>
  <path fill="none" d="M 793.00 1309.00 L 817.00 1261.00 L 816.00 1261.00 L 796.00 1241.00 L 776.00 1221.00 L 682.00 1221.00 L 649.00 1309.00 Z" stroke-width="1" id="304-14-03" stroke="black"/>
  <path fill="none" d="M 1276.00 1309.00 L 1292.00 1309.80 L 1300.00 1220.00 L 996.00 1220.00 L 976.00 1221.00 L 896.00 1221.00 L 876.00 1241.00 L 856.00 1241.00 L 836.00 1261.00 L 817.00 1261.00 L 793.00 1309.00 Z" stroke-width="1" id="304-14-04" stroke="black"/>
  <path fill="none" d="M 1296.00 1310.00 L 1375.00 1310.00 L 1404.00 1220.00 L 1300.00 1220.00 L 1292.00 1309.80 Z" stroke-width="1" id="304-14-05" stroke="black"/>
  <path fill="none" d="M 1685.00 1310.00 L 1711.04 1219.00 L 1476.00 1219.00 L 1456.00 1239.00 L 1436.00 1240.00 L 1416.00 1220.00 L 1404.00 1220.00 L 1375.00 1310.00 Z" stroke-width="1" id="304-14-06" stroke="black"/>
  <path fill="none" d="M 1804.25 1310.00 L 1796.00 1261.00 L 1811.04 1219.00 L 1711.04 1219.00 L 1685.00 1310.00 Z" stroke-width="1" id="304-14-07" stroke="black"/>
  <path fill="none" d="M 228.76 1309.00 L 228.00 1351.00 L 218.00 1370.00 L 227.00 1386.00 L 226.40 1397.00 L 376.40 1397.00 L 401.00 1309.00 L 376.00 1309.00 L 356.00 1329.00 L 336.00 1329.00 L 316.00 1309.00 Z" stroke-width="1" id="304-15-01" stroke="black"/>
  <path fill="none" d="M 396.00 1397.00 L 416.00 1417.00 L 456.00 1417.00 L 476.00 1397.00 L 496.00 1398.00 L 556.00 1398.00 L 563.00 1412.00 L 682.00 1309.00 L 401.00 1309.00 L 376.40 1397.00 Z" stroke-width="1" id="304-15-02" stroke="black"/>
  <path fill="none" d="M 576.00 1438.00 L 596.00 1438.00 L 616.00 1418.00 L 636.00 1418.00 L 656.00 1398.00 L 776.00 1398.00 L 868.00 1309.00 L 682.00 1309.00 L 563.00 1412.00 Z" stroke-width="1" id="304-15-03" stroke="black"/>
  <path fill="none" d="M 796.00 1418.00 L 816.00 1418.00 L 836.00 1398.00 L 916.00 1398.00 L 936.00 1399.00 L 957.00 1399.00 L 951.00 1309.00 L 868.00 1309.00 L 776.00 1398.00 Z" stroke-width="1" id="304-15-04" stroke="black"/>
  <path fill="none" d="M 1091.00 1399.00 L 1146.00 1309.00 L 951.00 1309.00 L 957.00 1399.00 Z" stroke-width="1" id="304-15-05" stroke="black"/>
  <path fill="none" d="M 1136.00 1399.00 L 1156.00 1379.00 L 1176.00 1399.00 L 1216.00 1399.00 L 1236.00 1379.00 L 1256.00 1379.00 L 1276.00 1399.00 L 1296.00 1399.00 L 1316.00 1379.00 L 1336.00 1399.00 L 1356.00 1399.00 L 1376.00 1400.00 L 1472.00 1400.00 L 1525.25 1310.00 L 1296.00 1310.00 L 1276.00 1309.00 L 1146.00 1309.00 L 1091.00 1399.00 Z" stroke-width="1" id="304-15-06" stroke="black"/>
  <path fill="none" d="M 1547.00 1400.00 L 1604.25 1310.00 L 1525.25 1310.00 L 1472.00 1400.00 Z" stroke-width="1" id="304-15-07" stroke="black"/>
  <path fill="none" d="M 1696.00 1400.00 L 1701.25 1310.00 L 1604.25 1310.00 L 1547.00 1400.00 Z" stroke-width="1" id="304-15-08" stroke="black"/>
  <path fill="none" d="M 1776.00 1400.00 L 1796.00 1401.00 L 1816.00 1401.00 L 1836.00 1381.00 L 1846.21 1381.00 L 1812.00 1356.00 L 1804.25 1310.00 L 1701.25 1310.00 L 1696.00 1400.00 Z" stroke-width="1" id="304-15-09" stroke="black"/>
  <path fill="none" d="M 226.40 1397.00 L 224.00 1441.00 L 214.00 1459.00 L 223.00 1472.00 L 223.32 1481.00 L 536.00 1481.00 L 576.00 1438.00 L 556.00 1398.00 L 496.00 1398.00 L 476.00 1397.00 L 456.00 1417.00 L 416.00 1417.00 L 396.00 1397.00 Z" stroke-width="1" id="304-16-01" stroke="black"/>
  <path fill="none" d="M 556.00 1501.00 L 576.00 1501.00 L 596.00 1481.00 L 874.00 1481.00 L 887.00 1398.00 L 836.00 1398.00 L 816.00 1418.00 L 796.00 1418.00 L 776.00 1398.00 L 656.00 1398.00 L 636.00 1418.00 L 616.00 1418.00 L 596.00 1438.00 L 576.00 1438.00 L 536.00 1481.00 Z" stroke-width="1" id="304-16-02" stroke="black"/>
  <path fill="none" d="M 916.00 1481.00 L 936.00 1461.00 L 956.00 1481.00 L 1142.00 1481.00 L 1198.00 1399.00 L 1176.00 1399.00 L 1156.00 1379.00 L 1136.00 1399.00 L 936.00 1399.00 L 916.00 1398.00 L 887.00 1398.00 L 874.00 1481.00 Z" stroke-width="1" id="304-16-03" stroke="black"/>
  <path fill="none" d="M 1206.00 1481.00 L 1276.00 1399.00 L 1256.00 1379.00 L 1236.00 1379.00 L 1216.00 1399.00 L 1198.00 1399.00 L 1142.00 1481.00 Z" stroke-width="1" id="304-16-04" stroke="black"/>
  <path fill="none" d="M 1396.00 1481.00 L 1416.00 1482.00 L 1524.00 1482.00 L 1537.00 1400.00 L 1376.00 1400.00 L 1356.00 1399.00 L 1336.00 1399.00 L 1316.00 1379.00 L 1296.00 1399.00 L 1276.00 1399.00 L 1206.00 1481.00 Z" stroke-width="1" id="304-16-05" stroke="black"/>
  <path fill="none" d="M 1654.00 1482.00 L 1662.00 1400.00 L 1537.00 1400.00 L 1524.00 1482.00 Z" stroke-width="1" id="304-16-06" stroke="black"/>
  <path fill="none" d="M 1854.36 1482.00 L 1864.00 1394.00 L 1846.21 1381.00 L 1836.00 1381.00 L 1816.00 1401.00 L 1796.00 1401.00 L 1776.00 1400.00 L 1662.00 1400.00 L 1654.00 1482.00 Z" stroke-width="1" id="304-16-07" stroke="black"/>
  <path fill="none" d="M 223.32 1481.00 L 225.00 1528.00 L 214.00 1546.00 L 224.00 1557.00 L 223.89 1560.00 L 403.89 1560.00 L 448.00 1481.00 Z" stroke-width="1" id="304-17-01" stroke="black"/>
  <path fill="none" d="M 456.00 1560.00 L 476.00 1580.00 L 516.00 1580.00 L 536.00 1560.00 L 650.00 1560.00 L 698.00 1481.00 L 596.00 1481.00 L 576.00 1501.00 L 556.00 1501.00 L 536.00 1481.00 L 448.00 1481.00 L 403.89 1560.00 Z" stroke-width="1" id="304-17-02" stroke="black"/>
  <path fill="none" d="M 1001.00 1560.00 L 1030.00 1481.00 L 956.00 1481.00 L 936.00 1461.00 L 916.00 1481.00 L 698.00 1481.00 L 650.00 1560.00 Z" stroke-width="1" id="304-17-03" stroke="black"/>
  <path fill="none" d="M 1016.00 1560.00 L 1036.00 1580.00 L 1096.00 1580.00 L 1116.00 1560.00 L 1376.00 1560.00 L 1396.00 1580.00 L 1436.00 1580.00 L 1456.00 1560.00 L 1463.00 1560.00 L 1554.36 1482.00 L 1416.00 1482.00 L 1396.00 1481.00 L 1030.00 1481.00 L 1001.00 1560.00 Z" stroke-width="1" id="304-17-04" stroke="black"/>
  <path fill="none" d="M 1616.00 1560.00 L 1636.00 1580.00 L 1656.00 1580.00 L 1676.00 1560.00 L 1680.00 1560.00 L 1705.36 1482.00 L 1554.36 1482.00 L 1463.00 1560.00 Z" stroke-width="1" id="304-17-05" stroke="black"/>
  <path fill="none" d="M 1796.00 1560.00 L 1816.00 1580.00 L 1836.00 1560.00 L 1848.68 1560.00 L 1849.00 1531.00 L 1854.36 1482.00 L 1705.36 1482.00 L 1680.00 1560.00 Z" stroke-width="1" id="304-17-06" stroke="black"/>
  <path fill="none" d="M 223.89 1560.00 L 222.00 1610.00 L 202.00 1617.00 L 226.00 1636.00 L 224.63 1657.57 L 236.00 1657.00 L 332.00 1657.00 L 369.00 1560.00 Z" stroke-width="1" id="304-18-01" stroke="black"/>
  <path fill="none" d="M 376.00 1657.00 L 396.00 1656.00 L 456.00 1656.00 L 476.00 1676.00 L 516.00 1676.00 L 536.00 1656.00 L 550.00 1655.30 L 576.00 1560.00 L 536.00 1560.00 L 516.00 1580.00 L 476.00 1580.00 L 456.00 1560.00 L 369.00 1560.00 L 332.00 1657.00 Z" stroke-width="1" id="304-18-02" stroke="black"/>
  <path fill="none" d="M 556.00 1655.00 L 696.00 1655.00 L 716.00 1654.00 L 730.00 1654.00 L 715.00 1560.00 L 576.00 1560.00 L 550.00 1655.30 Z" stroke-width="1" id="304-18-03" stroke="black"/>
  <path fill="none" d="M 856.00 1654.00 L 876.00 1653.00 L 929.00 1653.00 L 948.00 1560.00 L 715.00 1560.00 L 730.00 1654.00 Z" stroke-width="1" id="304-18-04" stroke="black"/>
  <path fill="none" d="M 1016.00 1653.00 L 1036.00 1652.00 L 1160.00 1652.00 L 1185.00 1560.00 L 1116.00 1560.00 L 1096.00 1580.00 L 1036.00 1580.00 L 1016.00 1560.00 L 948.00 1560.00 L 929.00 1653.00 Z" stroke-width="1" id="304-18-05" stroke="black"/>
  <path fill="none" d="M 1176.00 1652.00 L 1196.00 1651.00 L 1236.00 1651.00 L 1256.00 1631.00 L 1296.00 1631.00 L 1316.00 1651.00 L 1322.00 1651.00 L 1344.00 1560.00 L 1185.00 1560.00 L 1160.00 1652.00 Z" stroke-width="1" id="304-18-06" stroke="black"/>
  <path fill="none" d="M 1336.00 1651.00 L 1356.00 1650.00 L 1456.00 1650.00 L 1476.00 1670.00 L 1496.00 1630.00 L 1516.00 1649.00 L 1536.00 1629.00 L 1556.00 1649.00 L 1656.00 1649.00 L 1676.00 1648.00 L 1736.00 1648.00 L 1789.00 1560.00 L 1676.00 1560.00 L 1656.00 1580.00 L 1636.00 1580.00 L 1616.00 1560.00 L 1456.00 1560.00 L 1436.00 1580.00 L 1396.00 1580.00 L 1376.00 1560.00 L 1344.00 1560.00 L 1322.00 1651.00 Z" stroke-width="1" id="304-18-07" stroke="black"/>
  <path fill="none" d="M 1756.00 1668.00 L 1776.00 1648.00 L 1816.00 1648.00 L 1836.00 1647.00 L 1850.56 1647.00 L 1848.00 1622.00 L 1848.68 1560.00 L 1836.00 1560.00 L 1816.00 1580.00 L 1796.00 1560.00 L 1789.00 1560.00 L 1736.00 1648.00 Z" stroke-width="1" id="304-18-08" stroke="black"/>
  <path fill="none" d="M 224.63 1657.57 L 222.00 1699.00 L 206.00 1714.00 L 222.00 1729.00 L 221.93 1733.00 L 236.00 1733.00 L 256.00 1732.00 L 316.00 1732.00 L 336.00 1731.00 L 356.00 1731.00 L 376.00 1751.00 L 396.00 1771.00 L 416.00 1751.00 L 436.00 1750.00 L 456.00 1730.00 L 466.00 1730.00 L 489.00 1676.00 L 476.00 1676.00 L 456.00 1656.00 L 396.00 1656.00 L 376.00 1657.00 L 236.00 1657.00 Z" stroke-width="1" id="304-19-01" stroke="black"/>
  <path fill="none" d="M 496.00 1730.00 L 516.00 1729.00 L 596.00 1729.00 L 607.00 1747.15 L 686.00 1655.00 L 556.00 1655.00 L 536.00 1656.00 L 516.00 1676.00 L 489.00 1676.00 L 466.00 1730.00 Z" stroke-width="1" id="304-19-02" stroke="black"/>
  <path fill="none" d="M 616.00 1762.00 L 636.00 1766.00 L 656.00 1768.00 L 676.00 1748.00 L 696.00 1727.00 L 776.00 1727.00 L 796.00 1726.00 L 876.00 1726.00 L 896.00 1725.00 L 956.00 1725.00 L 976.00 1724.00 L 988.00 1724.00 L 993.00 1653.00 L 876.00 1653.00 L 856.00 1654.00 L 716.00 1654.00 L 696.00 1655.00 L 686.00 1655.00 L 607.00 1747.15 Z" stroke-width="1" id="304-19-03" stroke="black"/>
  <path fill="none" d="M 1136.00 1723.00 L 1156.00 1722.00 L 1236.00 1722.00 L 1256.00 1721.00 L 1316.00 1721.00 L 1336.00 1720.00 L 1416.00 1720.00 L 1425.00 1719.55 L 1469.00 1663.00 L 1456.00 1650.00 L 1356.00 1650.00 L 1336.00 1651.00 L 1316.00 1651.00 L 1296.00 1631.00 L 1256.00 1631.00 L 1236.00 1651.00 L 1196.00 1651.00 L 1176.00 1652.00 L 1102.00 1652.00 L 1099.00 1723.00 Z" stroke-width="1" id="304-19-04" stroke="black"/>
  <path fill="none" d="M 1436.00 1719.00 L 1477.00 1719.00 L 1556.00 1649.00 L 1536.00 1629.00 L 1516.00 1649.00 L 1496.00 1630.00 L 1476.00 1670.00 L 1469.00 1663.00 L 1425.00 1719.55 Z" stroke-width="1" id="304-19-05" stroke="black"/>
  <path fill="none" d="M 1516.00 1719.00 L 1536.00 1738.00 L 1576.00 1738.00 L 1596.00 1718.00 L 1616.00 1717.00 L 1659.00 1717.00 L 1671.00 1648.25 L 1656.00 1649.00 L 1556.00 1649.00 L 1477.00 1719.00 Z" stroke-width="1" id="304-19-06" stroke="black"/>
  <path fill="none" d="M 1696.00 1717.00 L 1716.00 1716.00 L 1776.00 1716.00 L 1796.00 1715.00 L 1856.95 1715.00 L 1856.00 1700.00 L 1850.56 1647.00 L 1836.00 1647.00 L 1816.00 1648.00 L 1776.00 1648.00 L 1756.00 1668.00 L 1736.00 1648.00 L 1676.00 1648.00 L 1671.00 1648.25 L 1659.00 1717.00 Z" stroke-width="1" id="304-19-07" stroke="black"/>
  <path fill="none" d="M 221.93 1733.00 L 221.00 1790.00 L 208.00 1803.00 L 220.00 1813.00 L 220.54 1826.00 L 336.00 1826.00 L 356.00 1825.00 L 436.00 1825.00 L 456.00 1865.00 L 476.00 1845.00 L 496.00 1865.00 L 516.00 1844.00 L 536.00 1824.00 L 576.00 1824.00 L 596.00 1844.00 L 616.00 1844.00 L 635.00 1825.00 L 656.00 1768.00 L 636.00 1766.00 L 616.00 1762.00 L 596.00 1729.00 L 516.00 1729.00 L 496.00 1730.00 L 456.00 1730.00 L 436.00 1750.00 L 416.00 1751.00 L 396.00 1771.00 L 376.00 1751.00 L 356.00 1731.00 L 336.00 1731.00 L 316.00 1732.00 L 256.00 1732.00 L 236.00 1733.00 Z" stroke-width="1" id="304-20-01" stroke="black"/>
  <path fill="none" d="M 636.00 1824.00 L 656.00 1823.00 L 695.00 1823.00 L 770.00 1727.00 L 696.00 1727.00 L 676.00 1748.00 L 656.00 1768.00 L 635.00 1825.00 Z" stroke-width="1" id="304-20-02" stroke="black"/>
  <path fill="none" d="M 776.00 1823.00 L 796.00 1822.00 L 936.00 1822.00 L 956.00 1821.00 L 1048.00 1821.00 L 1063.00 1723.65 L 1056.00 1724.00 L 976.00 1724.00 L 956.00 1725.00 L 896.00 1725.00 L 876.00 1726.00 L 796.00 1726.00 L 776.00 1727.00 L 770.00 1727.00 L 695.00 1823.00 Z" stroke-width="1" id="304-20-03" stroke="black"/>
  <path fill="none" d="M 1076.00 1821.00 L 1096.00 1820.00 L 1116.00 1820.00 L 1178.00 1722.00 L 1156.00 1722.00 L 1136.00 1723.00 L 1076.00 1723.00 L 1063.00 1723.65 L 1048.00 1821.00 Z" stroke-width="1" id="304-20-04" stroke="black"/>
  <path fill="none" d="M 1136.00 1840.00 L 1156.00 1840.00 L 1176.00 1820.00 L 1216.00 1820.00 L 1236.00 1819.00 L 1376.00 1819.00 L 1396.00 1818.00 L 1440.00 1818.00 L 1483.00 1719.00 L 1436.00 1719.00 L 1416.00 1720.00 L 1336.00 1720.00 L 1316.00 1721.00 L 1256.00 1721.00 L 1236.00 1722.00 L 1178.00 1722.00 L 1116.00 1820.00 Z" stroke-width="1" id="304-20-05" stroke="black"/>
  <path fill="none" d="M 1516.00 1818.00 L 1530.00 1817.30 L 1567.00 1738.00 L 1536.00 1738.00 L 1516.00 1719.00 L 1483.00 1719.00 L 1440.00 1818.00 Z" stroke-width="1" id="304-20-06" stroke="black"/>
  <path fill="none" d="M 1536.00 1817.00 L 1656.00 1817.00 L 1676.00 1816.00 L 1816.00 1816.00 L 1836.00 1815.00 L 1859.05 1815.00 L 1861.00 1779.00 L 1856.95 1715.00 L 1796.00 1715.00 L 1776.00 1716.00 L 1716.00 1716.00 L 1696.00 1717.00 L 1616.00 1717.00 L 1596.00 1718.00 L 1576.00 1738.00 L 1567.00 1738.00 L 1530.00 1817.30 Z" stroke-width="1" id="304-20-07" stroke="black"/>
  <path fill="none" d="M 220.54 1826.00 L 222.00 1861.00 L 209.00 1869.00 L 218.00 1878.00 L 220.00 1904.00 L 220.44 1910.00 L 341.44 1910.00 L 367.00 1825.00 L 356.00 1825.00 L 336.00 1826.00 Z" stroke-width="1" id="304-21-01" stroke="black"/>
  <path fill="none" d="M 376.00 1910.00 L 396.00 1909.00 L 489.00 1909.00 L 496.00 1865.00 L 476.00 1845.00 L 456.00 1865.00 L 436.00 1825.00 L 367.00 1825.00 L 341.44 1910.00 Z" stroke-width="1" id="304-21-02" stroke="black"/>
  <path fill="none" d="M 716.00 1909.00 L 736.00 1908.00 L 756.00 1924.00 L 776.00 1924.00 L 796.00 1920.00 L 816.00 1908.00 L 863.00 1908.00 L 867.00 1822.00 L 796.00 1822.00 L 776.00 1823.00 L 656.00 1823.00 L 636.00 1824.00 L 616.00 1844.00 L 596.00 1844.00 L 576.00 1824.00 L 536.00 1824.00 L 516.00 1844.00 L 496.00 1865.00 L 489.00 1909.00 Z" stroke-width="1" id="304-21-03" stroke="black"/>
  <path fill="none" d="M 876.00 1908.00 L 896.00 1928.00 L 916.00 1908.00 L 1056.00 1908.00 L 1076.00 1907.00 L 1079.00 1907.00 L 1110.00 1820.00 L 1096.00 1820.00 L 1076.00 1821.00 L 956.00 1821.00 L 936.00 1822.00 L 867.00 1822.00 L 863.00 1908.00 Z" stroke-width="1" id="304-21-04" stroke="black"/>
  <path fill="none" d="M 1357.00 1907.00 L 1371.00 1819.00 L 1236.00 1819.00 L 1216.00 1820.00 L 1176.00 1820.00 L 1156.00 1840.00 L 1136.00 1840.00 L 1116.00 1820.00 L 1110.00 1820.00 L 1079.00 1907.00 Z" stroke-width="1" id="304-21-05" stroke="black"/>
  <path fill="none" d="M 1396.00 1907.00 L 1416.00 1906.00 L 1479.00 1906.00 L 1508.00 1818.00 L 1396.00 1818.00 L 1376.00 1819.00 L 1371.00 1819.00 L 1357.00 1907.00 Z" stroke-width="1" id="304-21-06" stroke="black"/>
  <path fill="none" d="M 1736.00 1906.00 L 1756.00 1905.00 L 1899.56 1905.00 L 1906.00 1876.00 L 1859.00 1816.00 L 1859.05 1815.00 L 1836.00 1815.00 L 1816.00 1816.00 L 1676.00 1816.00 L 1656.00 1817.00 L 1536.00 1817.00 L 1516.00 1818.00 L 1508.00 1818.00 L 1479.00 1906.00 Z" stroke-width="1" id="304-21-07" stroke="black"/>
  <path fill="none" d="M 220.44 1910.00 L 224.00 1959.00 L 210.00 1974.00 L 222.00 1983.00 L 222.37 2004.00 L 256.00 2004.00 L 276.00 2024.00 L 296.00 2020.00 L 316.00 2016.00 L 336.00 2008.00 L 356.00 2004.00 L 449.00 2004.00 L 466.00 1909.00 L 396.00 1909.00 L 376.00 1910.00 Z" stroke-width="1" id="304-22-01" stroke="black"/>
  <path fill="none" d="M 716.00 2004.00 L 736.00 2003.00 L 776.00 2003.00 L 796.00 2023.00 L 816.00 2023.00 L 836.00 2003.00 L 865.00 2003.00 L 896.00 1928.00 L 876.00 1908.00 L 816.00 1908.00 L 796.00 1920.00 L 776.00 1924.00 L 756.00 1924.00 L 736.00 1908.00 L 716.00 1909.00 L 466.00 1909.00 L 449.00 2004.00 Z" stroke-width="1" id="304-22-02" stroke="black"/>
  <path fill="none" d="M 1047.00 2003.00 L 1062.00 1907.70 L 1056.00 1908.00 L 916.00 1908.00 L 896.00 1928.00 L 865.00 2003.00 Z" stroke-width="1" id="304-22-03" stroke="black"/>
  <path fill="none" d="M 1236.00 2003.00 L 1239.00 2006.00 L 1308.00 1907.00 L 1076.00 1907.00 L 1062.00 1907.70 L 1047.00 2003.00 Z" stroke-width="1" id="304-22-04" stroke="black"/>
  <path fill="none" d="M 1256.00 2023.00 L 1276.00 2003.00 L 1376.00 2003.00 L 1396.00 2002.00 L 1436.00 2002.00 L 1456.00 1982.00 L 1476.00 2002.00 L 1496.00 2002.00 L 1591.00 1906.00 L 1416.00 1906.00 L 1396.00 1907.00 L 1308.00 1907.00 L 1239.00 2006.00 Z" stroke-width="1" id="304-22-05" stroke="black"/>
  <path fill="none" d="M 1516.00 2022.00 L 1536.00 2002.00 L 1881.57 2002.00 L 1888.00 1957.00 L 1899.56 1905.00 L 1756.00 1905.00 L 1736.00 1906.00 L 1591.00 1906.00 L 1496.00 2002.00 Z" stroke-width="1" id="304-22-06" stroke="black"/>
  <path fill="none" d="M 222.37 2004.00 L 223.00 2040.00 L 214.00 2058.00 L 220.95 2075.00 L 276.00 2075.00 L 296.00 2095.00 L 316.00 2075.00 L 396.00 2075.00 L 416.00 2095.00 L 436.00 2075.00 L 439.00 2075.00 L 448.00 2004.00 L 356.00 2004.00 L 336.00 2008.00 L 316.00 2016.00 L 296.00 2020.00 L 276.00 2024.00 L 256.00 2004.00 Z" stroke-width="1" id="304-23-01" stroke="black"/>
  <path fill="none" d="M 637.00 2075.00 L 705.00 2004.00 L 448.00 2004.00 L 439.00 2075.00 Z" stroke-width="1" id="304-23-02" stroke="black"/>
  <path fill="none" d="M 828.00 2075.00 L 884.00 2003.00 L 836.00 2003.00 L 816.00 2023.00 L 796.00 2023.00 L 776.00 2003.00 L 736.00 2003.00 L 716.00 2004.00 L 705.00 2004.00 L 637.00 2075.00 Z" stroke-width="1" id="304-23-03" stroke="black"/>
  <path fill="none" d="M 916.00 2075.00 L 936.00 2076.00 L 1116.00 2076.00 L 1136.00 2100.00 L 1156.00 2096.00 L 1176.00 2086.00 L 1196.00 2074.00 L 1222.00 2074.00 L 1256.00 2023.00 L 1236.00 2003.00 L 884.00 2003.00 L 828.00 2075.00 Z" stroke-width="1" id="304-23-04" stroke="black"/>
  <path fill="none" d="M 1236.00 2074.00 L 1256.00 2076.00 L 1387.00 2076.00 L 1412.00 2002.00 L 1396.00 2002.00 L 1376.00 2003.00 L 1276.00 2003.00 L 1256.00 2023.00 L 1222.00 2074.00 Z" stroke-width="1" id="304-23-05" stroke="black"/>
  <path fill="none" d="M 1776.00 2076.00 L 1796.00 2077.00 L 1895.17 2077.00 L 1876.00 2041.00 L 1881.57 2002.00 L 1536.00 2002.00 L 1516.00 2022.00 L 1496.00 2002.00 L 1476.00 2002.00 L 1456.00 1982.00 L 1436.00 2002.00 L 1412.00 2002.00 L 1387.00 2076.00 Z" stroke-width="1" id="304-23-06" stroke="black"/>
  <path fill="none" d="M 220.95 2075.00 L 223.00 2080.00 L 218.00 2124.00 L 202.00 2142.00 L 218.00 2158.00 L 199.00 2183.00 L 217.00 2192.00 L 217.58 2198.42 L 236.00 2180.00 L 256.00 2180.00 L 276.00 2160.00 L 285.00 2160.00 L 297.00 2094.00 L 296.00 2095.00 L 276.00 2075.00 Z" stroke-width="1" id="304-24-01" stroke="black"/>
  <path fill="none" d="M 637.00 2160.00 L 673.00 2075.00 L 436.00 2075.00 L 416.00 2095.00 L 396.00 2075.00 L 316.00 2075.00 L 297.00 2094.00 L 285.00 2160.00 Z" stroke-width="1" id="304-24-02" stroke="black"/>
  <path fill="none" d="M 786.00 2160.00 L 831.00 2075.00 L 673.00 2075.00 L 637.00 2160.00 Z" stroke-width="1" id="304-24-03" stroke="black"/>
  <path fill="none" d="M 976.00 2160.00 L 996.00 2180.00 L 1016.00 2180.00 L 1036.00 2160.00 L 1047.00 2160.00 L 1075.00 2076.00 L 936.00 2076.00 L 916.00 2075.00 L 831.00 2075.00 L 786.00 2160.00 Z" stroke-width="1" id="304-24-04" stroke="black"/>
  <path fill="none" d="M 1131.00 2160.00 L 1213.00 2074.00 L 1196.00 2074.00 L 1176.00 2086.00 L 1156.00 2096.00 L 1136.00 2100.00 L 1116.00 2076.00 L 1075.00 2076.00 L 1047.00 2160.00 Z" stroke-width="1" id="304-24-05" stroke="black"/>
  <path fill="none" d="M 1384.00 2160.00 L 1406.00 2076.00 L 1256.00 2076.00 L 1236.00 2074.00 L 1213.00 2074.00 L 1131.00 2160.00 Z" stroke-width="1" id="304-24-06" stroke="black"/>
  <path fill="none" d="M 1416.00 2160.00 L 1436.00 2180.00 L 1476.00 2180.00 L 1496.00 2160.00 L 1540.00 2160.00 L 1563.00 2076.00 L 1406.00 2076.00 L 1384.00 2160.00 Z" stroke-width="1" id="304-24-07" stroke="black"/>
  <path fill="none" d="M 1723.00 2160.00 L 1743.00 2076.00 L 1563.00 2076.00 L 1540.00 2160.00 Z" stroke-width="1" id="304-24-08" stroke="black"/>
  <path fill="none" d="M 1794.00 2160.00 L 1824.17 2077.00 L 1796.00 2077.00 L 1776.00 2076.00 L 1743.00 2076.00 L 1723.00 2160.00 Z" stroke-width="1" id="304-24-09" stroke="black"/>
  <path fill="none" d="M 1908.98 2160.00 L 1925.00 2133.00 L 1895.17 2077.00 L 1824.17 2077.00 L 1794.00 2160.00 Z" stroke-width="1" id="304-24-10" stroke="black"/>
  <path fill="none" d="M 236.00 2180.00 L 217.58 2198.42 L 219.00 2214.00 L 198.00 2232.00 L 188.00 2262.00 L 216.00 2282.00 L 213.95 2292.95 L 216.00 2295.00 L 236.00 2255.00 L 256.00 2275.00 L 276.00 2275.00 L 296.00 2255.00 L 316.00 2255.00 L 336.00 2254.00 L 399.00 2254.00 L 418.00 2160.00 L 276.00 2160.00 L 256.00 2180.00 Z" stroke-width="1" id="304-25-01" stroke="black"/>
  <path fill="none" d="M 536.00 2254.00 L 556.00 2234.00 L 576.00 2254.00 L 596.00 2253.00 L 605.00 2253.00 L 667.00 2160.00 L 418.00 2160.00 L 399.00 2254.00 Z" stroke-width="1" id="304-25-02" stroke="black"/>
  <path fill="none" d="M 684.00 2253.00 L 763.00 2160.00 L 667.00 2160.00 L 605.00 2253.00 Z" stroke-width="1" id="304-25-03" stroke="black"/>
  <path fill="none" d="M 836.00 2253.00 L 856.00 2252.00 L 972.00 2252.00 L 1002.00 2180.00 L 996.00 2180.00 L 976.00 2160.00 L 763.00 2160.00 L 684.00 2253.00 Z" stroke-width="1" id="304-25-04" stroke="black"/>
  <path fill="none" d="M 1116.00 2252.00 L 1136.00 2251.00 L 1197.00 2251.00 L 1220.00 2160.00 L 1036.00 2160.00 L 1016.00 2180.00 L 1002.00 2180.00 L 972.00 2252.00 Z" stroke-width="1" id="304-25-05" stroke="black"/>
  <path fill="none" d="M 1284.00 2251.00 L 1335.00 2160.00 L 1220.00 2160.00 L 1197.00 2251.00 Z" stroke-width="1" id="304-25-06" stroke="black"/>
  <path fill="none" d="M 1376.00 2251.00 L 1396.00 2250.00 L 1482.00 2250.00 L 1567.98 2160.00 L 1496.00 2160.00 L 1476.00 2180.00 L 1436.00 2180.00 L 1416.00 2160.00 L 1335.00 2160.00 L 1284.00 2251.00 Z" stroke-width="1" id="304-25-07" stroke="black"/>
  <path fill="none" d="M 1636.00 2250.00 L 1645.00 2249.55 L 1652.98 2160.00 L 1567.98 2160.00 L 1482.00 2250.00 Z" stroke-width="1" id="304-25-08" stroke="black"/>
  <path fill="none" d="M 1656.00 2249.00 L 1883.85 2249.00 L 1890.00 2192.00 L 1908.98 2160.00 L 1652.98 2160.00 L 1645.00 2249.55 Z" stroke-width="1" id="304-25-09" stroke="black"/>
  <path fill="none" d="M 236.00 2255.00 L 216.00 2295.00 L 213.95 2292.95 L 210.00 2314.00 L 212.33 2335.00 L 216.00 2335.00 L 236.00 2355.00 L 256.00 2334.00 L 281.00 2334.00 L 333.00 2254.15 L 316.00 2255.00 L 296.00 2255.00 L 276.00 2275.00 L 256.00 2275.00 Z" stroke-width="1" id="304-26-01" stroke="black"/>
  <path fill="none" d="M 416.00 2334.00 L 436.00 2333.00 L 525.00 2333.00 L 518.00 2254.00 L 336.00 2254.00 L 333.00 2254.15 L 281.00 2334.00 Z" stroke-width="1" id="304-26-02" stroke="black"/>
  <path fill="none" d="M 596.00 2333.00 L 616.00 2332.00 L 796.00 2332.00 L 816.00 2331.00 L 896.00 2331.00 L 936.00 2252.00 L 856.00 2252.00 L 836.00 2253.00 L 596.00 2253.00 L 576.00 2254.00 L 556.00 2234.00 L 536.00 2254.00 L 518.00 2254.00 L 525.00 2333.00 Z" stroke-width="1" id="304-26-03" stroke="black"/>
  <path fill="none" d="M 976.00 2331.00 L 996.00 2330.00 L 1002.00 2330.00 L 1037.00 2252.00 L 936.00 2252.00 L 896.00 2331.00 Z" stroke-width="1" id="304-26-04" stroke="black"/>
  <path fill="none" d="M 1136.00 2330.00 L 1144.00 2338.00 L 1180.00 2251.00 L 1136.00 2251.00 L 1116.00 2252.00 L 1037.00 2252.00 L 1002.00 2330.00 Z" stroke-width="1" id="304-26-05" stroke="black"/>
  <path fill="none" d="M 1156.00 2350.00 L 1176.00 2349.00 L 1196.00 2329.00 L 1336.00 2329.00 L 1356.00 2349.00 L 1376.00 2348.00 L 1396.00 2328.00 L 1427.00 2328.00 L 1432.00 2250.00 L 1396.00 2250.00 L 1376.00 2251.00 L 1180.00 2251.00 L 1144.00 2338.00 Z" stroke-width="1" id="304-26-06" stroke="black"/>
  <path fill="none" d="M 1536.00 2328.00 L 1556.00 2327.00 L 1596.00 2327.00 L 1614.00 2250.00 L 1432.00 2250.00 L 1427.00 2328.00 Z" stroke-width="1" id="304-26-07" stroke="black"/>
  <path fill="none" d="M 1677.00 2327.00 L 1684.85 2249.00 L 1656.00 2249.00 L 1636.00 2250.00 L 1614.00 2250.00 L 1596.00 2327.00 Z" stroke-width="1" id="304-26-08" stroke="black"/>
  <path fill="none" d="M 1696.00 2327.00 L 1716.00 2347.00 L 1736.00 2346.00 L 1756.00 2346.00 L 1776.00 2326.00 L 1876.13 2326.00 L 1879.00 2294.00 L 1883.85 2249.00 L 1684.85 2249.00 L 1677.00 2327.00 Z" stroke-width="1" id="304-26-09" stroke="black"/>
  <path fill="none" d="M 212.33 2335.00 L 215.00 2359.00 L 214.00 2385.00 L 202.00 2401.00 L 210.00 2415.00 L 210.11 2418.00 L 276.00 2418.00 L 296.00 2417.00 L 360.00 2417.00 L 450.00 2333.00 L 436.00 2333.00 L 416.00 2334.00 L 256.00 2334.00 L 236.00 2355.00 L 216.00 2335.00 Z" stroke-width="1" id="304-27-01" stroke="black"/>
  <path fill="none" d="M 516.00 2417.00 L 536.00 2416.00 L 576.00 2416.00 L 596.00 2444.00 L 616.00 2438.00 L 636.00 2436.00 L 656.00 2416.00 L 669.00 2416.00 L 687.00 2332.00 L 616.00 2332.00 L 596.00 2333.00 L 450.00 2333.00 L 360.00 2417.00 Z" stroke-width="1" id="304-27-02" stroke="black"/>
  <path fill="none" d="M 756.00 2416.00 L 776.00 2415.00 L 856.00 2415.00 L 876.00 2435.00 L 896.00 2435.00 L 916.00 2415.00 L 899.00 2331.00 L 816.00 2331.00 L 796.00 2332.00 L 687.00 2332.00 L 669.00 2416.00 Z" stroke-width="1" id="304-27-03" stroke="black"/>
  <path fill="none" d="M 976.00 2415.00 L 996.00 2414.00 L 1011.00 2429.00 L 1056.00 2330.00 L 996.00 2330.00 L 976.00 2331.00 L 899.00 2331.00 L 916.00 2415.00 Z" stroke-width="1" id="304-27-04" stroke="black"/>
  <path fill="none" d="M 1016.00 2434.00 L 1056.00 2434.00 L 1076.00 2414.00 L 1147.00 2414.00 L 1176.00 2349.00 L 1156.00 2350.00 L 1136.00 2330.00 L 1056.00 2330.00 L 1011.00 2429.00 Z" stroke-width="1" id="304-27-05" stroke="black"/>
  <path fill="none" d="M 1216.00 2414.00 L 1236.00 2413.00 L 1326.00 2413.00 L 1326.00 2329.00 L 1196.00 2329.00 L 1176.00 2349.00 L 1147.00 2414.00 Z" stroke-width="1" id="304-27-06" stroke="black"/>
  <path fill="none" d="M 1456.00 2413.00 L 1476.00 2432.00 L 1496.00 2432.00 L 1516.00 2412.00 L 1602.00 2412.00 L 1595.00 2327.00 L 1556.00 2327.00 L 1536.00 2328.00 L 1396.00 2328.00 L 1376.00 2348.00 L 1356.00 2349.00 L 1336.00 2329.00 L 1326.00 2329.00 L 1326.00 2413.00 Z" stroke-width="1" id="304-27-07" stroke="black"/>
  <path fill="none" d="M 1696.00 2412.00 L 1716.00 2411.00 L 1731.00 2411.00 L 1757.00 2345.00 L 1756.00 2346.00 L 1736.00 2346.00 L 1716.00 2347.00 L 1696.00 2327.00 L 1595.00 2327.00 L 1602.00 2412.00 Z" stroke-width="1" id="304-27-08" stroke="black"/>
  <path fill="none" d="M 1736.00 2411.00 L 1756.00 2431.00 L 1796.00 2431.00 L 1816.00 2411.00 L 1857.82 2411.00 L 1872.00 2372.00 L 1876.13 2326.00 L 1776.00 2326.00 L 1757.00 2345.00 L 1731.00 2411.00 Z" stroke-width="1" id="304-27-09" stroke="black"/>
  <path fill="none" d="M 210.11 2418.00 L 212.00 2468.00 L 196.00 2487.00 L 214.00 2494.00 L 211.95 2517.00 L 301.95 2517.00 L 348.00 2417.00 L 296.00 2417.00 L 276.00 2418.00 Z" stroke-width="1" id="304-28-01" stroke="black"/>
  <path fill="none" d="M 356.00 2517.00 L 376.00 2537.00 L 396.00 2517.00 L 456.00 2517.00 L 476.00 2516.00 L 480.00 2516.00 L 514.00 2417.00 L 348.00 2417.00 L 301.95 2517.00 Z" stroke-width="1" id="304-28-02" stroke="black"/>
  <path fill="none" d="M 876.00 2516.00 L 896.00 2515.00 L 956.00 2515.00 L 976.00 2535.00 L 996.00 2535.00 L 1016.00 2515.00 L 1117.00 2515.00 L 1147.00 2414.00 L 1076.00 2414.00 L 1056.00 2434.00 L 1016.00 2434.00 L 996.00 2414.00 L 976.00 2415.00 L 916.00 2415.00 L 896.00 2435.00 L 876.00 2435.00 L 856.00 2415.00 L 776.00 2415.00 L 756.00 2416.00 L 656.00 2416.00 L 636.00 2436.00 L 616.00 2438.00 L 596.00 2444.00 L 576.00 2416.00 L 536.00 2416.00 L 516.00 2417.00 L 514.00 2417.00 L 480.00 2516.00 Z" stroke-width="1" id="304-28-03" stroke="black"/>
  <path fill="none" d="M 1256.00 2515.00 L 1292.00 2413.00 L 1236.00 2413.00 L 1216.00 2414.00 L 1147.00 2414.00 L 1117.00 2515.00 Z" stroke-width="1" id="304-28-04" stroke="black"/>
  <path fill="none" d="M 1296.00 2515.00 L 1316.00 2514.00 L 1336.00 2534.00 L 1356.00 2534.00 L 1376.00 2514.00 L 1431.00 2514.00 L 1476.00 2432.00 L 1456.00 2413.00 L 1292.00 2413.00 L 1256.00 2515.00 Z" stroke-width="1" id="304-28-05" stroke="black"/>
  <path fill="none" d="M 1628.00 2514.00 L 1643.00 2412.00 L 1516.00 2412.00 L 1496.00 2432.00 L 1476.00 2432.00 L 1431.00 2514.00 Z" stroke-width="1" id="304-28-06" stroke="black"/>
  <path fill="none" d="M 1665.00 2514.00 L 1746.00 2421.00 L 1736.00 2411.00 L 1716.00 2411.00 L 1696.00 2412.00 L 1643.00 2412.00 L 1628.00 2514.00 Z" stroke-width="1" id="304-28-07" stroke="black"/>
  <path fill="none" d="M 1716.00 2514.00 L 1736.00 2513.00 L 1776.00 2513.00 L 1796.00 2533.00 L 1816.00 2513.00 L 1840.00 2513.00 L 1840.00 2460.00 L 1857.82 2411.00 L 1816.00 2411.00 L 1796.00 2431.00 L 1756.00 2431.00 L 1746.00 2421.00 L 1665.00 2514.00 Z" stroke-width="1" id="304-28-08" stroke="black"/>
  <path fill="none" d="M 211.95 2517.00 L 209.00 2550.00 L 194.00 2573.00 L 208.00 2584.00 L 207.64 2591.00 L 338.64 2591.00 L 346.00 2517.00 Z" stroke-width="1" id="304-29-01" stroke="black"/>
  <path fill="none" d="M 426.64 2591.00 L 462.00 2516.70 L 456.00 2517.00 L 396.00 2517.00 L 376.00 2537.00 L 356.00 2517.00 L 346.00 2517.00 L 338.64 2591.00 Z" stroke-width="1" id="304-29-02" stroke="black"/>
  <path fill="none" d="M 536.00 2591.00 L 546.00 2620.50 L 659.00 2516.00 L 476.00 2516.00 L 462.00 2516.70 L 426.64 2591.00 Z" stroke-width="1" id="304-29-03" stroke="black"/>
  <path fill="none" d="M 556.00 2650.00 L 576.00 2646.00 L 596.00 2642.00 L 616.00 2626.00 L 636.00 2622.00 L 656.00 2611.00 L 676.00 2591.00 L 716.00 2591.00 L 736.00 2590.00 L 776.00 2590.00 L 785.00 2516.00 L 659.00 2516.00 L 546.00 2620.50 Z" stroke-width="1" id="304-29-04" stroke="black"/>
  <path fill="none" d="M 1123.00 2590.00 L 1149.00 2515.00 L 1016.00 2515.00 L 996.00 2535.00 L 976.00 2535.00 L 956.00 2515.00 L 896.00 2515.00 L 876.00 2516.00 L 785.00 2516.00 L 776.00 2590.00 Z" stroke-width="1" id="304-29-05" stroke="black"/>
  <path fill="none" d="M 1376.00 2590.00 L 1396.00 2589.00 L 1475.00 2589.00 L 1474.00 2514.00 L 1376.00 2514.00 L 1356.00 2534.00 L 1336.00 2534.00 L 1316.00 2514.00 L 1296.00 2515.00 L 1149.00 2515.00 L 1123.00 2590.00 Z" stroke-width="1" id="304-29-06" stroke="black"/>
  <path fill="none" d="M 1533.00 2589.00 L 1544.00 2514.00 L 1474.00 2514.00 L 1475.00 2589.00 Z" stroke-width="1" id="304-29-07" stroke="black"/>
  <path fill="none" d="M 1672.00 2589.00 L 1673.00 2514.00 L 1544.00 2514.00 L 1533.00 2589.00 Z" stroke-width="1" id="304-29-08" stroke="black"/>
  <path fill="none" d="M 1832.00 2589.00 L 1840.00 2557.00 L 1840.00 2513.00 L 1816.00 2513.00 L 1796.00 2533.00 L 1776.00 2513.00 L 1736.00 2513.00 L 1716.00 2514.00 L 1673.00 2514.00 L 1672.00 2589.00 Z" stroke-width="1" id="304-29-09" stroke="black"/>
  <path fill="none" d="M 207.64 2591.00 L 205.00 2642.00 L 180.00 2690.00 L 185.25 2696.00 L 216.00 2696.00 L 236.00 2692.00 L 256.00 2706.00 L 276.00 2716.00 L 296.00 2696.00 L 316.00 2676.00 L 353.00 2676.00 L 402.00 2591.00 Z" stroke-width="1" id="304-30-01" stroke="black"/>
  <path fill="none" d="M 456.00 2676.00 L 476.00 2675.00 L 676.00 2675.00 L 696.00 2695.00 L 716.00 2695.00 L 736.00 2675.00 L 748.00 2675.00 L 763.00 2590.00 L 736.00 2590.00 L 716.00 2591.00 L 676.00 2591.00 L 656.00 2611.00 L 636.00 2622.00 L 616.00 2626.00 L 596.00 2642.00 L 576.00 2646.00 L 556.00 2650.00 L 536.00 2591.00 L 402.00 2591.00 L 353.00 2676.00 Z" stroke-width="1" id="304-30-02" stroke="black"/>
  <path fill="none" d="M 876.00 2675.00 L 896.00 2674.00 L 1028.00 2674.00 L 1048.00 2590.00 L 763.00 2590.00 L 748.00 2675.00 Z" stroke-width="1" id="304-30-03" stroke="black"/>
  <path fill="none" d="M 1156.00 2674.00 L 1226.00 2590.00 L 1048.00 2590.00 L 1028.00 2674.00 Z" stroke-width="1" id="304-30-04" stroke="black"/>
  <path fill="none" d="M 1176.00 2694.00 L 1256.00 2694.00 L 1276.00 2674.00 L 1296.00 2674.00 L 1316.00 2673.00 L 1528.00 2673.00 L 1548.00 2589.00 L 1396.00 2589.00 L 1376.00 2590.00 L 1226.00 2590.00 L 1156.00 2674.00 Z" stroke-width="1" id="304-30-05" stroke="black"/>
  <path fill="none" d="M 1716.00 2673.00 L 1733.00 2655.15 L 1729.00 2589.00 L 1548.00 2589.00 L 1528.00 2673.00 Z" stroke-width="1" id="304-30-06" stroke="black"/>
  <path fill="none" d="M 1736.00 2652.00 L 1756.00 2652.00 L 1776.00 2672.00 L 1807.75 2672.00 L 1819.00 2641.00 L 1832.00 2589.00 L 1729.00 2589.00 L 1733.00 2655.15 Z" stroke-width="1" id="304-30-07" stroke="black"/>
  <path fill="none" d="M 185.25 2696.00 L 187.00 2698.00 L 208.00 2709.00 L 197.00 2739.00 L 183.00 2774.00 L 193.50 2784.00 L 216.00 2784.00 L 236.00 2764.00 L 296.00 2764.00 L 316.00 2763.00 L 495.00 2763.00 L 538.00 2675.00 L 476.00 2675.00 L 456.00 2676.00 L 316.00 2676.00 L 296.00 2696.00 L 276.00 2716.00 L 256.00 2706.00 L 236.00 2692.00 L 216.00 2696.00 Z" stroke-width="1" id="304-31-01" stroke="black"/>
  <path fill="none" d="M 556.00 2763.00 L 576.00 2762.00 L 696.00 2762.00 L 716.00 2782.00 L 736.00 2802.00 L 756.00 2782.00 L 776.00 2762.00 L 795.00 2762.00 L 861.00 2675.00 L 736.00 2675.00 L 716.00 2695.00 L 696.00 2695.00 L 676.00 2675.00 L 538.00 2675.00 L 495.00 2763.00 Z" stroke-width="1" id="304-31-02" stroke="black"/>
  <path fill="none" d="M 796.00 2762.00 L 816.00 2782.00 L 836.00 2781.00 L 856.00 2761.00 L 955.00 2761.00 L 978.00 2674.00 L 896.00 2674.00 L 876.00 2675.00 L 861.00 2675.00 L 795.00 2762.00 Z" stroke-width="1" id="304-31-03" stroke="black"/>
  <path fill="none" d="M 1076.00 2761.00 L 1096.00 2760.00 L 1176.00 2760.00 L 1196.00 2772.00 L 1216.00 2772.00 L 1236.00 2800.00 L 1276.00 2800.00 L 1296.00 2780.00 L 1316.00 2760.00 L 1336.00 2760.00 L 1356.00 2759.00 L 1496.00 2759.00 L 1527.00 2673.00 L 1316.00 2673.00 L 1296.00 2674.00 L 1276.00 2674.00 L 1256.00 2694.00 L 1176.00 2694.00 L 1156.00 2674.00 L 978.00 2674.00 L 955.00 2761.00 Z" stroke-width="1" id="304-31-04" stroke="black"/>
  <path fill="none" d="M 1516.00 2779.00 L 1536.00 2759.00 L 1596.00 2759.00 L 1616.00 2758.00 L 1653.00 2758.00 L 1662.00 2673.00 L 1527.00 2673.00 L 1496.00 2759.00 Z" stroke-width="1" id="304-31-05" stroke="black"/>
  <path fill="none" d="M 1806.13 2758.00 L 1782.00 2743.00 L 1807.75 2672.00 L 1776.00 2672.00 L 1756.00 2652.00 L 1736.00 2652.00 L 1716.00 2673.00 L 1662.00 2673.00 L 1653.00 2758.00 Z" stroke-width="1" id="304-31-06" stroke="black"/>
  <path fill="none" d="M 193.50 2784.00 L 204.00 2794.00 L 194.00 2818.00 L 210.00 2845.00 L 207.33 2864.00 L 396.00 2864.00 L 416.00 2863.00 L 434.00 2863.00 L 473.00 2763.00 L 316.00 2763.00 L 296.00 2764.00 L 236.00 2764.00 L 216.00 2784.00 Z" stroke-width="1" id="304-32-01" stroke="black"/>
  <path fill="none" d="M 596.00 2863.00 L 616.00 2843.00 L 636.00 2863.00 L 719.00 2863.00 L 738.00 2800.00 L 736.00 2802.00 L 716.00 2782.00 L 696.00 2762.00 L 576.00 2762.00 L 556.00 2763.00 L 473.00 2763.00 L 434.00 2863.00 Z" stroke-width="1" id="304-32-02" stroke="black"/>
  <path fill="none" d="M 736.00 2863.00 L 756.00 2883.00 L 776.00 2862.00 L 826.00 2862.00 L 836.00 2781.00 L 816.00 2782.00 L 796.00 2762.00 L 776.00 2762.00 L 756.00 2782.00 L 738.00 2800.00 L 719.00 2863.00 Z" stroke-width="1" id="304-32-03" stroke="black"/>
  <path fill="none" d="M 856.00 2862.00 L 876.00 2882.00 L 896.00 2862.00 L 988.00 2862.00 L 1018.00 2761.00 L 856.00 2761.00 L 836.00 2781.00 L 826.00 2862.00 Z" stroke-width="1" id="304-32-04" stroke="black"/>
  <path fill="none" d="M 1076.00 2862.00 L 1096.00 2882.00 L 1116.00 2882.00 L 1136.00 2861.00 L 1436.00 2861.00 L 1455.00 2842.00 L 1461.00 2759.00 L 1356.00 2759.00 L 1336.00 2760.00 L 1316.00 2760.00 L 1296.00 2780.00 L 1276.00 2800.00 L 1236.00 2800.00 L 1216.00 2772.00 L 1196.00 2772.00 L 1176.00 2760.00 L 1096.00 2760.00 L 1076.00 2761.00 L 1018.00 2761.00 L 988.00 2862.00 Z" stroke-width="1" id="304-32-05" stroke="black"/>
  <path fill="none" d="M 1456.00 2841.00 L 1476.00 2841.00 L 1496.00 2860.00 L 1679.00 2860.00 L 1753.13 2758.00 L 1616.00 2758.00 L 1596.00 2759.00 L 1536.00 2759.00 L 1516.00 2779.00 L 1496.00 2759.00 L 1461.00 2759.00 L 1455.00 2842.00 Z" stroke-width="1" id="304-32-06" stroke="black"/>
  <path fill="none" d="M 1836.00 2860.00 L 1855.14 2859.04 L 1867.00 2818.00 L 1856.00 2789.00 L 1806.13 2758.00 L 1753.13 2758.00 L 1679.00 2860.00 Z" stroke-width="1" id="304-32-07" stroke="black"/>
  <path fill="none" d="M 207.33 2864.00 L 202.00 2902.00 L 176.00 2920.00 L 211.00 2929.00 L 209.43 2937.00 L 324.43 2937.00 L 336.00 2864.00 Z" stroke-width="1" id="304-33-01" stroke="black"/>
  <path fill="none" d="M 356.00 2937.00 L 376.00 2936.00 L 628.00 2936.00 L 664.00 2863.00 L 636.00 2863.00 L 616.00 2843.00 L 596.00 2863.00 L 416.00 2863.00 L 396.00 2864.00 L 336.00 2864.00 L 324.43 2937.00 Z" stroke-width="1" id="304-33-02" stroke="black"/>
  <path fill="none" d="M 656.00 2936.00 L 676.00 2935.00 L 936.00 2935.00 L 956.00 2955.00 L 976.00 2954.00 L 993.00 2954.00 L 1034.00 2862.00 L 896.00 2862.00 L 876.00 2882.00 L 856.00 2862.00 L 776.00 2862.00 L 756.00 2883.00 L 736.00 2863.00 L 664.00 2863.00 L 628.00 2936.00 Z" stroke-width="1" id="304-33-03" stroke="black"/>
  <path fill="none" d="M 1036.00 2954.00 L 1056.00 2934.00 L 1236.00 2934.00 L 1256.00 2954.00 L 1276.00 2953.00 L 1316.00 2953.00 L 1336.00 2933.00 L 1349.00 2933.00 L 1344.00 2861.00 L 1136.00 2861.00 L 1116.00 2882.00 L 1096.00 2882.00 L 1076.00 2862.00 L 1034.00 2862.00 L 993.00 2954.00 Z" stroke-width="1" id="304-33-04" stroke="black"/>
  <path fill="none" d="M 1562.00 2933.00 L 1564.00 2860.00 L 1496.00 2860.00 L 1476.00 2841.00 L 1456.00 2841.00 L 1436.00 2861.00 L 1344.00 2861.00 L 1349.00 2933.00 Z" stroke-width="1" id="304-33-05" stroke="black"/>
  <path fill="none" d="M 1576.00 2933.00 L 1596.00 2932.00 L 1715.00 2932.00 L 1740.00 2860.00 L 1564.00 2860.00 L 1562.00 2933.00 Z" stroke-width="1" id="304-33-06" stroke="black"/>
  <path fill="none" d="M 1831.30 2932.00 L 1841.00 2908.00 L 1855.14 2859.04 L 1836.00 2860.00 L 1740.00 2860.00 L 1715.00 2932.00 Z" stroke-width="1" id="304-33-07" stroke="black"/>
  <path fill="none" d="M 209.43 2937.00 L 200.00 2985.00 L 183.00 3006.00 L 202.00 3012.00 L 201.48 3021.00 L 216.00 3021.00 L 236.00 3048.00 L 256.00 3044.00 L 276.00 3044.00 L 296.00 3020.00 L 311.00 3020.00 L 324.00 2937.00 Z" stroke-width="1" id="304-34-01" stroke="black"/>
  <path fill="none" d="M 417.00 3020.00 L 443.00 2936.00 L 376.00 2936.00 L 356.00 2937.00 L 324.00 2937.00 L 311.00 3020.00 Z" stroke-width="1" id="304-34-02" stroke="black"/>
  <path fill="none" d="M 496.00 3020.00 L 516.00 3019.00 L 736.00 3019.00 L 756.00 3018.00 L 816.00 3018.00 L 837.00 2935.00 L 676.00 2935.00 L 656.00 2936.00 L 443.00 2936.00 L 417.00 3020.00 Z" stroke-width="1" id="304-34-03" stroke="black"/>
  <path fill="none" d="M 948.00 3018.00 L 966.00 2954.50 L 956.00 2955.00 L 936.00 2935.00 L 837.00 2935.00 L 816.00 3018.00 Z" stroke-width="1" id="304-34-04" stroke="black"/>
  <path fill="none" d="M 956.00 3018.00 L 976.00 3017.00 L 1165.00 3017.00 L 1182.00 2934.00 L 1056.00 2934.00 L 1036.00 2954.00 L 976.00 2954.00 L 966.00 2954.50 L 948.00 3018.00 Z" stroke-width="1" id="304-34-05" stroke="black"/>
  <path fill="none" d="M 1196.00 3017.00 L 1216.00 3016.00 L 1276.00 3016.00 L 1296.00 3036.00 L 1336.00 3036.00 L 1356.00 3016.00 L 1383.00 2933.00 L 1336.00 2933.00 L 1316.00 2953.00 L 1276.00 2953.00 L 1256.00 2954.00 L 1236.00 2934.00 L 1182.00 2934.00 L 1165.00 3017.00 Z" stroke-width="1" id="304-34-06" stroke="black"/>
  <path fill="none" d="M 1416.00 3016.00 L 1417.00 3015.95 L 1479.00 2933.00 L 1383.00 2933.00 L 1356.00 3016.00 Z" stroke-width="1" id="304-34-07" stroke="black"/>
  <path fill="none" d="M 1436.00 3015.00 L 1637.00 3015.00 L 1666.30 2932.00 L 1596.00 2932.00 L 1576.00 2933.00 L 1479.00 2933.00 L 1417.00 3015.95 Z" stroke-width="1" id="304-34-08" stroke="black"/>
  <path fill="none" d="M 1656.00 3015.00 L 1676.00 3014.00 L 1818.19 3014.00 L 1822.00 2955.00 L 1831.30 2932.00 L 1666.30 2932.00 L 1637.00 3015.00 Z" stroke-width="1" id="304-34-09" stroke="black"/>
  <path fill="none" d="M 201.48 3021.00 L 198.00 3081.00 L 189.00 3098.00 L 212.00 3101.00 L 365.00 3101.26 L 462.00 3020.00 L 296.00 3020.00 L 276.00 3044.00 L 256.00 3044.00 L 236.00 3048.00 L 216.00 3021.00 Z" stroke-width="1" id="304-35-01" stroke="black"/>
  <path fill="none" d="M 558.00 3101.59 L 567.00 3019.00 L 516.00 3019.00 L 496.00 3020.00 L 462.00 3020.00 L 365.00 3101.26 Z" stroke-width="1" id="304-35-02" stroke="black"/>
  <path fill="none" d="M 671.00 3101.79 L 680.00 3019.00 L 567.00 3019.00 L 558.00 3101.59 Z" stroke-width="1" id="304-35-03" stroke="black"/>
  <path fill="none" d="M 794.00 3102.00 L 807.00 3118.00 L 830.47 3109.26 L 834.47 3105.46 L 883.00 3018.00 L 756.00 3018.00 L 736.00 3019.00 L 680.00 3019.00 L 671.00 3101.79 Z" stroke-width="1" id="304-35-04" stroke="black"/>
  <path fill="none" d="M 836.00 3104.00 L 844.58 3104.00 L 858.00 3099.00 L 906.00 3098.13 L 914.00 3018.00 L 883.00 3018.00 L 834.47 3105.46 Z" stroke-width="1" id="304-35-05" stroke="black"/>
  <path fill="none" d="M 1003.00 3096.37 L 1047.00 3017.00 L 976.00 3017.00 L 956.00 3018.00 L 914.00 3018.00 L 906.00 3098.13 Z" stroke-width="1" id="304-35-06" stroke="black"/>
  <path fill="none" d="M 1192.00 3092.94 L 1218.00 3016.00 L 1216.00 3016.00 L 1196.00 3017.00 L 1047.00 3017.00 L 1003.00 3096.37 Z" stroke-width="1" id="304-35-07" stroke="black"/>
  <path fill="none" d="M 1311.00 3090.78 L 1319.00 3036.00 L 1296.00 3036.00 L 1276.00 3016.00 L 1218.00 3016.00 L 1192.00 3092.94 Z" stroke-width="1" id="304-35-08" stroke="black"/>
  <path fill="none" d="M 1464.00 3088.00 L 1462.06 3123.00 L 1476.00 3123.00 L 1490.29 3122.29 L 1517.35 3120.65 L 1536.00 3102.00 L 1570.00 3102.00 L 1616.00 3015.00 L 1436.00 3015.00 L 1416.00 3016.00 L 1356.00 3016.00 L 1336.00 3036.00 L 1319.00 3036.00 L 1311.00 3090.78 Z" stroke-width="1" id="304-35-09" stroke="black"/>
  <path fill="none" d="M 1576.00 3102.00 L 1586.59 3112.59 L 1613.00 3107.00 L 1632.60 3105.40 L 1636.00 3102.00 L 1674.25 3102.00 L 1724.25 3097.92 L 1725.19 3014.00 L 1676.00 3014.00 L 1656.00 3015.00 L 1616.00 3015.00 L 1570.00 3102.00 Z" stroke-width="1" id="304-35-10" stroke="black"/>
  <path fill="none" d="M 1809.00 3091.00 L 1862.00 3072.00 L 1818.00 3017.00 L 1818.19 3014.00 L 1725.19 3014.00 L 1724.25 3097.92 Z" stroke-width="1" id="304-35-11" stroke="black"/>
</svg>
